<?xml version="1.0" encoding="UTF-8"?>
<svg id="fixed_id_0"  xmlns="http://www.w3.org/2000/svg" viewBox="0 0 1868.87 1756.17">
  <defs>
    
  </defs>
  <path fill="#c4d236" d="M1628.29,193.35c-19.82,32.06,4.39,133.76,52.75,88.54,2.47-2.31,63.84-7.93,72.34-9.09-1.59,65.17-23.1,162.45-94.22,185.4-20.7,6.68-73.36,6.54-97.13,7.96-50.45,3.02-105.19,15.22-141.8-28.19-36.33-41.14-53.06-91.78-63.02-144.47-1.72-9.08-1.96-27.26-16.18-19.68-10.35,20.4-9.17,36.54-28.63,54.59-1.18,1.1-17.92,37.98-19.56,41.72-22.67,51.79-39.21,115.26-82.75,154.16-8.72,7.79-42.96,26.49-45.03,31.82,5.32.11,9.6-.6,13.28,2.41.78,10.78-34.56,39.97-41.59,52.14-20.82,36.07-32.55,78.31-67.28,104.5-23.55,18.32-48.77,28.74-74.1,44.72,7.23-2.4,14.41-4.97,21.51-7.7,1.42,80.4-32.86,137.55-74.05,202.54-2.07,3.26-5.27,10.27-4.94,13.96,7.33,1.31,21.7-14.56,28.07-19.25-1.95,29.8-6.02,45.08,5.68,74.98,17.45,44.63-30.09,62.42-49.78,89.05,23.07-10.94,49.09-23.7,69.27-39.02,39.64,26.63,62.56,55.08,71.78,102.51,1.45,7.48,2.1,17.63,5.97,24.14,6.62,11.13,21.77,21.79,29.93,31.01,14.84,16.75,39.76,40.4,52.02,57.69-4.7,8.47-10.33,16.42-16.8,23.67-8.78-11.61-19.04-27.55-29.8-36.49,5.99,12.92,16.46,34.11,19.98,47.32-19.47,25.76-46.86,43.1-77.2,54.48-6.25,2.35-19.28,4.97-23.35,8.25,1.11,2.09,2.43,4.49,5.09,4.55,35.63.87,82.35-26.13,107.44-44.37,8.92,15.97,17.67,32.03,26.27,48.18,4.57,8.59,12.97,26.25,18.68,33.07-4.11-40.97-17.4-60.82-29.47-96.02,5.39-7.3,7.59-10.08,15.22-15.82,27.74,37.18,46.16,101.98,86.07,123.45-3.37-8.73-6.16-14.95-10.26-23.39,91.04,3.64,111.23,1.46,175.27,69.67,2.69,2.86,5.35,5.77,7.99,8.67-16.88-5.75-98.39-35.49-111.46-32.25,8.14,12.54,93.94,44.28,114.01,52.85,23.86,10.19,59.34,31.64,83.99,38.69,21.5,3.41,42.63,1.72,56.12,22.84,10.97,17.18,8.05,37.65,11.38,58.54,4.66,29.22,35.25,85.3-.57,105.53-14.48,8.19-40.16,5.93-56.32,6.46-28.25-.49-57.77-1.47-30.23-34.85,23.87-28.91-21.41-102.51-50.12-116.8-53.09-26.43-106.82-32.16-163.24-46.58-12.68-3.36-31.29-15.06-41.5-16.82-14.92-2.57-29.67.08-46.63-2.86-24.61-4.25-28.39-12.82-47.37-21.17-12.93-5.69-27.89-6-43.86-14.54-40.29-21.57-62.89-50.31-94.77-80.38-13.69-12.92-35.7-26.58-51.15-39.41-23.13-19.22-50.54-46.79-74.34-63.66-9.17-6.49-35.12-10.79-52.97-22.7-10.37-6.92-33.68-27.15-38.93-29.83l-1.08,1.1c3.72,8.72,10.69,15.88,17.75,22.22,6.16,6.02,14.81,14.98,21.18,20.37,9.01,8.97,11.68,10.85,22.08,18.18-42.16,17.57-124.4,38.12-169.87,45.68-13.08-10.05-29.36-9.75-45.45-13.06-31.1-6.39-57.68-14.65-89.74-13.03,33.41,42.88,64.42,72.49,55.77,131.69-1.34,9.13-3.41,21.26-4.17,30.22-32.61-9.67-40.31-18.91-60.1-46.05-8.47-14.62-13.75-25.26-20.8-40.7,1.56,18.58,4.3,33.54,13.93,49.99,17.27,31.54,29.18,42.33,56.56,65.21,15.32,12.83,24.46,69.76,33.84,90.17,12,28.23,40.09,61.69,35.2,94.29-6.21,41.32-74,20.9-101.82,24.55-16.87,2.22-27.96,6.08-43.65,10.28-21.92,5.79-44.67,8.01-67.31,6.57-44.88-2.8-46.93-31.49-3.6-42.81,29.23-9.35,51.58-23.44,73.86-42.93,37.76-33.03,24.62-55.53,5.48-95.69-28.59-60-72.56-114.41-87.78-180.39-4.59-19.93-7.93-37.39-17.41-55.9-14.98-32.21-15.25-83.24,20.34-102.59,5.31-2.89,12.3-8.11,18.87-6.79,1.07,3.09.96,2.98,2.98,5.53,2.77-2.57,6.83-12.73,12.53-17.85,20.21-18.16,52.22-36.95,78.15-45.06,13.92-4.37,27.03,4.37,38.1,11.13,33.09,24.38,59.27,54.84,76,92.17,5.12,11.43,6.6,23.16,12.54,34.31-.13-1.52-.27-3.04-.45-4.55-6.5-54.76-32.77-101.59-76.51-135.84-5.96-4.93-10.22-7.06-16.89-10.75,40.1-15.14,94.05-15.77,139.05-24.66,15.19,12.14,21.79,16.85,39.29,25.21-29.68-39.14-45.97-66.89-57.78-114.29-5.09-16.88-9.31-26.15-9.88-44.66-.4-13.31,17.5-58.03,36.11-44.34.33.24,6.27,27.28,7.69,31.31,7.31,20.66,12.25,43.01,19.86,63.57,3.65,9.81,10.1,19.55,14.96,28.76,2.8,5.34,5.02,14.64,11.37,14.68,3.46-8.66-19.56-50.2-16.62-63.94,7.06-4.22,23.9,1.86,30.45-4.44-5.88-4.63-31.7-3.02-40.27-17.75-7.23-12.33-15.04-36.25-13.02-50.1,2.71-18.72,45.12-1.74,55.5,1.61l.58.47c4.99,4.36,19.03,11.93,25.32,14.83-21.87-39.73-78.34-53.65-118.18-32.29-24.6,13.2-23.93,35.07-26.48,59.03-18.45-30.8-28.29-59.25-27.6-95.55,6-.57,11.59-.39,16.52-3.46-1.56-7.17-27.07-12.04-32.24-37.97-1.75-8.84-3.65-23.5-4.23-35.65-.96-19.91,4.67-96.32-9.88-106.79-1.65,1.38-1.97,1.65-1.88,5.06.44,17.39-.18,30.67-2.61,47.96-18.96-10.57-35.16-19-52.7-31.59-32.34-23.22-41.54-54.27-58.87-87.82-6.1-11.81-13.01-22.72-20.43-33.86,5.88,1.01,9.84,2.32,15.44.57l1.43-1.71c-2.69-5.11-22.76-12.78-30.32-17.8-6.52-4.32-12.36-9.56-17.34-15.54-32.01-38.19-39.65-105.63-47.82-152.56-2.79-15.97-14.87-34.17-11.9-51.91,1.34-7.97,3.22-9.19-.54-13.17-15.99-4.25-66.84,14.51-75.21.54-17.34-28.93,61.6-27.74,75.1-29.29,2.24-4.58,4.4-8.92,6.33-13.65,13.89-8.82,29.08-12.88,44.93-16.83,14.29-3.55,19.27-5.73,33.33-.18,7.81,8.38,8.66,11.59,14.31,21.43,26.01-5.95,53.74-8.55,80.32-11.71,43.9-5.27,87.85-10.11,131.83-14.5,114.53-13.04,229.15-25.37,343.84-36.97l101.78-10.29c18.75-1.88,37.76-3.45,56.41-6.37,13.73-2.15,9.87-10.27,22.53-16.83,3.11-1.61,12.81-3.93,16.74-4.96,5.91-12.59,7.66-20.46,22.45-11.15,7.43.51,12.54-4.81,18.11-1.27,5.49,3.49,6.72,6.09,13.38,2.66,8.67-4.48,23.05,5.28,31.65,7.73,7.7,2.2,9.36,9.89,18.42,10.68,2.34-1.19,5.06-1.94,5.4-4.74,1.56-12.72.75-27.24,2.23-39.88,6.11-52.3,20.04-122.16,63.92-156.62,16.61-13.04,38.2-17.81,58.74-18.5-55.15,62.05-68.51,132.03-64.91,213.41,1.29,29.02,13.25,91.36,29.37,115.92-1.9-14.37-5.53-28.34-8.26-42.51-13.98-72.77-8.61-153.28,23.47-220.88,14.75-31.08,41.46-67.12,78.6-71.46,4.35-.51,8.97-.79,13.35-1.07-10.52,11.9-29.52,33.16-37.12,46.9-26.97,48.73-35.69,114.84-31.79,169.76,2.81,39.62,10.83,76.71,26.77,112.97,3.02,6.88,6.62,17.09,11.64,22.34l1.48-.4c-.14-5.71-7.27-23.84-9.4-31.15-3.34-11.39-6.15-22.93-8.42-34.57-16.14-83.82-7.67-196.06,52.83-261.95,43.04-46.87,92.27-41.53,133.44,3.56,27.55,30.17,42.48,68.28,55,106.46,1.22,3.76,9.09,30.63,3.49,31.62-21.88,3.86-47.41,4.89-69.84,5.91-23.29-12.9-35-9.92-47.45,10.22ZM1122.51,500.17c7.49-10.95,18.15-26.11,23.89-37.69-12.78,9.75-22.13,19.61-32.91,31.48-4.62,4.98-8.58,10.95-15.96,10.6-10.07-11.65,26.62-60.18,37.22-70.24,18.58-18.48,42.96-32.21,60.72-51.43,13.45-14.55,48.19-50.6,40.07-72.14-.97-2.57-23.6-22.13-28.03-27.39l-506.13,51.04-124.5,13.61c-23.21,2.37-61.22,5.05-83.22,9.3-7.9,25.67-22.72,22.46-40.05,43.18,4.89,19.58,15.71,46.12,28.75,61.65,18.09,21.52,74.39,57.77,71.31,92.16-1.81,2.28-1.12,2.41-4.1,2.43-16.8.08-30.12-3.81-47.28-2.71,9.21,4.5,26.98,10.32,36.69,12.72,35.47,8.79,62.36,28.6,75.19,63.19,3.8,10.24,6.29,23.91,11.12,34.2l3.53-28.08c9.31,2.55,20.75,6.25,29.73,9.77,13.23,41.88,9.68,52.77,58.15,56.33,2.87,6.65,5.65,14.71,10.4,19.91l2.24.39c2.95-7.61.1-21.41-1.15-29.6,7.32-5.97,18.5-14.51,24.55-21.22l-1.4.44c-24.24,7.78-32.38,17.87-59,10.28-14-20.93-27.67-55.78-32.77-80.94-.66-6.65,3.76-21.56,1.78-27.38-8.25-24.32-9.73-20.77-6.38-45.34,9.4-69.01,60.6-99.76,128.99-87.4,44.46,8.03,70.08,49.12,67.98,92.43-1.39,31.26-16.93,60.51-12.06,91.69,3.15,22.21,19.14,22.96,22.41,32.03-.6,2.28-1.16,4.39-1.67,6.7,6.41,1.9,22.1-16.83,27.15-21.96,23.03-23.01,53.88-36.8,86.62-38.72-9.83,21.31-14.77,29.98-20.08,52.72,36.44-40.96,42.11-100.34,97.86-126.12,19.47-9,37.38-15.02,59.1-11.01l11.25-18.89ZM852.93,1063.88c.59,4.87,4.21,29.66,5.98,32.86l2.26-1.55c6.27-24.81,6.5-37.04,6.69-62.95-4.32-5.55-13.62-14.06-19.02-19.28-5.56,7.23,2.87,41.13,4.08,50.92ZM1049.87,643.31c14.7-13.35,22.83-28.89,29.07-47.29-6.63,3.39-26.4,29.33-33.7,36.51-12.63,12.4-26.91,21.59-39.1,33.42,14.13.77,33.7-13.52,43.73-22.64ZM745.4,889.81c-1.02-6.83-10.32-12.6-11.99-20.67-3.29-15.83-2.87-31.66-4.77-47.78-8.26,7.96-10.01,53.65-9.17,65.64,5.65,1.31,12.58,2.32,18.4,3.31,3.95.54,3.89.84,7.54-.49ZM1671.08,399.04c-22.5-4.68-25.84-3.28-44.87-18.54-38.71-36.57-52.01-97.48-53.34-148.69-1.18-45.44,7.3-109.66,40.34-144,15.56-16.17,29.35-18.19,50.17-18.29h1.33c-32.69-21.91-64.18-3.12-83.26,25.21-49.64,73.69-37.5,245.04,33.78,300.16,11.91,6.97,46.85,17.13,55.85,4.15ZM759.42,749.7c8.43-6.78,41.27-34.05,46.66-41.24-14.5,2.2-45.94,27.43-49.84,41.24h3.18ZM539.14,648.2c1.72,21.35,22.4,39.92,41.3,47.84l1.34-.8c-.4-1.54-36.69-42.5-41.65-48.59l-.99,1.55ZM924.28,735.56c-26.4,41.85-24.66,94.51-64.61,128.15-13.62,11.47-29.71,16.35-42.03,26.32,6.27.94,11.23.27,17.11-1.05,46.41-10.47,76.1-34.91,81.34-83.29.87-8.19,6.11-37.83,10.2-43.99,11.76-17.77,24.14-22.66,37.86-43.22-4.37,1.24-32.24,13.97-39.87,17.09Z"/>
  <path fill="rgba(238, 239, 212, .02)" d="M1049.87,643.31c-10.04,9.12-29.6,23.4-43.73,22.64,12.19-11.82,26.47-21.02,39.1-33.42,7.31-7.17,27.07-33.12,33.7-36.51-6.24,18.4-14.37,33.94-29.07,47.29Z"/>
  <path fill="rgba(142, 143, 104, .04)" d="M1671.08,399.04c-9,12.98-43.94,2.81-55.85-4.15,5.92-7.62-.46-9.75,10.98-14.39,19.03,15.26,22.37,13.86,44.87,18.54Z"/>
  <path fill="rgba(229, 233, 161, .04)" d="M581.77,695.24l-1.34.8c-18.9-7.93-39.57-26.49-41.3-47.84l.99-1.55c4.95,6.09,41.25,47.05,41.65,48.59Z"/>
  <path fill="rgba(237, 244, 137, .24)" d="M759.42,749.7h-3.18c3.9-13.81,35.34-39.04,49.84-41.24-5.39,7.2-38.24,34.47-46.66,41.24Z"/>
  <path fill="rgba(229, 233, 161, .08)" d="M1122.51,500.17c-2.03-5.31-3.67-4.52-9.02-6.21,10.78-11.87,20.13-21.72,32.91-31.48-5.74,11.58-16.39,26.74-23.89,37.69Z"/>
  <path fill="#c4d236" d="M390.32,302.44c-8.34,5.71-13.69,17.56-25.62,20.7-18.87,4.98-33.98-6.68-51.4-4.47-8.77,1.42-15.58,7.92-20.22,15.07-11.35,17.45-7.57,55.78,11.89,66.55,15.94,8.83,31.57-1.01,46.42-6.21,4.63-1.62,8.94-1.87,13.5.52,8.61,8.84,26.93,118.19,29.72,137.09-48.79,53.03-115.19,32.67-179.15,43.1-79.69,13-124.08-58.17-147.66-121.74-4.31-11.64-4.61-30.53-11.8-40.37-11.85-7.88-32.92,10.94-45.34-1.41-5.33-5.3-8.41-17.9-7.72-24.45-1.92-26.25,49.22-14.68,49.87-24.93,3.41-54.69,12.94-116.43,57.68-156.84,17.41-13.67,29.22-19.62,51.36-24.64-22,17.14-26.61,23.74-41.98,46.56-34.09,54.48-37.14,120.68-23.48,182.28,3.35,15.13,12.08,43.85,20.03,56.76,10.63,15.52,7.9,21.13,25.24,40.38-2.34-8.11-11.27-26.09-15.1-34.81-10.1-22.98-17.03-47.19-20.57-71.99-8.27-59.42,2.98-132.59,40.51-181.29,22.55-24.01,33.23-38.79,67.02-44.88-82.34,82.94-82.84,182.86-40.39,285.19,4.21,10.15,18.9,24.62,22.54,34.52,1.6,4.12,9.31,17.04,13.84,19.12l1.02-2.27c-.89-5.67-6.24-14.41-10.11-18.34-58.2-88.23-53.35-296.08,74.57-325.93,71.58-16.7,141.43,59.37,154.18,122.62-10.15,2.63-30.53,8.42-38.84,14.12Z"/>
  <path fill="rgba(237, 244, 137, .39)" d="M967.46,947.49c3.48,8.1-2.94,29.07-1.64,37.22,10.09,63.88,29.39,63.38-24.35,115.37,22.67-10.85,29.02-15.39,49.11-28.85,31.28,17.8,65.37,56.45,72.06,91.26,7.82,40.64,3.51,33.76,33.77,63.46,13.28,13.04,48.76,49.15,57.43,63.93-3.92,6.79-10.31,18.99-16.35,23.39-9.97,1.53-15.72-10.48-20.96-17.86,3.15,8,8.69,20.93,10.75,28.83-15.45,21.63-34.84,36.28-58.72,48.51-9.29,4.12-28.48,11.03-35.54,14.77,16.22-1.33,31.39-3.82,46.3-10.69,19.41-8.34,35.1-17.67,52.85-28.69,2.88-1.77,3.99-1.18,6.89-.58,5.36,5.7,27.61,51.97,36.66,64.62-3.16-13.5-7.01-26.84-11.52-39.97-4.42-12.44-14.61-32.17-12.43-44.65,4.01-5.29,8.29-10.43,14.8-12.56,4.89,1.06,5.42,3.57,8.67,8.35,24.46,35.89,38.17,85.35,73.51,111.98-2.97-5.74-7.25-12.84-8.3-18.96,5.18-4.23,45.72-.52,55.14-.28,56.78,1.48,98.61,35.99,133.14,78.05,1.39,1.71,2.7,3.47,3.93,5.29-14.74-3.52-31.32-9.75-45.46-15.24-21.29-7.31-37.1-12.04-59.57-16.47,21.63,12.41,33.72,17.57,56.24,27.04,42.47,14.56,79.04,36.18,120.01,53.66,16.67,7.11,31.2,3.61,46.18,9.77,11.5,4.77,20.55,13.93,25.07,25.39,6.67,16.68,4.38,34.42,7.79,52.5,5.6,29.71,37.64,95.32-7.64,110.09-19.98,6.53-68.63,6.03-88.77-.74-19.76-9.27,2.86-30.52,6.94-38.59,13.51-26.68-19.93-86.34-41.02-100.79-45.85-31.41-106.95-37.69-159.68-50.05-21.92-5.15-35.5-14.53-56.26-21-5.42-1.61-31.22.04-43.06-2.02-25.76-4.47-30.31-12.98-50.18-21.63-16.16-5.17-31.19-7.55-46.11-15.92-35.19-19.72-60.07-46.71-88-74.73-17.2-17.26-40.48-30.8-59.28-46.74-22.76-18.16-44.97-42.83-68.68-59.31-10.91-7.59-36.8-14.26-52.04-22.31-6.63-4.34-13.16-9.75-20.07-12.71l-4.36,1.75c-7.06-6.34-14.04-13.5-17.75-22.22l1.08-1.1c5.25,2.67,28.56,22.91,38.93,29.83,17.84,11.92,43.79,16.21,52.97,22.7,23.8,16.87,51.21,44.44,74.34,63.66,15.45,12.83,37.46,26.49,51.15,39.41,31.88,30.07,54.48,58.8,94.77,80.38,15.97,8.54,30.93,8.85,43.86,14.54,18.98,8.35,22.76,16.92,47.37,21.17,16.96,2.94,31.71.29,46.63,2.86,10.21,1.76,28.82,13.46,41.5,16.82,56.42,14.43,110.15,20.16,163.24,46.58,28.7,14.29,73.99,87.88,50.12,116.8-27.54,33.38,1.97,34.35,30.23,34.85,16.16-.53,41.84,1.72,56.32-6.46,35.83-20.23,5.23-76.31.57-105.53-3.33-20.89-.41-41.36-11.38-58.54-13.49-21.12-34.62-19.43-56.12-22.84-24.66-7.05-60.13-28.5-83.99-38.69-20.07-8.57-105.87-40.31-114.01-52.85,13.07-3.25,94.58,26.49,111.46,32.25-2.64-2.9-5.3-5.81-7.99-8.67-64.04-68.21-84.23-66.03-175.27-69.67,4.1,8.44,6.89,14.65,10.26,23.39-39.9-21.47-58.33-86.27-86.07-123.45-7.63,5.74-9.83,8.52-15.22,15.82,12.07,35.2,25.36,55.05,29.47,96.02-5.71-6.82-14.11-24.48-18.68-33.07-8.59-16.15-17.35-32.21-26.27-48.18-25.08,18.24-71.8,45.24-107.44,44.37-2.66-.06-3.98-2.46-5.09-4.55,4.07-3.28,17.09-5.91,23.35-8.25,30.34-11.38,57.73-28.72,77.2-54.48-3.53-13.21-13.99-34.4-19.98-47.32,10.76,8.95,21.02,24.88,29.8,36.49,6.47-7.25,12.11-15.2,16.8-23.67-12.26-17.29-37.19-40.94-52.02-57.69-8.16-9.22-23.31-19.88-29.93-31.01-3.87-6.5-4.52-16.66-5.97-24.14-9.22-47.43-32.14-75.88-71.78-102.51-20.18,15.31-46.2,28.08-69.27,39.02,19.68-26.63,67.22-44.42,49.78-89.05-11.69-29.9-7.63-45.18-5.68-74.98-6.37,4.69-20.74,20.56-28.07,19.25-.33-3.69,2.87-10.7,4.94-13.96,41.2-64.99,75.47-122.14,74.05-202.54-7.11,2.74-14.28,5.31-21.51,7.7,25.33-15.98,50.55-26.4,74.1-44.72,34.73-26.2,46.46-68.44,67.28-104.5,7.03-12.18,42.37-41.37,41.59-52.14-3.68-3.01-7.95-2.3-13.28-2.41,2.08-5.33,36.32-24.04,45.03-31.82,43.54-38.9,60.08-102.37,82.75-154.16,1.64-3.74,18.37-40.62,19.56-41.72,19.47-18.05,18.29-34.19,28.63-54.59,14.22-7.59,14.46,10.59,16.18,19.68,9.95,52.69,26.69,103.33,63.02,144.47,36.61,43.41,91.35,31.21,141.8,28.19,23.77-1.42,76.43-1.28,97.13-7.96,71.12-22.95,92.64-120.22,94.22-185.4-8.5,1.16-69.87,6.78-72.34,9.09-48.36,45.22-72.57-56.48-52.75-88.54,12.45-20.14,24.16-23.11,47.45-10.22,22.43-1.03,47.96-2.05,69.84-5.91,5.6-.99-2.26-27.86-3.49-31.62-12.52-38.18-27.45-76.28-55-106.46-41.17-45.09-90.41-50.43-133.44-3.56-60.5,65.89-68.98,178.13-52.83,261.95,2.27,11.64,5.08,23.18,8.42,34.57,2.13,7.32,9.26,25.44,9.4,31.15l-1.48.4c-5.02-5.25-8.62-15.46-11.64-22.34-15.93-36.26-23.95-73.35-26.77-112.97-3.9-54.92,4.82-121.03,31.79-169.76,7.61-13.74,26.6-34.99,37.12-46.9-4.38.28-9,.56-13.35,1.07-37.14,4.34-63.85,40.38-78.6,71.46-32.08,67.6-37.45,148.11-23.47,220.88,2.73,14.18,6.35,28.14,8.26,42.51-16.12-24.56-28.08-86.9-29.37-115.92-3.6-81.39,9.76-151.36,64.91-213.41-20.54.69-42.13,5.46-58.74,18.5-43.88,34.45-57.82,104.32-63.92,156.62-1.48,12.64-.67,27.16-2.23,39.88-.34,2.8-3.06,3.55-5.4,4.74-9.05-.79-10.72-8.48-18.42-10.68-8.6-2.45-22.99-12.2-31.65-7.73-6.65,3.44-7.88.84-13.38-2.66-5.57-3.54-10.68,1.78-18.11,1.27-14.8-9.31-16.54-1.44-22.45,11.15-3.93,1.03-13.63,3.34-16.74,4.96-12.66,6.56-8.8,14.68-22.53,16.83-18.64,2.92-37.66,4.49-56.41,6.37l-101.78,10.29c-114.69,11.6-229.31,23.93-343.84,36.97-43.99,4.39-87.94,9.23-131.83,14.5-26.58,3.16-54.31,5.75-80.32,11.71-5.65-9.84-6.5-13.05-14.31-21.43-14.06-5.55-19.04-3.37-33.33.18-15.85,3.94-31.03,8.01-44.93,16.83-1.93,4.73-4.09,9.07-6.33,13.65-13.5,1.55-92.44.36-75.1,29.29,8.38,13.97,59.22-4.79,75.21-.54,3.76,3.98,1.88,5.2.54,13.17-2.97,17.74,9.11,35.94,11.9,51.91,8.17,46.93,15.81,114.37,47.82,152.56,4.98,5.99,10.82,11.22,17.34,15.54,7.57,5.02,27.64,12.69,30.32,17.8l-1.43,1.71c-5.6,1.75-9.56.44-15.44-.57,7.42,11.14,14.33,22.05,20.43,33.86,17.33,33.55,26.53,64.6,58.87,87.82,17.54,12.59,33.73,21.01,52.7,31.59,2.43-17.29,3.05-30.57,2.61-47.96-.09-3.4.23-3.68,1.88-5.06,14.55,10.47,8.92,86.88,9.88,106.79.58,12.15,2.48,26.81,4.23,35.65,5.17,25.92,30.68,30.79,32.24,37.97-4.93,3.07-10.52,2.89-16.52,3.46-.69,36.3,9.15,64.75,27.6,95.55,2.55-23.96,1.88-45.84,26.48-59.03,39.84-21.36,96.31-7.44,118.18,32.29-6.29-2.9-20.33-10.47-25.32-14.83,6.43,1.15,9.12,4.11,16.3,6.48l.03-1.5c-6.19-6.49-8.34-8.21-15.57-13.5-28.1-20.09-70.05-22.35-99.14-1.91-17.91,12.57-16.67,40.17-18.6,60.12-1.44-2.02-2.83-4.08-4.17-6.17-14.29-22.09-33.82-71.46-28.2-96.43,2.93-3.92,3.67-3.94,8.39-6.1l1.35-.6c-7.18-6.53-13.87-11.35-18.93-19.9-23.3-39.35-.9-106.03-16.4-145.89-.51,9.31-.96,33.54-4.54,40.8-7.27,3.65-23.75-9.9-31.13-13.52-46.96-23.05-64.46-60.37-84.76-104.99-5.57-12.24-16.74-28.03-24.66-39.9,7.4,1.7,14.77,3.08,22.21,4.53-24.8-14.03-41.23-17.76-56.71-43.76-26.72-44.88-31.35-92.91-40.09-142.61-4.4-25.08-17.34-32.55-10.63-59.97-.26-.83-.51-1.67-.77-2.5-22.89-3.69-50.59,11.7-72.49,2.98-7-2.79-7.9-17.36-3.36-21.68,15.09-14.33,56.29-14.61,75.62-16.16l7.37-13.5c2.89-1.56,5.83-3.04,8.8-4.45,10.81-5.16,19.8-7.13,31.21-10.23,30.95-8.44,39.42-11.14,54.23,19.42,17.84-5.33,50.1-8.05,69.47-10.34,40.45-4.93,80.95-9.57,121.46-13.9,112.63-12.8,225.33-24.83,338.11-36.09,61.77-6.44,131.54-12.36,192.48-20.89,4.92-16.3,13.46-15.61,28.65-19.86,12.23-25.93,17.71-8.05,39.4-14.78l2.03-.64c9.31,6.65,7.74,4.64,18.98,5.34,19.96,1.23,34.29,9.73,48.24,22.84.67-74.94,19.22-216.59,117.51-223.71,5.31-.38,8.48-1.09,12.68,2.45-3.45,6.83-18.14,21.6-23.43,29.96-26.96,42.61-39.22,93.05-41.3,142.81-1.7,38.76,2.8,77.54,13.32,114.93,2,7.2,2.43,12.49,6.09,19.06-.07.25-6.9-43.34-7.82-49.47-4.45-29.71-1.49-55.68-1.62-85.11,8.87-61.8,35.38-170.73,113.56-181.18,4.01-.54,9.78-.78,12.93,1.76-1.47,3.88-19.3,24.16-23.39,28.95-25.77,30.22-36.17,72.86-42.33,111.41-6.34,54.08-4.4,104.91,11.89,157.29,1.57,5.07,6.22,19.13,9.32,22.82-.1-8.38-8.04-38.13-10.04-49.81-7.18-41.92-4.57-77.4-.14-118.75,11.03-58.7,26.65-110.19,77.41-147.03,53.85-39.09,103.08-1.25,134.33,44.12,14.96,22.38,44.84,88.81,43.46,116.3-4.92,7.87-58.98,7.89-71.06,8-12.78-1.21-34.54-13.55-43.92,1.33-18.53,29.4-14.89,79.86,13.9,102.08,13.82,10.67,26.16-8.76,31.84-9.49,14.94-1.93,61.6-9.57,74.31-5.88,2.42,5.34-1.76,32.64-2.64,39.83-7.46,60.63-38.16,143.03-109.37,151.45-29.56,3.5-61.56,3.24-91.39,5.35-20.13.97-47.48,4.77-66.57,3.6-9.99-.64-19.8-2.87-29.07-6.6-65.4-25.97-94.17-122.68-104.14-184.34-.52-3.19-1.46-5.19-4.03-6.94l-4.67.49c-4.7,7.61-8.97,27.21-12.67,32.09-46.93,62.03-56.39,143.77-104.91,205.39-13.41,17.03-37.86,26.1-52.51,39.93,5.33,1.92,4.65.81,7.73,4.55.65,11.09-26.08,34.27-33,42.88-31.14,38.73-37.76,92.03-82.73,121.01-4.48,2.89-45.54,27.5-45.52,28.16.95,32.9-6.42,65.28-15.67,96.71-13.63,43.87-46.54,80.83-64.54,121.54,5.91-5.01,21.31-20.28,27.61-20.37Z"/>
  <path fill="#c4d236" d="M1864.32,240.46c-1.6,3.54-5.02,5.08-8.67,5.8-27.57,4.11-57.75,5.72-85.65,8.08-38.41,3.24-74.94,8.24-113.38,9.43-17.81-8.97-20.7-47.4-6.07-57.83,21.61-4.94,78-7.25,103.15-9.57,21.17-2.03,42.33-4.18,63.48-6.46,9.22-.97,26.33-3.21,34.95-3.05,18.09,10.62,20.43,35.38,12.19,53.61Z"/>
  <path fill="#c4d236" d="M1375.93,1200.9c6.42,8.58,20.38,14.54,30.37,19.69-7.23-2.12-17.09-5.89-23.96-5.27-4.64-1.06-28.24-11.23-33.33-13.41-21.46-9.28-43.01-18.37-64.65-27.24-3.26-.91-18.28-7.69-22.03-9.3-15.18-6.54-30.4-12.98-45.67-19.32-38.5-15.57-76.78-31.63-114.84-48.19-13.25-5.7-31.39-12.92-44.1-18.66-12.57-5.68-38.5-35.76-45.9-48.37-2.45-4.18-7.32-17.75-9.1-22.75,8.18,3.27,17.24,7.39,24.99,11.56,88.28,47.61,179.02,91.9,267.3,139.35,24.34,12.49,58.08,28.58,80.91,41.93Z"/>
  <path fill="rgba(238, 239, 212, .36)" d="M1535.36,524.86c-52.01,100.97-118.99,193.75-198.72,275.3-10.41,10.62-36.66,37.05-48.46,44.32,0-1.08.01-2.17.02-3.25,15.1-18.89,36.33-42.28,50.45-60.95,40.1-53.04,78.71-106.87,111.05-164.81,14.01-25.09,26.71-53.31,40.17-78.87,5.73-10.88,10.67-24.72,16.24-35.54,12-.74,25.73-1.72,37.64-1.18,1.92,6.01-5.31,19.17-8.37,24.98ZM1339.25,783.52c-9.91,11.51-27.38,32.67-36.07,44.8,8.77-6.93,35.43-32.1,42.55-41.17-3.72-.78-3.56-1.09-6.49-3.63Z"/>
  <path fill="#c4d236" d="M1423.15,696.77c-2.83,3.82-17.91,23.36-20.33,24.92-14.39,20.4-39.74,47.16-57.08,65.46-3.72-.78-3.56-1.09-6.49-3.63l56.78-77.04c14.81-23.26,33.33-49.4,46.47-73.17,22.73-41.13,46.36-86.98,65.29-129.69,10.92-.62,24.14-1.7,34.9-1.66-26.76,64.12-78.15,138.86-119.54,194.81Z"/>
  <path fill="rgba(192, 198, 115, .86)" d="M1345.73,787.15c-7.12,9.07-33.78,34.23-42.55,41.17,8.69-12.13,26.16-33.29,36.07-44.8,2.93,2.54,2.77,2.85,6.49,3.63Z"/>
  <path fill="#c4d236" d="M1272.21,1083.29c-4.02,2.17-8.07-.23-14.68.35-63.41-27.48-126.59-55.5-189.52-84.03-11.24-5.07-59.43-25.44-66.61-30.31-3.3-8.06,3.54-27.37,6.1-36.25,16.36,3.84,51.3,25.4,66.96,34.29l92.15,52.5c34.53,19.9,70.75,39.66,105.6,59.36v4.08Z"/>
  <path fill="rgba(237, 244, 137, .55)" d="M361.44,390.52c4.08,1.08,7.15,3.6,9.38,7.06,4.93,7.66,26.92,124.8,24.88,134.96-31.55,47.56-106.53,38.12-154.56,42.52-42.37,3.88-65.91,10.26-103.76-15.24-48.97-33-69.77-94.13-82.07-147.59-33.55,5.2-54.25,16.49-55.31-30.11,12.29-19.91,29.42-17.02,50.91-18.85,1.12-27.82,1.72-52.16,10.15-78.98,15.22-48.39,42.39-94.38,96.24-105.63,4.04-.84,6.1-1.34,9.56.89l-1.3,2.29c-35.25,22.72-59.92,67.54-68.25,107.46-12.16,58.65-4.86,119.6,20.79,173.86l-1.69,2.84c-7.95-12.91-16.69-41.63-20.03-56.76-13.66-61.61-10.61-127.8,23.48-182.28,15.37-22.82,19.98-29.42,41.98-46.56-22.14,5.02-33.95,10.97-51.36,24.64-44.73,40.41-54.27,102.14-57.68,156.84-.64,10.25-51.78-1.33-49.87,24.93-.69,6.55,2.39,19.14,7.72,24.45,12.42,12.34,33.49-6.48,45.34,1.41,7.19,9.84,7.49,28.74,11.8,40.37,23.58,63.57,67.97,134.74,147.66,121.74,63.97-10.44,130.37,9.93,179.15-43.1-2.79-18.9-21.11-128.24-29.72-137.09-4.55-2.39-8.86-2.14-13.5-.52-14.85,5.2-30.48,15.04-46.42,6.21-19.45-10.77-23.24-49.1-11.89-66.55,4.64-7.15,11.45-13.64,20.22-15.07,17.42-2.2,32.52,9.45,51.4,4.47,11.93-3.14,17.28-14.99,25.62-20.7,8.31-5.7,28.69-11.48,38.84-14.12-12.75-63.25-82.6-139.32-154.18-122.62-127.92,29.85-132.77,237.7-74.57,325.93l-4.75,1.49c-3.64-9.9-18.33-24.37-22.54-34.52-42.46-102.33-41.95-202.25,40.39-285.19-33.79,6.09-44.46,20.88-67.02,44.88l2.93-7.49c6.87-6.7,13.7-13.43,20.49-20.21,9.86-7.55,38.31-26.44,50.36-18.39-.42,1.49-15.88,13.85-20.34,19.12-36.56,43.15-56.91,103.74-51.23,159.55,1.09,27.69,17.1,98.87,36.82,119.63-18.06-51.33-22.59-73.75-23.85-128.64,5.67-63.81,18.5-127.68,77.89-165.09,64.51-40.64,137.46,1.88,171.09,60.43,6.52,11.35,21.69,35.88,19.43,48.98-1.85,7.47-30.7,12.26-38.67,19.23-11.3,9.89-16.29,19.53-31.46,21.4-15.45,2.86-39.23-10.6-53.35-2.93-25.51,13.86-23.2,73.18,10.64,77.06,14.2,1.63,18.63-3.3,28.83-10.27,4.44-.21,11.1-1.27,15.37-.14Z"/>
  <path fill="#c4d236" d="M279.76,683.46c20.95,46.11,43.56,82.53,71.65,124.29,3.73,5.32,17.1,24.03,19.25,28.98l.03,2.24c.06,3.15.32,3.86,1.24,6.97l-.32.68-.36-2.16-.13,3.29.33-1.15c-3,2.82-3.5,2.41-7.54,2.93l-13.23-15.83c-10.7-10.87-21.74-27.49-31.21-39.55-44.01-56.12-75.07-118.21-107.33-181.51,10.97-1.44,23.17-2.2,34.29-3.13,9.65,26.4,21.88,48.74,33.34,73.94Z"/>
  <path fill="#c4d236" d="M822.23,1539.22l-.03,2.23c-4.18.79-8.29.94-11.27,3.65-8.8-.82-26.66-7.01-35.62-9.72-35.25-10.65-70.16-22.08-105.96-30.83-14.82-3.61-29.94-7.58-44.01-13.39-.12-10.41.85-19.89,1.93-30.22,34.45,9.63,71.43,25.04,104.97,37.76,28.37,10.77,58.49,20.6,86.38,32.11,1.02,3.98,1.43,4.92,3.62,8.4Z"/>
  <path fill="#c4d236" d="M198.09,665.37c15.34,36.91,30.31,70.29,49.58,105.56,6.74,12.33,15.54,31.24,23.62,42.39l-1.03,5.57c-4.05-.39-4.13-.81-7.91-2.44-30.16-37.42-58.06-86.7-80.15-129.05-14.99-28.53-27.07-55.78-41.27-84.19,11.73,2.19,26.31,6.59,37.62,10.27,5.8,16.85,13.17,35.11,19.54,51.89Z"/>
  <path fill="#c4d236" d="M1534.14,660.48l-2.11-1.06-3.18,1.04c-4.37,5.43-7.14,8.16-13.16,11.69,4.48-6.4,6.05-11.41,4.01-19.37,10.04-21.53,21.93-43.02,32.48-64.75,15.2-31.3,24.92-60.64,37.47-91.93,10.46-.55,24.76-1.73,34.94-1.63-17.92,50.15-61.82,121.22-90.45,166Z"/>
  <path fill="#c4d236" d="M1195.3,963.87c-7.83.16-9.09-4.35-20.17-3.41-16.55-6.05-46.06-21.11-63.42-29.23-29.44-13.49-59.03-26.66-88.76-39.52,3.17-9.44,8.52-21.73,12.32-31.21,11.57,8.01,23.19,15.31,35.32,22.47,42.64,25.19,84.06,52.02,126.62,77.35l-1.91,3.55Z"/>
  <path fill="#c4d236" d="M1224.89,1230.76l-3.76.96c1.6,1.56,2.53,2.41,4.28,3.8-2.88,1.38-6.67-.18-11.62.24-5.13-.72-99.61-38.87-105.18-42.17-4.85-10.81-9.41-27.19-13.03-38.85,18.02,8.48,47.01,26.39,65.67,36.57,16.07,8.76,43.36,22.5,57.54,31.37,2,4.56,2.12,5.06,6.1,8.07Z"/>
  <path fill="rgba(55, 56, 38, .02)" d="M169.03,183.35l.89,7.25c-6.79,6.78-13.62,13.52-20.49,20.21-55.91,63.95-60.74,176.86-29.63,252.31.72,1.75.51,1.1.6,3.04l-2.3-2.98c-25.65-54.26-32.95-115.21-20.79-173.86,8.34-39.92,33-84.74,68.25-107.46l3.47,1.51Z"/>
  <path fill="#c4d236" d="M1383.03,631.06c-1.84,2.42-11.77,15.57-13.61,17.18-3.12,1.04-4.83,2.62-7.44,4.57.41-2.49.59-4.94.68-7.46,10.88-18.01,21.42-35.16,31.63-53.61,16.05-29.01,29.78-63.69,44.97-92.32,7.5,1.6,14.68,3.02,22.02,5.23-23.97,43.39-48.1,86.77-78.25,126.41Z"/>
  <path fill="#c4d236" d="M743.43,1459.86c-2.61,2.16-6.56,1.99-10.78,2.84-23.45-5.97-84.12-23.54-105.33-31.75-2.1-7.3-5.76-18.85-5.47-26.13l2.28-1.14c7.58.61,101.28,40.39,113.4,46.26.86,4.89,2.74,6.31,5.91,9.93Z"/>
  <path fill="#c4d236" d="M371.66,735.7l-1.44,5c-3.51-.57-3.05-.74-6.41-2.38-11.97-12.84-33.41-47.05-42.68-62.06-2.05-3.21-3.02-5.36-4.62-8.74-11.57-20.18-22.32-40.79-32.25-61.8l24.38-4.14c6.66,30.15,45.21,107.15,63.02,134.12Z"/>
  <path fill="#c4d236" d="M799.1,1595.63c-2.23.11-2.73.37-4.82-.13-38.89-9.75-77.67-19.94-116.33-30.55-11.15-3.07-39.09-9.9-48.34-13.47-.33-5.72-1.2-12.68.05-18.11,2.44-2.12,1.04-1.55,4.16-1.8,19.13,5.7,158.11,57,165.29,64.07Z"/>
  <path fill="rgba(86, 87, 60, .02)" d="M669.97,1304.31c.18,1.51.32,3.03.45,4.55-5.94-11.15-7.42-22.88-12.54-34.31-16.73-37.33-42.91-67.79-76-92.17,6.91-5.08,7.18-6.57,11.58-13.91,43.74,34.25,70.01,81.08,76.51,135.84Z"/>
  <path fill="rgba(86, 87, 60, .02)" d="M1495.43,282.07c2,11.69,9.94,41.43,10.04,49.81-3.1-3.69-7.75-17.75-9.32-22.82-16.29-52.38-18.24-103.21-11.89-157.29,2.96,4.91,4.01,5.04,9.34,7.92.43.87,1.44,2.78,1.69,3.62-4.43,41.35-7.03,76.83.14,118.75Z"/>
  <path fill="rgba(237, 244, 137, .97)" d="M889.79,1557.19c5.56,2.04,27.17,10.67,31.86,11.8l4.67,5.17c-2.74,2.42-1.51,1.37-5.93,2.23-38.1-12.69-72.88-20.02-109.45-31.28,2.98-2.71,7.09-2.86,11.27-3.65l.03-2.23c-2.19-3.49-2.6-4.42-3.62-8.4,23.63,9.04,47.36,17.82,71.17,26.37Z"/>
  <path fill="rgba(237, 244, 137, .97)" d="M1485.22,728.05c-3.9,2.73-12.76,12.32-15.54,12.68.1-3.14.61-4.48,1.4-7.51,20.97-28.9,31.77-49.05,48.61-80.42,2.04,7.95.47,12.97-4.01,19.37,6.03-3.54,8.8-6.27,13.16-11.69l3.18-1.04,2.11,1.06c-11.41,18.63-34.09,50.93-48.92,67.57Z"/>
  <path fill="rgba(237, 244, 137, .36)" d="M146.49,218.29c-37.53,48.7-48.79,121.87-40.51,181.29,3.54,24.8,10.47,49.01,20.57,71.99,3.83,8.72,12.76,26.7,15.1,34.81-17.34-19.24-14.62-24.86-25.24-40.38l1.69-2.84,2.3,2.98c-.09-1.94.12-1.29-.6-3.04-31.11-75.45-26.28-188.36,29.63-252.31l-2.93,7.49Z"/>
  <path fill="rgba(229, 233, 161, .04)" d="M185.52,470.5c-19.72-20.76-35.73-91.94-36.82-119.63,1.6,1.16,1.87,1.66,3.19,3.13.55,3.39.49,5.58,2.83,8.05,7.49-4.7.75-12.01,6.95-20.18,1.26,54.89,5.79,77.31,23.85,128.64Z"/>
  <path fill="rgba(237, 244, 137, .95)" d="M1230.9,1243.3c-5.36-2.15-12.09-4.77-17.11-7.53,4.95-.42,8.74,1.14,11.62-.24-1.75-1.39-2.69-2.24-4.28-3.8l3.76-.96c-3.98-3.02-4.1-3.51-6.1-8.07,26.11,11.29,78.38,39.19,100.92,55.81-29.94-10.67-59.31-23.39-88.81-35.2Z"/>
  <path fill="rgba(192, 198, 115, .05)" d="M1425.11,275.95c.92,6.13,7.76,49.71,7.82,49.47-3.66-6.57-4.09-11.86-6.09-19.06-10.52-37.39-15.01-76.17-13.32-114.93,2.45,1.8,3.54,2.2,6.32,3.51l1.39-.69-2.45.31.08.07,2.96-1.38c.12-.74,0-.25.87-1.38l.81-1.03c.14,29.43-2.83,55.4,1.62,85.11Z"/>
  <path fill="rgba(192, 198, 115, .87)" d="M1418.18,1231.12c-10.78-4.98-25.8-10.66-35.84-15.81,6.87-.62,16.73,3.16,23.96,5.27-10-5.15-23.95-11.1-30.37-19.69,26.39,12.61,96.99,47.23,118.33,63.43-25.71-10.17-50.99-21.64-76.08-33.21Z"/>
  <path fill="rgba(192, 198, 115, .93)" d="M418.61,905.03c-5.65-2.4-13.29-12.74-20.19-17.21-5.69-4.39-29.17-31.96-34.52-38.27,4.04-.52,4.54-.11,7.54-2.93l-.33,1.15.13-3.29.36,2.16.32-.68c-.91-3.11-1.17-3.82-1.24-6.97l-.03-2.24c16.44,20.59,27.74,39.88,46.02,61.13,1.74,3.87,2.07,3.32,1.93,7.16Z"/>
  <path fill="rgba(237, 244, 137, .98)" d="M796.22,1474.65l1.56,4.82c-3.77,1.99-6.15.77-11.26,1.03-16.97-4.69-37.16-12.04-53.87-17.8,4.22-.85,8.17-.68,10.78-2.84-3.16-3.61-5.04-5.03-5.91-9.93,19.22,9,38.8,17.24,58.69,24.72Z"/>
  <path fill="rgba(229, 233, 161, .85)" d="M262.36,816.45c3.78,1.63,3.86,2.05,7.91,2.44l1.03-5.57c12.34,18.38,30.04,42.5,40.51,60.93-13.1-10.09-40.53-43.13-49.46-57.8Z"/>
  <path fill="rgba(142, 143, 104, .02)" d="M1383.89,1494.74c-22.52-9.47-34.62-14.63-56.24-27.04,22.47,4.42,38.28,9.15,59.57,16.47-2.33,4.35-3.48,5.62-3.32,10.57Z"/>
  <path fill="rgba(192, 198, 115, .8)" d="M1294.77,1100.85c4.08-.22,2.99.42,6.15-1.36-1.43-3-3.84-5.17-6.15-7.64,18.89,9.47,46.42,25.57,63.48,37.81-12.92-3.13-51.55-21.92-63.48-28.81Z"/>
  <path fill="rgba(192, 198, 115, .9)" d="M846.73,1496.18c-16.06-2.97-45.11-9.74-60.21-15.68,5.11-.25,7.49.96,11.26-1.03l-1.56-4.82c16.57,5.98,35.84,12.12,50.51,21.52Z"/>
  <path fill="rgba(237, 244, 137, .95)" d="M1294.77,1091.85c2.31,2.47,4.72,4.64,6.15,7.64-3.16,1.77-2.07,1.14-6.15,1.36-12.35-5.87-24.77-11.6-37.24-17.2,6.61-.58,10.66,1.81,14.68-.35v-4.08s22.56,12.64,22.56,12.64Z"/>
  <path fill="rgba(229, 233, 161, .75)" d="M1441.14,778.56c5.12-9.92,22.09-37.28,29.94-45.35-.79,3.03-1.3,4.37-1.4,7.51,2.78-.36,11.64-9.94,15.54-12.68-7.73,11.79-33.61,40.77-44.08,50.52Z"/>
  <path fill="rgba(229, 233, 161, .79)" d="M920.39,1576.39c4.43-.86,3.19.19,5.93-2.23l-4.67-5.17c16.04,5.93,42.08,15.26,56.08,23.83-15.48-3.41-42.23-10.55-57.34-16.43Z"/>
  <path fill="rgba(229, 233, 161, .07)" d="M534.41,1455.4l-5.51-1.83-1.72,1.19c.17,3.31.3,6.62.36,9.93-9.64-16.45-12.38-31.41-13.93-49.99,7.05,15.44,12.34,26.09,20.8,40.7Z"/>
  <path fill="rgba(192, 198, 115, .91)" d="M1218.64,976.09l-1.16,1.53-4.92.58c-6.27-3.88-29.16-13.66-37.43-17.75,11.08-.94,12.34,3.57,20.17,3.41l1.91-3.55,16.62,9.85,4.81,5.92Z"/>
  <path fill="rgba(229, 233, 161, .8)" d="M1361.99,652.81c2.61-1.95,4.32-3.54,7.44-4.57-6.44,10.78-24.07,31.93-34.57,38.92,7.46-11.7,19.51-31.45,27.81-41.8-.09,2.52-.27,4.97-.68,7.46Z"/>
  <path fill="rgba(229, 233, 161, .83)" d="M391.93,773c-8.81-8.56-21.91-24.09-28.11-34.68,3.36,1.64,2.89,1.81,6.41,2.38l1.44-5c6.38,10.15,17.23,26.32,20.26,37.3Z"/>
  <path fill="rgba(229, 233, 161, .01)" d="M1070.87,1376.1c3.29.46,5.12.58,8.44.71-14.91,6.87-30.08,9.35-46.3,10.69,7.07-3.74,26.25-10.65,35.54-14.77l2.32,3.37Z"/>
  <path fill="rgba(229, 233, 161, .66)" d="M440.12,928.29c-12.36-8.66-33.12-28-41.7-40.47,6.9,4.47,14.54,14.82,20.19,17.21.14-3.84-.19-3.3-1.93-7.16,8.52,8.99,16.64,20.1,23.44,30.42Z"/>
  <path fill="rgba(229, 233, 161, .74)" d="M1212.56,978.2l4.92-.58,1.16-1.53-4.81-5.92c10.32,5.2,26.1,14.93,34.48,22.74-13.53-3.83-23.16-8.59-35.75-14.7Z"/>
  <path fill="rgba(229, 233, 161, .05)" d="M825.89,1301.76c-6.37-5.39-15.01-14.35-21.18-20.37l4.36-1.75c6.91,2.97,13.44,8.38,20.07,12.71-5.56,2.38-4.22,3.36-3.26,9.41Z"/>
  <path fill="rgba(237, 244, 137, .77)" d="M200.41,491.63c3.87,3.93,9.22,12.66,10.11,18.34l-1.02,2.27c-4.53-2.08-12.25-14.99-13.84-19.12l4.75-1.49Z"/>
  <path fill="rgba(229, 233, 161, .1)" d="M810.2,964.16l-.03,1.5c-7.18-2.37-9.87-5.32-16.3-6.48l-.58-.47,5.67-1.01c-1.42-3.64-1.98-3.89-4.34-7.04,7.23,5.29,9.38,7.01,15.57,13.5Z"/>
</svg>