<?xml version="1.0" encoding="UTF-8"?>
<svg id="_레이어_1" data-name="레이어_1" xmlns="http://www.w3.org/2000/svg" version="1.1" xmlns:xlink="http://www.w3.org/1999/xlink" viewBox="0 0 1024 1024">
  <!-- Generator: Adobe Illustrator 29.3.1, SVG Export Plug-In . SVG Version: 2.1.0 Build 151)  -->
  <defs>
    <style>
      .st0 {
        fill: #c1cd3e;
      }

      .st1, .st2, .st3 {
        fill: #f1f894;
      }

      .st2 {
        fill-opacity: 0;
      }

      .st4 {
        fill: #a9b073;
      }

      .st5 {
        fill: #c4d72f;
      }

      .st3 {
        fill-opacity: 0;
      }
    </style>
  </defs>
  <path class="st5" d="M264.1,6.9c9.8-11.3,12.4-7.2,23.2,1,6.7-13.6,13.2-5.3,20.8,2,10.2-7.1,14.3-3.5,20.8,6.9,8.3,13,1.3,28.7,1.6,42.8,0,5.1,6.7,8.7,5.1,15.1-3.8,15.4-20,23.2-26.6,35.6-2,3.7-5.3,20.6-6.7,26-4.8,20.1-9.6,41.7-14.3,61.8-1.8,7.6-11.3,40.4-11.5,44.3l.7.9c3.8-2.9,6.7-14.3,8.8-20,4.8,25.3,7.3,56.2,5.5,82-1,14.7-4.6,25.3-4.2,40.9,6.1,7.9,12.5,14.4,19.5,21.4-2.9-8.1-6-15.6-9.3-23.5,1.5-1.6,5-1.4,7.2-1.4,33.2.3,67.8,22.7,89.2,48.9-5.9,1.8-31.8,12.4-36.9,15.8,23.8,1,32.5-5.1,54.9-9.6,32.6-6.5,76,5.8,98.7,32.3,4.7,5.5,12.4,16.2,14.9,23.2-4.5,3.7-9.5,7.6-13.9,11.3,8.8-1,19.9-1.8,28.7-.9,22.3,2.3,43,1.6,57.6-19.7l-.3-1.1c-4-1.1-8.8,3.9-12.5,5.6-9.9,4.4-20.4,4.2-30.7,6.3,4.6-13.9,10-27.7,15.6-41.2,3.1-7.5,8-15.9,10.7-23.2-9,9.1-15.3,17.6-22.3,28.5-2.9,4.5-12.3-.8-15.3-2.7-9.3-5.2-19-10.7-16.6-23.7,1.8-15.3,7-29,10.1-44,1.7-8.4,1.9-21.8,5.5-29.2,3.5-7.3,10.5-10.7,15-18.5l.8-1.3c-2.3-26.8,2.5-20.8,15.3-41.4,15-24.3,24.3-34,53.5-37.1,29.1-3.2,57.8,11.8,80.4,30.3,13.7,11.6,23.8,35.1,25.2,53.9,2.5,28-6.1,56.4-23.1,78-10.4,13.1-26.9,25-35.9,39.3-5,7.9-10.1,28-9.9,37.8.2,7.9,3.5,17.9,9.7,22.8,13.7,10.6,26.7,16.7,40,28.5-4.2-6.9-7.1-12.1-12.4-18.1-5.3-6-21.8-12.8-22-20.6,1.9-5.8,12.3-11,17.5-13.8,21.1-11.2,49.3-9.9,71.1-1.7,15,5.7,23.7,11.3,39.8,14.3-10.9-11.4-20.5-14.2-30.5-22.9,25.9-25.1,66.8-27.4,97.2-10.5-5.8-15-8.6-24.3-11.1-40.2-.9-6.1-2.9-19.5-4.5-24.9-1.8,11.5-2.1,33.7-.9,45.6-5.3.9-7.3,1-12.7,1-4-15-6.5-51.6-2.7-66,12-46,3.6-91-7.9-136.1-1.6-6.4-19.3-16.6-23.1-23.3-4.7-6.6-17.6-24.3-15.3-32.7,6.4-5.7,20.5,4.2,23.4-5.3-3.5-2.9-108.5-21.7-123-24.5l-224-45.3-75.9-15c-18.5-3.5-41-7.5-59.1-12.7.4-4.1,1.2-20.5,3.3-22.7,7.7.5,18,2.9,25.8,4.4,14.8,2.8,29.5,5.7,44.2,8.9l89.2,18.1c69.8,14.8,141.4,27.3,211.3,42,21.7,4.7,43.5,9.2,65.3,13.5,15.3,3.2,32,8.3,47.2,7.8-4.3-4.1-5.3-4.7-10.6-7.8,4.9-9.8,5.7-12.9,16.6-13.6,3.8,2.4,8,5.7,11.6,7.9,3.8-3.5,5.8-6.2,10.9-6.3,7.5,3.1,1.3,11.5,20.2,11.3,2.9,1.5,3,2.2,5,4.9.8,1.1,1.6,2.2,2.4,3.3,3.9,1,11.8,2.2,13.6,6.6,3.4,8.2,1.1,18.8,1.1,27.5,0,15.7-5.1,27.9-10.7,42.1,2,6.9,5.5,13.6,6.5,20,1.9,12.6,1,24.1,4.8,36.6,12.1,39.9,30.6,78.3,35.9,120.3,2,17-.4,34,0,51,.2,7.3,2.4,12.7,3.6,19.6,4.6,30.1-26.8,45.7-44.4,63-22.5,22.2-45.2,54.3-76.4,62.1-9.7,2.4-30.4,8.1-40,8.4,12-11.2,22.4-30,26.3-46.4-14.9,23.2-32.2,43.9-56.1,56.5-2.1,1.1-6.2,4.1-8.1,5.8,6-.5,9.9-.8,15.8-2.6-5.1,27.9-24.1,73.4-47,88.7-17.4,11.6-38.6,19.4-57.5,29.8,16.6-4.3,29.8-6.2,46.3-12.3-23.1,18.6-43.4,59.2-60.5,83.8-9.3,13.3-21.3,24.7-30.1,38.2-4,6.2-7.3,18-9.9,25.3,5.8-8.5,11.4-17.2,17.2-25.6-2.2,16.3-.6,36.6-2.7,51-14.8,16.9-43,39.6-61.2,52.4-57.3,40.2-123.5,74.6-191.7,86.3-11.7,2-23.7,4.8-35.7,5.3-1.4,0-2.8,0-4.1,0,6-27.6,10.2-55.4,23.6-80.6,2.5-4.7,5.3-12.9,10.2-16.2,23.8-10.3,62.1-8,85.2-10.2-20.5-5.4-63.1-6.5-83.5-1,.6-5,1.7-13.5,1.8-18.4,11.2-2.3,30.6-6.2,41.5-6.6,30.2-1.1,61.2,4.5,91.3,4.6-35.4-12-84.5-18.1-121-12-3.7-32.6,3.5-50.8,17.1-79.4,4.6-9.6,8.5-18.6,10.5-29.2-6.1,8.3-11,16.7-16.3,25.6-.5-18.7-4-90.7,5.4-103h1.1c.6,7.8,5.7,21,9.5,27.6-2.6-15-5.4-27.8-6.4-43.2-.6-9.5-5.1-21.7-5.7-31.5-2.4-28.5-1.6-66.6,9.9-92.6,8.1,55.5,19.1,85.1,63.1,117.9-.1-.3-.3-.6-.4-1-7.1-12.8-15.9-18.8-23.9-32.4-15.2-25.6-20.6-43.8-23.2-74-.7-8.4-1.2-21.2-2.4-29,5.2,2.4,9.9,3.4,15.5,3.3v-.8c-11.8-5.3-28-14-39.2-17.4-35.6-10.9-66.3-14.7-97-40.1-16.1-13.4-30.6-29.4-45.3-44.7-7.3-7.6-13.6-16-21.7-22.7,7.2,3,19.5,6.8,25.6,9.9l2.2-.7c-17.5-17.9-49.1-24.4-63.3-46.6-9.1-14.2,2.2-35.5,6.2-50,2.1-7.6,3.9-13.9,5.5-21.8-3.4,4.5-7.4,13.6-9.9,15.6l-.8-.9c-.6-5.3.5-16.3,1-22,4.7-49.5,27.9-93,49.2-136.1,4-8.2,9.3-22.5,13.2-31.8,0,5.6,0,10.2-.3,15.8-.6,5.6-1.1,11.4-1.9,16.9,2.2-4,2.9-5.5,4.5-9.8,2.1-7.8,4.4-21.4,3.5-29.2-1.5-12.7.6-16.7,3.3-27.7-.5-9.2-5.9-19.7-6.7-28.7-1.6-17.8,6.5-34.1,4.2-52-.6-4.7-8-12.2-.7-15.7,5.4-2.6,11.3,1.7,15.3,4.9ZM541.1,781c5.9-4.6,12-8.1,18-12.9-8.2,39.2-20.1,66.6-12.1,109.7,4.6-53.9,13.6-89.5,37.1-138.4,14.9-31,28.6-55.3,36.6-89.7,5.6-23.7,4.1-31.2,6-54l-1.2-4.6c-7.4,33-14.1,64.7-29.6,94.8-4.8,9.3-10.8,17.9-15.6,27.2-12.7,26-25.5,51.1-49,68.2-2.1,1.6-11.9,9.2-13.2,11,5.6-2.3,16.4-8.3,23-11.3ZM488,535.5l1.5-1.1c-2.1-1.2-9.7-1.4-12.7-1.8-19.8-2.4-32.5-7.4-48.9-19.4-8.4-6.2-15.9-13.7-22-22.4-4.1-5.6-12.1-22.4-15.1-24.2,7.9,45.9,41.9,80.5,87.4,71.2,3.3-.7,6.6-1.5,9.8-2.4ZM587.7,562.2c-28.3,2.1-39.1-14.1-51.2-38,2.5,25.5,12.1,32.5,25.5,50,1.1,9.2,1,19.1.9,28.4.4,2.7.2,3.9,1.6,5.9,1.3-1.9,1.4-3.7,1.9-6,.3-.5,3.5-9.2,4-10.2,4.8-11.8,9.4-20.4,17.5-30ZM465.8,640l10.8,6.6c11.4,6.3,22.6,9.3,35.4,5.4,14.2-4.4,39.2-23.9,38.9-40.9-.5-.3-1.2-.8-1.7-.9-18.9,25.4-39.7,40.2-71.8,33.2-3.9-.9-7.7-2.5-11.6-3.4ZM362.2,443.3c-14.1-25.7-26.9-37.9-55-46.7-7.6-2.4-25.1-5-32.9-3.9l.9.4c22.9,10.4,52.2,18.6,72.5,34.5,5.6,4.4,9.2,11.4,14.6,15.7ZM675.9,588.3c5.2,14.1,8.1,31.3,4.4,46.2v1.9c5.7-6.5,6.8-29.5,8.2-39.1,11.1-11.5,22-27.5,22.4-44.7,0-1.2,0-1.4-.5-2.5l-.8,1.4c-10.7,17.6-11.1,28.1-33.7,36.8ZM205.4,312.6c1.6-2,3.8-19,3.6-21.7-1-11.1,21-75.7,20.2-80.4l-.4-.3c-12.6,19.7-34.9,80.4-23.4,102.4ZM653.5,676.4c-12.7,8.9-41.5,33.4-47.5,47.3.2.4.5.8.7,1.2,16.7-11.2,36.4-30.3,47.4-47.5l-.6-1.1ZM916,422.3c2.2-26.9-.7-46.5-12.9-70-3.2-6.2-8.6-19.7-14.5-22.9.9,4.8,9.4,26.8,11.8,32.2,4.8,10.8,9.7,55,15.6,60.6ZM640.3,498.9c-2.5,10-.5,19.7-1.3,29.6-.4,5.5-3.7,13.7-5.1,19.3,2.6-4.6,5.5-10.1,8.3-14.6,3.9-5.3,7.7-7.3,13.6-9.6-.9-1.6-15.1-24.4-15.5-24.8ZM455.1,572.7c-.1,15.3,3.7,24.5,13.4,36,3.9,4.6,13.3,11.1,19.1,11.8-7.5-8.2-11.7-11.4-18.3-21.3-3.4-5.1-11.6-24-14.2-26.5ZM616.8,521.5c3.9-1,5.2-5.5,6.9-9.1,3-6.4,16.6-33,11.3-38.4-6.2,20.9-9.4,22.7-22.1,40.2,1.2,2.4,2.5,5.1,3.9,7.3ZM698,659.6c12.8-8,26.7-24.4,26.1-41.1-5,7.4-9.7,16.6-14.7,24.3-2.7,4.3-10.4,13.1-11.7,15.9l.2.9ZM749.8,465.7c-10.7.9-23.7,4.2-30.6,13.3-1.7,2.3-3,3.5-3,6.5,4.7,2.2,12.8-5.9,18.6-8.6l1.1-.4c12-4.3,29.3-4.4,35.8-7.1l.4-1c-5.8-3-16.1-3.2-22.4-2.7ZM461.5,842.2c3.6,4.9,6.5,9.1,9.8,14.2,6.7,10.6,19.3,37.4,30.2,41.7-2.8-16.9-24.6-49.7-40-55.8ZM403.9,709.7c-3,34.7,6.2,42.5,19.3,72.9.3-6.7-15.2-69.4-19.3-72.9ZM450.3,417.5c2.7,3.4,26.7,16.3,35.8,25.7,9.1,9.5,15.4,27.9,19.2,30.5-.5-28.7-28.9-55.1-54.9-56.2ZM868.9,474.3c-16,4.3-32,8.4-43.9,22.4l-.2,1.4c3.6.5,10.8-3.6,14.3-5.3,16.3-9.1,33.5-12,51.4-14.1-8.5-5.8-11.1-4.7-21.5-4.3ZM257.7,247c-10.1,23.1-27.5,60.8-23,86.9,2.1-4.4,8.3-17.5,9.4-21.3,3-10.7,14.1-56.2,14.2-64.9l-.6-.7Z"/>
  <path class="st1" d="M241.9,426.2c4.2,2.5,6.7,4.3,10.7,7.3-3.4-1.3-10.2-4-12.9-6.5l2.2-.7Z"/>
  <path class="st2" d="M640.3,498.9c.4.4,14.6,23.2,15.5,24.8-5.9,2.3-9.7,4.3-13.6,9.6-2.8,4.5-5.7,9.9-8.3,14.6,1.3-5.6,4.6-13.9,5.1-19.3.8-9.9-1.2-19.7,1.3-29.6Z"/>
  <path class="st1" d="M518.1,792.2c5.6-2.3,16.4-8.3,23-11.3-7.3,9.4-28.2,16.7-39,19.7,3.8-2.8,11.1-7.4,15.4-9l.6.6Z"/>
  <path class="st0" d="M759.4,536.8l1.6.3.3.8c-2.2,7.6-6.2,6.7-12.6,7.2l-1.8-1v-1.4c3.7-2.7,8.1-2.8,12.6-6Z"/>
  <path class="st1" d="M625.5,591.1l-.7-1.3c0-3.7.6-15.5,1.7-18.2.8,5.4,1.4,18.9.2,24.1l-1.2-4.6Z"/>
  <path class="st1" d="M395.1,734c.7.9.6,1,1,2.2-1,2.9-3.5,4.7-5.7,6.9-.6-.6-.3-.1-.5-1.6,1.6-3.5,2.7-4.5,5.2-7.5Z"/>
  <path class="st3" d="M562.8,602.6c2.2-.5,2-.9,3.4-.2-.4,2.3-.5,4.2-1.9,6-1.4-2-1.2-3.1-1.6-5.9Z"/>
  <path class="st5" d="M905.3,544.7c.4.1.7.6,1.1.9-1.5,13.5-4.3,23.6-7,36.3-11.1,50.9-27.6,100.4-49.2,147.3-55,119.1-148.7,213-263.9,264.3-28.2,12.9-46.9,17.7-74.8,27.7h-.8c1.5-1.8,23.7-11.4,27.5-13.1,132.9-61.2,234.7-182.6,287.8-324.5,11.5-30.7,18.7-58,25.8-89.9,11.2-6.7,23-17.2,32.3-26.8,6.6-6.9,13.5-17.1,21.3-22.2Z"/>
  <path class="st5" d="M932.8,287.1c.4.3,1,.6,1.2,1,39.1,66.1,54.9,152.4,45.9,229.6-11.1,91.5-42.2,179-90.9,255.4-9.3,14.8-19.9,28.8-29.6,43.3-30.8,46-69.9,82-111.5,116.5-3.3,2.5-6.2,5-10,6.6,22.8-20.2,47.1-49.2,65.4-73.9,53.8-71.5,93.8-153.6,117.6-241.6,5.7-21.1,9.8-39,13.4-60.7,2.5-15.5,4-36.7,7.3-51,.4-1.7,12-16,15.4-25.1,7.6-20.3,5.9-27.1,5.2-48.7-.3-10.5.8-24.5-.1-34.7-3.4-37.4-16.3-81.8-29.3-116.8Z"/>
  <path class="st5" d="M813.1,611.7c.7-.2,1.5,0,2.3,0,2,6.3-18,62.4-21.9,72.2-9.8,24.6-22.1,53.8-34.8,76.8-43,79.3-107,143.5-184,184.5l-1.6.6c0-2.1,21.4-16.8,24.7-19.4,35.8-27.3,66.6-61.5,93.4-98.5,8.7-12,16.5-26.9,23.6-40.1,28.9-52.5,50.6-109.2,64.5-168.2,12.8-4.2,21-5.8,34-8Z"/>
  <path class="st5" d="M58.5,318.8c.4-16.3,2.2-27.7,5.5-51.3,8.6-60.8,28.5-131.4,57-184.9,1.9-3.5,39.2-13.9,46.5-16.9l-.6,1.5c-4,9.7-9.5,19.2-14.4,28.4-31.3,58.4-54.9,121.8-69.3,187.3-2.8,12.6-4.5,25.8-6.6,38.6l-1.1-.4c.5-2.5.9-3.5.4-6-4.8-3.5-4.1,5.4-9.6,6.3-1.1-2.4.8-1.4-.9-4.2-2.4.3-2.3.5-4.4,1.9-1.1,4.4,1.6,4.3.9,8.9-1.9,1.6-.9,1.4-2.9,1.4-1-2.6.3-7-.4-10.8Z"/>
  <path class="st5" d="M203.6,11.6c13.4-1.5,23.6,2.5,37,5,0,8,0,15.9-.1,23.9-8.3-1.9-29.2-6.3-36.8-4.6-24.9,5.6-50.9,14.4-75.7,21-6.9,1.8-14.4,6.1-21.3,8.3-23.9,7.7-47.8,15.6-71.9,22.9-6.1,2.6-15.9,5.4-22.2,7-15-7.1-17-27.8-3.4-32,32.2-10.1,70.7-23.8,103.3-29.2,30.2-5,62-19.5,91.2-22.2Z"/>
  <path class="st5" d="M199.6,57.2c7.1.7,16.8,1,23.1,4.1l.7,1.2c-2.4,6.9-12.8,21.8-17.1,28.6-5.5,8.5-10.8,17.2-15.8,26.1-25,43.9-46,89-59.2,138.3-3.2,12-7.1,23.6-9.7,35.7-1.6-2.2-1.4-4.7-1.8-7.5,6.7-67,41.6-172.8,79.9-226.6Z"/>
  <path class="st5" d="M901.3,158c13.3,4.1,36.1,22.2,48.4,29.7,16.2,10.4,33.7,20,49.3,31.5,11.1,8.2,34.4,17.2,21,34.2-4,3-8.5,6.3-13.3,3.1-26.1-17-52.5-34.4-77.3-53.5-9.3-7.2-19.4-11.7-28.3-19.8-.8-8.7-.2-16.6.2-25.3Z"/>
  <path class="st5" d="M86.4,92.7c.3.4.6.8.9,1.3-2.4,6.2-10.9,22.6-13.3,27.7-22.2,47.9-38.4,97.8-48.9,150-2.6,13.2-7.4,33.1-7.4,46.4-1.9-5.7-1.4-13.6-1.6-19.7-1.2-37.1,7.9-71.8,14.8-107.5,6.7-34.1,14.5-58.1,27.1-90,8.1-3.9,19.4-5.1,28.3-8.2Z"/>
  <path class="st0" d="M58.5,318.8c.7,3.8-.6,8.1.4,10.8,2.1,0,1.1.2,2.9-1.4.8-4.6-2-4.5-.9-8.9,2.1-1.5,2-1.6,4.4-1.9,1.8,2.7-.1,1.8.9,4.2,5.6-.9,4.8-9.8,9.6-6.3.4,2.5,0,3.5-.4,6l1.1.4c-6.1,44.9-9.1,86.6-6.5,132,.6,10.9,1.6,21.8,3,32.6.5,3.8,3.2,18.4,2.5,20.2-1.8-5.5-3.7-15.3-5.1-21.3-10.7-46-13.9-95.3-13.1-142.6,0-4.3.3-20.4,1.1-23.7Z"/>
  <path class="st4" d="M121.5,291.3c-1.2,7.8-3.2,16.8-4.6,24.8l-.5-.7c-1.1-9.3,1.7-22.2,3.3-31.6.4,2.8.2,5.2,1.8,7.5Z"/>
  <path class="st2" d="M242.6,148.4c.8,4.2,1.5,3.8,2.6,7.1-1.5,4.3-2.2,5.8-4.5,9.8.7-5.5,1.3-11.4,1.9-16.9Z"/>
</svg>