<?xml version="1.0" encoding="UTF-8"?>
<svg id="_레이어_1" data-name="레이어_1" xmlns="http://www.w3.org/2000/svg" version="1.1" xmlns:xlink="http://www.w3.org/1999/xlink" viewBox="0 0 1024 1024">
  <!-- Generator: Adobe Illustrator 29.3.1, SVG Export Plug-In . SVG Version: 2.1.0 Build 151)  -->
  <defs>
    <style>
      .st0 {
        fill-opacity: 0;
      }

      .st0, .st1, .st2, .st3, .st4, .st5, .st6, .st7, .st8, .st9, .st10, .st11 {
        fill: #fbfcac;
      }

      .st12 {
        fill: url(#_무제_그라디언트);
      }

      .st13, .st14 {
        fill: #ced16a;
      }

      .st1 {
        fill-opacity: 0;
      }

      .st2 {
        fill-opacity: 0;
      }

      .st3 {
        fill-opacity: 0;
      }

      .st4 {
        fill-opacity: 0;
      }

      .st5 {
        fill-opacity: 0;
      }

      .st6 {
        fill-opacity: 0;
      }

      .st8 {
        fill-opacity: .1;
      }

      .st15 {
        fill: #cccb81;
      }

      .st16 {
        fill-opacity: 1;
      }

      .st16, .st17 {
        fill: #afaf9e;
      }

      .st18 {
        fill: #d1da55;
      }

      .st9 {
        fill-opacity: 0;
      }

      .st17 {
        fill-opacity: 1;
      }

      .st10 {
        fill-opacity: 0;
      }

      .st14 {
        fill-opacity: 0;
      }

      .st11 {
        fill-opacity: 0;
      }
    </style>
    <linearGradient id="_무제_그라디언트" data-name="무제 그라디언트" x1="455.2" y1="563.5" x2="474.3" y2="573.5" gradientTransform="translate(0 1024) scale(1 -1)" gradientUnits="userSpaceOnUse">
      <stop offset="0" stop-color="#ffffcf" stop-opacity="0"/>
      <stop offset="1" stop-color="#fafc97" stop-opacity="0"/>
    </linearGradient>
  </defs>
  <path class="st18" d="M615.7,85.7c-4.1,1.1-7.9,3.2-11.8,3.9,5.6-39.1-10.8-67.9,33.4-86,32.3-13.2,44.5,14.7,71.5,16.2l-3,6.7c2.9-1,6.5-2.7,9.3-1.8,2.2,3.7-.1,6.6-.4,11.3,1.7-1.2,2-1.9,3.7-1.9,1.2,9.8-6.6,16.6-13.4,21.1.9,15.5,1.9,19.4-5.9,32.9,0,8.5,1.5,16.8,1.4,25.8-3.2.3-6.4.2-9.6.1-1.5,5.9-2,7-5.6,11.8-1.4,1.9-6,8.8-6.2,11.1-1.5,18.3-20.5,5.1-29.5,1.3-20.2,13.3-13.9,28.7-38.1,12.6,6.5,11.9,11.2,14.4,23,10.5,2.4-3.1,6.2-11.3,9.2-12.5,9.9-3.9,14.3,24.3,15.4,29.9,2.8-4.1-.6-16.9-1.8-21.6,2.8.6,5.5,1.4,8.1,2.5,17.6,6.9,25.5,25,32.8,41.8-6.1,1.3-10.6,2.4-16.6,4.2,14-.8,17.6-.5,28.8,8.9-10.6,5.7-18.8,13.5-23.3,25.7,4.5-7.1,17-22.1,24.7-20.5,18.8,3.8,19.6,29.6,18.8,44,4.3-22.1,5.3-25.3,20.6-40.3,9.2-9,16.9-30.5,20.4-43.8-3.2-5.3-9.2-16.3-10.1-22.3-.9-5.9,4-33.1,6.4-36.6,14.3-1.9,1.2,24.5,9.3,24.3,2.8-9.6,0-22.1,8.9-27.4,5.6-.2,3.7,4.6,8.1,6.8,11.3-.2,6.6,5.8,10.2,7.9,6.2,3.5,6.2-2.2,9,11.3,2.7.2,7.5.3,7.8,4.1.6,7.7-4.7,21-8.1,27.3-6.4,11.4-14.2,20.1-18.5,33-7.3,21.8-11.2,44.3-21.8,64.7-3.4,6.6-5.4,5.8-8.6,10.4-2.6,3.7-3.8,10.4-7.1,14.9-2.8,3.7-6.8,6.1-11.2,6.4-8,.7-21.2-4.4-27.5-9.9-14.3-12.6-31.6-16.8-43.1-33.2-.3-.4-2.9.7-4.4-1.1-3.1-3.9-10.1-11-13.3-13.8-2.3,3.1-5.1,6.5-7.6,9.6-.7,13.9-6.2,30.6-17.6,38.9-2.4,1.7-9.4,4.3-12.3,3.5l-.4-2c.6-4.3.8-10.8.3-15.2l-1.7,14.5c-3.3,15.6-12.7,28.3-21.2,41-1.1-6-5.8-31.5-8.7-35.3.5,5.7,2.7,11.3,2.9,15.1,1,16.4-.7,39.9-7,54.6-15.9.1-22.1,1.1-37-5.1-13.5-5.6-26.3-9.9-40.9-9.4,10.1,3.2,21.8,6.3,31.4,10.9-13,2-22.4,4.3-34.9,9.1,6.8-.8,29-4,34.3-3l.7.9c-2.5,4.4-18.2,9.9-24.9,15.5,41.3-16.1,61.5-18.7,104.9-7.4-9.8,9.8-18.4,21-25.6,33.3-7.4,1.6-16.4,2.6-23.2,5.5,3.3,6.6,6.9,16.7,9,23.9-4.2,11.3-8.2,21.7-11.5,33.3,5.1-8.3,12.6-24.2,16.1-33.7-2.7-8.1-5-14.1-8.1-22,6.9-.8,14.2-.7,21.2-.5,5.5-12.2,18-31.2,29.2-37.6,22.3,5.3,71.7,28.6,89.6,43.7,4.2,3.5,7.8,7.7,10.7,12.5,9.6,16.2,6.8,30.7-2.7,45.7-2.1,3.3-2.4,8.5-5.6,11.7-17.3,17.2-30.4,38.7-46.5,56.8-15.7,17.6-33.2,32-47.6,50.9-10.7,12.9-13.2,26.8-21.8,38.9-3.6.3-7.2.8-10.8,1.3,2.2.2,6.7.9,8.8.9,9.5,2.3,10,6.3,6.4,16.2-1.3,3.5-2.6,7-4,10.5-4.9-2.6-11.9-6.6-17.3-5.2l-1.2,1.3.2,1.2c4.4,1.8,11,2.8,16.4,4.7-3.4,1.4-8.6,3.4-11.2,6.2l.2,1.1c2.2,1.2,2.3,1.1,4.7,1.1,1.1.4,2.3.9,3.3.8l3.3.5.4,1c-1.3,2.4-5.1,4.4-7.5,6.1l.3.8,2.7-.4.7-.2c3.9-1.3,7.4-4.5,10.4-3,2.1,4.1.8,6.4-2.2,8.8-2.7,1.1-3.5,1.2-5.7,3.2-.2,1.8-.3.9.8,2.6,4.4-2.5,8.9-4.9,12.6.5,0,2.7.3,1.5-1.2,3.8-1-.2-1.7-.6-2.3-.3.4.9.3.4,0,1.6-1,.3-1.8.6-2.8.8l-.9.2.6,1.1c2.6,2,6,2.5,9.2,3.3,7.6,11.7,14,16.1,23.4,25.6,2.7,2.7,2.7,10.1,2.3,14-1.6,14.1-17.8,12.6-27.1,10.5-1.4-1.2-3.1-3.1-4.4-4.5-3.7,0-8.9.6-11.8-1.6l-.4-1-.6-1.2c-3.2-7-4.7-1.1-10.1-3.4-3.4-1.4-5.1-8.2-6.7-9-3.7-1.9-9.6.8-12.2-4.9,0-2.7.4-3.2,1.5-5.8l.3-.8c-2.1-1.5-7-.7-8.5-2.5-4.4-5.3-4.9-14.8-10.4-19.9-5.2-4.8-12.5-6-18.4-10.2-2.6-.5-2.4-6.8-3.5-7.2-9.7-3.2-10.8-4.2-12.2-15-1.1-1.2-3.9-.8-6.1-1-3.9-2.6-5.6-15.8-4.1-20.2,1.1-3.4,8.8-6.1,11.8-7,5.2,21.1,19,25,31.9,39.7,4.2,4.8,8.4,12.6,11.9,18.2,15.1,23.8,34.7,38.7,60.2,46.7-17.8-10.4-36.6-20.8-49.4-38.3-5.2-7.1-13.6-21.7-19-27.4-11.4-12.2-20.3-19.2-30.7-33.6-1.7-2.3-2.7-4.4-4-6.9,1.6-2.6,3.3-4.5,5.2-6.8,3.6-4.2,21.8-21.4,27.1-20.7,5.8.8-2.5,18,4.7,26.3,6.6,7.6,24,8.8,33.2,9.5-1.8-1.2-4.9-3.3-6.9-3.9-11.2-3.5-24.9-.8-24.9-18.3,0-15,3.9-21.3,13.3-31.7,3.2,1.1,9.3,6.2,13.9,8.6-3.1-3.2-6.1-6.4-9.1-9.6,0-.2,0-.4,0-.7.6-6.6,22.5-40.9,27.3-52.7,4.8-12,4.6-26,11.1-37.2,5.5-9.6,14.1-17.2,22.1-24.1,8.6-7.6,18.6-13.3,29.2-16.7-3.1-1.5-18.8,3.4-22.6,5.1-21.5,9.6-45.8,7.8-69.1,9.5l-.5.6c-2,2.7-6.5,11.6-8.1,11.1-15.4-4.4-38.7-11.6-53.5-16.3,7.2,4.4,20.3,11.3,26.5,15.6-2,5.3-6,11.6-8.9,16.5l-17.1,29.3c-3.1,5.3-10.3,16.8-12.4,22.2-4.1-13.1-8.1-18.9-14.8-30.7,3.1,9,9.6,26.2,4.5,35.1-9.7,17-26.6,33.7-41.8,44.9-8.8,6.5-21.3,8.3-31.2,11.6,7.7-.2,17.2-.6,24.7-.4-10.8,30.3-33.3,29.7-55.2,46.1-10.6,7.9-18.9,19.2-28.6,28.3-23.4,22.2-53.7,39.1-72.7,66.2-9,12.9-11.8,25.2-26.8,32.5,7.3.5,9.5-.2,14.2,5.6-.4,7.3-10,14.4-15.4,21.9-3.6-6.2-6.5-9.4-11.9-13.8,2.2,4.5,8.2,10.4,8.5,14-1.6,1-1.8.9-3.7,1.2-2.8,0-5,.3-7.8.6,1.8,1.3,4.1,2.8,5.4,4.4l.3,1.3.7,2.8c-2,2.9-2.1.7-4.5,3l.4.6h.9c2.7.4,3.4.3,5.7,1.6.9,1.2.7.5.6,2.1-3.5,6.1-5.7,3.8-10.5,6.1,1.9,2.6,4.7,3.6,7.5,5-2.3,4.3-1.8,2.4-4.9,5.3l.4.9c2.8,6.2,1.7,9.8,2.1,16.7,1.1,10.7,8.9,25.1,2.7,34.5-5.6,8.6-19.1,4.7-24.9-1.7-3.9-4-2.5-9.3-6.2-11.1-1.6.3-2.9.5-4.4.9-3.4-2.5-2.7-9.6-2.6-13.8-14.7-4.9-6.7-6.1-6.7-13-14.9-12,0-8.8-8.8-22.3,8.8-23.7-2.4-26.4-9-43.8,1.2-3,2-3.4,1.7-6.1-6.8-8.7-8.8-6.7-3-18.9-1.7-.5-4.3-.8-4.7-2.3-1.5-5.3-2.1-11.6.1-16.5,1.6-3.4,4.4-6,7.8-7,2.6-.8,6.2-.3,9-.1-.9,26.5,4.8,30.4,10.2,54.4,4.9,22-2.5,49,10.4,69.9,1.8,3.2,3.7,8.5,5.9,11.6l-.3-2.3c-1.1-5-4.2-12.4-6.1-17.5-6.8-18.2-2.2-38-5.2-58-2.3-15.7-15.6-44.7-10.2-58.1,3.3-3.3,27.3-7.5,32.3-7.5,1.1,17.2-12.3,29.8,7.5,44.9,4.5,3.4,8.8,8.3,13.7,11.2-.8-1.7-2.6-5.6-3.7-7-5.7-6.8-16.3-12.8-16.9-22.9-.3-5.3,3.1-8.5,4.5-13,1.1-3.5,1.2-9.4,2.7-12.9.7-1.6,2.9-5.5,4.2-6.7,1.3-1.2,2.5-.6,3.9-.3,3.1,4.1,5.9,7.4,9.3,11.3-1.8-3.6-4-8.2-6.2-11.4-.9-10.9,10.1-16.6,14.8-24.3,9.3-15.2,24.1-28,29-45.5,5.3-18.5,11.4-25,23.8-37.4,15.9-15.9,46.1-23.5,59.7-39.6-1,4.4-2.1,7.9-3.5,12.1-1.5,3.4-3.1,6.6-4.4,10.1,2.6-3.4,5.4-6.9,7.6-10.6,9.2-7.7,20.6-65.4,27.3-77.2,1-1.7,56.7-2.8,60.9-7.2-2.8-.5-14,.2-17.8.2-15.2,0-27.6-.4-42.6-2.3,4.5-8.4,20.5-41.6,24.9-46.1,2.8-2.8,7-4.7,10.4-6.5-3.1.2-6.4.4-9.5.6-.1-22.2-3.3-37.7,2.3-59.6,2.2,11.9.4,14.3,5.6,27.1,7.1,16.1,17.6,26.9,33.1,32.8,5.5,2.1,11.1,3.6,16.9,4.7-19.4-9-31.1-14.5-42.3-35-8.2-19.6-10.5-37-2.8-57.7,5.1-13.6,19.7-18.2,31.4-22.8-16.8,2.6-19.9,4-34.4,12.9,3.3-7.6,7.8-11.8,12-18.7,4-6.8,7.3-14,11.8-20.4,8.1-11.7,23.2-3.4,33.1,1.2-18.1-16.3-19-13.7-12.9-38.8,6.1,14.5,6.2,14.5,16.8,26.9-9.4-19-11.3-28.1-15.6-48.5-2.2,4-4.4,9.9-6.2,14.4-20.2-8.2-24.2-33.3-20.1-54-17.8,4.9-14,13.3-24.7,25.3-4.4,5-22.7-5.8-.6-12.6l2.8-5.5c6-11.9,14.3-14.2,25.4-17.8,2.3-15,5.2-27.2,11.9-40.8,2-3.9,3.9-11.1,8.6-11.2,4,2.9,3.9,11.2,4.1,16,.4,9.5,1,16.4,3.6,25.5.3-7.7,1.1-15.1,1.6-22.7.5-7.2.1-14.7,1.3-21.8-14.2.2-22.3-.2-36.2-2.5-10.7-1.8-22.8,1.2-33.9-4.8-3.7-2-5.5-1.2-9.2-4.8,0-2.2,1.4-5.1,2.3-7.4-8.4,9.1-14.7,22.5-22.6,31.7-5.8,6.8-18.2,15.1-24.9,20.8-9,7.6-30.2,38.9-33.3,49.6,1.1,4.2,6,22.5,5.4,25.1-2.5,11-6,24.6-8.4,36-1.4.6-3.7.1-4.8-.8-6.7-5.9-1.8-18.5-3.6-25.5l-1.1-.5c-16.2,8.8,1.9,45-27.3,23.4-5.2-3.8-5.2-3.1-7.2-9.9-2-1.5-4.1-3.2-6.1-4.8-.4-2.8-.7-5.6-1.1-8.4-.4-.4-.9-.8-1.3-1.3-2.3-2.3-2.9-4.6-2.8-8.1.2-8.8,11.1-25.5,17.3-30.5,11.7-9.4,13.2-12.8,19.2-26.7,1.9-4.4,10.2-13,13-18.3,7.3-13.4,13.7-27.5,21.5-40.6,9.1-14.6,24.9-33.7,36.3-46.5,6.6-2.2,19.1-3,26.6-4.3,17-3,28.9-6.1,46.3-6-2.9,14-2.7,33,4,45.4-2.3-12.2-3-34.7,3.7-45.6,2-3.3,17.5-1.3,21.8-1-4.8,4.8-9.3,11.1-11.7,17.7h.5c13-22.8,37.1-31.1,59.8-19.8,7.1,3.5,11.4,11.7,15.4,18.6l-.6-2.7c-1.5-6.5-6.3-14-6.3-16l1.3-1.2c1.6-.1,3.6.2,4.8,1.2,24.8,20.5,11,65.3,0,89.3-9.3,20.4-36.2,28.8-53.8,33.9,16.6.9,38.3-5.1,49.5-19.4,15.1-19.2,23.2-48.1,21.9-73.2-.5-9.3-2.2-19.4-8.8-26.1-1.9-1.9-5-3.6-7.6-6,2.3-2.1,12.3-1.9,15.9-2.1-17.4-20.6-32.1,5.8-34.3-5.9,3.4-8.9,15.1-11.9,23.1-10.1,11.6,2.7,16.2,10.3,22.4,20,5.2.1,9.9.9,15,1.9,6.1-8.4,11-10.6,19.2-15.8ZM299.7,696.5c-4.2,4-10.8,10.3-14.6,14.8l.4.3-.9.4c4.4-2.4,10.2-7.9,14.7-11,18.4-8.3,26.8-7.6,41-25,4-4.9,8.4-10,11.4-15.9-5.5,6.5-16.2,16.3-23.5,19.9-12.3,6.1-18.1,6.6-28.6,16.5ZM513,272.6c12.7,2,25,4.3,37.5-.8,5.6-2.3,13.3-5.1,16.9-10.6v-1.5c-1.5-1-1.5-1-3.2-1.4-3.3,2.3-7.8,5.5-11.3,7.1-11.6,5.2-32.8,6-45,4.2l-.8.5c1.6,1.5,3.9,2,6,2.5ZM612.6,216.5l1.6,1.4c1.5-2.4,0-8.1-2.5-9.6-4.8-2.9-8.5-4.4-12.8-8.1,3-9.1,6.3-29.5,1.3-38.1-.3,9.5-.9,16.9-2.4,26.3-1,6-4.3,15.6-4.2,20.7l.6.3c1.9-1.1,2.9-2.2,5.3-1.3,4.2,1.6,9.8,5.4,13.2,8.4ZM611.8,563.6l.7-.8c9.1-10.5,22.8-20.3,32.7-31.6,9.6-11,12.3-19.3,19.4-29.4l-.5-.9c-4.7,5.3-8.7,11.7-13.4,17.3-6.1,7.2-13.4,13.4-19.5,20.2-6.5,7.2-13.6,16.6-19.8,24.4l.3.8ZM586.2,152.9c1.6-9.6-.8-47.3-10.8-49.4-.8,2.9.9,7.4,2.1,10.3,5.1,12.4,2.9,25.2,4.9,37.3,1.3,1.9,1,1.3,3.9,1.8ZM618,272.7c1-2.2,1.8-2.8,1.5-4.7-6.3-4.3-14.7-7.2-21.7-11.6,2,4.5,2.7,7.3,3.3,12.3,0,.6,15,5.5,16.6,4.8l.3-.8ZM619.8,221c3.7,1.5,15.5,6.6,18.7,6.3.3-2.1,1-4.7-.3-6.1-6-6.1-12.5-5.4-19.8-11.4.9,4.5,1.1,6.6,1.4,11.2ZM665.5,197.7c.6-2.8,4-7.6,5.6-10.2-1.6-1.6-4.1-3.6-5.9-5.1-1.9,5.4-2.8,8.6-6.1,13.2,1.9,2,3.7,3.5,6.4,2.1ZM547.8,299.1c1.1,4.3,21,48.6,23.1,50.8-5.3-19.2-12.9-34.4-23.1-50.8ZM559.6,356.9c-5-6.6-20.4-29.2-25.2-32.9,4.4,7.7,18.2,30.2,25.2,32.9ZM507.4,258.6c-4-2.5-7.9-4-9.3-8.7.3-4.2,3.1-5.2,6.1-7.2,5.9-3.3,14.7-8.1,19.7-12.7-6.7,2.4-15.5,7-22.3,10.1-3.3,1.8-8.8,4.6-10.1,8.4-3,8.9,12.1,9.7,16,10.1ZM496.9,345c-6.5-1.7-11.2-2.9-17.9-2.7-3.6.9-9.1,2.4-12.1,4.8,2.6.2,9.5-1.6,13.5-1.8,5.2-.5,11.2-.3,16.5-.2ZM526.7,181.1l-6.8-12.1c2.5-.7,5.1-1.5,7.6-2.3-7.2-2.6-10.9-3.9-17.5-8.2-2.3-1.6-12.4-9.4-14-10,7.5,9.1,17.4,17.2,24.7,26.8,2.6,3.4,5.2,7.1,7.8,10.4l.3-.4-2.1-4.3ZM469.9,238.7c1.2-4.9,8.3-30.6,7.5-33.6-3.3,7.2-9.1,26.3-7.5,33.6ZM623,143.9c3.4-10.3,5.7-23.3,4.7-34.2l-.6-.6c-1.4,12.4-3.1,22.5-4.7,34.4l.6.4ZM574.4,174.4c6,4.6,8.4,6,15.3,8.6,2.9-.5,2.6.1,4.3-1.7.9-5.5-7.5-10.7-11.6-12.1-.2,0-3,.2-3.3.2-2.6,1.9-2.7,2.2-4.7,4.9ZM567,188.5c-1.9,4.3-11.8,24.9-11.1,28.1,2.8-5.5,12.3-22.9,11.1-28.1ZM535.4,632.7c-.2,6.3,4.9,29.7,9.6,32.9-1.8-6.6-6.2-30.2-9.6-32.9ZM663.1,219.2l-.5,1.5c-1.8,5.3-9.6,22-9.6,24.6,3.4-2.3,12.2-23.1,11.3-27.6l-1.2,1.6ZM601.2,155.1c-.3-4-1.4-9-2.1-13-1.9-10.5-3.8-35.5-15.1-39.3,5.3,8.1,4.8,8.6,7.6,17.3,3,9.5,2.6,29.5,9.7,35ZM705,259.2c-2.7-2.4-12.4-9.1-15.6-9.8,4,3.3,10.7,8.3,15.6,9.8ZM572,180.2c4,5.8,10.5,10.2,17.4,9.9-3.5-2.1-14.1-8.7-17.4-9.9ZM615.5,457.5c11.7,2.1,32.8,3.3,44.9,4.1-18-4.9-24.6-5.9-42.8-5.6-2.6,0-4.7-.2-7,.9,2,.7,2.8.6,4.9.5ZM640.1,163.7c.7,11.5.9,22.5,0,33.9-.4,5.4-.8,9,.7,14.3l.8.4c1.6-9.3,5.4-42.4-1.5-48.7ZM214.4,785.8c1.4-6.3,5.7-22.1,3.6-27.5-2.3,6.3-5,20.9-3.6,27.5ZM647,202.3c6.7,4.2,11.4,6.9,18.6,10.3.4-3.1,1-5.2.1-8.2-1-1.2-1-1.3-2.1-2.1-4.1-1.6-7.1-2.6-10.8-5.1-2.1,2.3-3.3,3.2-5.8,5.1ZM405.4,120.6c-6.7.9-12.9,2.9-16.6,9.5-7.3,13.3-13.6,28.4-20.3,42.1l.5.2.5-.7.6-.9c5.3-8.6,10-18.8,15-27.7,7-12.6,8.1-16.8,21.5-22.4-.4,0-.8-.2-1.2-.1ZM592.9,256.6c-4.6-2.3-17.3-6.9-22.1-7.3-1.4,5.9,7.8,8.6,11.9,10.6,4.2,2,8.1,3.6,12.2,5.9-.3-3.5-1.1-5.9-2-9.2ZM593.2,211.4c-2.5,4.8-15.8,28.5-15.6,32.6l1.4,1.9c5.1-5.9,14.3-24,15.6-31.6-.4-1.8-.3-1.7-1.5-2.9Z"/>
  <path class="st13" d="M245.5,877.6c-2.4-2.6-4.5-23.1-5.1-27.9,1.9,2.6,4.7,3.6,7.5,5-2.3,4.3-1.8,2.4-4.9,5.3l.4.9c2.8,6.2,1.7,9.8,2.1,16.7Z"/>
  <path class="st15" d="M595.8,693.1l.7-.2c3.9-1.3,7.4-4.5,10.4-3,2.1,4.1.8,6.4-2.2,8.8-3.7-3.8-5.5-1.6-8.8-5.6Z"/>
  <path class="st13" d="M599.7,704.5c4.4-2.5,8.9-4.9,12.6.5,0,2.7.3,1.5-1.2,3.8-1-.2-1.7-.6-2.3-.3-4-2.5-3.6,1.1-9.1-4Z"/>
  <path class="st13" d="M523.7,642.1c-.4,4-1.2,10-1.1,13.8-1.7-2.3-2.7-4.4-4-6.9,1.6-2.6,3.3-4.5,5.2-6.8Z"/>
  <path class="st7" d="M222.7,890.1l1.1-.2c3.2,5,5.1,8.6,7.8,13.8-3.1-3.6-5.5-6.2-8-10.3l-.6-.9-.3-2.3Z"/>
  <path class="st6" d="M664.1,500.9l.5.9c-7.2,10-9.8,18.3-19.4,29.4-9.9,11.3-23.6,21.1-32.7,31.6l-.7.8-.3-.8c6.1-7.7,13.3-17.2,19.8-24.4,6.1-6.8,13.4-13,19.5-20.2,4.7-5.6,8.7-12,13.4-17.3Z"/>
  <path class="st2" d="M496,148.5c1.5.6,11.6,8.4,14,10,6.6,4.3,10.3,5.6,17.5,8.2-2.5.8-5,1.6-7.6,2.3l6.8,12.1,2.1,4.3-.3.4c-2.6-3.3-5.2-7-7.8-10.4-7.3-9.7-17.2-17.7-24.7-26.8Z"/>
  <path class="st5" d="M405.4,120.6c.4,0,.8,0,1.2.1-13.4,5.6-14.5,9.8-21.5,22.4-5,8.9-9.6,19.2-15,27.7l-.6.9-.5.7-.5-.2c6.7-13.7,13-28.8,20.3-42.1,3.6-6.7,9.9-8.7,16.6-9.5Z"/>
  <path class="st11" d="M547.8,299.1c10.3,16.5,17.9,31.6,23.1,50.8-2.1-2.3-22.1-46.5-23.1-50.8Z"/>
  <path class="st0" d="M534.4,324c4.8,3.7,20.1,26.3,25.2,32.9-7-2.7-20.8-25.2-25.2-32.9Z"/>
  <path class="st3" d="M477.4,205.1c.8,2.9-6.3,28.7-7.5,33.6-1.6-7.3,4.2-26.4,7.5-33.6Z"/>
  <path class="st2" d="M627.2,109.2l.6.6c1,10.9-1.3,23.9-4.7,34.2l-.6-.4c1.6-11.9,3.3-22,4.7-34.4Z"/>
  <path class="st9" d="M523.8,230c-5,4.6-13.7,9.4-19.7,12.7l-2.7-2.6c6.8-3.1,15.6-7.6,22.3-10.1Z"/>
  <path class="st11" d="M218,758.3c2.2,5.4-2.2,21.2-3.6,27.5-1.4-6.6,1.3-21.2,3.6-27.5Z"/>
  <path class="st4" d="M663.1,219.2l1.2-1.6c.9,4.6-7.9,25.3-11.3,27.6,0-2.6,7.8-19.3,9.6-24.6l.5-1.5Z"/>
  <path class="st10" d="M567,188.5c1.1,5.3-8.4,22.6-11.1,28.1-.7-3.2,9.2-23.8,11.1-28.1Z"/>
  <path class="st2" d="M299.7,696.5l2,.4.2,1.1c-.9,1.1-1.5,2-2.5,3-4.6,3.1-10.3,8.6-14.7,11l.9-.4-.4-.3c3.7-4.5,10.3-10.8,14.6-14.8Z"/>
  <path class="st13" d="M652.8,197.2c2.8-1.4,3.3-1.6,6.3-1.6,1.9,2,3.7,3.5,6.4,2.1,0,2.9.3,1.8-1.8,4.5-4.1-1.6-7.1-2.6-10.8-5.1Z"/>
  <path class="st6" d="M572,180.2c3.2,1.2,13.8,7.7,17.4,9.9-6.8.3-13.4-4.1-17.4-9.9Z"/>
  <path class="st13" d="M662.6,220.7c-4-3.2-7.6-4.9-12.1-8.9,2.7.9,10.5,5.3,12.6,7.4l-.5,1.5Z"/>
  <path class="st14" d="M689.5,249.4c3.2.6,12.9,7.3,15.6,9.8-4.9-1.4-11.6-6.5-15.6-9.8Z"/>
  <path class="st8" d="M615.5,457.5c-2,0-2.9.2-4.9-.5,2.3-1.1,4.4-.9,7-.9l-2.1,1.5Z"/>
  <path class="st18" d="M1023.1,590.3c.8,1.2.7,3.4.7,4.9-.2,66-.4,132.1.1,198.1-9.5,6.4-18.9,13.1-28.3,19.8-11.1,8-19.9,16.9-33.4,20.1-33,7.8-65.9,15.9-98.9,23.8-3.9,1.3-8.2,6.2-12,7.4-25.8,8.6-48.5,22.6-71.1,38.4-4.7,3.3-9.8,6-14.4,9.5,12.1-5.1,29.5-9.2,42.4-13.1,23.9-7.2,47.6-14.1,71.8-19.9-28.5,15-56.7,30.2-85.8,44-9.6,4.5-18.9,11.7-28.7,15.6-10.8,4.4-23.8,5.8-35.1,8.3-27.3,5.2-52.5,10.4-78.6,21.2-26.3,10.9-54.6,20.1-81.3,29.9-2.9,1.1-8.4,3.6-11,3.8,1.3-2.4,40.4-23.9,46.2-28.8,15.9-13.4,34-27.4,51-39.1-20.2,8.7-44.6,16.1-65.7,21.9-8.5,2.3-15.5,2.6-25.1,5.7l-131.3,43.1c-20.6,6.4-41.3,12.8-62,19,10.3-6.3,19.3-13.9,29.5-20.3,16.6-10.4,33.9-20.1,50.1-31.2,8.7-6,23.9-27.5,31.9-31.4,19.7-9.6,42.7-15.7,63.2-23.2,7.5-2.8,15.1-3.8,22.4-6.4,9.2-3.3,16.9-8.1,25.9-12,14.7-5.5,27.8-12.5,41.6-20,13.7-7.4,20.2-9.4,30.1-23.1,14.5-20.2,26.7-27.6,48.1-36.4,11.4-4.7,22.8-9.3,34.3-13.6,6.6-2.5,16-5.5,22.2-8.4l.6-.3c-19.6,2.7-81.2,18.9-96.9,28.8-8.1,5.1-12.6,15.9-19.8,22.4-5.2,4.7-11.4,7.6-17.3,10.9-16.9,9.3-33.6,17.1-51.5,23.9-17.4,6.8-35.3,12.2-53.4,16.1-19,4-37.9,6.5-56.9,11.1-14,3.4-18.3,4.3-31,12.1-13.9,9-30,20.1-45.2,26-18.3,7.2-37.9,7.6-56.6,13.5-59.2,18.6-119.5,33.5-178.6,52,6.2-3.9,13.5-7.1,19.9-10.6,17-9.3,34.3-16.8,51.9-24.7,29.1-13,58.1-26.2,87-39.7-11.7,2.2-24.1,5.3-36,7.7-10.7,2.1-25.5,4.7-35.7,7.9-10.1,3.1-20.9,11-32,13.2-9.8,1.9-19.7-1.4-29.3-.2-8,1.1-16.9,2.7-24.8,4.1-14.7,2.5-29.4,5.2-44,7.9,15.5-8.6,31.9-14.5,48.2-21.2,8.2-3.4,16.7-6,24.5-10.4h-1.1c-12.7.9-37.3,6.6-51.1,9.1-29.8,5.6-59.7,10.7-89.6,15.3-13,2.1-27.1,4.6-40,6.1,21.6-11.8,56.9-19.9,79.3-30.7,14.4-21.8,19.2-22,41.8-15.4,5.5-3,9.4-6.8,15.7-8.8-5.9-12.5-15.4-16.4-19.1-28.4-.3-.9,0-1,.8-1.9,5.7-1.5,18.3,6,24,9-2.7-4.9-4.8-9.2-7.3-14.3,17.6-1.7,31.8,14,47.4,21.7,7.7-6.9,18.4,6.7,24.2,12.2,11.6.5,16.5,3.8,27.1-2.7,7.9-4.8,20.4-5.3,29.5-7.9,7.8-8.3,11.1-13.9,22.4-16,6.5-1.2,15.5-1.6,21.7-3.3,10.5-3,20.5-8.8,31.8-8.7,8.1-.3,18.5,4,26.2.9,23.2-9.2,39.8-33,61.7-44.1,8.4-2.5,22.8-2,31,.6,7.3,2.4,16.6,9.4,23.9,6.1,9.9-4.5,26.6-27.2,35.1-30.8,22.4-9.5,50-15.6,73.8-19.2,11.3-1.4,29.4,2.2,40.3-1.6,5.1-1.8,16.4-11.9,20.7-15.4,6.7-19.4,20.1-17,32.8-30.4,6.2-5.6,20.3-28.4,26.1-31.8,5.4-3.2,47-19.9,51.9-19.1,16.3,3.5,31.9,10.4,48.2,15.1,16.2,4.7,23.6-21.8,39.5-27.3,11.5-4,22.1.8,31.2-13.1,8.8-13.3,22.4-37.7,32.7-51,18.2-7.3,78.4-28.9,95.2-32.3ZM939.4,671.5l-5.7,20c8.4-5,14.2-7.6,23.4-10.9,2.6-.9,11.9-4.1,13.8-5.2,3.2-1.2,5.1-2,8.2-3.6l-.3-.5-3.1.3c-9.2,0-17.9,1-26.9,1.6l.4-.9c7.7-17.2,7.4-33.6,26-42.6,7.9-3.8,17.9-10.2,25.3-15.1-17,5.9-49.2,16.1-65.2,23.9-2.9,1.4-29.4,46.8-33,53-2.9,5-9.6,26-12.5,32.9,11.2-14,34.5-46.5,49.9-52.8ZM909.8,746.5l-49.3,43.1c-4.9,4.3-19.9,16.3-23.1,19.7,5.9-3.4,13.1-7.3,18.8-11.1,17.6-11.5,43.1-28.4,61-38.3.9,7.7.2,16.9,0,24.8,9-9.1,18.8-17.9,28.3-26,7.4-6.4,55-23.3,56.7-26.7h-1c-27,4.7-52.6,11.6-80.1,12.9-3.4.2-7.8.9-11.2,1.6ZM684.9,897.2c13.4-8,26.6-17.7,41.8-16.4.9-6.8,3.1-13.4,6.3-19.3,13.1-3.4,25.6-6.8,38.3-11.7,6.6-2.5,13.6-3.9,20.1-6.5v-.6c0,0-.3,0-.3,0-23,1.2-46.6.1-67.9,9.5-6.1,2.7-12.6,4.4-16.9,10.6-7.2,10.5-15.6,23-22.1,34,.5.6.2.5.7.5ZM690.4,770.2c6.8-2.9,26.4-11.9,32.7-13.2-1.8,3.2-2.9,5.2-5.2,8-1.7,1.7-3.4,3.3-5.1,4.9,15.1-7.2,35.2-10.5,46.6-16.3-9.6,1.5-19.8,2.7-29.2,4.8,1.8-1.6,5.5-4.8,6.9-6.6,3.4-4.6,4.4-13.6,8.6-17.6,8.4-8,17.7-13.1,26.8-21v-.7c0,0-.3-.2-.3-.2-21.1,10.9-39.9,6.4-54,29.8-6.2,10.4-17.9,21.7-27.8,28ZM673.8,807.5c-3.4-.6-7.6,0-11.1.2-24,.9-36.2,15.6-56.3,27.4-2.6,1.4-6,3-7.9,5.2,3-.6,6.1-2.3,8.8-3.9,5.3-1.9,10.9-4,16-6.6,13.1-6.5,20.8-13.4,35.8-12.9,6.4-5.5,6.2-6.5,14.4-9.2l.5-.3ZM566.5,832c-5.3.7-16.1,2.5-20.9,1.3l-.4-.8c3.6-6.4,19.6-12.4,25.4-17.2l-.3-.5h-1.1c-28.4,4-30.4,8.2-50.8,27.9-5,4.8-24.5,20.3-30,24.3,6.8-2.7,10.6-5.8,16.7-9,4-2.1,11.3-6.4,15.3-7.6,15.8-4.6,30.5-13.2,46-18.3ZM557.6,937.3c-7.1-3.8-10.4-5.3-18.5-4.5-6.9,4.9-8.9,6.7-14.1,13.8,6.8-1.6,10.3-2.2,17.1-3.3,8.2-.8,8.9-.7,15.5-6ZM788.2,776.5c5.8-2.2,31.2-20.5,37.8-25.3,3.9-3,9.7-6.6,13.9-9.3-2.9,8.9-3.8,16.5-7.6,25.5,8.7-12.4,17.7-24.4,26-37.1,8.1-12.4,19.6-20.7,29.1-32.2-5.7,0-13.1-.3-18.5,2.1-5.5,2.4-39.2,37.4-46.7,44.5-12.5,10.7-22.2,21.2-34,32ZM429.9,865.6c5.8-1.6,21.8-6.2,25.7-10.3,1-5.5-8-4.9-11.1-4.6-4.2,2.5-17.2,13.8-22.8,18.1,2.2-.2,6.1-2.2,8.3-3.2ZM330.1,898.7c8.9,1.4,18.6,2.5,27.4,4.6,6.6,1.6,9.6,6.4,17.3,7.7,15.4,2.5,24.7-4.7,39-8.6,17.8-4.9,40.3-7,57.6-13.4,1.9-.2,3.7-.6,5.6-1l.5-1.4.2,1.3.4-1.2h.6c-5.1-.1-7.8.7-12.8,1.7-17.3,1.7-35.4,4.7-52.7,7-5.5.7-17.1,4.4-21.6,4.6-25.3.8-35.4-8.6-61.4-1.3Z"/>
  <path class="st5" d="M788.2,776.5c11.9-10.8,21.6-21.3,34-32,.6,1.6,1,1.7.7,2.7,2.3,4.2,2,1.6,3,3.9-6.7,4.8-32,23.1-37.8,25.3Z"/>
  <path class="st2" d="M465.7,888.4c5-1,7.7-1.9,12.8-1.6h-.6c0-.1-.4,1.1-.4,1.1l-.2-1.3-.5,1.4c-1.9.4-3.7.8-5.6,1-1.9-.4-3.7-.4-5.7-.6Z"/>
  <path class="st1" d="M607.2,836.4c-2.7,1.5-5.8,3.2-8.8,3.9,1.9-2.2,5.3-3.8,7.9-5.2l.9,1.3Z"/>
  <path class="st9" d="M975.5,671.5l3.1-.3.3.5c-3.1,1.7-5,2.4-8.2,3.6l.2-1.7c1.5-1.9,1.7-1.4,4.5-2.2Z"/>
  <path class="st13" d="M673.8,807.5c1.5-1,6.9-2.9,8.6-2.2l.3.9c-2.1,2.3-6.8,2.9-9.4,1.6l.5-.3Z"/>
  <path class="st18" d="M159.1,574c6.5.2,17.3,17.6,22.7,22.8,3.3,3.2,13,12.1,15.2,15.2,10.2,14.9,14.4,30.1,32,36.4,4.7-1.6,7.5-3.8,12.8-5.2,8,5.1,18.6,19.5,25.8,26.8,3.7,3.8,9.8,10,12.8,13.9-1.7,2.6-3.6,4.7-5.6,7-13.7-9-21.1-18.8-32-30.5-.7,8.8.1,12.6,4.3,20.2,4.5,8.2,8.6,16,12.2,24.8-8-6.1-15.4-14.2-24-20.4-4.6-3.4-13.4-5.3-14.9-7.5-11-15.4-20.1-35.4-28.9-52.4-3.2-6.2-11.1-13.1-15.4-18.3-4.8-5.7-8.8-11.6-14.2-16.6.4,35.4,12.4,47.8,26.3,76.7-10.5-8-21.4-23.3-33.1-33.6.5,5.5,1,17.6,3.1,22,3.9,8.7,12.7,17.3,17.7,25.4,10.5,17.1,17.2,35.5,23.6,54.6-8.6-8.3-22.9-28.7-31.8-34.8-3.2,0-6.3-.5-9.6-.8-5.6-4.5-14.8-18.5-19.6-25.2-8.6,8.7-14.3,12.6-24,19.8-.6.6-.3.1-.8,1.4,1.7,2.3,8.8,4.6,10.9,7.5,3.5,4.9,3.4,12.4,6.3,17.7,3.9,7.2,8.5,13.9,12.6,20.9,3.9,6.8,7.2,13.6,11,20.5-14.9-11.7-28.7-26.7-44.7-37.3-2.7-1.8-14.8-16.2-16.5-16.1-10.5,1-28,9.8-37.8,13.8-13.2,5.2-26.4,10.4-39.6,15.4,15.1-13.4,33.5-26.2,48.5-39.7,8.3-7.5,16.7-24.4,25.2-33.1,1.8-1.8,7.2-11.5,8.9-14.3-21.6,22-36.4,31.1-62.6,44.7,5.9-8.6,11.6-17.8,18-25.8-1.9-8,.4-13.5,3.5-20.5-11.2,9.9-43.4,27.8-57.8,37.1,6.1-7.1,13.7-15.6,20.3-22.1,7.6-7.2,20.5-18.1,27.5-25.5,22.3-23.6,19.2-6.3,40.5,2.8.3,0,.5.1.8.2,4.4-3.1,6.7-7.3,10.4-11.1,6.2-6.4,12.3-13.1,18.4-19.7,5.3-5.8,13.7-7.2,18.5-11.9,7.7-7.6,14.4-16.9,22.2-24.6l.6-.6Z"/>
  <path class="st18" d="M363.7,742.2c13.6,2.5,19.8-6.5,32.2-13.3l.8-.5c7.7,5.3,13,13.5,19.7,19.9,4.3,4.1,11,7.6,14.9,12.1,5.4,6.1,9.9,15.1,16.1,20.4,5.3,4.5,14.8,3.7,20.9,7.9,12.5,8.5,24,21,35.2,31.2-13.3-6.7-25.3-14.5-38.3-21.7-5.1-2.8-14.5-1.4-19.9-5.6-5.8-4.6-9.6-10.4-13.9-16.4l-.8-.3-1.2-.5c-10.1-3.8-17.7-18.9-27.6-27.9,3.7,15.7,6.5,22,14.3,35.6-7.3-5-14.1-9.7-21.9-13.7,5.3,16.6,15,26.9,25.3,40,4.1,5.2,7.9,10.5,12,15.6l-18.2-11.1c-6.6-3.7-12.4-8.2-19.3-11.6,3.6,5.7,5.7,9.9,8.5,16.2-8.2-4-20.7-13.5-29.2-18.5-19.7-11.6-35-19.8-53.1-34.6,14.7,6,26.8,9.9,42,16.6-5.8-5.2-11.6-11.8-17.4-17.5-6.8-6.7-14.9-12.9-20.9-20.3-1.1-1.4-.8-1.1-.6-2.9,2.4-3.6,5.6-5.1,9.2-7,6,3.3,10.1,9.6,17.1,13.8,5.2-1.6,9.3-3.7,14.2-6Z"/>
  <path class="st15" d="M413.3,814c4.6-.9,4.2,2.5,7.7,2.2l.3-2.2c-.8-1.5-1.3-2.1-2.4-3.4l.6-1.1c4.1,5.2,7.9,10.5,12,15.6l-18.2-11.1Z"/>
  <path class="st18" d="M2.2,767.5c8,1.5,16.1,3.7,24,5.8,20.5,3.9,105.6,26.9,116.2,43.1,1.3,2,2.2,4.4,1.6,6.9-.8,3-3.5,4.8-6,6-7.1,3.4-29.4,5.5-33.2,10.9.5,5.2,12.7,10.9,16.9,13.2,12.2,6.6,26.3,14,35.1,25.8-11.7-6-23.2-9.9-35.1-14.8-13.5-5.6-35.4-9.3-47.5-17-39-24.9,36.1-23.7,40.7-27.7-1-4.5-3.2-7.3-7-9.5-12.5-7.3-27-12.8-40.4-18.1-3.3-1.3-11.4-3.9-14-5.4l-31.5-11.3c-5.9-2.1-14.5-4.9-19.9-7.7Z"/>
  <path class="st15" d="M2.2,767.5c8,1.5,16.1,3.7,24,5.8l-.7,1.2c3.8,3.4,24.2,7,28.1,12l-31.5-11.3c-5.9-2.1-14.5-4.9-19.9-7.7Z"/>
  <path class="st13" d="M245.1,553.1c11.5-7.5,24.9-15.1,36.7-22.1,25.7-15.3,51.5-30.3,77.6-44.9,14.3-8.2,28.7-16,42.8-24.6,7.1-4.3,12.7-7.2,20.5-10.1v15.8c-19.2,13-49.6,25.2-70.6,35.7-34,17-68.4,34.7-102.8,50.7-1.9-2.8,0,.9-4.2-.6Z"/>
  <path class="st13" d="M420.8,423.7c.7.2.2,0,1.3,1-.1,4.7.4,12.5-3.8,14.8-29.6,16.4-60.3,31.1-90.5,46-10,4.9-20.1,9.6-29.7,14.9l-1.2-.2c2.1-3.6,116.6-74,124.1-76.5Z"/>
  <path class="st13" d="M461.2,285.7c3.1,2.1,6.4,3.7,7.5,7.6-.7,3.3-8.5,7-11.4,8.5-28.9,14.6-57.8,30.9-87.3,44.1l-2.8-1.3c20.4-14,41.2-27.3,62.3-40,9-5.5,22.8-14.7,31.6-18.9Z"/>
  <path class="st13" d="M406.6,492.7c.5,0,1.2.2,1.7.3.6,2.4-2.8,11.8-4.8,13.2-8.9,6.5-19.4,10.7-29.2,15.5-23.9,11.9-48.3,22.4-72.2,34.1l-1.7.2c20.2-13.9,38.2-24.4,59.4-36.3,16.4-9.2,28.7-19.5,46.8-27Z"/>
  <path class="st13" d="M340.6,863c-6.4-5.5-10.4-9-17.5-12.9-6.4-3.5-41.4-16.3-43.6-19.4,8.3,0,28.4,6.6,37.5,7.9,7.7,1.5,15.5,6.8,22.6,9.3,17.9,6.1,34.3,16.3,50.3,26.9-17-3.4-29-8.9-44.8-14-2.3.4-2.7.8-4.6,2.2Z"/>
  <path class="st13" d="M543.4,728.3c3.4.4,6.9,5.3,9.3,8.1-9.9,6.3-40,16-51.9,20.3-9.1,3.3-24.7,8.8-33.9,11.5-3.7,1.4-5.7,2-9.5,2.9,18.1-10.4,38.6-19.9,57.3-29.1,9.1-4.5,19.4-10.8,28.7-13.7Z"/>
  <path class="st18" d="M372.2,965.3c13.2-.2,28.8,10.1,8.8,19.6-4.8,2.3-9.8,3.3-14.9,4.2-5.9,1.1-12.7,1-18.7,1.1,11.4-9,7.5-19.9,24.8-24.9Z"/>
  <path class="st13" d="M717.6,309.6c5.9-.5,8,1.6,13.1,4.9-17.2,11.4-49.9,26.7-69.2,36.7-3,1.5-5.6,3-8.9,3.4,1-3,58.3-39.7,65-45Z"/>
  <path class="st13" d="M255.6,213.1c27.1-15.8,50.8-32.5,79-46.2-8.3,18.6-11.1,16.1-27.8,24.4l-51.3,24.8v-3Z"/>
  <path class="st13" d="M592.7,537.6c3.4,1.9-.6,9.2-1.9,12.1-7.1,5.6-20.7,11.3-29.1,15.1-12.8,5.7-25.5,11.5-38.2,17.3h-.8c0,0,.1-.7.1-.7,14.2-10.7,33.3-21.8,48.3-31.6,4.6-3,16.8-10.4,21.5-12.2Z"/>
  <path class="st15" d="M358.8,130.1c.3.2.2.6.3,1-13.3,19-15.8,18.4-35.5,27.9-12.7,6.2-25.4,12.3-38.2,18.2-.1-.3-.3-.6-.4-.9,19.3-11.8,38-25.1,57.6-36.4,5.7-3.3,11.1-5.6,16.4-9.8Z"/>
  <path class="st13" d="M522.6,713.8c3-.2,8.6,4,11.4,5.8-16.7,9.1-42,15.6-60.5,23.9-3.5,1.6-6.6,2.8-10.3,4.2,11.8-7.8,48-30.1,59.4-33.9Z"/>
  <path class="st13" d="M559,747.5c4.6.1,6.4,3.1,11.4,5.7l.7.4c-13.9,6.5-35.6,13.1-50.3,16.8-3.9,1.4-7.2,2.5-11.2,3.6,14.2-8.9,34.3-18.7,49.4-26.5Z"/>
  <path class="st11" d="M271.7,804l.6-1.4h.8s-.8.3-.8.3l1.8.5-1.6-.6,1.6.3c3.8,7.2-11.9,17.7-13.9,22.7-3.9,9.8-8.3,20.2-10.1,30.6-.2,1.2-.9,1.7-1.7,2.2-.6-1.7,0-2.9-.5-4-2.8-1.4-5.6-2.4-7.5-5,4.8-2.3,7,0,10.5-6.1,0-1.6.3-.9-.6-2.1-2.3-1.3-3-1.2-5.7-1.5h-.9c0,0-.4-.7-.4-.7,2.4-2.3,2.4-.1,4.5-3l-.7-2.8,4.1.9c2.1-.6,1.9-.6,3.5-2.3.6-2.4.7-1.3-.2-3.4-2.1-.8-1.9-.3-4.5.4l-.9-2c1.9-.3,2.1-.1,3.7-1.2-.3-3.6-6.3-9.5-8.5-14,5.5,4.5,8.3,7.6,11.9,13.8,5.4-7.6,15-14.6,15.4-21.9Z"/>
  <path class="st15" d="M701.5,297c3.5.6,5.4,2.7,8.2,5.1-14.8,9-24.8,14.3-40.2,22.1-2.2,1.2-5.5,2.5-7.9,3.6,12.4-11.2,26.5-21,40-30.8Z"/>
  <path class="st12" d="M441.4,435.9l2.3.3,1.5,3,.6-.3c2.1-1,1.6-1.1,3.3-.5,11.2,20.4,22.9,26,42.3,35-5.7-1-11.4-2.6-16.9-4.7-15.5-6-26-16.8-33.1-32.8Z"/>
  <path class="st13" d="M83.3,870.5c8.4-.7,18.1,4.5,15.9,15.1-2.3.1-5.2.3-7.5-.5-5.3-1.8-10.9-8-8.5-14.6Z"/>
  <path class="st13" d="M463.8,923.8c4.7-.7,7.7-.7,11.2,3,.6,2.3.7,1.2-.4,3.4-2.3,2-3.3,2-6.2,2.8-3.4.6-7.6,3-10.5.8.2-2.9,4.2-7.9,5.9-10Z"/>
  <path class="st13" d="M177.1,878.6c8.3,0,13.7,5.7,12,15-8.9,4-11.2-8.1-12-15Z"/>
  <path class="st15" d="M112.6,902.3c4,.7,14,5.4,12.4,10.6l-1.8.7c-4.1,0-15.4-1.7-14.2-8.3,1.5-2.1,1.5-2,3.6-3Z"/>
  <path class="st15" d="M413.5,959.6c.7,0,1.5,0,2.2-.1,3,0,5.9.1,5.9,4.2-1.2,2-1.6,1.9-3.6,3-.2,0-.4.1-.6.2l-1,.3c-3.1.8-4,1.5-6.6-.9v-1.7c.9-2.5,1.9-3.1,3.7-4.8Z"/>
  <path class="st15" d="M165.1,848.1c7.4.4,7.9,3.5,7.8,10.8-.6,0-1.1,0-1.7,0-6-.4-6.3-5.4-6.1-10.7Z"/>
  <path class="st15" d="M156.6,862.8c2.8-.3,4.4-.6,6.6,1.2,1.6,2.6,1.4,5.9,1.7,9.1-6,.7-7.2-5.2-8.2-10.3Z"/>
  <path class="st17" d="M245.1,553.1c4.3,1.5,2.3-2.2,4.2.6-2.4,1.8-26.8,13.6-29.9,14.6,7.3-4.7,18-11.7,25.7-15.2Z"/>
  <path class="st15" d="M340.6,863c1.9-1.4,2.3-1.8,4.6-2.2,2.9,3.1,6.7,7,8.9,10.5-6.5-2.6-8-3.4-13.5-8.3Z"/>
  <path class="st15" d="M593.4,684.2c2.1-1.4,12.2-8.6,11.9-2l.4-1.4c-2.6,5.7-5,1.7-9,4.2-1,0-2.2-.5-3.3-.8Z"/>
  <path class="st15" d="M250,829.2c2.6-.7,2.4-1.2,4.5-.4.9,2.1.8,1,.2,3.4-1.5,1.8-1.3,1.8-3.5,2.3l-4.1-.9-.3-1.3c1-.8,2.2-2.1,3.2-3.1Z"/>
  <path class="st17" d="M367.3,344.6l2.8,1.3c-4.6,2.7-12.2,6.6-17.1,8.5l-.3-.3c5.1-3.6,9.2-6.2,14.5-9.4Z"/>
  <path class="st5" d="M570.3,603.4c2.4-1.3,1.8-2.7,3.5-3.3l.7,2.5.6-.2c3,3.3,6,6.5,9.1,9.6-4.6-2.5-10.7-7.5-13.9-8.6Z"/>
  <path class="st16" d="M255.6,213.1v3c-4.5,2.5-11.7,5.7-16.5,8,3.6-3.6,11.9-8.2,16.5-10.9Z"/>
  <path class="st2" d="M249.5,742.2l1.4-.7c1.4.7.8.6,1.8.5,2.2,3.3,4.3,7.8,6.2,11.4-3.4-3.9-6.2-7.1-9.3-11.3Z"/>
  <path class="st6" d="M601.1,645l2.8.9.3.9h-.4c0,0,.5-.7.5-.7l.8.7c-1.9.2-4.6,0-6,.4-2,0-6.6-.7-8.8-.9,3.6-.5,7.2-.9,10.8-1.3Z"/>
  <path class="st6" d="M376.6,607.4c2.4-1,1.6-1.2,3.2-.5-2.1,3.7-5,7.2-7.6,10.6,1.3-3.5,2.9-6.7,4.4-10.1Z"/>
  <path class="st0" d="M620,281.3c.6,4.4.4,10.8-.3,15.2l-1.5-.6,1.7-14.5Z"/>
</svg>