<?xml version="1.0" encoding="UTF-8"?>
<svg id="_레이어_1" data-name="레이어_1" xmlns="http://www.w3.org/2000/svg" version="1.1" xmlns:xlink="http://www.w3.org/1999/xlink" viewBox="0 0 2048 2048">
  <!-- Generator: Adobe Illustrator 29.3.1, SVG Export Plug-In . SVG Version: 2.1.0 Build 151)  -->
  <defs>
    <style>
      .st0 {
        fill-opacity: .1;
      }

      .st0, .st1, .st2, .st3, .st4, .st5, .st6, .st7, .st8, .st9 {
        fill: #cdd773;
      }

      .st10 {
        fill-opacity: .9;
      }

      .st10, .st11, .st12, .st13, .st14 {
        fill: #c6cd8a;
      }

      .st15 {
        fill-opacity: 0;
      }

      .st15, .st16, .st17, .st18, .st19, .st20, .st21, .st22, .st23, .st24, .st25 {
        fill: #f0f3b8;
      }

      .st1 {
        fill-opacity: .2;
      }

      .st2 {
        fill-opacity: .1;
      }

      .st16 {
        fill-opacity: 0;
      }

      .st11 {
        fill-opacity: .7;
      }

      .st12 {
        fill-opacity: .7;
      }

      .st17 {
        fill-opacity: 0;
      }

      .st18 {
        fill-opacity: 0;
      }

      .st19 {
        fill-opacity: 0;
      }

      .st20 {
        fill-opacity: .6;
      }

      .st3 {
        fill-opacity: .2;
      }

      .st21 {
        fill-opacity: 0;
      }

      .st26, .st27 {
        fill: #c5d437;
      }

      .st22 {
        fill-opacity: .7;
      }

      .st28 {
        fill-opacity: 0;
      }

      .st28, .st29 {
        fill: #4e4f36;
      }

      .st29 {
        fill-opacity: 0;
      }

      .st23 {
        fill-opacity: 0;
      }

      .st4 {
        fill-opacity: .9;
      }

      .st5 {
        fill-opacity: .9;
      }

      .st6 {
        fill-opacity: .1;
      }

      .st13 {
        fill-opacity: .8;
      }

      .st14 {
        fill-opacity: .8;
      }

      .st7 {
        fill-opacity: 1;
      }

      .st8 {
        fill-opacity: 1;
      }

      .st9 {
        fill-opacity: .9;
      }

      .st27 {
        fill-opacity: 1;
      }

      .st24 {
        fill-opacity: .6;
      }

      .st25 {
        fill-opacity: 0;
      }
    </style>
  </defs>
  <path class="st26" d="M210.3,69.7c17.9,5.5,40-3.6,58.1-9.1,45.5-14.3,91.3-29.9,138.4-36.4,25.7-3.1,51.9,8.6,76.4,6.7,4.1-.3,3.5-17.9,11.6-20.5,18.8-6,31.7-1.8,50.2-10.4,20.8,5.3,67.7,5.2,79,23.2,4.8,7.7.2,19.2,7.5,36,10.3,7.5,24.1,17.1,21.8,32.5-2.2,14.8-8.7,30.9-16.4,43.5-15.4,25.1-48.4,31.7-63.1,57.2-38.6,120.8,38.6,244.5-5.1,364.3-3.7,10-7.2,19.1-11.6,28.8-2.6,5.8-10.3,18.8-9.2,24.6,4.5,1.1,6-.4,10.3-2.5,2.6-1.2,5.2-2.5,7.8-3.8,3.4,7.6,8.5,18.8,9.5,27.1,8.3,49.5,12.2,113.1,3.7,162.6-2.1,5.8-6.4,31-7.6,37.9-3.9,23.1-4.9,46.7-3,70.1l.8-2.3c5.9-17.5,6.9-42.4,15.3-54.3,17.2-2.8,59.7,71.3,73,88,6,5.5,18.4,11,26.1,16,23.9,15.6,56.1,34.1,74.7,56.3l9.4,11.1c-4.3-8.8-8.9-17.7-14.7-25.5-16-21.3-60.9-55.8-83.2-64.9-8.6-7.6-31.2-53.8-42.2-69.8,7.6-16.2,7.8-22.5,11.2-39.4,12.3-52.7-22.5-86.8-26.3-139.3-9-121.9,95-184.5,195.2-142.7,63.4,26.4,77.8,88.9,79.4,156.7-.9,10.6-9.4,21.6-9.1,32.2.5,17.6,5.6,34.1,7,51.9-11.2,21.1-27.7,88.1-38.7,117.3-39.4,17-70.9-12-109-21.4l-2.4-.6c20.3,20.3,30.2,23.3,54.7,37.6-2,8.8-7.5,46,.7,50.4,8.3-6.4,12.6-30.4,15.3-41.6,19.6.5,26.2.5,45-5,18.6-18.3,18.5-34.3,24.2-58.5,4.9-21,31.3-33,48.7-42.8l.2,1.6c1.9,18.5-.6,32.3,5.9,50.1,2-12.3,4-24.8,5.9-37.1,21.2-90.8,50.7-163.2,142.4-181.9,4.3-17.7,9.1-33.8,13.2-51.9-30.7,35.8-24.4,37.2-73.6,51.5,7.6-34.7,14.7-71.4,28.6-103.8,15-35.1,35-65.8,53.4-99.1,22.9-41.6,38.1-94,48.9-140.6,6.8-29-3.4-34.4-13.6-56.7-2.9-6.5-1.1-16.4-7.6-26.7-11.6-9-131.6-30-157.3-35l-172.7-34.5c-24.8-4.8-49.5-9.9-74.1-15.3-16.8-3.8-41.6-10.5-57.8-12.2,2.5-19.1,2.7-27.9-4.2-45.8l1.3-2.1c15.5-1.6,61.7,11.2,80.9,15l267.9,55.6,77.2,17.1c14.3,3.2,42.2,9.8,55.9,9.8,3.6-3.2,9.7-17.7,12.7-23.6,22.6-14.8,21.2-15.1,47-4.7,16.6-4.5,18.4-1.3,29.7,11,14.8,2.7,27.4,10.6,39.4,20.3,9.3,7.5,10.6,13.8,14.5,25,29.4,10.2,77,12.3,105.4,26.2,27.9,13.6,63.5,40.6,90.8,55.5,35.2,19.3,64.1,34.8,97.7,56.7,17.1,11.1,71.3,49.1,84.4,54.4,3.3,4.6,8.4,11.7,8.3,18.1.3,18-13.6,39.5-32.2,31.4-18-7.9-35.6-21.7-52.2-32.9-30-20.2-61.5-38.4-91.4-58.8l-72.5-49.6c-10-6.8-37.1-25.3-46.6-29-24.1-9.2-113.4-28.6-134.6-28l-2.1-.3c-26.1-3.7-35.3-19-54.9-19.8l-1.4,1.7c7.8,12.5,25.4,23.6,39.1,23.3,2.1,0,5,0,7,.5,8.2,1.5,15.4,1.7,21.8,7,15.2,22.8-25.2,62.2-30.3,85.2-8.3,38.6-13.9,77.8-17,117.2-2.2,27.4-4.1,66.6-8.5,93-7,41.9-32.6,127.8-64.5,154.4-6.8,6.6-14.3,12.4-17.5,21.4l.9,2.7c6.5-.7,13.4-10,16.6-15.6l4.3.7c.1,8.1-17.2,35.8-20.1,45.1-6.8,21.5-11.7,43.4-18.2,65.1-14.1,47.2-38,90.3-69.6,126.4-18,20.6-40.9,39.4-59,59-8.6,9.3-13.7,41.8-24.9,54.2-2.8-26.4-9.9-92-23.1-112-2,3.6,1,28.2,1.6,34.2,3.7,35.2,3.3,69.7,3.5,104.9,0,8.6-.6,45.2.4,51.4-2.4,8.9-3.8,21.6-4.8,30.9-2.7,27-13.3,41.4-27.4,62.5,5.6-2.5,14.5-7,20-8.6-.5,46.2-3.4,87.9-8.2,133.7-1.1,10.2-.6,24.6-1.2,35.6-9.7,9.4-34.1,23.9-46.4,32.8-36.8,26.7-68.1,59.7-103.1,88-46,37.2-76,46.7-101.9,105.3,18.5-18.7,57.6-60.8,79.3-71.7-15.6,39.9-34.4,66.2-39.6,110.4,12.9-25.7,34-69.4,48.5-91.2,46.3-69.7,163.2-157.8,235.1-190.3-12.6,49.6-10.5,80.4-4.1,131.1-7.9,11.3-23,25.6-32.9,35.8-13.8,14.6-27.4,29.2-40.9,44-5.6,6.5-33.2,37.8-35.1,44.1,8.9-2.7,38.4-29.4,47.6-37.1,6.4-7.3,26.2-22.7,34.7-29.7,15.4-13.1,30.8-26.2,46.1-39.4-6.3-57.8-7.3-101.7,10.7-157.3,9.2-6.8,71.2-38.1,82.2-38.6l1.3,2.6c-.2,8-3.3,15.1-5.9,22.7,30.9-36.2,66-78.1,113-86.1,22.3-3.8,47.9-9.2,70.2-10.4l1,3.4c-4.1,8.5-22.9,21.5-31.1,34.8l.4-.3,2.3.7c12.6-8.5,26.1-18.1,39.3-25.2,34.5-19.9,72.2-41.3,109.3-54.3,98.4-34.4,204.8-47.8,293.7-108.5,10.3-7.1,31.1-18.4,34.1-33.1,3.4-27.9,26.7-33.5,36.7-48,20.4-30.5,44.4-61.2,61.6-93.6,5.9-11.1,12-38.3,16.1-51.4,15.9-50.7,16.2-95.5,79.5-75.1,20.7,21.7,24.7,73.4,26.4,103.3,3.6,63.8-35.2,118.5-44.8,178.7-9.6,60.3,20.4,157.3-42.5,193.7-25.3-3.3-48-13.6-74.3-18.6-14.9,10.1-33.9,20.4-46.9,29.3-15,10.3-44.5,34.8-57.7,47.1-71.4,66.3-107.1,123.3-205.5,145.8-51.8,11.8-73.9,6.9-121.8,13.1-25.4,22.2-57.5,73.9-79.7,101.9-3.3,4.1-23.8,31.7-25.6,35.3-9.7,12.6-26.2,35.2-36.6,46.1-23.9-25-28.4-60.6-41.8-70.6l-1.9,1.1c-1.5,16.5,6,36.2,11.7,51.4,17.8,37.5,26.5,38.4,56.7,56.6v2.5c-15.1,14.4-78.9,41.7-103.9,60.2-33.9,22.9-62.1,53.7-94.2,79.3-32.8,26.2-70.1,42.3-110.5,48.4-18.4,2.8-32.7-.2-50.8-3.3,11.6-11.7,20.5-18.6,32.1-31.7-38.3,19.8-70,44-114.2,42.6-66.3-1.9-108.2-24.7-153.2-74.6-50.9-56.5-64.7-123.9-64.4-199.6,25.7-53.4,75.6-82.4,118.4-117.7-22.3,4.9-31.3,9.7-50.7,18.8-14.5,6.8-63.5,51.9-71.2,51.9-13-11.4-49.6-197.2-46-203.3,6.9,4.8,20.7,19.9,28.3,27.1-7.2-17.5-21.2-41.1-30.6-58.6-31.3-58.7-65.8-121-83.5-186.3-14.1-52.2,6.6-107.4,16.7-157.8-8.7,10.4-13.8,22-22,32-1.4,1.7-2.3,1-5,.7-23.2-16.6-37.5-105.9-32.1-136.5,3.5-19.9,6.8-37.9,11.3-57.6,8.8,19.7,11.8,32,22.6,52.5-3.2-15.8-5.9-32.5-8.7-48.4-8.2-42.2-16.1-89.4-6-131.6.8-19.1,17.8-48.8,22.4-65.7,4.8-17.8,5.1-37.7,9.9-57.2l.7-2.6c.2-.4,6.4-27.5,7-30,10.2,15.5,13.4,19.4,27.9,30,1.9-2.7,3.1-3.2,2.5-5.6-3.1-12.6-15.7-33.5-18.7-45.1-2.8-10.8-.9-26.7-5.5-39.7h-1.7c-8.4,14.8-13.7,41-21.4,52.2l-1.9-.6c-2.3-11.1-2.5-26-2.8-37.5-2.5-95.2,27.2-187.1,47.8-278.4,3.3-17.8,4.6-36.3,5.9-54.3.9-11.1,7.3-26.8,6.9-36.8-.8-20.4-5.8-44.4-9.3-64.5,17.3,9.1,42.3,9.3,60.2,16.2,14.6,5.7,66.4,1.1,74.6-11.2v-5.1c-2.7-2.9-2.9-3.6-7.8-3.3-7.8.4-27.2,8.8-33.8,8.2-10.1-.9-30.5-6.3-41-9-18-4.7-97.3-22.4-111.4-20.2-54.4,8.6-124,31.5-177.5,49.2-7.3,2.4-12.9,10.1-19.5,11.8-11.8,3-23.3,5.6-34.9,8.8-24.6,7.1-49.2,14.3-73.7,21.9-19.4,6-71.4,26-88.2,25.7-4.4,0-8.6-1.8-12-4.8-7.6-6.7-10.7-14.3-11.6-24.3-.6-6.8,2.9-20.3,7.6-23.4,43.9-28.9,161.8-45.4,202.6-66.8ZM992.8,1554.7c10.5,50,14,88.9,46.9,129.4,9.9,12.2,23.4,23.3,31.1,35.9-28.7,18.7-57,38.1-84.9,58.2-8.3,6.6-40.7,32.7-43.4,42,6,2.4,53-29.5,61-35.6,24.1-14.2,47.1-31.4,72.2-43.8,6.5-3.2,29.3-14.2,32.8-19.6,12.4-19,6.5-62.7,14.4-83.1,11.3-26.6,33.5-45.5,49.8-67.7,21.6-29.5,50.6-60,69.9-90.5,24.7-10.2,69.6-4.6,97.4-6.2,32.5-1.9,69.6-6.9,100.3-19,47.1-18.9,84.4-59.6,123.2-92.4,36.9-31.2,72.7-60.9,113.3-86.3,8.5-5.3,38.2-24.1,41.5-31.8l-2.8-.4,2.6.4-.8,1.2-3.5-1.2c-47,14.8-130.3,64.6-167.9,97.6-46.1,40.5-76.8,72.6-136.3,95.7-25.6,9.9-40.8,9.8-68.3,13.1-18.7,3.4-92.3-6.4-104.6,6.9-57.1,61.8-111.1,166.4-169.8,224-20.4-20.3-40.5-58.2-53.7-84.9-6.9-14-11.8-28.3-20.3-41.7ZM723.3,1486c2.2-31.4-39.6-64.6-65.7-68.5,5.2,9.7,20.1,21.2,28.7,30.3,8.2,8.7,25.2,33.2,32.9,37.9l4.1.3ZM516.3,680.6c-.2,16.8,7.4,59.5,9.7,80.3.5,15.2,1.9,25.7,1.8,41.4,0,14.5-2.1,36.3-1,49.5,6.2-1.5,11.5-34.3,12.2-41.4,10.8-34.5-4.9-100.6-22.7-129.8ZM665.6,1281.3c-3.2-14.1-38-18-49.8-25-10.7-6.3-23-19.7-33.6-23.2,5.8,14.6,25,38,39.6,43.2,16.5,5.9,27.7,2.9,43.9,5ZM820.5,1386.3c14.8,9.7,13.6,16.5,22.7,31.7-.9-9.9-3.1-23.6-.4-32.5,5.9-4.7,11.1.3,15.9-4.3-3.3-4.6-14.5-6.3-14.3-9.9.6-10.9-4-64.8-1.2-71.6,11.1-6.1,36.4,10.8,40,23.4,1,3.4,5.1,10.2,8.1,12,5.8-5.7-2.3-30.4-8.3-36.4-15.9-15.6-40.2-19.9-60.8-19.6-7.4.2-14.8.4-22.3.8-34.3,8.4-44.6,13.1-64,46.6-1,1.7-2,3.5-3,5.2,24.9-15.6,51.4-39.7,82.2-32.8,20.7,4.7,18.4,48.1,15,64.6-2.4,11.9-26,8.2-34.7,10.4-14.4,3.7-28.8,14.7-41.2,23,10.2-1.9,37-6.2,45.2-9.6,7.8-.7,13.1-1.2,21-1ZM1203.9,1427.7c-10.8,5.8-64.8,49.6-57.6,61.9l2.2.8c12.4-14.5,53.5-50,58.1-60.7-1.6-2-.6-1.4-2.6-2.1ZM1053.7,754.7c-16.1,40.5-30.4,73.2-56.1,108.7-7.4,10.2-32.2,30-32.5,39.2l1.6,2.7c10.2-6.1,46.3-30.9,52.6-39.6,15.9-22.1,42.1-80.9,36-109l-1.6-2ZM808.5,1116.6c1.1,58.4,11.4,66.1-21.7,116.1,15.2-4.3,26.4-14.9,35.8-10.9,5.8,3.3,15.8,9.4,22.4,7.6l.7-3c-25.7-37.5-21.8-64.2-33.4-106.9-.1-.5-3.2-2.6-3.9-3ZM818,970.3c9.1-9.2,14.4-17.6,20.5-28.9-8.9,5.2-17.1,10.2-24.2,18-9.6,10.7-13,13.4-17,27.9l.9,2.7c7-.9,12.2-9.3,16.6-15.2l3.3-4.5ZM570.9,1032.3c-9.4-20.6-18.6-41-27.3-62-4.1-9.9-13.7-39.7-19.9-45.7-6.1,24.5-6.4,52.9,6,75.3,9.5,17.1,24.6,32.5,31.1,51.2,8.1,23.1,11.9,48.3,18.8,71.9,14,52,54.8,86.9,101.9,101.3,13.4,4.1,25.4,4.3,39.3,2.9-8.5-3-15.4-5.3-23.6-9.1-40.2-17.1-68.2-43.6-86.1-86.7-18.6-44.6-19.6-92.2-30.5-137.4-3.3,12.8-6.5,25.6-9.7,38.4Z"/>
  <path class="st28" d="M1053.7,754.7l1.6,2c6.1,28.1-20.1,86.9-36,109-6.2,8.7-42.4,33.5-52.6,39.6l-1.6-2.7c.2-9.1,25.1-29,32.5-39.2,25.8-35.5,40-68.1,56.1-108.7Z"/>
  <path class="st15" d="M516.3,680.6c17.8,29.2,33.5,95.3,22.7,129.8-2.3,2.9-5.1,7.6-7.2,10.9-2.3-5.4,0-31.8-1.3-40.7-1.4-9.3-1.6-10.4-4.5-19.8-2.2-20.8-9.8-63.4-9.7-80.3Z"/>
  <path class="st19" d="M657.7,1417.5c26.1,3.9,67.9,37.1,65.7,68.5l-4.1-.3c-7.7-4.7-24.7-29.2-32.9-37.9-8.6-9.1-23.5-20.5-28.7-30.3Z"/>
  <path class="st21" d="M582.2,1233c10.6,3.5,22.9,16.9,33.6,23.2,11.8,7,46.6,10.8,49.8,25-16.1-2.1-27.4.9-43.9-5-14.6-5.2-33.8-28.6-39.6-43.2Z"/>
  <path class="st2" d="M1203.9,1427.7c1.9.6,1,0,2.6,2.1-4.5,10.7-45.6,46.2-58.1,60.7l-2.2-.8c-7.2-12.4,46.9-56.1,57.6-61.9Z"/>
  <path class="st17" d="M1003.5,1784.5c-8,6.1-55,38-61,35.6,2.7-9.4,35.1-35.4,43.4-42l.7,6.2c5.5,3.5,8.3,0,16.9.2Z"/>
  <path class="st6" d="M526,760.8c2.9,9.4,3.1,10.5,4.5,19.8,1.4,8.9-1,35.3,1.3,40.7,2.1-3.3,4.8-8,7.2-10.9-.7,7.1-6,39.9-12.2,41.4-1.1-13.2.9-35,1-49.5.1-15.8-1.3-26.2-1.8-41.4Z"/>
  <path class="st21" d="M814.3,959.4l6.8-1.3,1,1.6c-1.8,4.2-2.9,6.2-4.2,10.6l-3.3,4.5c-4.3,5.8-9.5,14.3-16.6,15.2l-.9-2.7c4.1-14.5,7.5-17.2,17-27.9Z"/>
  <path class="st1" d="M814.3,959.4c7.1-7.8,15.4-12.8,24.2-18-6.2,11.3-11.5,19.8-20.5,28.9,1.3-4.5,2.3-6.5,4.2-10.6l-1-1.6-6.8,1.3Z"/>
  <path class="st26" d="M1100.9,2037.5c22.9-13.1,50.6-26.8,72.5-40.4,134.4-83.9,250.7-197.8,341-334.1,41-62.8,78.6-139.5,112.9-202.5,10.3-18.9,107-101.9,126.6-115.5-112.5,318.9-292.6,537.2-582.9,677.6-15.7,7.7-31.6,14.8-47.6,21.5-10.2-1-16.3,1.4-26.2,3.8l-1.3-1.9c1.8-2.9,3.4-5.6,5-8.6Z"/>
  <path class="st26" d="M1987.6,818.2c39.6,3.3,47.3,51,54.8,83,21.1,86.7-22.8,143.1-49.9,217.6-17.7,48.6-2,125.7-51.3,161.2-19,9.4-33.5,6.9-50.8-4.9,4.8-22.9,15.9-56.9,15.7-78.5-.8-68.8-6.8-116.6,26.9-179.3,28-52,18.5-105.9,15.7-163.9,10.4-21.5,15.3-35,39-35.2Z"/>
  <path class="st26" d="M240.2,163.3c31.9-8.8,61.4-16.2,92.5-28-81.4,144.4-150,320-177.4,486.6-6,37.3-10.9,74.8-14.7,112.5-1.2,11.5-3.5,56.7-5.7,63.4-.9.7-1.8,1.5-2.7,2.2-2.8,25.9.7,79.5-2.2,103.5-3.5-9.1-8.1-47.8-8.9-59.3-3-42.8-2.2-85.2-5-128.2-1.7-26.7,2.9-55.8.2-83.7,3.4-51.4,13.5-101.4,21.8-152,18.5-112.1,55.7-215,101.9-317Z"/>
  <path class="st26" d="M1819.9,1339.6l2.5.2c22.1,1.8,51.6-12.3,64.9-1.6,3.8,14.8-54.8,134.6-64.8,153.8-50.6,96.7-111.7,186.6-181.9,267.7-12.7,14.3-32.1,36.3-46.2,49-19.6,20.4-38.4,37.1-59.2,56l-3.7-1.2c-3.3-5.2-1.9-4.8-1.1-13.2,32-35.6,62.6-72.7,91.8-111,8.3-12.4,16.9-24.9,25.5-37.1,33.4-47.6,58.7-101.9,86.7-153.2,21.1-38.9,37.8-79.6,54.2-121,12.2-30.7,25.1-55.3,31.3-88.4Z"/>
  <path class="st26" d="M1213.6,1868.9c105.4-96.4,175.5-183,242.9-314.4,3.5-6.9,52.1-19.3,63.2-24.2l8.5-3.6c-25.6,41.9-50.2,88.3-78.3,128.3-62.9,89.6-146.5,170.8-235,229.9-4.2-.7-6.8-1-11.1-.9,5.9-6.6,7.3-6,9.8-15.2Z"/>
  <path class="st26" d="M1352.6,611.5c11.6-28.6,103.6-228.6,115.5-236.9,14,.5,32.2,19,45.4,26.5-14.1,28-35.2,58.6-51.4,86.1-30.3,50.5-59.4,101.8-87.2,153.9-5.2,9.5-63.2,118.6-59.4,115.4-6,2.3-7.1,3.9-11.7,8.7l-2.6-.7c-5.6-21.2,57.4-115,51.4-153Z"/>
  <path class="st26" d="M400.1,113.5c32.5,6.5,54.2,6.1,28.3,42-41.1,57.1-72.8,122.6-104,186.5-24.3,49.9-42.4,106.4-59.3,159.6-1.6,5.1-7.4,28.2-9.1,31.1-3.3,1.7-2.7,2.6-6.5,4.1-2.4-5.3,17.3-83.5,15.3-103.6,6.2-42.5,25.3-84.1,39.2-123.7,18.1-51.4,39.9-97.5,66-144.5,8.7-15.8,19.2-37.7,30.1-51.7Z"/>
  <path class="st26" d="M114,204.7c21.8-5.1,34.3-7.7,54.5-16.9l1.6,1.2c-7,23.3-26.4,58.4-36.5,82.4-43,102.6-72.6,196.1-91.4,306.9-6.3,5.9-5.8,12.9-8.1,23.4-1.4-21,2.9-41.9.7-65.8,13-113.7,39.6-225,79.2-331.3Z"/>
  <path class="st26" d="M657.2,1980.3c-21.1-6.4-41.2-16.5-59.2-29.9-60.5-45-84.4-98.2-98.2-175.4-2-11.1-6.4-61.7-1.7-69.1,6.3,19.1,9.2,39.2,14.5,58.6,14.2,52.4,48.3,99.5,84.8,137,12.3,17.5,22.4,22.6,38.3,34.3,43.6,32,92.8,45.4,144.5,54.6-32.1,5-56.9,6.3-88.6-2.1-6-1.6-29.5-7.8-34.3-7.9Z"/>
  <path class="st26" d="M1387.2,319.6c11,5.6,26.9,15.1,35.6,24.1,1.4,10.3-18.1,31.8-23,42-18.5,37.9-39.2,74.2-59.2,111.1-13.3,24.7-24,52-37.2,76.9l-6.8,2.6-2.3-1.4c-2.5-7.6,5.4-24.8,4.5-38.4,5.9-18.4,14-36,20.7-54,17.2-46.4,35.6-91.8,56.2-136.5,3.9-8.5,8-17.6,11.5-26.3Z"/>
  <path class="st26" d="M456.2,1836.6c2.7,1.8,16,32.2,18.6,37.4,29.9,60.8,81,108.9,138.2,138.2,12.1,6.2,29,9.3,40.2,17.3-22.1,2.3-52.5-5.4-73.3-13.5-67-26.2-120.6-102.1-123.7-179.3Z"/>
  <path class="st27" d="M1352.6,611.5c6,38-56.9,131.8-51.4,153l2.6.7c4.6-4.8,5.6-6.4,11.7-8.7-19.8,45.1-39.5,86.6-59.2,132.6l-1.1-.2c-2.7-3.1-1.7-9.3-1.8-14.7,2.8-6,7.4-22.1,9.4-29,24-80.9,56.9-156.6,89.8-233.6Z"/>
  <path class="st9" d="M134.9,797.8c5.1,59.4-3.3,124.9,7.8,185.1,1.2,6.8,3.4,22.8,2.4,29.4l-1.6-.7c-6.7-13.6-10.1-43.7-12.9-59.7-16-89.9-22.2-182.7-17.3-274.1.6-11.8,1-35.2,3.2-45.4,2.6,27.9-2,57-.2,83.7,2.8,43,2,85.4,5,128.2.8,11.5,5.3,50.2,8.9,59.3,2.9-24.1-.7-77.7,2.2-103.5.9-.7,1.8-1.5,2.7-2.2Z"/>
  <path class="st29" d="M928.4,1140.4c-1-6.3-.4-42.9-.4-51.4-.1-35.2.2-69.7-3.5-104.9-.6-6-3.7-30.6-1.6-34.2,13.2,20,20.3,85.6,23.1,112-3.6,2.1-3.7,3.1-6.1,6.9-3.9-2.8-3.5-3.2-6.2-7.6l-2-.2c-3.8,10.7,1.7,73.3-3.3,79.4Z"/>
  <path class="st18" d="M669.6,925.9c22.4,9.1,67.3,43.6,83.2,64.9,5.8,7.7,10.4,16.6,14.7,25.5l-9.4-11.1c-18.6-22.2-50.7-40.6-74.7-56.3-7.6-5-20.1-10.5-26.1-16,2.5-.1,6,.2,8.5.3,3.9-2.7,2.2-.9,3.7-7.4Z"/>
  <path class="st22" d="M597.2,1901.4c81.5,65.6,111.7,75.7,212.6,86.7-46.1,9.6-82.6,14.8-128.9,1-7-2.1-17.9-4.7-23.7-8.9,4.8,0,28.3,6.3,34.3,7.9,31.7,8.4,56.4,7.1,88.6,2.1-51.7-9.2-100.9-22.6-144.5-54.6-15.9-11.7-26-16.8-38.3-34.3Z"/>
  <path class="st7" d="M1298.8,536.4c.9,13.5-7,30.8-4.5,38.4l2.3,1.4,6.8-2.6c-16.2,34.3-32,73.6-48.8,106.5,4-26.1,34.6-118.6,44.1-143.8Z"/>
  <path class="st8" d="M239.1,559.2c1.3-22.9,18.6-102.5,25.7-125.8,2.1,20-17.6,98.3-15.3,103.6,3.8-1.5,3.2-2.4,6.5-4.1-4,15.3-10.8,39.1-13.5,54.2l-3.7,5.9-1-.7c-1.5-9.3,2.7-20.8,1.4-33Z"/>
  <path class="st5" d="M1467.8,1915.1c17.1-19.3,43.5-43.9,62.7-64.6-.9,8.3-2.2,8,1.1,13.2l3.7,1.2c-25.4,23-38.5,33.6-67.5,50.3Z"/>
  <path class="st4" d="M1127.4,1932.2c-1.6,2.7-3,5.2-4.7,7.9l1.2,1.8c9.3-2.2,15-4.4,24.6-3.5-8.6,3.3-53,19-59.4,19.2l-11.9,1.4-.5-1,9.5-6.4c13-6.6,27.8-13.1,41.2-19.3Z"/>
  <path class="st25" d="M1231.9,246.2c-2-.4-4.9-.5-7-.5-13.6.3-31.3-10.7-39.1-23.3l1.4-1.7c19.6.8,28.8,16.2,54.9,19.8l2.1.3c-4.3,2.3-9.2,3.2-12.4,5.4Z"/>
  <path class="st8" d="M1165.3,1905.4c16.6-11.8,31.3-25.1,48.3-36.5-2.4,9.2-3.9,8.6-9.8,15.2,4.3-.1,7,.1,11.1.9-5.6,3.8-36.6,22.3-39.1,24.4-3.2,0-5.2,0-8.3-.3l-2.2-3.7Z"/>
  <path class="st16" d="M901,1588.8c4.3,7.4,4.3,6.8,12.4,6.9-9.2,7.7-38.7,34.4-47.6,37.1,1.9-6.3,29.5-37.6,35.1-44.1Z"/>
  <path class="st9" d="M30.3,583.6c-.3-7.5,3.3-39.3,4.5-47.6,2.2,23.9-2.2,44.8-.7,65.8,2.3-10.6,1.8-17.6,8.1-23.4-1.5,11.5-5.6,34.7-6.1,44.6-1.8,4.1-2.6,5.7-3.8,10.1l-.8,3.1-1.2-.8c-.8-17.3,1.8-34.5,0-51.7Z"/>
  <path class="st14" d="M1253.4,874.1c0,5.4-.9,11.6,1.8,14.7l1.1.2c-2.3,8.1-19.9,55.6-24,61.2-1.3-8.4,17.3-64.1,21.1-76.2Z"/>
  <path fill="#fdfebb" d="M1265.6,1259.4h3.3c3.4,6.8-2.4,4.9.5,12.8,2.8.2,5.3.4,8.1.5-13.3,7.1-26.7,16.7-39.3,25.2l-2.3-.7-.4.3c8.3-13.3,27-26.3,31.1-34.8l-1-3.4Z"/>
  <path class="st24" d="M28.9,591.8v1.8c1.5,20.4-.7,41.6.7,62.1,1.1-4.5,1.6-6,3.9-9.9-.5,7.3-2.4,52.2-4.6,55.7l-1.2-1.6c-1.2-18.2-2.2-90.9,1.2-108.1Z"/>
  <path class="st23" d="M923.3,811.1l3.8,1.4c2,6.4,2.3,9.7,8.1,13.3-1.8,12.3-3.9,24.8-5.9,37.1-6.4-17.8-4-31.6-5.9-50.1l-.2-1.6Z"/>
  <path class="st10" d="M1124.9,1935.6c10.4-11.4,27-23.4,40.4-30.2l2.2,3.7c3.2.3,5.2.4,8.3.3-16.7,9.3-33.7,18-50.9,26.2Z"/>
  <path class="st12" d="M1089,1957.6c-5.5,3.4-37.8,14.9-44.5,13.2,3.1-6.4,34.2-17.1,41.7-19.3l-9.5,6.4.5,1,11.9-1.4Z"/>
  <path class="st11" d="M239.1,559.2c1.4,12.2-2.9,23.7-1.4,33l1,.7,3.7-5.9c-1.2,11.1-4.4,23.7-6.9,34.6-4-6.5-2.6-7.7-2.5-16.5-1.1-9.1,3.9-36.7,6-45.9Z"/>
  <path class="st20" d="M233.1,605.1c0,8.9-1.5,10,2.5,16.5.2,8-3.8,27-6.5,34.3h.1s-2.1-.2-2.1-.2c-.2-10,2.9-41.4,6-50.6Z"/>
  <path class="st3" d="M1133.5,711.5c-3.2,5.6-10.1,14.9-16.6,15.6l-.9-2.7c3.1-9,10.7-14.8,17.5-21.4,0,2.6-.2,6.1,0,8.6Z"/>
  <path class="st13" d="M30.3,583.6c1.8,17.2-.8,34.5,0,51.7l1.2.8.8-3.1c1.2-4.4,2-6,3.8-10.1-.7,8.4-1.4,14.4-2.7,22.8-2.3,4-2.8,5.4-3.9,9.9-1.4-20.5.8-41.7-.5-62.1v-1.8c-.1,0,1.3-8.1,1.3-8.1Z"/>
</svg>