<?xml version="1.0" encoding="utf-8" ?><svg xmlns="http://www.w3.org/2000/svg" xmlns:xlink="http://www.w3.org/1999/xlink" width="2048" height="2048" viewBox="0 0 2048 2048"><path fill="#C5D437" d="M487.05 428.867C498.87 432.247 513.532 426.683 525.462 423.277C555.582 414.492 585.842 404.954 617.073 400.974C634.055 399.044 651.391 406.252 667.626 405.104C670.36 404.911 669.936 394.13 675.322 392.543C687.764 388.878 696.276 391.467 708.53 386.161C722.27 389.401 753.321 389.353 760.827 400.396C764.031 405.108 760.949 412.167 765.774 422.452C772.606 427.042 781.725 432.926 780.191 442.358C778.716 451.428 774.434 461.309 769.321 469.03C759.141 484.402 737.32 488.463 727.55 504.065C702.038 578.079 753.094 653.89 724.163 727.31C721.746 733.444 719.385 739.025 716.483 744.961C714.733 748.54 709.689 756.486 710.367 760.044C713.346 760.722 714.369 759.783 717.161 758.528C718.88 757.771 720.593 757.004 722.302 756.226C724.532 760.879 727.894 767.734 728.557 772.839C734.054 803.139 736.597 842.141 730.996 872.468C729.637 876.024 726.739 891.447 725.955 895.678C723.366 909.837 722.702 924.281 723.979 938.619L724.507 937.186C728.395 926.443 729.071 911.202 734.611 903.899C745.97 902.208 774.091 947.595 782.944 957.806C786.915 961.157 795.132 964.531 800.187 967.587C816.032 977.169 837.291 988.46 849.606 1002.06L855.8 1008.87C852.954 1003.46 849.904 998.009 846.07 993.273C835.508 980.225 805.804 959.079 790.997 953.487C785.274 948.85 770.338 920.504 763.042 910.714C768.075 900.763 768.212 896.908 770.471 886.577C778.624 854.288 755.584 833.368 753.067 801.244C747.088 726.531 815.928 688.177 882.246 713.809C924.171 730.014 933.75 768.254 934.763 809.801C934.151 816.284 928.569 823.02 928.768 829.529C929.098 840.324 932.46 850.408 933.383 861.348C925.995 874.294 915.053 915.355 907.804 933.199C881.737 943.644 860.869 925.86 835.658 920.116L834.055 919.764C847.478 932.175 854.026 934.038 870.256 942.802C868.961 948.213 865.265 970.975 870.725 973.696C876.25 969.778 879.083 955.065 880.84 948.195C893.778 948.472 898.206 948.482 910.619 945.153C922.946 933.922 922.885 924.147 926.62 909.328C929.861 896.464 947.362 889.086 958.859 883.122L958.976 884.109C960.232 895.473 958.584 903.89 962.851 914.823C964.149 907.268 965.515 899.654 966.726 892.091C980.752 836.452 1000.27 792.119 1060.98 780.617C1063.81 769.784 1067.01 759.885 1069.74 748.795C1049.41 770.738 1053.57 771.604 1021.02 780.369C1026.05 759.116 1030.76 736.632 1039.94 716.739C1049.86 695.214 1063.12 676.409 1075.25 656.025C1090.4 630.553 1100.44 598.416 1107.64 569.867C1112.12 552.12 1105.38 548.819 1098.67 535.131C1096.72 531.149 1097.96 525.106 1093.62 518.749C1085.92 513.224 1006.51 500.373 989.522 497.295L875.268 476.138C858.889 473.193 842.542 470.067 826.233 466.759C815.105 464.431 798.71 460.322 788.013 459.281C789.696 447.551 789.782 442.164 785.216 431.198L786.054 429.902C796.343 428.898 826.868 436.738 839.616 439.082L1016.9 473.179L1067.99 483.628C1077.42 485.569 1095.93 489.651 1104.96 489.659C1107.32 487.717 1111.39 478.809 1113.36 475.211C1128.34 466.172 1127.38 465.972 1144.44 472.331C1155.45 469.6 1156.64 471.541 1164.09 479.051C1173.9 480.718 1182.25 485.534 1190.15 491.471C1196.28 496.075 1197.19 499.938 1199.75 506.784C1219.23 513.038 1250.69 514.32 1269.5 522.816C1287.98 531.162 1311.53 547.676 1329.56 556.816C1352.84 568.619 1371.96 578.166 1394.18 591.542C1405.5 598.352 1441.34 621.625 1450.01 624.853C1452.21 627.688 1455.54 632.004 1455.48 635.922C1455.67 646.961 1446.5 660.148 1434.16 655.155C1422.25 650.341 1410.62 641.869 1399.63 635.008C1379.75 622.611 1358.94 611.461 1339.15 598.99L1291.18 568.604C1284.54 564.456 1266.64 553.088 1260.33 550.847C1244.39 545.185 1185.31 533.343 1171.27 533.718L1169.86 533.543C1152.58 531.296 1146.53 521.901 1133.53 521.4L1132.61 522.463C1137.76 530.149 1149.44 536.918 1158.45 536.718C1159.83 536.687 1161.77 536.779 1163.07 537.015C1168.52 537.907 1173.25 538.051 1177.49 541.285C1187.53 555.281 1160.84 579.38 1157.43 593.504C1151.96 617.144 1148.21 641.146 1146.19 665.325C1144.71 682.115 1143.49 706.143 1140.58 722.305C1135.96 747.962 1119.02 800.586 1097.9 816.896C1093.38 820.964 1088.41 824.5 1086.33 830.035L1086.95 831.719C1091.24 831.294 1095.82 825.597 1097.95 822.14L1100.81 822.571C1100.88 827.546 1089.41 844.495 1087.48 850.192C1082.99 863.392 1079.74 876.762 1075.46 890.056C1066.15 918.991 1050.3 945.412 1029.43 967.524C1017.53 980.136 1002.37 991.688 990.394 1003.66C984.676 1009.37 981.319 1029.3 973.894 1036.84C972.059 1020.64 967.34 980.486 958.594 968.212C957.247 970.409 959.26 985.467 959.673 989.155C962.089 1010.71 961.887 1031.84 961.977 1053.43C961.999 1058.68 961.588 1081.11 962.252 1084.94C960.678 1090.39 959.706 1098.16 959.102 1103.85C957.344 1120.41 950.278 1129.21 940.968 1142.14C944.643 1140.59 950.582 1137.88 954.224 1136.86C953.903 1165.19 951.992 1190.7 948.773 1218.77C948.054 1225.04 948.392 1233.85 948.009 1240.59C941.558 1246.37 925.432 1255.24 917.321 1260.69C892.958 1277.06 872.237 1297.25 849.077 1314.6C818.669 1337.39 798.816 1343.19 781.664 1379.15C793.903 1367.7 819.781 1341.87 834.167 1335.23C823.868 1359.68 811.397 1375.8 807.963 1402.85C816.49 1387.09 830.457 1360.31 840.029 1346.96C870.662 1304.24 948.05 1250.26 995.603 1230.35C987.291 1260.72 988.63 1279.59 992.921 1310.69C987.672 1317.6 977.669 1326.4 971.18 1332.65C962.076 1341.57 953.045 1350.57 944.089 1359.63C940.372 1363.59 922.125 1382.8 920.838 1386.64C926.735 1384.97 946.252 1368.6 952.31 1363.88C956.544 1359.38 969.644 1350 975.28 1345.66C985.485 1337.66 995.644 1329.6 1005.76 1321.49C1001.57 1286.09 1000.94 1259.15 1012.83 1225.09C1018.94 1220.9 1059.92 1201.73 1067.23 1201.42L1068.08 1203C1067.95 1207.89 1065.89 1212.26 1064.16 1216.92C1084.63 1194.72 1107.85 1169.08 1138.91 1164.19C1153.64 1161.87 1170.61 1158.57 1185.38 1157.8L1186.06 1159.88C1183.33 1165.07 1170.94 1173.03 1165.46 1181.19L1165.75 1180.98L1167.24 1181.39C1175.6 1176.16 1184.49 1170.3 1193.26 1165.94C1216.12 1153.75 1241.03 1140.62 1265.61 1132.67C1330.69 1111.61 1401.14 1103.36 1459.96 1066.17C1466.78 1061.85 1480.54 1054.89 1482.51 1045.89C1484.74 1028.82 1500.2 1025.37 1506.77 1016.48C1520.24 997.812 1536.12 979.01 1547.54 959.127C1551.47 952.303 1555.48 935.653 1558.19 927.623C1568.68 896.543 1568.94 869.123 1610.81 881.615C1624.53 894.912 1627.17 926.597 1628.27 944.888C1630.63 983.989 1604.97 1017.49 1598.64 1054.4C1592.31 1091.36 1612.11 1150.8 1570.55 1173.1C1553.81 1171.1 1538.81 1164.78 1521.36 1161.7C1511.47 1167.9 1498.92 1174.18 1490.3 1179.67C1480.4 1185.96 1460.86 1201 1452.13 1208.5C1404.89 1249.1 1381.29 1284.07 1316.18 1297.85C1281.9 1305.1 1267.28 1302.07 1235.58 1305.9C1218.78 1319.53 1197.53 1351.18 1182.82 1368.35C1180.65 1370.88 1167.1 1387.78 1165.85 1389.99C1159.45 1397.7 1148.5 1411.57 1141.64 1418.25C1125.82 1402.95 1122.85 1381.09 1114.01 1375.02L1112.78 1375.69C1111.82 1385.8 1116.73 1397.86 1120.52 1407.16C1132.32 1430.11 1138.08 1430.69 1158.05 1441.85L1158.03 1443.37C1148.06 1452.2 1105.85 1468.94 1089.27 1480.28C1066.87 1494.31 1048.2 1513.16 1026.97 1528.85C1005.26 1544.9 980.603 1554.76 953.852 1558.48C941.706 1560.17 932.232 1558.38 920.248 1556.44C927.906 1549.25 933.844 1545.07 941.497 1537C916.148 1549.14 895.179 1563.93 865.956 1563.13C822.107 1561.94 794.346 1547.99 764.575 1517.42C730.891 1482.82 721.782 1441.52 721.935 1395.14C738.96 1362.4 771.978 1344.66 800.309 1323.04C785.581 1326.03 779.591 1328.98 766.744 1334.58C757.125 1338.77 724.694 1366.4 719.626 1366.39C711.041 1359.38 686.809 1245.58 689.21 1241.85C693.789 1244.8 702.904 1254.04 707.942 1258.44C703.146 1247.72 693.934 1233.26 687.705 1222.51C666.989 1186.52 644.166 1148.37 632.457 1108.33C623.097 1076.33 636.847 1042.55 643.532 1011.64C637.783 1018.01 634.425 1025.13 628.948 1031.25C628.004 1032.3 627.405 1031.84 625.626 1031.68C610.248 1021.5 600.836 966.79 604.392 948.05C606.701 935.88 608.924 924.805 611.87 912.754C617.66 924.828 619.696 932.363 626.805 944.9C624.685 935.239 622.904 924.994 621.05 915.239C615.635 889.394 610.413 860.485 617.058 834.619C617.619 822.888 628.86 804.697 631.91 794.335C635.116 783.443 635.255 771.257 638.464 759.3L638.896 757.724C639.05 757.458 643.111 740.887 643.495 739.372C650.266 748.867 652.357 751.251 661.951 757.753C663.222 756.09 664.027 755.816 663.632 754.338C661.571 746.634 653.265 733.841 651.278 726.702C649.427 720.054 650.697 710.344 647.671 702.353L646.574 702.309C641.046 711.435 637.518 727.494 632.381 734.31L631.121 733.926C629.621 727.153 629.488 718.002 629.288 710.969C627.628 652.649 647.257 596.346 660.943 540.366C663.12 529.48 663.956 518.142 664.876 507.088C665.444 500.263 669.712 490.673 669.449 484.51C668.916 471.991 665.609 457.334 663.289 445.013C674.746 450.619 691.254 450.713 703.099 454.958C712.788 458.429 747.034 455.626 752.478 448.099L752.517 445.002C750.713 443.241 750.529 442.807 747.288 442.977C742.142 443.246 729.264 448.366 724.928 448.013C718.272 447.472 704.759 444.158 697.828 442.484C685.928 439.609 633.477 428.765 624.084 430.137C588.108 435.391 542.053 449.425 506.659 460.261C501.806 461.747 498.131 466.449 493.778 467.47C485.97 469.301 478.344 470.904 470.672 472.869C454.377 477.194 438.121 481.661 421.904 486.27C409.084 489.936 374.655 502.231 363.524 502.026C360.62 501.97 357.822 500.927 355.591 499.068C350.564 494.936 348.495 490.299 347.945 484.15C347.572 479.992 349.857 471.701 352.982 469.795C382.047 452.074 460.071 441.982 487.05 428.867ZM1004.84 1338.78C1011.8 1369.4 1014.13 1393.23 1035.85 1418.04C1042.42 1425.54 1051.36 1432.31 1056.45 1440.05C1037.46 1451.52 1018.72 1463.4 1000.24 1475.68C994.732 1479.74 973.327 1495.69 971.536 1501.42C975.499 1502.88 1006.62 1483.35 1011.89 1479.59C1027.81 1470.91 1043.03 1460.37 1059.66 1452.74C1063.95 1450.78 1079.04 1444.03 1081.37 1440.73C1089.6 1429.07 1085.64 1402.32 1090.87 1389.79C1098.34 1373.47 1113.06 1361.89 1123.8 1348.32C1138.09 1330.27 1157.27 1311.54 1170.06 1292.85C1186.39 1286.57 1216.1 1290.04 1234.52 1289.03C1256.02 1287.85 1280.58 1284.8 1300.87 1277.4C1332.01 1265.82 1356.75 1240.91 1382.42 1220.77C1406.82 1201.63 1430.53 1183.46 1457.36 1167.9C1462.98 1164.64 1482.62 1153.13 1484.83 1148.4L1483 1148.17L1484.7 1148.39L1484.19 1149.11L1481.9 1148.38C1450.8 1157.46 1395.68 1187.94 1370.8 1208.18C1340.28 1233 1319.98 1252.68 1280.61 1266.83C1263.7 1272.91 1253.63 1272.85 1235.43 1274.86C1223.07 1276.95 1174.35 1270.93 1166.23 1279.07C1128.45 1316.95 1092.74 1381.03 1053.85 1416.33C1040.35 1403.87 1027.04 1380.7 1018.29 1364.3C1013.71 1355.72 1010.51 1346.97 1004.84 1338.78ZM826.525 1296.64C827.98 1277.42 800.335 1257.06 783.076 1254.68C786.508 1260.64 796.374 1267.67 802.053 1273.23C807.49 1278.56 818.755 1293.55 823.821 1296.46L826.525 1296.64ZM689.57 803.153C689.454 813.463 694.471 839.59 695.959 852.331C696.285 861.636 697.198 868.052 697.13 877.71C697.066 886.596 695.743 899.974 696.474 908.065C700.592 907.155 704.11 887.038 704.568 882.689C711.733 861.543 701.344 821.073 689.57 803.153ZM788.363 1171.22C786.244 1162.55 763.239 1160.2 755.399 1155.91C748.326 1152.05 740.173 1143.83 733.165 1141.68C736.998 1150.65 749.706 1164.99 759.337 1168.17C770.245 1171.79 777.689 1169.93 788.363 1171.22ZM890.804 1235.55C900.625 1241.51 899.812 1245.65 905.844 1255C905.245 1248.95 903.784 1240.52 905.582 1235.08C909.489 1232.23 912.92 1235.26 916.13 1232.46C913.974 1229.64 906.536 1228.6 906.671 1226.37C907.078 1219.67 904.011 1186.68 905.875 1182.47C913.198 1178.76 929.987 1189.08 932.344 1196.8C932.988 1198.91 935.738 1203.02 937.715 1204.16C941.575 1200.67 936.204 1185.52 932.21 1181.87C921.717 1172.3 905.608 1169.69 891.994 1169.84C887.084 1169.94 882.175 1170.1 877.269 1170.33C854.577 1175.45 847.749 1178.33 834.898 1198.86C834.229 1199.92 833.568 1200.99 832.914 1202.07C849.363 1192.52 866.933 1177.72 887.288 1181.98C900.975 1184.84 899.439 1211.44 897.241 1221.59C895.656 1228.9 880.054 1226.61 874.249 1227.98C864.69 1230.24 855.208 1236.99 846.956 1242.07C853.718 1240.9 871.413 1238.28 876.888 1236.16C882.058 1235.71 885.534 1235.42 890.804 1235.55ZM1144.52 1260.92C1137.4 1264.49 1101.63 1291.29 1106.39 1298.86L1107.82 1299.37C1116.04 1290.48 1143.24 1268.76 1146.24 1262.19C1145.19 1260.95 1145.81 1261.31 1144.52 1260.92ZM1045.13 848.573C1034.5 873.403 1025.04 893.398 1008 915.148C1003.1 921.396 986.664 933.554 986.515 939.157L987.595 940.833C994.343 937.067 1018.24 921.887 1022.37 916.567C1032.86 903.038 1050.2 867.025 1046.17 849.808L1045.13 848.573ZM882.879 1070.31C883.621 1106.12 890.449 1110.8 868.537 1141.46C878.603 1138.8 885.973 1132.3 892.254 1134.81C896.118 1136.84 902.692 1140.54 907.069 1139.48L907.557 1137.63C890.58 1114.64 893.133 1098.32 885.471 1072.12C885.382 1071.82 883.343 1070.53 882.879 1070.31ZM889.167 980.699C895.157 975.09 898.666 969.923 902.759 962.983C896.895 966.179 891.423 969.242 886.734 974.029C880.392 980.576 878.138 982.232 875.454 991.106L876.039 992.754C880.702 992.226 884.129 987.029 886.992 983.448L889.167 980.699ZM725.685 1018.65C719.497 1006 713.382 993.501 707.593 980.661C704.853 974.586 698.505 956.321 694.396 952.642C690.341 967.66 690.136 985.039 698.367 998.805C704.622 1009.27 714.622 1018.7 718.948 1030.15C724.3 1044.31 726.794 1059.76 731.404 1074.19C740.642 1106.07 767.674 1127.45 798.842 1136.23C807.71 1138.72 815.668 1138.84 824.868 1137.99C819.247 1136.18 814.683 1134.75 809.241 1132.43C782.612 1121.98 764.132 1105.72 752.245 1079.32C739.95 1052.01 739.257 1022.82 732.093 995.128C729.894 1002.95 727.759 1010.79 725.685 1018.65Z"/><path fill="#4E4F36" fill-opacity="0.0078431377" d="M1045.13 848.573L1046.17 849.808C1050.2 867.025 1032.86 903.038 1022.37 916.567C1018.24 921.887 994.343 937.067 987.595 940.833L986.515 939.157C986.664 933.554 1003.1 921.396 1008 915.148C1025.04 893.398 1034.5 873.403 1045.13 848.573Z"/><path fill="#F0F3B8" fill-opacity="0.011764706" d="M689.57 803.153C701.344 821.073 711.733 861.543 704.568 882.689C703.021 884.494 701.208 887.341 699.812 889.368C698.277 886.087 699.849 869.863 698.949 864.44C698.004 858.746 697.873 858.066 695.959 852.331C694.471 839.59 689.454 813.463 689.57 803.153Z"/><path fill="#F0F3B8" fill-opacity="0.027450981" d="M783.076 1254.68C800.335 1257.06 827.98 1277.42 826.525 1296.64L823.821 1296.46C818.755 1293.55 807.49 1278.56 802.053 1273.23C796.374 1267.67 786.508 1260.64 783.076 1254.68Z"/><path fill="#F0F3B8" fill-opacity="0.039215688" d="M733.165 1141.68C740.173 1143.83 748.326 1152.05 755.399 1155.91C763.239 1160.2 786.244 1162.55 788.363 1171.22C777.689 1169.93 770.245 1171.79 759.337 1168.17C749.706 1164.99 736.998 1150.65 733.165 1141.68Z"/><path fill="#CDD773" fill-opacity="0.10196079" d="M1144.52 1260.92C1145.81 1261.31 1145.19 1260.95 1146.24 1262.19C1143.24 1268.76 1116.04 1290.48 1107.82 1299.37L1106.39 1298.86C1101.63 1291.29 1137.4 1264.49 1144.52 1260.92Z"/><path fill="#F0F3B8" fill-opacity="0.050980393" d="M1011.89 1479.59C1006.62 1483.35 975.499 1502.88 971.536 1501.42C973.327 1495.69 994.732 1479.74 1000.24 1475.68L1000.73 1479.47C1004.34 1481.63 1006.21 1479.44 1011.89 1479.59Z"/><path fill="#CDD773" fill-opacity="0.10588235" d="M695.959 852.331C697.873 858.066 698.004 858.746 698.949 864.44C699.849 869.863 698.277 886.087 699.812 889.368C701.208 887.341 703.021 884.494 704.568 882.689C704.11 887.038 700.592 907.155 696.474 908.065C695.743 899.974 697.066 886.596 697.13 877.71C697.198 868.052 696.285 861.636 695.959 852.331Z"/><path fill="#F0F3B8" fill-opacity="0.039215688" d="M886.734 974.029L891.261 973.208L891.916 974.175C890.7 976.745 890.02 977.959 889.167 980.699L886.992 983.448C884.129 987.029 880.702 992.226 876.039 992.754L875.454 991.106C878.138 982.232 880.392 980.576 886.734 974.029Z"/><path fill="#CDD773" fill-opacity="0.19607843" d="M886.734 974.029C891.423 969.242 896.895 966.179 902.759 962.983C898.666 969.923 895.157 975.09 889.167 980.699C890.02 977.959 890.7 976.745 891.916 974.175L891.261 973.208L886.734 974.029Z"/><path fill="#C5D437" d="M1076.38 1634.58C1091.5 1626.53 1109.89 1618.15 1124.33 1609.83C1213.27 1558.45 1290.2 1488.65 1349.98 1405.13C1377.11 1366.65 1402.02 1319.67 1424.71 1281.06C1431.5 1269.51 1495.48 1218.6 1508.51 1210.29C1434.07 1405.68 1314.87 1539.44 1122.78 1625.5C1112.41 1630.19 1101.9 1634.58 1091.26 1638.67C1084.53 1638.08 1080.48 1639.52 1073.91 1641.02L1073.04 1639.84C1074.25 1638.05 1075.26 1636.42 1076.38 1634.58Z"/><path fill="#C5D437" d="M1663.11 887.515C1689.3 889.541 1694.39 918.752 1699.4 938.367C1713.33 991.467 1684.31 1026.06 1666.37 1071.67C1654.64 1101.47 1665.03 1148.68 1632.44 1170.43C1619.86 1176.2 1610.24 1174.68 1598.83 1167.44C1602 1153.43 1609.36 1132.57 1609.19 1119.34C1608.65 1077.21 1604.68 1047.92 1626.96 1009.5C1645.46 977.62 1639.19 944.597 1637.32 909.074C1644.22 895.872 1647.42 887.65 1663.11 887.515Z"/><path fill="#C5D437" d="M506.825 486.233C527.92 480.869 547.459 476.329 568.061 469.106C514.192 557.593 468.81 665.178 450.672 767.247C446.705 790.111 443.466 813.095 440.96 836.164C440.195 843.224 438.667 870.899 437.163 874.989C436.576 875.445 435.99 875.901 435.403 876.358C433.524 892.209 435.864 925.048 433.967 939.797C431.627 934.217 428.626 910.519 428.094 903.475C426.111 877.253 426.664 851.287 424.806 824.912C423.652 808.524 426.697 790.694 424.952 773.601C427.171 742.118 433.878 711.45 439.389 680.47C451.612 611.754 476.267 548.727 506.825 486.233Z"/><path fill="#C5D437" d="M1552.14 1206.99L1553.79 1207.13C1568.41 1208.23 1587.92 1199.62 1596.76 1206.18C1599.27 1215.25 1560.49 1288.68 1553.88 1300.4C1520.42 1359.67 1480 1414.75 1433.5 1464.45C1425.12 1473.23 1412.27 1486.67 1402.96 1494.47C1390 1506.96 1377.56 1517.2 1363.82 1528.79L1361.38 1528.05C1359.19 1524.89 1360.09 1525.08 1360.67 1519.98C1381.84 1498.14 1402.1 1475.44 1421.4 1451.94C1426.92 1444.32 1432.58 1436.71 1438.26 1429.19C1460.33 1400.04 1477.13 1366.78 1495.6 1335.3C1509.57 1311.48 1520.62 1286.51 1531.46 1261.18C1539.52 1242.39 1548.1 1227.3 1552.14 1206.99Z"/><path fill="#C5D437" d="M1150.91 1531.28C1220.64 1472.23 1267.02 1419.17 1311.64 1338.66C1313.97 1334.46 1346.13 1326.81 1353.49 1323.86L1359.14 1321.65C1342.17 1347.35 1325.9 1375.74 1307.31 1400.28C1265.7 1455.21 1210.35 1504.96 1151.81 1541.14C1149.04 1540.69 1147.31 1540.52 1144.44 1540.6C1148.36 1536.58 1149.3 1536.91 1150.91 1531.28Z"/><path fill="#C5D437" d="M1242.94 760.817C1250.6 743.279 1311.47 620.735 1319.38 615.646C1328.66 615.931 1340.66 627.295 1349.44 631.913C1340.13 649.075 1326.12 667.832 1315.41 684.661C1295.36 715.583 1276.11 747.017 1257.68 778.931C1254.24 784.765 1215.85 851.58 1218.37 849.647C1214.38 851.073 1213.68 852.032 1210.65 854.998L1208.94 854.539C1205.26 841.567 1246.93 784.087 1242.94 760.817Z"/><path fill="#C5D437" d="M612.627 455.695C634.104 459.652 648.503 459.431 631.381 481.443C604.176 516.416 583.199 556.591 562.569 595.741C546.468 626.296 534.496 660.928 523.353 693.553C522.3 696.707 518.443 710.827 517.3 712.618C515.124 713.68 515.533 714.229 513.004 715.141C511.444 711.894 524.468 663.964 523.099 651.689C527.183 625.665 539.842 600.148 549.061 575.898C561.034 544.401 575.439 516.186 592.717 487.365C598.504 477.714 605.421 464.289 612.627 455.695Z"/><path fill="#C5D437" d="M423.359 511.588C437.759 508.476 446.082 506.879 459.453 501.208L460.504 501.967C455.876 516.213 443.041 537.724 436.38 552.449C407.947 615.306 388.348 672.607 375.868 740.497C371.681 744.109 372.005 748.382 370.507 754.865C369.548 742.01 372.414 729.204 370.974 714.576C379.544 644.925 397.153 576.688 423.359 511.588Z"/><path fill="#C5D437" d="M782.76 1599.55C768.773 1595.65 755.53 1589.46 743.565 1581.23C703.539 1553.68 687.719 1521.07 678.558 1473.74C677.243 1466.95 674.292 1435.91 677.439 1431.39C681.621 1443.07 683.536 1455.4 687.01 1467.29C696.396 1499.42 718.989 1528.28 743.09 1551.21C751.237 1561.94 757.887 1565.06 768.438 1572.22C797.302 1591.8 829.85 1600.01 864.074 1605.67C842.824 1608.74 826.426 1609.53 805.474 1604.38C801.472 1603.4 785.968 1599.6 782.76 1599.55Z"/><path fill="#C5D437" d="M1265.83 582.003C1273.11 585.451 1283.66 591.236 1289.4 596.798C1290.33 603.081 1277.43 616.266 1274.16 622.508C1261.95 645.737 1248.24 667.943 1235.02 690.557C1226.19 705.662 1219.14 722.392 1210.41 737.681L1205.88 739.247L1204.35 738.363C1202.72 733.706 1207.92 723.142 1207.34 714.851C1211.27 703.576 1216.62 692.82 1221.03 681.784C1232.39 653.349 1244.6 625.561 1258.2 598.124C1260.78 592.916 1263.51 587.329 1265.83 582.003Z"/><path fill="#C5D437" d="M649.784 1511.51C651.569 1512.59 660.374 1531.26 662.059 1534.43C681.868 1571.69 715.627 1601.14 753.508 1619.09C761.486 1622.87 772.693 1624.8 780.119 1629.67C765.505 1631.05 745.378 1626.38 731.638 1621.4C687.324 1605.36 651.862 1558.87 649.784 1511.51Z"/><path fill="#C5D437" fill-opacity="0.98039216" d="M1242.94 760.817C1246.93 784.087 1205.26 841.567 1208.94 854.539L1210.65 854.998C1213.68 852.032 1214.38 851.073 1218.37 849.647C1205.26 877.253 1192.22 902.725 1179.21 930.881L1178.46 930.731C1176.66 928.855 1177.31 925.043 1177.28 921.721C1179.12 918.046 1182.15 908.19 1183.51 903.954C1199.38 854.385 1221.16 808.024 1242.94 760.817Z"/><path fill="#CDD773" fill-opacity="0.90196079" d="M437.163 874.989C440.551 911.395 434.958 951.498 442.302 988.396C443.126 992.538 444.555 1002.38 443.896 1006.39L442.842 1005.98C438.419 997.639 436.168 979.183 434.283 969.4C423.664 914.317 419.581 857.445 422.818 801.436C423.236 794.206 423.458 779.849 424.952 773.601C426.697 790.694 423.652 808.524 424.806 824.912C426.664 851.287 426.111 877.253 428.094 903.475C428.626 910.519 431.627 934.217 433.967 939.797C435.864 925.048 433.524 892.209 435.403 876.358C435.99 875.901 436.576 875.445 437.163 874.989Z"/><path fill="#4E4F36" fill-opacity="0.023529412" d="M962.252 1084.94C961.588 1081.11 961.999 1058.68 961.977 1053.43C961.887 1031.84 962.089 1010.71 959.673 989.155C959.26 985.467 957.247 970.409 958.594 968.212C967.34 980.486 972.059 1020.64 973.894 1036.84C971.524 1038.11 971.453 1038.77 969.888 1041.07C967.292 1039.33 967.55 1039.11 965.758 1036.41L964.406 1036.28C961.866 1042.86 965.501 1081.2 962.252 1084.94Z"/><path fill="#F0F3B8" fill-opacity="0.047058824" d="M790.997 953.487C805.804 959.079 835.508 980.225 846.07 993.273C849.904 998.009 852.954 1003.46 855.8 1008.87L849.606 1002.06C837.291 988.46 816.032 977.169 800.187 967.587C795.132 964.531 786.915 961.157 782.944 957.806C784.566 957.732 786.886 957.927 788.569 958.009C791.125 956.385 790.012 957.483 790.997 953.487Z"/><path fill="#F0F3B8" fill-opacity="0.66274512" d="M743.09 1551.21C797.027 1591.41 816.999 1597.59 883.743 1604.35C853.246 1610.23 829.077 1613.41 798.429 1604.98C793.825 1603.72 786.6 1602.08 782.76 1599.55C785.968 1599.6 801.472 1603.4 805.474 1604.38C826.426 1609.53 842.824 1608.74 864.074 1605.67C829.85 1600.01 797.302 1591.8 768.438 1572.22C757.887 1565.06 751.237 1561.94 743.09 1551.21Z"/><path fill="#CDD773" fill-opacity="0.97254902" d="M1207.34 714.851C1207.92 723.142 1202.72 733.706 1204.35 738.363L1205.88 739.247L1210.41 737.681C1199.72 758.704 1189.23 782.752 1178.14 802.948C1180.8 786.964 1201.06 730.301 1207.34 714.851Z"/><path fill="#CDD773" fill-opacity="0.95686275" d="M506.124 728.779C506.988 714.77 518.413 665.991 523.099 651.689C524.468 663.964 511.444 711.894 513.004 715.141C515.533 714.229 515.124 713.68 517.3 712.618C514.66 722.002 510.143 736.587 508.348 745.812L505.896 749.432L505.216 748.995C504.227 743.298 507.027 736.247 506.124 728.779Z"/><path fill="#CDD773" fill-opacity="0.9137255" d="M1319.17 1559.59C1330.47 1547.78 1347.96 1532.68 1360.67 1519.98C1360.09 1525.08 1359.19 1524.89 1361.38 1528.05L1363.82 1528.79C1347 1542.88 1338.32 1549.35 1319.17 1559.59Z"/><path fill="#CDD773" fill-opacity="0.90980393" d="M1076.38 1634.58C1075.26 1636.42 1074.25 1638.05 1073.04 1639.84L1073.91 1641.02C1080.48 1639.52 1084.53 1638.08 1091.26 1638.67C1085.17 1640.87 1053.88 1651.39 1049.33 1651.55L1040.96 1652.47L1040.59 1651.78L1047.3 1647.48C1056.48 1643.08 1066.95 1638.73 1076.38 1634.58Z"/><path fill="#F0F3B8" fill-opacity="0.015686275" d="M1163.07 537.015C1161.77 536.779 1159.83 536.687 1158.45 536.718C1149.44 536.918 1137.76 530.149 1132.61 522.463L1133.53 521.4C1146.53 521.901 1152.58 531.296 1169.86 533.543L1171.27 533.718C1168.43 535.122 1165.21 535.654 1163.07 537.015Z"/><path fill="#CDD773" fill-opacity="0.95686275" d="M1118.96 1553.66C1129.94 1546.42 1139.66 1538.3 1150.91 1531.28C1149.3 1536.91 1148.36 1536.58 1144.44 1540.6C1147.31 1540.52 1149.04 1540.69 1151.81 1541.14C1148.08 1543.46 1127.59 1554.81 1125.93 1556.11C1123.83 1556.14 1122.52 1556.08 1120.42 1555.92L1118.96 1553.66Z"/><path fill="#F0F3B8" fill-opacity="0.086274512" d="M944.089 1359.63C946.914 1364.16 946.957 1363.8 952.31 1363.88C946.252 1368.6 926.735 1384.97 920.838 1386.64C922.125 1382.8 940.372 1363.59 944.089 1359.63Z"/><path fill="#CDD773" fill-opacity="0.90196079" d="M367.971 743.756C367.787 739.173 370.156 719.666 370.974 714.576C372.414 729.204 369.548 742.01 370.507 754.865C372.005 748.382 371.681 744.109 375.868 740.497C374.874 747.514 372.134 761.76 371.815 767.803C370.596 770.3 370.074 771.32 369.276 774.004L368.716 775.928L367.954 775.46C367.429 764.89 369.137 754.306 367.971 743.756Z"/><path fill="#C6CD8A" fill-opacity="0.77254903" d="M1177.28 921.721C1177.31 925.043 1176.66 928.855 1178.46 930.731L1179.21 930.881C1177.71 935.855 1166.02 964.974 1163.32 968.406C1162.43 963.286 1174.78 929.119 1177.28 921.721Z"/><path fill="#CDD773" fill-opacity="0.12156863" d="M1185.38 1157.8L1187.57 1157.8C1189.84 1161.94 1185.98 1160.82 1187.88 1165.63C1189.73 1165.77 1191.4 1165.9 1193.26 1165.94C1184.49 1170.3 1175.6 1176.16 1167.24 1181.39L1165.75 1180.98L1165.46 1181.19C1170.94 1173.03 1183.33 1165.07 1186.06 1159.88L1185.38 1157.8Z"/><path fill="#F0F3B8" fill-opacity="0.64313728" d="M367.041 748.742L367.126 749.818C368.013 762.313 366.58 775.278 367.483 787.854C368.203 785.069 368.529 784.207 370.037 781.762C369.688 786.259 368.435 813.761 367.024 815.913L366.241 814.952C365.45 803.8 364.79 759.248 367.041 748.742Z"/><path fill="#F0F3B8" fill-opacity="0.019607844" d="M958.859 883.122L961.384 883.953C962.688 887.896 962.878 889.882 966.726 892.091C965.515 899.654 964.149 907.268 962.851 914.823C958.584 903.89 960.232 895.473 958.976 884.109L958.859 883.122Z"/><path fill="#C6CD8A" fill-opacity="0.85490197" d="M1092.25 1572.14C1099.11 1565.13 1110.12 1557.81 1118.96 1553.66L1120.42 1555.92C1122.52 1556.08 1123.83 1556.14 1125.93 1556.11C1114.87 1561.8 1103.64 1567.14 1092.25 1572.14Z"/><path fill="#C6CD8A" fill-opacity="0.65882355" d="M1049.33 1651.55C1045.43 1653.82 1022.67 1661.55 1017.9 1660.39C1020.12 1656.08 1042.04 1648.96 1047.3 1647.48L1040.59 1651.78L1040.96 1652.47L1049.33 1651.55Z"/><path fill="#C6CD8A" fill-opacity="0.72941178" d="M506.124 728.779C507.027 736.247 504.227 743.298 505.216 748.995L505.896 749.432L508.348 745.812C507.53 752.608 505.44 760.307 503.803 767.033C501.149 763.036 502.069 762.338 502.129 756.897C501.431 751.333 504.704 734.432 506.124 728.779Z"/><path fill="#F0F3B8" fill-opacity="0.58039218" d="M502.129 756.897C502.069 762.338 501.149 763.036 503.803 767.033C503.958 771.915 501.321 783.591 499.477 788.065L499.561 788.083L498.175 787.929C498.051 781.811 500.086 762.544 502.129 756.897Z"/><path fill="#CDD773" fill-opacity="0.22745098" d="M1097.95 822.14C1095.82 825.597 1091.24 831.294 1086.95 831.719L1086.33 830.035C1088.41 824.5 1093.38 820.964 1097.9 816.896C1097.88 818.495 1097.76 820.607 1097.95 822.14Z"/><path fill="#C6CD8A" fill-opacity="0.76862746" d="M367.971 743.756C369.137 754.306 367.429 764.89 367.954 775.46L368.716 775.928L369.276 774.004C370.074 771.32 370.596 770.3 371.815 767.803C371.35 772.955 370.895 776.635 370.037 781.762C368.529 784.207 368.203 785.069 367.483 787.854C366.58 775.278 368.013 762.313 367.126 749.818L367.041 748.742L367.971 743.756Z"/></svg>