<?xml version="1.0" encoding="UTF-8"?>
<svg id="_레이어_1" data-name="레이어_1" xmlns="http://www.w3.org/2000/svg" version="1.1" xmlns:xlink="http://www.w3.org/1999/xlink" viewBox="0 0 1024 703.1">
  <!-- Generator: Adobe Illustrator 29.3.1, SVG Export Plug-In . SVG Version: 2.1.0 Build 151)  -->
  <defs>
    <style>
      .st0 {
        fill: url(#_무제_그라디언트);
      }

      .st1 {
        fill-opacity: 0;
      }

      .st1, .st2 {
        fill: #fdf9f7;
      }

      .st3 {
        fill-opacity: 0;
      }

      .st3, .st4, .st5, .st6 {
        fill: #fdfebb;
      }

      .st4 {
        fill-opacity: 0;
      }

      .st7 {
        fill: url(#_무제_그라디언트_2);
      }

      .st8 {
        fill: #d6de5a;
      }

      .st2 {
        fill-opacity: .8;
      }

      .st5 {
        fill-opacity: 0;
      }

      .st9 {
        fill: #ddd93c;
      }

      .st6 {
        fill-opacity: .2;
      }
    </style>
    <linearGradient id="_무제_그라디언트" data-name="무제 그라디언트" x1="89.1" y1="401" x2="88.7" y2="402.3" gradientTransform="translate(0 721) scale(1 -1)" gradientUnits="userSpaceOnUse">
      <stop offset="0" stop-color="#fefaf8" stop-opacity="0"/>
      <stop offset="1" stop-color="#fefaf9" stop-opacity="0"/>
    </linearGradient>
    <linearGradient id="_무제_그라디언트_2" data-name="무제 그라디언트 2" x1="229.1" y1="226.5" x2="229.2" y2="228.2" gradientTransform="translate(0 721) scale(1 -1)" gradientUnits="userSpaceOnUse">
      <stop offset="0" stop-color="#000001" stop-opacity="0"/>
      <stop offset="1" stop-color="#020002" stop-opacity="0"/>
    </linearGradient>
  </defs>
  <path class="st8" d="M405.7,211.2c12.3-5.1,13.7-6.3,15.2-19.8,6-54.9,87.3-35.3,73.8,14.8-4.2,15.6-8.5,10.8-5.9,31l-7.2-.3c-15.7,29.9-14,20.7-36,9l-.9-.5c-6.5,4.2-14.4,10.5-20.5,15.3,6.1-2.8,11.3-4.4,17.6-.3,16.1,10.4,13.7,33.9,28.9,44.4,11.2,7.7,13.6,15.6,16.4,28.2,12.3-15.7,25.7-22,38.9-36.1,2.2-2.6,5.7-7,6.1-10.3,1-7.8-7.3-34-2-39.9h1c3.5,3.1,5.4,10.2,7.9,14.8l.3.5c9.3-8.6,7.1-32.6,19-26.9-1.4,4.6-2.5,7.7-3,12.4,1-2.2,2.5-6,3.1-8.3,1-2.4,1.9-4.7,3.2-7,6.4,6.4,10.7,9.9,9.3,19.7l.4.2,2.3-3.3c1.1,5.8-7,28.3-11.1,33.6-11.4,14.7-22.6,29.7-31.2,45.9-6.7,12.5-26.3,35.6-39,40.9-13.9,5.7-71.3-44.6-67.2-56.3,2.1-2.5,6.2-3.3,9.9-5.3-3.2.7-6.9,1.4-10.1,2.2,3.1-6.2,6.2-12.5,9.2-18.7-3.6,5.4-7.6,8.7-11.5,13.7-6.5,6.1-14.1,14.4-21.2,19.3-6,4.1-13.6,6.5-19.8,11.1-13.2,9.7-25.8,20-39.1,29.5-6.3,4.4-14.2,16.8-21.1,19.1-7.8-3.8-17.6-6.9-25.9-10.8,5.2,4,16.3,12,22,14.4,4.5,3.8,10.9,6.5,16,9.5,9.7,5.6,19.4,11.6,28.4,18.3,14.3,10.8,40.7,37.9,49.6,52.7,2.9,4.8,5.1,10,5.8,15.6,1.1,8.9-1.9,17.3-8.2,23.6-11.5,11.4-29.8,16.7-44.6,22.5-20,7.8-86.7,31-98.1,46.4-8.1,10.9-7.6,33.9-3.7,46.4,1.7,5.3,5.4,10.1,6.1,15.7.2,2,0,4.2-1.4,5.7-1.3,1.3-3.2,1.8-5,1.8-5.9,0-11.9-4.9-16.1-8.8-4.8-4.5-9.3-9.6-12.5-15.3-4.2-7.5-4.6-16.9-8.1-24.8-4.2-9.8-15.2-17.1-15.2-28.6,0-5.4,2.5-9.2,7.1-12,7.5-4.5,17.3-4.3,25.5-7,18.7-6.1,37.8-18.8,52.3-32,4.7-4.2,8.8-9,13.2-13.5,15.1-15.5,35.7-17.5,56.2-17.8-25.3-9.6-51-14.8-75.7-25.5-9.7-4-18.3-9.9-27.2-15.3-26.4-15.9-39.2-27.8-40-59.4-8,30.8,7.1,47.5,30.9,64.9,2.7,2,5.7,4.2,8.3,6.4l.5.4c-12.3,14.9-30.3,29.6-45.1,42.1-6,5-13.7,9.8-19.9,15.1-5.7,4.9-10.7,13-16.1,17.3-5.7,4.5-15.9,8.6-22.7,12.3-18.8,10.1-35.7,24-52.4,37.2-15.5,12.3-34.2,26.9-47.1,41.7-12.2,14-28.7,42.2-34.1,60.2-.1-.3.7,1.8.6,1.5,1.2,4.7,10.3,10,7.5,15.3-2.9,5.6-13.6,3.7-17.8,1.5-7.2-3.7-11-11.5-13.1-18.9-3.7-12.9,1.3-26.3,1.4-39.4.1-9.5-4.1-24,.7-32.3,4.8-8.3,21-6,29.2-8.2,5.8-1.6,9.6-6.3,14.1-10.1,8.1-7.6,18.1-17.2,24.2-26.3,9.1-13.6,15.7-30,28.3-41.2,8-7.1,19.3-12.1,28.7-16.9,5.7-3.3,16.3-6.6,20.4-11.7,10.8-13.5,17.8-30.6,27.5-44.9,6.9-10.2,15.2-18.6,22.1-28.7,6.4-9.3,6.1-20.8,8.6-31.4,4.3-19.8,17.2-33.5,33.6-44.6,9.3-6.3,18.6-13.6,26.5-21.8,12.2-12.7,21.7-27.8,29.7-43.4,3.7-7.8,6.7-15.9,10.6-23.7,3.5-7,7.4-13.8,11.3-20.6,4.3,1.3,8.2,2.5,12.5,4,2.2,12.5,4.2,26.8,10.3,37.8-.5-7.5-1.6-27.1-.4-34,1.7-.8,1.6.9,4.6,1.3-.2-4-19.6-28.6-23.1-32.9,2.2,5.7,4.5,11.3,7,16.8-14.9-4.8-37.4-15-48.3-26.2-3.4-3.6-5.9-7.9-8.4-12.1-6.2,2.4-13.4,7.2-20.4,9.1-19.7,5.3-50.2,6.6-66.4,19.5-4,3.2-14.1,29.7-18.7,35.3-9.7-.3-1.6-16.6,1.2-20.7-4.6,1-8,2.5-12.3,4.3-4.3,1.8-22.5,18.1-26.2,12.1,0-2.2.7-3.3,1.7-5.4,4.6-3.2,15-10.3,18.9-14-7.4,4-13.9,9.2-21.3,13.5-2.1.9-2.7,1.2-4.9,1.5-1.9-.7-1.1-.2-2.4-1.8-.8-6.6,15.1-14,16.9-17.1-4.7,1-13.8,11.4-18.5,8.8-1.4-5.1,7.7-12.2,11.7-14.7l3.2-2.1-.2-.5c-2.3.7-7.7,2.4-9.3.2,1.6-4.3,26.6-15.8,31.1-16.5,22-3.3,36.8-14.2,56.2-24.2,14.5-7.5,32.7-13.1,48.4-18.1,10.6-4,18.3,1.8,27.9,4.1,18.9,4.5,34.4,11.1,51.3,20.9-5.1.7-7.8,1.9-12.7,3.8,40.9-.9,51.3.5,68.7,39.3-.9-4.3-4-19.2-2.2-22.3,2.1.2,8.5,3.5,11.7,4.6Z"/>
  <path class="st8" d="M631.1,303c18,3.2,39.8,10.2,48.5,28-52.5,31.3-45.6,77.3-84.3,118-15.9,16.7-30.7,24.5-50.3,35,38.4-4,57.6-20,83-47.1,1.3,6,2.5,12,2.2,18.2-.7,13.7-13,50.4-17.9,64.7h240.6c-2.7,13.3-9.2,32.7-13,46.4-4.7,17-10,33-14.3,50.3-34.4,0-68.8,0-103.1.5-83.2.3-166.4.1-249.6-.4,4.6-16.3,9.4-32.2,14.7-49.4,8.1-26.3,15.2-59,26.4-84.1,5.4-7.8,17.9-13.7,25-19,56.2-42.3,80.4-93,92.1-160.8Z"/>
  <path class="st8" d="M220.1,111.1c13.1-.4,27.8,0,41-1l82.3,1.1h60.5c25.7-.1,50.4-.3,75.7,4.9,22.5,4.8,43.8,14.1,62.6,27.3,34,24.2,56.9,60.9,63.8,102.1,13.6,78.6-21.7,163.1-89.7,205.4-27.4,17.1-50.5,28.3-82.6,33.8-2-6.1-5-15.5-8.3-20.8-16.8-27.4-44.1-54-70.6-71.6,25,2.4,49.9-2,73.7-9.6,10.8-4.2,19.3-7.4,29.7-12.7,26.4,21.6,41.3,19.5,63.8-5.2,9.6-10.5,18.2-21.9,25.6-34.1,3.8-6.3,7.2-13.2,10.9-19.4,3.7-5.4,8.1-9.8,12.2-15.1,15.3-19.8,26.4-51.1,5-70.9-4.3-4-11-7.8-17.2-7.2-10.3,1-16.3,7.2-22.7,14.5-6.1.1-12.1-.2-16.8,4.8-6.3,6.8-6.6,24.3-5,33,2.9,15,3.6,14.4-8.4,26.2,0-10.8,0-21.4-1.2-32.1-.4-3.3-3.5-13.6-3.2-16,.9-6.7,1.7-19.1,3.3-25.3,2.1-6.5,4.3-12.4,5.7-19.1,8.9-42.7-47.3-77.9-82-51.9-15,11.2-20.5,24.6-23.3,42.5-16.8-3.2-22.5-12.1-35-15.5-17.7-4.9-27.3-8.3-44.2-16.7-12.8-6.3-32.6-9.9-46-15.4-11.9-4.9-23.9.5-35.2,4.2-14.3,4.5-27.6,9.5-40.9,16.6,4.9-19.3,11.1-37.7,16.4-56.9Z"/>
  <path class="st8" d="M760.4,128c5.5-6.8,27.3-19.9,35-14.9,2.8,5.4-4.3,12.7-7.9,16.3-7.8,7.7-7.4,12.2,3.6,15.7,2.7.8,6.3,1.2,9,2,11.3,3.2,16.5,13.4,21.2,23,.3-6,.6-11.7.6-17.7,9.7-.2,22.5-.5,32.1.1-.4,4.4-.7,8.2-1.9,12.4-2.2,8.4-7,15.3-6.1,24.2,2.1,19.9,9.3,38.7,14.9,57.7,10.3,34.6,20.5,70.9,19.4,107.3-.3,10.3-2.8,19.3-3.5,28.7-.9,11.3,4.2,26.7-7.6,34.8-28.8,19.6-84.3,34.7-117.7,38.3-13.5,1.4-27.2,1.4-40.7,0-19.2-2-41-8.2-56-20.9,9.3-21.9,17-23.5,40-21.2,31.7,3.2,52.6-.8,75.1-23.3-36.3,16.9-81.2,14.5-110.2-15.3,7.9-19.7,20.3-34.3,40-43,16.7-7.3,35.9-8,52.9-1.4,13.5,5.3,22.1,14.3,31.8,24.6,3,3.2,8.2,8.3,12,10.5.5.7,6.5,5.1,7.6,5.9-2.2-2.7-3.9-5.1-5.9-8-21.2-46.1-5.7-65,4.2-110.4,3.6-16.3-1-42.8-4.5-59.2-5.3-21.3-37.9-21.7-38.1-50.1,0-6.1-.6-9.3.6-16Z"/>
  <path class="st8" d="M270.8,471.5l.4.5c.6,6.6-10.4,49.8-16,54.4-17.9,14.5-51.6,8-59,36.1-4,15,7.1,25.5,14,37.4,4.4,5,6.3,17.7,9.4,22.3,9.6,14.5,4.5,21.6.7,37.8-3.2,13.5-8,28.3-11.5,42l-83.9,1.1h-31.7c3.6-16.6,7.9-32.3,11.9-48.3l17.3-68.8c2.9-2.5,8-5.8,11.3-8.3,7.7-5.9,14.6-11.7,23-16.6,10.4-6,22.2-10.8,32-17.5,6.7-4.3,11.7-14.2,17.8-18.6,23.1-16.5,42.9-35.2,64.2-53.6Z"/>
  <path class="st8" d="M624,111.1c12.4-.3,26,0,38.5,0,33.7.2,67.5.3,101.2,0-13.3,10-15.9,12.4-12.3,29.7-8.1.4-17,.3-25.1.3-11.1,34.1-22.6,73.4-32.5,108.1-5.5,16.7-10,33.8-15.6,50.6-17-11.9-25.9-14.8-46.1-19.7-1.7-31.1-5.5-57.9-18.2-86.7-2.9-6.6-6.8-12-9.5-18l-.2-.5c7.6-21.1,13.1-42.5,19.9-63.8Z"/>
  <path class="st8" d="M887,4.8c6.1-.5,25.5-2.5,26.7,5.8,1.4,9.4,1,19.8,1,29.4l1.1,45.9v94.8c0,17.8,0,35.6-.2,53.4,0,2.2-.2,10.2-1.6,11.9-2.3,2.6-6.9,3.9-10.2,4-7.4.2-23.3,1.7-24.4-8.6-1.1-10.7-.8-22.4-.8-33.2v-67.6h-10.1s-34.2,1.8-51.2.7c-5.5-.3-17.2.6-20.3-4.3-.9-6.3,10.9-12,6.3-25.6-5.2-15.3-20.6-6.7-30.9-3.1-4.4-19.1,3.8-17.5,17.1-17.6,2.7,0,9.5-5,13.3-4.4,2.8-.1,6.1,3.6,8.6,3.9,10.2,1,22,2.3,31.8,4,3.6.6,8,13,9.7,16.9,8.5-.2,17.5,0,26,0-.6-21.2,0-43.3-.2-64.6,0-7.5-.4-30.4.9-36.4,2.5-3.2,3.7-4,7.5-5.5Z"/>
  <path class="st8" d="M934.3,24.5c6.3-.1,14.9-1,20.7,1.4,3,1.2,4.4,5.9,4.4,9,.2,9.3.1,18.6.1,27.8l1.1,52.3v69.5c0,13.5,1.5,28.9-1,42.3-.6,3-3.8,4.4-6.4,5.6-4.7.7-22.7,1.5-24-3-3.5-11.9-2.4-34.2-2.4-46.4v-52.2c0-30.6,0-61.3,0-91.9,0-6.9.6-11.4,7.5-14.3Z"/>
  <path class="st8" d="M983.2,50.7c4.5-.2,15.4.2,15.9,5.9,1.5,17.6.8,37.1.8,54.7v53c0,9.8,0,19.6-.2,29.4-.2,7.4-2.7,9-9.6,10.3-13.3.4-17.9.8-18-14.1-.3-41.9-.1-83.8,0-125.7,0-9.9,1.3-12.1,11.1-13.5Z"/>
  <path class="st8" d="M225.9,337.6c-16.7,14.6-30.4,30.3-34.2,53-.9,5.6-1.4,15.7-4.1,20.2-4.4,7.5-11.6,14.3-16.7,21.6-8.1,11.5-15.3,23.4-22.6,35.4-1.5-2.1-1-3.2-1.3-6.2,1.1-7.9,5.5-24.5,7.5-32.8,4.8-20.2,9.4-40.3,13.9-60.5-9.9.8-20.8,2.1-30.6,3.4-24.2,3.2-50.4,3.9-74.4,8.1,5-2.5,10.4-3.3,15.7-4.9,45.6-13.1,91.6-25.9,138.1-35.5,2.9-.6,5.9-1.1,8.8-1.7Z"/>
  <path class="st8" d="M276.7,280.1c1.3-.2.9-.2,2.2,0,.4,5.1-16,27.8-20.8,31.3-23.4,3.2-47.7,4-71.3,6.6-33.5,3.7-67,7.1-100.5,11.2-13.4,1.6-27.2,2.9-40.5,5-1.9.5-2,.6-4,.5,1.8-1.8,32.5-9.4,37.5-10.7,48.8-13.2,97.7-25.3,147.4-34.4,16.7-3.1,33.2-6.9,50-9.4Z"/>
  <path class="st8" d="M297,241.3c.4,3.2-6.1,15.1-7.9,18.3-11.6,1.9-32.2,3.1-44.1,4-17.2,1.3-37.2,3.2-54.3,3.8v-.4c1.7-.9,17.1-4.5,19.8-5.3,28.7-7.5,57.5-14.3,86.5-20.5Z"/>
  <path class="st8" d="M1009.8,110.6c4.6,0,9.4,0,14,.6.5,9.4.2,20,0,29.4-4.1.2-9.8,0-14,0-.2-9.8,0-20.2,0-30.1Z"/>
  <path class="st6" d="M295.4,373.1c8.3,3.8,18.1,7,25.9,10.8l-3.9,3.6c-5.8-2.4-16.8-10.5-22-14.4Z"/>
  <path class="st2" d="M96.4,316.2l.5.7c-1.3.8-16.9,4.7-20.1,5.8-3.9.4-16.6,4.8-22,5.7v-.5c3.6-2.2,35.3-10.2,41.6-11.7Z"/>
  <path class="st3" d="M434,291.2c-3,6.3-6.1,12.5-9.2,18.7-.9-.6-1.1-.8-1.9-1.6,0-1.5,0-2.1-.4-3.5,3.9-5,7.8-8.3,11.5-13.7Z"/>
  <path class="st1" d="M98.4,366.5c1.4.1,2.7.3,4.1.4-3.1,1.5-12.1,3.7-16.1,5-1.6.4-1.5.3-3.1.4v-.8c4.4-3.2,9.7-5.1,15.1-4.9Z"/>
  <path class="st0" d="M96.4,316.2c1.6-.5,2.2-.4,3.9-.4l.8.6c-1.7,2.2-21.7,7-24.3,6.4,3.2-1.1,18.7-5,20.1-5.8l-.5-.7Z"/>
  <path class="st8" d="M265.5,211.7c2.2.5,3.5,1.8,5.4,3.2-4.5.4-8.7.5-13.2.6-1.9.3-1.5.5-3.2,0,1.7-1.6,8.5-3.1,11-3.8Z"/>
  <path class="st5" d="M150.2,232.1c-3.9,3.6-14.2,10.8-18.9,14-.4-.2-2-.4-2.4-.5,7.4-4.3,13.9-9.5,21.3-13.5Z"/>
  <path class="st9" d="M143.2,476.8c1.4-5,2.6-10.1,3.8-15.2.4,3-.1,4.2,1.3,6.2-1.5,3.1-3.4,6.1-5.1,9Z"/>
  <path class="st3" d="M796.5,366l-.5-2.1.5-.6,1.7.5c2,2.9,3.7,5.3,5.9,8-1-.8-7-5.2-7.6-5.9Z"/>
  <path class="st4" d="M558.3,235.4v4.1c-.5,2.3-1.9,6.1-3,8.3.5-4.8,1.6-7.9,3-12.4Z"/>
  <path class="st7" d="M229,492.5c.8.6,1.5,1.1,2.3,1.7l-1.2.6-2.9-.9-.2-.5,2-1Z"/>
</svg>