<?xml version="1.0" encoding="utf-8" ?><svg xmlns="http://www.w3.org/2000/svg" xmlns:xlink="http://www.w3.org/1999/xlink" width="1024" height="1024" viewBox="0 0 1024 1024"><path fill="#D6DE5A" d="M418.951 377.895C430.169 373.225 431.482 372.106 432.857 359.783C438.335 309.481 512.769 327.428 500.403 373.305C496.549 387.605 492.655 383.197 495.006 401.695L488.387 401.407C474.005 428.799 475.588 420.389 455.389 409.67L454.574 409.243C448.595 413.074 441.392 418.824 435.832 423.234C441.462 420.707 446.205 419.22 451.92 422.922C466.629 432.448 464.437 454.006 478.411 463.601C488.664 470.641 490.849 477.842 493.389 489.436C504.612 475.098 516.909 469.252 529.03 456.365C531.009 453.986 534.222 449.931 534.602 446.904C535.499 439.764 527.959 415.812 532.788 410.34L533.747 410.335C536.983 413.176 538.682 419.674 540.96 423.878L541.223 424.354C549.749 416.503 547.723 394.498 558.642 399.715C557.356 403.918 556.368 406.721 555.931 411.107C556.864 409.116 558.192 405.629 558.75 403.505C559.69 401.305 560.524 399.202 561.693 397.111C567.539 402.943 571.502 406.156 570.242 415.11L570.576 415.287L572.67 412.23C573.665 417.498 566.247 438.109 562.501 442.971C552.096 456.472 541.844 470.128 533.937 484.986C527.843 496.437 509.876 517.616 498.193 522.427C485.454 527.672 432.914 481.607 436.676 470.846C438.643 468.528 442.383 467.868 445.695 465.971C442.729 466.621 439.365 467.279 436.458 468.03C439.29 462.326 442.09 456.608 444.86 450.874C441.52 455.828 437.93 458.841 434.335 463.402C428.379 469.003 421.439 476.557 414.9 481.049C409.42 484.813 402.486 487.023 396.759 491.227C384.698 500.079 373.126 509.496 360.965 518.215C355.241 522.285 347.94 533.59 341.652 535.737C334.55 532.257 325.531 529.374 317.941 525.853C322.693 529.471 332.823 536.802 338.119 539.043C342.262 542.514 348.063 545.02 352.768 547.745C361.617 552.87 370.574 558.331 378.73 564.497C391.799 574.376 416.024 599.201 424.169 612.73C426.805 617.109 428.812 621.918 429.447 627.019C430.461 635.161 427.716 642.841 421.932 648.602C411.421 659.074 394.637 663.919 381.059 669.177C362.706 676.283 301.7 697.548 291.235 711.651C283.8 721.672 284.259 742.655 287.887 754.096C289.424 758.947 292.874 763.388 293.472 768.507C293.683 770.306 293.544 772.319 292.227 773.706C291.068 774.927 289.277 775.34 287.651 775.341C282.206 775.344 276.744 770.86 272.951 767.282C268.592 763.17 264.442 758.506 261.494 753.259C257.611 746.35 257.25 737.83 254.118 730.54C250.243 721.523 240.242 714.844 240.189 704.346C240.165 699.433 242.52 695.902 246.678 693.377C253.531 689.216 262.509 689.409 270.033 686.936C287.163 681.306 304.634 669.761 317.95 657.633C322.212 653.752 325.998 649.399 330.012 645.272C343.819 631.074 362.71 629.219 381.502 628.928C358.316 620.165 334.806 615.387 312.188 605.6C303.332 601.893 295.395 596.498 287.275 591.609C263.105 577.06 251.377 566.175 250.666 537.203C243.345 565.429 257.186 580.663 278.965 596.591C281.469 598.422 284.205 600.462 286.572 602.469L287.005 602.841C275.736 616.493 259.299 629.922 245.674 641.363C240.17 645.986 233.129 650.339 227.436 655.219C222.233 659.678 217.611 667.143 212.653 671.028C207.412 675.135 198.093 678.947 191.911 682.281C174.723 691.552 159.221 704.233 143.945 716.329C129.772 727.551 112.654 740.971 100.842 754.497C89.6335 767.333 74.6008 793.182 69.5737 809.577C69.4752 809.342 70.2284 811.25 70.1392 810.922C71.2016 815.207 79.5414 820.081 76.9961 824.908C74.3001 830.022 64.5871 828.311 60.6719 826.28C54.0729 822.857 50.6396 815.76 48.6905 809.019C45.2747 797.207 49.9185 784.895 49.9354 772.967C50.061 764.278 46.1893 750.982 50.5627 743.355C54.9445 735.714 69.7761 737.906 77.2725 735.83C82.5816 734.36 86.102 730.099 90.2113 726.624C97.6024 719.685 106.787 710.878 112.377 702.538C120.751 690.043 126.744 675.067 138.296 664.851C145.642 658.355 155.94 653.805 164.574 649.384C169.826 646.396 179.51 643.31 183.245 638.642C193.169 626.238 199.521 610.657 208.448 597.495C214.798 588.132 222.362 580.446 228.726 571.245C234.589 562.769 234.282 552.162 236.586 542.513C240.516 524.356 252.308 511.814 267.311 501.664C275.838 495.895 284.372 489.215 291.574 481.713C302.713 470.109 311.486 456.282 318.766 441.978C322.155 434.831 324.942 427.406 328.444 420.312C331.614 413.892 335.265 407.683 338.814 401.469C342.792 402.661 346.349 403.74 350.241 405.174C352.229 416.584 354.075 429.671 359.664 439.802C359.166 432.97 358.223 414.943 359.259 408.646C360.812 407.887 360.688 409.485 363.501 409.852C363.343 406.159 345.563 383.698 342.354 379.734C344.347 384.911 346.47 390.037 348.721 395.108C335.051 390.758 314.464 381.369 304.529 371.073C301.391 367.82 299.129 363.864 296.879 359.964C291.199 362.135 284.598 366.545 278.158 368.263C260.078 373.101 232.155 374.262 217.386 386.147C213.735 389.085 204.509 413.364 200.258 418.434C191.372 418.135 198.803 403.22 201.339 399.437C197.17 400.346 193.977 401.722 190.107 403.378C186.197 405.051 169.538 419.953 166.135 414.498C166.099 412.464 166.796 411.487 167.693 409.578C171.94 406.653 181.444 400.102 184.978 396.773C178.162 400.398 172.238 405.163 165.48 409.111C163.533 409.933 163.039 410.233 160.99 410.506C159.241 409.831 159.984 410.343 158.748 408.816C157.985 402.735 172.595 396.006 174.226 393.197C169.9 394.143 161.587 403.613 157.307 401.267C155.988 396.594 164.349 390.125 168.006 387.797L170.939 385.912L170.765 385.432C168.699 386.117 163.701 387.619 162.22 385.643C163.661 381.67 186.565 371.198 190.667 370.575C210.785 367.518 224.38 357.601 242.155 348.374C255.412 341.493 272.119 336.41 286.466 331.78C296.215 328.112 303.215 333.469 311.972 335.533C329.283 339.614 343.514 345.66 358.958 354.646C354.244 355.254 351.805 356.376 347.373 358.088C384.784 357.256 394.379 358.537 410.254 394.114C409.436 390.204 406.555 376.574 408.256 373.681C410.198 373.906 416.068 376.87 418.951 377.895Z"/><path fill="#D6DE5A" d="M625.308 461.135C641.745 464.051 661.741 470.476 669.716 486.728C621.638 515.383 627.987 557.481 592.543 594.764C577.975 610.088 564.45 617.2 546.509 626.792C581.624 623.123 599.226 608.52 622.498 583.633C623.687 589.168 624.818 594.61 624.539 600.306C623.926 612.811 612.603 646.41 608.12 659.513L828.463 659.534C826.002 671.716 820.075 689.429 816.596 701.953C812.273 717.501 807.483 732.138 803.532 748.012C772.051 747.943 740.57 748.084 709.09 748.436C632.901 748.706 556.71 748.571 480.521 748.03C484.702 733.091 489.117 718.573 493.95 702.815C501.347 678.7 507.876 648.76 518.102 625.785C523.021 618.612 534.484 613.253 540.991 608.357C592.454 569.634 614.636 523.24 625.308 461.135Z"/><path fill="#D6DE5A" d="M248.987 285.923C260.946 285.6 274.439 285.888 286.488 285.884L361.87 285.899L417.266 285.89C440.793 285.9 463.379 285.709 486.596 290.53C507.191 294.913 526.688 303.416 543.912 315.527C575.04 337.675 596.056 371.317 602.308 409.006C614.734 480.954 582.441 558.301 520.176 597.073C495.082 612.699 473.937 622.977 444.553 627.992C442.701 622.391 439.979 613.841 436.975 608.961C421.552 583.9 396.577 559.502 372.315 543.411C395.243 545.625 418.023 541.597 439.765 534.644C449.647 530.771 457.462 527.871 466.923 522.978C491.07 542.8 504.763 540.826 525.369 518.228C534.2 508.631 542.055 498.18 548.819 487.029C552.266 481.263 555.395 474.956 558.81 469.257C562.223 464.276 566.25 460.242 569.96 455.422C583.93 437.266 594.138 408.668 574.569 390.494C570.599 386.807 564.496 383.325 558.83 383.895C549.421 384.842 543.936 390.456 538.027 397.214C532.453 397.321 526.939 397.027 522.641 401.621C516.851 407.833 516.574 423.902 518.09 431.882C520.704 445.639 521.423 445.067 510.44 455.829C510.519 445.95 510.396 436.266 509.336 426.406C509.012 423.391 506.104 413.931 506.39 411.761C507.199 405.613 507.932 394.25 509.457 388.559C511.398 382.65 513.434 377.192 514.713 371.073C522.885 331.964 471.424 299.784 439.593 323.532C425.876 333.765 420.864 346.079 418.267 362.448C402.876 359.542 397.622 351.367 386.21 348.235C369.967 343.777 361.251 340.677 345.749 332.976C334.072 327.175 315.939 323.943 303.611 318.91C292.696 314.455 281.685 319.395 271.368 322.767C258.245 326.896 246.126 331.495 233.961 337.982C238.459 320.348 244.122 303.431 248.987 285.923Z"/><path fill="#D6DE5A" d="M743.66 301.426C748.666 295.176 768.627 283.211 775.702 287.78C778.284 292.724 771.762 299.421 768.455 302.669C761.297 309.7 761.694 313.872 771.784 317.015C774.251 317.773 777.54 318.093 780.05 318.802C790.382 321.721 795.114 331.095 799.484 339.873C799.751 334.385 800.011 329.133 800.046 323.633C808.964 323.464 820.654 323.137 829.415 323.758C829.015 327.796 828.729 331.227 827.675 335.148C825.617 342.8 821.242 349.13 822.128 357.337C824.092 375.534 830.662 392.786 835.806 410.132C845.206 441.835 854.583 475.064 853.538 508.408C853.243 517.833 851.009 526.107 850.333 534.692C849.517 545.047 854.193 559.171 843.36 566.553C817.004 584.51 766.199 598.29 735.617 601.607C723.228 602.879 710.743 602.888 698.353 601.634C680.733 599.764 660.81 594.161 647.039 582.536C655.581 562.49 662.59 560.973 683.622 563.117C712.602 566.072 731.771 562.371 752.362 541.76C719.092 557.241 678.053 555.039 651.505 527.767C658.71 509.703 670.084 496.338 688.155 488.423C703.451 481.723 721.033 481.054 736.631 487.175C748.997 492.028 756.835 500.285 765.766 509.696C768.551 512.631 773.28 517.262 776.745 519.33C777.223 519.941 782.717 523.976 783.669 524.687C781.622 522.179 780.096 519.978 778.258 517.322C758.806 475.084 773.049 457.767 782.113 416.23C785.365 401.322 781.173 377.071 777.993 361.979C773.118 342.467 743.304 342.154 743.073 316.119C743.024 310.523 742.517 307.595 743.66 301.426Z"/><path fill="#D6DE5A" d="M295.348 615.921L295.749 616.335C296.292 622.392 286.259 661.972 281.141 666.122C264.766 679.4 233.923 673.447 227.104 699.222C223.474 712.94 233.648 722.601 239.911 733.478C243.947 738.068 245.718 749.713 248.508 753.933C257.288 767.207 252.615 773.7 249.14 788.53C246.243 800.89 241.837 814.457 238.593 827.472L161.75 827.458L132.698 827.527C136.027 812.771 139.934 798.463 143.632 783.809L159.491 720.854C162.152 718.526 166.833 715.58 169.864 713.242C176.871 707.823 183.22 702.528 190.953 698.085C200.448 692.631 211.295 688.239 220.244 682.016C226.353 678.051 230.919 669.057 236.563 665.027C257.692 649.943 275.827 632.812 295.348 615.921Z"/><path fill="#D6DE5A" d="M618.768 285.963C630.084 285.665 642.588 285.916 653.983 285.921C684.872 286.135 715.762 286.155 746.651 285.981C734.465 295.152 732.132 297.316 735.355 313.145C727.925 313.496 719.824 313.396 712.338 313.438C702.2 344.655 691.607 380.664 682.554 412.373C677.512 427.69 673.364 443.348 668.265 458.737C652.696 447.875 644.587 445.215 626.078 440.678C624.547 412.207 621.082 387.65 609.43 361.281C606.771 355.265 603.19 350.276 600.708 344.807L600.513 344.367C607.427 325.047 612.512 305.461 618.768 285.963Z"/><path fill="#D6DE5A" d="M859.617 188.651C865.196 188.15 883.007 186.37 884.108 193.991C885.357 202.64 885.013 212.1 885.016 220.881L885.012 262.929L884.992 350.125C884.989 366.401 885.065 382.75 884.837 399.022C884.808 401.057 884.625 408.38 883.399 409.889C881.385 412.247 877.263 413.483 874.304 413.575C867.721 413.781 853.564 415.107 852.593 405.711C851.58 395.898 851.922 385.209 851.917 375.29L851.9 313.434L842.784 313.468C827.173 313.397 811.475 314.662 795.862 313.681C790.845 313.366 780.13 314.238 777.276 309.705C776.473 303.971 787.27 298.732 783.028 286.268C778.265 272.272 764.137 280.129 754.703 283.471C750.675 265.98 758.164 267.464 770.331 267.382C772.773 267.366 779.072 262.822 782.497 263.375C785.083 263.259 788.053 266.684 790.383 266.918C799.684 267.853 810.486 269.013 819.499 270.602C822.778 271.18 826.792 282.473 828.339 286.042C836.09 285.82 844.336 286 852.126 286.047C851.616 266.656 852.085 246.395 851.899 226.941C851.833 220.066 851.554 199.118 852.757 193.657C855.091 190.719 856.135 189.975 859.617 188.651Z"/><path fill="#D6DE5A" d="M902.888 206.572C908.632 206.435 916.516 205.672 921.887 207.828C924.665 208.943 925.887 213.266 925.94 216.046C926.101 224.531 926.035 233.062 926.033 241.565L926.013 289.476L926.015 353.766C926.053 365.747 927.32 379.412 925.104 391.259C924.606 393.925 921.711 395.173 919.462 396.185C915.267 396.769 899.325 397.525 898.147 393.558C895.005 382.977 895.98 363.224 895.993 352.459L896.021 304.02C896.033 275.952 895.944 247.8 896.013 219.726C896.029 213.441 896.551 209.279 902.888 206.572Z"/><path fill="#D6DE5A" d="M947.22 230.661C951.296 230.497 961.326 230.817 961.766 236.031C963.122 252.102 962.504 269.983 962.502 286.092L962.483 334.654C962.477 343.629 962.576 352.604 962.296 361.574C962.084 368.389 959.799 369.769 953.544 370.997C941.361 371.375 937.168 371.759 937.072 358.061C936.822 319.711 936.943 281.331 937.016 242.979C937.034 233.895 938.199 231.923 947.22 230.661Z"/><path fill="#D6DE5A" d="M254.319 493.32C239.013 506.731 226.453 521.07 223.008 541.836C222.158 546.957 221.706 556.246 219.277 560.36C215.246 567.187 208.676 573.443 203.977 580.122C196.553 590.674 190.008 601.563 183.247 612.519C181.898 610.634 182.373 609.617 182.016 606.83C183.048 599.556 187.091 584.386 188.881 576.764C193.25 558.313 197.497 539.833 201.623 521.326C192.542 522.053 182.61 523.206 173.566 524.411C151.394 527.367 127.42 527.993 105.481 531.843C110.077 529.543 114.958 528.777 119.852 527.373C161.605 515.4 203.724 503.679 246.275 494.899C248.95 494.347 251.671 493.913 254.319 493.32Z"/><path fill="#D6DE5A" d="M300.804 440.671C301.957 440.45 301.604 440.507 302.811 440.641C303.168 445.272 288.165 466.056 283.746 469.302C262.284 472.214 240.026 472.928 218.445 475.329C187.796 478.739 157.079 481.834 126.466 485.584C114.218 487.084 101.525 488.28 89.3644 490.194C87.6419 490.634 87.5258 490.756 85.7036 490.622C87.3512 488.941 115.467 482.012 120.011 480.779C164.684 468.653 209.438 457.625 254.991 449.279C270.3 446.474 285.38 442.966 300.804 440.671Z"/><path fill="#D6DE5A" d="M319.345 405.178C319.747 408.112 313.769 419.027 312.092 421.969C301.51 423.687 282.573 424.791 271.673 425.605C255.931 426.78 237.645 428.513 221.97 429.083L222.007 428.726C223.559 427.887 237.583 424.569 240.135 423.911C266.393 417.064 292.803 410.818 319.345 405.178Z"/><path fill="#D6DE5A" d="M972.021 285.439C976.269 285.479 980.609 285.392 984.798 286.032C985.229 294.619 984.983 304.389 984.867 312.986C981.099 313.197 975.907 313.019 972.035 313C971.851 304.013 972.018 294.47 972.021 285.439Z"/><path fill="#FDFEBB" fill-opacity="0.16862746" d="M317.941 525.853C325.531 529.374 334.55 532.257 341.652 535.737L338.119 539.043C332.823 536.802 322.693 529.471 317.941 525.853Z"/><path fill="#FDF9F7" fill-opacity="0.79607844" d="M135.662 473.709L136.08 474.35C134.861 475.119 120.63 478.624 117.719 479.673C114.103 480.032 102.519 484.04 97.6031 484.907L97.6679 484.407C100.905 482.416 129.912 475.108 135.662 473.709Z"/><path fill="#FDFEBB" fill-opacity="0.019607844" d="M444.86 450.874C442.09 456.608 439.29 462.326 436.458 468.03C435.626 467.497 435.471 467.285 434.739 466.61C434.752 465.235 434.758 464.703 434.335 463.402C437.93 458.841 441.52 455.828 444.86 450.874Z"/><path fill="#FDF9F7" fill-opacity="0.047058824" d="M137.566 519.772C138.819 519.905 140.073 520.029 141.329 520.144C138.52 521.527 130.293 523.503 126.601 524.678C125.179 525.063 125.261 524.962 123.764 525.011L123.894 524.256C127.799 521.315 132.654 519.596 137.566 519.772Z"/><defs><linearGradient id="gradient_0" gradientUnits="userSpaceOnUse" x1="128.82812" y1="477.3158" x2="128.52646" y2="476.09647"><stop offset="0" stop-color="#FEFAF8" stop-opacity="0"/><stop offset="1" stop-color="#FEFAF9" stop-opacity="0.082352944"/></linearGradient></defs><path fill="url(#gradient_0)" d="M135.662 473.709C137.146 473.218 137.695 473.313 139.229 473.332L139.996 473.843C138.476 475.817 120.164 480.296 117.719 479.673C120.63 478.624 134.861 475.119 136.08 474.35L135.662 473.709Z"/><path fill="#D6DE5A" d="M290.536 378.009C292.578 378.494 293.747 379.635 295.439 380.916C291.353 381.285 287.467 381.373 283.375 381.489C281.669 381.773 281.965 381.932 280.443 381.451C282.016 379.942 288.188 378.611 290.536 378.009Z"/><path fill="#FDFEBB" fill-opacity="0.043137256" d="M184.978 396.773C181.444 400.102 171.94 406.653 167.693 409.578C167.3 409.39 165.879 409.183 165.48 409.111C172.238 405.163 178.162 400.398 184.978 396.773Z"/><path fill="#DDD93C" d="M178.539 620.767C179.858 616.144 180.92 611.506 182.016 606.83C182.373 609.617 181.898 610.634 183.247 612.519C181.918 615.365 180.171 618.071 178.539 620.767Z"/><path fill="#FDFEBB" fill-opacity="0.019607844" d="M776.745 519.33L776.28 517.421L776.738 516.832L778.258 517.322C780.096 519.978 781.622 522.179 783.669 524.687C782.717 523.976 777.223 519.941 776.745 519.33Z"/><path fill="#FDFEBB" fill-opacity="0.027450981" d="M558.642 399.715L558.75 403.505C558.192 405.629 556.864 409.116 555.931 411.107C556.368 406.721 557.356 403.918 558.642 399.715Z"/><defs><linearGradient id="gradient_1" gradientUnits="userSpaceOnUse" x1="257.17862" y1="637.0166" x2="257.32138" y2="635.4834"><stop offset="0" stop-color="#000001" stop-opacity="0"/><stop offset="1" stop-color="#020002" stop-opacity="0.031372551"/></linearGradient></defs><path fill="url(#gradient_1)" d="M257.135 635.156C257.889 635.689 258.487 636.175 259.207 636.75L258.104 637.329L255.443 636.502L255.284 636.031L257.135 635.156Z"/></svg>