<?xml version="1.0" encoding="UTF-8"?>
<svg id="_레이어_1" data-name="레이어 1" xmlns="http://www.w3.org/2000/svg" viewBox="0 0 907.83 864">
  <defs>
    <style>
      .cls-1 {
        fill: #d9d979;
      }

      .cls-2 {
        fill: #d4dd57;
      }

      .cls-3 {
        fill: rgba(249, 250, 172, .02);
      }
    </style>
  </defs>
  <path class="cls-2" d="M619.24,76.96c9.3,3.29,20.61,9.09,29.94,4.23,15.33-7.98,14.57-20.79,16.34-35.48,4.46-33.29,38.8-53.1,69.96-43.13,17.38,5.56,32.07,14.96,40.68,30.98,10.12,18.81,7.66,41.64-2.99,59.4-5.16,8.61-3.04,21.75-3,31.81-3.42.16-7.46.47-10.83.32-1.92,2.91-3.78,6.08-5.81,8.89-10.28,14.22-9.39,26.49-29.55,20.91-9.15-9.85-11.19-13.6-24.25-16.2-11.25,6.7-21.4,15.06-30.73,24.26,4.78-1.64,9.58-3.24,14.38-4.82,16.32,5.49,23.49,11.64,31.73,27.17,6.39,12.05,6.04,24.44,12.81,35.63,2.87,4.74,8.76,7.86,13.44,10.79,17.74,11.1,21.65,26.99,25.11,46.22,9.66-11.21,23.18-22.13,34.4-31.94,18.37-16.05,39.42-26.39,40.4-53.46-1.4-2.33-4.44-7.18-5.06-10.31-2.28-11.55-1.87-25.62-2.4-37.56-.07-1.55,1.53-3.51,2.37-4.59l1.75-.65c6.99,4.85,3.89,23.43,13.3,22.92,14.03-9.12,13.1-44.06,22.67-43.8,5.11,5.05.1,16.46,2.3,21.88,4.05-6.47,4.95-20.07,10.28-23.24,3.39.47,2.07-.3,4.19,2.22,2.14,8.49-2.74,17.24-1.62,21.76,5.82-1.59,4.36-10.17,8.71-14.65,2.83-.34,1.56-.64,3.95.92,2.09,5.4-.91,9.41,1.12,13.51,1.89.7,1.88.63,3.92.73,4.26,5.99-5.08,23.77-7.84,30.27-4.2,9.91-8.19,20.39-14.33,29.27-8.33,11.4-18.07,20.24-25.98,32.3-6.5,9.91-10.9,19.84-16.76,29.83-11.72,19.68-26.04,37.66-42.58,53.46-8.24,7.97-20.04,22.48-32.19,18.13-29.33-10.51-78.54-52.13-93.19-78.63-1.84-3.39-3.51-6.87-5.01-10.43,4.52-11.3,9.21-22.51,14.09-33.66-6.98,6.26-11.62,13.41-17.8,19.47-6.6,6.47-17.82,18.88-25.42,24.03-27.09,18.35-55.21,32.29-79.51,55.22-7.9,7.46-19.83,13.15-27.32,21.62-6.54,6.05-17.56,20.91-25.46,21.24-7.06.29-25.33-7.73-29.91-5.24.76,2.35,2.37,3.58,4.36,4.99,13.39,9.44,28.23,17.22,42.37,25.47,17.12,9.98,34.06,20.84,49.81,32.87,12.32,9.41,22.86,20.81,33.72,31.83,22.04,22.38,63.29,61.87,45.96,96.8-5.82,11.73-17.46,20.04-28.48,26.43-43.89,25.45-183.72,62.95-207.55,97.24-11.15,16.05-9.95,55.26-4.44,73.48,2.44,8.08,13,24.23,8.56,32.28-1.09,1.98-2.17,2.72-4.33,3.34-4.98,1.43-16.73-2.52-20.85-5.81-9.3-7.42-19.9-17.99-26.11-28.13-8.08-13.19-7.47-29.53-13.62-43.55-6.67-15.22-23.78-27.31-24.99-44.66-.43-6.13,1.65-11.48,5.01-16.48,14.03-8.65,23.92-7.23,38.49-12.06,14.78-4.9,35.53-15.13,48.92-23.46,11.21-6.97,32.75-21.58,42.17-30.22,17.53-16.08,21.71-27.84,45.51-38.52,25.95-11.64,33.39-10.89,60.89-10.98l-1.09-.78c-8.81-6.24-27.93-10.44-38.86-13.4-44.89-12.16-83.32-26.03-122.27-51.77-42.41-28.03-57.25-42.44-61.23-94.13-6.77,16.1-8.55,31.92-1.64,48.38,7.69,18.31,22.67,37.05,39.05,48.22,8.42,5.74,15.88,10.05,23.4,17.04-8.62,21.77-79.44,73.58-100.08,90.99-7.12,6.01-24.21,28.22-30.23,31.01-44.22,20.41-82.06,47.86-119.25,79.17-23.81,20.05-55.16,43.02-74.58,67.36-15.41,19.32-46.7,69.61-50.77,93.33,3.42,3.59,7.22,7.71,10.54,10.84,4.2,3.69,5.63,12.82-.25,15.46-27.13,12.18-44.68-17.03-45.59-40.64-.83-21.81,5.53-43.93,2.86-66.27-1.21-10.12-2.28-21.47-1.2-31.63,2.96-19.04,36.42-14.1,49.27-16.79,7.74-1.62,24.63-20.03,30.98-25.61,9.94-10.49,23.08-23,31.14-35.42,13.45-20.72,24.13-44.91,41.86-62.53,15.01-13.25,56.3-32.84,75.2-39.89,15.29-20.33,30.74-50.22,43.69-72.32,8.08-13.8,39.15-48.14,42.47-58.49,12.64-39.34,9.97-71.27,47.16-100.9,21.95-17.5,52.33-34.68,68.31-59.06,14.57-21.09,31.22-40.73,40.58-65,6.98-16.32,18.89-46.62,27.99-60.18,6.44,1.5,13.92,3.05,20.13,5.05,1.89,12.59,7.72,47.87,14.67,57.55l1.23-.2c2.89-9.28-1.68-44.76,1.35-49.37,2.49-1.04,3.2-.86,5.89-.94l.63-1.27c-.96-2.67-32.04-45.8-34.54-48.16l-1.66-.44c-1.21,5.4,7.46,19.72,10.49,25.39-24.08-9.86-58.37-24.56-76.87-43.28-5.22-5.28-8.88-13.46-12.99-19.34-13.45,6.41-26.09,14.13-40.77,17.79-30.79,7.67-63.89,8.18-91.49,25.77-9.84,6.27-13.17,18.45-18.03,28.54-4.76,9.88-11.04,19.31-14.93,29.56-.66,1.72-1.72,1.76-3.16,1.45-3.03-3.65-3.56-6.09-4.73-10.73,1.98-6.27,5.39-13.94,3.36-19.87-5.13-3.96-12.66,2.31-17.54,5.25-5.27,3.69-34.47,28.92-38.66,17.52,2.65-9.28,14.72-15.24,21.88-20.65l-3.78-.18c-4.96,4.68-19.81,13.54-27.23,13.58-2.66-1.23-1.69-.28-2.95-3,.63-10.46,19.94-17,22.44-23.09l-1.01-.34c-5.32,3.83-19.42,18.49-24.16,10.05.07-5.37,1.36-6.82,4.92-10.87,3.83-1.29,18.66-13.4,20.01-16.39l1.66-9.62c9.15-5.09,16.77-9.9,27.03-12.54,10.85-2.8,22.63-3.2,32.82-7.91,21.19-9.79,41.65-22.14,62.16-33.18,15.69-8.45,37.15-14.54,54.15-20.81,8.29-3.05,23.66-8.84,31.81-10.62,19.39,5.64,96.78,28.49,106.69,40.66v1.39c-4.74,2.08-8.04,3.28-12.23,6.39.37.05.74.1,1.11.15,39.61,4.85,58.77-8.3,87.4,28.13,3.08,3.92,16.15,26.64,16.56,26.91.99-3.8-1.85-22.92-2.82-27.75Z"/>
  <path class="cls-1" d="M220.88,125.83c4.7-4.4,10.33-8.03,16.03-10.98-4.86,5.16-6.62,6.97-12.25,11.16l-3.78-.18Z"/>
  <path class="cls-2" d="M423.79,195.14c6.23-1.25,9.3-1.51,15.69-1.89-1.86,3.19-4.42,7.93-6.41,10.88-2.22,6.32-19.85,32.69-25.27,38.08-6.09,1.21-14.56,1.21-21.06,1.7-78.67,5.98-156.91,15.54-235.3,24.09-14.7,1.6-75.32,12.02-84.41,10.22,2.72-2.77,13.4-5.1,17.41-6.06,43.51-10.48,86.7-23.15,130.17-33.68,69.35-16.24,139.1-30.69,209.19-43.34Z"/>
  <path class="cls-1" d="M423.79,195.14c6.23-1.25,9.3-1.51,15.69-1.89-1.86,3.19-4.42,7.93-6.41,10.88l.03-2.87c-2.64-3.51-5.3-4.52-9.31-6.12Z"/>
  <path class="cls-2" d="M352.11,284.86l.74-.23.82.65c-1.14,2.38-13.23,11.34-16.28,14.3-7.79,7.55-12.05,14.77-17.68,23.92-10.01,4.96-26.84,4.96-38.3,6.06l-52.7,5.48c-40.68,4.36-78.67,10.33-119.71,13.18l-2.04.24.57-1c2.6-1.28,32.63-9.05,38.32-10.71,44.9-12.89,90.09-24.78,135.53-35.64,23.68-5.59,46.84-10.39,70.73-16.22Z"/>
  <path class="cls-2" d="M465.42,133.21l1.02-.07c.81,4.31-10.03,23.58-12.63,28.05-25.52,1.15-49.11,3.03-74.41,6.4-12.75,1.7-27.86.05-41,1.28-12.65,1.19-26.16,3.75-38.72,4l-.99-.42.03-1.01,129.98-31.44c12.36-2.89,25.44-4.07,36.71-6.8Z"/>
  <path class="cls-3" d="M241.44,129.15c.55,3.12,1.57,5.65.57,8.16-3.46-1.61-3.79-2.21-6.93-.52l.61,1.39,3.73.6v.94c-10.23,5.27-28.92,19.4-39.4,10.08-.75-3.4-.03-3.21,1.61-7.21l-.53-1.26c-3.07-1.47-3.92,2.47-10.61,2.06-8.96-4.19-7.21-23.82-3.17-31.6,2.28.41,3.26.35,5.56.37-3.56,4.05-4.85,5.49-4.92,10.87,4.75,8.44,18.84-6.22,24.16-10.05l1.01.34c-2.5,6.09-21.81,12.63-22.44,23.09,1.26,2.72.29,1.77,2.95,3,7.42-.04,22.27-8.89,27.23-13.58l3.78.18c-7.16,5.42-19.22,11.38-21.88,20.65,4.19,11.4,33.4-13.83,38.66-17.52Z"/>
  <path class="cls-1" d="M212.9,95.77c-4.9,1.18-9.83,3.72-14.49,1.22,1.46-3.72,12.32-8.81,16.15-10.84l-1.66,9.62Z"/>
</svg>