<?xml version="1.0" encoding="UTF-8"?>
<svg id="fixed_id_0"  xmlns="http://www.w3.org/2000/svg" version="1.1" xmlns:xlink="http://www.w3.org/1999/xlink" viewBox="0 0 1714.1 2025.7">
  <!-- Generator: Adobe Illustrator 29.3.1, SVG Export Plug-In . SVG Version: 2.1.0 Build 151)  -->
  <defs>
    
  </defs>
  <path fill="#d7e364" d="M876.3,269.6c-12,8.2-31.5,12.4-39.3-2.7-8.4-16.3-5-46.4-7.5-64.8-1.3-10.1-7.1-17.7-4.2-28,4.9-13,15.5-23.1,7.2-38.1-10.4-18.9,12.9-42.4,12.9-58.2,0-18.6-18.4-35.7,12.8-49,64.8-27.7,149.7-24.3,185.2,46.2,12.7,26.6,6.9,63.2-2.7,89.9-16.4,45.6-48.4,73.3-23.7,125,19.2,40.4,73.3,53.6,93.6,97.1,2,4.3,17.7,14.1,22.1,17.3,32.6,19.3,53.9,57.2,50.9,95.4-.8,9.4-4,26.3-.6,33.7,13.3,28.8,28.7,51.8,25.4,85.2-.9,9.6-.2,24.1-5.6,33.2-8.2,12.6-.6,22.1,0,35.2,1,17.9-5.1,39.2-.8,57.1,7.3,17.2,10.9,19.2,2.9,40.9l-4.4,7.2c.9,14.2,7.2,27,8,42,2.4,49.8-20.5,97.5-33.7,144.5l-3.6,10.6c-7.3,32.1-8.8,31.4,6.4,61.8,2.7,5.3-.7,19.9,6.7,27.1,7,.8,30.3,1,35.8-2.5,12.7-4.5,38.8,3.4,51.6-2.2,3.5-3.4,3.2-4.8,3.9-9.6l.9-2.5c2.9-8.6,3.3-25.6,6.5-38.4,14.8-58.9,48.7-131.5,115.9-141.9,17-2.6,42.6,2.5,60.7,1.1,25.7,1.1,58.2-1.3,82.7.5,8.9.7,17.6,2.5,26.1,5.2,56.9,18.9,86.3,88.6,97.4,142.6,1.6,8.1,4.9,32.9,10.6,36.4,5.6,0,11.2,0,16.8-.3,18.7,11.2,17.6,28.4,5.6,44.5l-1.1,1.4h-23.5c-7.6,14.5-4.3,31.9-7.7,47.6-9.9,46.6-31.7,96.3-69.6,127-10.3,8.2-24.1,13.2-34.7,19.9-19,0-38.1.1-57.1.6-33.2,1.2-83.5,4.6-116.6.5-11.2-1.4-40.8-21.1-49.6-30.8-23.8-26.3-42.3-60.4-52-95.5-4.6-16.6-8.2-53.2-13-70.7-.4-1.4-17.4-1.8-21.6-1.8-23.4-.2-47.1.1-70.7-.4-8.9,21.5-20.6,22.2-41.5,27.8-1.3.4-3.3,5.6-8.4,4.3-27.3-6.8-17,13.5-42.8-9.3-4.3,2.3-5.6,3.1-9.4,6-3.8,6.8-.2,67.7-1.7,80.4-3.5,28.4-8.1,56.9-13.2,85-.7,3.5-6.3,33.1-6.1,34.3,1.5,8,.6,79.6,1.4,81.4,25.5,51.3,57.1,103.9,53.9,163.2-.5,9.1-.3,16.8-1.8,26-12.5,75.7-27.9,154.2-23.6,231.1.9,15.1,8.5,25.9,13.6,39.4,2.6,6.9,2,18.9,4.1,26.4.6,18.2,23.7,66.5-3.2,72.7-15.3,3.5-51.8,8.1-67.7.5-8.1-4.1-18.2-16.8-25.9-20-24.9-10.3-75.8-2.7-84-37.3-5.7-24.3,20.4-23.4,33.8-26.7,9.2-2.3,30.5-22.2,37.1-29.5,48-89.4-2.4-184.4-26-272.4-2.1-7.8-1.1-21.1-1.8-29.3-2-25.1,2.6-53.1,2-77.5-11.2-18.7-21.7-40.8-29.1-61.4-3.9-10.8-6.2-27.1-10.8-37.4-9.4-21-30.4-61.7-35.4-83.9-2.7-5.9-3.8-7.1-7.9-12.3-19.3,11.7-43.5,136.3-40.6,162.4,1.6,14.9,25.2,85.2,23.3,92.1,5.8,13.3,7.3,54.5,3.1,66.5,0,32.5-16.2,50.5-24,78.2-6.3,22.4-8.8,57.4-10.4,81-.7,10.9-3.5,23.1-3.3,34.6.4,24.1-.9,49.9,1.1,73.9,1.5,7.7,8.5,15.3,10.6,22.6,4.5,15.5,7.5,31.6,11.2,47.4,3.1,13.1,7.5,26.2,9.5,39.3.7,4.3-6.4,12-9.6,13.8-35.8,21-79.7,6.1-117.6.8-40.6-3.6-126.3,11.2-154.1-29.2-1.8-50.3,46-24.2,74.2-42.2,19.4-13.2,64.4-37.7,77.8-55.5,16.6-22.3,6-103.4,2-129.4-8.5-56.1-21.9-107.4-26.2-163.9-6.8-27.8,9.7-76.6,5.8-99.7-8.6-50.7-29.1-87.5-13.9-142.9,1-3.3.8-8.2.9-11.8-12.4-25.4-23.8-44.6-29.5-74.3-5.7-30.2-6.5-65.7-4.1-96.4.8-10.4,7.5-38,4.2-44.8-39.2-10.9-22.7,26.9-43.5,31.3-18.2-7.5-38.9,10.9-58.8,3.1-8.8-3.4-19.6-5-27.6-10.1-4.2-2.7-5.4-5-6.4-9.8-.8-3.6-1.4-5.3-3.8-8.1-6.3-3.8-28.6-2.8-36.1-1.6-3.3,3.1-4.1,11.1-4.6,15.8-6.6,65.1-22.8,155.3-80.2,195.3-32.4,22.5-88.9,15.6-125.9,16.8-28.3.9-60,4.5-88.2.8-54.5-14.6-80.6-82.5-96.6-130.2-1.1-3.4-12.9-64.1-12.7-65,0-5.4,0-5.7-2.1-10.7-16.5-7.3-47,2.7-63.2-4.3-13.7-5.9-17.4-36.8-9.1-48.2,6-8.2,17.7-6.4,26.4-6.4,13.9,0,25.3.7,38.9-1.7,6.8-3.4,7.1-3,9.5-9.5-1.3-55.7,22.8-121.1,54.3-166.9,35.4-51.5,90-39,145.1-38.9l60.8-.3c6.5,0,30.8-.8,35.8,1,81.9,30.5,101.8,154.3,108.1,219.3h36.5c5.4-6,22.4-49.3,26.4-59.3.9-2.3-.5-21.4,1.2-26.6,7-20.6,14.4-30.5,18.2-52.7,7-40.8,14.1-81.6,20.5-122.5,1.6-14.9-.7-30.4,3.2-45,8.6-32.9,23.9-58,44.2-84.6,4.8-6.2,9.7-39.8,13.3-49,2-5.2,5.6-13.3,7.8-18.7h1.3c0,0,3.2,5.4,3.2,5.4l5.1-7.6c-.6-5.9,19-51,22.6-63.6l-3.2-10.4-2.5-1c-23-60.3,3.2-162,74.9-176.7,8.7-1.8,20.7-4.2,29.4-3.9l4.7-1c20.1-14.8,36.2-31.2,59.4-42.3,4.7-2.2,9.8-7,14.5-9.3,2.2-15.4.2-28.5,2-42.5l-4.5-4ZM1076.3,706.3l-5.2-7.8c-26.7,19.2-43.9,79.8-40.9,112.2,3,33,35.4,64.8,45.1,96.2,17.2,48.4,16.2,67.6,17,115.8,1.9,0,2.2-.5,4.1-1.3,1.9-2.7,3-4.5,5.2-6.9l1.6-1.7c0-2.4,1.5-6.9,2.3-9.2,3.6-9.6,5.1-21,7.1-31.1,3.3-15.8,5.4-33.9,3.2-49.9-3.8-28.7-17.3-51.6-14.8-81.5.7-8.5-.2-21.4,1.3-30.1,2-12.1,11.8-32.1,7.9-44.2-4.8-14.8-34-42.7-34-60.4ZM680.8,1086.8c2.3-2.9,4.9-6.7,5.9-10.3,8.9-33.4,19-66.5,28.9-99.7,5.7-19.3,13.6-36.1,18-56.2,3.5-16.3,10.5-33.5,14.3-49.9,2.7-11.9,8.7-22,9.9-34.5-3.3-4.9-5.6-7.8-9.4-12.3-10.9,2.9-12.8,7.7-18.7,17.2-1.4,5.9-21.5,38.3-25.5,44.2-18.6,27.3-39.9,53.7-57.2,81.9-10.1,16.5-26,39.7-17.8,59.6,3.7,9.3,11.4,19.3,15,27.7,12.5,29.2,1.2,33.2,36.6,32.2Z"/>
  <path fill="#d7e364" d="M91.5,1140.7c-16.5-7.3-47,2.7-63.2-4.3-13.7-5.9-17.4-36.8-9.1-48.2,6-8.2,17.7-6.4,26.4-6.4,13.9,0,25.3.7,38.9-1.7,8.5,1.6,43.9.8,54.9.5,24-.7,50.1.3,73.8-.5,12.5,11.9,17.1,46.1,4.4,53.3-13,7.4-120.1.4-126,6.8v.5Z"/>
  <path fill="#f7fae1" d="M234.5,1062.7c7.9,5.3,6.9,16.2,3.7,23.9-1.2.8-.5.5-2.3.2-1.3-4.9-1.3-18.3-1.4-24Z"/>
  <path fill="#fafced" d="M1300.3,1065.2c3.4-39.4,14.5-78,38.2-110.2,29.5-40.2,72.2-54.1,114.4-21.5l-1.3,2.4c-84.2-51.2-136.5,62-139.8,129.3,18.6.3,37.3.3,55.9,0,34.8-59.3,75,30,48.6,63.3-18.8,23.8-35.2,15.9-50.3-5.7-18.1.4-36.2,1-54.3,1.8,1.5,20.3,5.2,36.9,10.7,56.6,0,3.3,0,6.3.2,9.6-3.6,1.5-3,1-7.3.7-8.7-24.7-12.7-40.9-15.4-67-7.1-.3-13.3,1.3-19.8-.7-3.5-4.1-2.3-3.6-2.7-10.5,6.9-7.1,103.6,1.8,117.9-4.7,3.3-1.5,5.3-3.9,6.5-7.3,2-5.6,1.4-11.6-1-16.9-9.9-9.1-37.5-6.5-51.3-6.4l-80.9.8c-13.6.2-27.9.5-41.5,0-5-.2-4.4-.2-6.8-3.1,12.7-4.5,38.8,3.4,51.6-2.2,3.5-3.4,3.2-4.8,3.9-9.6,9.1,1.1,15.3,1.3,24.5,1.4Z"/>
  <path fill="#fdfdf9" d="M1384.7,1052c24.4-.8,31.7,18,34.6,39.9,1,12.5-2.2,28.3-11.3,37.4-12.8,12.8-21.6,6.3-31.7-3.9-1.9-4.5-1.9-2.4-1.3-6.5,6.2-5.7,12.4-4.3,21.3-4.3,42.2-40.3-23.5-42.1-26.3-44.6,1.8-4.4,11.3-14.5,14.8-18.1Z"/>
  <path fill="#fafced" d="M978.1,1013.3c3.6-4.5,2.6-4.7,7.1-6.4,3,3.5,2.2,4.8,2.4,10.5-7.5,21.1-12.9,29.5-26.9,46.9,23.3,13,32.9,12.9,59.6,13.5-29.2,21.6-80.4-24.8-83.8,17.4-3.5,43.3-15,88.7-13.4,132,.2,5.6,4.1,20.4,5.3,26.3-6-.5-6.2-.6-11.1-3.8l-2-2.6c-6,9.2-13.6,50-19.9,55.9-2.7-5.9-3.8-7.1-7.9-12.3,0-3.8,8.5-32.2,10.1-37.4,9.8-31.9,14.1-63.1,17.5-96.2-30.5,1.1-67.7.8-97.3-5.9-18.6-4.2-68.9-14.3-82.7-25.6,5.4,1.9,9.8,1.3,15.6,2.7,44.4,11,122.6,22.3,166.8,13.1,1.9-9.9,8.2-47.7,3.6-54.3-8.1-.3-16.2-.7-24.2-1.1,5.4-2.7,9.9-5.1,15.1-8.1,10.2-2.2,20.8-9.5,30.4-14.5,17.6-14.2,27.1-29.5,35.4-50.3Z"/>
  <path fill="#fafced" d="M189.1,1067.4c3.6-6.3,7.7-15,15.3-16.8,19.5-4.6,30.7,23.8,32.9,38.9,2.9,19.7,3,46.3-8.4,63.4-6.8,10.2-20,18.3-30,7.8-3.6-3.8-5.9-7.2-8.5-11.7-18.5-.9-42.5.5-61.4,1.1,2.2,18.3,3.9,32.2,8.8,50.2,2.3,8.2,8.8,24.4,10.2,31.1.5,2.5,2.7,12.9,3.6,14.9l-4.4-1.8c-3.7,1.7-2.1,1.8-5.1.9-15.2-30.7-19.5-62.6-26.2-95.2-8.3-.6-14.2-.6-22.4,1,0-5.4,0-5.7-2.1-10.7v-.5c6-6.4,113.1.5,126.1-6.8,12.7-7.2,8.1-41.4-4.4-53.3-23.6.8-49.8-.2-73.8.5-11,.3-46.4,1.1-54.9-.5,6.8-3.4,7.1-3,9.5-9.5h.5c0,0,0-1.3,0-1.3,5.9-2.3,14.2-1.6,20.7-1.6,6.8-5,6-3.8,14,.9l6.5-.5,2.8-1.2c9.6,1.8,39.1.4,50.5.5Z"/>
  <path fill="#fdfdf9" d="M208.3,1054.1c10.4,2.5,16.8,10.8,16.8,21.4-2.3,4-.7,2.5-5.6,4.2l-4.9-2.6c-7.1-3.9-15.3-.1-21-7.1.7-5.5,9.8-13.6,14.7-15.9Z"/>
  <path fill="#fdfdf9" d="M202.8,1142.4c5.5-1,17.6-.4,18.5,6.4-2.5,4.1-5.2,5.1-9.5,7.5l.3,1.3-1.5,1.1c-6.7-.2-13.5-4.1-14.7-11.1,2.6-4.2,1.5-2.8,6.8-5.2Z"/>
  <path fill="#fafced" d="M1071.1,698.5c1.8-9.8,34.8-53.4,42-64.9,16.3-25.9,25.9-52.4,36.5-80.8,2-5.4,4.7-20.1,7.3-23.5.8,8.1-.7,12.9-1.6,20.8-4.4,41.3-22.7,76.5-45.5,110.7,4.6,27.9,12.9,44,28.3,67.8-23-18.2-27-24.7-38.7-51.5-3.9,5.6-17.1,25.8-21.3,29.2h-1.9s-5.2-7.8-5.2-7.8Z"/>
  <path fill="#fafced" d="M953.8,1148.9c27.8-3,99.4-5.1,122-29.1,2.5-2.6-2.5-42.6.2-51.6,5.4-17.9,11.1-37.5,14.2-56.2.4,3.3.6,5.3,1.4,8.5l.6,2.3c1.9,0,2.2-.5,4.1-1.3,1.9-2.7,3-4.5,5.2-6.9l1.6-1.7c2.5,14.4-11.1,43.2-13.4,57.5-3,18.7.4,40.7.6,60.5l-1.3,1c-4.3,2.3-5.6,3.1-9.4,6-5.4-6.5-13.9.2-20.7,2.8-32.5,12.2-71.4,15.7-105.3,8.2Z"/>
  <path fill="#f7fae1" d="M1322.4,1181c9.7,23.1,16.3,39.7,33.2,58.4,31.3,34.8,78.3,37.8,109.5.8,5.4-6.4,8-10.8,12.3-18l1.2.9c-4,13.9-25.9,36.2-38.8,43.4-58.9,32.4-106.1-25.1-124.4-75.2,4.3.3,3.6.8,7.3-.7-.1-3.3-.2-6.3-.2-9.6Z"/>
  <path fill="#fafced" d="M148.8,950.5l6.3-3.1,1.7,1,1.4,5.8c-10.7,20.7-17.5,41.2-23.7,63.6-2.5,13.3-8.3,35-5.5,47.3,3.2,3.1,1.4,1.8,6.7,3l-6.5.5c-7.9-4.7-7.2-5.9-14-.9,4.9-41.9,11.9-80.1,33.5-117.2Z"/>
  <path fill="#f7fae1" d="M148.1,1231.4c9.4,18.8,18,36.4,33,51.5,20.6,20.8,47.9,25.8,72.6,8.2l2.3,1.7c-50.8,43.1-90.6-3-113.7-47.3,3,.9,1.4.8,5.1-.9l4.4,1.8c-.8-2-3.1-12.4-3.6-14.9Z"/>
  <path fill="#fafced" d="M804.9,367.7c5.7,5.5,27,6.6,40.4,11.3-29.5,2-52.1,7.6-76.5,24.6-3.8,1.2-5,1.8-9.1,1.7-.9-3.3.2-3.6,2.1-7.7.3-.3.6-.5.9-.8l1.4-1.2c10.3-8.9,23-12.6,29.6-19.3-.2-1.8-.4-3.4-.8-5.1,3.2-2.5,3-1.8,7.5-2.5l4.7-1Z"/>
  <path fill="#f7fae1" d="M148.8,950.5c6.2-13.3,25-34.2,38.3-41.3,16.2-8.6,26.1-9.2,42.9-5l-2.9,4.8c-32.3-5.4-53.4,21.3-68.8,45.2l-1.4-5.8-1.7-1-6.3,3.1Z"/>
  <path fill="#d4e157" d="M134.7,1017.8c5.4-.6,4.3-1.3,8.6.6,3.3,5.4,1.1,11.6,2.7,16,3.4,9.5-9.6,17-7.3,23.6l3.1,1.4c.3-3.1.6-6.2.9-9.3l1.6-.4,1.1,2.2-1.5,3.2c1.9,3.1,7.4,4.7,11.1,6.3-4.3,6.2-10,4-16.3,5.5l-2.8,1.2c-5.3-1.2-3.5.1-6.7-3-2.7-12.3,3-34,5.5-47.3Z"/>
  <path fill="#f7fae1" d="M698.4,550.2c15.1-24.2,45.4-35.2,72.6-37.5-21.3,10.1-37.4,15.2-54.2,33.1-4.5,4.8-11.5,16-13.5,17.9l-1.6-3.1-3.2-10.4Z"/>
  <path fill="#f7fae1" d="M917.4,1249.7c4.9,3.2,5.1,3.3,11.1,3.8,2.8,9.7,15.9,60,16.7,68.4l-1.3-.8c-8.4-19.6-23.6-51.8-26.5-71.5Z"/>
  <path fill="#fafced" d="M707.4,1328.5l21.3,22.6c.3,11.7-.8,24.8-1.5,36.6-5.1-23.7-5.4-27.8-20.6-47.3,1-3.3.8-8.2.9-11.8Z"/>
  <path fill="#f7fae1" d="M878.8,316.1c.4-1.8,1.8-7.3,2.9-8.3,11.3-10.3,21.5-19.2,31.1-31.2,1.9-.1,1.3-.4,2.2.2-6.9,18-14.3,29.6-32.8,39.1-1.1.6-2.3.7-3.4.3Z"/>
  <path fill="#f7fae1" d="M978.1,1013.3c11.5-34.3,7.6-35.7,11.8-67.4,2.6,23.2,5,48.9-2.2,71.6-.2-5.7.7-7-2.4-10.5-4.6,1.7-3.6,1.8-7.1,6.4Z"/>
  <path fill="#f7fae1" d="M865.4,1082l6.4.5c16.6,1.2,24-.7,40.4-4.5-5.2,3.1-9.7,5.4-15.1,8.1,8.1.4,16.2.8,24.2,1.1-19.4,4.6-37.9,2.2-56-5.2Z"/>
  <path fill="#f7fae1" d="M679,624.2c.8,8.5-1.6,38.6-2.4,48.7-2.6-9.4-7.8-29.6-4.7-38.8l2.1-2.2,5.1-7.6Z"/>
  <path fill="#f7fae1" d="M889.7,230.9c-4.3,16.5-5.7,26.5-8.9,42.7l-4.5-4-1.9-1.8c1.9-11.2,9.6-27,15.3-36.9Z"/>
  <path fill="#f7fae1" d="M741.8,429.8c5.8-11.3,11.3-22.8,20-32.2-1.9,4.1-3,4.4-2.1,7.7,4.1,0,5.3-.6,9.1-1.7-9.1,6.9-19,17.8-27,26.2Z"/>
  <path fill="#eaf0ab" d="M230.1,904.2c13.1,3.6,21.2,10.9,30,20.7-13.3-8.5-17.7-12.5-32.9-15.9l2.9-4.8Z"/>
  <path fill="#f7fae1" d="M1200.8,792c-3.7-4.1-15.2-26-17.9-31.4,8.3,9.9,12.8,15.2,22.3,24.2l-4.4,7.2Z"/>
  <path fill="#d4e157" d="M1171.5,989.1c.2-7.7-7.5-31.7-1.5-36.4,8.3,9.3-4.9,18.7,5.1,25.9l-3.6,10.6Z"/>
  <path fill="#eaf0ab" d="M253.6,1291.1c6.5-6.9,15.2-17.2,22.1-22.8l-1.1,1v1.5c-5.4,7.7-11.1,16.6-18.7,22l-2.3-1.7Z"/>
  <path fill="#eaf0ab" d="M1452.9,933.5c4.4,3.7,10.7,9,12.5,14.3-4.1-.7-11.2-8.7-13.9-11.9l1.3-2.4Z"/>
  <path fill="#fafced" d="M837.1,508.3c2.1,5.6-.2,4.7.2,10.3.4,52.6,4.9,104.1-32.9,147.8,9.9,24.7,20.4,48.2,28,73.8-11.1-16.5-25.5-38.9-38.1-54-9.9,17.3-28.3,41.8-34.1,59.6-4.7,14.3-3.3,70.1-11.7,78.2-10.9,2.9-12.8,7.7-18.7,17.2l-1.3-.8c1.7-10.8,5.1-24.1,7.2-35.6,3.6-19.2,5.9-49,12.1-66.6,2.5-7.2,21.6-30.8,25-40.8,2-5.7,8.9-14.5,6.6-21.5l-6.2-.4-.9-1.4c2.8-4,10-6.2,13.8-9.4,35.3-30.2,40.9-80.3,42.9-123.8.5-11.4.8-23.6,8.1-32.8Z"/>
  <path fill="#fdfdf9" d="M795.7,664.5l3.7,2c2.8,4.8,7.3,15.1,2.7,19.5-3.8-.6-5.6-.8-9.5-1-3.1,2-2.9,1.8-6.6,2.2l-2-1.7c-1.9-9,5.7-16,11.8-21Z"/>
  <path fill="#fafced" d="M964.2,696.5l-.6-2.4c-5.9,1.9-29.5,42-54.8,45.3,16.1-13.5,14.2-8.8,29.8-27.6,19.1-23,24-36.4,36.7-61.8,29.7-59.5,45.2-113.9,43.4-181-.8-31.1-8.3-57.6-10.7-86.7v-1.5c50.8,119,7.4,202.4-29.1,313.5-3.7,5.8-7.1,14.5-7.6,21.4l-1.6.7-.8-5.8-1.9.6-.7,4.8c-2.1-8.5-2.1-10.7-2.2-19.4Z"/>
  <path fill="#fafced" d="M380.6,893c95.8,88.3,91.7,305.6,15.8,406.8l-4-2.3c29-35,43.7-110.6,47.1-156.1,5.6-75.1-10.7-186.7-60.8-244.3l2-4.1Z"/>
  <path fill="#fafced" d="M1549.4,967.4l.6-6.5,3.3.8,2.9-3.7c46.2,92.7,45.8,230.4-27.8,310.8-4.1,4.5-10.2,11.4-16.1,13.1,72.6-75.3,78.6-223.3,36.9-314.5Z"/>
  <path fill="#fafced" d="M381.2,1010.1c25,95.3,14.9,242.2-64.6,310.1,9.5-12.6,22.1-29.4,28.7-43.4,33-69.8,41-151.7,30.6-227.2-1.2-8.1-2.4-16.1-3.7-24.1,7.3,8.7.4,6.6,6.1,11.8,3.8-7,2.3-18.8,2.8-27.1Z"/>
  <path fill="#f7fae1" d="M1586.9,944c-.4-4.3-1.2-4.5.5-7.8h3.2c41,61.2,55.1,143,40.5,214.7-10.2,50.2-20.1,71-48.6,111.2l-1.4-3.8c58.2-89.5,57.8-222.1,5.7-314.3Z"/>
  <path fill="#f7fae1" d="M753.7,1516.2c1.6,11.7,4.1,38.3,3.8,49.8,5.1,33.5,21.7,69.4,42.7,95.8-17.6-9.8-24.8-20.3-36.3-36.5.7,10.8,1.8,21.5,3.3,32.2,1.2,8.5,10.3,52.6,8.8,57.5-4.6-6.4-8.1-20.8-10.5-28.6-13.2-43.8-18.7-89-16-134.8-.5-12.7,1.5-22.9,4.2-35.4Z"/>
  <path fill="#eaf0ab" d="M753.7,1516.2c1.6,11.7,4.1,38.3,3.8,49.8-2.7-7.1-1.3-20.2-4.8-25.3-2.5,3.3-2.5,6.8-3.2,10.9-.5-12.7,1.5-22.9,4.2-35.4Z"/>
  <path fill="#fdfdf9" d="M756,1594.4c1.4,4.6,2.4,9,3.5,13.7.2-4.3.7-7.2,1.4-11.4l.7.5c-.1,4.3,6.8,17.4,9.2,23,0,3.2.4,1.7-1.4,4.5l-3.9-1.2c-3.4,2.2-2.9,3.6-4.7,8.4l-2,.8-1.9-1.7c-3.2-9-3.3-27.2-.9-36.6Z"/>
  <path fill="#f7fae1" d="M851.6,831.9c35.2-2.6,60.9,3.3,95.6,7.8,8.6,1.1,35.1,2.9,41.2,4.2-8.4,7.4-61.8,2-74.7.9-39.2-5.5-101.1,1.7-140.9,6.8,28.8-12.5,48.3-14.3,78.8-19.7Z"/>
  <path fill="#fafced" d="M340.9,933.4c0-4.3-.4-5,1.1-9.1,3.9-.3,4.2,1.3,8.3,4.6,13.8,23,26.7,54.6,30.8,81.2-.5,8.2,1.1,20.1-2.8,27.1-5.7-5.1,1.2-3.1-6.1-11.8-1.2-2.7-4.5-18.2-5.4-22-5.7-25.6-14.4-46.6-25.9-70Z"/>
  <path fill="#fafced" d="M802.6,1179.1c.9.9,1.6,2.2,1.7,3.3,5.1,34.2-25.5,112.4-45.1,137.3,0-2.6,38.4-125.5,43.4-140.6Z"/>
  <path fill="#f7fae1" d="M892.2,394.4c56.2,20,73.7,30.1,65.5,95.8-.1.9-1,2-1.6,2.8l-1.2-.3c-.1-26.5-5.3-39.8-18.1-63l-5.7-6.6c-10.3-7.6-30-21-39-28.7Z"/>
  <path fill="#fafced" d="M931.2,423.1l-1.2-2.2c-1.3-2.5-2-3.5-3.8-5.8l1-1.9c10.6-1,25.7,15.8,26.9,26.2l-1.5,3.1-3.7.8c-6.8-5.7-5.7-9.5-12.1-13.7l-5.7-6.6Z"/>
  <path fill="#f7fae1" d="M1105.7,396.3c10.6,13.4-4.5,32.5-11.6,44.3,7.1,32.7,4.6,54.6-9.3,85.2l-.7.4-.7-.9c4.5-17.9,6.1-27.5,4.8-46.2-.6-8.5-4-29.9-2.2-37,5.6-21.8,16.5-20.5,19.8-45.8Z"/>
  <path fill="#f7fae1" d="M964.2,696.5c.1,8.7,0,10.9,2.2,19.4l.7-4.8,1.9-.6.8,5.8,1.6-.7c.6-6.9,3.9-15.6,7.6-21.4-9.7,44.9-10.4,78.7-8.4,124.4-12.6-33-11.1-65-8.9-99.7.3-4.7,1.4-18.5,2.4-22.4Z"/>
  <path fill="#f7fae1" d="M1067.1,1590.3c0-5.4-.6-9.6,2.9-13.7v-.5c3.2,11.1,3,26.1-.4,37.2-5.7,17.4-24.6,70.8-50.4,48.7l.5-1.2c31.8-3.9,42.4-44.1,47.4-70.4Z"/>
  <path fill="#eaf0ab" d="M1067.1,1590.3c0-5.4-.6-9.6,2.9-13.7v-.5c3.2,11.1,3,26.1-.4,37.2-.2-7.4,2.1-15.4-.1-21.9l-2.3-1.1Z"/>
  <path fill="#f7fae1" d="M620,791.2c10.6-23,22.2-38.6,45.6-50.1-30.4,34.2-37.3,57-48.1,100.1.6-10,1.1-16.4,2.7-26.2-2.1-8.7-3.8-16.2-.2-23.8Z"/>
  <path fill="#d7e363" d="M620,791.2c4.2-1.5,12.6-14.3,17.2-19.3-9.2,17.6-11.8,24-17,43.1-2.1-8.7-3.8-16.2-.2-23.8Z"/>
  <path fill="#fafced" d="M989.4,287.7c1.3,1.2,6.8,13.3,8.3,16.1,11.7,22.2,20,35.4,18.7,61.2-3.2-2.6-4.5-9.2-6.8-13.4-12.5-23.2-21.7-36.6-20.2-63.8Z"/>
  <path fill="#f7fae1" d="M766.1,599.8c-5.8,36.2-46.9,23.1-65.1,64l-.4-1.3c4.5-36.5,27.6-35.5,53.2-50.8,3.9-2.4,9.3-8.5,12.4-11.9Z"/>
  <path fill="#f7fae1" d="M940.7,553.9l1.1.5c-4.6,8.2-21.7,21.8-31.1,24.3-15.5,4.1-24.7,0-37.5-7-2.6-1.8-6.3-4-6.7-6.9,30.7,8.9,47.6,7.6,74.2-10.8Z"/>
  <path fill="#f7fae1" d="M1498,896.9c28.3,15.1,41.7,34.5,58.3,61.2l-2.9,3.7-3.3-.8-.6,6.5c-11-28.5-29.2-50.2-51.4-70.6Z"/>
  <path fill="#f7fae1" d="M793.1,1367.5c3.3,11.1-17,61.6-23.4,74.3l-1.2-1.4c.8-22.5,15.4-52.6,24.6-72.8Z"/>
  <path fill="#f7fae1" d="M696.7,842.8l1.1,1.3c-8.6,18.1-39.1,49.3-54.1,66.5l-.7-.4c17.4-35.3,30-39.5,53.7-67.5Z"/>
  <path fill="#f7fae1" d="M340.9,933.4c-12.2-24.4-22.2-35.6-40.4-55.3,20.8,12.2,38,29.7,49.8,50.8-4.1-3.3-4.4-4.9-8.3-4.6-1.4,4.1-1.2,4.8-1.1,9.1Z"/>
  <path fill="#f7fae1" d="M1171.7,810.6c15.6,10.3,23.5,50.4,18.7,68l-1.2-.3c-4.3-31.7-8.2-37.4-17.6-67.7Z"/>
  <path fill="#f7fae1" d="M1078.3,561.4c8,3.4,12,9.1,22.6,12,6.6,1.8,21.8.2,24.1,1.8l-2.3,2.9c-22.2,10.8-33.4,3.9-44.4-16.7Z"/>
  <path fill="#f7fae1" d="M713.1,760.1h2.1c0,0,1,1.5,1,1.5-5.9,10.9-20.4,11.3-31.5,13.2l-1,.8-1.1-.7c6.3-11.6,19-12.8,30.4-14.8Z"/>
  <path fill="#f7fae1" d="M1002,1387.5c4.4,13.6,1,34.5-3.3,48l-1.7-2.3c-2-17.3.1-29,5-45.7Z"/>
  <path fill="#f7fae1" d="M1191.6,627.8c8.5,12.2-5.1,33.2-13,42.7-2.4-4,10.6-31.9,13-42.7Z"/>
  <path fill="#eaf0ab" d="M1586.9,944c-.6-.9-4.3-6.8-4.8-7.7-6.5-12-16.1-20-23.9-31.2h1.2s-1.1-.6-1.1-.6l.7,1.9,1.5-.5c12.4,11.4,19.5,17.2,30.3,30.4h-3.2c-1.7,3.2-.9,3.4-.5,7.7Z"/>
  <path fill="#f7fae1" d="M1003.8,718.4c1.3,1.5,14.9,25.3,17,28.8-13.7-5.1-15.8-15.3-17-28.8Z"/>
  <path fill="#eaf0ab" d="M396.4,1299.8c-5,6.7-12.9,14.2-20.6,17.5.4-1.2,13.9-16.2,16.6-19.8l4,2.3Z"/>
  <path fill="#eaf0ab" d="M1582.6,1262.1c-2.2,3.8-10.6,14.2-14.6,15.1.6-5.8,9-14.1,13.2-18.9l1.4,3.8Z"/>
  <path fill="#f7fae1" d="M851,496.5c-4.2,6.5-10.3,15.4-13.7,22-.3-5.6,1.9-4.7-.2-10.3,4.7-6.2,7.5-7.3,13.9-11.7Z"/>
  <path fill="#eaf0ab" d="M378.6,897.1c-6.1-6.4-8.6-8.9-13.5-16.3,5.1,3.8,10.9,8,15.5,12.3l-2,4.1Z"/>
  <path fill="#d7e364" d="M1301.9,800.8c-1.8-7,1.8-30.6,1.9-39.9.9-58.5-2.2-118.7-21.1-174.5-2.3-6.7.8-8.6-4.4-17.2l.6-1.6c12,7.3,26.5,69.4,30.5,84.3,11.7,43,8.2,115.6-4,159-3.5-3.1-2.5-4.1-3.5-10.1Z"/>
  <path fill="#d7e364" d="M534.1,607.8c2.8-2.4,5.2-4.5,7.9-7.1,2.1,2.3,1.4,3.4,1.8,7.3-12.2,27.5-23.3,70.8-30.2,101-2,8.8-8.3,57.2-10.7,60.7-1.9,3.2-.9,3.6-3.5,6.7-2.4-8.3.4-39.3-.2-50.5v-1.1c-.9-4.3,1.5-14.1,2.4-18.9,6.8-32.6,16.7-69,32.5-98.2Z"/>
  <path fill-opacity="1" d="M563.5,662.8c1.5,3.3,2.1,4.3,2.6,7.9-15.9,49.5-24.5,101.1-25.3,153.1-.1,8.4.6,61.6-.8,63.9-.8-1.6-1.2-1.7-1.1-3.4,1.1-14.6-4.1-27.3-5.8-40.5-6.5-52.7,2.3-106.5,20-156.3,2.9-8.1,5.9-18.1,10.3-24.6Z"/>
  <path fill="#d7e364" d="M1262.6,806.5c5.8-7.7,2.7-49.9,3.1-61.6.8-21.4-1.7-44.2-1-65.8h.7c3.8,24.8,8.8,40.8,8.1,67.1-.2,6.2-1.2,50.3-.5,52.8-3.5,22.5-16.2,76.2-26.9,94.4l-1.1.2c-1-8.7,4.5-21.6,7.1-29.9,5-16,10.5-41,10.4-57.3Z"/>
  <path fill-opacity=".7" d="M1262.6,806.5c2.4-8,.7-110.3-1-126.2-1.1-9.7-8.3-27.7-5.9-34.4,5.8,4.4,15.5,48.6,16.3,56.4,1.9,18,7.7,82.6,1,96.7-.7-2.5.3-46.6.5-52.8.7-26.3-4.3-42.3-8.1-67.1h-.7c-.8,21.6,1.8,44.3,1,65.7-.4,11.7,2.7,53.8-3.1,61.6Z"/>
  <path fill-opacity=".9" d="M502.9,769.7c-.7,11.7,1.9,61.2-2.5,67.5l-1.6-1.2c.6-6.9-2-8.4-2-9.2.8-29.2-4.8-74.3,2.4-102v1.1c.7,11.2-2.1,42.2.3,50.5,2.6-3.1,1.6-3.5,3.5-6.7Z"/>
  <path fill-opacity=".9" d="M534.1,607.8c4.3-12.1,21.8-39.6,31.8-48.1l.8.7-.3-.7-2.4.9,2.1,1.9c-7.1,15.6-16.1,29.7-22.3,45.4-.4-3.9.3-4.9-1.8-7.3-2.7,2.6-5.1,4.7-7.9,7.1Z"/>
  <path fill="#d7e363" d="M1301.9,800.8c1,6,0,7,3.5,10.1-1,7.2-5.4,17.9-7.7,26.4l-.7-.8c-.3-11.1,1-25.3,4.8-35.7Z"/>
  <path fill-opacity=".8" d="M563.5,662.8c.8-6,7.2-20.2,11.5-24.5l1.5.9c-1,6.8-7.4,24.9-10.4,31.4-.6-3.6-1.2-4.5-2.6-7.9Z"/>
</svg>