<?xml version="1.0" encoding="UTF-8"?>
<svg id="fixed_id_0"  xmlns="http://www.w3.org/2000/svg" version="1.1" xmlns:xlink="http://www.w3.org/1999/xlink" viewBox="0 0 1403.6 1692.7">
  <!-- Generator: Adobe Illustrator 29.3.1, SVG Export Plug-In . SVG Version: 2.1.0 Build 151)  -->
  <defs>
    
    <linearGradient id="fixed_id_1"  x1="840.6" y1="1188.1" x2="846" y2="1201.7" gradientTransform="translate(0 1693.8) scale(1 -1)" gradientUnits="userSpaceOnUse">
      <stop offset="0" stop-color="#f8fae5"/>
      <stop offset="1" stop-color="#fefffd"/>
    </linearGradient>
  </defs>
  <path fill="#90c105" d="M1096.5,18.7c7.6,0,17.7-.2,25.1.3l-.3,599.6v141.1c0,9.4-.4,55.4,1.4,62.6-7.5,6.1-14.9,60.3-16.1,71.7-4.8,44.7-1.7,89.9,9.2,133.5.6,2.5,3.6,16.9,6,17.1,2.1,86.8-.7,178.6.3,266.1,25.6,8,9.1,19.2,12.6,28.4,4.3,1.6,20.2-3.1,24.5-5.5,4.4-.5,14.2-3.2,18.9-4.4-6.9-1.8-12-2.9-19-4.2-3.2-1.1-1.9-.2-4.1-2.8-1.7-19.3-.4-59.1-.4-79.6v-140.9c7.9,3,15.4,6.3,23.8,7.8,8.8,1.6,48.8.4,54.1,5,2.5,10.5,1.8,30.3,1.9,41.8v63.2c.1,0,0,219.7,0,219.7,0,24.5-.6,52.5,0,76.6,27.8-9.6,61.1-24,90.1-31.5,6.2-1.6,46,3.4,52.7,4.9,5.6,1.3,4.2,33.1,4,41.3-15.9,6.9-34,13.9-50.4,20-4.5,1.8-10.3,4.3-14.8,5.8l-120.3,46.9c-33,12.9-69.1,27.3-102.4,39.1-4.3,1.6-16.6,6.5-20.5,7.1-5.3,3.5-46.4,18.3-55.4,21.4-13.4-3.2-56.5-3.4-62.4-8.3-1-1.9-1.5-3.3-1.1-5.5.7-3.6,2.6-7.2,3.7-10.8,2.6-9.1,4-25.7,10-32.9,6.4-7.6,125.2-47.3,144-54,12.9-4.5,30.2-8.2,41.2-16.2,2.9-5.5,1.8-146.1,1.8-162.6-7.7,1-13.1.5-18.1,6.2-10,11.5-58.7,16.4-53.8-9.9,2.2-11.7-.8-24.6,2.5-36.1,0,0,3.2-3.1,3.5-3.4-.9-5.5-9.7-10.2-6.8-18.8,3.7-4.8,8.6-6.1,14.2-8,.9-45.8,0-93.3.2-139.3.6-54.5.9-108.9.9-163.4-3.1-.5-14.4-1.9-14.7-4-2.5-15.4-.7-50.2-1-65.4-23.4-1.2-46.8-2.3-70.2-3.2-18.9-.9-43.3-2.4-61.9-1.2.3,23.9-13,10.5-23.8,19.4l-3.4,2.8c-12-4-8.2-1.7-20.2.4-1.7.3-7.5-2.6-9.7-2.9-7.6-1-15.6.4-19.5-8.2-2.1-4.6-3.8-10-5.9-14.8-69.6-1.4-139.2-3.5-208.8-6.3l-84-3.5c-11.5-.5-33.9-2.4-44.1-2.1-2.2,3.7,7.4,19.1-8.6,21.2-11.1,1.5-11.9-.5-22.5,3.9-17-9.7-36.5-4.6-45.3-25.7-18.1-.5-130.9-6.3-137.7-2.3-.6,11.5,5.7,46.6-.5,57.5-1.2,2.1-9.9,4.1-12.8,4.7l-.2,288c5.4,1.1,11.1,1.2,14,4.9,1.9,9-3.7,13.1,1.6,18.4,6.6,2.4,25-2.4,30.9-6.4l.3-1.5c-5.5-3.6-13.8-2.5-20.3-3v-236c0,0-.3-77.7-.3-77.7,0-12.3-.7-28.3-.2-40.2,7.9-.8,34.6.1,42.8,1.1l.2,348.9c6.7,0,14.2-.2,20.6,0,.2,8.2,2.6,41.2-1.6,46.3-5.6,2.3-12.3,2.3-18.6,3,0,21.7-2.2,126.7,1.7,138.9,8.5,2.8,100.3-27.8,116.3-29.3,19.1-1.9,34,2.6,52.4,5.9.2,10.9,4.2,37.6-4.7,43.4-1.9.9-4.9,2.3-6.8,3-28.8,7.3-56,14.4-84.5,22.9-5.7,1.7-39.5,11.3-43.1,11.7-3.6,1.2-10.3,3.6-14,3.7-10.4,4.3-38.7,11.7-51.5,15.3l-111.7,31.4-59.6,17.1c-4.3,1.2-28.3,8.1-31,8.1-8.5,0-52.8-4-57.9-7.9-.2-5.3,3.2-20.5,5.5-24.3,1.9-7.2,4.6-19.1,8.5-24.9,62.4-15.7,124.8-33.2,187.2-49.3,15.6-4.1,33-7.2,48-12.5,5.2-11.7-1.9-112.1.8-130.8.6-4,.2-11-6.8-9-14.4,4.1-30.6,6.8-45.5,4.4-16.3-2.4-4.5-42.9-8-54.7-1.3-4.4-2.1-13.8-.4-17.6,4.2-1.4,9.9-2.1,14.4-2.9,1.6-2.3.8-88.3.8-99.1-.2-63.5,0-126.9.5-190.4-16.4-2.4-16-3.7-16.1-20.1-.6-5.9,1.8-35.2,0-38.9-7-14.3-50.5,12-37.2-26.8,4.5-13.2,36.4,4.1,37.7-6.6,3.1-24.4-1.8-51.5,1.4-75.8.4-2.7,10.2-5,12.5-5.7l-.3-498.5-.4-168.8c0-23.6.1-47.2-.1-70.8-.1-15,11.9-11.5,22.8-11,1.1,29.8.3,65,.3,95.3v171.6c0,0,0,481.9,0,481.9,19.7,5.5,15.1,15.8,15.1,33.2,0,8.2-.4,16.4-.4,24.7,4.5-10,10.2-21.7,10.9-32.4,1.6-27.5,1.1-56.5,1.1-84.1v-152.2c.1-178.5-2-360,0-538.2h41.5c1.4,17.4.1,52.6.1,71.6l.2,141.5.3,487.1-.4,94.1c0,7.7,1.9,28.3-1.3,33.5-5.6,4-34.5,2.9-38.9-.5,0-8.8,11.4-30.4,14.8-40.1,5.1-14.6,7.6-21.7,8-37.4-9.3,13.7-13.9,32-20.5,47.3-4.9,11.4-14.5,27.5-15.7,39.3,3.8,3.1,103.6,3.1,118.3,4l19-.3c5.4-19.7,13-30.2,19.2-48.9,1.5-4.6-1.9-13.3-.2-17.7,14.6-38,8.5-78.4,17.5-117.3,2.2-9.6,4.3-20,5.2-29.6,1.4-29,19.4-44.4,29.3-69.2,3.1-7.8,4-20.8,4-29.3.2-18.9,5.8-35,15.9-51.1l2.3-3.2c5.6-10.4-21.2-55,6.6-100.9,10.9-17.9,27.2-34.7,48.7-38.2,7-1.1,13.5-1,19.3-5.1,3.7-6.8,18.5-19.6,25.7-23.5,9.3-7,17.6-11.4,27-19.5.8-.9,1.5-1.7,2.3-2.6,4.5-5.3,4.4-6,3.9-13l-.4-8.4c-2.3-1.5-12-3.2-16.4-6.1-9.2-6-10-30.5-13.3-43.2-5.2-19.6-8.6-28.5-3-48.6-7.6-23.2-3.2-28.1,2.9-51.7,4.4-18.9-19.3-29.1,8-51.5h1.7c31.4-2.9,54.3-13.2,86.5-1.1,26.3,9.9,50.6,32.7,52.1,62.3,1,18.9-3.8,43.8-8.8,62.1-.9,3.1-10.4,14.8-11,19.5-2.1,17-3.6,51.1,10.9,62.8,18.7,15.1,65.6,33.1,75.6,54.2l4.6,2.5c7,.4,12.3,3.2,18.8,5.5,36.8,13.1,56,46.9,52.7,85.3-.3,3.4-.8,8.5-.6,12,1.4,2.7,1.8,3.9,3.7,6.2,22.4,38.2,20.5,56.8,15.5,98.9,0,19.5.6,42.3,2.3,61.6,2,22.7,8,41.1,6.3,64.6-2.9,41.7-15.4,80-25.6,120.2-2,7.7-1.4,19.7-3.5,29,9.9,16.7,9.2,29.3,9.2,48.4,43.9.7,87.9,2.1,131.8,4.3v-54.2c0-9.9-.2-20,.2-29.9.4-8.6,7.7-7.9,14-8.1l-.3-532V109.3c.1-26.9-.9-64.4.6-90.6ZM568.7,750.8c-1.8,3-3.6,6-5.3,9-9.2,15.1-18,29.8-26.6,45.3-4.1,7.3-7.9,17.3-11.2,23.2-.6,2.5-1.3,5-2.1,7.5.2,3.1,0,8.6-.1,11.9,5.8,10,15.5,23.2,17.6,34.5,2.1,11.2-10.7,7.2-14.5,12.6l.9,1.6c11.5,2.1,33.7,2.5,45.9,2.9l80.7,2.4,125.6,4c26.7,1.1,59.1,3.8,85.4,3.1.1-2.3.2-4.6.3-6.9.9-19.2,10.2-20.8,16.9-34.5,9.6-19.4,15.1-56.2,14-77.8-1.1-21.8-11.8-45.5-11-68-.3-24.8,8.4-51.1,2.4-74.4l-1.1-5.5c-1.8-1.2-19-22.3-19.3-23.9-2-1.8-2.4-1.9-4.8-3.2-3.6-.3-5.3,1.2-8.5,3-10.8,9.7-20.9,27.6-20.9,42.3-.6,6.7.1,13.9-.4,20.5-.7,9-5.2,16.8-3.1,26.1,5.1,22.4,16,43.2,23.5,64.7,6.8,19.6,8.1,40.9,12,61.1,1.6,8.7,5.6,20.4,4.8,29.2-.5,5.7-7.3,12.8-9.6,18-2.6,5.8-3,11.4-7.4,16.4-5.8,2-57.7-.7-68.9-1l-151.5-3.3c-21.4-.5-42.3-2-64-2.3,5.1-17.5,11.1-36.5,15.3-54.1,2-8.3-.2-18,2.9-28.4,4.3-14.8,17.6-38.4,18.8-53,1.2-6.8,2.4-13.7,3.5-20.6.8-3,4.1-9.1,5.6-12.2-7.9-25.7-5.3-40.9,0-66.4,2.3-11.5,1.1-41.4-4.5-51.7l-1.1.6-1.2,4.9.2,4c-2.4,22.3-18.8,40.8-20.6,55.4-4.4,36.6-1,47.8-18.5,83.1Z"/>
  <path fill="#c5e652" d="M496.8,680.3c6,8.1,0,34.4,2.1,44.8,1.9,9.7,10.6,24.7,1.9,33.7-4.1-3.8-2.6-18.7-6.3-22.7-.2-.2-1.1-2.3-1.2-2.5-5.8,5.5-2.6,32.2-4,40.7-.4,2.3-2.7,8.1-2.2,10.3,3.4,15.5-11.2,37.2-9.6,50.2,2.8,23-10.8,31.8-16.5,52.4-.7,2.7-1.3,4.4-3.3,6.7-5.8,1.1-15.3.3-21.6.2l19-.3c5.4-19.7,13-30.2,19.2-48.9,1.5-4.6-1.9-13.3-.2-17.7,14.6-38,8.5-78.4,17.5-117.3,2.2-9.6,4.3-20,5.2-29.6Z"/>
  <path fill="#89b31c" d="M648.8,218.3c-7.6-23.2-3.2-28.1,2.9-51.7.5,9.2,2.7,22.6,2.6,30.3-.2,22.5-.7,47.8-2.6,70-5.2-19.6-8.6-28.5-3-48.6Z"/>
  <path fill="#c5e652" d="M623,383.3c4.9.5,11.7,2,16.5,3.4-27.6,2.7-44,6.8-64.8,28.6-3.1,3.3-5.4,9.6-9.2,11.8-.1-2.8,0-2.5.6-5.4l-.5-.7h-2.6c-3,3.6-3.8,4.1-8.1,5.7,10.9-17.9,27.2-34.7,48.7-38.2,7-1.1,13.5-1,19.3-5.1Z"/>
  <path fill="#effaa5" d="M727.8,302.9c-13.6,12.9-27.3,20.2-46,21.7l-.4-8.4c16.6-.8,31.5-6.3,46.4-13.3Z"/>
  <path fill="#effaa5" d="M822.4,379.1c16.2-4.8,27.9-9.1,44.3-4.2l4.6,2.5.9.9-6,2c-3.4,3.4-5.1,2.2-9.6.9-11.3-2.4-22.4-1.2-34.2-2.3Z"/>
  <path fill="#89b31c" d="M675.6,340.3c0,5.5.7,15-.9,19.9-5,3.4-17.5-3.6-24.2-.4-.6,0-1.3,0-1.9,0,9.3-7,17.6-11.4,27-19.5Z"/>
  <path fill="#effaa5" d="M548.3,527.5l2,4c3.8-1.1,6.9-9.4,9.9-13.4-3.8,15.9-9,30.5-12.6,45.3l-3,2.5-1.5-.5c2-11.3,5.2-23.7,3-34.8l2.3-3.2Z"/>
  <path fill="#89b31c" d="M1088.8,1337.6c-.9-5.5-9.7-10.2-6.8-18.8,3.7-4.8,8.6-6.1,14.2-8-.8,2-2.7,5.9-3,7.7l.8,2.6c-.6,4.8-1.4,12.3-3.8,16.4h-1.3Z"/>
  <path fill="#effaa5" d="M942.2,480.2c1.4,2.7,1.8,3.9,3.7,6.2-5.3,14.4-9.8,22-19.9,33.7,3.7-9.5,11.8-31.9,16.1-40Z"/>
  <path fill="#89b31c" d="M82.9,1564c1.9-7.2,4.6-19.1,8.5-24.9.1,7.9.7,33.5-.3,40.3l-1.4.9c-3-4.3,1.1-15.6-2.8-19.2-2.1,1.3-2.1,1.3-4,3Z"/>
  <path fill="#89b31c" d="M1072.8,1649.5c-6.2-5.3-7-1.1-14.2-5.9l.4-1.1c5-1.2,27.6-.3,34.3-.1-4.3,1.6-16.6,6.5-20.5,7.1Z"/>
  <path fill="#89b31c" d="M389.1,1524.3c-2.6-3.7-8.9-1.2-17.3-6.6l.7-.8c15-.8,17.3,2.6,29.4,3.7h1.1c-3.6,1.3-10.3,3.7-14,3.8Z"/>
  <path fill="#89b31c" d="M530.7,1486.1c-1-3.7-1.2-40,.3-44.1,5.3,6.5-1.1,28.4,2.1,37.2.2.4.5,2.8.5,2.8l3.9,1.2c-1.9.9-4.9,2.3-6.8,3Z"/>
  <path fill="#89b31c" d="M1315.9,1556.4c-1.2-3-5.3-5.1-8.3-7.2l.7-.9c7.9-.4,13.8,2.4,22.4,2.3-4.5,1.8-10.3,4.3-14.8,5.8Z"/>
  <path fill="#c5e652" d="M547.5,563.5c-1.8,8.5-4.3,18.4-7.6,26.4l-.6-.3c.9-5.1,2.6-21.2,3.6-24l1.5.5,3-2.5Z"/>
  <path fill="#effaa5" d="M856.6,381.4c4.6,1.2,6.2,2.5,9.6-.9,8.4,6.5,10.4,9.2,16.4,18-9.8-8-14.3-11.9-26-17Z"/>
  <path fill="#c5e652" d="M1093.2,1318.5c4.6-.1,5.9-.5,10.1.9-1.8,1.6-6.5,1.5-9.4,1.7l-.8-2.6Z"/>
  <path fill="#90c105" d="M579.3,473c-1.9,19.8-.3,39.1,12.5,55.2,18,22.6,55.3,9.3,73.6-6,15.7-13.2,10.9-34.5,14.2-52.3,1.6-8.7,7.5-23.9,12.1-31.5l.4.2c-.5,6-1.3,5.9-2.6,10.7-7,28.6-13.7,70.6,22.8,81.7,26,7.9,52.8,13.3,78.9,1.8,12.4-5.5,51.7-32.8,45.4-49,0-2.5.6-3.8,1.2-6.3l1.7-.2c16.1,17.9,26.3,18.8,45,30.9-11.2-2.7-23-5.7-33.4-10.7-5.6,33.6-.6,66.2,8.6,98.7,1.9,6.6,7.4,16.6,7.5,21.6-2-1.8-2.4-1.9-4.8-3.2-3.6-.3-5.3,1.2-8.5,3-10.8,9.7-20.9,27.6-20.9,42.3-.6,6.7.1,13.9-.4,20.5-.7,9-5.2,16.8-3.1,26.1,5.1,22.4,16,43.2,23.5,64.7,6.8,19.6,8.1,40.9,12,61.1,1.6,8.7,5.6,20.4,4.8,29.2-.5,5.7-7.3,12.8-9.6,18-2.6,5.8-3,11.4-7.4,16.4-5.8,2-57.7-.7-68.9-1l-151.5-3.3c-21.4-.5-42.3-2-64-2.3,5.1-17.5,11.1-36.5,15.3-54.1,2-8.3-.2-18,2.9-28.4,4.3-14.8,17.6-38.4,18.8-53,1.2-6.8,2.4-13.7,3.5-20.6.8-3,4.1-9.1,5.6-12.2-7.9-25.7-5.3-40.9,0-66.4,2.3-11.5,1.1-41.4-4.5-51.7l-1.1.6-1.2,4.9.2,4c-1,2.2-.3,1.1-1.9,3-9.2-14.4-6.5-51-9.5-68.4-26.2-28.7-29.9-43.3-21.6-80.8l3.1-3,1.1.4c.5,3.5.4,6,.4,9.6Z"/>
  <path fill="#effaa5" d="M579.3,473c-1.9,19.8-.3,39.1,12.5,55.2,18,22.6,55.3,9.3,73.6-6,15.7-13.2,10.9-34.5,14.2-52.3,1.6-8.7,7.5-23.9,12.1-31.5l.4.2c-.5,6-1.3,5.9-2.6,10.7-7,28.6-13.7,70.6,22.8,81.7,26,7.9,52.8,13.3,78.9,1.8,12.4-5.5,51.7-32.8,45.4-49,0-2.5.6-3.8,1.2-6.3l1.7-.2c16.1,17.9,26.3,18.8,45,30.9-11.2-2.7-23-5.7-33.4-10.7-5.6,33.6-.6,66.2,8.6,98.7,1.9,6.6,7.4,16.6,7.5,21.6-2-1.8-2.4-1.9-4.8-3.2-3.6-.3-5.3,1.2-8.5,3,.2-1.6,2.1-7,1.7-8.2-4.7-16.3-8.4-32.9-11.8-49.1-4-19.4-2.2-36-5.3-52.5-5.1,5.3-9.2,10.5-14.8,16-34.2,34-92,29.5-130.2,5.1-3.7-2.3-8.9-8.1-12-11.4-24.2,24.2-41.3,30.6-75.9,32.2.5,9.1.2,19.2.8,28,.9,12.1,1.6,18.1,1.1,30.3l.2,4c-1,2.2-.3,1.1-1.9,3-9.2-14.4-6.5-51-9.5-68.4-26.2-28.7-29.9-43.3-21.6-80.8l3.1-3,1.1.4c.5,3.5.4,6,.4,9.6Z"/>
  <path fill="url(#fixed_id_1)" d="M841.5,486.5c3.3,1.1,6.9,4.1,9.7,6.3-2.5,6.4-4.6,13.7-6.8,20.3-12.5-10.6-7.7-13.7-2.9-26.6Z"/>
  <path fill="#fdfef9" d="M596.6,540c4.7.5,8.3.4,12.5,2.5.9,1.9.7.9.5,3.1-3.2,1.3-5.4,2.8-8.6,2.1-2.6-1.8-3.2-4.7-4.4-7.8Z"/>
  <path fill="#effaa5" d="M608.9,733.1c10.4,4.1,21.1,5.1,31.2,8.2,30.7,6.6,97.6,5,128.5-.5,10.9-1.1,42-7.3,49.8-6.7-62.5,18.8-139.1,32.3-200.6,4.6-4.5-1.9-6.1-1.8-8.9-5.6Z"/>
  <path fill="#89b31c" d="M734.3,735.5c1.8-4,4.5-12.1,7.5-13.7-.7,3.2-1.4,6.4-2.5,9.4l-.8,1.6c9.9,5.8,26,6,30,7.9-30.9,5.5-97.8,7.1-128.5.5l2-1.9c.1-3.4-.3-2.3,1.1-5.1h1.6c4.7,6.9,1.5,1.4,9.8,1.3h79.6Z"/>
  <path fill="#effaa5" d="M747.4,675c9.1-12.5,13.9-23.5,12.5-39.9-.4-5.4-4.1-10.6-3.3-14.4,9.8,1.7,9.6,35.2,6,41.1-9.2,15.4-9.3,57.8-22.1,69.2l-1.2.2c1.1-3.1,1.7-6.3,2.5-9.4,5.4-19,8.6-26.5,5.5-46.8Z"/>
  <path fill="#89b31c" d="M605.4,753.6c1.2-6.8,2.4-13.7,3.5-20.6,2.8,3.8,4.3,3.8,8.9,5.6.3,3.8,2.1,7,3.7,10.5l-1.1-.3.3.2c-3.5-.2-12.3,2.9-15.3,4.6Z"/>
  <path fill="#effaa5" d="M623.4,609.8c4,2.9,3.1,6.8,9.9,12.4,7.6,1.2,15.2,2.3,22.8,3.3-7.4,1.5-15.8,2.8-23.3,4.1-6.4,20.1-7.9,38.5,16.4,44.6-11.9,7.1-13.7,11.4-13.8,24.8.7,4.5,5.5,28,4.7,29.5h-.1c-8.2-16.6-7.4-31.5-8.7-49.3-.6-8.8-4-20.3-4.7-29.1-1.1-14.5-.7-25.8-3.1-40.3Z"/>
  <path fill="#effaa5" d="M752.8,619.2h.8c0,0,.5,1.3.5,1.3-12,15.9-33.7,9.5-49.4,5.3-2.8-.6-2.2-.6-4.8-2.2.7-1.7,2.1-1.4,4.9-1.3,18.7.3,30.4,4.6,48-3Z"/>
  <path fill="#effaa5" d="M679.9,569c1.2.6.5.1,1.8,1.8-.5,8.9-3.5,14.3-2.5,26,.5,5.1,2.3,19.5,1.6,23-8.8-14.4-9.7-36.2-1-50.8Z"/>
  <path fill="#effaa5" d="M681.3,623.7l2.6,1.8c1.3,5.4-1.5,20.6-1.6,27.5,0,5.9,0,10.3.4,16.4-7.7-8.9-6.2-35.2-1.4-45.7Z"/>
  <path fill="#effaa5" d="M710.8,569.7c13.1.2,35.4,10.8,39.2,24.7-5.8-.8-16.2-12.1-22.3-15.8-6.1-3.7-10.3-5.9-16.9-8.9Z"/>
  <path fill="#effaa5" d="M825.7,702.1c.8.7.3.2.9,2-3.5,7.4-30.8,17.8-39,20.8l-.8-.9c3.1-4.7,30.3-15.1,38.8-21.9Z"/>
  <path fill="#effaa5" d="M826.2,559c.4.5.7,1.1,1.1,1.6-2.9,10.8-16.5,8.4-24.3,5.7-1.9-1.1-1.5-.9-3.1-2.4,2-1.6,18.1-2.2,26.4-4.9Z"/>
  <path fill="#effaa5" d="M643,573.3l.9.6c0,1-13.7,15.1-16.6,23.3l-1.5-.2c-4.5-12.3,8.2-19.6,17.2-23.7Z"/>
  <path fill="#effaa5" d="M828,584.3l1.7.3c-1.2,6-9,6.5-13.8,6.2-2.8-1.7-1.8-.6-3.3-3.2,2.2-1.9,11.6-2.7,15.4-3.3Z"/>
  <path fill="#effaa5" d="M1196.6,1399.7c-1.4-28.7-1.1-59.8-1.4-88.6-.9-47.8-1.3-95.5-1.1-143.3,0-7.2-1.3-53.5,1.3-56.8,3.1-.8,1.6-.9,4.8.9,4.2,6.3,2.3,14.7,2.4,22.3l.5,41.4c.6,62.6,0,125.2-1.6,187.7v1.2c-1.4,10.9-1,21.9-1.3,32.9-.2,6.5-1.4,11.7-1.4,18.5-.3-4.2-.2-13.3-2.2-16.2Z"/>
  <path fill="#effaa5" d="M142.8,1548.8c4.2-7.7,13.2-8.3,21.5-10.4,54.8-14.3,113.9-30.7,168.2-44.6,15-3.8,145.1-38.7,151.5-37.7-3.5,1.7-40,11.9-45.6,13.5-63.8,19-127.8,37.2-192.1,54.8-13.1,3.6-93.1,23.1-98.7,27.6-2.1.8-1,.6-3.2.7l-1.6-3.8Z"/>
  <path fill="#effaa5" d="M1192.4,1557.2h1.4c-4.7,7.6-141.9,55.3-160.8,64.1-2.8,6.6-6.7,19.5-9.4,26.9-.4.2-.9.3-1.3.5-.3-9.2,5.4-20.6,5.2-33.5,24.1-10.7,60.2-22.4,85.4-31.7,22.2-8.2,57.6-21.2,79.5-26.2Z"/>
  <path fill="#effaa5" d="M948.7,608.3c8.8,10.2,11.4,45.6,6.5,58.4-5.8,15.2-4.2,24.2-4.7,39.9-.7,22.4-13.3,46.7-25.9,64.8,2.8-9.2,7.4-19.1,11.2-28,10.4-26.3,11.2-32.5,14.4-60.4-5.3,6.9-11.5,16.3-17.8,21.5,10.3-19,26.1-45.1,23-67.5-1.2-9-6.7-19.3-6.7-28.7Z"/>
  <path fill="#effaa5" d="M760.9,381.9c11.3-2.4,34.1-.4,46.4.5-6.2,1.2-19.2,3.4-25.3,3.5-14.3.1-44.2,5.3-57.6,10-3.9,1.4-8.8,4.8-14.1,6.8l-.4-.8c16.6-17.6,27.4-17.4,51.1-20Z"/>
  <path fill="#c5e652" d="M760.9,381.9c11.3-2.4,34.1-.4,46.4.5-6.2,1.2-19.2,3.4-25.3,3.5,2.2-.7,2.4-.8,4.4-2-4.3-3.1-19.2-2.1-25.4-2Z"/>
  <path fill="#effaa5" d="M1344.6,1501.5h.8c-8.1,6.3-95.3,38.1-108.4,40.1h-.9s.3-1,.3-1c5.4-4.3,25.5-9.9,32.8-12.9,24.7-10.4,49.9-18.4,75.5-26.2Z"/>
  <path fill="#c5e652" d="M1201.5,1363.4c1,14.7,0,40.5-.3,55.6-.7,28.7-1.6,57.4-2.7,86-1.1-11.5-3.2-103.5-1.9-105.3,1.9,2.9,1.9,11.9,2.2,16.2,0-6.8,1.1-11.9,1.4-18.5.4-10.9,0-21.9,1.2-32.9v-1.2Z"/>
  <path fill="#effaa5" d="M540.3,635.9c4.7,8,9.5,16,14.5,23.8,8.7-2.4,17.6-7.4,26.9-10.5-6.1,7-9.9,9.6-17.3,15.2-2.9,1.5-4.5,2-7.6,3-.9,8.1-2.4,12-5.4,19.3.5-27.6-9.7-34.3-11.1-50.8Z"/>
  <path fill="#effaa5" d="M662.1,387.2c19.8,0,24.2,4.1,34.4,20.3-7.3-4.1-9.9-8-18-11-6.6-2.2-36.2-5.7-37-6.7,6.2-1.5,14.2-2,20.7-2.6Z"/>
  <path fill="#effaa5" d="M898,647.4c6.9-8.2,8.6-18.9,14.7-28.8-2.7,17.1-10.3,37.3-15.5,54.2-.2-9.2,1.7-16.8-3.3-23.3-2.9-1.5-3-1.5-6.2-2.3l-1.1-5.5c3.3-.4,7.7,3.4,11.4,5.7Z"/>
  <path fill="#89b31c" d="M903.6,786.8c1.6,3.9,1.7,39.5-.8,43.5-2-2.5-2.1-7.5-2.5-10.9-1-8.4-1.2-18.5.7-26.7.8,2.7,1.3,5.2,2,8l.6-.3v-13.5Z"/>
  <path fill="#c5e652" d="M523.5,835.8l-1.1-.2c-2-3.8-1-32.5.9-35.9,1.4,6.6,1.8,21.3,2.2,28.6-.6,2.5-1.3,5-2.1,7.5Z"/>
  <path fill="#c5e652" d="M733.2,353.2c3,9.7-11.7,30.9-18.2,37.8-.3-3.7,9.3-18,11.4-22.7,2.2-4.9,4.7-9.9,6.7-15.2Z"/>
  <path fill="#c5e652" d="M574.8,466.1c1.7-5.9,7.1-18.6,11.4-22.7l.3.9h0c-.6,5.6-3.5,12.2-5,17.9-1,3.6-1.3,7.5-2.2,10.7,0-3.6,0-6.1-.4-9.6l-1.1-.4-3.1,3Z"/>
  <path fill="#c5e652" d="M142.8,1548.8l1.6,3.8c2.2,0,1.2.2,3.2-.7-.9,3.5-10.1,24-11.9,27.1,2-9.8,6-20.5,7.1-30.2Z"/>
  <path fill="#c5e652" d="M836.8,483.8c-2.5-3.9-8.4-16.7-7.9-20.9,3.1,2.2,9.5,11.1,10.8,14.4l-1.7.2c-.7,2.5-1.3,3.8-1.2,6.3Z"/>
  <path fill="#89b31c" d="M563.4,759.8c.5-7.4-4.2-16.9-1.5-24.2h1.8c2.8,5.6-.7,10.5,1.7,14.5l3.3.7c-1.8,3-3.6,6-5.3,9Z"/>
  <path fill="#90c105" d="M561.5,931.4c65.2,3.2,130.3,5.8,195.5,7.9,34,1.1,69.6,1.1,103.3,3.4,6.4,13.1,8.1,16.6,22.2,21.9.6,6.5,1.6,13.4,2.5,19.8,2.6,17.5,4.8,14.7-9.8,23.6,0,17.4-2.4,34.1-4.9,51.2-1.5,10.4-7.7,37.6-6.8,46.6v1.7c6.2,17.5,2.6,44.3,7.4,64,6.3,26.1,19.4,46,27.2,71.3,9,29.3,6.1,53.1,1.8,82.5l-9.2,59.9c-.6,4.1-5.4,40.4-6.5,42.3-4.5,33.9-8.2,44.9,5,75.8-4,11.5-5.1,14.1-3.9,26.5,17.4,32.2,7,35.8-3.7,65.3-21.1,15.7-43.3,15.2-66.6,15.8-55.8,1.2-47.1-17.8-18.2-52.9,19.7-23.9,25.5-38.3,20.9-70.3,29.8-57-16.9-129.3-27.4-185.3-3-16-.3-51,5.1-66.9v-2.4c.8-9.3-12.4-27.3-15.7-36.5-5-14-14.3-39.8-13.6-54-39.9-48.4-20.3-60.6-33-116.6-.8-3.7-.7-3.2-3.2-4.6-5,.7-9,.2-11,5.2-4.8,27.4-16.1,55.2-24.5,81.7-2.7,8.7-1.4,22.3-3.7,31.6-3.8,21.5-14.6,43.6-24.3,63.2,5.4-5.1,9.6-9,14.5-14.5.9,5.5,3.5,16.6,5.7,21.5,2.6,9.9,4.6,18.2,6.5,28.4,9.6,49.5,7.1,59.6-9.1,104-16.2,44.3-21.6,115.1-10.2,161,2.5,10,3.7,19.1,8.3,28.7-1.5,7.1-2.7,12.1-4.9,18.9-22.6,11.9-41.5,4.8-64.8,8.4-11.2,1.7-21.6,8.6-31.9,12.9-16.4,5.9-36,7.2-53.5,7.2-10.1,0-37.5-1.9-33.4-18.3,4.8-19,35.6-19.1,49.1-28.9,10.6-7.7,20.4-18.2,30.3-26.9,6.8-6.2,16-12.9,21.9-19.4,3-3.4,5.3-7.3,6.9-11.5,2-5.5,2.1-13.2,2.4-19.1,2.8-60.3-15.1-118.4-18.5-178.2-.5-18.9,1.1-40.8,3.6-59.4,3-22.7,3.4-29.3-3.1-50.6-3.1-10.1.8-44.3,3.5-55.7-1.5-2.1-3-4.3-4.5-6.4-20.3-27.7-24.9-62.7-25.4-96.2,0-3.7,0-7.2,2.5-9.8,0-2.8-.3-4.2-.8-6.8-3.4-1.1-6-4.2-8.6-6.8,3.4-15.3,6.4-38.1,8.5-54.1Z"/>
  <path fill="#effaa5" d="M709.6,952.2c6.5,18.2,9.1,38.3,15.4,55.2,29.1,4.2,58,3.3,87.3,1,13.4-1.1,26.9-4.3,40.3-6.1-27.8,10.7-57.2,16.4-87,16.7-10.6.1-20.2-1.8-30.5-1.3-3.2.2-3.6,1.4-5,3.5-5,.7-9,.2-11,5.2-.8-6.8-3.5-16.9-4.8-24.3-2.8-16.5-4.3-33.2-4.5-50Z"/>
  <path fill="#fdfef9" d="M719.7,1005.4c8,5.6,13.8,4,16.9,7.5-1.1,2.6-1.8,2.1-5.5,3.6-3.6,1.5-1.7,3.7-8.1,3.4-5.8-3-4.6-8.8-3.3-14.5Z"/>
  <path fill="#89b31c" d="M885.2,1529.8c-5-2.6-4.7-3.8-7.7-7.9-.5,4.1-.6,5.7-1.7,9.6h-1.3c-2.1-4.7-1.7-121,.1-123.4l1.1.5c1.2,4.2,1.6,23.7,1.8,29.2,1.3-4.2,3.4-7.5,6.6-10.4-4.5,33.9-8.2,44.9,5,75.8-4,11.5-5.1,14.1-3.9,26.5Z"/>
  <path fill="#effaa5" d="M561.6,992.2c3.2-.8,34.3,7.6,40.2,8.8,32.3,6.4,63.5,6.2,95.6,8.6-42.4,5.5-77.3,5.4-119.1-5.4-3.5-.9-13.2-3.5-15.9-5.1,0-2.8-.3-4.2-.8-6.8Z"/>
  <path fill="#89b31c" d="M686.6,1209.9c2.6,9.9,4.6,18.2,6.5,28.4-.9.6-1.8,1.1-2.6,1.7-4.3,14.7,1.9,70.9-4.2,80.4,0-19.3,0-38.7-.3-58-.1-11.8-.7-24.4.5-36,.6-5.2-.2-10.3.1-16.3Z"/>
  <path fill="#effaa5" d="M863.7,1107.4c.6,7.3-6.4,40.5-10.5,43.7-1.6-11.8,4.6-35.1,8.7-46.5l1.6,1.1v1.7Z"/>
  <path fill="#c5e652" d="M585.3,1105.1c1.3-6.5,2.8-15.4,4.6-21.5.8,8.6,1.9,19.4,0,27.9-1.5-2.1-3-4.3-4.5-6.4Z"/>
  <path fill="#c5e652" d="M795.3,1233l1.8-1.3c4.4,3.3,8.3,19.5,9.5,25.1l-11.2-21.4v-2.4Z"/>
  <path fill="#effaa5" d="M643.7,1249.6c.5.5.9,1.1,1.4,1.6-.7,12.5-3.9,25.8-2.9,38.5,1.3,16.8,6.1,30.3,14.4,44.3-8.8-8.1-11.5-13.7-17.2-24.4,0,12.8.6,26.6,1,39.5.4,5.2,2.2,24.1.5,27.7-6.5-18.5-10.2-78-6.6-97.2,2.2-11.8,4.6-19,9.5-29.9Z"/>
  <path fill="#effaa5" d="M793.9,1118.9c2.2,6.9-10.9,35.3-6.8,48.2,3.8,12.1,10.6,18.3,14.4,29.2-4.6-5-7.9-9.6-11.9-15.1-5.6-7.9-7.8-14.8-11-23.8-4.4-3.6-7.4-4.1-11.7-8.6-.2-2.5,0-3.3.2-5.8,2.1-2.2,4.7,4,11.3,3.8,5.3-7.2,7-16.4,15.6-27.9Z"/>
  <path fill="#effaa5" d="M600.1,1101.5c.7.8.5.6.9,1.6,3.5,8.1,10.6,16.5,17.1,22.3,10.1,9,21.2,12.8,34.5,11.3l.7.9-1.5,2c-11.7,7.2-22.4,5.4-33-3.3-10.5-8.7-17.3-21.2-18.7-34.9Z"/>
  <path fill="#effaa5" d="M873.2,1247.8c.4.6.8,1.1,1.1,1.7,2.1,3.5,5,14.2,6,18.4,6.7,27.2,6.1,41.4-.3,67.9-.2,1-.7,1.9-1.2,2.9-1.1-1.7-.5-15.6-.3-18.5,1.9-24.7-3.6-48.3-5.4-72.4Z"/>
  <path fill="#effaa5" d="M812,1274.9l1.6.8c8.8,16.5,11.5,59.4,11.4,79.1l-.8.2c-4.9-20.4-12.8-60.8-12.2-80.1Z"/>
  <path fill="#effaa5" d="M804.1,1086.5c14.2,14.6,17.9,17.2,37.6,23.2.3,3.4,1.2,7.8-.3,10.7-2.8.2-1.3.4-4.2-2-19.1-8.2-24.1-13.5-33.1-31.9Z"/>
  <path fill="#effaa5" d="M654.7,1032.2c13,20,14.7,46.1,10.9,69l-.5.5c-1.7-3.7-2.2-21.5-3-27.9-1.7-13-6.6-29.2-7.4-41.7Z"/>
  <path fill="#effaa5" d="M652.8,1454c2.8,7.6,4.8,18.2,6.2,26.1-3.3,8.5-3.9,12.3-11.8,16.4l-3.3-.8c.5-4,7.6-8.7,8.5-12.6,1.9-8.3.3-19.9.4-29.1Z"/>
  <path fill="#effaa5" d="M625.6,1158.9c4,6.7-3.9,21.8-6.8,28.8l-1-1.6c-.5-7.9,3.6-20.5,7.8-27.2Z"/>
  <path fill="#c5e652" d="M844.4,1180.2c5.2,3.3-2.4,29-5,34.7l-.4.3c-1.1-3.5,4-30.2,5.5-35Z"/>
  <path fill="#c5e652" d="M841.7,1109.7c3,6.5.3,28.4-.3,37.2-1.6-8.4-2.2-22.9-4.3-28.6,2.9,2.4,1.5,2.2,4.2,2,1.5-2.9.6-7.2.3-10.7Z"/>
  <path fill="#89b31c" d="M873.9,1583.5c2.3,3.5,1.8,8.5,2,12.8-2.9-4.1-2.2-7.8-2-12.8Z"/>
  <path fill="#90c105" d="M1153.7,18c24.3-.9,56,.2,80.9.3-1.3,101.5,0,206.4,0,308.2l-.3,417.7c3.2,2.8,21.3,8.6,25.2,9,7.6,0,14.3,4.5,20.1,8.9,33,29.5,43,87,47.2,129.3.7,7.3-3,11.6-2.3,18.1h1.9c21.9,1.3,65.5-9.2,60.5,25.4-4,27.3-39,14.7-61.9,17.1l-.5,1c1.3,44-15.1,101.4-45.3,134.7-7.3,8-18.9,15.6-30.4,14.7-23.3-1.8-52.1-.9-74.5-7.1-7.9-2.2-15.5-8.5-21.3-13.7-8.1-7.3-23.4-32.4-24.8-41.9-3.9.7-4.1,1.3-6.5,4.8-2.4-.2-5.3-14.6-6-17.1-10.9-43.6-14-88.8-9.2-133.5,1.2-11.5,8.6-65.6,16.1-71.7,4.8-2.9,8.5-10.4,10.9-15.6,7.2-15.6,20.7-29.2,21-46.8l-.9-741.9Z"/>
  <path fill="#90c105" d="M1153.7,18c24.3-.9,56,.2,80.9.3-1.3,101.5,0,206.4,0,308.2l-.3,417.7c3.2,2.8,21.3,8.6,25.2,9l1.2,1.1c-5.7,1.3-11.2.1-16.8.6-28.4,2.4-57.1-8.9-80.4,11.9-22.6,21.2-38.8,67.4-42.7,97.9-6.7,26.2-9.2,101.3-2.1,127.1,1.1,12.1,4.4,23.7,7.5,35.4.7,2.9,3.6,10.3,2.2,12.4-3.9.7-4.1,1.3-6.5,4.8-2.4-.2-5.3-14.6-6-17.1-10.9-43.6-14-88.8-9.2-133.5,1.2-11.5,8.6-65.6,16.1-71.7,4.8-2.9,8.5-10.4,10.9-15.6,7.2-15.6,20.7-29.2,21-46.8l-.9-741.9Z"/>
  <path fill="#effaa5" d="M1154.6,759.9c7.4-3.8,18.5-12.7,27.7-15.7,1.8-.6,4.7-.3,8.3-1.3,1.8-1.8,2.6-2.3,2.7-5.4.2-17.3,0-35.2,0-52.4v-111.2s2.8-296.7,2.8-296.7l1.9-133.5c.3-15.8-.6-35.1.4-50.5l.7.6c0,8,.9,15.2,1,23.1l.7,69.4,1.3,154.8c.9,117.1,1.2,234.1.8,351.2,0,16.6-.4,34,0,50.5,5,0,27.8.3,31.4,1.2,3.2,2.8,21.3,8.6,25.2,9l1.2,1.1c-5.7,1.3-11.2.1-16.8.6-28.4,2.4-57.1-8.9-80.4,11.9-22.6,21.2-38.8,67.4-42.7,97.9-6.7,26.2-9.2,101.3-2.1,127.1,1.1,12.1,4.4,23.7,7.5,35.4.7,2.9,3.6,10.3,2.2,12.4-3.9.7-4.1,1.3-6.5,4.8-2.4-.2-5.3-14.6-6-17.1-10.9-43.6-14-88.8-9.2-133.5,1.2-11.5,8.6-65.6,16.1-71.7,4.8-2.9,8.5-10.4,10.9-15.6,7.2-15.6,20.7-29.2,21-46.8Z"/>
  <path fill="#89b31c" d="M1202,341.4l2-3.2,1.3-.2c2.2,3.6,5,335.6.2,347.2,1,2.9.9,9.1-.5,11.8-2.1-1.2-1.2-.7-2.2-4.4.4-117.1.2-234.2-.8-351.2Z"/>
  <path fill="#90c105" d="M1324.4,909.7h1.9c21.9,1.3,65.5-9.2,60.5,25.4-4,27.3-39,14.7-61.9,17.1-5.6-5.9-55,0-65.2-3.8-5.2-1.9-4.5-1.6-7.9-7-.7-7.7-2.2-30.4,9.8-30.7,19.4-.6,39.4,1.8,58.8,1,3-.1,2.3.1,4.1-2Z"/>
  <path fill="#effaa5" d="M1371.5,920.4c3.1,4.4.5,17.2-.5,22.8-4.4-6.9-3.3-15.9.5-22.8Z"/>
  <path fill="#effaa5" d="M1273,958.7c-4.6,6.7-14.4,20.6-23.4,8.4-9.3-12.6-8.8-32.1-8-47,.8-13.8,13.9-48.5,28.6-24.4l3,4.6c15.5,6.6,32.8-4.8,48.7,4.3.7,1.9,1,2.8,1.6,4.8l1,.3c-1.8,2.1-1.1,1.8-4.1,2-19.5.8-39.4-1.5-58.8-1-12,.4-10.5,23-9.8,30.7,3.4,5.3,2.7,5.1,7.9,7,10.3,3.7,59.6-2.1,65.2,3.8l-.5,1c-.8,4.8,0,4.2-2.7,6.7-3.7.4-6,.1-9.7,0-5,36.2-12.8,84.1-42.3,109.2-14.6,12.4-27.2,6.1-40-3.6l2.7-1.3c49.1,33.1,71-75.2,71.3-104.8-7.5-.9-23.3-.9-30.7-.5Z"/>
  <path fill="#fdfef9" d="M1258.9,891.1c5,1.6,12.6,8.6,11.7,14.4-3.4,2.1-4.3,1.3-9.1,1.3-3.7,1.5-7.1,2.7-10.3.3-1.5-6.2,3.4-12.1,7.7-15.9Z"/>
  <path fill="#fdfef9" d="M1250.8,950.4c4.9.5,14.2,1.8,17,5.8.7,3.7-.8,5.7-2.5,9.1-2.8,1.8-2.9,2.2-6.2,2.6-8.1-2.5-10.4-9.8-8.3-17.5Z"/>
  <path fill="#effaa5" d="M1249.2,783c38.3-8.9,52.7,51,58.6,77.5,2.9,13.2,2.8,26.8,5.1,39.8,4.8.5,7.2,0,10.4,2.7.3,2.9.3,3.6,0,6.4-.6-2-.9-2.9-1.6-4.8-15.9-9.1-33.2,2.3-48.7-4.3l-3-4.6c3.7-7.6,20.1-.9,26-6.6,4.2-3.9,3.6-20.3,4.5-27.8-1.6-24.1-16.5-65.7-41.6-74.3-5.5-.9-5.2-.8-9.9-4Z"/>
  <path fill="#89b31c" d="M1300.7,861.3c2.6,12.6,3.6,25.9,4.4,38.7-9.2.4-24.3-.6-32,.3l-3-4.6c3.7-7.6,20.1-.9,26-6.6,4.2-3.9,3.6-20.3,4.5-27.8Z"/>
  <path fill="#89b31c" d="M1259.4,753.4c7.6,0,14.3,4.5,20.1,8.9-1.8.5-3.6,1.5-4.6,1.8-23.3,6.9-50.5,0-74.8,3-1.4.2-8.7,4.3-10.9,5.3-3.4-2.4-2.4-5.2-3.1-5.2-6.6-.6-16.4.2-22.8-.2,23.3-20.8,52-9.5,80.4-11.9,5.6-.5,11.1.7,16.8-.6l-1.2-1.1Z"/>
  <path fill="#89b31c" d="M1120.6,864.9c3.1,9.1.7,88.2,2.2,103.5.3,3.1-1.8,18-2.7,21.3-.2.9-.9,1.5-1.6,2.3-7.1-25.8-4.6-100.9,2.1-127.1Z"/>
  <path fill="#c5e652" d="M1259.1,787c-24.6,1.8-23.7,10.8-36.2,25.2-1.3-8.8,17.9-26.6,26.4-29.3,4.6,3.2,4.4,3.1,9.9,4Z"/>
  <path fill="#c5e652" d="M1229.6,1065.3c-4.6-3.5-8.5-10.1-10.6-15.5,1.6,0,10,10.7,12.1,12.9l1.2,1.3-2.7,1.3Z"/>
  <path fill="#effaa5" d="M1179.7,784.8l3.4,1.8c-36.4,70.2-41.2,181.9-17.6,256.6,1.5,4.6,3.2,9.2,5,13.7-1.6,1.5-.9,1.3-2.7,1.7-38-68.9-33.8-209.3,11.9-273.9Z"/>
  <path fill="#c5e652" d="M1203.7,807.4c.5,2.6-9.1,30-10.5,36-11.5,48.5-17.9,122-4.7,170.6-2.1-2-2.3-4.1-2.9-6.9-11.7-54.9-9.9-111.7,5.2-165.7,2.4-8.4,8.2-26.6,13-34Z"/>
  <path fill="#c5e652" d="M1170.6,1056.9c3.6,5.7,7.7,14.8,10.7,21-4.3-4.4-12.2-13.6-13.5-19.3,1.9-.5,1.2-.2,2.7-1.7Z"/>
  <path fill="#c5e652" d="M1179.7,784.8c4.7-6.1,7.5-9.1,13.3-14.5-3.1,5.1-6.7,11.3-9.9,16.3l-3.4-1.8Z"/>
  <path fill="#90c105" d="M161.6,738.7c15.1-1.2,55.3,0,71.1.8,11.2.6,32.4,16.2,38.9,26.2l.2,31.4c-1.7,1-12.9,5.6-13.8,7.4-4.5,9.6,5.1,69.7-3.7,73.4-10.1-4.4-9.4-19.1-28.6-13.5l-1.4.4c-8.1,7.8-12,16.9-13.3,27.8-1.2,14.3,2.5,39.8,20.4,42,12.4,1.6,15.8-12.8,23.5-8.3,2.9,5.7,1.4,39.4,1.4,48.8,5,4.3,8.9,6.7,14.9,9.3,0,12.9.7,26.3,1.1,39.3-3,5.7-5.4,10.9-9.7,15.7-30.1,28-61.5,15-98.7,14.8-63.7-1-80.6-80.1-87.6-129.8-7.6-54.3,18.4-180.6,85.4-185.7ZM166.7,1024.4c4.1,6.9,12.3,10.7,19.2,14.4-6.2-6.1-12-11.5-17.2-18.5-17.3-18.9-26.2-70.9-28.5-96.6-3.9-43.6,9.3-121.5,38.3-154.8,4-2.5,9.2-9,11.9-12.8-4.5,2.8-10.6,6-13.9,9.8-55.6,57.1-61.3,198.3-9.9,258.6ZM132.6,1020.7c6.6,8.1,8.8,9.3,17.8,14-3.2-3.7-9.5-11.2-12.8-14.2-15.1-22.9-20.6-45.5-25.5-72-9.4-50.7-3.3-97.3,13.9-145.4,4.7-12.3,8.4-20.4,16.2-30.8,2.2-2.8,4.3-5.2,6.6-7.9,5-4.8,9.8-9.8,14.4-15-7.4,3.8-10.3,5.9-15.9,11.8-2.1,2-5.7,5.3-7.3,7.5-5.5,6.9-13.6,16.5-17.3,24.2-31.5,69.8-33.7,162.4,9.8,227.7Z"/>
  <path fill-opacity="0" d="M176.5,765.8l1.9.8v2.3c-28.9,33.3-42.1,111.2-38.2,154.8,2.3,25.7,11.2,77.7,28.5,96.6l-2,4.1c-51.4-60.3-45.7-201.5,9.9-258.6Z"/>
  <path fill-opacity="0" d="M122.8,793l2.5.6c1.1,4.2.9,5.1.7,9.6-17.2,48.1-23.3,94.7-13.9,145.4,4.9,26.6,10.4,49.1,25.5,72l-1.3,1.2-3.7-1.1c-43.4-65.3-41.3-157.9-9.8-227.7Z"/>
  <path fill="#effaa5" d="M140.1,768.8l2.1,3.6c-7.8,10.4-11.5,18.5-16.2,30.8.2-4.5.4-5.3-.7-9.6l-2.5-.6c3.7-7.7,11.8-17.3,17.3-24.2Z"/>
  <path fill-opacity=".2" d="M168.7,1020.2c5.2,7.1,11,12.4,17.2,18.5-6.9-3.7-15.1-7.5-19.2-14.4l2-4.1Z"/>
  <path fill-opacity=".3" d="M137.6,1020.5c3.4,3,9.6,10.5,12.8,14.2-9-4.7-11.2-5.8-17.8-14l3.7,1.1,1.3-1.2Z"/>
  <path fill-opacity=".3" d="M190.4,756.1c-2.7,3.9-7.9,10.3-11.9,12.8v-2.3c-.1,0-2-.8-2-.8,3.4-3.7,9.5-7,13.9-9.8Z"/>
  <path fill-opacity=".6" d="M147.4,761.3c5.6-5.9,8.5-8,15.9-11.8-4.7,5.2-9.5,10.2-14.4,15l-1.5-3.2Z"/>
  <path fill-opacity=".3" d="M140.1,768.8c1.5-2.2,5.2-5.5,7.3-7.5l1.5,3.2c-2.3,2.7-4.4,5.1-6.6,7.9l-2.1-3.6Z"/>
  <path fill="#90c105" d="M23.4,912.6c-6.3-7.6-10.4-21.3-3-28.9,7.7-8,31.6-3.4,42.5-3.8h1.4c3.6,3.6,3.8,30.2-.5,33.4-12-.8-28.2-.6-40.4-.7Z"/>
  <path fill="#89b31c" d="M64.3,879.8c3.6,3.7,3.8,30.2-.5,33.5l-.3-21.1c-6.8,0-32.8-1.4-36.9.6-2-2.2-1.3-1-2-4,5.1-7.3,35.9-3,39.2-4.7l.5-4.3Z"/>
  <path fill-opacity="0" d="M1159,1325.1c7,1.3,12.1,2.3,19,4.2-4.8,1.2-14.5,3.9-18.9,4.4,1.8-1.6,3.1-2.5,4.5-4.5l-4.5-4.1Z"/>
</svg>