<?xml version="1.0" encoding="UTF-8"?>
<svg id="fixed_id_0"  xmlns="http://www.w3.org/2000/svg" version="1.1" xmlns:xlink="http://www.w3.org/1999/xlink" viewBox="0 0 1273 1736.3">
  <!-- Generator: Adobe Illustrator 29.3.1, SVG Export Plug-In . SVG Version: 2.1.0 Build 151)  -->
  <defs>
    
    <linearGradient id="fixed_id_1"  x1="635.9" y1="1291.4" x2="569.2" y2="1283.9" gradientTransform="translate(0 1741.9) scale(1 -1)" gradientUnits="userSpaceOnUse">
      <stop offset="0" stop-color="#f8fddb"/>
      <stop offset="1" stop-color="#feffff"/>
    </linearGradient>
    <linearGradient id="fixed_id_2"  x1="702.8" y1="663.3" x2="674.8" y2="671.9" gradientTransform="translate(0 1741.9) scale(1 -1)" gradientUnits="userSpaceOnUse">
      <stop offset="0" stop-color="#e8fd9d"/>
      <stop offset="1" stop-color="#fffefc"/>
    </linearGradient>
    <linearGradient id="fixed_id_3"  x1="480.3" y1="504.9" x2="509.1" y2="491.4" gradientTransform="translate(0 1741.9) scale(1 -1)" gradientUnits="userSpaceOnUse">
      <stop offset="0" stop-color="#f5fdcc"/>
      <stop offset="1" stop-color="#fefdf5"/>
    </linearGradient>
    <linearGradient id="fixed_id_4"  x1="582.6" y1="709.9" x2="575.9" y2="709.7" gradientTransform="translate(0 1741.9) scale(1 -1)" gradientUnits="userSpaceOnUse">
      <stop offset="0" stop-color="#f1fcbd"/>
      <stop offset="1" stop-color="#f5f8de"/>
    </linearGradient>
    <linearGradient id="fixed_id_5"  x1="672.4" y1="407.8" x2="663.6" y2="406.2" gradientTransform="translate(0 1741.9) scale(1 -1)" gradientUnits="userSpaceOnUse">
      <stop offset="0" stop-color="#a8bd6f"/>
      <stop offset="1" stop-color="#e2f6a8"/>
    </linearGradient>
  </defs>
  <path fill-opacity="0" d="M-399.3-153H1648.7V1895H-399.3V-153ZM743.2,842c3.4,9.6,9.7,30.8,16.1,37.6,16.3-.8,45.6-1,61.9-3.3,1.2-.2,3.2-3.9,3.1-5.4-2.5-36.1-56.3-92.4-73.6-116.5l-.8-1.1-1.2-1.3c-3.3-4.2-8.7-11.5-12.6-14.6-10.7,1.6-7.4,35.2-5.8,43.6,1.3,15.6,6.6,47.7,12.9,61ZM708.7,172l1.1-.7c.7-6.5,0-14.9-1.1-21.4-.8-5.3.3-15.9-2.8-19.1.2,4.9-3.1,10.4-2.8,13.8.7,9,4.1,18.4,5.6,27.4Z"/>
  <path fill="#c2da6d" d="M537.6,91.7c3.8-13.4,20.8-29.8,32.7-36.5,43.7-24.4,100-18.8,124.1,29.4,8.1,16.2,8.4,29.5,11.6,46.2.2,4.9-3.1,10.4-2.8,13.8.7,9,4.1,18.4,5.6,27.4l-.3,1.3c-4,16.7-3.9,68.6-17.3,76.5-7.4,4.3-17.9,5.2-26.4,5.7-.8,12.2-1.7,23.1,0,35.3,8.7,13.2,32.4,31.4,45.2,41.8,7.4,6.1,25.8,13.6,35,19.3,40.3,24.9,50.3,76,43.1,119.8-2,12.3-8.6,24.6-8.8,37.5-.4,19.9,8.8,42.8,12,62.2,2.3,13.9,3.5,34.9,4.3,49.1,9.3,13.6,22.2,29.7,28.3,44.2,19.6,46.6,15.5,98.7,40.7,142.9,5.2,9.1,7.4,14.4,14.5,22.4,16.2,5,25.8,11.3,39.4,21.5,10.4,5.7,11,16.2,20.9,18.1l-1.9,1.2c.6,7.9-6.3,16.3-4.8,27.2l1.5,1c-4.8,5.5-6.8,8.8-10.7,15-15.8,5.6-29.9,16.1-46,19.2,1.7-.3-27.3-5.8-27-5.6-8.2-4.4-12.1-15-20.3-20.9-7.1.4-56,1.7-59.2,4.4-.7,2.2-1,2.8-1.3,5.1l1.9,3c.8,6,2.3,12.9,1.3,18.4-3.6,3-13.3,6.7-17.9,8-22.9,6.4-46.1,12-69.4,16.7-10.8,2.2-21.6,6-32.5,8.2-11.5,2.4-23.3,3.2-34.8,5.7-3.2.7-4.7-4.9-5.4-7.1-.5-.2-7-1.1-6.4-.7-14.9-10.6-26-16-44.3-15-.3,0-11.4-1.3-11.5-1.3-5.8-2.4-15.5,5.3-18.8,3l.2-2c-10.9,3.6-22.4-2.4-27.1.5-8.5,5.2-13.4,4.2-22.8,4.5l-1.1.7c-5.8,3.7-15.5,9-22.4,7.9-7.1-5.6-.5-13.3-11.2-24.7-1-1.4-1.9-4.9-2.4-6.7-4.3-1.9-48.9-.3-57.8-.3-.5,6.7-.9,16.4-2.5,22.7.9,5.3-.6,13-1.3,18.4-3.4,27.6-13.2,56.2-28.7,79.3-26.5,39.4-86.8,51.2-125.1,22.9-35-25.8-53.8-72.9-60.6-114.7l-.9-3.5c-4-2.8-102.4,8.9-122.9,4.2-12.9-12.1-16.8-46,4.7-51.4,7.6-1.9,19-1.5,27.2-1.9l54.4-2.5c8.3-.4,23.4-.7,31.2-2.1,3.8-4.9,5.1-29.2,6.5-37.5,1.5-8.4,3.4-16.8,5.6-25,8-29.4,22.5-59.6,49.8-76.4,16.6-10.2,55.5-10.4,73.5-4.9,45.1,13.8,68,65.4,79.8,107,2.3,8.1,4.3,23.8,6.9,28.7,3.5,2.4,48.8,1,55.4.8.5-12.5.4-24.7.5-37.2.1-11.1,2.3-19.1.2-30.2-1.4-15.2-33.8-51.7-36.3-67.6-8.2-11.8-21.3-85.6-25.5-105-.8-3.8,2-24.6.8-31.5-1.6-9-4.2-19.3-5.7-28-3.8-22-8.3-45.7-11.4-67.6-3.5-24.8,1.4-42.4,13.2-63.9,2.2-5.4,7.4-14.1,8.4-19.7,4.1-24.5-.2-42.2,9.1-66.5,9.9-25.7,24.5-39.1,48.6-52.4,6.4-3.5,14-8.1,20-12.5,13.3-11.7,21.6-23.6,36.8-33.7,16-10.6,47.2-25.9,52.2-46.8,1.6-14.6-2.8-34.5-7.6-48.1-4-11.2-10-19.5-11.2-31.1l-1.4-2c-2.4-19.9-4.4-45.1,6.6-63.3ZM743.2,842c3.4,9.6,9.7,30.8,16.1,37.6,16.3-.8,45.6-1,61.9-3.3,1.2-.2,3.2-3.9,3.1-5.4-2.5-36.1-56.3-92.4-73.6-116.5l-.8-1.1-1.2-1.3c-3.3-4.2-8.7-11.5-12.6-14.6-10.7,1.6-7.4,35.2-5.8,43.6,1.3,15.6,6.6,47.7,12.9,61Z"/>
  <path fill="#9cd00a" d="M263.2,950.5c13.1-12.5,12.1-30.9,1.5-44.9-5.6-7.3-53.7,5-65,2.3-5.1-1.2-7.3,1-11.6-3.6-3.9-11.2,4.9-61.4,11.8-74,4.9-8.9,15-22.5,18.3-29.5l-1.1-.3c-20,19.4-29,53.6-38,79.8l.7-3.9c-1.5,5.9-6.6,22.9-6.6,28l-1.4,1c-3.3-4.8.4-33.6,1.8-39.4,9.6-38.3,26.3-89.5,69.4-101.3,17.1-4.6,56.5-1.7,71.5,9.2,18.2,13.2,35.2,32.2,42.3,53.9.7,12.1,17.8,27.3,18.9,38.5.3,15.8,1.8,24.1,7.3,38.5,1.7,4.5-3.8,19.7,2.7,27.1-.3-.4-4.9,20.5-1,25.5.9,5.3-.6,13-1.3,18.4-3.4,27.6-13.2,56.2-28.7,79.3-26.5,39.4-86.8,51.2-125.1,22.9-35-25.8-53.8-72.9-60.6-114.7.4-2.6.3-2.5,1.6-4.7,3.5-1.5,4.1-2.1,8-1.6,2.4,1.7,2.7,1.6,3.6,4.7,4.8,16.7,24.5,81,42.1,84.4-.5-.5-1-.9-1.4-1.5-4.4-6.8-9.6-12.5-13.6-20.1-7.2-13.4-25.2-54.8-21-68.5,1.9-1.7,67.6-5.7,74.9-5.5Z"/>
  <path fill="#c8ed54" d="M320.8,813.7c20.4,13.2,34.8,99.6,40.6,102.7l.6-3c2.5,5.8-1.1,14.5-1.4,20.3-.6,9.6,1.8,17.2.6,27.2-4.7,5.6-4.3,11.1-6.3,19.3-4.1,16.4-16.8,58.7-28.2,69.7.5-2,6.3-15.2,7.4-17.3,18.1-35.2,14.6-73.9,11.1-112-1.1-12.1-.9-29.2-5.3-41.2-1.6-4.5-2-10.2-1.9-15.7-3-2.7-7.4-20-7.6-20.2l-4,.8c.5-8.4-1.5-23.3-5.5-30.7Z"/>
  <path fill="#c8ed54" d="M308.5,834.8c-.3,8.6-26.2,47.2-24.1,51.8,8.5,18.6,13.2,39.7,9.8,62.6-1,6.5-10.1,20.7-8.4,26.5,5.2,17.4,20.6,33,27.2,49.7-2.5-.4-2.4-1.2-4.6-3.3-2.2-6.1-14.8-25.3-18.5-32-2.1-3.7-4.6-3.6-8.1-4.2-3-2.6-.9-1.7-.2-5.7-1-1.3-4.8-5.7-3.6-7.6,13.2-20.5,12.8-44.3,5.8-66.9-2.1-6.8-4.9-13.8-5.8-21.2,11.9-15,20.9-39.2,30.6-49.7Z"/>
  <path fill="#c8ed54" d="M212.9,829.6c6.1,3.3,23.5,36.8,27.3,44.9-.2,1.2-.4,2.3-.6,3.5-4.5-1.4-26.2-41.5-26.6-48.4Z"/>
  <path fill="#c8ed54" d="M243.2,983.6l.5,2c-1.8,7.1-15,32.4-19.7,37.6-.9-7.7,14.1-32.7,19.1-39.6Z"/>
  <path fill="#9cd00a" d="M493.6,776.2c1.1-6.4-1.5-17,4.4-19.3l2.9,2.2c3.3,5.7,20,11.2,26.5,12.1,26.9,3.7,55.9,18.3,81.7,23.1,22.3,4.2,50.9-.5,73.7.6,5.8,0,3.7.4,9.2,2.5,7.1-5.9,19-7.6,24.9-13.4-1.1,1,2.7-6,3.7-7.3.3-3.2.6-9.8,2.4-12,3.9,6.9,1.4,12.7,7.2,16.3,1.3,15.6,6.6,47.7,12.9,61-.3,4.1-.4,8.1-.2,12.2.5,9.7,10,14.7,9.5,24.8l-1.1,1.9c-8,2-19.8,2.3-28.3,3-38.4,3-76.9,4.7-115.3,8.4-12.9,1.3-33.7-4.5-43.4,5.3-2.6,5.1,1.1,19.8,7,20.3,33,3.2,67.6-.6,100.9-.3,18.5.3,32.2,2.9,48,1.1l-4.8-1,.5-.9c5.7-.6,11.6-.3,17.4-.3-2.5-1.7-2.8-1.5-5.8-2.2.3-1.2.2-1.7,1.1-2,4.6-1.1,32.8-2.1,35.9-1.6l.9,1.3c1.4,1.9,1.9,3.2,3.9,4l1.9,3c.8,6,2.3,12.9,1.3,18.4-3.6,3-13.3,6.7-17.9,8-22.9,6.4-46.1,12-69.4,16.7-10.8,2.2-21.6,6-32.5,8.2-11.5,2.4-23.3,3.2-34.8,5.7-3.2.7-4.7-4.9-5.4-7.1-.5-.2-7-1.1-6.4-.7-14.9-10.6-26-16-44.3-15-.3,0-11.4-1.3-11.5-1.3-5.8-2.4-15.5,5.3-18.8,3l.2-2c-10.9,3.6-22.4-2.4-27.1.5-8.5,5.2-13.4,4.2-22.8,4.5l-1.1.7c-5.8,3.7-15.5,9-22.4,7.9-7.1-5.6-.5-13.3-11.2-24.7-1-1.4-1.9-4.9-2.4-6.7,0-.9.4-4.2,1.1-4.8,9.4-9.2,55.7,2.8,55.3-15.5-.2-.2-17.9-16.1-17.6-16-10.5-3.3-29,3.7-38.8-1.9-4.2-10.7-.8-30.4.3-43.1,1.6-19.1,17.3-3.7,27.4-18.9,3.6-5.4,18.3-1.4,22.4.7,3,1.1,8.4-2.3,8.3-5-.3-11.9-11-43.2-9.8-54.2Z"/>
  <path fill="#9cd00a" d="M537.6,91.7c9.2-.9,16-16.7,23.2-23.1,10.9-9.6,10.5-12.2,25.1-9.9,2.3-1,9-5.8,9.7-5.8,19.7.4,39.4,1.9,59.1,1.8,5.5,0,16.6,9.5,20.3,13.2,3.5,3.5,5.6,8.3,8.6,12,2.2,2.7,5.3,5.6,7.7,8.4,5.9,6.8,4.3,17.9,6.8,26.7.6,2,2.8,14.6,2.8,16.6,0,4-2.8,12.6-3,17.4-.2,3.8,2.3,7.8,2.3,10.4,0,17.7,2.5,31.7-5.6,48.2-3.1,6.3,4.9,19.5-4.5,27.3l1,1.7-.4,2.4c-10.4,4.6-5.9.8-11.7,10.2-5.3,2.3-18.5,1.3-20,8.9-1.8,9.4,3.7,10.4-1.3,21.7-2.2,4.8-7.1,16.9-7.9,22.6-.9,6.2-1.3,15.1-5.4,20.4-.4.4-5.1,3.1-6.2,3.9-.3,6.1.8,8.7-4.1,12.7-2.1-2.2-1.4-5.3-1.4-9.1-2.9-4.8-11-17.4-12.2-21.9-5.1-20.4-6.8-29.8-20.6-46.7-11.4-13.9-34.3-21.9-43.3-36.7-5.5-17.3-6.6-35.9-15.8-53.1-4-7.5-1.9-6.9-8.4-14.7l-1.4-2c-2.4-19.9-4.4-45.1,6.6-63.3Z"/>
  <path fill="#9cd00a" d="M923.4,913.9c-16,.2-14.3,3.3-28.6,9.7-5.4,2.4-38.8-1-46.1-2.8-2.2-.5-8.6-8.2-9.6-11.1l.8-1.6c4.5-2.1,11.8-1.2,18.2-2.4,8.1-6.6,7.8-11.5,5.4-21.6-3.7-15.3-20.3-5.2-30.1-10.3-2-1-1.6-6-4.5-7.6l-2.1,1.2-.9-1.1c.6-5.9-.8-18-4.6-23.2-1.7-2.3-1.9-1.6-2.8-4.7,3.2-10.5,30.6-20.8,41.1-20.3-2.2,0,26.6,21.2,33.7,22,2.6.3,15.6,10,25,11.5,10.4,5.7,11,16.2,20.9,18.1l-1.9,1.2c.6,7.9-6.3,16.3-4.8,27.2l1.5,1c-4.8,5.5-6.8,8.8-10.7,15Z"/>
  <path fill="#9cd00a" d="M492.5,718.6c-1-5.3.1-10.4-.7-15.8-.4-2.6-4.9-11.5-4.6-13,1-6.1,6-16.6,5.8-23.1-.3-7-6.4-17.1-3-25.1.8-1.9,2.3-.9,3-1.7,3.2-3.9,5.5-12,9-15,4.5,5.3,5.2,14.7,8.2,20.7-2.5,1.6-3.1,1.6-5.9,2.3-2.8,3.8-5,12.2-7.1,16.3-3.9,7.4,2.5,18.8,4.4,25.9,0,0-3.6,4.9-3.6,5.1-.4,8.6-2.5,17.5-.6,25.9,1,4.6,2.1,11.7,1.5,15.6.2,8,0,14.8,2,22.5l-2.9-2.2c-5.9,2.3-3.3,12.9-4.4,19.3-3.6-5.5-3.4-48.9-1-57.6Z"/>
  <path fill="#9cd00a" d="M404.9,763.8c8.2,1.4,10.6,14.9,14.8,20.4,2.8,3.6,7,8.2,10.7,10.7l1.6-.5c2.9-8.3-5.9-32.8-7.9-42.3.4-.3.8-.6,1.2-1,4.8,3.8,21.6,44.7,21.8,50.1-1.3-1.1-1.7-1.5-3-2.8l-1.4.4c-1.4,4.7,1.9,4.5-.5,6.4l-.8-1.4c-1-1.8-.6-1.1-1.7-2.5l-.8.6c1.4,4.1,5.1,14.1,7.2,17.7,2.6,4.4,3.6,5.8,2.4,11h-1.1c0,.1-3.6-2.8-3.6-2.8l-1.7.5-1,3.1c-1.4-15.2-33.8-51.7-36.3-67.6Z"/>
  <path fill="#9cd00a" d="M748.8,752c-.2-9.4-19.8-30.8-15.3-41.7,1.8-1.3,1.2-1.3,3-1.5,2.3,6.5,2.7,8.8,6.7,14.5,5.3,7.5,34.3,29.2,31.3,37.6l-2,1.3c-2.6-3.2-1.1-2.7-4.1-3.1l-.4-1.1,1.2.5-1.5-.8.3,1.2c.7,3.1,1.3,4.4,0,7.3l-1.7,1.4c-3.8-4.1-11.2-12.7-16.1-14.3l-1.2-1.3Z"/>
  <path fill="#9cd00a" d="M766.1,767.6l1.7-1.4c1.4-2.8.7-4.1,0-7.3l-.3-1.2,1.5.8-1.2-.5.4,1.1c3,.4,1.5-.2,4.1,3.1,2.5,8.6,11.8,12,12.5,18.2-2.8-1.4-2.2-1.2-4.7-3.4h-1s-.9,3.8-.9,3.8c-3.5-1.1-10.5-9.9-12.2-13.3Z"/>
  <path fill="#fbfdf4" d="M248.2,908.5c16.9-.6,17,2.4,17.9,18.8.5,8.4,1.4,16.9-8.4,17.8-15.7,1.5-32.6,2.2-48.2,3.1l-68.9,4.1c-20.4,1.1-42.7,4.4-62.9,4.2h-15.4c-1.3-5.4.3-19.2-1.6-25.4-1-3.2-2.2-6.2-.9-9.2,6-2.9,27.7-2.5,35.9-3,50.2-3,100.5-6.3,150.6-10,.6-.1,1.1-.3,1.7-.4Z"/>
  <path fill="#fbfdec" d="M839.4,882.5c7.8-.2,17.8-1.6,20.7,8-.7,4.6-5.1,8.9-9.7,9.2-34.5,2.4-69.1,3.1-103.6,5.2l-105.7,6.9c-16.9,1-36,2.7-52.7,2.7-11.9,3.8-24.8-3.1-19.4-15.1,6.8-4,149.1-7,172.1-11.2,9-1.6,18.4-.8,27.5-1.1,16.2-.5,32.5-1.8,48.7-3,7.4-.6,14.8-.4,22.1-1.7Z"/>
  <path fill="#9cd00a" d="M514.8,482.5c2.3,3.5,3,3.7,5.4,6.5,5.1,5.7,6.1,4.8,13.5,5.2,6.3.4,7.1,3,11.3,7.5,1.7,1.9,1.7,2.9,5,4.8,7.7,4.3,16.3,8.8,24.2,13,0,0,3.9-.9,4.2-1.1,11.3-4.1,20.7-.1,34.2-3l.5-1.1-3-3.7.2-1.1,2.2-.2c5.3,3.4,12.8,5.5,17.2-.1,2.8-.9,1.6-.8,4.8-.1l6.1,1.3.3-.8-3.7-3.3c3.2-.1,5.5-.1,7.7-2.5-1.1-2.9-1.3-2.9-1.2-5.9l1.3-1.1c4.5-.6,8.6.9,13.1,2l-2-3.9c2.3-5.6,1.1.4,4.8-3.4-.7-2.4-1.4-4.7-1.8-6.8-.9-4.9.8-5,4.6-5.9,1.9-2.4,3.4-4.5,4.7-6.1l1.5,1.2c.4,6.8-2.8,19.5-5,26.1-1.2,3.5-3,5.8-4,10,2.5,3.3,4.3,4.3,2.2,7.9-6.2,1.2-29.5,6.2-34,11.2-2.1,2.3-3,4.6-7,5.3-6.5-5.9-6-4.3-15.3-4.3-18.8,0-39-10.8-58-14.1-8.5-1.5-23-15.1-33.5-13-2.6.5-3,.5-5.1-.3-1.7-4.4-1.9-20.3-.8-25l1.5-.4,2.9,3,.6,2.4Z"/>
  <path fill="#f7f70f" d="M494,475.7c3.7,5.8-.5,23.6,2.2,30.9,1.5,4.1,2.5,9,3.2,12.8,1.9,9.8-16.5,75-19.3,78.2l-1-.8c-.2-7.2,5.5-8.1,2.5-15.4-3.5-8.4,1-10.8,1.9-18h-1.1c-3.6,9.6-6.8,21-10,30.9v2c-3.2.4-1.6.5-5-.8-5.5-10.1,10.1-35.3,10.7-46.2-3.3,2.8-8.4,23.1-11.2,27.7l-2.1-1c-.6-3.8,1.7-5.8,2.7-10.6,4.7-24.6,13.1-70.3,26.5-89.9Z"/>
  <path fill="#fbfdf4" d="M472.2,903.5c5.7-.2,7,.2,12.1,2.6l1.4.7,2.6,1.3c1.6,2.1,4.4,5.1,4.9,7.6.2.9.1,1-.5,1.8-7.5,9-69,7-83.3,9.9-.3,0-.5.1-.8.2-4.4,0-14.8.7-18.2-1.3-1.6-6.4-5.8-7.9-2.8-15.1,2.2-4.9,11.5-3.3,15.7-3.9,17-2.4,53.9.2,68.7-3.7Z"/>
  <path fill="#9cd00a" d="M425.5,519.7c1.6,2.3,1.2,3.2,2.1,5.9l6.5,2.8c1.5,6.7-2.4,28.6-3.1,37.1-.7,8.8-.9,17.6-.8,26.3.4,25.8,7.4,31.6,9.2,51.1l-1.6,1.4c-8.8-6.2-35-44.6-37.3-45.5-.3,2.5-.6,6.9-2.9,8.1l-1.2-1.2c0-1.7-.1-3.8-.2-6.3-2.1-3.2-1.8-1-1.5-4.9l1.5-1.8-.4-1.5c-2.4-.9-1.9-.7-4.1-2-.8-5,.9-39.1,2.2-44.3l1.9-.6c1.7,3.3,1.8,10.2,3.4,15.4l1.6-.6c.1,1.8.3,3.6.6,5.4,1.9,13.5,11,32.7,21.6,40.5,1.5-6.9,1.2-13.6,2.1-20.6,2.8-20.9,4.5-44.1-4.7-63.7,2.4-1,2.6-.8,5.2-1.2Z"/>
  <path fill="#f7f70f" d="M437.8,565.8c-6.9-14.2,6.6-57.9,20.4-65.5,1.3,1.2,2.9,3,4.3,3.2l-1-3,1-1,3.2,1-.8,3.3c.9-.8,1.8-1.5,2.7-2.3,1.3,1.7,1.2,2.2,3.2,3.2l.9-2.9c1.7,1.9,1.5,1.8,2,4.3-1.9,3.5-3.4,2.4-3.5,3.2-2.1,12.4-2.7,45.8-12.5,54.4l-1.2-.4-.5-1.8c-3.5,2.8-7.7,32.7-7.9,38.3l-1,1.4-1.6-.4c-.4-6.8-.3-14.9-.5-21.8-.1-3.4,1.6-6.9.9-11.2l-.4.4c-1.8-2.1-1.2-2.6-3.6-4.6l-4.2,2.2Z"/>
  <path fill="#9cd00a" d="M782,688.7c-1-4.1-9.6-21-8.6-25.2,2.4-9.6,11.2-31.9,17.1-39.2l-.7,8.6c-1.9,3.8-3.5,15.4-4.6,20.4.9,16.7,1.7,34.7,12.1,48.7l-.6-1.7c9.8,15,13.4,28,23.7,43.4-1.2,1.9-1.1,1.8-2.5,3.4-1.9-.9-3.7-1.8-5.7-2.4-4.6-5.6-7.2-11.1-11.7-17l-2.4,1.3c-10.6-3.5-37.3-35.9-33.6-46.3,10.5,3.9,6.2-3.4,17.4,5.9Z"/>
  <path fill="#f7f70f" d="M800.6,727.8l-2.4,1.3c-10.6-3.5-37.3-35.9-33.6-46.3,10.5,3.9,6.2-3.4,17.4,5.9,6,9.9,11.7,21.9,17.4,32.3l-.3.9-3.2-1.4c1.7,3.5,2.2,4.1,4.7,7.3Z"/>
  <path fill="#f7f70f" d="M757.5,587.3l-1.5-.6c-2.6,2.2-.3,20.5-2.7,23.5l-1.8-1.1c-10.6-18.4-10.9-58.6-11.7-80.3,0-2.5,10-14.3,12.9-16.1l1.3.7c7.4,12.1,7.4,21.2,9.7,35,1.7,10,1.2,9.6-1.8,19.3-1.2,6.8,1.4,17.5-4.5,19.6Z"/>
  <path fill="url(#fixed_id_1)" d="M616.8,463.3c3.9,5.4,13.3,10,13.6,12.2-2,.8-1.7.4-4.5,0-10.7-8.8-59.2-27.1-59.6-40.6,3.1-2.3,10.9-2.6,14.4-1.4,7.4,2.5,27.9,5.1,33.3,9.5l-.4,2.3c2.7-.3,7.8-1.3,8.7-4.3l-2.2-2.3v-1.5c6.7-4.5,15.2,1.3,19.9,6.3l-.3,1.5-2.8,1.1c3.5,5.3,5.8,2.9,8,8.2-6.3,4.2-13-2.8-19.7.2l-4-1.5c2,2.4,5.1,4.5,7.7,6.4l.4,4.5c-2.4,2.5-1.8,1.7-5.8,2.7-3.2-1-3.8-1.5-6.7-3.1Z"/>
  <path fill="#f9fddc" d="M616.8,463.3c3.3-.2,2.2.2,4.8-1.3.8-4.2-.9-4.5-2.1-9h1.7c2,2.3,5.1,4.4,7.7,6.3l.4,4.5c-2.4,2.5-1.8,1.7-5.8,2.7-3.2-1-3.8-1.5-6.7-3.1Z"/>
  <path fill="#fbfdec" d="M438.4,408.5c-.5-1.2-3.8-5.8-4.2-4.2,1.9-7.3,4.9-24.9,12.3-28,2.1,4-1.8,9,.2,10.7,1.8-1.5,2.5-2.7,4.3-2.8,4.5,7.1-5.2,14.4-6.9,22.8-2.5,11.8-1.1,71-4.5,77.1-4.9-3.4-.5-13.1-4.3-19-1.8,1.2-1.3.9-3.4,1.7-1.1-2-2.2-4-3.2-6-3.9-7.3-.8-16.3-2.6-18.5-7.7-9.4-7.6-51.3,12.3-33.8Z"/>
  <path fill="#f9fddc" d="M438.4,408.5c-.5-1.2-3.8-5.8-4.2-4.2,1.9-7.3,4.9-24.9,12.3-28,2.1,4-1.8,9,.2,10.7,1.8-1.5,2.5-2.7,4.3-2.8,4.5,7.1-5.2,14.4-6.9,22.8-2.5,11.8-1.1,71-4.5,77.1,0-6.7-1.9-17-1.6-21.5,1-14.4,2.5-40.1.4-54.1Z"/>
  <path fill="#f9fddc" d="M633,650.4c2,0,4.9.8,6.6,2,.4,2.6.5,3.3,1.3,5.8,2.9,2.6,4.5,2.2,8.1,3,7.8,1.7,3.4,4.3,6.2,8.9,1.3-1.1,2.1-2.1,3.1-3.4l.9.8c.5,4.4-.7-.4-2,5.9-2.4,0-1.3-.2-3.4.5-3.9,14.6-8.4,3.4-12.4,17.1l-.4,1.3c-2.6,1.9-1.2,1.4-4.4,1.5-1.5-2-1.1-3.1-1.3-6l-1-.4c-1.2,2-2.4,3.9-3.6,5.9-2.7-3.2-3.7-4-7.4-6l-1-.6-1.2,1.6c-1.3-1.1-1.7-3.6-2.3-5.7l-.9-.4c-1.2,4.1-.8,5.8-3.5,8.2-2.5-3.4-3.5-4.9-5-8.8v.8c-3.2-6.2-.9-21.8,5.6-25.6.9,1.3,1.9,2.7,2.8,4,3.5-2.5-.7-2.7,3-8.5,1.4.9,2.4,4.2,3.3,6.2,1.8-3.2,1.5-3.9,4.1-5.3,2,1.4,1.2.5,1.9,3.3l2.8-5.9Z"/>
  <path fill="#f7f70f" d="M401,623.2c6.1,3.9,3.4,7.5,13.1,9.6.4-2.8.4-3.1,1.4-5.8,5.5,4.5,23,23.3,23.5,30.2l-2.8.2c1.1,5.4,8.7,9.8,8.8,18-1.6,3.6-1.1,2.4-5.6,4.6l-2.4-3.5-.8.6c.2,1.9.5,3.8.7,5.7.4,3.8,1.1,4.2-.7,6.3-3.1-4.2-4.9-.4-11.3-8.5-13.4-17.1-18.3-37.4-23.9-57.5Z"/>
  <path fill="#f9fddc" d="M636.3,719.3c.9.4,2.3,1.2,3.3,1.7,1.9,3.8,1.8,4.3,2.4,8.7v1.2c.1,0,1-1.5,1-1.5,3.1-.8,1.6-.9,4.7.7,1.8,6.8,6.8,16,4.2,23.7-1.4,4-2.9,2.9-3.7,9.4l-.4,3.9-.2,1.9-1.5.8c-2.6-.9-3.1-1.9-4.8-4l-.6-.8c-2.6.5-4,1.1-6.6.2-2.4-3.1-1.8-1.3-1.7-5.5-.7-3.3-.9-5.7-2.5-8.5-.7,4-1.8,11.6-4,14.7l-1.3-.2c-4.1-6.6-14.5-35.7-2-37.6l1.5,2.7.9-8.2c1.6-1.5.7-1.2,2.8-1.2,1.1,2.1.7,1.4,2.3,3.1l2.4-.3c1.3-1.8,2.3-3,3.7-4.7Z"/>
  <path fill="#f7f70f" d="M789.8,633l1.5.7-.4,2.5,1,1.1,1.6-4.9c4.9,1.3,7.2,7.4,9.9,11.3,13.6,20.3,16.5,39.7,19.3,63.4.5,4,3.4,15.1,2.5,18.5l-1.4.3c-1-3.5-11.5-36.2-12.9-38.5-.2,1.6-.4,3.2-.8,4.8l-1.5-4.7-1.5,1.5-.5-1.1c-1.2-2.6-1.5-4.1-3.8-5.6-1.1,2.3-1.3,3.1-1.9,5.6-2.3-2.5-4.7-17-6.9-21.6l-2.4,1.3c-2.2-4.1.6-8.1-2.4-12.6h-.9c0-.1-1.4,1.4-1.4,1.4-.7-1.2-1.2-1.8-1.7-3.1,1.1-5,2.7-16.6,4.6-20.4Z"/>
  <path fill="#f9fddc" d="M597,709.6c0,0,0,.2,0,.3,3.8,14.1,2.9,29.4,4.3,43.7.8,7.8,13.1,23.2-2.3,26.9-5.7-1.2-12.9-1.9-16.8-6.3-.6-3.2-.8-1.6.9-4.8l3.4-.9c.4-1.5.8-3,1.1-4.5,2.4.5,1.1.4,3.7.2-1.4-3.6-1.8-2.5-1-5.2,2.5-.9,2.7-.7,4.5-2.5-.1-4-3.1-14.2-4.5-18.1l1-1.9c2.3-.1,2,.2,3.8-.8-2.2-2.8-4.5-5.4-6.8-8.2l.9-4.4c-3-9.6-18.3-18.6-16.7-24.9,3.7-.2,8.3,2.5,11.9,4.2,4.6-2.1,3.4-2.4,7.7-1.8,2.9,2.9,3,5.4,4.8,9Z"/>
  <path fill="#f9fddc" d="M572,398.2c2.9,0,4.5-.1,7.1,1.3-.8,2.5-.6,1.3-.5,3.8,5.1.5,43.6-6.3,51.7-1.6-3.8,2.5-9.6,2-14.9,4.4,12,.6,19.2,0,30.2,5.5l2.1,1.1-1.6,1.3c-4.8-.2-25.7-3.3-31.3-4.4-8.6,0-23.8.2-33.1,0-2.7,0-2.9,3.7-6,5.6-9.8-3.3-9.5,4.8-19.5,3.1-.8-.1-1.6,4.4-5.1,5-2.6-2.7-1.9-1.5-2-6.4-3.3-2.1-3,.3-8.3-.7-.8-3.2-1-1.7.6-4.5,2.6-.8,10.2-2,11.4-3.1.9-2.8,1.8-4.9,2.9-7.6,4.9,2,5.1,6.6,12.3,4.3,4.1-3.7,3.1-1.8,3.9-7.1Z"/>
  <path fill="#f9fddc" d="M643.5,595.5c2.8,1,1.8.5,4.1,2.5.5,2.9,0,2.1,1.5,4.4,1.3-3.9,3.2-7.3,7.6-5.4l.5,4,.9.5,2.7-4,1.2.4,1.1,5.2,1.1-.2,2.2-5.5h1.4c3.6,4.1,4.3,12.4,2.6,17.5-3.7,2.6-4,3.1-6,7.1h-1.1c0,0-.8-4.5-.8-4.5l-.9.2c-1.5,3.6-2.5,5.8-4.3,9.3-.9-1.2-1.5-5.4-1.8-7.2-1.8,3.2-3.2,5.1-5.4,8-3,1.5-3.2,2-6.6,1.8-1.5-2.9-.8-3.1-.3-7.1-2,.9-2,.9-4.1,1.4-2.7-.6-10.7-6.8-13.9-8.9-.5-3.7-.6-1.8,1.2-5.8,3.4-2.8,5.9-1.8,9.7-2.5,2.6-.5,5.8-8.1,7.8-11.3Z"/>
  <path fill="#f7f70f" d="M390.9,647c11.5,5,22.2,39.1,26.6,51.1l4.4-.3c2.2,5.3-.3,3.3.7,9.2,2.1.9,4.2,1.7,6.3,2.5,1.9,2.8,7.1,23.2,6.9,26.4l-1.5,1-1-1.1c-8.6-9-4.1-8.3-8.9-19-1.7-3.7-10.6-11.4-14-14.4v.3c-5.8-5.1-16.8-15.6-14.2-23.9,2-1.7,1.7-1.3,3.4-3.3-4.7-9.9-8.1-17.6-8.5-28.7Z"/>
  <path fill="#9cd00a" d="M390.9,441.5c3.4,1.1-.3,11.2,3.1,16,4-.3,2.6-3.6,6.6-3.8.5,5,1.2,5.9,4.3,9.6.4-2.2.6-2.7,1.3-4.9l1.6.4c4.7,10.2,4.5,26.6,7.9,38.4l.3,1.1c-1.9,3.4-2.8,5.4-5.1,8.7-4.7.8-5.1,2.2-9.1,5.7-.5-6.2,2.8-9.1,5.4-13.6,1.8-3-5.9-4.6-6-6.3,0-2.8,1.2-5.2-.3-8.2-13-4.9-18-27.6-10.3-39.5l-1-2,1.2-1.8Z"/>
  <path fill="#f7f70f" d="M410.7,511.4c6.2,9.9,8.4,35,12.4,46.8.1.4-3.2,28.5-3.8,29.4l-1.4-1.9c-2.2-15.6-5.9-5.2-9.1-12.5-4.2-9.7-6.2-56.4,1.9-61.8Z"/>
  <path fill="#9cd00a" d="M717.4,513.7c4.7,2.7,8.3,2.4,13.4.9,10.2-2.8,12.5-14.2,20.1-19.6,2-1.4,2.7-3.9,3.7-6.2l1.1-.5c8.4,9.4-14.4,23.5-17.1,33.1-2.3,8-3.3,14.8-4.2,23l-1.3.7c-5.6-6.6-1.4-15.7-8-16.5-3.7,2.3-6.1,4.8-10.6,4.6-6.1-2.7-8.3-5.4-11.8-11,.3-1.5,1.1-3.3,1.6-4.8,3.2-2.4,9.1-2.8,13.2-3.7Z"/>
  <path fill="#f9fddc" d="M647.7,538.5c1.2-4.7,1.8-8.3,6-10.9h2.3c1.9,1.9,1.7,2.9,2.1,5.7,3.5-2.6,2.4-2.7,5.6-2.2,2.4,6.2-1.3,18.1-3.6,24.3-2.7,1.3-1.3,1.1-4.5.3-.6-2-.9-2.6-1.2-4.7-.4,4.4-6,17.2-10.3,18.3-.2-3.9,1-5.5,1.9-9.3-2.8,1.9-2.2,5.1-6.4,7.1-.5-1.7-.1-1.5-1.2-2.7-2.2,2-2.6,2.7-5.5,3.6-1.8-3.8-.1-4.5,0-8.3,0,.7-3.4-2.2-4.6-4.1,1.9-7.2,4-9.8,11.1-12.1l3.5-1.1c2.5-.8,2.6-1.6,4.6-3.9Z"/>
  <path fill="#f9fddc" d="M647.7,538.5c1.2-4.7,1.8-8.3,6-10.9h2.3c1.9,1.9,1.7,2.9,2.1,5.7,3.5-2.6,2.4-2.7,5.6-2.2,2.4,6.2-1.3,18.1-3.6,24.3-2.7,1.3-1.3,1.1-4.5.3-.6-2-.9-2.6-1.2-4.7,2.1-6.4,4.7-5,5.9-13.2-.6-1.7-.2-.9-2.1-2.2-4.8,0-6.1,1.3-10.6,2.9Z"/>
  <path fill="#f9fddc" d="M528.2,683.7c6.7,3.4,6.1,10,13.1,13.3,7.3,3.5,18.8,10.8,23.6,17.5,1.7,2.4,1.2,4.1.7,6.3-4.2,1.5-2.3-.7-8.4-1.3.4,2.1.6,3.8.9,5.9-2.4,2.4-2.9,2.8-5.5,4.8-1.5-.5-2.9-.2-4.4-.3-7.7-.4-10.6-15.3-16.4-17.9l-.5-2c2.3-1.6,1.1-1.1,3.9-1.1l-.3,1.1h-1c0,0,.8.2.8.2,1.1-5.6-1.4-2.7-4-9.2,2.4-.9,1.7-.4,3.6-2l-2.2-3.8c-2.3.5-2.2.6-4.3-.2l-.4-1.9c1.9-4.2,1.8-4.8.9-9.3Z"/>
  <path fill="#fbfdf4" d="M508,370.7c6.6-.1,8.2,7.5,8.9,13.1-1.1,3.5-3.9,6.1-6.5,8.9l-1.4.3,1.5-.2-2.5-.5c-2.8,8.2-6.9,30-18.1,27.1-3.4-4.8-.9-5.8-3.6-9.2l-4.3,1.9-.7-.9c1.1-6.1,22.5-36.6,26.7-40.4Z"/>
  <path fill="#f7f70f" d="M467.8,694.2c-1.1-5,1.5-10.1,1.7-15.3l1.6-.9c3,7.4-4.6,10.6,7.8,14.6,5.3,7.6-1.2,38.5,0,50.2-1.3,2.2-.4,1.6-2.6,2.2-.5-2.8-1.8-2.9-1.9-6.8l-.8,1.6-1.7.2c-6.1-4-11-25-7.9-30.3l1.2.7.2,3.5.9,1c.3-2.6-.7-7-1.2-9.8,2.5-3,2.3-3,3.2-6.7l-.4-4.2Z"/>
  <path fill="#9cd00a" d="M468.1,698.5l2,9.1c1.3,10.1,2.9,20.7,4.1,30.7l-.8,1.6-1.7.2c-6.1-4-11-25-7.9-30.3l1.2.7.2,3.5.9,1c.3-2.6-.7-7-1.2-9.8,2.5-3,2.3-3,3.2-6.7Z"/>
  <path fill="#f3feba" d="M731.3,673.8c-12.6-13.4,14.9-24.8,20.2-32.9,1.7-2.6-4.9-8.9,0-14.9,3.4-1,3.2-.9,6.8-.4,3.4,3.3,2,3.8,6.6,6.1,3.6,14.7-22.7,34.3-31.9,44l-1.7-1.9Z"/>
  <path fill="#f9fddc" d="M557.3,572.8c12.3,4.1,31.5-3.6,31.1,18.4-4.4.8-5.7-1.3-9.6-.5l1.5,3.6c-10.4-1.6-28.7-3.9-35.7-12.7-.4-6,7.7-8,12.7-8.8Z"/>
  <path fill="#f9fddc" d="M528.1,599.3c7.7-.5,21.4,5.9,29.2,8.6,6.8,2.3,18,5.6,17.6,13.8l-1.8,1.6-2.6-.2-.6,2.8c-13.1,7-37.9-15.8-41.8-26.6Z"/>
  <path fill="#f7f70f" d="M731.3,673.8l1.7,1.9,2.1,2.3c2.4-1.1,1.5-.6,3.4-2.6,8.7,1.8,17.5,17.9,19.6,26.3l1.4,4.7c.6,2.9,1.4,5.2.6,8l-1.6-.2c-9.6-14.3-30.8-2.3-27.3-40.3Z"/>
  <path fill="#f9fddc" d="M548.5,444.4c9.2,1.9,39.9,24.7,44.3,33.4-.9,3.8-1.2,3-4.3,6.3-13.1,2-12.6-8.9-22.7-15.4l-3.3,1c-4.6-4.3,1.6-3.1-2.6-8-4.9-5.7-9.1-7.4-12.4-14.8l1-2.6Z"/>
  <path fill="#f3feba" d="M712.6,678.3c4.5,2.8,3.7,21.5,3.6,27h1c0,.1,4.8-4.4,4.8-4.4h1.4c.7,3.3-6.5,26.7-8.2,31.2l-4.2,2.1-1.7,7.3-.8-.7c.8-14.7-3.1-22.1-3.3-35.4,0-3.8,6-22.6,7.4-27.2Z"/>
  <path fill="#f3feba" d="M544.3,465.6c6.4,3.5,4.3,1.4,7.9,7.8l6-1.4c8.8,8.1,18.8,16,27.4,24,2.4,2.3,1.1,6.2,8.6,13.4l1.1,1.1-5.4-1.5c-8.4-2.3-9.2-3.2-15.3-9.6l-6.6-8.2-.4,1.5c2.4,5.3,5.9,9.1,9.5,13.7l-1.9.5c-9.3-2.3-9.3-14.7-12.8-19.4l-1.1.3-1.1,3.8c-6.2-5.2-10.5-18.6-16.1-25.8Z"/>
  <path fill="#fbfdec" d="M667,374.4c5.6.5,12.6,6.9,15,11.9,4.1,8.3,1.6,15.3-1.6,23.5l-.6,1.5c.9,4.7,2.5,5.8,3.2,9.1-3.2-1.2-1.5-.8-5.7.2l-1.9-1.2.3-1.3,2.5-.3v-1.2c-.5-.3-1.2-.6-1.8-1-7.5-4.2-12.8-35.4-9.4-41.2Z"/>
  <path fill="#f3feba" d="M685.7,551.9c-2.2-7.4-2.4-20.2,7.3-21.8,3.2,2.7,2.2,1.8,3.9,6.2l.6,2.5.7.4.6,3.3v-1.8c-.2-2.3,0-3.6.1-5.9h1.2c4.2,4.5,13.9,16.6,8.4,22-4,.7-6.1-.4-8.9-3.2-1.3.9-.8.9-1.3,3.5-2.5-.9-3.6-3.6-5.1-6.2-.6,4.2,0,8.7-1.7,11-4.9-2.2-5.3-5.2-6-10Z"/>
  <path fill="#f9fddc" d="M685.7,551.9c-2.2-7.4-2.4-20.2,7.3-21.8,3.2,2.7,2.2,1.8,3.9,6.2-.9,9.9-5.2,8.6-6.6,19.6-2.2-.6-2.8-2-4.6-4.1Z"/>
  <path fill="#9cd00a" d="M758.1,701.6c.4-4.5-.5-2.8,1.9-5.7,9.5.3,26.5,38.8,26.5,47.3l-1.2.7c-7.1-3.3-24.7-31-25.8-37.6l-1.4-4.7Z"/>
  <path fill="#9cd00a" d="M743.9,402.1c-2.3-4-3.8-5.1-2.8-9.6,1.3-5.6-9.6-17-6.4-20.8,4.4.1,8.6,3.5,11.8,6.4l.5,1.6c-2.6.3-1.3.4-3.9-.7,6.8,9.7,21.9,34.6,11,45.1l-1.9-.2c-2.7-3.5-3.4-10.8-1.9-14.7-3.5-2.7-3.8-3.4-6.5-7Z"/>
  <path fill="#9fc53d" d="M743.9,402.1l1.9-2c4.1.9,4.2,2.5,5.6,6.3l-1,2.7c-3.5-2.7-3.8-3.4-6.5-7Z"/>
  <path fill="#9cd00a" d="M702.6,522.2c-2.1-.9-4.1-1.8-6.1-2.7-2.6-1.2-6-2.6-7-5.1,4.6-3.2,4.7-3.3,4.9-8.9-1.2-1.7-1.7-2.4-2.6-4.3,2-2.8,2.8-4.1,4.4-7.1-.2-2.1-.5-2.7-1.5-4.6l.8-.7,1.9.8c.2,3,0,2.8,1.6,5.3,5.3,2.4,6.5.6,13.3.8l.8,1.2c-1.6,4.1-5.1,4.5-5.8,7.4l3.7.8.3,1.3-2.9,2.8c2.9,2.9,2.8-1.1,9,4.4-4.1.9-9.9,1.3-13.2,3.7-.5,1.5-1.3,3.3-1.6,4.8Z"/>
  <path fill="#f3feba" d="M584.6,702.3l-2.2-3.7.7-1.7c4.8-1.8,2.9-.4,6.1-4.2-1.2-4.2-5.2-5.2-6.8-9.3,1.9-.8,4.8-1.5,5.2-3,1.8-6.2-1.5-15.4.5-21.3,3.2-.8,5.3,1.8,7.4,4.2,2.3,15.1,2,31.1,1.6,46.3-1.8-3.6-1.9-6.2-4.8-9-4.3-.6-3.1-.3-7.7,1.8Z"/>
  <path fill="#9cd00a" d="M576,337l2.1,1.3c4.8.1,3.5-.6,8.5-3.6,2.2,1.9,2,2,3.1,4.8-2.6,10.5-41.1,3.6-45.1-6.7,2,.7,2,.7,3.9,1l.3-5.2c4.7,4.5,6.3,4.2,12.5,3.5,1.2-.1,1.7,2.3,5.2,4.4,3.4-3.7,4.1-3.9,9-5.4l2.2.4c.5,2.9.2,2.2-1.8,5.5Z"/>
  <path fill="#c8ed54" d="M566.6,336.5c3.4-3.7,4.1-3.9,9-5.4l2.2.4c.5,2.9.2,2.2-1.8,5.5-3.4.9-5.9,0-9.4-.6Z"/>
  <path fill="#f9fddc" d="M592.3,539.9c2.1.8,1.1.2,2.8,2-2.2,6,2.3,3.9.2,8.8-18.9,15-10.1,4.2-26,8.9-2.2-.3-4.4-.7-6.5-1.1l-.5-1c2.8-2.1,2.7-1.4,6.7-1.9l.4-.9-.8-2c6.2-6.2,15.1-11,23.8-12.8Z"/>
  <path fill="#f7f70f" d="M429,701.1c4.8,2.5,5.8,6.6,9.3,10.9l1.2-.3.8-5.5c5.8,6.5,10.9,33.5,13.2,43.5-2.7,2.4-1.7,3.4-4.7,5.6-4.5-18-12-37.3-19.8-54.1Z"/>
  <path fill="#f3feba" d="M464,612.7c5.4,2.7,8.2,2.5,13.5,5.6,1.8,4.2-4,13.6-6.1,19.2l-.5,1.5c-.5,3.2-.8,8.6-2.8,10.7-6.6-4.1-7.6-30-4.1-37.1Z"/>
  <path fill="#f3feba" d="M451.4,448.4c4.3,8.5,1.6,18.4,4,27.6,2.5-.8,1.4-1,3.5-.3,2.5,7.4-.5,11.6-5.4,16.3l-5.1-2.9c-10.3-16.8,2.7-25.2,3.1-40.7Z"/>
  <path fill="#f3feba" d="M480.9,635c9.5,10.4,9.7,33.2,5.6,46.3-3.3-3.9-9.1-23.3-9.7-29.6-.8-8.4-.7-10.4,4.2-16.7Z"/>
  <path fill="#f9fddc" d="M481.6,320.2c7.4.3,17.9.8,21.9,8l-.7,2.3c-2.5,2.4-13.5,5.6-17,6-.3-3-.5-1.5,1.3-4.5-1.6-1.4-5.7,1-10.9.6l-.4-1.3,3.3-3.3c-3.4-.7-4.3-.4-7-2.3,2-2.4,6.4-4,9.5-5.4Z"/>
  <path fill="#f9fddc" d="M527.9,636.2c6.7,2.6,17.6,11,18.3,18.8-1.1,2.5-.9,2.4-3.2,3.8l-3,1.5c-4-.5-7.9-.5-10.2-4-3.5-5.3-2.8-14.1-1.9-20.1Z"/>
  <path fill="#f9fddc" d="M737.3,441.2c5.6,1.3,8.8,3.3,9.7,9-2.5,7.8-6.5,9.8-13,14.8-3.4-2.3-3.3-1.5-4.8-4.7,1.6-2.7,1.6-2.7,2.4-5.7-1.4-1.9-1.4-1.9-2.2-4.1,1.1-2.9,5.5-7.2,8-9.3Z"/>
  <path fill="#f3feba" d="M618.2,387.3c5.7-.9,11.4-2.1,16.1,1.8-2,2.4-21.8,5.2-26.8,6.3-5.8,1.4-15,4.5-18.6-1.4l1.2-1.7c6.1-2.5,20.9-4,28.2-5Z"/>
  <path fill="#f7f70f" d="M437.8,565.8l4.2-2.2c2.4,1.9,1.8,2.5,3.6,4.6-4.4,15.9-2.6,38.5-5.5,58.2-1.3-3.9.2-10.9-.3-15.2-1.6-12.8-4.3-32.9-1.9-45.4Z"/>
  <path fill="#f3feba" d="M592.7,264.2l2.1,1.1c4.9,9.7,12.8,25.4,14.9,36.3.4,2.3-1.1,3.8-2.5,5l-2.4-1.4c-6-11.1-5-23.8-10.8-30.4l-2,1.2c-2.9-1.2-1.6-.3-3.7-3.1,2.5-6.3,1.5.8,5.7-5l-1.3-3.8Z"/>
  <path fill="#9cd00a" d="M515.5,442.6l1.6-.9,2,3.2,1.5,1.1c.7,2.2,1.5,4.6,1.6,6.8.3,12.1,7.6,12.5,5.6,25.6l-1.2.4c-6.4-4.6-11.7-22.8-13.6-30.4-.7-2.9.8-3.7,2.7-5.9Z"/>
  <path fill="#f3feba" d="M692.8,658.6l1.7.2c4.3,4.2,2.9,17.5-.2,22.2l-1.2-1.2-1.5.4.8-.8-.8.2-1.8,5-1.7.6-2.2-1.3c-4.4-10.2.6-17.8,7-25.5Z"/>
  <path fill="#f3feba" d="M599.1,360.5c2.7,0,4.9-.8,8.1-.8l.4,1.4c-.7.7-1.5,1.6-2.5,1.6-7.9-.2-21,14.9-25.9,15.4,0-1.3-.2-.8-1.8-2.3l2.2,1v-.3c-1.5-1.1-3.4-.4-6-.2-1.7-.5-1.3-.5-2.8-1.9,1.4-1.2,1.8-1.1,3.6-1.6l-.4-.7c-3.6.7-4.3.8-7.9.9v-.8c11-3.8,22-7.6,32.9-11.6Z"/>
  <path fill="#9cd00a" d="M464.9,705.2c-1.1-2.3-3.6-11.7-4.1-14.4-.3-5.9-5.5-8.6-7.3-13.4-.9-2.4-.7-2.2-2.5-4.4.7-3.6,4.1-10.3,6.3-13.3l1,1.5c.1,8.1,4.2,27.8,9.3,33.2l.4,4.2c-.9,3.7-.7,3.6-3.2,6.7Z"/>
  <path fill="#9fc53d" d="M669.7,734.6c5.9,6.2-1.4,39.3-1.2,48,0,3.2.6,2.2-.1,5.9l-2-.7c1.4-4.4,1.9-5.7.3-9.4l.6,1.1c-1.4-1.6-1-1.6-3-2.5-.2-7.5,1-37.6,5.4-42.4Z"/>
  <path fill="#f9fddc" d="M528.5,274.4c4.4-.1,4.7-.5,7.7,2.4,2.4,6-2.7,14-4.8,20.2l-3.7-1.7c-7.9-9.8-6.2-11.4.8-20.9Z"/>
  <path fill="#f3feba" d="M459,756.7l2-.2c7,3.9,3.1,19.6.6,25.8-5.1-3.3-7.4-9.6-7.7-15.6-.3-5.1,1.8-6.7,5.2-10Z"/>
  <path fill="#f9fddc" d="M413.7,404.5l2.7.8c1.3,8.4,2.2,24.6-1.6,32.1-6.6-9.5-8.4-23.3-1.1-32.9Z"/>
  <path fill="#f7f70f" d="M762.1,567.7c1.7,6.5,4.1,38.4,2.7,44.7-2.1.5-1.5.4-3.6.4l-1.9,1.6c-1.1-8,.6-19.9-1.8-27.1,6-2.1,3.3-12.8,4.5-19.6Z"/>
  <path fill="#f3feba" d="M502.6,744.3c4.9,2,16.4,5.4,17,10.7l-3.2,3.2-.8,2.5c-11.2,4.4-13.4-8.5-13-16.4Z"/>
  <path fill="#9cd00a" d="M534.3,550.8c-1-.4-1.6-.7-2.3-1.1-2.1-1.2-3.7-3.2-4.4-5.6,4-2.7,21.6.6,24,4.1-1.9,2.6-.7,1.5-4.8,2.4-1.1,4.5-.2,3.6-3.1,5.5-3.6,0-7-2.9-9.4-5.4Z"/>
  <path fill="#f9fddc" d="M680.2,379.3l4.7.3c3.6,8.7,17.7,3.5,22.6,10.2l-1.9,2c-3.8.2-10.2,2.3-15.2,3.1-3.3-1.5-2.8-4.7-4.6-7.9-1.7-2.9-3.5-5.1-5.6-7.7Z"/>
  <path fill="#f3feba" d="M678,481.1c1.4.3,4.2.9,4.6,2.3,1.1,4.2,1.6,20.4.7,24-2.8-.4-4.6-.4-6.9-2.1-3.8-6.1,0-16.2,1.6-24.2Z"/>
  <path fill="#c8ed54" d="M408,734.2c4.9,2.8,16.5,23,14.7,29.2h-1.1c-2,1.1-1,.6-3.1,1.3-4-4.5-10.3-23.8-10.5-30.6Z"/>
  <path fill="#f3feba" d="M632.1,371.8l2.1.3.3,1.4c3.8.8,6.4,1.4,8.9,4.3l-.2,1.5c-2.6,2.6-6,2.7-9.7,3.4-3.4,1.1-10.1,2.5-11.7-1.4,2-5.8,4.9-6.8,10.4-9.5Z"/>
  <path fill="#f9fddc" d="M377.1,530.2l1.2.6c1.6,3.1,3,2.8,4.5,5.3,3,5.2.4,12.2-1.5,17.4-5.2-4.7-9.9-13.2-8.2-20.6.3-1.4,2.7-2,4.1-2.7Z"/>
  <path fill="#9cd00a" d="M515.5,442.6c-2.6-.8-2.8-1-5.5-1.1l-.5-3.4h-1.5c-2.1,2.3-4.1,4.5-6.3,6.7-.4-5.3,6.6-14.3,10.7-17.6l1.9.3c2.3,4.6,2.3,4.8,6.2,8,.6,3.9-1.7,4.2-1.3,9.6l-2-3.2-1.6.9Z"/>
  <path fill="#f3feba" d="M699.2,599l2.8,1.4c3.5,5.8,4.1,18.5-.6,23.1l-4.8,2.7c-1.2-2.5,2-23,2.6-27.2Z"/>
  <path fill="#9cd00a" d="M471.6,770.9c-2.3-8.2-4.2-13.9-2-22.4,1.8-1.6,2.2-2.1,3.7-4l2.9.6c.7,6.5-2,19.8-2.6,28.3l-.9.7-1.7-1.5.6-1.6Z"/>
  <path fill="#f3feba" d="M628.9,459.2c3.9,1.7,11.7,8.3,15.1,11.3-.5,2.1,0,1.2-2,2.5l.8,3c-4.2.8-14.4-6.9-19.4-9.6,4-1,3.4-.2,5.8-2.7l-.4-4.5Z"/>
  <path fill="#f9fddc" d="M564.1,376.2c3.5.2,7.1,0,9.9,1.8v1.4c-3.2,2.3-4.4,2.8-7.9,4.4-3.4,3.3-3.8,4-8.1,2.5-1.2-3.2-1-1.5-.3-5.2,2.3-3,3-3.2,6.3-5Z"/>
  <path fill="#9cd00a" d="M564.6,350.3c2.5-.2,3.7-.3,6.2-.2,4.8,7.8-10.3,11.8-14.5,7l1.3-3.2c-.6-2-.6-1.1-.3-2.6,2.6-.2,4.8-.4,7.3-1Z"/>
  <path fill="#f3feba" d="M478,429.5c1.8,1.8,3.2,2.7,5,4.4l-.4,3c-3.9,4.8-5.1,7.1-8,12.4l-1.4,1.6-1.5-.8c-1.5-4.3,4.4-16.1,6.3-20.5Z"/>
  <path fill="#f3feba" d="M721,405.8c4.5-.7,9-1.1,13,1.3v1.8c-2.6,1.8-3.2,1.7-6.1,2.5-6.2.2-8.5.7-14-1.9l-.2-1.4c2.1-1.9,4.3-1.9,7.2-2.4Z"/>
  <path fill="#9cd00a" d="M666.2,427.3c4.7,4.8,8.7,13.6,3.6,19-4.1-5-10-14.1-3.6-19Z"/>
  <path fill="#c8ed54" d="M824.5,777.6c3.2,3.6,9.3,15.5,8.1,20l-1.6-.3c-2.8-3.7-9.6-11.6-9.3-15.9.1-1.7,1.3-2.3,2.9-3.9Z"/>
  <path fill="#f3feba" d="M468.7,397.8c9.1,9.8,2,7.7-1.3,15.3l-3.3,2.2-.9-.7c.4-5.1,3.6-11.9,5.5-16.8Z"/>
  <path fill="#f3feba" d="M678.3,703.2c4.5,2.9,6,15.2-3.2,16.5-2.7-2-2.6-1.9-2.7-4.7,5.1-5.8,4.5-4.6,5.9-11.9Z"/>
  <path fill="#f3feba" d="M635.1,428.4c7.2,2.4,8.4,1.3,15.5,6.7v1.8c.1,0-2.1,1.2-2.1,1.2-5.6-2.3-12-3.1-15.7-5.9l2.3-3.7Z"/>
  <path fill="#c8ed54" d="M721,592.2c3.4,1.8,4.4.8,7.2,2.6,0,3.4-1.8,5.2-3.8,8.6-.8,3.3,0,1.9-2.2,4.3l-.7-.8h1.6c0,0-.6.8-.6.8-3.6-3.2-2.1-10.9-1.5-15.4Z"/>
  <path fill="#f3feba" d="M750,480.1c-2.8,3.2-8.1,10-11.9,10.6-.7-3.1,1.8-11.2,5.8-12.1l1.5,1.9c1.7,0,3-.2,4.6-.4Z"/>
  <path fill="#9cd00a" d="M676.2,336.5c1.2.7.8.5,2,1,1.8.8,3.6,1.5,5.3,2.6,1.9,1.2,1.2.3,1.8,2.7l-2.5,2c-2.7,1.5-3.3,2.2-6.3,2.3l-1.4-1.7c0-4.3.1-4.8,1.1-9Z"/>
  <path fill="#9fc53d" d="M552.8,563.5c3,0,8.7,2.2,9.9,4.9l-1.3,1.1c-3.3.3-8,1.2-10.8-.1-.5-3.2-.2-2.3,2.2-5.9Z"/>
  <path fill="#f3feba" d="M743.9,478.5c1.6-3.4,2.7-4.4,5.2-7.2h2.5c2.1,2.5,1.5,1,1.6,4.7-1.1,2.5-.9,2.6-3.2,4-1.7.2-3,.3-4.6.4l-1.5-1.9Z"/>
  <path fill="#9cd00a" d="M483.7,617.6l4.5.7c2.5,4.1,1.6,7.6,1.6,13-2-6.6-6.5.6-6.1-13.6Z"/>
  <path fill="#f3feba" d="M603.8,564.6l1.5,1.2c-.1,3.6-.7,8.2.9,11.5l-1.8,2.2c-2.3-1.6-3.9-4.2-4.3-7-.5-4,1.3-5,3.7-7.9Z"/>
  <path fill="#c8ed54" d="M620.7,330.9c2.6,2.2,3.7,2,6.7,3.5,1.2,3.6,1.1,1.7.2,5.7-1,.9-1.1.9-2.3,1.6-4.4-2.4-4.8-3.6-6-8.2l1.5-2.6Z"/>
  <path fill="#9cd00a" d="M730.4,348.3c.7.3,1.4.5,2.1.8,7.8,2.9,9.3,3.2,12.6,10.6-8-2.3-10-5.1-14.7-11.3Z"/>
  <path fill="#f3feba" d="M526.9,300.3l2.8,1.7c.4,2.4.4,1.2,0,3.7-3.1,4.3-1.5,2.9-6.5,5-.3.5-1.5,1.7-1.9,2.2l-.8-.5c.5-3.9,4.4-5.7,6.5-12.2Z"/>
  <path fill="#f3feba" d="M603,595.2c1.3.6,2.2,1.2,3.5,2,1.3,3.5.3,5.4-.8,9.1l-2.6.9-1.4-.8c-.7-2.9.7-8,1.4-11.1Z"/>
  <path fill="#c8ed54" d="M514.2,480.1c-.5-3.7-1.3-4.1.1-6.8,3.3.5,4,4.5,4.8,7.3l-.7,2c-2.6.6-1.5.8-3.7,0l-.6-2.4Z"/>
  <path fill="#9cd00a" d="M564.6,350.3l-1.3-2.9c3.2-2.6,9.6-1.2,12,1.7-1.8,1.7-.8,1-4.5,1-2.5-.1-3.7,0-6.2.2Z"/>
  <path fill="#f3feba" d="M800.4,745.5c1.8.2,2.5.4,4.2.8,2.5,2,2.4,3.8,3.1,7-5,0-6.8-3.1-7.3-7.8Z"/>
  <path fill="#c2da6d" d="M771.5,919c18.1,48.3,26.5,92.6,23.3,144.4-.5,7.7,1.1,22-2.1,28.8-.1,10.9-4.2,28.1-10.3,37.3-3.8,7.4-6.1,14.2-11,21.5,5.4,28.4,8.7,51.6,2.3,80.9-1.8,7.9-8.6,15-9.3,25.2-1.6,24.9,3.9,50.9,2.2,75.6-2.3,34.1-9.2,68-15.8,101.5-5,25.5-8.5,51.9-12.3,77.7-1.2,8.1,0,20.5-1.7,28.1l-1.1-1c-1-6.8.6-14.6-3.1-18-10.4-1.1-22.2.9-32.7.5-8.1-.3-16.7-6.9-23.5-2.5-7.5,9.6.2,33.3-9.9,39,9.3-21.2,0-107.8-9.7-130.2-22.6-52.4-30.1-91.9-7.2-148.1,11.6-25.6,20-38.8,16.5-67.5-4.7-39.2-36.5-79.7-45.1-115.2-2.7-3.7-1.7-3.7-5-4.4-3.7,3.9-3.3,10.4-3.6,16-.5,16.9-6.8,65.9-14.6,78.7-14.7,23.9-14.4,21.9-18.8,51.8-2.8,19.4-23.2,51-28.4,71-3.9,12.2-1.4,28.7-2.5,41.4-.8,15.4-2.7,27.2-6.3,42.2-.8,3.5-7.9,38.6-8.2,39.1-2,16.8-7.5,35.1-11.7,51.7-7,27.3-8.1,44.7-7.6,72.6-1.9-1.7-2.2-2.4-3.3-4.7-6.6-3.2-13.3,1.8-19.8,2.8-10.8,1.7-23.3-5.6-33.8-3.5-3.1.6-5.7,14.1-6.5,17.6,1.4-38.4-3-70.2-10.2-107.8-6.8-35.5-17-67.4-15.5-104.8,1.3-30.4,16-61.8,31-87.9,5.6-9.8,16.3-23.2,17.8-34.1,4.9-32.9-5.9-62-14.6-92.8-13.9-49.4-10.2-101.1-10.3-151.8,0-16.8.9-31.5-1.8-48.3,10.7,11.4,4.1,19.1,11.2,24.7,6.9,1.2,16.6-4.2,22.4-7.9l1.1-.7c9.4-.3,14.3.8,22.8-4.5,4.7-2.9,16.2,3.1,27.1-.5l-.2,2c3.3,2.3,13-5.4,18.8-3,.1,0,11.2,1.3,11.5,1.3,18.2-1,29.4,4.4,44.3,15-.7-.5,5.8.5,6.4.7.7,2.2,2.2,7.8,5.4,7.1,11.5-2.4,23.3-3.3,34.8-5.7,10.9-2.1,21.7-5.9,32.5-8.2,23.3-4.8,46.5-10.4,69.4-16.7,4.6-1.3,14.3-5,17.9-8,1-5.5-.6-12.4-1.3-18.4Z"/>
  <path fill="#9cd00a" d="M606,1034.1l1.4,2.4,1.8-1.7,2.1,2.5c.6-4.4,2.7-30.2,2.9-30.6l1.2.3c2.5,13.6-.6,37-.2,51,.3,11.8,6.9,27.2,5.8,38.9-2.7-3.7-1.7-3.7-5-4.4-3.7,3.9-3.3,10.4-3.6,16-1.9-6.2-1.2-10.7-1-17.2l-2.2,1.1-1.6,7.4-1.4-.2c-3.4-6.1-.4-14.7.6-21,.9-6.3,1.6-4.8-1.2-8.6l-3,3.5c-.2-2.8,1.1-16.9,1.1-22.7.8-6.8-.8-10.9,2.3-16.9Z"/>
  <path fill="#9cd00a" d="M533.6,1432.7c-3.8,3.7-5.1,14.2-8.6,20.5l-1.3.3c-1.4-10,4.6-68.9,10.6-74.6,2.2,2.8-2.2,9.4,1.5,15.8,3.2.9,2.1.7,6-1.2-.8,3.5-7.9,38.6-8.2,39.1Z"/>
  <path fill="#9cd00a" d="M782.4,1129.5c-1.6-.3-3.4-.7-5.1-1.1-6.1-8.6,13.3-26.9,3.6-35.3.2,4,.3,4-.6,7.9l-1.4.5-1-1.5c.3-3.6,3.4-21.5,5.5-23.3l1.8,2.7c.5-3.5.7-4.2,3.1-6.7,1.3,2.8,3.2,14.6,4.5,19.4-.1,10.9-4.2,28.1-10.3,37.3Z"/>
  <path fill="#9fc53d" d="M603.7,1051c-1.5-7.8-2.5-33-.3-41.7.3-1.1,1.9-1.3,3.3-1.8l2,1.1c1.8,4.5-.8,18.9-2.3,24l-.4,1.4c-3.1,6-1.5,10.2-2.3,16.9Z"/>
  <path fill="url(#fixed_id_1_2)" d="M711.4,965.7c1,3.1,1.6,27.6,1,31.7-6.8,45.7-28.6,89.1-32.4,135.5-.7,9.1,1.3,20.5,2.6,29.6l-1.2.6c-1.1-1.1-1.3-1.5-2.1-2.9l-1.5,1.1c-3.1,10.2,3,15.9,4,26h-1.3c-1.3-2.5-4.9-9.2-5.2-12-1.1-10.5-.2-21.8-1.9-32.3-1.3-1.6-2.4-3-3.3-4.1-.9-17.9,4.1-43.6,5.6-62.3,2.3-18.2,8.6-35.9,12.3-53.6,3.1-14.5,10.8-48.2,23.3-57.2Z"/>
  <path fill="#fbfdec" d="M706.6,1256.4h3.1c5.5,2.1,18.2,22.1,22.9,28.2,5-.2,4-6.4,10.1-9,13,6-4,70.8-8.2,83.3-1.1,4.4-.2,19.9-1.6,23.2-15.2,33.9-2.7,66.2-18.9,100.9l-.2-.6c-6.8-15.5,0-26.7,3-42.5,1.6-8.8,2.2-17.3,4.1-26.6,4-20.3,11.2-42.9,8.7-63.7-3.7-7.4.4-16.6-2-24-2.7-8.3-15.8-18.7-12.7-28.5l1.9-.8c4.1.8,7.5,3.4,11.2,5.7-11.8-24.3-26.9-10.2-21.3-45.6Z"/>
  <path fill="#fbfdf4" d="M523,1237.9c7.9-15.3,24.2-28,29.2-46.8,2-7.7,1.7-18.5,6.2-23.7,0,0,7.5-4.9,6.9-4.7,9.1,7.2,5,14.8,3.6,24.7-2.3,16,3.1,43.6-19.6,46.4-4.1.5-3.5-3-5.3-1.2,6.3,10.2,10.7,7,7.3,21.2-2,8.3-.6,7.9-6.9,14.7-9.6,2.2-12.1-16.1-12.1-22.8,0-2.3.4-4.2,1.1-6.3l.7-3.1c-2.1,1.7-2.2,3.6-3.4,6.5-2.6,1.1-1.7.8-4.5,1-2.6-2.1-1.9-2-3.2-5.9Z"/>
  <path fill="#fbfdf4" d="M718.3,1074.3c16.2,5.1,6.8,33.1,12.7,43.5,1.9,3.4,2.1,2.3.8,6l-2.7.9c1.3,2.9,3.3,6.6,2.5,9.2l-2.4-.5c-.6,5.8,8.7,15.5,4.9,20-2.2-1.5-1.5-1.3-4-2,.6,3,1.1,4.6,2.1,7.5l-.9,1.6c-1.8-.6-3.4-1.2-5.1-2,1.2,2.6,1.9,4.1,2.9,6.8-1.8-.2-1.2,0-2.9-.4l-1.1-.2c-1.3,1.5,1.1.7-1.7,5.7-10.6-4.4-20.2-12.7-19.6-25.2.2-4.3-2-7.8-.4-11.3,3.5-.2,1,2.5,5.4,4.6.1-9.1-7.4-11.4-1.9-22.8l1.5-.2,3.5,3.4,1.5-.4c5.7-12.9-2.2-25.7,4.9-44.1Z"/>
  <path fill="#f9fddc" d="M732.7,1209.7c15-9.2,16.2-8.7,22-27.2,2.4-7.8,1.5-20.6,7.6-25.6l1.3.7c.3,3.2,1.1,4.4,1.6,6.8,1.8,8.2-1.1,29.6-3.3,36.9-1.3,4.4-12.5,11.2-15.8,14.5l.6.9c5.1-.1,6,0,10.6-2.2,7.3,2.6.3,32.3-13.6,27.9-6.3-6.2-1.9-15.1-4.4-20.2-5.2,8.6-4.2,20.3-8.1,24.8h-1.9c-5.6-4.6-16.1-31.8-13-38.1,6-.4,10.6.2,16.6.7Z"/>
  <path fill="#fbfdec" d="M739.1,1222.2c-5.2,8.6-4.2,20.3-8.1,24.8h-1.9c-5.6-4.6-16.1-31.8-13-38.1,6-.4,10.6.2,16.6.7,3.1.5,4,.1,7-.6l2,.9c.2.6,2.4,7.6,2.2,7.3,4.2,3.9,14.1,5.5,10,13.7-1.2,2.4-3.5,5-6.5,5.8-2.8-6.6-3.3-14.3-6.6-17.3l-1.4.5v2.1Z"/>
  <path fill="#fbfdf4" d="M739,1211.5l.9,1.6c-.7,5.5-5.6,6.6-7.8,12.3-1.7,4.3-1.5,15.5-2.8,18.7l-1-5.1c-2.1-3.7-2.9-10.7-3.6-15l-3-1.9c-1.8-2.9-2.1-2.9-2-6.4,3.6-4.3,11.8-3.2,19.3-4.2Z"/>
  <path fill="#fbfdf4" d="M556.8,990.5c.5-5.4,1.1-17.9,4.5-21.1,7.9,1.1,5.1,33.1,6.9,40.2,3.1,12.3,6.9,25.7,6.4,38.5,0,.9,0,1.9.4,2.8-.9,3.9-.2,10.1.9,13.9-.5,3.6-.3,4.7-2.7,7.3-4.2,0-3.9-2.6-4.8-6.4-.3-3.4.3-1.9-1.5-4.5-1,4.8-1.4,8.3-3.5,12.8l-1.2.4c-9-6.9-4.7-45.2-12.8-55.8-2.5-3.2,5.7-21.4,7.5-28.1Z"/>
  <path fill="#fbfdec" d="M556.8,990.5c.5-5.4,1.1-17.9,4.5-21.1,7.9,1.1,5.1,33.1,6.9,40.2,3.1,12.3,6.9,25.7,6.4,38.5,0,.9,0,1.9.4,2.8-.9,3.9-.2,10.1.9,13.9-.5,3.6-.3,4.7-2.7,7.3-4.2,0-3.9-2.6-4.8-6.4-.3-3.4.3-1.9-1.5-4.5-1.7-6.2,4.2-13.3,4-14.9-2.2-19-4.9-37.9-8.1-56.8-.8-4.8.6-7.7.4-12.6l-1.3.2c-2.1,5.6-1.5,8.1-5.1,13.3Z"/>
  <path fill="#fbfdf4" d="M509.3,1014.3c17.6,3.2,17.8,32.7,13.5,44.5-6.9,19.2-4.3,7.4-1.6,26.1-2.8.2-2.9-.1-5.8-.8-3.9,4.9,8.9,22.7,8.3,36-2.5,2.4-1,1.4-5.6,1.8,2.1,4.9,3.9,8.6,4.9,13.9-.9,4.6-2.8,7.5-7.7,8.2-7.7-4.4-1.7-11.6,0-17.2-1.2-1.9-2.5-3.7-3.8-5.5,0-1.3.2-49.3.4-48.5-6.2-22.1-12.3-35.2-2.6-58.5Z"/>
  <path fill="#fbfdf4" d="M734.2,962.3c2.4.5,7,.8,7.9,2.6,5.7,11.5,4,26,7,38.1,3.4,13.5,13.8,27.4,9.6,42.1-2.4,2.2-1,1.6-4.2,1.9-2.4-1.8-2.5-2-4.4-4.4-2.7,4.7-1.3,4.7-2.3,9.7l-1.3.5c-1.1-2.8-.8-4-.7-6.9v-1.1c-2.5-4-2.3-7.4-3.2-12-2.2-11.6-8.3-22.6-11.1-33.9-1.2-5.3-2-10.8-2.2-16.2-.3-7.2,0-15.1,4.8-20.4Z"/>
  <path fill="#f3feba" d="M451.7,1465.3c-4.6-15.7-3.7-72.8,1.5-89.5l.7,2,1.4-.2.5,3.2c2.5-3.8,3.4-12.2,4.7-17.3l1.1-.6,1.1,3.2h1c1.2,5.6-4.1,20.4-5.3,26.8-2,11.3,0,19.4-.2,30.4,0,3.2-.2,5,0,8.6l1.2.4,2.2-.4c3.2,4.6,1.9,49.4-4,53.3-3-2.6-4.7-15-5.9-19.8Z"/>
  <path fill="#f9fddc" d="M451.7,1465.3c1.5-8-2.1-30.3,2.7-36.6h1.9c0,0,1.9,3.1,1.9,3.1l1.2.4,2.2-.4c3.2,4.6,1.9,49.4-4,53.3-3-2.6-4.7-15-5.9-19.8Z"/>
  <path fill="url(#fixed_id_1_3)" d="M494.4,1199.2l3.1,1.4c4.8,6.4,10.4,47.5,9.2,57.6-.6,4.9-3.5,4.6-5.8,7.2-6.7,7.3-3.8,19.5-16.9,17.8-.2-.4-.9-2.1-1.2-2.3-8.5-6.1-.5-10.5,1.4-17.7-2-.8-1.1-.5-3.3-1.2l-1.7-.5-.7-1.5c1.3-5.6,5.2-8.6,9.7-12.1,9.3-7.1,4.7-13.9,5.5-24.4l4.7-3.3c-.2-5.1-2.7-15.7-3.9-21.1Z"/>
  <path fill="#9cd00a" d="M453.8,1022.4c1.1,1.5.9,1.1,1.1,2.8,1.8,14.2,6.8,30,9,44.2,2.4,16.2,5.2,32.3,7.5,48.5.9,6.2.4,12.8,1.1,19.4v1c-1.2,1.7-1.7,2.2-3.1,3.7l-.2.3h-1c-5.6-16.4-5.2-36.7-9.6-52.3-7.9-27.7-5.7-39.6-4.6-67.6Z"/>
  <path fill="url(#fixed_id_1_4)" d="M574.9,1050.8c7.2-9.6,2.8-49.3,2.5-62.1-.2-7.3-3.9-17.7,3.2-22.7,4.3-3,8.3-2.3,11.9,1.3-2.4.3-1.9.2-4.3,0-11,5.3-3.8,21.8-3.6,32.3.4,21,0,41.8-.2,62.8,0,5.2-1,34.9-3.4,37.5-6.6-6.7.5-19.2-4-27.1l2-3.2c-1.3-4.3,0-2.9-3.2-4.9-1.1-3.7-1.8-9.9-.9-13.9Z"/>
  <path fill="#f3feba" d="M579.1,1069.5l.6-.2.2-4.7,1.2.4c.5,2.3.6,4.2.9,6.5,1.4-3.9,1.7-5.2,2.5-9.3,0,5.2-1,34.9-3.4,37.5-6.6-6.7.5-19.2-4-27.1l2-3.2Z"/>
  <path fill="#f3feba" d="M487.8,963.8c.8.9,1.4,1.8,2,2.8.6,6.2-2,12.1-4.1,18.7-5.2,16.4-7.9,33.8-9.3,50.9-.7,9.1.8,30.3-2.3,37.3-3.7-2.6-3.5-19-3.6-23.3-.3-15.2-.5-72.7,9.2-82.7.4,1-2.2,18.2-1.9,24.3v1.6c2.6-9.3,4.6-21.6,9.9-29.6Z"/>
  <path fill="#f3feba" d="M513.2,1259.6c.5,7,3.8,16.7.2,22.2l-2.5-.2c-2.5,4.3-1.3,46.1-1,53.8-8.8-1.1-4,1.5-9,3.2l-.3-4.1-1.4-1.2-1-.7-1.2,2.1c-.3-5,3.2-59.3,4.5-62.4,10.3-1.2,9.7-3.8,11.6-12.7Z"/>
  <path fill="#c2da6d" d="M505.1,1274.7c4.3,5.8.7,51.1-2.1,59.6l-.9-.2c-.3-16.8,2.6-41,3.1-59.4Z"/>
  <path fill="#f3feba" d="M735.8,1440.8h1.7c2.7,6.9-12.7,69.8-17.7,73.6-5.1.6-15.2-1.6-18.1-5.7l.7-8.1.9-.6c.4,2.1.9,4,1.4,6l2,1.1c18.6-1.8,18.2-58.4,25.1-66,2,0,1.9.2,4-.3Z"/>
  <path fill="#f3feba" d="M715.9,1503.3c.8.3,2.1,1,2.9,1.4,1.4,3.1.2,5.6-.6,9l-3-1.4c-1.2-3.7-.3-4.5.7-9.1Z"/>
  <path fill="#f3feba" d="M674.1,1339.6c1.7-5.3.7-9.7,2.6-16h.2s-.1.5-.1.5l1,1.5c.5,10.3,3,19.7,4,29.9.7,6.6-2.4,14.2-1.2,21.3l1,.2,3.2-4.5c-.8,4.5-3.7,10.8-6.7,14.2-2.3,0-1.3,0-3.7-1.8-1.8,3.4-3,9.9-4.1,13.9-.1-8.8.4-15.4,1-24.2-1.2,3.2-3.9,9.6-4.8,12.4-.4-3,.3-1.8-2.1-3.6l-.7.4,1.3-.3-2,1.8c-.9-5.3-2.7-12.4.2-17l2,.7.2-1.2c12-3,9.7-18.9,8.6-28.3Z"/>
  <path fill="#9cd00a" d="M481.5,1038.4l2.1,1.5c3.6,13.5,4.3,54.4,4,68.9-5.6,3.4-4.7,2.7-5.2,8.8-.5,1.8,0,1.3-1,1.9-2.4-16.4-6.5-66.8,0-81Z"/>
  <path fill="#f9fddc" d="M530.1,1285.5c3.1-.2,2.1-.5,4.9.4,6.5,9.7,2.4,32.1-.7,43-.7,2.6-1.3,3.7-1.7,6.8v.9c-2.1,2.5-.8,1.9-3.7,2.3-6.7-6.1-3.3-45.5,1.2-53.4Z"/>
  <path fill="#f3feba" d="M652.9,1304.6c3.2,8.4,4.4,60.8,5.5,62.3,3.4-8.4,0-14.7,1.9-19.8.2,6.8.5,13.1,1,19.9-2.7,5.5-1.6,11.9-3.8,16.4l-1.4-1.3c-3.7-13.5-10.6-32.3-9.1-46.6,10-13.5.2-17.4,5.8-31Z"/>
  <path fill="#fbfdf4" d="M499.6,1344.4c1.5.3,1.9.5,3.4,1.1,9.1,16.4,5.8,34.4-1.9,50.7l-1.2-.7c1.2-3.3,2.3-5.4,1.8-8.9-9.4-4.5-7.7-17.4-7.7-26.6,0-5.6,3.1-10.7,5.7-15.6Z"/>
  <path fill="#9cd00a" d="M543.6,1109.3c8.2,2.9,7.7,32.5,7.2,40.2-.4,5.5-.9,7.2-4.6,11.3l-.2-1.8c-1.6-2.4-10.6-27.1-10.2-28.8l2.3.4c7.6-8-5.2-10.4,5.5-21.4Z"/>
  <path fill="#9cd00a" d="M651,1396.2c1.8.3,3,.5,4.3,2,6.1,6.9,14.3,4.8,21,9.7,2.2,1.7,1.7,1.8,1.9,4.3-1.9,3.7-3,3.9-6.8,6.1-2.9,2.4-7.1,6.4-10.6,6.9-5-2.9-11-22.8-9.8-29.1Z"/>
  <path fill="#f3feba" d="M757.4,949.6c8.6,5.9,13.4,66.6,11.4,77.7l-1.2.2-1.5-3.6c-2.7-1-2.4-.7-5.3-.5-2.1-2.7-1.2-25-1.2-30.2-.1-6.3-1.5-4.5-.7-13.6,2.3,10.9,1.7,29.3,1.9,40.6,7.1-11.3-1.3-57.2-3.4-70.7Z"/>
  <path fill="#f9fddc" d="M476.6,1443.3c15.5-.6,8.6,29.8,5.5,38.2-2.1.8-1,.6-3.4.2-4.5-6-5.9-31.2-2.2-38.4Z"/>
  <path fill="url(#fixed_id_1_5)" d="M667.2,1355.6c-.5-.9-.8-20.1-.7-23,.3-6-4-26.5-.7-29.9,2.6,3,4.3,27.3,5.1,33.1l1.7-.9.5-2.5c.3,2.6.5,4.6,1,7.1,1.1,9.3,3.4,25.3-8.6,28.3,2.3-5.4,2.1-6.5,1.7-12.3Z"/>
  <path fill="#c8ed54" d="M667.2,1355.6c-.5-.9-.8-20.1-.7-23,.3-6-4-26.5-.7-29.9,2.6,3,4.3,27.3,5.1,33.1.2,2.4,1.2,7,0,8.6-.9-3.4-.6-4.7-2.7-6.8-1.6,5.1.5,13.1-1,17.9Z"/>
  <path fill="#f9fddc" d="M705,1338.9h1.3c7.4,7.6.6,27-6.8,27.8-1.8-6.2-6.5-20.9-4.2-26.4,3.5-2.1,5.6-1,9.7-1.4Z"/>
  <path fill="#f3feba" d="M503.2,1473.2c6.2,4.5,5.9,18.1,5.8,25.2,0,5.8,1,18.6-.6,23.1l-1.6.6-1.4-1.4c-2.5-7.6-6.5-35.5-5.1-42.9l1.3.6,1.3-.2-.2.3c1-1.7.5-3.1.4-5.5Z"/>
  <path fill="#9cd00a" d="M719.3,985.9l2,1.5c3.9,11.5,7.5,21.1,7.7,33.6,0,4-.5,3.9-2.9,6.4l-2.3-1.6c-6.3-10.4-5.2-28.3-4.5-39.9Z"/>
  <path fill="#f3feba" d="M463.6,1001.3c.6.4,2.3,2.2,2.3,2.8-.3,9.8,1.8,45.3.9,52.2l-.9-.8c-5.7-8.7-5.2-33.8-5.1-44.3,0-1.5,2.3-8,2.9-9.8Z"/>
  <path fill="#9cd00a" d="M758.7,1096.4c7.9,1.8,7.5,12.1,7.5,18.2,0,5.5.9,11,.6,16.5-2-2.2-1.1-5.8-1.5-10.3l-.9.4-1,3-1.7,10.5-.7.2c-1.2-4.3-1.5-5.6-1.8-10v-1.1c0,0-.7-.2-.7-.2-.2,3,.3,2.2-1.1,4.4l-.5-1.2c3-12.2,2.3-18.6,1.9-30.5Z"/>
  <path fill="#f3feba" d="M530.7,1242.8c-1.4,6-3.7,24.3-6.6,27.4-4.7-3.6-6.2-27.2-1.1-32.3,1.3,3.9.6,3.8,3.2,5.9,2.8-.2,1.9,0,4.5-1Z"/>
  <path fill="#9cd00a" d="M713.2,1374.5c3.2,3.6,2.1,11.3,2,16.6-6.2,4.3-10.8,7-17.6,10.1-1-1-.5-.3-1.1-2.2,2.8-7.6,11.9-16.1,16.7-24.5Z"/>
  <path fill="#f9fddc" d="M483.4,1531.2c9.1,4,14.6,10.6,6.3,18.8-15.3-1.4-14.5-7.9-6.3-18.8Z"/>
  <path fill="#f3feba" d="M575.9,1064.7c3.2,2,1.9.6,3.2,4.9l-2,3.2c-1.4,6.1-1.1,26-5,28.5-3.6-6.3-3.5-27.7-3.6-35.6.8,3.8.5,6.3,4.8,6.4,2.4-2.7,2.2-3.8,2.7-7.3Z"/>
  <path fill="#c8ed54" d="M772.5,1098c-3.8-4.9,1.5-39.3-1.8-46.5-.5-1.1-.4-.8.1-2.5,2.1,2,1.4,1.8,1.9,5.5.2-2.8,0-2.7,1.3-5.3,8.9,5.5-2.2,37.7-1.4,47.9v.8Z"/>
  <path fill="#9cd00a" d="M586.9,1187.7c2.1-2.8,1.6-3.2,4.2-3.9,1.2,2.8.5,4.4.2,7.4l-.2,2.1-2.2,1.1c-2.8,4-2.9,5.1-7.2,6.2l-1.9-1.2c-1.9-5.1-1.5-11.4,2.8-15.2l1.7.2,1,2.9,1.6.5Z"/>
  <path fill="#f3feba" d="M674.9,970.2c4.6.5,3-.5,5.5,2.5,1,6.9.2,18.2-1,25.1-1.7.1-.8.2-2.6-.6-1.4-7.6-2.8-19.5-1.8-27Z"/>
  <path fill="#c8ed54" d="M768.8,1052.6c1.2,5.1-1.5,19.9-.9,25.9.6,5.4-2.4,9.7-1.7,14.5h-1.1c.2-13-1.6-22.5-1.6-34.7,2.9.2,1.9.4,4.5-.8,0-2.6,0-2.3.8-5Z"/>
  <path fill="#f3feba" d="M752.3,1331.4h3c3.7,3.5,2,14.9-1.5,19l-.7,1.2-1.3.2c-3-3.4-2.3-16.3.5-20.4Z"/>
  <path fill="#9cd00a" d="M706.7,1421.5c2.7,5,2.8,9.1.9,14.6-1.5,4.6-.9,3.6-5.2,5.7-5.8-8.2-.9-12.7,4.3-20.4Z"/>
  <path fill="#9fc53d" d="M622.5,1063.6c1.9,1.7,1.7,1.7,4.2,2.4l1.4-1.9c1.9,5.1,4.8,14.6,4.8,20l-2-1.4v-.6c0,0-1.2,0-1.2,0l-1.3,3.2h0l-1.1,1.1c-1.7-4.4-3.9-17.5-5-22.8Z"/>
  <path fill="#9fc53d" d="M664.6,1156.9c3.3,3.5,4.9,17.2,2,21.2l-2.3-.7c-1.9-6.4-3.4-8.1-4-14.9l1.8-1.1-.7.6,2.2-.4,1-4.7Z"/>
  <path fill="#9cd00a" d="M772.6,1097.1l1.7-3.1c1.8,5.8,4.1,19.7,0,24.6-5.7-2.7-2.9-15.3-1.9-20.6v-.8Z"/>
  <path fill="#f9fddc" d="M516.2,1198.3c9.1,2.7,8.8,7.6,5,14.5-9.5-.6-7.2-8.7-5-14.5Z"/>
  <path fill="#f3feba" d="M750.5,1257.2c2.9,4.6,2.9,13.2-1.3,17.2l-2.8-.7-1.2-.2c.5-2.2.2-1.3.9-3.3,1.5-4.3,3-8.7,4.4-13Z"/>
  <path fill="#9fc53d" d="M661.7,1136.3l2.1,1.8c.9,5.4,1.4,12.6-1.7,17.3l-1.7-1.7c-.9-6.3-.7-11.4,1.3-17.5Z"/>
  <path fill="#9cd00a" d="M945,869.9c2.1-4.8,1.8-14,2.5-20.2,2.8-32.5,11.5-53.2,31.5-78.7,32.5-41.4,97.1-45.4,136.8-12.2,21.7,18.2,42.8,59.3,45.2,87.9,21.1,7.2,60.3-11.9,50.6,34-3.7,17.3-33.1,11.5-46.2,13-.5,5.2-1,10.2-1.8,15.3,2,12.5-11.7,48.8-18.9,60.7-14.7,24.1-31,41.8-59.3,49-66.2,16.7-112.3-21.7-131.6-83.3-3.6-11.3-4.6-22.6-7.4-33.7l-.3-1.1c-5.4-1.7-6.4-1.7-12.1-1.7l-1.5-1c-1.5-10.9,5.4-19.3,4.8-27.2l1.9-1.2,5.6.4Z"/>
  <path fill="#c2da6d" d="M945,869.9c7.4,5.2,22.3,2,31.5,1.7,9-1.2,24.2,0,29.9-8.5,3.4-5.6,3.1-10.9,10.2-13,5.2-1.6,13.9.2,18.4-1.1,30.2-8.7,35.7,56.9,9.7,59-17.4,1.3-29,8-35.3-11.7-2.5-7-49.3-.3-55.7-.6-3.2-.2-5.6,2.6-7.5,5-5.4-1.7-6.4-1.7-12.1-1.7l-1.5-1c-1.5-10.9,5.4-19.3,4.8-27.2l1.9-1.2,5.6.4Z"/>
  <path fill="#f9fddc" d="M1015.4,872.4h6.4c3.8,3.2,5.9,6.1,4.5,11.1-9.1,10.3-64.7,5.4-78.2,10h-10.8c0,0-.8-.9-.8-.9-.5-5.1.8-9.9,3.4-14.2,6.5-2.8,61.4-3.6,75.4-5.9Z"/>
  <path fill="#f3feba" d="M1039,851.1c25,2,24.9,42.4,7.9,55.2-3.4.3-2.3.6-5.4-.4,0-2.8,4.7-13.6,5.8-17.2,2.9-9.3-.5-15.4-3.2-23.8-1.8-5.7-6.5-9.2-5.1-13.8Z"/>
  <path fill="#f3feba" d="M1020.8,854.3c4.1.9,9.9,3,11.9,6.8-.6,3.5-.3,2.3-3.7,5.3-4.5-2.3-11.9-2.7-13.3-7.7,1.2-2.6,2.6-3,5.1-4.3Z"/>
  <path fill="#f3feba" d="M1028,894.7c3.1.5,2-.3,3.8,1.8-1,3.2-3.6,4.9-6.2,7.2-2-.2-1.5-.2-3.4-1.2l-.4-2.2c1.9-3.6,2.4-3.6,6.2-5.5Z"/>
  <path fill="#9fc53d" d="M1161,846.7c21.1,7.2,60.3-11.9,50.6,34-3.7,17.3-33.1,11.5-46.2,13-.5,5.2-1,10.2-1.8,15.3-2.7-17.1.9-40.2-1.4-57.6,0-.1-1.2-3.8-1.3-4.7Z"/>
  <path fill="#fbfdf4" d="M1172.8,857.5c13.5-.7,38.4-6.3,33.6,17.2-.9,4.2-3.2,6.7-6.8,8.9-10.3,1.9-20.8,2.7-31.2,3-.5-6.7-2-17.8-.8-24.2.6-3.1,2.7-3.6,5.2-4.9Z"/>
  <path fill="#c8ed54" d="M1109.5,782.7c7.5,1.9,19.4,32.2,22.7,39.6,20.5,46.3,15,95.9-5.9,141-1,2.2-1.9,4.9-4.2,5.7,2.4-13.7,12.8-30,14.6-45.4,3.1-23.8,1.2-50.9-5.7-74-6.8-23-7.5-46.4-21.4-66.9Z"/>
  <path fill="#9cd00a" d="M666.5,1558c10.1-5.8,2.4-29.4,9.9-39,6.8-4.3,15.4,2.2,23.5,2.5,10.5.4,22.3-1.6,32.7-.5,3.8,3.4,2.2,11.1,3.1,18l1.1,1c4.5,19.4,14.3,23.6,29.7,34.9,8.8,6.4,17.7,12.8,26.7,18.8,20.6,13.6,50,15.3,65.1,36.6,1.1,1.6-.5,9.5-2.3,11.3-11.8,12.2-32.9,6.3-47.2,4.2-7.9-1.2-28.2.7-33.8-3.6-25.2-19-38.7-24.3-70.3-17-8.7,2-33.2-3.6-39.7-10.2-6.8-6-7.9-10.2-11-18.3,2.8-13.7,7.8-25.5,12.4-38.7Z"/>
  <path fill="#9cd00a" d="M450.9,1569.2c.7-3.6,3.3-17,6.5-17.6,10.5-2.1,23.1,5.2,33.8,3.5,6.5-1,13.2-5.9,19.8-2.8,1.1,2.3,1.3,3,3.3,4.7,1.6,12.4,3.8,34.8,7.6,45.9,6.6,18.8,68.2,67.1,64.6,84.3-.4,1.7-1.2,3.3-2.3,4.7-2.7,3.2-7.2,5-11.4,5.2-6,.2-10.9-3.1-16.9-1-6.2,2.1-44-1.8-56-1-7-3.5-20.3-9.6-25.7-15.3-10-10.9-20.6-22.9-28.3-35.5-4-6.5,3.2-26.7,2.6-33.6-1.1-14.6,1.6-27.6,2.3-41.4Z"/>
  <path fill-opacity="0" d="M706,130.8c3.1,3.2,2,13.8,2.8,19.1,1,6.5,1.7,14.9,1.1,21.4l-1.1.7c-1.5-9.1-4.9-18.4-5.6-27.4-.3-3.4,3-8.9,2.8-13.8Z"/>
</svg>