<?xml version="1.0" encoding="UTF-8"?>
<svg id="fixed_id_0"  xmlns="http://www.w3.org/2000/svg" version="1.1" xmlns:xlink="http://www.w3.org/1999/xlink" viewBox="0 0 1074.8 1625">
  <!-- Generator: Adobe Illustrator 29.3.1, SVG Export Plug-In . SVG Version: 2.1.0 Build 151)  -->
  <defs>
    
    <linearGradient id="fixed_id_1"  x1="103.3" y1="422.4" x2="134.2" y2="403.7" gradientTransform="translate(0 1678) scale(1 -1)" gradientUnits="userSpaceOnUse">
      <stop offset="0" stop-color="#deec8c"/>
      <stop offset="1" stop-color="#faffd1"/>
    </linearGradient>
  </defs>
  <path fill="#b9d35c" d="M730.9,38.1c53.9-4.5,149.8-19.2,200.3-4.5,12.5,3.7,24.1,9.9,34,18.3,46.4,39.6,40.8,108.8,39.2,163.3l-2,83.3c-2,66-3.3,132.1-3.9,198.1l-8.7,606.3-5,231.2c-.5,25.8-2.2,56.9-2,82.2,5.4,1.8,9.2,3.3,15,3.7,16.4,1.4,47.7,2.1,57.4,16.7,2.4,3.5.9,25.1,1.3,30.4,5.1,29.6-9.7,29.1-34.9,37-17.8-4.9-31.5-8.4-49.4-13.9-2.9-3.3-4.7-5.4-7.1-9l-57.8-17.5c-11.1,5.2-24.2,9.4-35.9,13.5-24.1,8.5-48.3,16.7-72.6,24.6l-179.9,61.2c-12.5,4.3-9.1,5-16.5,13.4-1,1.1-14.7,5.6-17.3,6.3-14.4,3.6-24.8,12.2-39.9,5.5-13.8-6.1-21.8-7.2-31.1-19.5-.5-18.1.2-32.7,4.2-50.4,9-7.8,37.4-18.9,49.8-17.3,7.2.9,26.8-6,33-9.2l.8-1.4c-3.4-6.9-10.2-14.9-14.7-21.5-10.5-15.6-4-38.6,1.5-55l1.2-3.4c-6-13.9-6.4-22.8-8.7-37.7-5.9-1.2-19.6-3.1-22.7-8-5.2-11.5-.9-30,.6-42.2,1-8.1,8.7-6.6,8.1-11.4-3.4-27.2-10.3-54.8-16-81.5l-28-137-88.1-458.6c-7.3,6.5-11.9,9.8-19.8,15.4-45.3,1.5-66.7-40.1-76.7-41l-1.9,1.2c-.6,3.7,0,6.8-.6,10.9-2.5,17.9,5.3,35.7,6.4,53.5,1.3,15.7-1.9,24.7-4.2,39.9-.6,4.4,4.1,9.4,4.7,13.7,2.2,14.4,1.6,31.1,4.9,45.2,2.2,9.3,7.9,21.6,11.5,30.7l20.5,52.3c14.4,36.5,20.8,63.4,23.7,102.4,3.6,47.8,4.5,68-18.3,111.1,10.6,24.7,7.9,66-4.1,89.7,1.2,9,2.9,18.1,3.7,27.2,7.6,77.4-27.3,153.4-17.4,230.4,1.9,15,36,36.7,50.2,44.9,16.7,9.7,77.1,26.2,56.7,57.3-10,15.3-34,9.6-48.2,6-11.2-2.8-22.9-2.1-33.2-7.8-7.1-3.9-22.4-19.3-28.3-19.4-54.8-1-94.9,8.2-73.5-67.1,7.7-26.9-5.2-75.7-13.5-103-5-19.4-13.5-32.5-19.9-50.3-17.3-48.2,1.6-100.6,23.6-144.1-4.5-18.2-15.6-38.7-21.7-58.3-5.2,21.4-16,39.6-23.6,60-4.3,11.4-4.2,24.1-7.8,35.8-4.5,14.9-12.6,29.1-16.5,43.9-4,15.3,0,45.5-2.2,63.6-3.9,33.1-11.6,66-17.1,98.8-2.8,17-5.8,34.4-5.7,51.7,0,14,2.2,26.9,5,40.6,1.9,9.4,3.5,19.6,8.7,27.9,11.6,18.7,72.1,66.7,67.3,86.4-1,4.1-3.6,8.9-7.4,11-7.8,4.4-49.8,6.2-59.2,5.4-7.9-.6-15.5-2.5-23-5-32.4-11-30.7-17-50.3-41.5-5-6.2-11.5-11.3-15.1-18.5-6.4-12.9,2.8-62.9,1.9-81.4-1.7-33.7-9.8-76.3-17.9-109-13.3-53.9-29.9-71.3-8.8-127.6,5-13.4,11.1-26.8,16.9-39.9,5.5-12.4,14.9-25.5,15.7-39.4,1.5-26-14.7-66.9-19.4-94.4-8-46.4-6-93.3-11.6-139.8-2.7-22.4-13.2-43.2-14.3-65.9-1.1-24.5,9.3-86.1,17.1-109.1,4-11.7,12.3-23,14.3-35.2,2.1-13,0-28.4-.7-41.6-4.2-4.1-19.7-18-21.9-21.4-9.2-14.5-16.2-31.1-24.3-46.2-9.6-17.9-20-32.8-27-51.8-9.9-26.5-4.2-47.5-4.7-74.3-.1-6.9-7.9-20.4-9.2-27.8-5.2-26,0-60,19.6-79.3,11.7-11.7,26.4-21.1,39.3-31.4,8.2-6.6,23.3-25,30.2-29.2,37.3-22.6,62.5-38,41.4-85-11.1-24.8-16.6-51.4-7.6-77.8,15.1-62.8,104.8-79.2,147.1-35.5,12.4,12.9,22.8,48.4,22.9,67.2,0,3.4-1.7,8.5-2.8,11.7,7.1,24.6,1.6,49.4-2.4,74.2-1.7,10.6-6.6,26.1-18.7,28.2-3.8.8-11.2,2.7-14.2,4.9-3.5,6.3-1.6,15.9.4,22.5,7.9,7.4,26.6,25.2,36.2,28.3,7.7,2.5,17.7,3.6,26.3,7.7,8.9,4.2,17.2,11.3,25.7,14.6,31.1-12.7,69.5,10,98.2,5.1,8.5-1.4,13.9-22.9,30.3-30.8.4.1.7.3,1.1.4,9.8,3.1,19.8,0,29.5,4.3,7.2,3.3,12.9,9.3,18.6,14.6,22.3,20.6,75.8,37.1,104.2,56.3l2.1,1.4,1.6-220v-54.5c.3-9.7,1-20.5.5-30-7.4,0-14.5,1.1-20.3-3.3-3.5-7.2-4.3-47.1,3.6-48,15.7-1.9,63-8.8,77.6-7.2,7.9-1,13.3-1.5,21.2-1.8ZM953.8,1425.8c6.8-2.4,14.2-5.3,20.3-8.9l15.8-930.1,2.5-194.5c1-31.4,1.6-62.8,1.7-94.2.4-57.5.7-120.5-59.3-148.6,4.6,5,20.6,25.1,18.2,30.9-1.5-.5-32.8-29.1-42.3-34.5-28.2-8.6-49.3-5.6-78.1-3.5-21.5,1.4-42.9,3.2-64.3,5.2-5.9.6-33.3,3.9-38.2,3.5-30.8,3.3-61,4.9-91.7,7.6-.2,9,.3,19.5.5,28.6,6-.7,10.8-1.6,16.8-.7,5.2,3.8,3.1,34.1,3,41.9l-.5,54.6-1.6,195.1-1.3,246.6c.3,139.4-.4,278.7-2.1,418.1l-2.4,202.3-.5,58.1c-.1,10.1-4.1,29.6,7.3,34.5,7.5-5,7.2-89.3,7.5-101.3,1.9-92.7,2.7-185.4,2.6-278l5.7-673.8.9-124.6c0-11.4-.5-66.2,1.1-72.8,11.2-5.9,84-8.7,101.9-10.4,30.3-2.9,68.6-5.2,99.7-5.8,66.2-1.4,66.1,70.6,65.9,114.1l-1,78.8-4.7,286-12,867.5c6.9,1.3,21.5,6.3,28.6,8.5ZM447.7,617.1c24.9,112.9,44.5,231.5,66.5,345.4l53.7,273.3c3.7,19.5,9.2,42.7,12.4,61.3l2.3,11.5c25.9-7.8,34.1-1.6,57.4,9.8l5.2-626.8c0-60.2.5-120.4,1.3-180.6.3-26.4-.6-59.1,1.4-85.1-16.5,12.6-22.2,10.9-40.2,1.3-14.7-7.8-41.8-25.5-57.7-28.8-14.8,14.5-21.7,47.3-29.4,66.6-4.7,11.6-10.6,22.7-14.7,34.6-7.2,21.8-12.9,49.3-23.4,69.6-7.5,14.5-26.4,33.6-34.7,47.9ZM887.6,724c0,9.1-1.5,35.2,1.3,41.1,7.7,5.5,23.4-3.8,25.6,10.1,1.4,8.6-3.3,13.9,2,20.6,3.4,1.1,4.6.7,8.1.2,1.8-44.2,1.4-87.8,2.1-131.9l3.8-274.5,2.1-158.1c.2-28.2,1-56.9-1-85.1-2-28.6-12.4-52.3-41.9-60.9-2,66.5-1.8,133.5-2.8,200.1l-3.6,188.5-2.7,164.4c-.3,22-.7,44-.6,66,0,11-1,12.7,7.7,19.5ZM827.4,88.1c-3.2,27.9,7,31.2,5.3,57.1-.8,12.1-8,23.7-8.5,35.9-.7,15.8-.6,31.8-.7,47.7,0,26-.3,51.9-.9,77.9l-4,241.7c-.4,55.9.5,114.4-1,170,10.5,14.3,3.9,23.7,7.1,39.6.3,1.8,2.9,2.1,4.2,2.4l21.5,1.9c0-8.6-2.2-35.5.7-40.4,2.4-1.8,5.6-3.3,5.7-6.2.1-5,0-10.8,0-15.7,0-11,.2-22,.5-33l1.6-153.7,4.1-280c.6-48.5,1.7-98.4.6-146.9l-15.4.5c-6.7.7-14,1.5-20.8,1.5ZM775.5,754c3.3,4.5,18.3,3.5,24.3,3.7-.5-11.4-.2-22.8,1-34.2l6.9-7.1c1.6-30,.9-66.3,1.2-96.8.9-66.6,1.4-133.2,1.5-199.8.6-75.6,3.7-151.5,3.5-227.1,0-3-.2-5.7-1.8-8.2l-1.1-.7c-11.8,8-20.4,8.2-34.4,5.5l-1.6-.3c.2,19.4-.7,39.2-.9,58.7-.3,43-.8,85.9-1.7,128.9l-3.2,331.7c2.6,1.5,5.8,3.1,6.2,6.1,1.8,12.4.1,27,.2,39.7ZM679,788.1c8.1-2.4,12.3-3.7,20.9-4.2.2-8.2.8-20.2.1-28.1.5-10.2,1-20.3,1.4-30.5.4-10.1-.4-25.3,1.2-34.6l1.3-389.6,1.4-144.5c0-17.8.5-40.5-.3-58.1-8.9-1-13.1-1.3-22-1-1.8,47.8-.8,100.4-1.1,148.5l-1.6,233.2-.8,156.1c-.6,49.1-1.9,104-.6,152.9ZM767,1049c27.3,6.3,56,13.4,83.4,18.8.6-12.1.7-24.3.8-36.5.2-31.6,1.2-63.1,1.2-94.7,0-15.3.3-32.5-.3-47.7-9.6-1.7-19.8-3.3-29.3-5.2.2,31.5.3,63,.2,94.5,0,13.6.3,27.8,0,41.1-.2,14.1-15.5,18.3-23.1,10.8-4.7-4.7-2.9-36.8-3.1-44.4-.8-34.9,2.6-71.2.4-105.9l-9.9-1.7c-7.5,4.5-8.6,5.4-17.4,4.3l-3.4-.4v106.7c0,14.8-.9,46.3.5,60.3ZM712.3,425.5c-1.1,12.1-1.6,56.2-1,69.7-1.3,11.7-3.6,126.8-.2,132.6,2.7-1.5,2.2-4.2,2.1-7.1,1.1-8.9,1.9-16,2.2-25,3.4-21.7,4.3-52.3,5.9-74.7l10-135.6c5.3-68.1,14.4-136.3,14.9-204.8,0-4.8-4.5-11.6-5.9-16.8-4.5-16.8-3.1-36.8,4.2-52.5,2.4-4.9,5.8-9.1,6.8-14.5-3.1-2.2-30.5.7-37.8.5-1.6,40.6-.2,92.2-.3,133.5l-1.1,194.7ZM670.6,1504.6c-8.5,3.6-19.5,6.8-28.4,9.4-11.8,2.7-22.9,8.7-36.4,11.8-.8,5-2.2,23.6,1.2,27.3,12.1,1,140.8-46.8,161.7-54,29.8-9.9,59.5-20.1,89.1-30.7,12.4-4.4,31.2-10.6,42.6-15.9,4.4-4.9,3.2-11.1,3-17.9,1.1-2.3,2.1-6,2.9-8.5,1.3,1.6,2.8,3.1,4.3,4.5-.4,4.8-1.8,19.7,1.5,20.9,14.7,5.3,44.2,14,58,19,.4-9.3.5-18.6.3-27.9-5.4-1.5-10.3-2.9-15.8-3.9-.9-3-19.4-6.7-23.9-8.5-2.6-1.2-5.5-2.1-8.3-3.1-1.7-.5-3.5-1.2-5.2-1.9-1.9-3.2-1-4.9-.6-9.3-.6-2.7-.4-4.7-3.3-6.1-8.8-4.2-20.5-7.9-30.2-7.8-23.3,18.8-47.6,24.4-75.4,34.1-48.4,16.9-97.4,32.1-145.5,49.9-2.1.8-5,4.1-5.6,6.3,4.9,7,25.1-2.3,32.1-4.6l43.9-14.5,106.8-34.7c13.9-4.6,27.3-10.2,41.4-14.6v2c5.2,2.1,10.4-3.9,15.4-2.6-7.1,5.7-13.6,8.3-22.1,11.4-67.3,24.6-135.3,46.8-203.3,69.5ZM880.1,892.4c-2.2,18.5-2.1,38.3-2.2,57l-.3,74.7c0,6.9-1.4,41.4-.7,45.8,2.5,3,6.7,3.4,10.6,4,7,1.5,25.2,6.5,31.2,4.5,1.7-4.9,5.1-182.8,2.8-191.1l-1.9-1.2c-14.3,3.7-24.8,5-39.6,6.3ZM716.7,757.9c6.2-.4,15.7-.8,21.6-1.8,0-9.4-.9-36.1,2-43.1,2.4-2.2,3-2.5,5.6-4.2,1.9-4.1,3.3-209,3.4-233,1-6.9.9-15.2,1-22.3,2-12.7,1.2-32,1.4-45,.6-32.5-.3-63.4.7-96.1,1.4-3-.6-15.2-1.2-19.1-.8,6.9-4,23-3.1,28.2,0,1.6,0,4.8.1,6.2-.5,11-2.5,22.1-1.9,32.7-.9,5.3-1.3,10.5-1.5,15.9-1.8,42.3-5.4,84.4-8.3,126.6l-19.7,255ZM664,1473.9c37.8-17.4,91.1-29.9,131.7-45.1-6.3-1.2-10.1-2-16.2-3.9-1.6-3.4-2.2-3.1-1.4-5.8,3.2-1.8,10.4-.7,15.2-.8,4.6,0,15.3,5.4,19.6,4.2,6.7-1.8,29.1-7.5,32.8-12.4-1.1-1.7-2.4-2.8-4.4-3.3-57.3-15.5-114.8-30.4-171.5-48.1-8.6,24.6,5.2,23.5,25.4,29.6,18.4,5.7,38.4,12.3,56.8,17.5-1.2,2.9-1.2,3.3-3.6,5.5-3.7.8-6.9.5-10.2,1.8-10.6-3.1-45.2-12.4-52.9-15.9-6.5-1.3-12.6-3.6-18.8-5.9,2.5,14.3,5.8,16.3,9.7,28.6,6.5,20.2-7.4,37.6-12.1,53.8ZM872,717.7c.9-60,12.5-622.7,6.9-631.9-1.5-.5-2.7-.9-4.2-1.3-2,15.7-1.5,43.8-1.5,60.5l-.8,86.9c-.5,35-8.5,479.6-5.1,486,2.4.3,2.3.3,4.7-.2ZM759.5,710.5c2.2-2.7,2.6-2.9,2.5-7.2,0-12.9.2-25.8.4-38.7l1.5-103.1,1.8-211.9c.4-37.3.5-74.7.3-112,0-15.3,1.3-30.7.3-46-.3-4.9-2.3-4.8-6.3-5.9-1.4,16.2-.7,41.4-.7,58.2,0,27.5-.3,55-.8,82.5l-2.1,301.7c0,9.9-1.4,77.8.2,80.8l2.7,1.6ZM626.3,1507.8c-3.4-3-6.1-6.3-10.5-6.2-7.3,1.6-19.7,3.1-24.9,7.7-.5,4.7,7.2,5.8,11,6.6,7.6,0,17.3-5,24.5-8.1ZM186.2,946.9c-2.5,9.7,14.1,42.8,18.1,54.1.6,1.6,3.3,3.6,5.2,4l1.6-1.5c3.1-13.3-7.6-53.4-11.5-68.1-2.4-7.5-4.7-14.9-6.9-22.5-1.7,10.4-3.8,23.9-6.5,34ZM182,1191.7c-3.1,5,.5,52.3,1,59.9,2.1-8.6,5.6-22.1,5.3-30.6.3-8.4,6.4-25,1-30.9-3.3-.4-4.3.3-7.3,1.7ZM341.2,1182.5c7.5-4.4-2.5-21.4-7.3-25.3-.9-.2-3.2-.6-4-.7-14.7,12.5-.6,21.1,11.3,26ZM290.9,1259.3c-2.5-6.5-6.7-13.6-10.1-19.9l-2.3-3.9-1.8-.4c-5.5,6.5,3,27.4,9.9,30.2l2-.6c1-2.1,1.5-3.4,2.3-5.5ZM176.1,1104.8l-.9.6c-7.5,4.7-11.3,2.8-13.8,9.2.5,5.2,1.3,6.7,3.7,11.5,4.5-3.4,14.1-15.6,11-21.3ZM158.8,1046.4c-3,7.3-5.1,21.1,1.8,26.7,2.1.6,4.2,1.2,6.3,1.6,2.6-4.5,0-23.9-2.4-28-2.2-.2-3.6-.4-5.8-.3ZM345.5,1144.3c6.4-2.8,7.2-24.6,2.4-26.1-3.7,2-7.1,2.9-8.4,7.2-1.6,5.4,2.7,14.6,5.9,18.9ZM787.8,1373c-8.1-1.7-19.1-7.7-25.6-5.3h-4.2c-3.3,1.2-5,1-6.5,3.3,2.4,2.1,9.1,3.3,12.6,4.1,9.9,3.6,72.3,23.6,77.6,19.2-.2-1-.1-1.1-.8-2.1-4.1-6.8-43-15.8-53.1-19.1ZM793.8,88.7c-.2,11.4-.5,22.8-1,34.2,24.2,12.8,11.9,30.2-6,26.1-13.4-3.1-.2-34.9-4.1-42.9-1.5-3.2-2-2.5-5.6-3.6-4.4,6.9-7.2,13.9-10.4,21.4-7.5,26.2,12.7,66.6,44.1,46.5,5-3.2,7.8-75.6,3.2-80.7-6.2-2.3-13.5-1.3-20.2-.9ZM247.3,599.2c5.1-1,6.2-1.1,10.7-3.4-1.2-4.6-.2-3.4-3.3-6.2-5.8-1.8-9.7.9-12.7,5.6v2.3c2.8,2.2,1.2,1.5,5.3,1.7ZM178.9,1142.2c-3.1,1.6-3.8,1.8-5.9,4.7-.4,3.6-.8,2,.7,5l1.9.3c2.6-2.5,3.1-5.1,3.6-9l-.3-1ZM626.8,1407.9c-3.9,5.2-7.7,9.3-10.4,15.1l-.8,1.8c-6.7,17.4-9.4,39.3,7.1,52.2-.3-12.9-1.6-29,1.2-41.4,4.2-18.8,28.6-21.5,37-3-.7,5.6,1,14.3,2.3,19.9,3.6-12.7,5.3-23,.5-35.5-8.5-18.1-19.2-18.9-35.3-10.3l-1.6,1.2ZM265.1,527.2l-1.8.2c-3.7,2.4-3.6,2.2-6,5.9l-.3,2.6c2.2,2.7.8,1.7,4.8,2.5,3.6-1.5,2.3-.4,4.4-3.4.4-3.5.4-4.4-1.1-7.7ZM163.5,1243.8c-2.6,2.6-5.3,5.4-8,7.9.6,10.9-1.3,29.1,5.7,36.2,3.6-2.3,4.5-3.7,5.5-8.1,1.5-6.6,1.1-31.8-3.2-36.1ZM706.1,1055.9c8.6-2.6,19.6-5.5,27.8-8.6,3.3-1,5.6-1.3,7.7-3.9,1.6-7.2,1.8-34.3,2-42.7l.8-79c.1-14.8-.2-32.8,1-47.4-12.2-1.8-24.6-3.9-36.9-5.3-1.8,10.3-1.5,61.3-1.4,74.6.3,36.9-1.6,75.7-1,112.2ZM220.5,739.4c3.4,1.4,1.9,1.5,4.7.4,1.6-4.1-1.7-15.3-5.4-17.1l-.5.9c-2.9,4.8-7.2,8-7.8,11.4,2.6,3.1,4.7,3.3,9,4.4ZM151.3,674.2c2.9,7.6,2.8,9.5,9,14.6h13.7c5.2-.7,4.2.2,7.4-2.7,2.3-10.4-11-16.1-19.5-16.1-4.3,1.4-6.5,2.2-10.5,4.2ZM246.3,650.1c6.7-.7,11.7-1.1,13.4-8.9-1-3.6,0-2.2-3-4.5-2.9-.5-2.5-.6-5.4-.4-6.2,2.8-9.4,3.2-14.1,7.7l-.7,2c2.5,3.9,5.4,3.7,9.8,4.2ZM392.9,618.2c7.9-1.7,21.9-3.5,21.8-13.6-2-3.5-3.3-5.4-7.2-7.2l-1.2,1c-6.6,5.3-19.5,10.2-20.9,15,1.7,3.4,3.7,3.7,7.4,4.8ZM687,1348.8l-1.3,2.4c3.8,3.4,26.6,8.8,32.3,9.7l1.2-1.2c-1.6-13.5-23-11.2-32.3-10.8ZM682.3,1053.4c1.9-40.1,6.2-79.9,7.1-120.2.5-22.3,3.2-43.4,3.1-66.2-5.9-1-8.5-1.3-14.1-3.8-2,48.4-.7,98.7-.6,147.2,0,8.2-.1,43.3,1.7,49.6h1.1c1.9-2.8,1.7-3,1.9-6.5ZM366.8,1095.3c-1.5,5-5.4,10.8-5.5,15.1l1.3,1.1c3.7-.9,9-4,10-7.9,2.2-8.1.8-17.8-.8-26h-1c-2.2,5.2-2.9,11.8-4.1,17.7ZM266.8,974.5c-4.9,12.8-9.2,34.3,5.3,42.7,6.9-10.1,2.7-35.9-5.3-42.7ZM141.8,1283.7c1.4-5.3,3.3-27.3-1.3-30.7-1.2,6.3-3.2,26.2,1.3,30.7ZM319.3,1235.1c-1.7,4.1-3.6,7.1-2.4,11l2.2,1.1c1.6-3.6,3-8.6.2-12.1ZM207,1080c-12,18.9-12.7,30.7-18,52.1,4.3,1.3,10.4,2.9,14.5,4.3,3,.1,3.1.2,5.9-.4,3.8-6.3-1-45.9-2.4-56ZM298,528.6c-2.2,7.6-1.3,11.9,7.4,13.4-.2-6.3-.8-11-7.4-13.4ZM810.6,730.3c-3,4.7-3.7,25.5-.5,29.6l4.1,1c1.9-6.3,3.1-22.2.3-28.5-2.2-1.6-1.3-1.2-3.9-2.1ZM155.3,951.6c-1.6-2.5-2.5-4.5-5.2-5.6-6.6,3.6-3.2,30.9-1.6,37.5.3,5.1,8.9,22.7,11.5,28.4l-.3.8-.5,1.4c-2.9,7.6-5,22.8,5.4,25.8l1.8-1.1c6.4-13.1-4.3-16.9-3.9-28.3,0-2.5,4.8-7.8,5.6-14.2,1.7-16-2.8-32-12.7-44.7ZM153.1,1147c-3.8,9.2-9.3,31.2-4.2,40.2l4.6-3.4c3.1,1.6,3.8,2.7,6.5,2.3.5-7.4-2.1-33.8-7-39ZM387.5,368c3.9,6.8,1,11.3,6.3,16.3,7.3,1.8,22.3-7.2,17.7-16.6-2.9-2.2-2.6-2.2-6.3-2.5-4.9-.4-12.2-1.7-16.5-.2-.9,1.7-.9,1.2-1.2,3ZM597.4,1375.7c-2.1,5.3-.6,17.8,5.4,20.2,6.7-1.7,7.7-7.3,17-10.1,5.1-1.1,10.4-2.2,15.6-3.1-13.2-3.5-24.3-7.1-38-7ZM215.4,915.6c-1-4-.4-4.4-2.8-6.9-3.3,2.4-1.3,7.3,1.1,9.6l1.7-2.7ZM632.2,1498.7c4.3-1.3,8.5-2.5,12.7-4,9.6-8.8,7.4-30.4,4.9-42.1-4.1-.2-9.5-.2-13.4-.7-.7,13.1-2.1,34.2-4.3,46.8ZM437.1,474.6c2.9-3.2,7.7-8,10.3-11.2,27.2-27.5,14.9-39.8,21.4-66.6-11.4-.5-26.5-.6-37.4-1.7-2.8.8-9.6,2.7-10.1,5.3-2.1,11,1.6,41,2.6,51.2.5,5,11.4,20.8,13.2,23ZM327.8,1076.3c2.4,2.5,3.1,3.7,6.6,4.2,9.2-4.1-1.7-19.2,4.3-31.6,3.3-2.1,6.9-4.4,7.2-8.7.6-8.9-2-28.4-7.5-35.1l-2.2.2c-5.4,3-6.2,5.9-8.1,11.8,0,9.6-.8,18.9-1.4,28.4-.7,11.6-4.6,20.1,1.1,30.9ZM357.6,1168.2c-1,5.6-2.8,17-7.7,20.4-3,2.1-5.9,1-8.5,4.2.7,5.7,3.1,9.5,4.7,15.1,2.6,9.4,3.5,18.4,4.1,28.1l1.9,1.7c3.8-2,4.9-7,6.4-11.3,7.5-21,1.8-36.2.4-56.5l-1.3-1.6ZM345.5,896.3c-9.1,8.6-.3,30.6,3,41.4,4.6,14.9,10,30,15.1,44.7l1.4,1,2.2-1.4c4-7.5,8-14.2,5.2-23-2.9-8.9-20.7-59.1-26.9-62.7ZM292.6,1008.7c2.4,3.3,2.3,4.4,5.5,5.9,1.9-.9,1.5-.5,2.9-1.9,2.2-16.6,24-101.2,21.9-110.4l-1.2-.5c-16.9,6.3-16.2,67.9-24.3,83.8-2,3.9-5.7,18.5-4.8,23.1ZM352.4,1257.1c-7.8,12.4-10.9,48-13.1,62.6-3.1,20.3-9.1,41.2-9.4,61.6,0,5.9,9.6,6.4,13.5,6.6,5.6-1.4,8.2-3.3,5.9-10l-1.2-1.1h-1.1c-2.8.1-4.1.5-6.3-1-3-4.8,1.5-20.2,2.8-26,3-13.3,3.2-26.1,4.3-39.7,1.1-12.6,2.2-25.3,3.5-37.9.3-3,.5-12.8,1.4-14.8l-.3-.2ZM617.8,1329.3c-3.1.9-11.3,2.9-11.8,5.9-1.4,9-7.4,23.5,4.2,27.1,14.2,4.5,27.6,8.7,41.8,11.2,17.4-26.1-19.6-19.9-22.3-28.9,2.8-4.5,5-6.1,5.4-10.7-3.3-3.6-12.5-5-17.3-4.6Z"/>
  <path fill="#a1c33f" d="M949.9,1284.3c0-19.4,1.2-40,1.4-59.7l3.7-218.4,7.3-563.9,4.3-254.4c.2-15.2.3-30.2,0-45.4,0-4.9-1.6-24.3-1-27.6,13.5.3,9.4,76.6,9.3,88.6-.3,38.9-.9,77.7-1.8,116.5l-5.9,367.7-7.4,461c-1.2,69.5-1.3,139.2-4.3,208.7-.5,11.5.9,32.8-1.2,43.4-.1,2.9.1,4.4-1.6,6.6h-2c0,0-1.7-1.7-1.7-1.7-3-9.4.5-105.7.8-121.6Z"/>
  <path fill="#f0f7c1" d="M949.9,1284.3c1.8-2.7,1.8-16.1,2.1-20.2,1.3,2.9-.9,110.3.9,127.3l.3-.7c.9,4.2,1.1,5.9,1.3,10.3-.1,2.9.1,4.4-1.6,6.6h-2c0,0-1.7-1.7-1.7-1.7-3-9.4.5-105.7.8-121.6Z"/>
  <path fill="#a1c33f" d="M730.9,38.1l-1,1.1c-3.6.5-15.4,1-16.6,2,2.4,1.8,23.7.5,27.8,0,39.1-5.7,78.7-5.8,117.9-9.7,21.1-2.1,34.9.8,55.1,7.6,4.1,1.4,13.7,10.2,16.9,13.7l-.3.8c-8.4-1.7-12.6-9.3-19.9-7.6-28.2-8.6-49.3-5.6-78.1-3.5-21.5,1.4-42.9,3.2-64.3,5.2-5.9.6-33.3,3.9-38.2,3.5-11-1.8-23.2,0-34.4-.4-7.2-.2-20.8,5-26.5-1.2,2.9-2.1,27.5-2.1,32.5-3.2,5.8-1.3,4.6-3.7,8-6.4,7.9-1,13.3-1.5,21.2-1.8Z"/>
  <path fill="#9cd109" d="M750.1,1065.9c4.2,1.8,2.2,1.6,6.3,1.1,5.4-4.8,1.9-11,5.9-15.4,10.6,1.6,24.6,6.4,38.2,10,13.3,3.4,40.1,4.1,51,13.4,2.3,2-1.9,6.2,4.3,13.8v1.9c-6.4,5.1-35.9,0-44.6-2.6-19.2-1.9-40-8.3-59.8-10.3-14.1-1.4-36.2-10-50.2-7.8,3.2,4.4,23.4,5.2,27.1,8.2l-7,.7c4.6,1.7,9.3,1,13.5,2.5,20.5,7.5,42,8.9,63,13.6,15.2,3.3,28.2,9.1,44,10.9,10.7,1.2,21,4,31.9,4.7,4.6,4.2,3.7,8.4,1.5,13.7l.3,1.3,1.8-1.9c3.9,4.9-2.6,1.2,2.8,6.9-.8,5.9-4.5,14.4-1.9,19.4,2.4,1.5,1.4,1.2,4.2,1.4,4.3-8.7-5.7-17.8,4.5-21.3,7.1-2.5,24.6-4.4,28.1-8.6-6.7-.3-24.7,3.9-27.3.5-11.3-15.1,22.7-23.3,33-21.5,3.3,3.8,1.2,12.1,1.2,17.5-.1,15.3,1.4,32.8-19.6,32.3-4.1-.1-15.9,2.3-18.2,5.5l-1.4,1.9c.5,7.9,2,14.6-2.9,20.9l.5,1.9c-1.2,10.3-5.3,20-6.6,30.1-.1,1.2,3.5,14.5,3.6,16.1.8,7.6-3.1,17.7-5.9,24.7.7,2,1.4,3.6,1.9,5-.8,1.1-1,1.8-2.5,2-7,1-75.7-19.8-88.6-22.8-5.3-1.2-10.8-1.3-16.1-2.6-7.7-1.8-14.7-6.8-22.7-8.9-8-2.1-33.8-6.6-38.4-9.7-.6-.4-1.2-.7-1.8-1.1l-1.3-.8c-3.1,0-3,.2-5.7,1.8-1.9,9.9,26.2,11.3,32,15.2v2.4s-1.1.8-1.1.8c-.6-.5-1.1-1.3-1.9-1.5l.4,2c4.2.9,7.6-1.1,15.1,1.2,7.8,2.4,13,3.2,20.8,6.6l.5-2.2-.7,2.1,1.1-.5-.4-1.7c2.3-.7,1.2-.8,3.3.3.9,3.2.5,3.7,2.6,5.1,12.6.9,28.7,3.7,40.6,7.6,9.8,3.2,15.6,6.3,26.7,6.2,1.6,0,7.6,3.3,10,3,16.9.8,34.3-6.5,28.4,19.9-.3,1.6-.7,1.7-1.6,2.8-4.8,0-2.7.7-6.7-1.6l-1.3-2.8c-10.6-2.9-21.2-5.5-31.8-8.3-8.9-2.4-17.7-5.8-26.6-8.1-24-4.5-46.5-11.6-69.8-18.6-7.4-2.3-14-.6-21.8-2.8-4.6-1.3-20.8-1.2-25.5-.3,2.1,1.7,15.5,6.7,19.5,8.6-1.1,2.4-1.3,2.3-3.2,4.2,5.4-.3,8.8-.9,14.1.7,25.5,7.5,50.1,12.9,75.3,21.5,12.2,4.2,16.2-3.4,29.2,8.9.2.2,48.6,1.3,54.2,5.9.8,3.3.6,4.1.4,7.4-1.9,2.6-2.3,2.4-5.4,3.5-1.4,5.3,1.3,5.5-.5,8.8-5.4-.5-21.3-8.3-25.7-11.8-25.6-1.4-65.3-16-90.7-22.6-13.4-3.5-29.8-1.3-43.5-8.3-5-2.6-13.2,0-22.7-1.5v1.1c11.4,8.1,18.7,6.7,22,9-1.1,1.8-.4,1-2.8,1.9l1.9.3c20,3.4,111.8,31.8,120.9,30.4l1.4.8c3.3,1.7,4.7,3,8.2,3.2,3.1,1.6,9.6,3.5,13.3,3.3,6-.3,19.2-5,20.2,4.9.5,5,0,10.7-2.1,15.3l-1.8,1.3c-5.4-3.9-24.3-5.8-30.8-12.3-1.2-1.2-17.9-1.7-20.7-4.2-14.6-6.2-30.9-9.8-46.2-13.9-10-2.7-14.2-4.9-25.3-6.5-12.3-1.9-24-3-36.2-4.6-7.2-.9-16.3-4.4-22.9-6v1.5c5.1,3.8,45.8,19.6,54.2,21,6.8-3.6,17.2-.6,23.9,2.3l.5,1c-3.2.5-4.7.4-7.6,1.8,10.2.9,30.8,8,42,10.5,14.8,3.2,35.1,13.5,50.7,12.6-4.2-1.4-14.3-4-17.7-6.4,13.7,1.4,29.7,7.5,43.5,8.6,3.5.3,16-1.1,20.3-1.5l2.6-2.7-.6.2c3.3-3.1,8.5-7.5,13.2-7.6,4.9,3.5,4.5,8.7,2.9,14v-1.1c-.6,2.5-2.6,9.5-5,10.5-5.6,2.2-23.6,9.4-28.8,9-5.5-4.2-1.4-14.2-4.3-16.9l-1.3.7c-1.5,6.5-3.2,7.4-4.2,13.3-7.5,2.2-44.5-12.2-52.9-14.6-3.7-1.1-9.7.4-12.3-1.7-5.2-4.3-24.5-6.4-27.1-9.7v-2.3c-19.4-.1-22.4-2.7-39-9,1.6.6-54-6.5-51.9-6.7,1.5,1.3,31.4,8.7,34.5,12.7-1.6,1.3-.7.8-2.8,1.4,15,8.5,52,16.3,70,19.3,4,.7,13.8,7.1,17.6,7.5,9.2.9,18.6,1.1,27.9,3.1,3,.7,13.4,8.5,15.2,8.4,4.5-.1,12.8-1.8,17.8-1.2,2.6.3,3.6.7,4,2.7.6,2.8.5,3.1.3,6-1.6.9-.7.6-2.6.6,1.3,5.9.8,8.9,4.6,12.3h1.9c2.8-5.3,1.1-14.9,1.2-21.4,9-3,27.5-10.6,35.5-8.8,5.3,4.2,3.6,16.9,0,21.2-15.2,6.8-46.4,23.5-62.8,19.8-5.1-1.2-6.9-9.6-9.7-13-11.3-5.6-43.1-16.4-54.5-15.1-8.1-1.7-19.1-7.7-25.6-5.3h-4.2c-18.2,3.2-36.1-2.9-38.8-18.2-1.2-7.2-19.2-7.8-26.3-9.6-15-3.8-9.4-13.5-11-25.6-2.3-9.1-1.1-106.1-1.9-107.7-2.4.6-1.5.8-3.6.2-3.1-31.1,2.7-64.5,4.1-95.7.7-16,.4-33.8,3.6-49.1.2-1,2.5-1.2,3.4-1.4l3,1.9c10.7-.9,43.3-8.1,53.8-11.4,4.6,6.4,4.3,7.6,5.8,15Z"/>
  <path fill="#9aca15" d="M750.1,1065.9c4.2,1.8,2.2,1.6,6.3,1.1,5.4-4.8,1.9-11,5.9-15.4,10.6,1.6,24.6,6.4,38.2,10,13.3,3.4,40.1,4.1,51,13.4,2.3,2-1.9,6.2,4.3,13.8v1.9c-6.4,5.1-35.9,0-44.6-2.6-15.9-9.8-47.9-8.1-65.3-14l1.1-1.4c-1.3-2.5-2.1-3.5-2.4-6.3,2.6-1.8,1.1-1.1,5.4-.4Z"/>
  <path fill="#9aca15" d="M743,1313.2c6.8-3.6,17.2-.6,23.9,2.3l.5,1c-3.2.5-4.7.4-7.6,1.8-5.7-.7-11.6-2.8-16.9-5.1Z"/>
  <path fill="#c3e54a" d="M882.8,1157.7c.5,7.9,2,14.6-2.9,20.9-1.8-6.6-2.9-16.3,2.9-20.9Z"/>
  <path fill="#c3e54a" d="M697.7,1194.7l-5.3-3.2c-1.3.2,21.6-3.3,18-3.8,9.7,1.3,13.3,10,23.4,5.4,9.6,4.6,25.9,4.1,29.9,6,19.9,9.5,96.1,19.8,108.5,33.3v1.7c-1.7,1.5-13.8.8-16.7.6-7.3-.6-15.5-4.1-22.7-5.6-4.8-1-26.7-1.7-28.9-2.7-10.1-4.4-68.2-16.7-73-19.7l-2.7.2c-6.8,2.2-25.1-7.4-30.4-12.2Z"/>
  <path fill="#a1c33f" d="M697.7,1194.7c6.2.6,23.2,4.7,27.9,9.2.9.9,1.3,2.1,2.5,3.1-6.8,2.2-25.1-7.4-30.4-12.2Z"/>
  <path fill="#c3e54a" d="M704.1,1138l1,.7c4.2-.5,21.3.3,24.9,1.6,21.3,7.9,43,11.6,65.2,16,2.9.6,10.4.5,12.6,1.2,14.2,4.7,30,10.1,44.9,10.9,5.9.3,10-2.1,12.3,5.3-.3-.9,9.1,6.8,9.5,7.2v1.6c-4.5,1.5-6.1,1.2-10-.9,1.5,3.1.4,1.9,3.2,3.7-26.6-6.4-50.8-11.6-77.7-16.3-22.4-3.9-44.8-14.4-68.9-13.4-6.9-5.2-9.3.4-11.9-7.9-.2-.6-12.3-3.3-14.9-6.8,2.4-2.7,5.9-2.5,9.9-2.9Z"/>
  <path fill="#c3e54a" d="M700.2,1165.4c5.9,2.1,27.7,1.8,29.7,2.8,20.8,9.7,134.5,21.9,142.9,39.3l-.6,1.4c-6.9,2.4-15.1-3.3-22.1-1.5-26.5-5.1-52.6-8.6-78.9-14.7-9.5-2.2-32.5-12.7-42.1-12.7l1.7,1.6-.6,1.1-2.3-1.1-3,1.2c-6.2-4.6-12-2.9-16.8-5.5l7.3-1.2-.3-1.1c-2.3-1.7-6.3-1.6-9.4-1.8-4.2,3.8-4.5,3-9.2,1.4l2.6-3.5c-.8-2.8-1-2.7-4-3.8h2.3c1.2-1.9.4-1.1,2.7-2Z"/>
  <path fill="#a1c33f" d="M805.5,1194.9c3.3.5,3.6.3,6.3,2.4v1.6l-2.2,1.1c-3.4,0-3.5.6-5.3-1.1l1.2-3.9Z"/>
  <path fill="#c3e54a" d="M699.1,1095.1c-1.8-1.8-2.7-1.8-5.1-2.3l-.2-1.3c3.6-2.3,1.7-1.8,5.7-1.9,5.5,3.5,12.7,1.2,19.7,2.7,14.8,3.1,30.5,4.7,45.5,7.3,15.5,3.8,31.2,6.3,46.9,9.3,8.8,1.7,16.4,5.2,25.5,5.7,6,.3,31.2,7.9,31.7,14.3-28.2,6.4-55-6.1-82.4-11.5-9.8-1.9-31.7-5.4-40.7-9.6l2-1.6c-2-.3-21.2-3.6-20.7-3.6l-.9-1-2.6.6.5.4-1.1.6c-6.8,0-17.1.5-23.1-3.5-1.2-.8-.7-2.4-.7-4.6Z"/>
  <path fill="#a1c33f" d="M699.1,1095.1c5.4.7,23.7,3.2,27,6.5l-2.6.6.5.4-1.1.6c-6.8,0-17.1.5-23.1-3.5-1.2-.8-.7-2.4-.7-4.6Z"/>
  <path fill="#c3e54a" d="M694.6,1115.3c12.4,1.3,9,4.4,23.2.4,10.4,4.7,21,1.7,31.1,5.4,9.1,3.4,18.1,3,27.5,4.6,5.4.9,10.7,3.8,16.1,5.1,15.9,3.8,69.7,11.5,79.1,19.1,2.5,2,4.2,3.8,4.7,6.9l-1.9,1.3-1.8-.4c-7.3-2-3-1.1-10,.6-3.1.7-17.2-3.7-22.4-4.7-1.6,1.7-.8,1-2.5,2.1-16.2-7.6-66.7-17.2-86.1-21.8-4-.9-17.4.5-23.9-.2l2.2-1c-2.1-1.4-3.2-1.4-3.6-3.3,2.7-.8,3.5-.6,5.3-2.5-10.5-5.3-27.7-4.6-37-11.7Z"/>
  <path fill="#9cd109" d="M107.7,720.6h2.3c12.5,11.5,38.4,11.9,54.1,20,9.8,2.8,25.8,1.8,34.1,6.9,12.7,7.9,33.5,7.3,47.1,9.2,20.9,3,73.9-2.5,84.7-21.9l1.3,1c3.3,9.3,3.5,28.5,4.9,39.2,1.5,11.6,9.7,23,13.6,33.2,3.4,8.8,22,57.5,20.4,63.6-10.9,5.7-12.3,4.9-22.5,7.6-6.7,1.7-9.7,7.1-20.2,9.7-15,6.1-42.3,9.5-58.5,17.8-3.2,1.7-16.4,3.7-20.5,4.4-4.1-2.2-18.1-13.3-20.2-13.6-11.1-1.8-22.9-5.2-34-6.3-6.1-.6-16.6,2.9-23.1,3.2-8,.4-16.8-1.3-25.1-1-2.7.4-12,7.3-14.3,6.5-10.3-3.7-14.1-1.9-24,5l-2.5-.9c-1.9,3.5-.6,1.2-3.8,3.2-1.1.7,1.3.7-.8,3.7l-1.5-.6c-.8-1.5-1.8-13.5-2.5-17.8-1.8-10.5-6.1-20.4-8.2-30-5.6-26.3-1.1-52.6,2.5-78.8,2.6-18.5,3-37.2,13.2-53.5,2-3.2,2.5-6.1,3.5-9.7Z"/>
  <path fill="#9cd109" d="M217.5,77.6c4.4-1.3,16.1-.6,20.9.3,24.6,3.7,38.3,13.5,52.2,33.8,5.9,8.5,3.8,10.7,5.5,20.7.1,1.8,5.1,7.9,5.3,8.8,3.2,17.6-1.6,36.9,3.6,54.6,1.2,4-5.1,30.7-5.8,36.9-.6,5.2-4.5,15.1-3.3,23.1-2,11.7-21.1,13.1-28.5,16.5-7.1,3.3-7.6,31.5-9.7,39-2.4,9.4-7.2,12.5-1.3,19.9,4.3,2.1,10.7.2,11.8.8,8.4,4.6,36.1,21.8,40.4,29.3,7.9,13.7-28.5,91.9-38,97.4-10.4,1.1-28-10.5-38.2-13.5-3.9-1.7-6.1-3.6-9.4-6.2h-.1s-.5-1.3-.5-1.3c11.5-12.8-18-30.7-16-45.8,5.3-7.8,16.2-1.5,24.7-8.7,3.1-2.3,8.1-10.9,7.4-15-2.5-15.2-27.9-8.4-34.9-14.2l.5-1.9c5.4-4.7,14.4-7.3,20.4-11.2,17.8-11.7,11-9.8,3.6-26.2-5.9-12.9-11-29.5-18.6-41.4-8.5-13.3-20.8-24.6-28.8-38.2-7.9-11-8-3-14.8-18.7-7.8-18.1-15.2-28.2-17.5-48.6-5.6-49.1,20.4-83.7,69.3-90.1Z"/>
  <path fill="#9cd109" d="M894.3,814.3l.2-1h-3.5c-1.8-1.6-1.4-.6-1.5-2.8,1.9.2,1.1-.1,2.5,1,5.1-1,13.6-2.5,18.1-4.2l-.2-.6c-12.3-.9-14,1.9-24.6,2.1-3.3,0-15.8-4.7-18.9-5.1-16.3-2.2-32.1-5.6-48.3-8.2-3.2-.5-7.8-2.8-10.2-2.6-4.8.4-9.2,1.2-14.1,1.3l5.1.5c-1.4,2.4-9.6,2.3-12.6,4l.5,1.2c4.2,1,7.2,1.9,11.3,3.2,5.5,1.7,13.4,1.5,18.9,3.6h-6.7c10.6,2.3,31.8,4.5,43.5,4.8,32.4.6,31.5,8.3,29.3,38.3-.3,4.2,4.5,10.3,2.9,16.3l-.5,1.9c-1.2,4.7-2.5,10-6.4,13.1-13.5,2.5-37.9-1.6-52.3-1.9-3.8,0-11.6-4.3-15.7-4.8-7.6-.8-18.3.7-25.4-1-2.4-3-1.2-6.6-.6-10.4-5.2-5.8.5-9.8-2.3-14.3-10.8-5.4-25.7-1.6-30.3-5l.5-1,3.3-.6c-4.3-4.8-39.5-4.3-47.4-4.4,2.2,1.8,8.3,7.2,10.4,8.3,10.1,5.2,29.9-.6,36.3,9.3,0,3.5,0,3.3-1.3,6.6.9,3.9,1.7,4.4.7,7.8-9.4,7.7-29.9-8-40.4-5.3-4.6,1.2-12.4,7.5-14.6,6.5l-.6-.9c-3.9-5.9-13.1-9.2-13.3-13.3-.3-7.3-5.1-63,3.7-65.1,26.2-6.1,11-28.7,15.2-48.8,6.3-30,6.2-65.3,10.9-94.6,2.1-13.3,9.5-128.2,11.3-129.9,1.5,1.3,1.9,1.5,1.7,3.8-.8,13.5-1.9,27.4-3.6,40.8-1.5,12.1-.6,24.4-1.5,36.6-5.6,44.3-6.3,89-13.1,133.2-.5,3.4,0,7.9.4,11.4,1.5,11.8,1.4,23.1.9,35l.9,1c2.9-3.4-2.3-14.5,4.8-14.1,35.3,1.9,70.6,7.8,106,10.2,15.1,1.1,30.5,4.2,45.6,4.3.3,6.7.3,12.8,2.2,19.2h.8c1.7-7.1,1.3-15,1.5-22.4-3.2.5-10.8,1.5-13.7,1.2-9.7-1-43-4.1-49.5-7.7-2.9.2-5.4.8-8.1,0,2.9-3.1,19.3-.3,24.7-1.2,7.4-1.2,18.2,4.8,24.8-2.5,8.8-10.4-6.8-39,12.4-41.3,4.2-.5,12.3-.7,16.1,1.5,7.1,9.6-2.3,32.7,3.5,43.1,2.2,3.9,19.3,2,23.6,5.2,5.8,8.3.5,16.8,2.8,24.7,3.3,11.3,21.7-5.1,15.4,29.3-.5,2.8-1.2,5.6-1.9,8.4-3.4,12.6,6.4,24,.3,39.7-11.7,3.6-35.9,15.3-37.2-2.6-.3-4.4,0-8.5,0-12.8,3.4-.7,29.8-5.2,32.2-5.1l.7-.7c-21.5-1.5-31.1,10.1-30.8-8.8.4-23.1,24-9.2,31.7-18-4.8,1.1-21.6,2.8-26.7,2.8-2.3,1.1-2.1,1.1-4.6.9-2.4-2.9-1.8-7.2-.9-10.7,1.3-5.4,1.4-5.3,5.6-8.1Z"/>
  <path fill="#a1c33f" d="M894.3,832.1c-2.3,1.1-2.1,1.1-4.6.9-2.4-2.9-1.8-7.2-.9-10.7,1.3-5.4,1.4-5.3,5.6-8.1-2.9,7.1,0,6.9.5,14.4.1,1.9-1.7-.2-.5,3.5Z"/>
  <path fill="#c3e54a" d="M806.6,845.1c12,6,34.6,3.3,48.3,6.7,12.8,3.2,11.1,6.1,25.2,7.6l1.1,4.6-1,1.1c-.8-1-1.5-1.9-2.3-2.9-10.9-1.8-14.1,2.8-22,0l-1-.4c-.2,0-.4,0-.6,0-18.3-1.3-36.9-.1-54.9-5-.6.3-1.1.6-1.7,1-.8,3.4-.7,3.8-2.6,6.9-3.6,1.5-1.8,1.3-5.6.8-1.9-3.3-1.3-12.8-.7-16.6,3.7-4,12.3-2.3,17.8-3.9Z"/>
  <path fill="#c3e54a" d="M802.2,819.7c4.8-.5,23,3.9,30,4.5,9.7.8,20,.5,29.5,1.8,4.8.7,7.4,6.7,13.4,6.8,1.5,0,4.2.8,5.7,1.4-2.5,1.3-18.5,1.8-22.5,1.7h-.2c-14.2-2.5-74.9-1.2-81.4-11.9l1-2.1c4.5-2,18-.8,24.5-2.1Z"/>
  <path fill="#c3e54a" d="M717,789.2c8.4,3.6,41.5-.4,49.5,3.8,3.7,1.9,1.7.9,6.7,1.4.9,2.7.3,5.5,0,8.6,4.2-3.3,3.6-6.7,8.1-9.2l1.6,1v1.8c-8.7,10.5-8.3,27.4-11,39.7.2,4.2,1,5-2.6,6.5l-1.6-1.1c-3.4-7.8,3.9-29.8,2.8-39.3-4.4-2.1-13.5-.3-18.1-1.5-4.3-1.1-6.6-1.4-11.1-1.9,2.3-.5,4.7-.8,7-1.2l-.7-.8c-8.8,0-19.9-4.2-30.5-4.8h-1.3v-.6l1.9.5-1.5-1.6.6-1.4Z"/>
  <path fill="#c3e54a" d="M715.3,815.5c8,.4,46.1,3,50.7,7.1-7.7,1.1-46.3-2.7-50.7-7.1Z"/>
  <path fill="#9aca15" d="M688.4,812.6c5.5-1,6.6-.7,11,2.1-4.6.3-7.2.2-11-2.1Z"/>
  <path fill="#9cd109" d="M171.6,1441.1c2.7-.2,2.9-.6,5.1.8,6.1,10.8,6.8,34.2,8.7,47.1.2,1.5.3,2.8,1.2,4.1,4.4,6.3,11.2,11.8,16.1,18,4.3,5.4,7.5,12.4,12,17.4,1.7,1.9,4.7,3.3,6.9,4.6,9.7,5.8,14.5,9.2,19.5,19.6,4.4,9.2,21.5,21,20.6,31.1-.1,1.6-.7,3.1-1.9,4.1-3.8,3.2-41.3,5.4-47.8,4.8-.3,0-2.7-.3-3.1-.3-2.5,0-1.1.6-3-.8-4.1,1.1-15.7.4-19.9-.8-25-6.7-34.6-16.2-47.4-38.2-3.9-6.8-7.7-8.3-12.8-13.6-4.2-4.4-7.9-8.3-8-14.5,0-14.4,3.1-27,4.4-41.6,1-11.7,1-24.3,2.9-35.8,0,0,.7-1.8.9-1.9,14.4-.9,30,4.5,44-3.2.5-.4,1-.7,1.5-1.1Z"/>
  <path fill="#9cd109" d="M300,1444.7c4.3-12.7,2.2-43.1,8.1-51.9l2.2-1.1.8,1c7.2,8.3,35.6,12.2,43.5,1.6,1.9,1.4,1.1.8,2.4,1.8l.4-3.2.9.3c-.4,4.8-2.1,13.5.3,18.2,2.3,4.4,2.9,15.4,3.3,20.7,0,.8,2.8,1.5,4.4,2.1l-.6,1-3.9.2c10.5,6.2,24.8,10.1,34.7,17.1,17.3,12.2,31.2,21.6,52.1,27.4,2.4.7,19.2,22.6,20,26.6.7,3.5-3.2,8-4.3,12.4-6,6.8-20.4,2.5-28.1.2-3.6-1.4-7.3-6-11.3-5.5-20.1,2.6-44.6-20.3-60.9-22.4-25.5-3.4-37.5,7.3-64-9.7-2.1-.6-1.4-.2-2.9-1.9-1.8-8.9-.3-26.2,2.8-34.7Z"/>
  <path fill="#a1c33f" d="M300,1481.4c-2.1-.6-1.4-.2-2.9-1.9-1.8-8.9-.3-26.2,2.8-34.7,1.6,7.4,2.2,29.3,0,36.6Z"/>
  <path fill="#9cd109" d="M496.8,337.6c3.9-.3,10.8-.7,14.4.3,5.9,1.8,9.8,9.8,14.3,13.8,4.7,4.1,14.7,7.1,17.3,12.9,4.8,10.6-3.6,22.8-7.6,32.3,0,0-4.2,2.3-4.2,2.3-1,4.5-1.9,8.8-3.5,13.2l-1.5.7-.8-2.7c-.8,2.8-2.5,3.6-5,6.1-4.3,10.8,6.6,18-9.7,34.6-3,1.7-7.1,1.1-10.5.8-24.9-2.2-24.5-24.4-17.8-42.9.6-1.7-.1-11.9.4-14.7,1-5.2,12-8.5,10-15-1.6-5.1-4.9-13-9.8-15.8-3.3-2.1-6-3.4-6.4-7.2,2.4-4.8,3.7-6.2,8.9-7.9h-1.6c3.4-.9,5-1.4,8.2-2.8,1.1-4.6,1.4-4.7,5.1-7.9Z"/>
  <path fill="#9cd109" d="M563,1509.9c2.9-.3,4.7-.3,7.1-.1,4.2.2,27.2,9.3,27.9,13,1.9,9.7,3,29.6.5,38.9.9,2.1,1.2,2.7,1.8,4.9-7.5,8.6-30,13.2-40.9,19.6-2.7-.3-32.6-15.9-34.9-17.9-3.2-10.8-.7-35.6,3.7-46.4,4.8-11.8,24.4-7.5,34.8-12Z"/>
  <path fill-opacity="0" d="M874.7,84.5c1.5.4,2.7.8,4.2,1.3,5.5,9.2-6,571.9-6.9,631.9-2.4.5-2.3.5-4.7.2-3.4-6.3,4.6-450.9,5.1-486l.8-86.9c0-16.7-.5-44.7,1.5-60.5Z"/>
  <path fill="#9cd109" d="M993,1426.4c6.3-.2,50.2,6.7,53.1,13.3,4.8,10.7,2.1,31.5,3.2,43.9.6,6.6-14.7,12.5-21,13.1-8.1,5.4-44.5-7.7-51.8-14.5-2.2-2.1-1.9-39.1-.9-43.1,4.2-3.7,11.4-.9,14.2-7.4.9-2.2,1.9-3.4,3.3-5.3Z"/>
  <path fill="#e7f799" d="M860.3,888.2h10.4c.5,29.1-1.7,59.6-1.5,88.8.2,25.1-.1,50.4-1.3,75.5-.5,11,.9,20.2-.5,31.9-1.9.3-7,.3-9.2.3-.9-41.8.8-85.5.9-127.5,0-13.9-.9-58.1,1.3-69Z"/>
  <path fill="#9aca15" d="M596,1313.6c6.9-1.4,23.9.6,26,8.5-4.8,1.7-10.7,3.4-15.1,5.7-15.9,8-10,28.7-3.9,40.2l.6,1-.5,1c-2.8,1.1-4.9,2.1-7.9,2-2,.5-3,.6-5.1.8-5.6-2.8-21.3-10.3-24.7-14.8-3.1-11.9.5-35.9,11.1-43.4,7,2.7,10.6,1.2,17.8-.4l1.7-.4Z"/>
  <path fill="#f2f40e" d="M357.8,457.5c2.4.6,5.8,1.7,7.4,3.7,9,11.1,21.4,28.2,21.5,42.6,2,2.2,5.9,5.1,4,8-2.3-1.8-1.5-1.8-3.8-2,2.8,7.6,6.6,13.8-1,19.7-2.9.4-7.2-2.9-11-4,.2,3.9,2.4,10.7,1.5,12.9-16.9,1.8-18.9-27.6-26.4-37.7-1.6-2.2,6.8-15,6.6-22-.1-5.8,1-14.8,1.2-21.1Z"/>
  <path fill="#f7fccc" d="M200.9,363.5c10.4,0,28.3-3.8,27.2,10.9-5.4,10.6-19.3,5.1-28.9,7.8-17.6,5-39.7,14.3-55.2,23.8l-1.2.8c-1.2-.1-11.7,5.1-13.6,6-4-1.9-5.9-3.1-7.3-7.5,1-15.3,64.4-39.2,79-41.7Z"/>
  <path fill="#9aca15" d="M884.2,1155.8c5.3,1.7,28.9-8.8,36.8-5.8,2.4,3.8,1.7,15,1.6,19.9l-2.3,3.4,2.2,1.4c.4,6.5-2.1,9.7-1.9,18.4-3.4,5.6-14.1,3.2-21.4,4.3l3,2.7-.2,1.7c-5.1,2-9.4-1-14.3-1.7-5.6-6.6,0-12.2-7.4-19.7l-.5-1.9c4.9-6.3,3.4-12.9,2.9-20.9l1.4-1.9Z"/>
  <path fill="#a1c33f" d="M887.8,1200.2c8.7-4.7,4.2-.7,11.5-2.7l3,2.7-.2,1.7c-5.1,2-9.4-1-14.3-1.7Z"/>
  <path fill="#c3e54a" d="M917.2,1171.7h1.1c0,0-.2,1.4-.2,1.4-8.2,3.4-21.6,6.4-30.4,8.2l-1.5-.7.8-1.5c8.5-3.6,21.2-5.8,30.3-7.4Z"/>
  <path fill="#9cd109" d="M917.3,1200.3c.6,0,1.6.4,2.2.6,2,5.5,1.3,41.9.3,48.3-4.9,4.1-8.2,2.4-13.7,2.9l-1.7.2-.9-1.2c-3.1,3.9-9.9,4.1-14.4,2.8-2.3-2-4.1-4.2-5.1-7.2-1-2.9-.7-6,.9-8.6,2.2-3.7,5.4-4.1,9.2-4.9,5.6-1.6,16.1-3.6,20.4-6.4l-.3-.6c-7,.7-7.2,0-12.7-.8-4.9-.8-12.4,8.5-19.2,3.1-.9-3.6,1.8-13.7,3.3-17.3,5.7-4.9,22.1-7.5,30.5-10.4l1-.3Z"/>
  <path fill="#9cd109" d="M35.3,405.3c0,3.6-.4,4.9,1.7,7.9-.2.3,4.5-19.5,4.5-19.6l1.3-1c3.1,4.4,2.2,17.8,3.2,23.7.7,9.9-1.5,6.4-3,14.3l-2.4.6c-1.9,5,4.5,15.6,7,20.4h-1.2c0,.1-6.4-1.1-6.4-1.1,6,6.3,5.3,10.4,11.6,14.6-.6-3.5-1.1-2.4.1-4.9l3.5.3c4.1-1.8,4.7-2.3,6.9-6.3l.8-.3c5.1,5.6,13.8,16.2,17.5,22.7h-1.5c-1.8-2.1-3.3-3.8-5.2-5.8l-.9.2c.9,1.4,1.7,2.8,2.4,4.3-1.1,2.1-1.1,2.1-2.7,3.9-2.2.7-2.1,1-4.2.7,2.5,1.9,2.4.5,4.3,3.6-6.4,4.6-22-10.2-25.8-15.7-8.1-2.3-8.8-4.2-8.3-12.6-1.5-.5-2-.8-3.4-1.5-5.4-11-16.3-48.9-5.4-57.4,1.5,2.1,1.1,1.6,2.9,3.4l2.1-4.1.9-.2c.2,4,.3,6-.4,9.9Z"/>
  <path fill="#e7f799" d="M35.3,405.3c0,3.6-.4,4.9,1.7,7.9-.2.3,4.5-19.5,4.5-19.6l1.3-1c3.1,4.4,2.2,17.8,3.2,23.7.7,9.9-1.5,6.4-3,14.3l-2.4.6c-1.9,5,4.5,15.6,7,20.4h-1.2c-7.1-10.9-17.9-33.9-12.5-47l1.4.7Z"/>
  <path fill="#a1c33f" d="M55.1,460.5c4.1-1.8,4.7-2.3,6.9-6.3l.8-.3c5.1,5.6,13.8,16.2,17.5,22.7h-1.5c-1.8-2.1-3.3-3.8-5.2-5.8l-.9.2c.9,1.4,1.7,2.8,2.4,4.3-1.1,2.1-1.1,2.1-2.7,3.9-5.2-5.5-8.7-9.4-13.3-15.3l-4-3.3Z"/>
  <path fill="#a1c33f" d="M46.8,467.8c5.1.3,3.9,2.9,8.6,3.6l1.8-1.4c5.8,3.2,7.2,4.6,11.1,9.9,2.5,1.9,2.4.5,4.3,3.6-6.4,4.6-22-10.2-25.8-15.7Z"/>
  <path fill="#9cd109" d="M749.5,715.1c4.1.9,11.7.5,16.1.4,9.9,6.6.8,33.7,6.5,44.5,4.7,8.9,14.7,3,24.1,6.5l-.6,1c-6,1.4-6.6,1.8-12.7.9v-.5c2.4-1.7,1.1-1.1,4.8-.8l-.4.6-3.7-.9,1.1.7c-4.3-1-10,.8-15.4.3-8.6-.8-17.5-.7-26.1-2.2.3-12.5-1-25.3.4-37.8.7-6.7.8-8,5.8-12.7Z"/>
  <path fill="#a1c33f" d="M440.5,601.1l2.2-.2c2-3.2,3.3-5.4,5-8.8,1.8-3.6,3.2-13.2,5.1-14.9,5.8-.2,3-3.1,7.2-2.4l.5,1.8c2.7-.6,2.5-.8,4.7-2.5,7.1,6.9-17.1,32.2-21.5,37.5,1,15.7,5.1,33.6,8.3,49.2,4.3,20.6,8.4,41.2,12,61.9l-4.9,8.4c-2.5-12-18.3-101.6-21.7-106.4-3.2,2-7.7,5.8-11.3,4.4-.7-5,6.7-14.3,9.7-19-1.2-4.5-6.1-32.9-4.3-35.2,2.4,3.1,4.4,9.2,4,13.2,1.3-1.1.5-.6,2.4-1.4,1.6,4.8,2.2,9.5,2.7,14.5Z"/>
  <path fill="#9aca15" d="M440.5,601.1l2.2-.2c2-3.2,3.3-5.4,5-8.8,1.8-3.6,3.2-13.2,5.1-14.9,5.8-.2,3-3.1,7.2-2.4l.5,1.8c2.7-.6,2.5-.8,4.7-2.5,7.1,6.9-17.1,32.2-21.5,37.5-2,2.9-1.9,5.4-2.5,8.8-3.5-2.4,2.8-10.6-1.8-19.1l1.3-.3Z"/>
  <path fill="#9cd109" d="M435.7,610l.7-3.9,1,.6c.5,5.6,1,11.1,1.7,16.7-1.4,1.2-.7.9-1.7,1.2-3.2,2-7.7,5.8-11.3,4.4-.7-5,6.7-14.3,9.7-19Z"/>
  <path fill="#f2f40e" d="M130.2,532.9c-2.4,2.6-3.3,3.7-6.4,5.6l-1.2-.7c-.3-2.7-.3-4.2-.3-6.8l-1.2-.8c-.5,3.7-.7,7.6-2.5,10.8l-1.7.4c-18.5-10.1-1-75.1,12.1-80.6l.5,1.5,1.6-.8.9.6c-5,6.2-2.2,12.2-4.3,18.9-1.9,6.3-6.1,7.1-5,14.9l.9.4c.5-9.5,11.4-18.7,11.3-28,0-2.7-.6-1,.9-3.3l1.4.5c.5,1.9-2.2,23.3-2.9,26.4-2,9-.4,33.3-3.7,39.8l-.6,1.5Z"/>
  <path fill="#9cd109" d="M463.9,722.7c11.4,49,18.8,101,29.4,150.4,4,18.6,6.8,39,11.3,57.5-1,4.4-1.4,5.1-3.6,9.1l-1.5.3c-6.5-31.5-12.5-65.4-18.6-97.2-7.4-37.2-14.6-74.4-21.7-111.6l4.9-8.4Z"/>
  <path fill="#9cd109" d="M766.8,123.8c-9.3,5.7-4.7,28.6-2.2,37.6,1.2,4.6,6.2,13,5.7,16.9-3.4-.3-4.5-4.8-9.5-5.7l-.7,1.1c.9,3.2,1.2,3.7,1.2,7-7.1,4-5.7,5.6-5.6,13.9.1,7.6-1.7,13.1-2.5,20.3l-.2,1.8c-4.3-2.5-.5-25.4-1.7-30.6-3.1-14.4-2.9-116.4,31.7-91.6l-.9,3.1c-2,1.6-3.9,2.7-5,4.9-4.4,6.9-7.2,13.9-10.4,21.4Z"/>
  <path fill="#9aca15" d="M617.9,1394c5.4-1.3,16-3.3,21-.5-1.3,5.8-7.9,5.8-10.5,13.1l-1.6,1.2c-3.9,5.2-7.7,9.3-10.4,15.1l-.8,1.8c-3.2-1.3-1.6-1.2-5-.2-5.3,4.3-3.4,9.7-7.6,10.1.8,4.4.5,18.4-3.3,20.9-4.8-2.9-.7-3.2-5.3-7-1.3,2.1-1.7,3-2.7,5.3h0s-1.3-.6-1.3-.6c-2.8-8.5,2.9-33.6,3.7-44.6v-1.5c2.6-2.9,1-1.8,5.3-2.8-1,.3,15.5-9.2,18.5-10.5Z"/>
  <path fill="#9cd109" d="M602.9,1434.7c.8,4.4.5,18.4-3.3,20.9-4.8-2.9-.7-3.2-5.3-7-1.3,2.1-1.7,3-2.7,5.3h0s-1.3-.6-1.3-.6c-2.8-8.5,2.9-33.6,3.7-44.6v-1.5c2.6-2.9,1-1.8,5.3-2.8,1.2,5.2,2.6,9.5,2.5,14.9-1.7,4.8-2,5.7-1.8,10.8,1.2,2.1,1.2,2.1,2.9,3.7v.8Z"/>
  <path fill="#9cd109" d="M617.9,1394c5.4-1.3,16-3.3,21-.5-1.3,5.8-7.9,5.8-10.5,13.1l-1.6,1.2c-3.5-4.1-2.8-3.1-8.1-3.4-1.4-1.8-1-1-1.3-3.4,1.7-1.6,1.8-1.5,2.7-3.6l-2.1-1.1v-2.5Z"/>
  <path fill="#a1c33f" d="M599.4,1404.4c-1,.3,15.5-9.2,18.5-10.5v2.5c-8.5,8.3-11.2,11.7-16,22.9.1-5.4-1.2-9.6-2.5-14.9Z"/>
  <path fill="#c3e54a" d="M617.9,1396.4l2.1,1.1c-.9,2.2-.9,2-2.7,3.6-3.5,3.6-4.7,4.8-7.4,9-2.9,4.5-6.6,17.3-9.9,20-.3-5.1,0-6,1.8-10.8,4.8-11.2,7.5-14.5,16-22.9Z"/>
  <path fill="#e7f799" d="M808.9,932.2c0-6.1,3.2-9.6.7-16-1.9-.8-3.3-1.3-5.1-2.3l-.5-1.8c3.5-5.6,9.5-2.3,9.2-8.7-4.3-5.8-3.7-18.2,1.8-21.4,3,2.7,2.8,3.7,2.9,8.1.6,43.5-.6,87.2-2.2,130.6-.1,2.9-4.6,4.5-7,4.7-2.8-1.2-6.9-6.4-5.2-9.2,3.5-5.9,8.1-2.1,7.2-10.6-2.6-4-3.8-3.3-7.5-5.9.3-2.9.9-3.5,3.4-5.4-4.1,0-2.4.6-5.5-1.2l-.2-1.7c2.5-4.4,3.9-4.6,8.5-6.7-1.2-4.8,1.4-6.5,1.4-9.7,0-7.7,1.5-19.4-2.1-26.1-2.2-1.4-3.3-1.6-4.3-3.9,1.7-2.4,1.5-1.7,5.1-2.6-3.8,0-5.8.7-7.3-3,2.2-3.9,3.9-3.6,6.8-7.2Z"/>
  <path fill="#a1c33f" d="M806.5,994.3c-4.1,0-2.4.6-5.5-1.2l-.2-1.7c2.5-4.4,3.9-4.6,8.5-6.7.7,3.5,1.5,5.3,0,8.4l-2.8,1.1Z"/>
  <path fill="#a1c33f" d="M808.9,932.2c1,4.3,1.6,6,.5,10.3-3.8,0-5.8.7-7.3-3,2.2-3.9,3.9-3.6,6.8-7.2Z"/>
  <path fill="#a1c33f" d="M504.5,930.5c4.1,24.1,10.8,58,15,81.3,2.7,14.7,26.2,127.3,24.6,130.1-2.3-4.8-3.7-8.2-5.5-13l-1.3-.2.8-.6h-.6c0,0,0,2.7,0,2.7-.6-.7-35.3-175.1-38-190.9l1.5-.3c2.3-4,2.6-4.7,3.6-9.1Z"/>
  <path fill="#9aca15" d="M249.8,1032.2c2.5,0,2.8.4,5.1,1.5,16.2,29.9,27.3,57.6,39.6,89.2,4.3,10.9,9.9,21,13.5,31.8-2.3-3.3-5.3-8.4-8.8-9.6-3.3-1.2-5-1.2-7-3.9-.3-11.5-1.7-15.3-5.7-26.2-.4-1.5-10.9-23.8-12-25.1-6.8-8.4-15.5-32.8-20.9-39.7l-1.6.7c-4.2,5.2-3.2,32.6-8.6,35.7-1.2-1.8-.5-4.1-.4-6.7l-.9-.6c-1,1.5-1.8,2.7-2.6,4.2l-.7,1.2v-1.5c7.3-13.3,2.6-33,11.1-50.9Z"/>
  <path fill="#f2f40e" d="M143.3,454.4c1.2.8,1.1,1,2.1,2.1,0,2.3-.2,4.6-.6,6.9l.4.4c-.4-2.3,1-6.8,3-7.8,1.5,5-.8,11.8.9,15.4.9-4.3.9-8.1,3.5-10.9,14.5,1.9,10.5,33.7,4.3,42.1,0,0-.6,8.5-.8,9.9-2.3,3.1-.9,2.2-3.9,3.5-2.2-2.5-1.2-9.8-1.1-13.8-1.3,6.8-1.9,11-4.8,17.3-5.4-.7-.3.8-5.8.9-.5-9.1,2-29.5,2.7-39.8l-.9-1c-1.6,8.7-1.8,35.8-6.3,40.6-1.1-2.2,5.7-60.6,7.3-66.1Z"/>
  <path fill="#9cd109" d="M403.2,504.5c-6.1-2-9.2-25.7-9.4-31.6l1.1-.9,1.5,1,2.7-1c11.3,17.7,28.5-14.7,32.8,25l-1.8,2.2-.3,1.2.5.6c-1.7.2-3.3.5-4.9,1-4.8,7.3.5,12.4-4.8,14.9l-3-.4-1.1-1.5-.7.6c-1,.8-2,1.5-3,2.2-1.2-2.3-.3-1.5-2.5-2.7-2.5-6-1.8-7-7.1-10.6Z"/>
  <path fill="#a1c33f" d="M403.2,504.5c1.2-.2,2.8-.5,4-.2,9.3,2.1,14.2-5.8,22.9-5.1l-.3,1.2.5.6c-1.7.2-3.3.5-4.9,1-4.8,7.3.5,12.4-4.8,14.9l-3-.4-1.1-1.5-.7.6c-1,.8-2,1.5-3,2.2-1.2-2.3-.3-1.5-2.5-2.7-2.5-6-1.8-7-7.1-10.6Z"/>
  <path fill="#f7fccc" d="M620.1,408.4c-1.1.9-4.9,5.5-6.3,4.7-15.2-7.9-50.1-21.2-62.3-31.3.5-5.3.6-10.1,6.8-11.8,4-1.1,12.3,4.9,16.2,6.9,11.5,5.9,23.5,11.3,34.6,17.8,5.5,3.2,10.1,5.8,11.7,12.2l-.6,1.3Z"/>
  <path fill="#9aca15" d="M379.1,1135.4l2.3.5c2.6,6.5-4.6,20.9-4,27.9,1.5,19,4.5,35.7,3.3,54.9-1.3,21.8-3,43.1-6.9,64.6-1.4,7.7,1,12.3-5.4,18.1-1.4-1.8-1.3-2.9-1.7-5.1v-.9c-.1,0-1.2,3-1.2,3-1.6-2.2-.9-1.2-.8-5.1,3.7-24,7.8-49.8,10.9-73.9.5-3.8-2.5-32.9-3.4-37.6l-1.1.4-1.7,4.3c-.9-12.3,1.3-29.1,5.7-40.7,1.7-4.5,1.4-6.2,4-10.3Z"/>
  <path fill="#a1c33f" d="M78.9,587.1c7.9,15.1-4.4,22.7,20.2,32.6-2.2.9-1.2.3-2.9,1.8,3.1,4,12.9,11.7,18,12.7,3.3.7,5.8,2.6,4.7,6.2l-2.9,1.3c.8,1.3,4.8,1.8,6.9,2.3.6,2.8.5,1.4-.4,4.3,1.7,3.2,7.1,6,10.7,9.2l.6.6c14.3,2.3,17.3-4.8,27.2-7.3l.9,1.1c-1.7,4.2-3.8,2.8-8.3,6.3-5.5,4.2-15.7,4.1-23.1,4.8,3.8,4.5,5.8,7.1,9.1,12.1-3-3-7-7.7-10.9-8.8.1,1.4.2,2.6.4,4-3-1.2-5.9-5.3-7.7-7.9l-.5-.8c0,.6,0,7.5,0,7.7.3,1.4,2.9,2.2,2.4,5.4-1.6-.5-1.8-.5-3.5-.7l-.6,1.5c.9,2.8,1.6,4.1,1.4,7-2.6,1-3.9,2.5-6.3,2-3.7-6.5,1.1-25.9-.4-29.4-12.1-28.4-36.1-30.9-35.2-67.8Z"/>
  <path fill="#9aca15" d="M702.1,882.5l1.1,1.1c3.2,12.8,1.5,63.1,0,76.6-.9-1.4-1.5-2.5-2.4-3.9-4.3,4.5-5.4,57.4-8.8,62.2l-2.6-.6c1.6-9.8.7-19.1,1.2-28.9,1-18.8,2.4-37.5,3.6-56.3.6-10.4-1.3-24,5.2-32.8l.8,1.4h.6c1.4-5.8.7-12.3,1.3-18.8Z"/>
  <path fill="#a1c33f" d="M130.8,531.4c2.5-.6,7.8-3,11-5.9,9.8-9,32.6-16.4,26.2-33.3-1.4-3.6,5.1,1.9,2.1-9.3l.6-1.4c5.8,3.9,2.5,8.1,4.1,11.8,3.5,7.1,4.2,13.2-1.1,19.6-1.5,1.8-9.8,8.6-12,8.2-9.8-1.9-13.8,6.4-21.1,12.7l1.7,2.6c-1.5,3-1.4,3.6-4.4,5.2-1.8,0-1.6.3-2.9-.5-8.6,2.5-16.6,24.2-24.5,26.9-2.2-3.7-2.3-4-5.9-6.1-2.7.1-6.6.9-8-1.8,2.1-2.3,4.4-2.7,7.4-3.7,2.3.9,2.5,1.2,4.9,1,.2-.6,1.4-4.8,1.4-4.8,7.6-6.2,15.1-11.3,19.9-19.7l.6-1.5Z"/>
  <path fill="#9aca15" d="M135.1,541.1c1.5-5.6,1.1-4.7,5.7-7.3l1.7,2.6c-1.5,3-1.4,3.6-4.4,5.2-1.8,0-1.6.3-2.9-.5Z"/>
  <path fill="#9aca15" d="M917.2,1279.5c.6,0,1.6.5,2.2.8v2.9c1.5,1.9,1.1,1.1,1.8,3.4-1.9,4.5-1.3,9.5-2.8,12.5-4.3,8.7-26,11.4-35.4,14.7l-2-1.1c-1.3-3.9-.4-11.9-1.4-17.4,3.6-7.2,27.9-12.1,37.6-15.7Z"/>
  <path fill="#9cd109" d="M95.1,904.8c1.6,1.2,2.8,5,3.6,7.2l1.5.6c2.9-3.9,2.9-4.3,7.3-5.6.8,2.6-4.2,5.2-4.2,7.2-.8,30.7,5.5,61.4,7.2,92,.5,8.2,3.9,16,4.2,24.5l-1,1c-1.4-2.2-1.8-6.9-2.7-10.2l.4,3.1-.7.6.2,2.6c1,3.5,1.4,4.8.6,8.4l-1.5.5c-2.4-3.5.5-5-1.8-10.4-1.2,2.8-.6,10.8-.5,14.3-4.4-4.5-10.3-117-12.3-133.9l-.2-1.9Z"/>
  <path fill="#f0f7c1" d="M426.9,368.4c8.3,0,17-.6,25.2-.3,12.5.4,36.7-4.8,30.9,15.6-12.9,1.3-43.5.3-57.6.1-.1-5.6-.8-10.4,1.4-15.4Z"/>
  <path fill="#9cd109" d="M914.5,1307c2.1-.7,1.7-.4,4-.4,4.4,4.3-.4,17.7-2.9,22.4-4.3,2.7-24.2,7.8-30.4,9.6-3.8.8-2.3,1.2-5.1,0,.3-7.1.5-13,1.5-20.1,4.2-4,26.6-10.3,32.9-11.4Z"/>
  <path fill="#f7fccc" d="M359.8,367.3c10.4.5,6.7.8,12.6,7.4-.7,2.9-.6,3.3-2.1,6-1.2.7-3.6,2.3-5,2.3-15.5.2-33.3.4-48.6-.1-4.4-3.4-4-8.7-1.9-13.6,5.2-3.1,36.3-1.8,45-1.9Z"/>
  <path fill="#f2f40e" d="M82.8,502.8c8.2,2.7,10.6,6.7,15.5,13.9,6.7,9.9-.7,8.4.5,11.4,2.5,6.1,7.8,18.7,6.1,25.9l-2.7,1.3c-2.6-1.6-6.9-4.2-9-6.4-4.3-4.5-21.6-27.6-15.4-32.9l3.2,1.6c-1.7-7.7-1.1-7,1.9-14.7Z"/>
  <path fill="#a1c33f" d="M405.5,454.7c-1.8-5.9-4.9-22.7-6.5-24.6l-2,.2-1.1,1.9c.9,3.1,2.2,7.2.3,10-2.9,4.3-.9,12.2-6.5,13.5-5.8-5.3.8-25-3.7-32.6-1.3.9-1.3,2.7-1.8,4.7-1.8-5.3-3.3-15-5.1-21-2.4-8-6.3-7.3-9.4-14.2l.9-1c4.7-.5,4.6-.7,9-2.5,1.1,1.8,2.1,3.5,3.2,5.4,3.9,1.3,3.4.6,8.2-.7l1.6,1.3c-.9.6-3.6,2.5-4.4,2.8-2.1,1.6-2.2.8-2.5,3.6-.7,6.5,3.6,23,11.2,24.3,5.3-2.8,2.1-5.7,5.2-7.1,2.8,4.5,5.8,20.7,6.9,26.4l.2-.5c1,4.5,2.1,7.2-1.3,11l-2.7-.6Z"/>
  <path fill="#9aca15" d="M387.5,1017.2c.7-3.2,4.6-17.1,3.7-18.2-9.4-11.1,3-20.6-.2-31.7-1.9-1.2-2.9-1.6-3.1-4-.4-5.5,0-16.3,1.5-21.5,10,2.9,14.1,97.5-2.5,106.6l-1.8-.6c-2.3-8.5,8.8-19.4,5.1-26-4.7,5.5-.4,9.2-6.7,10.4,3-6.6,2.9-7.8,4-14.9Z"/>
  <path fill="#9cd109" d="M734.2,82.8c7.7-.1,34.3,0,40.5,3.5l-2-.4v.9c-4.2,0-11.4-.3-15.1,1.9-9.6,6-28,5.5-39.6,5.8-3.7.3-4,.5-7.2,2.6-5.3-1.1-8.8-2.5-14.5-3.1-6.7-.7-11,1.2-17.2-1.3l-.9-2.4v1.7c.1,0-.3-.5-.3-.5.5-.7,1.1-1.4,1.6-2,10.9-3.5,45.9-4.7,54.6-6.8Z"/>
  <path fill="#9cd109" d="M104.9,395.7c2.7.2,7.9,1.8,9.5,4,2.4,3.4,10.5,18.2,4.9,21.1l-.6-4c-.4,2.5-.1,1.3-.9,3.7-4,3.3-9.4,3-14.5,3-7,17.5-30.4-9.5,1.6-27.8Z"/>
  <path fill="#f0f7c1" d="M265.1,527.2c-.3-3.6-.8-3.1.7-5.8h1.9c2.3,2.8,1.5,1.1,1.9,5.2.7-1.8,1.2-3.7,2-5.5l1.7.2c9.9,8.7,1.6,17.6-4.8,25v-.5c-2.5,2.7-4.5,5.2-7.8,6.7-.2-2.7-.1-3.5,0-6.2-1.6,4.3-2.6,8.2-5.5,11.7-4.9-1.3-4.5.2-7.6,3.9l-1.3-.6c.2-2.9.5-5.1.1-8l-2.7.9-.9-.9c-1.4-11.8,6.9-27.8,19.4-30.2,1.9,2.1,1.3.9,1.1,4.3-3.7,2.4-3.6,2.2-6,5.9l-.3,2.6c2.2,2.7.8,1.7,4.8,2.5,3.6-1.5,2.3-.4,4.4-3.4.4-3.5.4-4.4-1.1-7.7Z"/>
  <path fill-opacity=".4" d="M357.6,1168.2l1.3,1.6c1.4,20.2,7.1,35.5-.4,56.5-1.5,4.3-2.6,9.3-6.4,11.3l-1.9-1.7c-.6-9.7-1.4-18.7-4.1-28.1-1.6-5.6-4-9.3-4.7-15.1,2.5-3.2,5.5-2.1,8.5-4.2,4.9-3.4,6.7-14.8,7.7-20.4ZM351.7,1233.3l.6,1.7c8.5-6.2,11.9-46.9,4.2-55.3-6.4,14.8-4.2,6.2-13.2,14.2,3.9,17,6.8,20.2,8.4,39.4Z"/>
  <path fill="#a1c33f" d="M695.1,1388.3c18.4,5.7,38.4,12.3,56.8,17.5-1.2,2.9-1.2,3.3-3.6,5.5-3.7.8-6.9.5-10.2,1.8-10.6-3.1-45.2-12.4-52.9-15.9,1.6-4-2.6-1.2-5.4-5.9l-3.3-.3v-1.4c6.7-1.3,12.5,1.1,18.6-1.4Z"/>
  <path fill="#f7fccc" d="M405.2,365.1c-7.7-3.2-8.1-3.6-16.2-3.1l-.9-.8c39.2-6.6,32.5,25.2,23,24.4l-2.9-2.9c-4.2,5.7,0,19.5-1.1,26.4l-1.3-.5c-5.8-2.4-6.3-3.1-11.8,0l-1.6.9-1.1.7c-3.2-2.1-2.9-8.9-3-12.5.8-.4,3.5-2.2,4.4-2.8.6-1.3.5-.5,0-2.3-2.6,0-3-.2-5.5-.7-5.3-6.1.6-17.9-2.9-25.4-1-2.2-.7-.9-.9-3.4l1.3-.2,1.3,4.2,1.5,1c3.9,6.8,1,11.3,6.3,16.3,7.3,1.8,22.3-7.2,17.7-16.6-2.9-2.2-2.6-2.2-6.3-2.5Z"/>
  <path fill="#f7fccc" d="M327.8,1076.3l-.4,2.7c-.2,0-2.4,0-2.6-.2-5.1-2.3-7.8-17.2-6.7-21.9,1.7-7.7,6-17.8,5.2-24.9-1.2-9.7-2.7-19.6,1.4-28.9,1.4-3,0-14.1-.5-17.7-1.3-10.1,0-16,1.1-25.8,2.4,3.1,2.1,9,3.5,11.6,9.2,17.2,0,28.3-.5,45.7,0,9.6-.8,18.9-1.4,28.4-.7,11.6-4.6,20.1,1.1,30.9Z"/>
  <path fill="#9cd109" d="M126.7,983.5c8.8,6.5,2.1,34.4,7.8,49.3,2,9.4,12.1,20.4,12.8,29.6.5,6.8,5.5,10.3,5.6,13.6-4.4-2.1-2.3-9.3-8.4-11.7-1.4,4.3.5,3.7-.2,8.5h-2c0,0,.8,2.3.8,2.3,3.4,3.3,4.3,3.9,6.6,7.9l-.5,1.6-3.9,2c-.5,2.2,0,1.1-1.2,3.1l-1.4-.4c-8.9-16.8-7.8-20.7-8-39.2,0-3.4-4.3-15-5.3-19.2-3.4-14.7-4.3-32.4-2.6-47.4Z"/>
  <path fill="#9aca15" d="M917.3,1253.5c1.6.5.8,0,2.3,1.7.7,5,3.3,20.6-2.5,21.9-3.8.8-27.4,2.7-29.5,2.1-1.8-.8-1.3-.6-2.9-2-4-18.6,6.6-10.9,13-14.2l-1.4-1.6c.8-.7,19.3-7.4,21-7.8Z"/>
  <path fill="#9aca15" d="M241.5,937.7c1.8,3.4,2.2,8.7,2.8,12.6,1.7,1.3,3.8,1.4,4.1,2.8,2.6,6.2-2.8,21.6-1.8,27.2,3,16.7,4.9,11.8-2.5,27.3l-1.5-1.1c-.2-3,0-3.3-1.3-5.9l-2.1-.3c-5-6.4,0-40.5-4.3-50.6-2.3-5.5,3-8.1,6.5-12.1Z"/>
  <path fill="#f7fccc" d="M301.1,1012.7c2.4.2,1.4-.2,3.3,1-1.6,6.7-4.2,20.3-5.8,25.9-3.8,13.4,4.6,28.1-1.8,37.2l-3.5,4.9-1.1-.2-.2-1.6c-7.9-5.8-3.7-10.5-4.3-18.2-.4-5.5,6.9-40.6,5.5-42.6l-1.3,2.7-1,.2c-2.1-3.2-1.1-8.4-.3-11.9l2.1-1.3c2.4,3.3,2.3,4.4,5.5,5.9,1.9-.9,1.5-.5,2.9-1.9Z"/>
  <path fill="url(#fixed_id_1)" d="M115.2,1319.5c-5.1-10,2.9-60.6,6.3-72.5,2-7.1,6-16.5,7.6-24.8l-1.6,2.7-2.8-.4c-.8-3.5.4-6.6,2.1-9.6l1.3-.3c.8,1.5,1.2,2.1,2.2,3.6l2-1.5,1,.6c1,3.7-7,49.9-8.6,52.7h-1.6c-4,3.3-3,27.3-1.6,31.7l1.7,5.7c-2.3-1.2-2.7-1.4-4.2-3.5-.5,0-1.1.1-1.6.2.9,5.8.5,10.3-2.3,15.5Z"/>
  <path fill="#f0f7c1" d="M202.3,517.9c1-2.7,5.7-9.5,7.5-12.3,3.2,3.7,3.7,3,4.1,6.9l-.4.8c-1.8,3.9-2.3,4.4-1.8,8.7-7,13.5-10,11.8-22,19.7-5.2,3.4-9.5,10.7-15.3,14.5l1.6-3.3c-2.6-.7-1.7-.2-3.8-1.9,2-11.2,16.6-14.4,19.2-32.8,2.8-2.6,2.3-1.8,6.6-2.8,1.6-2.1,2-2.8,3.9-4.5l.9,1.2c-.8,2.9-1,2.9-.4,5.8Z"/>
  <path fill="#f7fccc" d="M202.3,517.9l2.2.9c2.2,8.4-8,13.2-13.6,17.6-7-6.8,9.6-16.2,11.3-18.5Z"/>
  <path fill="#a1c33f" d="M233.6,541.7c2.3,1.9,2.4,20.8,1,23.8-7.2,14.9-30.5,58.1-46.2,60.9l-2.3.4-1-1c2.2-2.6,5.3-9.2,6.5-10.3,19.9-17.7,31.8-40.7,39.5-65.8.8-2.6,1-4.2,2-7l.4-1Z"/>
  <path fill="#f7fccc" d="M210,617.2c.1.1,2.8,2.1,3,2.4,3.4,6.8-2.5,17.6-1.3,26.9.9,7.3,0,12.6,2.4,20.1.7,3.7,6,8.5,5.2,12.3-1.8,8.9-12.6,6.2-16.1.7.8-.5,1.6-1,2.4-1.5-1.2-3.3-.5-6.5,0-10.1l1.8-1v-1.1c-.1,0-7.6-5.3-7.6-5.3l1.2-1.6,3.9,1.6c1.2-10.9-4.6-13.7-12.2-20.5,5.1,2.4,9.7,3.8,15,5.5-2.3-1.6-10.4-6.6-11-8.6,2.4.7,4.6,1.5,7,2.3l.8-.9c-1.7-1.7-1-.8-2.1-2.8,2.3-5.7,4.5-14.9,7.8-18.5Z"/>
  <path fill="#f7fccc" d="M287.8,1236.5l.6,3c2.9-7.9,2.7-28.7,6.5-32.4-.6-.9,4.4,15.9,4.5,16.1,1.7,10.8.5,22.2,0,33.1,0,3.9,1.4,8-1.3,10.7-1.3,2.5-.4,1.5-2.8,3l-1.7-1c-3-5.3-1.9-4-2.7-9.6-2.5-6.5-6.7-13.6-10.1-19.9.2-1.7,1.6-6.2,2.2-8.1l1.4.2.5-3.6.2,2.3.8-.8,2,7.1Z"/>
  <path fill="#9aca15" d="M875.5,1081.8c9.2-.6,20.9-1,28.8,4.1,2.9,1.9,9.5-1.3,10.2,4.8-4.8,5.1-16.7,3.3-25.1,8.9-5.7.5-8.2,2.9-11.4,1.2l-.9-4.2c-3.9-4.6-11.9-2.6-19.5-4.3l-.9-1.4.7-1.2h2.2c7.1-4.8,12,6,15.9-7.9Z"/>
  <path fill="#f7fccc" d="M247.3,599.2c4-.1,7.1-1.2,8.5,2.8l-1.4,1.9c-3.7,1.5-2,1.5-5.4.6l-.7-2.4c-2.8,4.8-7.6,8.5-13.4,6.5-3.1-4.2-1.4-5.3-2.6-9.9-2.1-8.3,9.1-14.4,15.4-17.7l.9.5-.3,3,.8.5c2.6-2.4,5.4-5.7,8.8-6.1,2.3,2.1,1.3,1,2,4.9.7-1.9.7-1.7,1.8-3.5,1.7.6,2.8,1.1,4.4,1.8.9,2.5,1,3.7,1.5,6.3.2-3.2.1-3,1.4-5.9l1.1.2c1.7,3.2,1.3,7.1-.2,10.3l-1.8.4-.3-2.1-.9-.5c-.5,4.1-1.8,6.3-4,9.6-3,1.6-1.5,1.5-4.6,1-1.5-3.4-1.2-1.6-.2-5.8-1.2-4.6-.2-3.4-3.3-6.2-5.8-1.8-9.7.9-12.7,5.6v2.3c2.8,2.2,1.2,1.5,5.3,1.7Z"/>
  <path fill="#a1c33f" d="M498.7,491.3l1,2.1c-1.8,12.8-17.5,77-29.9,79.7-2.4-2.1-1.4-.9-2.3-4.5,1.9-4,0,.4,1.1-2.8,5.3-13.6,14.2-26.5,15.4-41.5,0,1.2-2.2-2.6-2.2-2.6,2.2-1.2,13.9-21.9,14.3-24.4l-2-2.5.5-1.9,4-1.5Z"/>
  <path fill="#e7f799" d="M150.2,1334.3c0,9.7,6.3,27.9,1.1,37-.5-10.7,1-22.5-5.5-31.7l-2.4.3c-2.5,6.3-1.9,22.8-2.5,31.1l-.5-.2-.7-1.6-1.6,3.3c-1.7-1.9-.9-19-1-22.6,1-5.2,4.1-5.9,3.8-11.6-.4-7.3-6-37.4.4-41.2,8.2,3,6.2,18,6.5,25.5.6,4.2.8,7.8,2.6,11.6Z"/>
  <path fill="#a1c33f" d="M255.2,486.7c.3,4.6,0,5.6,2.9,8.7,3.5.2,7.7-2.2,11.1-3.7,0,5.3-5.2,5.5-5.6,11.9l.8.6,2.2-2.3.7.6c-.9,5.4-10.4,12.1-13.9,16.3,1.1-1.3-2.2.7-4,2.4-1.3,3.1-8.5,16-10.6,18.6-4.4-10.3,11.8-42.1,16.3-53.1Z"/>
  <path fill="#9cd109" d="M199.3,1255.8c6.1,7.8-6.5,62.9-6.8,74.8,0,.8-.9,6.1-1.3,6.8l-2.9.3c-3.3-11.8,1.8-45.5,5.5-57.9,3.1-10.3-3.2-7.8-.2-15.8,3.6-3.1,4.3-3.5,5.7-8.1Z"/>
  <path fill="#f7fccc" d="M292.5,517.1c8.2,5.3,11.4,3.2,14,12.7l.8-.2.5-3.4,1.3-.3c3.8,4.3,1.4,10.8,3.8,12.8.4-2.5,0-1.7,1.2-3.8,2.3,2.9,1.6,3.5,2,8-1,1.6-.9,1.2-2.5,2.5-2-.6-2.6-.7-4.7-1-3.2,3.2-3.2,4.2-6.9,4.5-.5-2-.1-1.1-.9-2.7l-2.4,1.9c-10-1.5-7.5-24-6.1-31.1ZM305.3,542c-.2-6.3-.8-11-7.4-13.4-2.2,7.6-1.3,11.9,7.4,13.4Z"/>
  <path fill-opacity="0" d="M298,528.6c6.6,2.4,7.2,7.1,7.4,13.4-8.7-1.5-9.6-5.8-7.4-13.4Z"/>
  <path fill="#f0f7c1" d="M178.1,445c2.9,2.8,5.3,5.5,8.8,7.6.8-2.2.8-2.1,2.4-3.8,3.4.7,4.6,2.2,7.3,4.5l1.1.9c3.4,0,6.6-.7,9.1,1.3v1.7c-7.3,4.8-1.2,1.2-6.1,9.3l-9.4,9.4c-4.5-3.9-18.6-20.5-17.3-26.5,1.6-1,1.8-1.4,3-2.8l1.1-1.4Z"/>
  <path fill="#a1c33f" d="M347.1,484.8c2.2,8.3-8.2,13.1-7.1,21.4l1.4.6c-9.5,17.2-5.3,13.9-6,32.1-7.4-2.8,5-24.2-19.1-23.7h-1c-1.9-1.5-9-8.2-10.2-10.1v-.2c0,0-2.1.3-2.1.3-2.5-2.8-2.1-1.3-2.4-4.3l1.8-1.3c3.9.2,6.5,3.4,9.9,5.3,17.7,9.6,27.7-8.9,34.8-20.1Z"/>
  <path fill="#9cd109" d="M620.7,407.1c2.5-5.9-1.5-5.6.2-10.8,7.9-1.8,7.8,4.9,11.3,7.6,19.8,15.1-3.3,29.4-16.7,17.4l-1-2.4c2.4-3.6,4.6-6.3,5.7-10.4l.6-1.3Z"/>
  <path fill="#fbfcf1" d="M74.9,390.4c2.4.3,3.3.9,5.5,1.9,4.9,7.1-9.5,18.3-4.7,29.5,1.2,2.5,1.1,5,1.3,7.6.6,7.4,11.6,10.1,10.6,18.3l-2.7,1.9c-4.2-14.1-10.9-9.2-14.7-13,.5-2,1.3-3.7-.1-5.5-7.1-9.5-1.1-31.5,4.8-40.6Z"/>
  <path fill="#a1c33f" d="M334.1,569.7c7.2,5.6,7.8,20.3,13.5,27.1l-2,1c-3.9-.2-6.9-2.8-10.3-5-7.3-.2-8.3,4.6-13.4,7.3-8.7,4.6-1.8,7.5-8.1,13.5-3.5.7-1.9.9-5.1-.9,2.7-4.5,4.5-3,5.7-9.1,5.1-3.5-.1-22.4,4.4-28.4h1.2c1.7,3.9,1.5,12.4,1.6,17.1,1.9-3.7,3.7-7.1,7-9.6,6.9,1.9,3.1-.8,9.1,3.9l.4-.5c-1.9-5.4-3.6-10.8-4.2-16.5Z"/>
  <path fill="#a1c33f" d="M34.9,455.5l1.2.5c3.5,8.7-1.2,25.8,1,31.6l1.6-2.1,1.1.4c.2,6.6.7,12.7,1.2,19.3l.2-.5c2,10.9,4,32.5,11.7,40-2.2.6-3.7.8-5.9,1l-.2,2.2-.8-.3c-13.2-17.6-11.9-57-10.7-78.4.3-4.5.3-8.1-.1-12.7v-1.1Z"/>
  <path fill="#a1c33f" d="M177,894.7c-.9,18.8.7,34.8-.3,53.4-.3,5.8.9,12.3-.3,18-1.2-.1-2.3,0-3.6.1l-.5-1.5c-3.4-14.6-2.3-45.3-2.3-60.9,0-4-.7-3.6-4-6.9v-1.9c0,0,1.6-.6,1.6-.6,1.9,2,1.8,2,4.3,3.4,3.6-.7,1.9,0,5-3.1Z"/>
  <path fill="#f7fccc" d="M186.2,946.9l-1.6-.9c-3-5.7.5-41.3,8.9-46.7,4.2-.4,2.2-.7,6.1,1.2,2,3.7.3,8.4.4,12.9.2,7.9,4.2,15.3-.5,22.1-2.4-7.5-4.7-14.9-6.9-22.5-1.7,10.4-3.8,23.9-6.5,34Z"/>
  <path fill="#e7f799" d="M184.9,1296.9c1.2,6-3.3,71.7-5.8,75.6-1.3-2.6-2.1-4.1-4.1-6.3.2-12-.8-43.3,2.1-52.7.1,2.8,0,4.1.6,6.8,1.6-4.7,6.1-19.1,7.2-23.5Z"/>
  <path fill="#f0f7c1" d="M187,559.8c4.9.4,4.1-.4,7.6,2.1.9,2.3,1.1,2.8,1.6,5.2l-.3.4c-5.8,7.4-31.1,31.4-39.3,33.3-2.8-1.4-1.8-.4-2.9-3.4,4.1-8.2,11.4-8.4,18.6-14.5,6.5-5.5,11.3-20.3,14.7-23Z"/>
  <path fill="#9aca15" d="M108.3,572.6c3.6-1.4,3.7-1.7,5.9-4.9l2.2-.4c.6,4.7-6.9,15.1-9.2,21.8-.4,3.2-.7,3.3-2.2,6.1-4.2,2.6-5.8.6-9.7-1.9.6-1.1.2-.8,1-1.1-6.8-.3-1,2.3-7.2,3.8l-1.7-1.3c-1.1-3.6-.9-8.9.3-12.4,7.2,2.4,5.1,1.2,11.9,1.3.2-2.1,1-11.9,1.3-13.2,2.4-1.7,3.1-1.3,6.1-1.3l1.4,3.4Z"/>
  <path fill="#f2f40e" d="M108.3,572.6c3.6-1.4,3.7-1.7,5.9-4.9l2.2-.4c.6,4.7-6.9,15.1-9.2,21.8-.4,3.2-.7,3.3-2.2,6.1-4.2,2.6-5.8.6-9.7-1.9.6-1.1.2-.8,1-1.1,1.9-1.6,2.5-3.1,3.6-5.3l3.5-4.7c1.8-2.6,4.8-6.6,5-9.7Z"/>
  <path fill="#f0f7c1" d="M129.3,331.2c-6.6-1-16.4-1.4-21.9-4.6l-.6.6,3.4,3.5-.4,1.3c-3.5.7-13.9-1-17.5-2.1v-1.5c5.9-5.6,13.3-11.1,20.5-14.9l.8.3-1.6,4.4,1,.8c1.8-1.8,3-3.1,4.6-5l1.7.2,1.1,3.8c2.4.6,3.6.1,6-.4l1-.2v3.2c1.6,1.5,1.1,1.1,3.2,2.4l-.7,1.3-2.8.3c0,6.5,2.1.5,2.1,6.7Z"/>
  <path fill="#f7fccc" d="M293.8,621.9c3.4,1.5,2.9,2.4,5.7,4.2,10.9,7.1,6.2,20.7,1.2,29.5l-1.2-.2.3-4.4-1-1.7c-1.3,3.4-1.1,4.6-3.6,6.4l-2.8-2.1-1.6,2.9h-1.6c-1.9-6.8,4.1-25.8,4.6-34.7Z"/>
  <path fill="#c3e54a" d="M174.3,1284.1c1.3,3.3-.5,24.4-1,29.1-2.3,20.3-.8,39.8-1.6,59.8l-.7-13.8c-1.7.9-2.9,1.4-4.7,2.1,4.7-8.9-3.9-66.7,4.2-75.7.6,2.3.7,3.8,2,5.6.7-2.5,1.2-4.6,1.8-7.1Z"/>
  <path fill="#a1c33f" d="M820.2,118.4c12.7,3.5,9.7,37.3,3.8,43.1l-2.4-.9c-.5,1.9-.8,2.4-1.6,4.2h-1.5c-1.8-4.6-.2-40.5,1.7-46.5Z"/>
  <path fill="#f0f7c1" d="M473.5,483.8c2.4-3.2,1.7-3.3,4.9-4.7,4.8,3.8,3.3,14.7.1,19.5-2.1,3.8-5.2,11.7-8,13.3-1.9.2-3.9.4-5.8.6,0,4.3.4,6.3,1.1,10.6-2.7-2-1.1-1.8-3.7-3.5,1-5.8,2.2-9-.4-14.1,3.2-7.6,7.2-14.9,11.9-21.6Z"/>
  <path fill="#f7fccc" d="M473.5,483.8c2.4-3.2,1.7-3.3,4.9-4.7,4.8,3.8,3.3,14.7.1,19.5-3,.6-3,.9-5.9,0-1.8-5.9,5.5-5.5.9-14.8Z"/>
  <path fill="#a1c33f" d="M783.1,94.4c4.2-2.2,3.5-7,1.4-10.2-2.8-4.3-14.7-2.8-19.7-2.6h.9c0,.1-.7-.4-.7-.4,7.6-.7,63.6-4.1,67.5-3.4,2.3,8.6,6.5,6.6,14.9,6.5l-.4.7c-1.7,0-4.3,0-5.9-.4-8.7-1.7-16.3,6.3-24.2,2.1-6.8-3.6-25.7-6.9-28.9,3.4-1.8,5.8-.4,4.8-5.9,7.3l.9-3.1Z"/>
  <path fill-opacity="1" d="M751.9,1405.8c6.5,1.9,36.4,10.1,41.4,12.5-4.8,0-12-1-15.2.8-.8,2.7-.1,2.5,1.4,5.8-13.8-3.8-27.6-7.7-41.4-11.8,3.3-1.3,6.5-1,10.2-1.8,2.4-2.2,2.3-2.6,3.6-5.5Z"/>
  <path fill="#e7f799" d="M112.9,912c1.8,1.1,1.2.6,2.6,2.3.2,12.9-.5,26.9.1,39.9.7,5.4,3.8,10.2,3.9,15.8,0,4.2-2.5,7.5-3.6,11.5l-.4,1.6-.5.2-.2-2.4-1.4,1.4-1-.2c-3-5.6-1.5-61,.7-70.2Z"/>
  <path fill="#e7f799" d="M127.5,317.4l2-1.9.6,3.6c4-2,5-6.7,6.6-11.2l.7.5c.2,2.7.2,3.2,1.8,5.4,0,3.4-1.3,9.3-.8,10.6,2.3-3.9,2.7-8,3.5-12.5l.7,2.6c2,.2,1.6.2,3.7,0-.6,7.5,4.1,17.9,3.2,20.8-4.2,1.6-16.4-1.5-20.1-4,0-6.2-2-.2-2.1-6.7l2.8-.3.7-1.3c-2.1-1.2-1.6-.9-3.2-2.4v-3.2Z"/>
  <path fill="#e7f799" d="M187,559.8l1-1.1c3.6-4,3.7-5.7,8.5-10,5.1,2.4,4.9,1.5,8.1-3.1l.3-2.3c-2-1.7-1.2-1.3-3.8-1.8l11.7-16.7h1.2c0,0,1.8,2.6,1.8,2.6,2.2-.8,1.4-.3,3-2.1l1.2.8c-2.4,6.2-19.9,36-23.8,40.9-.5-2.4-.8-2.8-1.6-5.2-3.5-2.5-2.6-1.7-7.6-2.1Z"/>
  <path fill="#a1c33f" d="M132.6,1115.7c3.5,10.8.9,61.6-9.4,66.9l-.8-1,.8-5.4c-.4-2.3-.4-2.6-.2-4.8l.2-1.8-2.3-.4c-1.2-1.8,1.2-4.7,2.1-7.1,3.7-9.5,8.1-21,6.2-31.2-.6-3.1-1.7-6-.7-9l1.6,2.6,2.4-8.9Z"/>
  <path fill="#f0f7c1" d="M52,539.9c-.6-5.9-3.5-14.5-2.8-19.8.1,0,1.6.6,2.3,1.4,1.8,2.1,3.5-4.3,8.6-4.4,2.2,2.8,2.3,8.4,2.7,12.1,1.9,7.2,4.3,11.9,1.2,18.5-2.1,1.1-1,.8-3.4.6-2.9-2.1-6.9-5.2-8.6-8.5Z"/>
  <path fill="#e7f799" d="M62.9,529.2c1.9,7.2,4.3,11.9,1.2,18.5-2.1,1.1-1,.8-3.4.6-2.9-2.1-6.9-5.2-8.6-8.5,5,1.2,4.7,2.1,8.7.7,2-2.9,1.9-7.6,2.1-11.3Z"/>
  <path fill="#f7fccc" d="M115.2,1319.5c2.8-5.2,3.2-9.7,2.3-15.5.5,0,1.1-.1,1.6-.2,1.5,2.1,2,2.3,4.2,3.5l1.1,6c1.5,7.8,2.2,24.9-.6,32.3l-1.7,1.4c-7.6-2.7-8.2-21.4-6.9-27.4Z"/>
  <path fill-opacity=".4" d="M155.3,951.6c9.9,12.7,14.4,28.7,12.7,44.7-.7,6.4-5.5,11.7-5.6,14.2-.4,11.4,10.3,15.2,3.9,28.3l-1.8,1.1c-10.4-3-8.3-18.2-5.4-25.8l.5-1.4.3-.8c-2.6-5.7-11.2-23.3-11.5-28.4,1.7,1.4,10.4,22.4,11.9,25.8,14.8-23.7,3-35.5-4.9-56.9l-.3-.8ZM164.9,1038.8c2.3-8.4,1.8-17.2-4.7-23.6-2.8,6.1-2.2,10.3-2,17.1,2,1.9,4.7,4.8,6.7,6.5Z"/>
  <path fill="#a1c33f" d="M228.4,1037.3c8.2,7.6-1.7,23.1-.3,31.7l1.6-1.3c.5,1.5-.3,3.2-.7,5.1l2,3.1c-2.1,3.2-.9,2.7-3.5,3.6-2.1-2.2-1.7-2.3-2.6-5.6l-.3-1.1c-.4,4.3-2,8.2-.8,11.8.2,2.8-.4,3.6-1.4,6.4h-.8c-.9-3.6-.6-10.1-.5-14l-.6.4-.8,6.2-.7.5c-2.8-10.4,5.5-36.6,9.2-46.6Z"/>
  <path fill="#a1c33f" d="M642.1,1514c-4.8.2-9.1,1-12.7-2l1.1-1.8c8.3-5.2,32.3-11.9,42.3-11.9l.5,1.1-3.1,2.9.3,2.2c-8.5,3.6-19.5,6.8-28.4,9.4Z"/>
  <path fill="#a1c33f" d="M310.6,384.9c10.8,3.2,42.8-.9,57.2,2l1.4-.6.7.5c0,2.7.4,3-1.1,5.1-6.2-3.6-11.8-2.5-19.1-2.2l-3.2.7c-1.9,2.4-1.3,1.6-.9,5.7-2.7,1.4-4.1-4-9.9-5-1.7,4.3.6-.2,1.8,4.7h-1.1c-5.1-6.1-17.1-6.6-24.4-5.7-2,2-2.6,2.8-5.3,4h0c-.3-3.2,2.1-6.3,3.8-9.2Z"/>
  <path fill="#a1c33f" d="M159,605.1l1,1.4c-1.4,9.4-31,21.9-38.9,19.2-2.4.8-1.2.8-3.6.2v-1.9c-2.9-.4-4.3-.3-6.7-1.7,4.4-1.5,11.5-1.7,16.4-2,3.1-6.2,7.5-5,14.2-7.4,6.6-2.3,11.4-4.5,17.6-7.7Z"/>
  <path fill="#f0f7c1" d="M299.4,1256.2c3.8-7.8,2.3-30.2,1.1-39.3-.2-1.7-.3-1.7.2-3.5l1.1-.2,3.9,5.1h2.1c0-.1,1.7,2.5,1.7,2.5l-.3,1.1-3.4.6c0,3.6-.1.6.5,3.6,2.1,9.6,2.2,37.3-6.4,43.1l-1.9-2.4c2.7-2.7,1.4-6.8,1.3-10.7Z"/>
  <path fill="#a1c33f" d="M355.3,363.9c-3.5-.5-6.4-.6-9.3-2.5l.7-1.6c5.1-2.2,4.7-4.1,10-3.6,8,6.3,11,.1,16.9,7.1,4,4.7,6.4,15.1,2.1,20.1h-1.4c-3.1-4.4,0-3-1.9-8.8-5.9-6.6-2.2-6.9-12.6-7.4-1.9-1.9-2.2-1.9-4.5-3.3Z"/>
  <path fill="#a1c33f" d="M355.3,363.9c-3.5-.5-6.4-.6-9.3-2.5l.7-1.6c5.1-2.2,4.7-4.1,10-3.6.8,6.2.6,2.2-1.4,7.7Z"/>
  <path fill="#f7fccc" d="M184.2,260c4.3,1.9,20,17.3,20.5,22.8.1,1.8.6,4.3,1,6.3l-1,.5-2.6,1.8c-9.3-1.8-17.9-22.3-17.8-31.3Z"/>
  <path fill="#f7fccc" d="M178.9,1142.2c-1.2-1.4-.8-1-1.5-2.8,2.7-4,5.8-9.6,10.4-10.7l1.2,3.4c4.3,1.3,10.4,2.9,14.5,4.3l.8,1.4,5.3.2.7,1c-1.2,1.1-1.5,1.7-4.3,1-8.2-2-9.5-1.5-17.7,2,1.3,1.9,1.8,2.2,3.5,3.8-4.3,3.2-5.7,1.9-10.2,6.8l-1.1-.4c-.6-2.4-1.2-8.1-1.4-8.9l-.3-1Z"/>
  <path fill="#9cd109" d="M277.9,1288.9c1.8,0,3.1.2,4.9.4,2.1,1.7,2.7,2.3,5.1,3.6l2.1-2.3c5.3,1.2,5.9,2.7,7.8,7.6,1,2.5-2,5.1-3.5,7-2.5,1.9-6.1,5.1-9,5.7-4-3.5-7.1-16.6-7.3-22Z"/>
  <path fill="#f7fccc" d="M461.6,505.5c2.6,5.1,1.4,8.4.4,14.1-.9,5.3-3.4,6.5-3.7,11.7-.2,3-6.7,8.8-9.4,10.1-.3-2.4,2.7-9.3,3.7-12.3l-.4-.3c-1.4.5-2.7,1.1-4,1.8-1.3-4.4,1.1-4.1-.4-8.4.7-4.2,4.4-8.2,8.5-8,2.2.1,4.4-6.8,5.3-8.8Z"/>
  <path fill-opacity=".8" d="M916.5,1416.2c-.4,4.3-1.3,6.1.6,9.3,1.7.6,3.5,1.3,5.2,1.9,2.8,1,5.7,1.8,8.3,3.1,4.5,1.8,23.1,5.5,23.9,8.5-13.3-3-24.9-5.9-37.8-10.6-2.9-1.1-2.4-1.2-5.3-.8l-1,3.3c-1.6-1.4-3-2.9-4.3-4.5-.8,2.5-1.8,6.2-2.9,8.5-.2-3.9,0-5.3-1.1-8.9-2.7-2.4-1.9-1.7-6.2-2.2-5-1.3-10.2,4.7-15.2,2.6v-2c10.5-3.3,19.9-3.7,30.8-3.4,2.6,0,3.8-2.7,5.1-4.6Z"/>
  <path fill="#a1c33f" d="M358.2,1008.7l3.1,1.4c4.2,6.2,10,15,12.5,21.9-.2-.6-2.7,12.4-2.7,14.3l-.8,2.7c-7.5-11.5-10.8-26.8-12-40.4Z"/>
  <path fill="#e7f799" d="M283,1231.3c-2.3-7.4-5.5-36.9-3.6-45.7.1-.6.9-1.4,1.4-2,2.4-2.4,3.3-9.2,4.1-12.9,3.3,7.8-3,19.4-3.1,18.4,1.6,16.3,7,30.5,6,47.4l-2-7.1-.8.8-.2-2.3-.5,3.6-1.4-.2Z"/>
  <path fill-opacity=".1" d="M711.4,495.1c-.7-13.5-.1-57.6,1-69.7,1.3,13.5.6,36.5.5,50.7l-.6,84.7c0,6.3-.5,36.6.9,40.8,1-2.3,1.6-3.6,2.4-6-.2,9-1.1,16.1-2.2,25l-1,.6c-3.3-4.3.3-109.8-.9-126.1Z"/>
  <path fill="#f2f40e" d="M416.3,522.3c9.4,5.3-13.9,29.6-16,35.7-.5,1.5-1.6,2.5-2.7,3.7l-1.2.3-1.1-.9c3.5-6.4,1.5-9.9,5-15.8,4.8-8.1,10.3-15.4,16-22.9Z"/>
  <path fill="#f7fccc" d="M133.9,360c5.3,1.8,12.5,3,12.4,9.4-2.2,4.2-5,5-9.3,7-4.3,1.1-10.8,1.3-12.3-3.7,1.2-5.6,4.9-9,9.1-12.7Z"/>
  <path fill="#e7f799" d="M209.8,505.6c2.8-4.2,9.5-15.3,13.5-17.5,2.1,2.3,2.5,2.7,5.3,4-1,9.2-13.1,21.2-16.9,30-.4-4.3,0-4.9,1.8-8.7l.4-.8c-.4-3.9-.9-3.2-4.1-6.9Z"/>
  <path fill="#9aca15" d="M185.2,1047.5l1.7-2.9c2.8.2,3.7,1,5.9,3.4,1.3,7.8,2.4,15.6,3.2,23.5-2.4,3.6-2.2,4.5-5.5,6.2-7-3.6-1.8-21-5.3-30.2Z"/>
  <path fill-opacity=".5" d="M748.1,321.6c1.1-3.9,2.1-7.1,3.4-10.9l.9,1.8c-1,32.7-.1,63.5-.7,96.1-.2,13.1.5,32.3-1.4,45-.7-7.4-.2-26.2-.1-34.4l.2-64.6c0-5.4.4-23.6-.6-27.3l-1.5.5c-.2-1.4-.1-4.6-.1-6.2Z"/>
  <path fill="#fbfcf1" d="M251.2,636.3c2.9-.2,2.4,0,5.4.4,3,2.3,2,.8,3,4.5-1.7,7.8-6.6,8.3-13.4,8.9-4.4-.4-7.3-.2-9.8-4.2l.7-2c4.7-4.5,7.9-4.9,14.1-7.7Z"/>
  <path fill="#f0f7c1" d="M288.9,693.2c0-5.3-1.1-11,5-12.3l2.3,1.9c1.8,3.9,1.4,5.2,1.4,9.6l-.5,3.3-.9.4c-4.9,9.9-6.6,3.1-5.3,17,.8-2.1,1-3.2,2.4-5.1,3.9,5.2.7,12-2.8,16.9l-.9-.5c-.2-4-.2-6.6,0-10.6-.3-6.9,0-13.5-.5-20.8Z"/>
  <path fill="#e7f799" d="M288.9,693.2c0-5.3-1.1-11,5-12.3l2.3,1.9c1.8,3.9,1.4,5.2,1.4,9.6l-2-4.4c-3.6,5.3-1.3,4-6.7,5.1Z"/>
  <path fill="#a1c33f" d="M176.8,595.6l1.2-1.2c1.2-8.8,12.4-9.6,18.7-14.7l2,.9.9-.8c1.3-1.1.8-.7,2.3-1.8l.9,1.6c-2.6,3.9-11.8,17.8-15,19.3l-2.1-3.2c-2,.9-1.4.4-2.8,2l-1.6-.3c-1.3-.7-3-1.3-4.5-1.9Z"/>
  <path fill-opacity="0" d="M700,755.8c-3.5-9.3-.5-29-2.7-40.1-1.7-8.7-2.4-19.2,5.3-25-1.7,9.3-.8,24.5-1.2,34.6-.4,10.2-.9,20.3-1.4,30.5Z"/>
  <path fill="#9cd109" d="M93.2,1290.5c1,.3,2,.6,3,.9,3,8.4,3.5,15.9,7.9,23.6h1.3s1.4-3.3,1.4-3.3l1,.3c1.2,2.9,1.9,6.8-.5,9.1-3.6,0-1.9-.6-4.4-1.2-3-.7-.2,2.2-3,5.6l-.9-.7c-1.1-10.8-8.5-23.3-5.9-34.2Z"/>
  <path fill="#f2f40e" d="M347.6,585.1c-3.6-5.7-9.6-19.6-7.3-26l1.4-.2,1.5,1.9c.3,3.1.2,4.3,1.5,7.2l1.3-2.2h1.3c2.6,3.7,3.4,8.7,4.5,13.3,1.4,5.5,2.9,8.9-.7,14l-1.5-.6c-1.1-2.9-1.7-4.3-2.3-7.3Z"/>
  <path fill="#f0f7c1" d="M250.8,727.1c.6-5-.3-4.1,2.5-6.9,3.3-.5,1.7-.7,4.8,1.2.8,1.8,1.2,2.8,1.8,4.7,0,7.7,1.6,16.1-3,21.2l-2.3-.2c-5.4-4-1.9-12.1-3.7-20Z"/>
  <path fill="#f7fccc" d="M250.8,727.1c.6-5-.3-4.1,2.5-6.9,3.3-.5,1.7-.7,4.8,1.2.8,1.8,1.2,2.8,1.8,4.7-5.4,1-4.6,2.5-9.1,1Z"/>
  <path fill="#fbfcf1" d="M347.9,1118.2c4.7,1.5,3.9,23.2-2.4,26.1-3.2-4.3-7.5-13.5-5.9-18.9,1.3-4.3,4.7-5.2,8.4-7.2Z"/>
  <path fill="#e7f799" d="M215.4,915.6c1.7,6.6,3.1,38.3-.3,42-3.9-8.5-2.6-23-5-26.4-.7-3.1-.3-10.1,2.3-12.1l1.3-.7,1.7-2.7Z"/>
  <path fill="#f0f7c1" d="M210.1,931.2c-.7-3.1-.3-10.1,2.3-12.1,3.4,3.2,4.2,9.4,1,12.9-1.3-.3-2.1-.4-3.3-.8Z"/>
  <path fill="#f7fccc" d="M357.9,394.5c5.9,1.6,12.7,17.9,10.7,21.6l-2.3-2-1.7,1.1-.6-.2c-1.3-2-.5-1.1-2.6-2.5l-.7.8c-11.3-3.5-6.9-11.8-2.8-18.7Z"/>
  <path fill="#a1c33f" d="M310.9,1326.8c.8,0,2.2.2,3.1.3l.9,2c-1.7,8.9-9.5,18.1-15.3,25.3l-5.8-1.7c1.1-3.1,2-8.7,4.3-10l.6,2.3h1c.6-2.6.6-4.6,2.7-6.4l.9,2.5c3.1-3.4,1.7-7.2,7.5-14.2Z"/>
  <path fill="#a1c33f" d="M772,167.2c0,0,1.5,1.4,1.6,1.6,4.5,9,24.9,12.9,26.4,14.2-2.1,1.6-4.3,3-6.5,4.4-6.5.2-13.2-.5-19.8-1l-.2-1.3c2.1-1.1,3.7-1.9,5.8-3.1-.4-5.4-5.5-4.8-7.3-14.7Z"/>
  <path fill-opacity=".2" d="M748.2,327.8l1.5-.5c1,3.7.6,21.8.6,27.3l-.2,64.6c0,8.2-.6,27,.1,34.4,0,7.1,0,15.4-1,22.3-1.2-11.3,0-25.3-.2-36.9-.5-31.2,1.7-65.7-.5-96.5-.5,6.2-.7,12-2.3,18.1-.6-10.5,1.4-21.7,1.9-32.7Z"/>
  <path fill-opacity=".4" d="M713.3,620.7c0,2.8.6,5.6-2.1,7.1-3.3-5.8-1.1-121,.2-132.6,1.2,16.4-2.3,121.9.9,126.1l1-.6Z"/>
  <path fill="#e7f799" d="M223.3,939.5c7.7,3.7,6.5,17.2,3.2,23.8-1.5,3,0,10.3-.3,14.8-1.5,2.8-.7,2-3.1,3.8l-1-1.3c1.3-11.1-1.9-31.4,1.1-41.1Z"/>
  <path fill="#f0f7c1" d="M142.2,625c6.2-.5,12.4-.7,11.4,7.4-1.5,2.1-2.2,3.6-4.6,4.5l-.9.2c-6,1.3-11.8,0-12.1-7.1,2.3-3.7,1.9-2.6,6.2-5Z"/>
  <path fill="#f7fccc" d="M312.5,399.3c4,.2,12.6,1.8,13.8,6.3l-3.3.5c.6,2.9,2.1-.5,6.7,6.1-5.9,1.4-17.5,1.1-20.3-5.5.3-3.9.7-4.1,3-7.4Z"/>
  <path fill="#e7f799" d="M316.2,663.5c15.4,11.3,4.6,14,4.4,28.2l-1.9-3.6v.6c-3.8-6.1-6.1-18.8-2.4-25.2Z"/>
  <path fill="#f7fccc" d="M238.5,460.4c5.4-.3,13.8,1.6,13.5,8.4-2.3,1.7-2.9,1.8-5.5,2.7l-1.3-1c-4-.8-2.6-.6-7,1.9l-1.1-.7c0-4.6-2.9-.6-5.9-5.3,1.7-4.4,3-5,7.4-6Z"/>
  <path fill="#c3e54a" d="M273.1,557.7c1.1.4,1.9,1.2,2.9,2.1-2,2-17.3,7.4-21.3,9.2-5.8,2.7-11.5,5.7-16.9,9.1-1.3-.4-1.8-.8-3-1.4l.6-1.9c6.8-6.4,28.5-14.2,37.7-17.2Z"/>
  <path fill="#e7f799" d="M285.7,552.3c4.6.3,20.9,6.6,21,11.5-2.7,1.9-6.3,1.2-9.7,1-4.7-1-5-.3-9.6,1.6l-1.4-1.2c1.6-5.6,3.4-2.4,3.8-6.7-2.1-2-.8-1.2-4.6-1.3l-.9-1.4,1.4-3.6Z"/>
  <path fill="#f2f40e" d="M392,562c1.3,3.7.5,4.7,3.3,7.1,1.1-.3,2.2-.7,3.2-1-.9,4-5.4,13.4-7.7,17-1.5,1.2-3.5,1.8-5.4,1.8l-.8-1.6c0-7.7,4.2-16.2,7.3-23.2Z"/>
  <path fill="#9cd109" d="M660.2,1376.9c9.8,4.2,3.1,15.3,1.3,22l-2.9,1.6c-1.1-7.9-1.3-10-5-17l-.8-1.5c3.8-1.7,4.6-2,7.4-5.1Z"/>
  <path fill="#f0f7c1" d="M245.6,739.1c-.8-5.9-2.4-15.3-4.3-20.9l1.8-2.3,1.4.2c1.8,2.7,1.9,3.9,4.3,4.7.5,1.9.5,8.1,0,9.7-1.8,5.2,2.7,11.9-.9,15.1-4.3,0-2.4.5-6.1-1.6-1.5-3.1-1.4-1.6-.8-4.6,2.9-1.4,1.4-1.2,4.8-.3Z"/>
  <path fill="#e7f799" d="M247.8,745.5c-4.3,0-2.4.5-6.1-1.6-1.5-3.1-1.4-1.6-.8-4.6,2.9-1.4,1.4-1.2,4.8-.3l2.1,6.5Z"/>
  <path fill="#a1c33f" d="M56.7,506c-1.8-3.9-.4-6.9-2.8-9.6-.8,1.5-.8,2-1.1,3.7l-1.4-2.5-1,.5-.6,4.8c-1.9-4,1.5-7.6,1.9-11.6.4-4-1-7.1.1-10.9,4,.5,8.5,5.6,7.8,10,.4,5.9,1.6,11.5-1.8,16l-1-.5Z"/>
  <path fill="#c3e54a" d="M56.7,506c.4-5.3-.2-12.9,1.1-17.4l1.7,1.8c.4,5.9,1.6,11.5-1.8,16l-1-.5Z"/>
  <path fill="#f7fccc" d="M331.3,436.6c4.4-.7,4.6-.4,7.7,1.6,3.3,5.3,1.6,10.4-2.1,14.8-4.2-3-9.2-6.6-10.2-11.5,1.7-3.2,1.8-3,4.7-5Z"/>
  <path fill="#f7fccc" d="M104,455.8c-1-7.7-.2-12,3.4-19l1.6-.4c2.3,2.8,1.9,6.2,2.1,10,1.7,3.9,1.4,5.2,1.5,9.6l-.4,1.7c-3.3,1.4-3.1,2.6-6.1,2.1l-2.1-3.8Z"/>
  <path fill="#a1c33f" d="M383.5,1032.1c-1.2,2.7-1.6,4.7-3,7.4l.9-.9h-1.9s.4.7.4.7c-2.2-4.5-4.7-17.3-2.9-22.1,5.3-3.1,4.4-3,5.1-8.7l.8-.4c.8,4.8-.1,8.8-.8,13.6l1.4,1c1.4-2.2,2.4-3.5,4-5.6-1,7.1-1,8.3-4,14.9Z"/>
  <path fill="#e7f799" d="M104,455.8l2.1,3.8c3,.5,2.8-.8,6.1-2.1l1.8,2.9c2.5.8,1.3.6,3.9,0l.4,1.7c-1.7,4.7-7.3,12.6-10.3,17.2-1.5-7.4-3.4-16-4.1-23.4Z"/>
  <path fill="#9aca15" d="M389.9,536.5c4.1-8.5,4.1-1.5,6.3-12.3l1.7-.6,1.5,1.4c2.2-2.4,2.1-1.4,2.4-3.9,1.2,2.6,1.8,2.8,3.9,4.7-2.1,4.7-10.6,15.5-14.1,20v-7.9c-.1,0-1.7-1.4-1.7-1.4Z"/>
  <path fill="#f7fccc" d="M216.5,988.3c-.1-3.2,0-5.2,2.1-7.5,3.5.8,2.6.9,5.5,4.6l2-1.9c1.7,2.6,1.6,5.2,2.6,8.7-2,3.3-4.1,7.4-7.8,8.6-1.2-2.8-3.2-9.1-4.5-12.5Z"/>
  <path fill="#f0f7c1" d="M216.5,988.3c-.1-3.2,0-5.2,2.1-7.5,3.5.8,2.6.9,5.5,4.6-2.8,1.2-4.7,2.1-7.7,3Z"/>
  <path fill="#f0f7c1" d="M312.9,417c4.7.6,9-.3,11.5,3.9-.9,3.5-3.6,5.6-6.2,8.1l-.3.3c-4.9,1-2.4,1.6-6.6.2-5.1-5.6-2.4-8.4,1.6-12.7Z"/>
  <path fill="#f7fccc" d="M192.1,412.9c6.3.7,11.4.6,16.3,5l-.5,2.5c-8.2,2.3-16.2.6-24.3-1.6,3.2-4.3,3.5-4.1,8.6-5.8Z"/>
  <path fill="#a1c33f" d="M147.6,1322.7c2.7-3.6,2.5-3.4,1.8-8.1l1.5-2.2.4,5,1.1.4c1.6-2.5,1.5-4.3,2-7.2.6,8.7,2.1,22.8-.2,30.8l-.9.5c-2-3.2-2.1-3.8-3.1-7.5-1.8-3.8-2-7.4-2.6-11.6Z"/>
  <path fill="#9cd109" d="M405.5,454.7l2.7.6.2,3.5c-1.6,2.4-3.6,4.8-2.3,7.9,3.1,7.5,7.5,3.6,12.9,5.6-1.8,1.9-1.6,1.9-4.1,2.5-7.1-3.1-7.9.7-12.4-1-3.4-4.8-2.2-9.6-1.5-15.3,2.4-3.4.9-2.1,4.6-3.8Z"/>
  <path fill="#9cd109" d="M603.7,1466l2.3.9c2.4,4.7,9.9,11.4,12.5,16.9-9.8-.2-21.8-6.5-14.8-17.8Z"/>
  <path fill="#a1c33f" d="M396.5,634h.8c3.6,2.8,10.9,2.1,17,5.7l-.7,1.5c-2.3.2-2.5.2-4.5,1.2l-1.5.8c-5.5.1-13-1.3-17.4-4.9v-1.8c1.8-1.9,3.6-1.9,6.3-2.5Z"/>
  <path fill="#a1c33f" d="M389.9,536.5l1.5,1.4v7.9c-1.2,3.8-1.5,4.5-3.6,8-3.3,1.7-8.2,1-11.9.3l.6-1.7c2.5-.7,2.9-.6,4.9-2.2l-.6-3c4.3-3.3,6-6.4,9.1-10.9Z"/>
  <path fill="#a1c33f" d="M185.2,1047.5c-2-5.7-4.8-19.9-4.7-25.7l.9-1c3.7,4.1,10.2,21.7,11.4,27.2-2.1-2.4-3.1-3.2-5.9-3.4l-1.7,2.9Z"/>
  <path fill="#a1c33f" d="M922.3,1427.4c-2.4-3.3-2.5-2.4-2.9-6,4.9-3,16.9,1.2,20.4,5.4l-.4,1.6c-2.7,1.4-5.8,1.9-8.8,2-2.6-1.2-5.5-2.1-8.3-3.1Z"/>
  <path fill="#f7fccc" d="M321.7,442.2l2.2.5.6,2.9,2.5,1.2.3,1.4c-2.6,3.4-11.2,8.1-15.6,7.6-2.1,1.2-1.4.9-3.8,1.7v-1.8c3.7-4.8,9.2-9.4,13.8-13.5Z"/>
  <path fill="#fbfcf1" d="M153,1419.7c7.4,2.8,9.7,9.7,2.3,15.1-2.6-.4-2.9-.5-5.4-1.5-4.3-5.2-.8-9.2,3.1-13.6Z"/>
  <path fill="#c3e54a" d="M138,1207.8c.3,4.2,2.8,9,3.3,15.3,1,14.2-2.3,10-6.3,20.5,0,.5,0,.1-.2,1.6-.8-10.8,2-25.9,3.2-37.5Z"/>
  <path fill="#a1c33f" d="M359.4,613.8c1.6.2,3.2.2,4.9.1,6.2,2.9,11.5,5.3,11.1,12.8l-.4.7c-5.5,1.8-13.9-8-15.7-13.6Z"/>
  <path fill-opacity=".2" d="M183,1251.6c-.5-7.6-4.1-54.9-1-59.9.3,12.9.7,37.9,2.3,49.8.5-3.5,2.2-18.5,3.9-20.5.3,8.5-3.1,22.1-5.3,30.6Z"/>
  <path fill="#a1c33f" d="M345.9,550.3c.3-3.6-.3-4.2,1.6-5.9,3.6,1,7.9,5.3,10,8.4-1.9,1.7-1.3,1.2-3.8,2.2.4,2.8,1.4,6.9.5,9.3-2.8-.7-4.1-4.1-4.9-6.8-.9-2.6-2.2-4.9-3.4-7.3Z"/>
  <path fill="#fbfcf1" d="M247.3,599.2c-4.1-.2-2.5.6-5.2-1.7v-2.3c3-4.7,6.8-7.4,12.6-5.6,3.1,2.8,2.1,1.6,3.3,6.2-4.5,2.2-5.7,2.3-10.7,3.4Z"/>
  <path fill="#a1c33f" d="M327.3,637.4c4.1,7.5,7,22.3,3.7,30.4l-2.6-2.9c.6-12.5-6.2-16.1-1.1-27.5Z"/>
  <path fill="#a1c33f" d="M279.7,673.5c3.4,0,2.3-.6,4.1,1.2-.4,5.8-1.5,9.1-3.8,14.5l-1.9-1.5c-1.3-6.1-7.2-8-5.8-13.5l2-1c2.5.3,2.8.5,5.3.3Z"/>
  <path fill="#c3e54a" d="M98.9,367.6l.9-2.6c3.5-1.7,1.9-1.7,5.1-.8,2,4.9-1.4,16.7-2.9,22.2-1.1-3.9,0-2.4-3.1-4.7,0-6-1.9-8.7,0-14.2Z"/>
  <path fill="#e7f799" d="M98.9,367.6c2.6,4.7,4,9.8,0,14.2,0-6-1.9-8.7,0-14.2Z"/>
  <path fill="#a1c33f" d="M728.6,1245.2c4.1-.8,28.8,7.5,31.7,11.3-5-1.2-29.7-6.2-32-8.2l.7-1.6-.5-1.4Z"/>
  <path fill="#e7f799" d="M163.6,1198.9c.7.6,2.6,2.5,3,3.2,2.3,4.7,1.5,24,.7,28.8v.9c0,0-1-.5-1-.5-3-8.2-2.7-23.5-2.6-32.4Z"/>
  <path fill="#a1c33f" d="M178.1,359.7c2.1,0,2.3.2,4.3.7,1.3,2.1,1.1,1,.6,3.4-5.2,4.7-7.8,4.9-14.4,6.4l-2.1-1.4c-.6-2.8-.7-1.4.9-4.1,6-3.1,5.6.6,10.7-5.1Z"/>
  <path fill="#f0f7c1" d="M94.6,335.7c2.2-.1,4.3-.2,6.5-.2,3.7,0,4.6.4,7.1,3,.1,3.3.6,1.8-1.6,4.7l-1.6-1.2-1.9-.5c-3.5,1.5-7.2,3.2-10.1,0,0-3.2,0-3,1.8-5.7Z"/>
  <path fill="#e7f799" d="M166,420.9c6.7-2.9,19.3-9,26.1-8-5.1,1.7-5.4,1.5-8.6,5.8l-1.5.7c-.2,2.5.4,1.7-1.4,3.8-4.5.6-10-1.2-14.6-2.2Z"/>
  <path fill="#a1c33f" d="M66.1,338.1c3.4-.8,4.8-1.3,7.7.7l.2,2c-2,3.9-1.2,3.8-5.4,5.2-3.5,1.3-5.3,2.2-8.4,1l-.4-2c1.3-3.7,3.1-4.4,6.4-6.8Z"/>
  <path fill="#fbfcf1" d="M193.9,436.6c5.2-.6,8.1-1.6,12.2,1.9,1,4,.8,2.5-.5,6.8-8.3,2.1-9.6-1.2-11.8-8.7Z"/>
  <path fill="#a1c33f" d="M151,342.1c5.4,1.6,27.2,6.2,29.5,8.1l-1.4,1.2-2.4-.3c-3.3-.5-11.5-1.9-14.1-3.2-5.9-3-8.6,1-12.4-.7l2.4-2.4c-3.2-.2-2.8.4-4.3-1l2.7-1.7Z"/>
  <path fill-opacity=".2" d="M140.5,1253c4.6,3.4,2.7,25.4,1.3,30.7-4.5-4.5-2.5-24.4-1.3-30.7Z"/>
  <path fill="#f0f7c1" d="M142.8,1352.1l2.9.7c3.5,3.7,2,13.9,1.9,19.9h-2c-4.3-5.4-2.9-13.3-2.8-20.5Z"/>
  <path fill-opacity="0" d="M663.7,1416.9c4.8,12.5,3.1,22.9-.5,35.5-1.2-5.5-3-14.2-2.3-19.9,1.8,1.3,1.6,2.9,2.2,5.8l.8-.3-1.2-4,1.5-.8c0-5.7-.2-10.6-.5-16.3Z"/>
  <path fill="#9cd109" d="M230.9,1106.4v1.2c-1.5,2.2-1.8,2.7-3,5.2,1.4,3.1,1.8,3.4,2,6.9-1.5,3.2-1.3,3.7-4.3,5.6l-2-.7c-3.7-8.2,1.8-13,7.2-18.2Z"/>
  <path fill="#9aca15" d="M662.9,1341c3.3.5,4.6,2.1,6.4,4.8-.2,4.3,0,2.8-3.7,6.7-3.2,0-3,.2-5.8-1.3-.8-4,1-6.3,3-10.3Z"/>
  <path fill="#f0f7c1" d="M326.6,421.3c3.2.9,5.6,1.8,7.1,4.3-1.5,3.3-8.5,6.2-12.1,8.1l-5-2.4c14.8-3.1,3.3-2.3,10-10Z"/>
  <path fill-opacity="0" d="M265.1,527.2c1.6,3.4,1.6,4.2,1.1,7.7-2.1,3.1-.8,1.9-4.4,3.4-4-.8-2.5.2-4.8-2.5l.3-2.6c2.4-3.7,2.2-3.5,6-5.9l1.8-.2Z"/>
  <path fill="#e7f799" d="M111.1,446.2c1.3-4,.2-2.5,3.1-5.1,2.8-.5,1.6-.8,3.9.9,1.9,4,1.8,6.3-.4,10.2-2-.4-1.9-.4-4,.1l-1.1,3.4c0-4.4.2-5.7-1.5-9.6Z"/>
  <path fill="#9cd109" d="M379,885.4c2.9.5,1.8.2,4.4,2.2,2.2,5,2.3,9.7,2.2,15.1l-1.1-.8c-1.1-2.5-1.9-5-4.6-6.1-2.3-3.2-1.2-5.7-.9-10.4Z"/>
  <path fill="#a1c33f" d="M310.1,1086.3l3,.9c4.3,5.6,5.7,8.4,4.8,15.4-5.6-2.9-9.4-10.1-7.7-16.3Z"/>
  <path fill="#f7fccc" d="M144.6,293.8c2.3,3.9,1.5,8.8-2.3,11.4l-3.3-1.1c-2.3-3-2.5-3.2-1.5-6.4,2.7-2.4,3.7-2.6,7-3.9Z"/>
  <path fill="#f0f7c1" d="M146.2,720.1c5.9-.3,15.3,2.1,18.2,7.8-7,1.7-13.9-2.7-18.2-7.8Z"/>
  <path fill="#f0f7c1" d="M323.8,468.4c2.7-3.1,1.4-2.8,4.1-3,1.9,3.2,1.2,3.1,1.2,7.5-1.4,2.1-1.5,2-3.5,3.6l-2.6,2.5-2.8-6.5,3.7-4Z"/>
  <path fill="#e7f799" d="M320.1,472.4l3.7-4c1.3,3.2,2.3,4.6,1.8,8l-2.6,2.5-2.8-6.5Z"/>
  <path fill="#a1c33f" d="M881.4,1274.3c6.4,13,2.7,4.5,14.5,8.5l-.7.8c-4.6,1.5-9.2,3-13.8,4.5v-13.7Z"/>
  <path fill="#f0f7c1" d="M185.7,401.1c7.3.7,9,4.4,9.7,10.8-4-.7-5.9-1.1-8.7-4-1.3-3.4-1.2-3.2-1-6.9Z"/>
  <path fill="#a1c33f" d="M623.5,1482.6c4.5-.4,4.7.3,6.9,3.7.5,4.2.3,4.5-.8,8.7-6.2-4-5.6-5.1-6.2-12.4Z"/>
  <path fill="#f7fccc" d="M366.8,1095.3c1.2-5.8,1.9-12.5,4.1-17.7h1c1.6,8.2,3,17.9.8,26-.7-7.3-1-17-1.6-24.8-.6,6.2-.2,12.1-4.3,16.4Z"/>
  <path fill="#e7f799" d="M323,479c-3.1,2.6-4.7,3.4-8.4,3.2l-1.2-1.6c1.1-4.1,2.9-5.6,6.7-8.1l2.8,6.5Z"/>
  <path fill="#a1c33f" d="M833.3,1310.1c4.9-2.9,15.4-1.2,20.2,1.4l.2,1c-3.5,0-5.1-.5-7.6,1.4-1.8-.4-2.7-.8-4.6-.6-3.5-.2-4.8-1.5-8.2-3.2Z"/>
  <path fill="#e7f799" d="M167.2,1387.6c2.4,4.6-1.1,2.1,3.5,6.1,2,.5,1.1.2,2.9,2l-.2,5.7c-2.6,1.6-1.3,1.4-4.1.9-3-4.4-2.6-9.7-2-14.7Z"/>
  <path fill-opacity=".8" d="M751.2,293.4c.5,3.9,2.5,16.1,1.2,19.1l-.9-1.8c-1.3,3.8-2.3,7.1-3.4,10.9-.9-5.3,2.3-21.4,3.1-28.2Z"/>
  <path fill="#a1c33f" d="M176.8,595.6c1.4.6,3.1,1.1,4.5,1.9l.5,1.7,2.8,1.3-1.2,1.2c-3.4.5-8.2,1.7-11.3.7v-1c1.9-2.8,2.2-3.3,4.7-5.8Z"/>
  <path fill="#a1c33f" d="M607.8,1486.3l1.8-.2c3.8,4.1,3.3,8.8.4,13.1-2.8-4.6-2.9-7.4-2.2-12.9Z"/>
  <path fill="#a1c33f" d="M329.8,1306.8l1.5-.3c3.1,3.5,3.3,7.5-.7,10.3-1.8-2.1-4-3.8-4.8-6.3l3.9-3.7Z"/>
  <path fill="#f0f7c1" d="M171.3,302.3c3.5,2.1,2.5.7,3.6,4.1-1,3.2-1.5,3.3-4.2,5.4-2-1.8-2.1-2.6-3.3-5,.8-3.2.3-2.1,3.9-4.5Z"/>
  <path fill-opacity="0" d="M178.9,1142.2l.3,1c-.5,3.9-1,6.5-3.6,9l-1.9-.3c-1.5-3-1.2-1.4-.7-5,2.1-2.9,2.9-3,5.9-4.7Z"/>
  <path fill="#a1c33f" d="M801.5,968.9c4.5,0,5.1-.6,8,1.9.6,3,.1,3.4-.8,6.3-9.7-1.4,0-.3-7.2-8.2Z"/>
  <path fill="#a1c33f" d="M204.3,470l3.6.4.9,1.8c-1.6,2.8-1.4,2.9-4.2,4.2-1.2,1.6-1.6,1.9-3,3.3l-.8-.7c.8-4.8.8-5.1,3.5-9Z"/>
  <path fill="#e7f799" d="M329.4,1289.1l1.7,1.1c-.3,4.1-1.9,5.5-4.4,9.1l-3-2.7c.6-3.6,2.6-4.5,5.7-7.5Z"/>
  <path fill="#f2f40e" d="M349.4,557.6c-.2,0-.4,0-.5.1-1.7,0-3.3-.7-4.5-1.8-2.1-1.7-2.3-3.9-2.5-6l1.2-.9,2.9,1.4c1.3,2.4,2.6,4.7,3.4,7.3Z"/>
  <path fill-opacity=".2" d="M758,1367.7h4.2c0,0-4.5,2-4.5,2l-.4,1.3c2.3,1.3,4.5,2.6,6.8,4-3.5-.8-10.2-2-12.6-4.1,1.5-2.3,3.2-2.1,6.5-3.2Z"/>
  <path fill="#a1c33f" d="M815.5,231.8c3,5.2,4.4,8.8,3.1,14.6l-2.1-1.9c-1.7-4.1-1.1-8.2-1-12.7Z"/>
  <path fill="#a1c33f" d="M260.5,480c2.4.5,2.3.5,4.1,2.3,1.4,3.6,1.1,4.2.7,8.2l-2.5-.7c-2.3-3.1-2-5.9-2.4-9.8Z"/>
  <path fill="#f0f7c1" d="M319.3,1235.1c2.8,3.5,1.4,8.5-.2,12.1l-2.2-1.1c-1.2-3.9.7-6.8,2.4-11Z"/>
  <path fill="#f0f7c1" d="M235.9,710c2.7,4.4,3.4,5.1,1.2,9.8-2-1.7-1.6-1.3-3.1-3.5,0-3.9-.1-2.5,2-6.3Z"/>
  <path fill-opacity=".2" d="M213.7,918.4c-2.3-2.4-4.4-7.2-1.1-9.6,2.4,2.5,1.8,2.9,2.8,6.9l-1.7,2.7Z"/>
  <path fill="#e7f799" d="M114.6,1218.3c1.6,3.5.6,7.2-.5,10.7-1.5.4-.7.4-2.5-.2-.5-3.3,1.7-7.3,3-10.5Z"/>
  <path fill="#a1c33f" d="M781,1267.3c6.4.6,7-.2,9.5,5.7-5.5-1.1-6.3-1.3-9.5-5.7Z"/>
  <path fill="#a1c33f" d="M167.7,603.5c1.3.7,1.9,1.1,3.2,1.9-1.3,2.6-3.2,2.5-6.9,3.9h-1.7c0,0,5.5-5.8,5.5-5.8Z"/>
  <path fill="#e7f799" d="M296.1,1078.5l2,.8c.8,3.1.8,4.9,1,8-.6.6-.1.3-1.6.5-1.7-3.1-1.3-5.8-1.5-9.3Z"/>
  <path fill="#f0f7c1" d="M236.5,484.5c3,2.5,1.1,5.5.3,9.2-3.7-4.2-2.3-4.4-.3-9.2Z"/>
</svg>