<?xml version="1.0" encoding="UTF-8"?>
<svg id="fixed_id_0"  xmlns="http://www.w3.org/2000/svg" version="1.1" xmlns:xlink="http://www.w3.org/1999/xlink" viewBox="0 0 796.8 1655.9">
  <!-- Generator: Adobe Illustrator 29.3.1, SVG Export Plug-In . SVG Version: 2.1.0 Build 151)  -->
  <defs>
    
    <linearGradient id="fixed_id_1"  x1="235.1" y1="977.7" x2="265" y2="985.4" gradientTransform="translate(0 1659.8) scale(1 -1)" gradientUnits="userSpaceOnUse">
      <stop offset="0" stop-color="#f6fdcf"/>
      <stop offset="1" stop-color="#fffef4"/>
    </linearGradient>
    <linearGradient id="fixed_id_2"  x1="350.7" y1="1210.4" x2="283.4" y2="1248.6" gradientTransform="translate(0 1659.8) scale(1 -1)" gradientUnits="userSpaceOnUse">
      <stop offset="0" stop-color="#f4fad3"/>
      <stop offset="1" stop-color="#fff"/>
    </linearGradient>
    <linearGradient id="fixed_id_3"  x1="335.8" y1="1210.8" x2="333.1" y2="1206" gradientTransform="translate(0 1659.8) scale(1 -1)" gradientUnits="userSpaceOnUse">
      <stop offset="0" stop-color="#d0dbac"/>
      <stop offset="1" stop-color="#f8ffd0"/>
    </linearGradient>
    <linearGradient id="fixed_id_4"  x1="186.8" y1="996.3" x2="199.5" y2="998.1" gradientTransform="translate(0 1659.8) scale(1 -1)" gradientUnits="userSpaceOnUse">
      <stop offset="0" stop-color="#ecfe7f"/>
      <stop offset="1" stop-color="#fefdde"/>
    </linearGradient>
    <linearGradient id="fixed_id_5"  x1="241.2" y1="497.2" x2="269.5" y2="492.9" gradientTransform="translate(0 1659.8) scale(1 -1)" gradientUnits="userSpaceOnUse">
      <stop offset="0" stop-color="#f6fad5"/>
      <stop offset="1" stop-color="#fefff8"/>
    </linearGradient>
    <linearGradient id="fixed_id_6"  x1="477.8" y1="670.1" x2="419.4" y2="699.9" gradientTransform="translate(0 1659.8) scale(1 -1)" gradientUnits="userSpaceOnUse">
      <stop offset="0" stop-color="#f7fdd0"/>
      <stop offset="1" stop-color="#fefeff"/>
    </linearGradient>
    <linearGradient id="fixed_id_7"  x1="441.6" y1="350.1" x2="455.5" y2="349.8" gradientTransform="translate(0 1659.8) scale(1 -1)" gradientUnits="userSpaceOnUse">
      <stop offset="0" stop-color="#d3ed7d"/>
      <stop offset="1" stop-color="#f4ffb9"/>
    </linearGradient>
  </defs>
  <path fill="#c1d96b" d="M286,48.7c27-12.4,55.5-16.1,82.1-.6l4.6,2.7c20.2,14.2,31,30.6,34.3,55.3,2.5,18.8,2,37.4,3.7,56.3,1,14.5-4.5,33.1-6.3,47.4-1.6,9-.2,16.8-5.4,25.2-6.8,11.2-21.6,2.8-28.4,11.1-2.1,2.7-2.1,12.5-2.9,16.4.8,13,2.6,20.4,13.6,29.4,17.6,14.4,23.6,23,44.5,33,12.9,6.4,33.6,17.7,42,29.9l2.4,3.7c3.9,5.9,7.2,11.5,9.7,18.1,2.8,6.9,3.9,10.1,5.8,17.3,6,22.8,3.7,25.5,3,47.9-1.7,9.6-2.4,13.8-.9,23.7,8.9,6,19.9,37.4,22.4,48,1.4,6.1,2.1,15.7,4.4,21.2,3.2-.4,11.2-7.2,14.4-9.7,10.4-8.3,48.7-22.7,53.8-33.5-2.1-3.8-23.3-5.7-28.6-7,6.2,0,12.4,0,18.6-.1,2,0,2.2,0,4.1.5,4.9,1.3,7,.5,12-.3l1.1-1.5c8.6.2,16.2-2.5,24.9-3.8l-2.8,2.5v1.1c11.5-3.3,11.4-3.3,22.3,1.6,5.9,2.7,9.1-3.4,14.4-6.1-8.4,15.4-18.8,32.3-26.5,47.5-9.7,19.2-20.5,48.9-34.8,65.3-4.5,6.7-13,15.3-19.5,20.2-10.8,9-21.6,18-31.6,27.9-9.5,9.3-19.7,19.8-34.3,17.7-23.1-3.4-41-21.9-56.2-38-4-3.9-6.3-6.5-11.2-9.2-16,20.4-1.1,44.7,1.2,66.3,1.7,16.4-3.7,34.6-4.7,50.8-.6,10.4,3.8,25.1,3.9,36.9-3.7-5-6.3-25.3-9-26.2-2.9,20.1-11.5,20.8-29.7,20.9-2.2,0-5.1,3.7-8,4.1-5.9.8-11.6,1.1-17.6,1.4-11.5.6-22.9.9-34.4-.7-4.3-.6-10.1-.3-14.5-.2-7.5-4.8-20.1-1.6-26.6-3.3-13.7-3.6-28.5-8.9-41.5-14.5-2.9,1.4-1.3,1.2-4.8.4-1.4-2.1-1.5-2.3-2.5-4.7l-2.2-.4-.5,1.9c-7.7-2.9-17.6-4.9-24.5-8.2-6-2.8-9.5-9.8-18.5-10.6-10.4,8.8-21,56-23.2,71.3-.8,5.6,1,27,1.6,33.8l-.9.6c-7.5-8-6.9-.8-5.7-10.9-8.3-1.2-30.3,9.8-45.4,6.8-.4-.2-.8-.4-1.2-.5-7.2-.6-6.5-7.8-11.2-9.3-8.9-2.9-31.4.8-40.4,3.8-4.3,1.5-4.1,1.6-8.7,2.4l-1.1.2c8.3-6.7,10.9-7.9,21.6-10.5,6.9-.8,22.9-.2,27.4-2l.9-2c1.5-8.6-17.6-70.9-19.3-84.2-3.9-30.8-1.1-63.4-1-94.6-.3-8.3,3.5-20.8,2.1-28.6-6-34.3-15.9-70.3-18.1-104.9-.8-12.1,10.5-36.4,15.5-48,1.7-7,5.2-15.9,6.6-22.5,1-4.7,1-16,1.5-21.8-.2-6.4.7-17.6,2.1-24,.4-2.6.9-5.1,1.5-7.6,9.8-38,42.4-49.1,70.9-69.2,7.9-6.6,14.9-14.9,22.6-21.8,20.6-18.5,55.1-26.6,62.6-56.8,1.9-44.3-36.7-79.3-16.8-131.2,8.9-23.1,19.5-32.8,41.5-43.4Z"/>
  <path fill="#9cd10a" d="M286,48.7c27-12.4,55.5-16.1,82.1-.6l4.6,2.7c20.2,14.2,31,30.6,34.3,55.3,2.5,18.8,2,37.4,3.7,56.3,1,14.5-4.5,33.1-6.3,47.4-1.6,9-.2,16.8-5.4,25.2-6.8,11.2-21.6,2.8-28.4,11.1-2.1,2.7-2.1,12.5-2.9,16.4-1.7,11.5-8.3,26.2-11.7,37.8-1,3.2-9.6,16.3-11.6,19.9-.8,1.5-2.9,1-4.2.8-10.2-7.4-19.7-42.6-23-54.9-.9-3.3-10.1-15.4-12.8-18.1-1-1-9.5-3.7-12.8-6-5.8-4.2-10.6-11.8-17-14.8-4-1.8-5.3,3-10.3,1.8l-3-5.6c1.9-44.3-36.7-79.3-16.8-131.2,8.9-23.1,19.5-32.8,41.5-43.4Z"/>
  <path fill="#9dc828" d="M286,48.7c27-12.4,55.5-16.1,82.1-.6l4.6,2.7c-7.1,0-17.2.4-23.9-.4-14.6-1.8-28-6.5-42,.1.7-.3-18.5-1.7-20.8-1.8Z"/>
  <path fill="#9dc828" d="M101.7,402.7c1,7.7-1.2,19.9,2.2,22.5,2.8,5.4.2,10,5.4,14.4l2.1.2c1.3-5.1-.2-9.1,1.7-11.4,2.6,2.5,12.1,28.9,12.2,34.3,0,1.6,0,8.6-.1,10.7-2.5,2.2-1.1,1.7-4.2,1.9-2.5-1.6-8.6-13.6-10.1-16.8-2.7-.9-3.2-1-5.3-2.9-.2-6.2.9-8.5-2.1-12.8-4.8,5.8-1,7.8-4.3,10.4-4.1-2.1-2.8-4.1-5.4-6,1.7-7,5.2-15.9,6.6-22.5,1-4.7,1-16,1.5-21.8Z"/>
  <path fill="#9dc828" d="M480,376.6c2.8,6.9,3.9,10.1,5.8,17.3,6,22.8,3.7,25.5,3,47.9-1.7,9.6-2.4,13.8-.9,23.7-9.1-5.7-.7-10.5-13.4-12.5-2.4-2.1-1.7-.8-1.9-4.3l1.4-1.4c4-.2,3.4-.3,7,2,1-14.9,1.5-35.6-1.4-50.2-1-5.2-4.4-12.3-5.8-17.6l-.4-1.5c3.5-.1,3.2-.8,6.7-3.5Z"/>
  <path fill="#9dc828" d="M446.9,347.4c-2-1.5-12.9-8.7-15.1-9-2.5-.3-6.9,2.3-10.7-.4-.7-5.4-1.8-7.8-2.4-12,2.6-1.7,3.4-1.1,7.2-1.1,12.9,6.4,33.6,17.7,42,29.9.3,3.4.8,5.1-.6,8.2-3.6,1-4.9-1-7.8-3.2-.4-.5-.8-1-1.2-1.5l-1.1-1.5c-2.8-4-3-4.3-7.4-6.5l-2.9-2.8Z"/>
  <path fill="#9dc828" d="M152.5,814.9l.5-1.1c2.2,3.2.5,3.4,4,6.2h1.5c2.1-2.9,2-7.5,2.6-11.5.9.7,2.4,5.5,3.1,7.1,4.1-4.4-3.6-20.3,1.7-30l1.5-.9c3.2,3,9.5,33.1,9.2,37.4h-1.4c-.9-1.3-1.7-2.4-2.5-3.7-8.3-1.2-30.3,9.8-45.4,6.8,4.1-1.8,19.9-4.5,24.7-5.1l.7-1-.3-4.4Z"/>
  <path fill="#9dc828" d="M439.4,356.8c3.8,2.6,8.3,5.5,11.6,8.6v1.3c-2.1-.8-4.1-2-5.9-1.7,4.9,5.5,9.4,22.6,9,30.3-.2,3.4,1.3,6.1.6,9.1l-1.3.6c-4.5-5.1.3-11.7-4.9-16.6-3.2-2.9-14.2-23.8-14.5-26.5,1.2-1.4,1.7-2.8,2.6-4.5l2.8-.7Z"/>
  <path fill="#9cd10a" d="M103.8,378.7c.3,6.5,0,17.2,1.8,22.8,1.6,5.3,8.9,19.3,8.3,24.4-4.2,3.3-5.5-.4-9.9-.8-3.3-2.6-1.1-14.7-2.2-22.5-.2-6.4.7-17.6,2.1-24Z"/>
  <path fill="#9fc244" d="M434.9,609.8c-4.9-3.2-6.6-12.3-3.5-16.9,4.9,1.4,10,12.7,13.3,17.1,2.3,3.1,1.1,6,1.4,9.1-4-3.9-6.3-6.5-11.2-9.2Z"/>
  <path fill="#9dc828" d="M568.3,611.5l-1.9-3.2c-.4-7.1,7.2-15,14-16l7.4-1c-4.5,6.7-13,15.3-19.5,20.2Z"/>
  <path fill="#9cd10a" d="M434,361.9c-2.8-1.8-14.1-12.4-15-15.2,4.9-3.5,16.8,3.7,19.7,7.6l3.2-.3v.2c-.1,0-2.4,1.6-2.4,1.6v.7s-2.9.7-2.9.7c-.9,1.7-1.4,3.1-2.6,4.5Z"/>
  <path fill="#9fc244" d="M470.3,358.5c3.9,5.9,7.2,11.5,9.7,18.1-3.5,2.7-3.2,3.4-6.7,3.5-5.3-11.4-3.5-9.6-3.1-21.7Z"/>
  <path fill="#e8f6a2" d="M152.8,819.3c-3.5.3-2.1.8-4.7-.7-2.4-4.4-4.7-17.3-4.1-21.9h1c3.5,5.6,3.9,13.7,7.5,18.3l.3,4.4Z"/>
  <path fill="#9fc244" d="M449.8,350.2c4.4,2.3,4.6,2.6,7.4,6.5l1.1,1.5c.4.5.8,1,1.2,1.5-4.8.7-4,.9-7.8-2-2.1-3.5-2.3-3.6-1.9-7.5Z"/>
  <path fill="#caec4c" d="M446.9,347.4l2.9,2.8c-.4,3.9-.2,4,1.9,7.5-2.8-1.5-6.8-2.4-9.9-3.4v-.2c.1,0,1.3-.3,1.3-.3,2.3-2.3,2.8-3.3,3.8-6.4Z"/>
  <path fill="#f4f40d" d="M147.1,618c1.7,2.7,6.6,8.4,4.1,10.9l-2.1-2-.9.6,2.8,3.4c.4,2.2.4,2-.5,4.1-2.1.4-1.4-.1-2.4,1.1,2.6,5,4.4,8.9,5.1,14.5l-1.5,1.5c-.6,2,3.1,14.8,4.1,16,4.7,6.6,6.5,45.2,7.9,47.4l-.4,1.4-4.4,1.5c-1.1,5.1-3.4,15.2-7.2,18.5l-.8-.5c-2.6-10.8-4.2-24-4.9-35.1-1.4-24-14.2-46.5-22.6-68.6-4-10.5-9.8-13.1-7.6-26.2,0,.2-2.7-9.6-2.9-10.6l.9-.9c1.2,2.1.7,1.7,2.4,3.2l1.3-3.2c1.4.6,4.1,4.9,5.4,6.7,3.5-1.7-1.7,0,.4-5.1,1.2,2.4,1.3,2.4,2.9,4.6l1.6-1.5c4,1.6,3.9,6.9,8.9,10.2,0-1.5,0-2.7.2-4.2l2,.6c2.1,3.1,6,9.1,8.4,11.6Z"/>
  <path fill="#caec4c" d="M141.9,658.8c6.9,11.9,13.3,53,12.4,67.3-1.7-2.7-3.3-16.9-3.7-21-1.5-15-7.6-31.9-8.7-46.3Z"/>
  <path fill="#f8fcd8" d="M303.8,585.1c2.3-.2,1.6-.2,3.9.2,5.9,7.6-4.7,26.6-5,34.6-1.9,24.5,4.6,50,6.7,73.9,1.4,15.8,4.3,35.7,5.2,51-5,9.7-26.6,4.3-28.5.2,4.1-1.8,6.6-.1,10.3-1.6-3.3-.2-7.4.3-9.3-2.3,3.6-4.8,7.1-3.1,10.8-5.4l-3.2-1.1-2.4-6.2c1.9.7,2.3.8,4.3,1.2-.9-3-1.8-5.1-1-8.1,1.7,1.1,2.6,2.1,4,3.6l.8-.5c-1.8-2.8-2.4-3.6-3.6-6.8,1.7-6.4,5.2-17.8,1.5-23.8-6.1-9.7-7.6-17.3-17.6-23.7,6.4-.7,11.9-.7,16.1-5.8.2-1.5.1-2.2-.7-3.5-6.1-8.7-4-17.9-5.7-27.7-.4-2.5-1.5-3.5-3.4-4.8l.4-2.3,1.4-.5,2.9,2.1,1.6-.3c1.7-2.7,1.2-3.9,1.4-7.2.6-10,6.5-14.3,2.8-25.4-.9-2.7,4.5-7.9,6.6-9.9Z"/>
  <path fill="#f4f40d" d="M169,482.1c5,.7.2,1.4,6.6,2.8l1.8-2.5.8,1.5c-2.6,5.9-3.5,5.7-3.4,12.4.8-4.4,2.9-8.3,7.7-8.6l1.3,1.5c1.1,11.8-6.2,36.3-8,49.5-.4,2.8-6.5,42.9-5.5,41.1l-3.2-1.6c-4.7.4-4,4-7.6,4.7l-1.2-1.3c-1.6-9.5.6-17.3,1-26.2v-1.9c1.1-2.5,1.4-7.3,1.6-10l-.8-.4c-3.1,6.3-5.3,40.6-6.3,41.6-5.1-5.3-.9-32.5-1.6-39.9-.2-1.6-7.4-8.1-5.1-14.3,1-2.8-1.1-4.8,3.1-7.8,4.8-3.5,4.6-13.4,6.8-18.6,2.8-7.9,7.3-14.9,11.9-22Z"/>
  <path fill="#caec4c" d="M167.7,539c1.7,1.6-1.1,31.4-2.3,33.1h-.9c0,.1-.8-.7-.8-.7,0-10.8,2.1-21.8,3.9-32.4Z"/>
  <path fill="#f4f40d" d="M458.6,521.3c-1.5-7.6-16-17.8-12.1-25.1,2.3-4.3,13.8-19.3,17.6-21,16.8,3.3,24.2,29.2,25.1,44.1,0,1.5-2.4,4.5-3.5,5.6-.4,4.6.4,4.4-2.1,6.9h-3.2c.2,7.4,7.7,19.6,6.3,25.8l-1.5.4c-7.5-5.3-10.2-10.1-15.3-17.3-.5.9-.5,3.4-.5,4.6l-1.5,1.3-20.2-17.8v-1.7c1.9-3,.6-1.9,4.2-3l-.6-2.8c1-.3.4-.2,2,0l1.4.2,1.7-1.6,2.3,1.6Z"/>
  <path fill="#f4f40d" d="M203.1,462.3c6.6,1.9.6,20.1,4.8,24.3,2.4,0,1.2-.1,3.5.7,5.1,15.6-4.9,35.9-8.6,50.9-2.2,8.8-7.6,35.7-15.6,39.6l-1.7-.9-.5-1.6,2-.8c3.1-8.4,3.2-17.1,6.3-25.1.5-3,.6-5.3.7-8.4-1.9,2.9-6.3,22.1-9.3,28.1-6.2-4.4-3.2-8.5-5.6-12.8l-1.5.3c-.6-4,3.1-19.9,3.7-24.9,2.4-19.2,3.9-38.4,11.8-56.4,3-6.9,5.1-7.1,9.8-13Z"/>
  <path fill="#f8fcd8" d="M159,354.4l4.3,5.9-.5,1.5c-.7,2-.4,1.2-1.3,3,3.4-2.4,4.3-1.8,4.5-6.1h1c0,0,.7,2.4.7,2.4l2.7-.6c.2,3.1-4.1,13.2-5.5,16.6-8.1,19.4-9.3,40.5-10,61.2.2,4.5,1,20.2-.3,23.3-8.1-9.1-1.4-8.4-5.2-14,0,4.3.6,7.7-1.5,11.2l-2-1.8c-.3-9.8-6.4-21.7-5.9-29.5-3-10.3-7.6-27.8,1.8-35.8,2.8-.9,4.5-1.4,7.1-2.9l-2.1-2.1c-.5-4.2-.4-4,1.6-7.8l-.6,4.3c2.7-8.8,7.5-20.4,11.2-28.7Z"/>
  <path fill="#fafdea" d="M148.9,388.7l2.1-1.4c5.3,6.1-1.1,18.2-.3,24.6,1.2,8.9,2.8,15.2,2.6,24.4-2.8,7.4-7.4,6.5-6.2,16.3l.7,6-2-1.8c-.3-9.8-6.4-21.7-5.9-29.5-3-10.3-7.6-27.8,1.8-35.8,2.8-.9,4.5-1.4,7.1-2.9Z"/>
  <path fill="#f8fcd8" d="M344.3,622.5c1.7-.2.8-.3,2.5.7.2,1.9.3,2.9.3,4.9v1.6s1,.5,1,.5c.6-3.8,0-4.6,2.2-6.7,1.1.3,2.9.5,3.6,1.4,4.1,6,15,24.3,10,30.5-.8-1.7-1.1-3.4-2.4-4l-.6,4.9-1.6,1.3v.4c.1,0-1.4-1.8-1.4-1.8-3,1.5-2.3,6.2-6.2,8.2-3.9-2.1,1.2-1-1.9-7.6-1.7.7-2.6,6.3-5.1,10.2h-1.6c0,.1-2.2-2.4-2.2-2.4-.4-2.4-.6-3.3-1.4-5.5l-.7-1.8c-.5,3.5-.2,4.8-2,7.5l-3.9-.3,1-2.2c-.5-3.2.1-1.9-2-4.3-.9,1.5-1.7,2.9-2.4,4.5l-1.5-1.2c-.6-2.9-.8-5.6-2.8-7.7-1.4,2.6-1.7,3.1-3.5,5.4l-1.2-.2c-4.2-6.2-6.8-27.9,2.9-31l1.7,5.1,1,.4c.3-3.5.4-4,1.3-7.4l1.5-.6c2.3,2.1,2.2,1.9,3.5,4.7l-1-1.1c.5-3.5-.1-1.9,2.5-4.7l1.5.2,1.6,4.4,1.3-1.1c.6-2.2.4-1.9,1.4-3.9l4.7-1.4Z"/>
  <path fill="url(#fixed_id_1)" d="M237.9,672.7c-1.2-7.2-7.3-1.8-4.2-13l1.7-1.2,2.3.4c-2-2.8-3.1-3.2-2.7-5.7,9.1-.9,6.9,6.7,13.4,8.3,6.5,1.6,28.2,14.5,26.5,21.1-2.5.3-1.3.3-3.7-.9,2.4,3.4,3.3,5.7.9,9.2l-2.3-.4c1.3,4.7,2.7,7.2-.8,10.9-6.4,1.3-7.7,3.4-13,4.1-2.4-2.2-7-8.1-8.9-10.9-4.3-6.1-18.4-18.1-16.1-25.4,3.1-.2,3.7,1.2,7,3.4Z"/>
  <path fill="#ecf7b7" d="M237.9,672.7c-1.2-7.2-7.3-1.8-4.2-13l1.7-1.2,2.3.4c-2-2.8-3.1-3.2-2.7-5.7,9.1-.9,6.9,6.7,13.4,8.3,6.5,1.6,28.2,14.5,26.5,21.1-2.5.3-1.3.3-3.7-.9-6.7-1.9-13.1-16.6-23.5-14.7-3,2.4-5.8,7.5-7.8,8.2l-2.1-2.5Z"/>
  <path fill="url(#fixed_id_1_2)" d="M317.6,447.4c-7.6-6.4-35-23.2-38-28.1,7.9-9.2,33.4,5.2,42.3,7.3,4.9,1.2,11.5-9.6,16.4,3.5,2.5,1.6,3.3,1.6,6.2,2.3l1.9-2.1,1.1,2c-1.3,2.2-.5,1.3-2.6,2.7,2.2,1.4,2.9,1.4,4.1,3.3-2.7.7-5.3-1-8-2.6l-1.5-.9c-.5,1.8-.1,1.3.9,3.9l-1.1.5,1.1.5v-.7c-2.2-.2-8.4-3.6-10.4-4.9,6,4.8,17.1,12.8,20.3,19.2v2.8s-1.3.9-1.3.9l-2.9-.6-1.2-.2c2.2,1.6,2.2,1.7,4,3.8l-1.5.6c-7.7-1.4-20.7-9.4-28.3-12.7l-1.5-.6Z"/>
  <path fill="url(#fixed_id_1_3)" d="M317.6,447.4c6.7-.7,6.3.8,11.2,1.3l5-.5c3.6,1.9,9.7,5.1,12.2,8.2l-1.2-.2c2.2,1.6,2.2,1.7,4,3.8l-1.5.6c-7.7-1.4-20.7-9.4-28.3-12.7l-1.5-.6Z"/>
  <path fill="#d6ddb6" d="M328.8,448.7c-2.2-1.7-2.8-1.6-3.5-3.8,4.3.8,4.6,1.1,8.4,3.3l-5,.5Z"/>
  <path fill="#f8fcd8" d="M358.9,565.6c3.3,2.3,2.8,3.8,4.5,8.5,1.5-3.1,2.4-7.8,3.2-11.2,1.1,7.4,1.3,11.5,1.5,19.1.9-3.3,1.9-9.6,4.1-11.8l1.4.3,2.7,4.6c-.1,6.6,1.5,16.3-6.2,18l-2.7-1.8c-2,4.2-2.1,5.9-5.6,8.1l-1.1-.6c.4-3.3,1-4.1-.1-6.9-1.3,3.5-2.2,5.8-3.8,9.2-2.6,0-5.1-.2-7.7,0l-1.1-4h-.6s-1.9,5.3-1.9,5.3c-3.1.2-5.9,0-9,0,.2-3.1.6-3-.5-5.6-3.2,1-.2,1.5-3.9,5.5l-1.4-.8c-.2-2.4-.2-2.9-.8-5.2-5.2-.6.4,1-3.5,3.8-2.7-3.6-2.3-17.2-.2-18.4,6.1-3.5,11-6.4,16.6-10.8l1.4.6c-1.1,5.1-1.8,8-2.3,13.3,1.9-4.4,4.9-13.7,10.2-14.2l2.8,2.6,1.2-.5,2.7-7Z"/>
  <path fill="#9dc828" d="M138.7,606.4c-3.1-5.5-19.4-30.2-22.9-33.2-.5,3.3-.6,5.6-2.2,8.6-3.5-3.1-2.9-22.4-3.9-27.8-.9-4.8-1.4-18.2,6.5-17.3,2.9,7.8,1.4,15.3,6.1,24,0-2.9-.5-4.9,1.1-6.4,3.5,5.7,2.4,10.5,7.7,16.8l2-.2c1.2,2.7,2.9,8.1,4.9,9.2l.7-1.2c1.9-2.7,1.8-6.4,2.2-9.8l1.5-1.2c3.5,11.1,3.6,19.4,4.9,30.8.6,4.9,4.9,10,5.5,14.9-2.3-.5-2.6-.7-4.9-.6-1.2,2.4-1,2.4-.7,5.1-2.4-2.5-6.3-8.5-8.4-11.6Z"/>
  <path fill="#f8fcd8" d="M358.4,724.3c0,3.2.4,6-.5,9.1l-1.8-2.1-1.6-.2-.4-2.3c.5,4.5,0,9.2-5.9,8.6-2.3-2.3-2.2-3.4-2.9-6.4-.9,1.1-1.5,1.7-2.4,2.8-6.6-6.2-3-9.2-6.6-16.3-1.5,4.5-.9,9.2-3.5,12.4-5.1-1.2-3.9-9.1-7.4-13.3l-2.2,2-.8-.8c.4-6.1,1.1-16,6.6-19.4l2.7,1c-.4-2.9-.5-4.4-.7-7.4,1.5-2,.5-1.5,3-1.9l1.5,3.5,1.9.4c3.2-2.3,4.1-4.3,7.9-4.1,2.1,2.4,2.3,6.6,3,10.2,2.3-2.7,0-6.3,2.2-9.3,2.5,2,3.7,5.5,4.6,8.5l2.2,8.1c-.5,5.9-1.2,11.5,1.1,17Z"/>
  <path fill="url(#fixed_id_1_4)" d="M188.6,610.7c18.7,10.2,14.9,89.7,6.8,103.8h-1.1s-1-3.1-1-3.1c-.4,1.6-1,2.5-1.7,4-2.6-4.3-1.1-26.8-.4-32.7,2.8-23.4-12.7-50.6-2.6-72Z"/>
  <path fill="#f4f40d" d="M554.3,554c2.7.3,3.5,0,5.7,1.6-.9,6.5-9.8,8.4-13.2,13.9-.3,1.4.3,4.7-.7,5.7-11.9,12-29.7,36.7-46.5,40.4-.6,0-2.5-.4-3.2-.5l-.5-1.1c5.8-15.9,17.4-33,31.7-42.4,4.1-2.7,10.6-5.5,13.7-7.7,5.7-4.1,6.3-6.1,13-9.9Z"/>
  <path fill="#9dc828" d="M422.9,494.2c19.6-1.9,17.6-11.8,30-21.4l-1.2.7h1c-1.8,4-2.2,5.5-2.8,9.8-2.3,3.1-7.5,6.2-7.9,8.9-.5,3.3.8,3.7-1.5,7.2l-2.2.8-2.2-1.5c-1.4,4.2,4.5,18.3,1.4,27-.8,3.1-1.2,4.4-1.6,7.7-2.6-3.9-3.1-21.8-5.7-26.6-3-.6-6.9.9-10.1,1.8-5.1-.9-18.2-8.9-21.9-13l.6-2.6c2.9-3.2,4-2.9,7-5.4l-1.8-2.8.5-2c4.6-1.8,14.6-3.3,19-1-3.5,1.5-7,3.1-10.5,4.8,8.4-.3,9.9,0,17.8-2.7v1.7s-1.5,1.4-1.5,1.4h3.2c0,.1-.1,1.2-.1,1.2-2.5,1.7-8.3,4.9-9.7,6.1Z"/>
  <path fill="#fafdea" d="M387.7,393.1v.3c0,0,2.2,1.8,2.2,1.8-.7,3.7-1.5,5.9-5,7.7-11.2-3.6-16.5-41.1-18.9-51.8-.2-1,1.2-1.5,2.1-2.1,3.5.8,1.9,0,4.8,2.9,3.2,13.7,21,16.6,21,26,3.1.4,25,4.2,26.6,5.3-3.5,3-15.3,3.9-20.1,5-4.5,1-9,5.5-12.8,5Z"/>
  <path fill="#ecf7b7" d="M394,377.7c3.1.4,25,4.2,26.6,5.3-3.5,3-15.3,3.9-20.1,5-4.5,1-9,5.5-12.8,5,3-2.6,7.8-8.7,8.1-12.6l-3-1.7,1.2-1.1Z"/>
  <path fill="#9dc828" d="M139.9,547.8c0-5.2.5-28.5-.7-32.5-2.7-8.9-9.3-14-10.3-26.4l2.8-1.3c1,.6,2.7,3.8,3.7,5.4l.5-.9c2.9,3.8,6.7,9.9,11.1,11.3,6.8-2.5,5.8-14,13.7-16.5l1.6.9c-7.5,11.8-8,20.7-13.3,31.7-4.1,8.6-1.6,44.6-3.4,45.7-.7-4.5-1.4-9-1.7-13.6-.6,5,0,14.7-1.4,16.2l-1.5,1.2c-.3,3.4-.3,7.1-2.2,9.8l-.7,1.2c-2-1.1-3.7-6.5-4.9-9.2-.5-4.1-3.7-10.5-2-13.5l3.9.3c3.1-2.9,2.2-5.1,4.9-10Z"/>
  <path fill="#caec4c" d="M133.1,571c-.5-4.1-3.7-10.5-2-13.5l3.9.3c3.1-2.9,2.2-5.1,4.9-10-.3,5.9-1.6,26.2-1.2,31.1l-.7,1.2c-2-1.1-3.7-6.5-4.9-9.2Z"/>
  <path fill="#fafdea" d="M223.2,353.3h1.4c3,1.8,3,1.6,4.7,4.5,1.9,13.2-10.8,18.5-12.7,25.3-4.1,14.8-.8,9.9-10.4,23.6l-5.6-3.5,1.2-1-4.3-2.8-.3-2.8-3.1,2.4-1.4-.4c-6-12.9,6.6-18.3,13.8-27.5,4.8-6.2,9.6-15.4,16.6-17.9Z"/>
  <path fill="#9cd10a" d="M366.6,477.8c2.8,6.4-3.9,2.8-1.6,15l.2,1.3c-2.4,2.2-33.6,15.2-35.5,14.3-13.2-6.7-24.9-.4-37.1-4.2-1.5-.8-1.3-.8-2.5-1.9,11.5-2.9,16.6-6.2,29.9-7.6,13.1-1.4,32.4-1.8,39.3-14.6,2.2-1.6,4.5-1.7,7.3-2.2Z"/>
  <path fill="#f4f40d" d="M130.6,696.1c-2.5-3.8-6.9-16.6-9.2-21.8l-.9,3.2c-3.8-.7-6.1-5.9-4.8-9.5l2.8,2.2c-4.9-8.3-9.7-17.7-14.3-26.3l.5-.9,4.1,1.5c-1.7-2.9-6.2-19.4-4.2-22.3,9.4-.7,28.5,51.4,29.7,61,0,2.7-.1,5.2-.1,7.9-1,2.2-2.1,3.3-3.7,5.1Z"/>
  <path fill="#f8fcd8" d="M230.7,598.7c8.3,2.1,24.7,18.3,30.4,25.9h-.3c.2.9,2.5,4.5,3.1,5.5l-.6,1.1-5.4.3v1.4c0,0-3.7.4-3.7.4l-.2.8c2.2,1.9,3.5,2.6,4.2,5.4l-.8,1.2c-5-1.6-5.7-1.8-9.4-5.5l-.7-.2c1,3,6.8,8.8,9.2,11.4-8.1-5.6-25-15.6-27.1-25.6l1-1.2c1.9.9,2,1.3,3.9,1.3-2.6-3.5-6-6.6-6.3-10.5l.6-.3,3.1,1.3.3-.8c-1.7-2.5-3.1-4.8-4.7-7.4.9-3.6,0-1.9,3.5-4.6Z"/>
  <path fill="#f4f40d" d="M125.6,496.3c3.9,2.2,5.5,20.8,8.6,27.5,3,1.6,3.6,1.5,5.1,4.5.4,10.3,0,19.7-4.6,28.9-17.1-3-17.6-49.2-9-60.8Z"/>
  <path fill="#f8fcd8" d="M238.5,573.6c1.6-.1,7.3-.6,8.7-.2,11.8,3.6,30.7,10.2,38,20.2-.8,1.2-1.3,1.2-2.5,1.9l2.5,2.3v1.4c-2.8,1.5-2,1-6,0l.8,1.7v1.3c-2.8-1-5.4-2-8.2-3.1,1.3,2.1,1.3,1.1.9,3-11,1.1-32.9-17.5-34.2-28.7Z"/>
  <path fill="#f8fcd8" d="M265.6,547.4c6.4,1.2,27.5,1.2,30.8,6.5-2.1.9-2.2.8-3.6,2.5,1.7,3.3,2.4,2.2,4.7,4.6-.3,3.3.2,2.5-1.3,5-2.6-.2-5.2-.3-7.8-.4-6.1,4.8-39.6.5-36.4-11.7,3.4-3.9,8.6-5.6,13.5-6.6Z"/>
  <path fill="#f8fcd8" d="M541.3,605.8v2c-1.4,1.4-2.4,2.4-3.7,3.9h.8c2.7-1.8,3.6-2.9,7-3.2l1.3,1.3c.5,12.8-22.7,19.8-33,21.1-4.6.6-8.6.3-12.5-2.6l-.3-2c5.2-9.3,30.3-20.5,40.5-20.5Z"/>
  <path fill="#ecf7b7" d="M259.6,446.4c8.1,6.3,21.9,18.9,28.8,23.5l1.2-.7c-4.8-4.3-9.7-8.9-14.5-13.3h.9c4.5,1.7,6,2.2,9.4,5.7l6.9,7.3c2.8-1,1.7-.9,4.5-.9,0,3.1.3,1.6-1.6,4.5l.7,2.9c-1,6.8,6.5,8.7,9.2,13.9l-.9,1.2c-8.5,0-17.5-10.7-23.1-14.2l-4,1.1c-4.5-3.4-12.2-10.7-15.3-16.1-.3-.5,2.5-7.1,1.1-8.4-2.1-2-2.4-3.6-3.2-6.3Z"/>
  <path fill="#9dc828" d="M219.1,453.3c1.7,4.6,15.5,20.3,20.4,21,7.8,1.1,20.1.1,21.1,10.6l-1.6,1.5.3,1.6-2,.2c-15.9,3.7-26-12.7-35.9-7.9l.2,2.1-1.1.5c-3.1-5.2-1.7-18.9-3.2-25.5-.5-2,.1-1.8,1.8-4.2Z"/>
  <path fill="#ecf7b7" d="M269.2,374.8c-4.2,2.5-17.2,11-20.6,10.9-1.3-4.9,4.4-10.4,7.6-13.4,10.6-9.7,23.8-25.9,41.2-19.3v1.4c0,0-1.9,2-1.9,2-3.9,3.1-11.7,7-16.4,8.9,3.1,1.4,2.1.3,3.5,3.2-2.5,3-9.5,4.8-13.4,6.3Z"/>
  <path fill="#f8fcd8" d="M274.8,366.5c-.9-1.9,1.7-1.7,4-4.3-2.1-.2-1.4-.2-3.2-.2h-1.1c2.5-5.9,15.5-10.3,21.1-5.5-3.9,3.1-11.7,7-16.4,8.9l-4.4,1.1Z"/>
  <path fill="#ecf7b7" d="M274.8,366.5l4.4-1.1c3.1,1.4,2.1.3,3.5,3.2-2.5,3-9.5,4.8-13.4,6.3-1.7-2.7-1.4-1.3-.7-4.4,2.8-1.3,4-1.7,6.3-3.9Z"/>
  <path fill="#ecf7b7" d="M432.2,422.6c4.5-2.1,10.1-4.9,13.7.6,3.8,5.9-2.8,14.7-6.2,19.5l-4.9,1.7c-2.1,4.3-2.9,4.7-6.7,7.6l-1.3-.4c-3.8-1.4-2.3-.3-4.8-3.2,1-2.3,1-1.2.7-3.5l-1.7.4c-1.9,2.2-3.7,3.5-6.4,3.8l-.7-1.3c.6-4.6,2.8-7.2,6.3-10.4,5.1-2.6,7.6-4.5,12.1-7.9l-.6-.3-5.2-2.8c2.3-2.1,2.8-2.7,5.7-3.9Z"/>
  <path fill="#e8f6a2" d="M420.9,445.3c-1.9,2.2-3.7,3.5-6.4,3.8l-.7-1.3c.6-4.6,2.8-7.2,6.3-10.4-.3,3.1-1.5,5.7.8,7.9Z"/>
  <path fill="#d6ddb6" d="M427.2,439c1.2,1.1.7.4.9,2.5l-3.5,3.8-.7-.7c0-2.7,1-2.9,3.3-5.6Z"/>
  <path fill="#e8f6a2" d="M407.7,677.2c1.1-7.3,4.9-18.8,8.6-25.1l1.5-.6c2.6,4.1,1.7,12.6,1.7,17.4,0,.5,3.3,5.4,3.8,6.2l-.5.8c-.6,1-1,1.9-1.5,3l1.1.3,2.8-2.4c.8,2.2-2.8,12.2-3.4,16.2l1.9-3.3c-.5,3.6-1.8,8.5-5.1,10.5-.8,2.9-1.4,6-3.7,7.5-2.7-4.6.3-7.7-3.5-12.4-.3-6.9-1.3-11.6-3.7-18.1Z"/>
  <path fill="#e8f6a2" d="M118.6,725.1c1.1,1,1.4,1.2,1.8,2.9,1.5,7,6,10.9,7.5,18.9,1.3,7.1,1.8,14.2,2.8,21.3,2.1,13.6,4.5,27.2,7.3,40.7.7,3.5,1.8,7.4,1.5,10.9l-1-1.1c-1.5-1.5-.6-1.1-2.6-1.5l-1.2,3.6-.9-.5c-5.1-13.1-3.7-27.4-5.1-41.4-1.4-13.4-14.8-42.5-10.1-53.8Z"/>
  <path fill="#f4f40d" d="M536.1,536.9l1.6,1c0,8.9-37.2,52.3-45.1,57.8,0-.4.2-.7.2-1.1.6-7.2,7.2-13.4,11.3-18.8l-1.2-3.8c1.6-4.5,13.6-19,16.5-21.9,5.1-5,13.5-7.1,16.6-13.3Z"/>
  <path fill="#ecf7b7" d="M405,533.7l-1.6,4.5-1.1.3c-1.4-3.4-3.1-10.1-4.7-11.6l-.9,2.6c-2.2-1-6.4-2.5-6.8-5-1.2-7.2,0-13.4,6.6-16.9,4,3.1,3.9,9.2,5.9,15.8,1.2-1.6,1-4.5,1.2-7.1,2.9,1,1.8,1.7,4.7,3.1,5.3,2.5,7.9,10.3,6.2,15.5-.8.6-2.3,1.9-3.1,2.4.5,4.7.7,7.7-3.8,10-2.1-2.3-2.2-9.7-2.5-13.5Z"/>
  <path fill="#e8f6a2" d="M405,533.7l.8-.5c2.7,4,.9,2.7,5.5,4,.5,4.7.7,7.7-3.8,10-2.1-2.3-2.2-9.7-2.5-13.5Z"/>
  <path fill="#f8fcd8" d="M267.3,434.9c6.5-.5,31.4,16.1,36.6,20.2.3,2.9-1.5,5.1-3.1,7.8-4,1.7-4.2,2.6-7.6,1.9-3.6-3.2-23.4-18.9-24.6-21.4.2-4,.2-4.8-1.3-8.5Z"/>
  <path fill="#9fc244" d="M256.2,322.7c2.5-2.8,2.6-2.6,6.2-3.6l3.5-7.8h0c4.2,3.6.8,7.1,5.5,8.9,4.1-1,4.9-1.4,8.7-3.3l1,.8c-1.7,1.7-1.9,1.7-3.9,2.9,4.1,2.4,7.7,3.4,12.4,2.6,6.4-4.6-.7-15.3-4-20.4.3-3,0-3.4,1.9-5.5,8.4-1.4,11.1,28.6,9.7,31.4-8.1,2.6-24-1.8-32-4.1l-8.9-2Z"/>
  <path fill="#ecf7b7" d="M165.2,423.4c6.3,5.8.7,26.3,6.2,33.7,5.2,7-.4,10.1-6.3,14.2-16.4-6-.1-37.7,0-47.9Z"/>
  <path fill="#e8f6a2" d="M202.5,352c6-8.4,16.1-16.6,27.1-15.1l.2,1.2c-2.7,2.6-10.2,7.3-14.2,11.1-2.4,2.3-9.8,9.4-11.5,10.6-2.6,3.6-4,6.4-5.9,10.4h-2.2s-1.3,2.2-1.3,2.2c-2.7.4-2.2.5-4.6,2l-.7.5-3.7-1.1c5.2-11,7.8-14.2,16.9-21.8Z"/>
  <path fill="#9dc828" d="M209.2,619.6c-2.9-3.8-3.6-23.9,1-26.2,9,8.4,5.8,17.3,9.3,23.9,1.6,4,1.8,2.8.7,6.1-5,3.6-5.2,4.9-5.3,11-1.5.8-.7.5-2.4.9l-.2,4.3-1.2.5c-3-8.2-3-11.7-2.1-20.5Z"/>
  <path fill="#9cd10a" d="M209.2,619.6c1.9-1.4,2-2.5,2.8-4.7l.3-.8h1c1.7,2.8,3.2,5.4,4.7,8.3l1-.4.6-4.6c1.6,4,1.8,2.8.7,6.1-5,3.6-5.2,4.9-5.3,11-1.5.8-.7.5-2.4.9l-.2,4.3-1.2.5c-3-8.2-3-11.7-2.1-20.5Z"/>
  <path fill="#f4f40d" d="M448.4,567.4c2.8,4.7,8.8,20.6,6.9,25.3-8.9-2.2-16.7-13-18.7-21.7-1.2-5,0-7.2,2.8-11.2l.8-1.2c.6-.8,1.1-1.7,1.7-2.5,2.3,1.3,2.5,2.2,3.8,4.5l2.7,6.8Z"/>
  <path fill="#e8f6a2" d="M321.6,370.5c5.4-.9,20.6-1.7,24.4,1.7-5.7,3.3-9.4-.8-15.2,1.8-7.8,3.6-17.5,5.1-26.1,6.8l-5.1.9c-4.9-2.8-7.4-2.5-12.9-2.5h-1.9s-1-1.2-1-1.2l-1.1.4,1.8.8-2.2-.3v-.3s.6.2.6.2l.8-1c12.4-4,25-5.4,37.9-7Z"/>
  <path fill="#e8f6a2" d="M104.5,489.5l2.1,1.8c.2,2.6-6.6,40.7-7.7,43.9l-1.9.5-3.3-1.9c-1.9-6-5.4-20.2-.7-25.1h4.2c2.3-7.2,5-11.3,7-18.1l.3-1.2Z"/>
  <path fill="#fafdea" d="M351.1,515.9c5.5,3.2,6.1-.2,9.2,6.2,0,8.6-10.4,13.9-18.1,14.3-2.8.4-2.7,0-5.4-1.8-4.1-9,8.8-15.3,14.3-18.7Z"/>
  <path fill="#f8fcd8" d="M244.6,261.6l2.2.2,1.3,1.7c.5,7.2-2.7,22.1-11.3,22.6-2.6-2.4-1.6-.9-2.4-5.1-1.4,1.8-1.3,1.6-3.3,2.5l-1.1-1.1c-.8-10.2,3.6-19.7,14.6-20.8Z"/>
  <path fill="#9dc828" d="M165.6,652.2l.2,1.6,2.3-2.7,1.1.4c.6,3.8-1,38.8-2.1,42.2l-1.7-.9c-1.1-16.8-6.7-25.8-10.6-41.7-.6-2.5-.5-2.2.5-3.6l1.4,2.2h1.2c0-.1,3.7,3.9,3.7,3.9,2.9,0,1.5.3,4.1-1.4Z"/>
  <path fill="#ecf7b7" d="M377.2,679.1c4.4-4.3,7-3.3,13.7-3.4-1.6,7.5-10.7,10.1-8.5,25.9.5,3.8-2.5,15.7-3.3,20.4l-1.1-.5c-.7-5.8,0-10.3-.3-15.8-.7-10.7-9.8-17.9-.4-26.6Z"/>
  <path fill="#e8f6a2" d="M380.3,536.9l3.3.7c8.9,10.5,14.2,9.4,23.7,17.5l-1,1.7c-2.9,1-5.3.1-8.4-.5-7.7-1.1-6.2-1.9-12.2,2.7-.3-.2-9-12.8-9.4-13.9.4-3.5,2.1-5.3,4.1-8.2Z"/>
  <path fill="#f4f40d" d="M175.7,656.8c.9.2,1.9.6,2.7.9,3.6,7.3,3.1,19.2,2.7,27.3-.3,6.1-.6,6.3-4.7,10.3-7.4-12.4-7.2-26-.7-38.5Z"/>
  <path fill="#9dc828" d="M435.9,533.5c.3-3.2.7-4.6,1.6-7.7,2.3,1.8,2.9,2.3,4.4,5,4.2,7.7,20.5,19.8,18.7,29.1l-1.6,1c-3.6-1.2-16.1-15.5-19.6-19.3l-.2.5c-3.1-3.2-4-3.6-3.2-8.6Z"/>
  <path fill="#ecf7b7" d="M297,515.8c3.8-.3,5-.7,7.6,1.9-.3,3.3-.7,2.8-3.3,6,.1,2,.3,1.3,2.1,3.4-.7.8-14.3,5.1-17.1,6.2-3.1,1.8-7.4.7-9.7-2l.5-2.2c4.8-5.2,13.6-9.6,19.9-13.3Z"/>
  <path fill="#e8f6a2" d="M409.7,725.9c1.4,2.8.4,1.8,3,3.3,3.4-2,3.5-7.6,4.9-11.4l1.6.8.2,4.1c1.4-1.4,2.4-2.4,3.7-3.9l1.1-.3c0,11.1-4.8,11-6.9,19.7-.4,1.6,1.5,3.7-.8,8.8-3.4,3.5-5.9,3.1-10.4,2.8l-1-1.4c1.5-7.9,3.7-14.4,4.8-22.4Z"/>
  <path fill="#f8fcd8" d="M129.5,385.9l1.8,1.1c1.9,5,.6,34.4,0,40.7l-1.4.7-1.5-.8c.5-13.9-12.5-29.6,1.1-41.7Z"/>
  <path fill="#fafdea" d="M273.4,382.5c4.2-1.1,8.8,1.4,11,5-1.3,7.5-6.2,7.8-13,8.6-1.5,1-2.3,1.1-4,1.7-3.6-.8-2.1,0-4.7-2.8-2.7-8.8,3.9-11,10.7-12.5Z"/>
  <path fill="#e8f6a2" d="M603.7,521.8l.7,1.7c-1.4,8.7-10.7,25-15.2,33.4l-.7-4.7c-2.9-.3-4.7-.4-7.5-1,4.8-9.2,14.8-20.3,21.6-28.1l1.1-1.3Z"/>
  <path fill="#9fc244" d="M363.1,613l3.8.4c10.9,7.3,11,33.3,4.1,43.9-5.7-10.4,5.3-35.2-10.8-41.3l-.2-.9,3.2-2.1Z"/>
  <path fill="#e8f6a2" d="M430.3,407.4c1.3,1.2,2.2,1.8,3.1,3.2l1.7,2.8c-10.9,2.1-38.4,14.2-41.6,13.5,3.3-7.8,20.7-12.7,29.8-17.7,2.8.6,4.4-.6,7.1-1.9Z"/>
  <path fill="#9dc828" d="M227.3,424.4c1.2,0,2.2,0,3.4,0,.8,13.1,6.7,23.9,6.5,32.7,0,.8,0,.3-.7,1.4-3.5-2.4-10.2-16-12.5-20.2-.8-6.8-2.5-9.6,3.3-14Z"/>
  <path fill="#ecf7b7" d="M272.8,404.9c.5-.5,1.1-1.2,1.5-1.8-1.7-1.2-1.4-.6-2.3-2.3,5.6-3.8,20.5-1.8,26.1,2.2,1.4,1.6,2.2,1.9,4.1,2.9l-.7-.2c2.8,1.6,2.7,1.9,5.8,2-8.3,1.2-14.5-.9-24.8,1.1,1.8,0,1.8,0,3.6-.4-6.1,1.8-9.8-.3-15.8-2.4l.4-.9,2.1-.3Z"/>
  <path fill="#caec4c" d="M424.2,571.3c1.5.7,2.6,1.1,4.1,1.7.2,15.3-5.9,42.5-6.9,59.7l-.4-.2c-.3-5.2,0-7.3.5-12.5-1.1-2.3-1.5-3.5-2.1-6-.4,3.6-.2,8.8-2.2,10.9-4.8-5.6,5.6-24.7,6.4-32.1.8-7.7.6-13.9.6-21.6Z"/>
  <path fill="#e8f6a2" d="M581.1,556l2.9.7,1,1.7c.2,7-9.7,24-16.3,24.2.1-1.9.2-3.6.2-5.5-1.2,1.4-2.4,2.8-3.7,4.2l-.5-.9c2-4,13.3-21.9,16.5-24.4Z"/>
  <path fill="#e8f6a2" d="M446.6,453.2c8.9,10.3-14.3,24.7-23.8,25.6l-1.1.2c0-4.5,18.8-18.3,24.9-25.8Z"/>
  <path fill="#e8f6a2" d="M343,355.8l2.8,1.4-1.5,1.5c2.7,1.7,2.6,1.5,4.1,4.3-3,5.7-8,2.1-13.1,4.8-2,1.1-1.3.8-3.8.7-4,0-7.8.4-10.6-2.4l.6-1.6c5.6-3.9,14.8-6.5,21.4-8.8Z"/>
  <path fill="#9dc828" d="M133.6,748.8c7.5.5,11.2,8.8,10.5,15.9-.1,1.3-1,3.8-1.3,5.5,0,1.1-.4,1.4-.8,2.5l-2.2-.2c-6.6-4.8-9-16.3-6.2-23.6Z"/>
  <path fill="#caec4c" d="M240.4,326.1c-4.1-1.4-12.1-2.3-13.6-6.5,5.2-2.9,15.6.6,21.1,2.4,3.1-.1,5.2.3,8.2.7l8.9,2-2.2,1.9c.7,1.4.2.8,1.6,1.7l-.4,1.1c-8.1-.6-15.7-2.2-23.7-3.3Z"/>
  <path fill="#e8f6a2" d="M265.4,259c2.8.2,3.9-.2,6.1,1.6,1.8,5.6-5.1,20.1-7.5,26.3-1.9-.3-1.5-.4-3.3-1.8-3.3-11.6,1.2-12.6,4.3-24.7l.3-1.4Z"/>
  <path fill="#ecf7b7" d="M411.4,695.4c3.9,4.7.9,7.8,3.5,12.4,2.3-1.5,2.9-4.6,3.7-7.5,2.9,5,2.3,2.7,2.3,8.6,2.5-1.1,4.9-2.2,7.5-2.8-3.4,3.6-7.7,8-10.8,11.7-1.3,3.8-1.5,9.4-4.9,11.4-2.6-1.5-1.6-.5-3-3.3,1.3-8.7,3.6-21.9,1.7-30.5Z"/>
  <path fill="#caec4c" d="M134.4,683.1c4.9,7.9,8,24.8,7.5,34.1l-1.3,1.4c-4.3-9.1-7.4-12.1-10-22.6,1.5-1.8,2.7-2.9,3.7-5.1,0-2.7,0-5.2.1-7.9Z"/>
  <path fill="#ecf7b7" d="M311.7,272.9c3.1,5.5,9.2,19.6,10.6,25.5l-1,.8-.8-1.3c-2.8,0-3.3.8-5-1-6.4-6.6-11.3-16.7-3.7-24Z"/>
  <path fill="#ecf7b7" d="M357.3,707.3l.2-1.6c.4-3.7,0-5.7.8-9.3,1.5,1.2,1.6,2.3,2.4,4.4l.8-5.1h.8c.3,2.1.2,2.1,1.4,4,3.4,5.5,2.9,20-3.4,23-1.2-1.7-1.1-1.6-1.5-3.8l-.3,5.3c-2.3-5.5-1.6-11.2-1.1-17Z"/>
  <path fill="#9cd10a" d="M196.9,582.9l.8.6c-.3,6.8,3.8,17.7-4.4,21.2-2.3-.1-1.8,0-3.9-.5-5.6-6.6.5-17.7,7.5-21.3Z"/>
  <path fill="#ecf7b7" d="M423.2,409.2c-2.8,0-3.2,0-5.9.6l-2-.9v-1.2c11.5-4.9,19.1-7.5,30.6-.5v1.4c-2,1.6-3.4,2.8-5.3,4.6l-5.6.2-1.7-2.8c-.8-1.4-1.8-2-3.1-3.2-2.7,1.3-4.2,2.4-7.1,1.9Z"/>
  <path fill="#e8f6a2" d="M430.3,407.4c2.8.1,6.9.1,9.4.9-1.8,1.6-3.8,1.8-6.3,2.3-.8-1.4-1.8-2-3.1-3.2Z"/>
  <path fill="#e8f6a2" d="M377.2,679.1l-1.1-3.2c-3.6-1.6-3.2-.9-7.8-.3l-1-1.2c4.5-5.8,2.6-9.3,6.7-12.3,3.7.2,6.4,1.7,8.1,5-.2,2.7-.5,3.5.5,5.9,4.3-.2,4.5.2,8.3,2.6-6.7.1-9.3-.9-13.7,3.4Z"/>
  <path fill="#9fc244" d="M160.8,635.1l3.3-.4c3.1,4.2,1.1,10.7,1.5,17.6-2.6,1.7-1.2,1.4-4.1,1.4l-3.7-4c-.4-1.4-2.9-6.5-3.8-8.6.7-3.4.2-2.2,4-4.8l2.8-1.1Z"/>
  <path fill="#ecf7b7" d="M185.6,373.8l3.7,1.1.7-.5c2.4-1.6,1.9-1.6,4.6-2-4.5,5.5-8,17-14.6,23.7l-1.6-.6c-.4-7.5,2.6-15.9,7.2-21.8Z"/>
  <path fill="#ecf7b7" d="M338.5,397.3c6-.4,17.9,3.4,20.4,9.5l-1,1.8-3.7-.7c-5.1-.5-17-4-22.1-5.7,5.3-2,2.1.7,7.4-3.5l-1-1.3Z"/>
  <path fill="#9dc828" d="M164.1,727.1c.9,1.8,1,3.8,1.4,5.9,1.6-1,1.1-.7,2.3-1.6l.8-.6c.5,4.3-1.4,30-1.7,36.2l-.7,1.1h1s-1,.7-1,.7l.6.6-1,.6-1-1.6.7.9.4-1.7-1.5-.5c-2.4-13.4,1.1-26.7-.3-40.1Z"/>
  <path fill="#9fc244" d="M94,452.3c1.6,1.4,3,2.5,4.7,3.8,2.3-1.7,2.5-2.3,5.2-2.3,2.5,2.7,2.4,3.7,3.2,7.5l.2,1.2c3.4,4.2,5.1,1.7,7.2,5-.3,3,.4,1.9-1.8,3.7l-1.9,1.3c-6.9-2.1-6-4.7-7.2-11-2.7-2.7-1.2-1.9-4.4-2.8l-2.2,1.5c-.9-2.7-.7-2.6-3.1-4.1l.2-3.8Z"/>
  <path fill="#ecf7b7" d="M383.5,462.8c5.1,4.5,5,18.7-.8,24.5-7.9-6.1-1.8-14,.4-22.6l.5-1.9Z"/>
  <path fill="#9fc244" d="M381.9,323.2c5.2.4,8.7.8,8.9,6.8-1.7,3.2-3.5,3.6-6.8,5.1-3,0-1.9,0-4.8-1.3-2.2-3.1-1.6-1.4-1.7-5.2,1.5-3.5,1.6-3.3,4.5-5.4Z"/>
  <path fill="#e8f6a2" d="M180.9,592.9c.9-.2,1.7,0,2.7,0l1,2c-.4,2.3-6,8.5-8.5,12.9l-.7,1.2-2.4-1.8c-1.4-4.8-1.6-11.3,2.9-14.4,2.1.7,2.7.5,4.9,0Z"/>
  <path fill="#ecf7b7" d="M262.4,253.4l1.6.7c1.3,4.3-3.9,15.7-5.5,20.2l-.5-.9c-.4-1.6-.9-2.8-1.5-4.4l-3.1-1.1c-2.9-5.6,1.5-7.2,6-10,1.7-1.1,2.1-2.6,3.1-4.4Z"/>
  <path fill="#e8f6a2" d="M272,231.6c4.1,2.7,10.3,13,12.5,17.5l-.7,1.5-1.7-.9-.2,1.2c0,1.9,0,2.3-.3,4.2l-1.6.3c-3.9-4-7.5-18-7.9-23.8Z"/>
  <path fill="#9dc828" d="M372.3,443.1c-1.8-5.6-2.7-9.2,1.9-13.7l1.3.3c.7,2.2,1.4,4.3,2.3,6.4,1.3,5.7,1.9,8.3-.8,13.5l-1.8,1.2c-2.5-2.3-1.5-3.8-3-7v-.6Z"/>
  <path fill="#9fc244" d="M314.5,300.8c1.6,2.1,2.7,3.7,5.4,4,.5-2.1,0-1.5,1.2-2.2,2.9,4,7.1,14.5,9.3,19.6l-1.5,2c-6.4-4-12.8-16.3-14.4-23.4Z"/>
  <path fill="#9dc828" d="M533.1,550.3c1.6,2.2,1.4,2.9,1.5,5.6,2,.3,3.3-.4,5.4-1-1.4,2.9-4.9,6.9-6.9,9.7-2.5,2.3-2.3,3-4.7,2.9-3.3-10.8-2.1-8,4.8-17.2Z"/>
  <path fill="#9dc828" d="M279.9,513.2c4.3-.5,3.8-1.1,7.1.5.3,4.6-5.9,6.8-9.6,7.9-2.9,1.1-4.3,1-6.6-.6-.7-6.9,3.6-7.2,9.1-7.8Z"/>
  <path fill="#9cd10a" d="M279.9,513.2c-1.6,2.8-4,5.3-2.5,8.4-2.9,1.1-4.3,1-6.6-.6-.7-6.9,3.6-7.2,9.1-7.8Z"/>
  <path fill="#9dc828" d="M211.9,426.9c2.5-.6,1.5-.5,4.1.1,2,2.6,1.8,2.4,2.1,5.7-1.4,3.2-.3,2.2-3,3.6-5.3-.7-6.9-2.1-10,2.3-2.3,2.2-2.1,2.4-5,3.3,1.1-4.4,8.5-11.8,11.9-15.1Z"/>
  <path fill="#9dc828" d="M284.8,331.9c3.5.5,8.7.8,11.6,2.5l-.2,1.2c-4,2.7-8.1,3.4-12.9,4.6-2.8,1.2-7.3,3.7-9.7,3.5,5.5-4.3,7.5-5.7,11.1-11.9Z"/>
  <path fill="#e8f6a2" d="M218.4,539.9c1.3,1,12.9,13.6,13.9,15.3l-1,2.3c-4.8-1.9-10.8-4.4-13.8-8.5-1.1-4.5-.4-4,1-9Z"/>
  <path fill="#9fc244" d="M244.5,716.6c6.2.8,16.1,8,20.8,12.3l-.7.9c-.2,0-3.1-.8-3.4-.7-6.8,1.2-16.2-6.1-16.6-12.6Z"/>
  <path fill="#e8f6a2" d="M414.3,389.6c6.9-1.1,17.4-2.4,20.6,5.3-6.6,1-17.6,2.1-20.6-5.3Z"/>
  <path fill="#e8f6a2" d="M377.8,612.3l1.6,1c2.9-.4,5.5-1.1,7.7.2-.7,3.2-2.4,4.4-4.6,6.8l-.5,1.2c-3.2,1.7-1.7,1.6-4.8,1.1-2.9-2.7-1.9-1.1-3-5,1.2-4,.2-2.2,3.6-5.3Z"/>
  <path fill="#9fc244" d="M223,579.6c4.3,2.4,10.2,1,13.3,5.9l-1.1,4,2.1,3c-1.9-.2-2.8,0-4.7-.1-3.8-2.6-10.4-8-9.6-12.8Z"/>
  <path fill="#e8f6a2" d="M426.6,451.6c-.9,2.4-.4,1.5-2.5,3.5l-.8.7c-2.4,2.4-2.5,2.9-6,3.3-3.3-1.4-2-.3-4-3.3,0-3.4-.5-1.8,1.5-4.8,2.6-1.5,4-2.6,7-2.8,2.5,2.9,1,1.8,4.8,3.2Z"/>
  <path fill="#9cd10a" d="M596.1,562.1l.4.5c2.1.8,1.3.2,2.4,1.6.5,4.3-3.2,9.7-4,15.8l-3.6-1.6c-3.1-5.4,1.7-12,4.8-16.4Z"/>
  <path fill="#caec4c" d="M451.3,521.1c-.4-.3-.9-.6-1.3-.9-3.7-3.1-6.1-7.5-6.7-12.2l1.7-.4c5.1,3,7.7,7.3,11.4,12.1l-1.7,1.6-1.4-.2c-1.6-.2-1-.3-2,0Z"/>
  <path fill="#f8fcd8" d="M465.5,396.3l1.9.4c4.4,3.8,1.9,9.9-.6,14.2-3.6-.8-2.3.1-4.1-2.8-.7-5,0-7.6,2.9-11.8Z"/>
  <path fill="#9fc244" d="M417.4,572.8l2.7,1.5c4,5.6,2.4,11.3,1.5,18.2l-1.8.4-1.1-1c-1.6-6.7-1.3-12.2-1.3-19.1Z"/>
  <path fill="#e8f6a2" d="M463.3,581.2c6.2,1.4,14.5,3.1,16.8,9.4-8.1,1.1-12.6-3-16.8-9.4Z"/>
  <path fill="#e8f6a2" d="M465.1,575.1c3.8,1,11.1,2.3,13.4,5.4l-.7,2.2c-4.8.4-10.5-1-13.6-4.9l.9-2.7Z"/>
  <path fill="#caec4c" d="M621.5,507.6l1.9.4c.1,3.5-3.1,9.1-4.7,12.7-2.9-1-3.7-2.3-4-5,1.6-3.7,3.8-5.3,6.8-8.1Z"/>
  <path fill="#e8f6a2" d="M431.7,429.2c-5.1,1.6-6.6,5.1-12.6,4.5-1.2-2-1-.9-.6-3.3,3.5-2.2,4.1-2.5,8-4l5.2,2.8Z"/>
  <path fill="#ecf7b7" d="M199.1,308.2c3.4-.3,7,1.4,9.6,3.5l-.6,1.1-2.3.2c-3.5.1-9.4.7-12-1.7,1.8-2.5,1.8-1.8,5.3-3.1Z"/>
  <path fill="#9dc828" d="M374.7,596.4c2.5.4,1.5-.2,3.3,1.5.1,4.6-2.2,8-4.5,11.8-1,.1-.4.2-1.8-.7-1.2-4.1,1.3-8.9,3.1-12.6Z"/>
  <path fill="#9fc244" d="M313.2,524.2l.3.5c-.2,4-.5,8.1-3,11.4l-1.9-.7c-1.8-3.6-2.7-2.7-2.7-6.2,2.5-1.6,4.8-3.2,7.3-4.9Z"/>
  <path fill="#e8f6a2" d="M197,344.1c6.6,3.1,3.1-.3,8.1,1.1l-3.1,3.6c-2.9,2.8-2.2,3-5.3,3.3l-1.3-1.6c0-3.3.3-3.4,1.6-6.4Z"/>
  <path fill="#ecf7b7" d="M159,354.4c2.5-3.1,2.2-3.7,5.3-4.7l1.6,1.2c.6,4.4,0,5.6-2.5,9.4l-4.3-5.9Z"/>
  <path fill="#9fc244" d="M250,603.5c3,1.4,8.1,5,8.9,8.3l-1.5-1.3c-3.8,1.9-1.9,1.7-5.7,1.4l-1.1-2.1c.4-3,.4-3.4-.6-6.3Z"/>
  <path fill="#9fc244" d="M244,524.1c5.4-1,9.8-1.8,13.1,3.3-6.7.2-8.4.7-13.1-3.3Z"/>
  <path fill="#9dc828" d="M566.1,526.3c2.6,1.9,3.8,1.3,5.9,3.5l-2,3.2-4.8-.2-1-1.4,1.9-5.1Z"/>
  <path fill="#9dc828" d="M445.7,560.6l1.6-3.2,1.6-.3c2.1,3.4,1.5,7-.5,10.3l-2.7-6.8Z"/>
  <path fill="#c1d96b" d="M172.8,818.6c-1.3,10.1-1.9,2.9,5.7,10.9l.9-.6c-.5-6.9-2.4-28.2-1.6-33.8,2.2-15.3,12.8-62.5,23.2-71.3,9,.8,12.6,7.7,18.5,10.6,6.9,3.3,16.8,5.2,24.5,8.2l.5-1.9,2.2.4c1,2.3,1.1,2.6,2.5,4.7,3.4.8,1.9,1,4.8-.4,13,5.6,27.8,11,41.5,14.5,6.5,1.7,19.2-1.6,26.6,3.3,4.4,0,10.2-.3,14.5.2,11.5,1.5,23,1.3,34.4.7,6-.3,11.7-.6,17.6-1.4,2.9-.4,5.8-4.1,8-4.1,18.2-.1,26.9-.8,29.7-20.9,2.7.9,5.3,21.2,9,26.2,3,8.8,3.4,28.3,7.2,39.2,5,14.2,10.5,27.9,16,41.9,6.4,16.4,12.4,33,17.9,49.7,4.1,12.3,7.9,24.8,11.3,37.3,1.8,6.9,2.9,11.4,4,18.4,5.6,29.2,6.5,67.5,1.2,97.1-.4,7.8-2.6,19.7-4.8,27.2-5.3,11.5-10.8,19.9-15.3,32,4.5,23.9,7,49.3,2.7,73.6-.7,3.9-4.1,9.1-5.6,12.8-2.5,4.8-3.9,8.8-4.4,14.3-1.4,15.3,1.3,30.3,2,45.5,2.6,58.8-14.8,115.7-22.9,173.4-2.4,17.1-6.7,34.4-5,51.8,1.4,13.7,9.3,19.3,19.3,26.8,11.1,6.4,20.7,17.1,31.9,23.5,15.9,9,34.7,12.6,50.2,22.6,6.8,4.3,20.4,12.6,14.5,22.2-3.6,6-10.5,8.7-17.5,9.3-16.2,1.4-35.7-2.6-52.1-2.6-12.7,0-30.2-21-43.8-22.1-9.4-1.7-18.6.1-27.9,1.2-14,1.8-32.1-.5-44.1-8.4-19.2-19.4-2.5-36.8,1.8-58.9,8.6-44.2-.9-86.9-12.7-129.4l-.2-.6c-23-53.3-21.9-87.8-.6-141.4,3.3-8.3,12.4-22.1,13.7-29.4,5.9-34.7-18.5-78.5-31.6-109.8-4.3-10.2-12.3-29-17.2-36.8-3.1,10.7-3.5,24.4-4.4,35.6-2.2,26.9-6.2,43.1-17.9,67l-6.1,9.6-2.2,4.5c-3.9,9.7-5.7,28.9-10.2,41.7-5.9,17.1-16.5,34.9-21.1,51.3-4.2,15-2,39.3-4.6,54.9-3.1,16.4-6.2,33-9.7,49.3-2.1,9.7-2.8,21.9-5.3,31-10.9,39.2-17.3,68.4-16.3,109.5l-1.3-.8-.2-1.3c-2.6-14.1-6.4-10.2-16.1-5-8.9,4.7-33.2-7-38.6-2.4-3.6,10.1-1.1,21-4,30.7l-1,.2-.7-1.7c8.3-74.3-19.6-137.2-24.5-209.6-2-29.1,18.2-60.2,30.4-85.6,6.2-12.9,17.7-24.1,18-39.9,4.8-43.3-13.9-80.3-20.6-121.9-7.3-43.3-3.5-72.6-.3-115.8-1.6.1-3.4.2-4.4,1.8-15.7,24-29.6,46.1-61.5,44.8-30.3-1.2-47.8-20.4-58.1-47.5.6-10.8-1.4-17.9-6-27.5l-.5-.9c3.8-10.1-1.2-20.5.3-31.2.5-3.5.4-4.4.2-8v-1.1c4-20.8,10.9-40.2,28-53.9l1.1-.2c4.6-.8,4.4-1,8.7-2.4,9-3.1,31.6-6.7,40.4-3.8,4.7,1.5,4,8.8,11.2,9.3.4.2.8.4,1.2.5,15.1,2.9,37.1-8.1,45.4-6.8Z"/>
  <path fill="#9cd10a" d="M172.8,818.6c-1.3,10.1-1.9,2.9,5.7,10.9l.9-.6c-.5-6.9-2.4-28.2-1.6-33.8,2.2-15.3,12.8-62.5,23.2-71.3,9,.8,12.6,7.7,18.5,10.6,6.9,3.3,16.8,5.2,24.5,8.2l.5-1.9,2.2.4c1,2.3,1.1,2.6,2.5,4.7,3.4.8,1.9,1,4.8-.4,13,5.6,27.8,11,41.5,14.5,6.5,1.7,19.2-1.6,26.6,3.3,4.4,0,10.2-.3,14.5.2,11.5,1.5,23,1.3,34.4.7,6-.3,11.7-.6,17.6-1.4,2.9-.4,5.8-4.1,8-4.1,18.2-.1,26.9-.8,29.7-20.9,2.7.9,5.3,21.2,9,26.2,3,8.8,3.4,28.3,7.2,39.2,5,14.2,10.5,27.9,16,41.9,6.4,16.4,12.4,33,17.9,49.7-1.3,3.8-2.5,6.3-6.5,8.1-15.8,7.1-33.4,11.3-50.2,15.4-6.1,1.5-12.3,0-18.4,1.7-9.5,2.7-19.1,6.7-28.5,9.6-7.9,2.4-41.6,9-48.2,6.1-21.3-9.3-10.3,1.9-16,8.8l-3,.9c.2,4.6-23.4,30.1-28.9,33.1-5.8,3.1-19,5.6-25.9,6.2-1.7-.9-2-.7-2.8-2.4-3.1-6.6-34.5-19-36.7-37.6-.9-8-8.6-18.6-11-27.1-4.2-14.6,1.5-63.5,7.9-77.5l2.7-1c3.1-7,10.3-21.1,17.3-24.5l.2-3.3c1.6-1.2,3-1.9,4.7-3-3.5-.5-9.2,3.1-11.7,5.3-35.3,31.8-36.5,94.8-15.6,134.8,4,7.7,11.6,16.4,15.8,24.3,2.8,5.1,11.3,3.9,13.9,7.9-4.7,2.3-22.5-5.6-26.8-8.5-10.3-6.8-18.4-36.4-30.2-38.5-6.6,1.9-8.8,6.6-11.9,12.2-1.6.1-3.4.2-4.4,1.8-15.7,24-29.6,46.1-61.5,44.8-30.3-1.2-47.8-20.4-58.1-47.5.6-10.8-1.4-17.9-6-27.5l-.5-.9c3.8-10.1-1.2-20.5.3-31.2.5-3.5.4-4.4.2-8v-1.1c4-20.8,10.9-40.2,28-53.9l1.1-.2c4.6-.8,4.4-1,8.7-2.4,9-3.1,31.6-6.7,40.4-3.8,4.7,1.5,4,8.8,11.2,9.3.4.2.8.4,1.2.5,15.1,2.9,37.1-8.1,45.4-6.8Z"/>
  <path fill="#9fc244" d="M320.8,900.1l-.5,1.1c-13.2,1.9-38.4,7.8-51,.6-2.9-4.2-2.8-17.9,1.4-20,5.9-2.9,48.5-4.4,52.5-3,6.3,5.4,6.1,12.9,1.9,19.5l-4.3,1.8Z"/>
  <path fill="#e8f6a2" d="M320.8,900.1c-10.1-2.7-10.7-15.7-1.8-20.2,8.6.5,6.6,12.2,6.1,18.4l-4.3,1.8Z"/>
  <path fill="#fafdea" d="M281.2,882.5c8.6-.8,17.7-.4,26.3.1.5,5.5,2.6,12.2.3,16.5-2.8,2.2-6.1,1.8-9.7,2l-6.2.5c-7.6.6-15.3,1.9-21.3-3.2-5.4-10.2,3.2-13.3,10.6-15.9Z"/>
  <path fill="#caec4c" d="M254.4,828.2l1.8.5c-.3,1.9-.3,1.1-2.1,2.5-22.6,17.1-26.9,48.2-23,74.4,2.7,17.8,7.9,31.2,20.1,44.2,2,2.1,9.9,5.6,13.1,7.9l-.7,1.8c-10.3-4.4-18.2-8.8-24.3-18.5-22.2-35.1-21-87.9,15.1-112.8Z"/>
  <path fill="#caec4c" d="M75,827.9l.9.2c.3,2.3-13.2,22.1-14.6,27.5-9.3,37.6-8.9,87.8,20.5,116.8,0,.5,0,1.1,0,1.6-33.7-21.6-38.6-99.3-18.3-130.6,3.6-5.6,7.3-10.5,11.5-15.6Z"/>
  <path fill="#e8f6a2" d="M111.3,889.4c6.8.7,5.7,6.8,6.3,13,.4,4.3.7,7.2-2.2,10.2-10.7-4.9-10-14.6-4.1-23.2Z"/>
  <path fill="#caec4c" d="M261.8,871.6c0,.3,0,.5,0,.8-6.7,17.4-6,19.9-.6,37.1l-1,.8c-8.2-9.2-8.9-30.4,1.6-38.7Z"/>
  <path fill="#9cd10a" d="M370.2,1550.5c-.9-7.2-10.3-18.6-4.5-26.8,4.2-5,3.9-13.4,6-18.7,4.9-12.6,4.5-37.7,9.9-48.4,6.8-5,33.1,7.9,44.4,3.4,1.6-.6,3.4-.9,5.1-1.1,1.3.5,4.1,1.5,4.2,3.2,1,16.5,1.8,40.3,23.6,42.7,11.1,6.4,20.7,17.1,31.9,23.5,15.9,9,34.7,12.6,50.2,22.6,6.8,4.3,20.4,12.6,14.5,22.2-3.6,6-10.5,8.7-17.5,9.3-16.2,1.4-35.7-2.6-52.1-2.6-12.7,0-30.2-21-43.8-22.1-9.4-1.7-18.6.1-27.9,1.2-14,1.8-32.1-.5-44.1-8.4Z"/>
  <path fill="#9dc828" d="M483.3,1045.1c1.4-3.6.9-4.5,3.5-5.8,3.2,3.5,2.2,5.4,6.2,8.1-.4,7.8-2.6,19.7-4.8,27.2l-.5-3.3-1.8-1.5c-.9,2.9,0,1.9-2.2,3.4-2.4-1.3-2.2-1.9-3.9-4.5-3.3,4-.2,11.4-4.4,12.1l-.3-4.6h-.8c-1.2,3.4-3.7,11.9-7.1,12.5-.9-6.2-2.8-17.8-1.7-23.8.2-1.4,1.3-1.6,2.8-2.5.9,1,1.7,1.9,2.5,3,4.1-3.9,0-5.2,3.9-8.7,1.9,1.5,1.2.5,1.5,3.5.9-.8,1.8-4.3,2.3-5.7h1c1.9-2.9,2.3-6.8,3-10.4l.9-.6v1.8Z"/>
  <path fill="#9dc828" d="M483.3,1045.1c1.4-3.6.9-4.5,3.5-5.8,3.2,3.5,2.2,5.4,6.2,8.1-.4,7.8-2.6,19.7-4.8,27.2l-.5-3.3c0-.4-3.9-24.4-4.3-26.3Z"/>
  <path fill="#9cd10a" d="M359.1,1361.6c0-6.8-2.7-15.2-2-21.6l2.2-.7c4.9,3,6.4,5.1,10.2,8.9,1.5,1.5,8.8.2,11.7,2.4-.7,4.9-11.2,15.9-16,15.8-1.7-1.6-3.4-3.5-5.8-4.2l-.2-.6Z"/>
  <path fill="#9fc244" d="M487.8,931.9c1.8,6.9,2.9,11.4,4,18.4-.8.4-1.7,1.1-2.5,1.7-.6,2.9-.7,4-.9,6.9l-1,.8-.9-3.7-.4.5c0,2.9.2,3.4-.5,6.2-1.2-11-5.4-13.8,0-24.1v.4c2.8-2.6,1.9-2.2,2.2-7.2Z"/>
  <path fill="#9dc828" d="M289.7,1146c2.2-2.4,7.4-9,9.5-9.3,1.4,3.8,1.5,6.1,1.9,10.2l-6.1,9.6c-1.1-7,0-3.8-4.5-9.4l-.9-1.1Z"/>
  <path fill="#9fc244" d="M292.8,1160.9c-10.3,1.6-7.9-10.8-3.1-15l.9,1.1c4.4,5.5,3.4,2.4,4.5,9.4l-2.2,4.5Z"/>
  <path fill="#fafdea" d="M411.9,1230.1c-10.7-12.6,1.9-17.1-.5-27.4l.8-.5,4.6,2.5,3.5-1.8.9.7-.6,1.6c-2.2.4-3.9.7-6.1.9l-1.3,1.3h1.2c3.9.3,4.6.1,8,1.7,5.3,9.7.5,10.6,10.5,19.6.9,3.6,0,2.6,2.1,4.5,5.1-2.6,4.9-6.3,9.4-8.4,13.2,12.4-4.2,67.9-8.6,84.2-2.8,10.2,2.5,21.1-4.4,32.4-.8,1.3-.5,24.8-.5,28.5-.2,12.7-8.9,67.6-15.9,75.1-3.5.6-3.2.6-6.5-.6-3-4.4,1.7-17.5,2.5-23.4,1.4-11.7,4.6-24.1,8.3-35.3,2.7-8.1-.4-15.7.3-23.9,5.3-21.3,9.8-42.5,11.8-64.5.3-3-2.2-6.8-2-9.9-.1-3.3.4-11.7-.5-14.1-1.3-3.4-4.5-5-5.2-9.8-3.1-1.9-10-15.6-10.3-19.4l2.9-1.9c1.3-3.9-4.3-5.4-4.1-12.4Z"/>
  <path fill="#f8fcd8" d="M411.9,1230.1c4.1,1.8,1.4.9,3.4,2.4,5.2,4.1,14.8,4.9,15.8,14.2l-.7,2.1c-3.5,1.5-4.7,1.7-8.3,2.6.2,4.6.9,8.1,1.2,12.3-3.1-1.9-10-15.6-10.3-19.4l2.9-1.9c1.3-3.9-4.3-5.4-4.1-12.4Z"/>
  <path fill="#f8fcd8" d="M242.5,1095.5l-8.2-9.4c-.5,1.1,6,10.1,7.2,14.3l-2.2.9c-.7,2.7-.6,1.4.2,4l-1.4-.2c-2.6-2.4-13.2-6-16.9-7.1-2.3-7.3-4.9-15.4-6.5-23-.5-2.5,2-4.7,3.8-6.9,0-3-1.6-7.5-2.7-10.5-2.3-6.1-.4-15.7-.1-23.2,14.3-10.1.8-18.5.6-31.7-.2-12.6,12.1-15.3,18.5-6.1,6.3,10.2-1.1,20.3-3.9,29.5-.9,2.9,4.3,11.9,2.1,18.7l-.8.6c-1.1-.7-2.1-1.2-3.3-1.9-.7,5.3,5.4,13.6,7.1,19.3,1.6,5.4,2.9,10.5,4.3,16l-.8,1.2-2.6-2.7-.9.3c0,3.5,4.9,14.1,6.6,17.9Z"/>
  <path fill="#fafdea" d="M232.1,1045.3c-.5-2.6-.3-2.7-2-4.6-2.6.2-2.4.3-4.7-.7-.4-2.2-.4-10.3,0-12.5,1.8-10.7-9.5-20.7-5.9-31.9,3.4-3.1,8.1-3,11.4,0,9.8,8.8-3.5,22.5-2.9,32.8.4,6.7,3.7,9.2,4.9,16.3l-.8.6Z"/>
  <path fill="#ecf7b7" d="M437.7,1220.8c-6.6-10.8-14.9-23.3-18.6-35.4.3.8-2.6-24-2.8-21.9.2-2.2,1.3-4.3,3.1-5.8,13.4,6,28.8-2.1,35.4-14.4,3.3-6.2,1.9-25.7,9.2-26.4,1.1,1.1,3.2,2.7,2.9,4.8-1.1,9.3-.7,21.2-3.6,29.9-.8,2.4-11.8,13.1-14.3,14.2,11.9,1.6,11.8,18.5,6.1,24.5-3.2,1.4-3.3,1.8-6.8,1.2-5.6-3.1-6.4-10.9-7.1-16.7-1.6,3.8-1.7,3.7-2.1,7.7.7,15.2.2,23.4-1.3,38.3Z"/>
  <path fill="#fafdea" d="M439,1182.5c-1.4,4.1-3.8,11-7,13.8-8.7.6-11.9-31.5-10.2-33.2,6.2-6.1,20.6-2.6,27.1,2.7,11.9,1.6,11.8,18.5,6.1,24.5-3.2,1.4-3.3,1.8-6.8,1.2-5.6-3.1-6.4-10.9-7.1-16.7-1.6,3.8-1.7,3.7-2.1,7.7Z"/>
  <path fill="url(#fixed_id_1_5)" d="M272.8,1119.7c1.4.3,2.2.7,3.5,1.3.1,12.2-3.6,16.6-6,27.7-1,4.6,3.1,15-.4,20.7-5.6,9.3-5.3,9.6-15.4,14.4-2.7-.9-1.8-1-4.4-.6,11.5,5.4,10.8,19.3,3.5,27.7-3.2,1.3-1.6,1.3-4.8.3-2.6-2.4-2.8-4.5-3.7-7.9l-1.3-.3c-1.6-7.7-.9-10.7-.1-18.4-1.6,4.9-3,11.1-5.9,15l-1.1-.3c-2.4-9.2-2.7-17.1,5.9-22.6,13.5-8.6,19.5-50.9,30.2-56.8Z"/>
  <path fill="#fafdea" d="M407,930.4c2.7.1,8.2,1.4,7.8,5-2.4,20.1-8,40.9-12.6,60.6-3.9,16.9-7.5,34.9-16.5,49.7-1.1,1.8-1.4.6-2,3.2l2,1.5c0,3.3.2,3.1-1.2,6.1l-1.4-.3c-.3,3.3-.4,4.9-2.7,7.1l-1.8-.4c-2.1-6.3,3.7-14.3,3.6-19-.2-11.5-1.4-16.7,3.6-27.7,1.2-3.9.3-15,1.6-18.2,6.9-16.8,11.6-32.2,14.5-50.2.7-4.3,3.7-12.4,5.1-17.2Z"/>
  <path fill="#f8fcd8" d="M259.8,991.5c6.5-2.5,13.1-5,19.7-7.4,1.6-2.1.8-1.5,3.1-2.6,1.1,3.8,2.8,16.7.9,20.4-.2,3.9.5,10.7,2.5,14.1l1-3.4c2.4,6.3-2.5,9.4-2.3,14-.7,7.3-1.5,16.7-1.2,24l-2.7-.6c-1.8-3.3-2.4-7.6-3.1-11.4l-.2-9.1h-2c0,0-1.4,2-1.4,2h-2.6c-3.7-2.1-3.6-2.9-6.1-6.3v1.1c-.5,2.1-.9,3.4-1.4,5.4l-1.6-.2c-3.4-6.1-4.1-32.1-2.5-39.8Z"/>
  <path fill="#fafdea" d="M265.4,1025c-3-6.4-3.3-30.5,7-30.1,13.2.5,5.2,19.8,6.8,26.3l-1.1-.4-.5,8.5h-2c0,0-1.4,2-1.4,2h-2.6c-3.7-2.1-3.6-2.9-6.1-6.3Z"/>
  <path fill="#d6ddb6" d="M275.6,1029.2c0-2.9-.1-9.7,1.2-11.7l1.3,3.3-.5,8.5h-2Z"/>
  <path fill="url(#fixed_id_1_6)" d="M453.2,1000.4c-2.8-.8-3-.9-5.5-2.3-1.7-3.6-11-37.7-11.7-41.9-1.1-6.1-.6-27.5,2.7-32.2,3.1-.7,1.7-.9,4.6.6.6,3.3.7,1.5-1.4,5.3,10.7,13.9,6,27.4,12.4,40,2.9,7.4,9.4,18.8,8.8,26l-1.5,2.7c.4,12.4-1.7,16.7-2.3,28.3l-.7.5c-3.6-8.5-3.1-13.3-5.3-20.2v-6.7Z"/>
  <path fill="#9dc828" d="M191.8,1013.2c0-3.1.5-4.1,1.4-7,3.9.7,8.2,7,8.3,11.4-1.2,2.1-1.5,3-3.2,4.8l.3,1.6c-.1,8.5,5.2,17.7,4.5,24.3,0-.2.1-.3.2-.5-3-1.4-2.3-1.7-4-5.8l-1,.5c1.9,13.8,1.6,28.3,5,42.5,2.1,8.8,13.8,51.1,11.4,55.5l-.9-1.7-.8,3.4c-4.9-2.4-6-14.6-8.1-19.3-7.2-15.9-6.2-34.4-11.6-50.2-.9-13.4-2.8-21.7-2.3-36.1.8-7.3-1.3-15.6.9-23.4Z"/>
  <path fill="#fafdea" d="M423.2,1030.5c9.8,10.6,9.4,41.7,7.4,55.4-1.1,7.4.9,21.3-6.6,25.6-3.4-.3-2.7-.5-5.9-2.8-.8-2.4-3.6-6.1-4-8.1-1-4.1,1.9-11.2,1-15.1-1.1-5-7.3-7.5-5.2-13.8,2.7,1,2.9,1.4,5.7,1.3,1-1.3,6.1-37.1,7.6-42.5Z"/>
  <path fill="#ecf7b7" d="M165.2,1325.4v6.1c1.7-1.6,3.3-3.3,4.8-4.9l1.4.3c4.1,8.7-3,18.4-.8,26.3,1.9,7,.2,13.8,2.1,19.9h1c0-.1,1.5-3.7,1.5-3.7h.8c2.2,9,.7,47.7-1.3,57.6-.5,2.5-2.3,6.3-4.9,7.1-1.3-1.7-5.3-51.1-5.6-57.3-.2-3.6,4.3-8.5,4.1-14.5-1.8-3.4-.5-2-4.6-3.9-1.9-5.5-.8-26.4,1.6-32.9Z"/>
  <path fill="#9fc244" d="M363.1,1061.2c1.7-21.6-4-36-7.4-56.4-1.5-8.9-2.2-45.9.8-53.3l1.2.5c6.4,18.8-.9,22,.5,35.4,2,19.4,7.6,43.9,11.4,62.8.7,3.2.1,33.7.1,38.9-2.5,1-3.8,0-5.7-1.8l.9,1.8c-1.6,2.6-1.3,1.2-.6,4.5l-1.4,1.1.3,6.1c-.4,1.9-.3,1.5-1.2,3.3-3.3-7-4.3-31.1-4.3-39.1l1.1-.3c2.3,3,2,4.5,2.3,8.1l.8.2c.8-4.9-1-8.6,1.2-11.6Z"/>
  <path fill="#e8f6a2" d="M363.2,1100.6c-.4,1.9-.3,1.5-1.2,3.3-3.3-7-4.3-31.1-4.3-39.1l1.1-.3c2.3,3,2,4.5,2.3,8.1l.8.2c.8-4.9-1-8.6,1.2-11.6,0,11.1,0,22.3-.2,33.4l.3,6.1Z"/>
  <path fill="#9dc828" d="M310.3,1022.4c.5-4,2.2-11.4,1.9-14.9-.9-11.1,4.8-15.9,7-25.7l1.2-1.1,1.3.6c.7,6.2-.7,5.9-1.6,9.9-3.2,15.1,1.8,34.2,4.9,49-.5.5-.9.9-1.3,1.4l-3.4-.6c-2.5,2.3-1.3,3.4-2.4,7-3.7,1-1.8,1-5.7-.4.7,4.2-.4,7.6-3,10.9l-1.2-.4c-2.5-7.7-.3-27.7,2.3-35.6Z"/>
  <path fill="#9dc828" d="M457.4,1079.5c.4,3.3-5.3,45.9-6.5,49.6-1.3-1.7-.6-5.7-.5-8.4h-.8c-3.7,2.7-10.6,11.9-10.4,11.8.5-5.2-.7-4-1-8.3,11.3-10.2,7.7-26.7,11.2-39.5,2.9-10.5-4-29.9-.8-35.9l2.1.2c4.9,5.4,2.9,14.9,5.7,22.4.3-4.4,0-9.7,3-12.7,4.1,2.9,5.3,15.8,3.5,20.2-1.3-.8-2.4-1.5-3.7-2.5-1.9,1.6-1.4.6-1.8,3Z"/>
  <path fill="#fafdea" d="M202.6,1159.2l1.8.7c2.3,6.2,2.8,11.5,5,17.3l1.2.4,2.4-4.5,1.1,1.5c-.2,2.1-.3,3-.8,5.1l-.4,1.8c4.3,9,6.9,20.7,5.7,30.7-.3,2.2-3.9,4.2-5.8,4.9l-1,1.4c-3.9,3.2-5.7,4.3-10.4,2-13.6-24.4,13.7-20.1,6.3-42.5-1.9-5.7-3.4-12.8-5-18.7Z"/>
  <path fill="#e8f6a2" d="M283.5,1001.9l1.3,3.6c.6-7.8-.9-26.6,5.8-30.1l1.5.9c1.6,4,1.1,10.4,1.1,14.9-.4,23.4.5,65.7-7,86.5-.8-5.9-.7-34.7,0-40.8-.2-3.9,0-6.9-1.6-10.5-.2-4.5,4.7-7.7,2.3-14l-1,3.4c-2.1-3.4-2.7-10.1-2.5-14.1Z"/>
  <path fill="#ecf7b7" d="M283.5,1001.9l1.3,3.6c.6-7.8-.9-26.6,5.8-30.1l1.5.9c1.6,4,1.1,10.4,1.1,14.9-10.5,13.3,2.3,29.7-3.2,39.6l-2.6.5,2.4-.9-.7-1.8-1,.2c-1.5,4.1-.9,4.8-1.8,8.1-.2-3.9,0-6.9-1.6-10.5-.2-4.5,4.7-7.7,2.3-14l-1,3.4c-2.1-3.4-2.7-10.1-2.5-14.1Z"/>
  <path fill="#ecf7b7" d="M383.5,928.9c4.3,11,2.7,38.5-2.2,49.3-4.4,1.9-4.1,1.6-4.9,6,1.2,1.2-8.7-31-9.5-33.4h-.4c-.6,2.7-.2,4.4,0,7.3.4,2.6.3,3.2.2,5.8-1.8-7.8-5.8-22.8.6-29l1.5.4c3.9,7,1,19.7,8.3,24,4.5-4.7-.5-16.8.8-23.3,1-4.7,1.8-4.4,5.5-7.1Z"/>
  <path fill="#9dc828" d="M167.7,1006.7l2.3,1.6c5,9.2,11.2,41.9,11.4,53.1.1,9.2,3.6,19.7-2.2,26.5-3.7-16.5-14.1-66.6-11.4-81.3Z"/>
  <path fill="#e8f6a2" d="M193.7,1273.4s2,1.1,2,2.1c.6,24.7-1.2,50.6-1.5,75.4,0,4.2-1,8.7-2.3,11.5-8.6-16.4-3.8-70.7,1.8-89Z"/>
  <path fill="#fafdea" d="M401.3,1276.3c12.6,10.4,15.4,11.8,8.6,27.1-1.9,4.3-1.3,10.2-6.3,13.1l-.6-1.6c-2.7,1.6-1.3,1.3-4.2,1.3-2.1-4.5,2.2-6.3.6-11.1-2.5-.4-2.6-.3-4.8-1.6-.3-4.1.2-12.7,2-16.3h3.4c0,.1-1.7.4-1.7.4l1.5.2c1.9-2.7,1.4-7.9,1.4-11.5Z"/>
  <path fill="#f8fcd8" d="M190.8,1384c15.3,1.5,6.9,33,2.5,41.4l-1.2.4-1.6-1c-1.8-10.6-9.9-31.3.3-40.9Z"/>
  <path fill="#ecf7b7" d="M183.6,1002.4c-.2-10,0-44.9,2.2-53.4l1-.5,5.4,8.5c1.8,6.1.8,12.4.4,18.8-1.1,6.4,0,18.5-2,22-.5,3.3-.6,5.8-2.6,8.3h-1.9c-.8-1.3-1.6-2.4-2.4-3.7Z"/>
  <path fill="#fafdea" d="M214.4,1292.2l1,1.2c-1.3,13,7.5,18.4-2.4,37.8l-4.2-.3c.4-10.3-16.2-34.6,5.6-38.8Z"/>
  <path fill="#fafdea" d="M240,1231.7c2.1.4,3.6.7,5.7,1.3,2.1,13.9,2.8,30.7-3.6,43.4-2.7.7-1.5.9-3.8-.4-6.3-11,0-32.5,1.7-44.3Z"/>
  <path fill="#ecf7b7" d="M386.1,1131.8l-1.2-.9c.7,2.8,1.5,4.9,1.2,7.8l-1.2.3c-7.9-13.4-14.6-58-7-74.2.5-1.1,2.2-.7,3.4-.6,1.1,20.1-3.9,40.2,3.6,60.8l1.2,6.8Z"/>
  <path fill="#e8f6a2" d="M301.2,960.9c1.8,2.1,4.9,32.7,5.7,38.2l.3-4.1c1.3,5,3.5,24.4,1.4,27.9-1-3.2-1-8.5-2.2-9.8-.2,3-.2,4.8-1,7.6-.2,4.7-2.3,15.6-3.1,20.6-2.7-3.7-1.6-70.8-1.1-80.4Z"/>
  <path fill="#f8fcd8" d="M238.3,1129.9c16.1,17.8-5.9,36-14.2,29.7-.9-3.5,0-5.8,1.7-8.9,2.6-.7,1.5,0,3.5-1.9-1.7-5-1.8-4.8-.7-9.6h1.1s3.4,5.8,3.4,5.8c1.3-4.2-3.3-7.7-1.6-11.9,2.6.8,3.8,2.6,6,4.7l.6-.2c-1-3.7-1-3.9.1-7.6Z"/>
  <path fill="#e8f6a2" d="M183.6,1002.4c.8,1.3,1.6,2.4,2.4,3.7h1.9c2-2.5,2.1-5,2.6-8.2.2,7.7-2.1,34.1.3,38.7-.6,14.4,1.4,22.7,2.3,36.1.2,4.3.5,5.1-.9,8.9l-1-.9c-4.9-21-7.3-56.1-7.6-78.3Z"/>
  <path fill="url(#fixed_id_1_7)" d="M456.1,1269.6l.9,1.5c-.2,2.5,0,4.4.2,6.3,1,12.3-11,63.4-15.1,73l-.9-.2c-.6-3.8,2.1-15.7,2.8-20.2,3-21.6,4.3-39.8,12-60.4Z"/>
  <path fill="#9fc244" d="M253,1069.3c7.7,8.4,7.5,21.5,8.6,32.5,0,0-5.1,14.4-5.4,14.8l-.9-.6v-1.4c-.6-14.2-8.3-21.8-4.5-30.4l-1.6-5.1.8-1c-1-5.3-1.5-5.5,2.9-8.7Z"/>
  <path fill="#f8fcd8" d="M454.3,970v-16.2c.1,0,.8-.5.8-.5l.7,14v-.9s.9-1.2.9-1.2c1.7,1.4,1.6,1.1,3.5,1.8,2.9,3.6,1.2,12.2,2,13.2,8.8,11.5,15,19.6,6,33.3l.2,2.2-1.8.5c-4.1-4.1-3-13.1-5.1-17.5l1.5-2.7c.7-7.2-5.8-18.6-8.8-26Z"/>
  <path fill="#9fc244" d="M363.8,1104.7l4.8-.3c1.3,6.2,2.2,15.4,3.6,22.7.9,2.4,10.3,30.3,10.4,31.8-11.8-9.8-19.5-32.9-20.1-47.9,1-1.2.4-.8,1.7-1.3l-.4-5Z"/>
  <path fill="#9cd10a" d="M363.8,1104.7l4.8-.3c1.3,6.2,2.2,15.4,3.6,22.7-.7,1.7-1.2,2.8-2,4.5-3.3-2.4-4.3-15.4-5.7-20.5l-.4-1.3-.4-5Z"/>
  <path fill="#f8fcd8" d="M378.2,1308.5c6-3.7,2.1-2.9,5.6-5.9.8,3.5,1,4.8,1.4,8.4l.2.7c1.8.6.8.5,3-.5l1.2,1.3c.9,5.7-7.3,21.1-10.9,22.5-.7-3.1,0-3-1.8-4.7-1.5,2.2-1.9,2.9-3.8,4.9.6-4.1,3.8-12.4,3.4-13.7l-2.9.6-1.9-2.1c-1.1-5.8,1-9.4,6.4-11.4Z"/>
  <path fill="#f8fcd8" d="M197,1466.7l2,.4c3.5,3,8.1,5.2,8.7,10.3,1,8.1-3.2,9.3-9.6,10.1-4.3.4-5.9.5-9.2-1.9-3.9-7.9,2.1-14,8.1-18.8Z"/>
  <path fill="#ecf7b7" d="M178.1,963.5l.9.2c4.4,6.7-1.6,43.6-1.3,51.7-2.2-10.2-8.6-38.2-5.7-48,.9-3,3.3-3,6.2-3.8Z"/>
  <path fill="#ecf7b7" d="M216.8,1410c4.5,3.3,3,32.7,2.1,39-.3,2.2-1.1,2.3-2.7,3.2l-2.3-1.9c0-10.2-6.7-25.1-2.7-34.9,1.3-3.1,1.4,1.1,5.6-5.4Z"/>
  <path fill="#ecf7b7" d="M214,1221.5l1,.3,2-1.3c3.8,3.6-7.6,53.1-2.1,62.8-.7.7-.2.3-1.7.9-.9-1.8-1.4-2.8-2.4-4.5l-1.8.6c-1.6-2.8,3.5-52.6,5-58.8Z"/>
  <path fill="#e8f6a2" d="M378.2,1308.5c.6-6.4.8-12.3,1-18.5.2-5.5-3.1-25.6-.4-28.4l1.4.3c5.8,9.8,8.5,38.1,5.2,49-.4-3.6-.6-4.9-1.4-8.4-3.5,3,.3,2.3-5.6,5.9Z"/>
  <path fill="#9dc828" d="M424.4,970.3l-1.3,6c-1.2-4.9.3-10-3.4-13.8,1.2-5.3,2.2-7.4,4.2-12.3l1.2-.2c4,6.3,5.9,20.2,6.1,27.5,1.1,3.5,1.6,6.1.3,9.4l-1.6.3c-5.5-4.5-5-10.4-5.6-16.9Z"/>
  <path fill="#9fc244" d="M424.4,970.3l1-2.6,1.4.2c3,4.8,2.5,5.7,4.5,9.6,1.1,3.5,1.6,6.1.3,9.4l-1.6.3c-5.5-4.5-5-10.4-5.6-16.9Z"/>
  <path fill="#9dc828" d="M330.6,1028c.6-2.7-.2-1.8,1.7-3.4l3.4,1.2c4.1,15.8,7.1,31.3,11.4,47.3l-.7,1-1.4-2.8-1.9.3-.8,1.2c-5.1-15.7-8.2-28.5-11.7-44.8Z"/>
  <path fill="#9fc244" d="M299.1,1072.5c1.3.4,1.4.6,2.6,1.4,1.2,5.1-2.7,14.8-4.5,19.8l1,1.1c2.6-6,5.2-12.1,7.7-18.2,0,3.7-3.2,12.2-4.5,16.1-2.1,6.8-4.3,17-10,21.6l-.8-1.2c-.5-9.5,5.9-30.4,8.5-40.7Z"/>
  <path fill="#9fc244" d="M185.2,1225.1l.4.2c-1,4.3,1.2,7.3.5,9.7-4.2,15.4-8.7,30.5-12.6,46-.6-2.5-2.1-5.8-2.8-8.8,1.2-5.6,12.8-45.3,14.6-47.2Z"/>
  <path fill="#9dc828" d="M249.3,1079.1c-4.3-6.4-2.6-37.6-3.4-49.3l1.3-1.5c2.6,3.3,6.3,35.1,5.7,41-4.4,3.2-3.9,3.4-2.9,8.7l-.8,1Z"/>
  <path fill="#9fc244" d="M418.1,1274.5c8.3,11.3,3,40.9,1.9,56.3l-.4-8c.2-3.3-.2-4.1-2.8-5.4l-2.8,1.8-.4-1.1c1.5-4.3,2.9-8.2,3.8-12.6,1.1-5.3-.7-28,.6-30.8Z"/>
  <path fill="#ecf7b7" d="M356.8,1279.3l1.6,2.4c2-.6,1-.5,3.1-.2,1.6,2.4,1.3,21.3,2.3,27.9l.3,1.9c-.8,1.4-.2.8-2,1.4-1.7-4.6-3.2-5.7-5.4-9.7-3.7-6.8-1.4-16.3,0-23.7Z"/>
  <path fill="#ecf7b7" d="M265.4,1025c2.5,3.4,2.4,4.2,6.1,6.4h2.6c0-.1,1.4-2.1,1.4-2.1.6,4.6,1,21-2.1,24l-1.6-.6c-5.3-7.6-4.5-16.9-6.6-26.5v-1.1Z"/>
  <path fill="#ecf7b7" d="M453.2,1007.2c-1.6,5.9,2.1,13.5-1.4,19.8l-1.5.2c-1.5-8.2-10.6-17.2-6.5-24.1h0c2,1.9,2.5,2.7,5.1,3.4,3.4-1.6,2.4-1.4,4.3-6.1v6.7Z"/>
  <path fill="#e8f6a2" d="M277.8,1038.4c.8,3.8,1.3,8.1,3.1,11.4l2.7.6c0,8.5.2,25.6-2.1,33.1-3-4.2-3.8-37.9-3.7-45.1Z"/>
  <path fill="#9fc244" d="M186.3,1100l1.9.2c3,2.9,7.4,23.8,5.1,27.3l-1.2-3.7c-5.4-4.1-8.8-11.7-8.6-18.6.1-3.8,0-2.6,2.9-5.2Z"/>
  <path fill="#9dc828" d="M177.7,1425.9l1.7,1.3c2.6,7.1,1.2,19.5-.2,26.8l-1.2.3v-1.8c-1.9-3.8-.7-2.5-5.1-4.4-1.1-7.7,4.2-14.3,4.8-22.2Z"/>
  <path fill="#9fc244" d="M179.1,1332.9l1.7,1.2c2.2,4.2,1.4,27,.9,32.6l-1.5.9c-4.1-14.9-4.9-19.4-1-34.7Z"/>
  <path fill="#9dc828" d="M315.4,962.4c2,4.5,1.4,24.7-1.7,28.2-1.7-2.2-1.1-5.4-1-8.4l-.5-.6c.2-2.5-.9-6-1.5-8.6l-.6,1.3c-.5-5.7-.8-9.7,5.4-11.8Z"/>
  <path fill="#9fc244" d="M267.4,1061.9c6.5,3,8.7,15.2,4.9,21.5h-2.4s-1.7-1.6-1.7-1.6c-1.5-5.6-2.3-14.3-.9-19.9Z"/>
  <path fill="#ecf7b7" d="M399.3,1195.7c1.7,0,2.8.2,4.5.3,2.8,2.3,5.7,4.2,6.8,7.5-1.9,1.8-3.6,3.3-5.6,5.1-.2.3-1,3.3-1.1,3.7-2.4-3.9-4.8-12-4.6-16.7Z"/>
  <path fill="#ecf7b7" d="M230.6,1195.7l.5.3c1.8,11.9,8.9,9.3,5.3,23.9l-1.6,1.2-1.5-1.3c-2.5-6.7-2.5-16.9-2.7-24.1Z"/>
  <path fill="#9fc244" d="M413.2,1323.6c2,.3,1.3.2,3.1,1.2,1.8,6.8-4.2,10.7-9.7,12.8l-.8.5-.8-.9c1.8-5.1,5-9.1,8.2-13.6Z"/>
  <path fill="#9fc244" d="M330.6,1028c-.3-4-4.3-17.1-3.4-19l.5,2.2,1.6-.6c.2-1.4.4-2.3.5-3.8v-1.3c2.3,6.7,4.2,13.4,5.9,20.2l-3.4-1.2c-1.8,1.6-1.1.6-1.7,3.4Z"/>
  <path fill="#e8f6a2" d="M384.9,1125c6.4,1.6,10.6,9.2,6.8,14.7h-1.8c-2.3-2.7-2.6-4.6-3.8-7.9l-1.2-6.8Z"/>
  <path fill="#9fc244" d="M446.1,1132.5l1.8.3c.2,4.5-1.4,8.2-3.7,11.9-2.5-1.5-2.5-1.5-4.5-3.7-.8-3.4-.9-1.8.3-5.1,2.6-2.4,2.5-2.6,6.1-3.4Z"/>
  <path fill="#caec4c" d="M382.4,1428.1l2.2,1.3c1.4,5.5,1.5,10-.5,15.3-1.8-.4-.8,0-2.8-1.4-1.3-5.7-.7-9.8,1.1-15.3Z"/>
  <path fill="#9dc828" d="M364.3,1093.4l2.2.9c.7,4.2-.2,6.5,2,10l-4.8.3-.5-4-.3-6.1,1.4-1.1Z"/>
  <path fill="#ecf7b7" d="M225.3,1171.7c4.1,1,4.6,5.2,3.8,8.7-1.7-1.5-2.9-2.2-4.8-3.4-.8-2.2-.1-2.4,1-5.4Z"/>
  <path fill="#9cd10a" d="M632.4,344.2c1.8,2.5,1.6,2.7,4.5,3.7,7.5-2,11.4-15.9,15.7-22.6,16.4-25.1,54.1-27.7,78.8-14.6,17.8,9.4,28,31.6,32.7,50.7l.5,2.2c13.7,9.9,20.9,15.5,13.3,33.4-4.1,3.2-6.8,5.1-11.2,7.9-6.3,45.1-26,81.9-77.8,73.6-14.7-2.4-20.6-10.7-30.8-20.3-1.4,2.9-8.8,19.8-9.2,20.4-5.3,2.7-8.5,8.7-14.4,6.1-10.9-4.9-10.8-4.9-22.2-1.6v-1.1c0,0,2.7-2.5,2.7-2.5-8.8,1.3-16.4,4.1-24.9,3.8l-1.1,1.5c-5,.8-7.1,1.6-12,.3-1.9-.5-2.1-.6-4.1-.5-6.2.1-12.4.2-18.6.1-7.4-2.4-12.7-6.9-18.6-11.8-12-11.1-21.3-30.4-24.2-46.2-.9-1.8-.7-2.4-1.1-4.5-3.6-5.7-4.1-6.8-10.5-8.5-8.2-10.1-8.5-11.1-4.9-23.4,4.2-5.3,7.7-5.6,12.9-9.5,7.6-30.9,14.6-60.4,48.9-72.2,9.8-3.4,32.3-3.9,41.8.9,2.1,1.1,4.5,2.3,6.3,3.7,4.6,2.1,12,7.5,15,11.4,6.7,7.6,8.5,10.3,12.4,20Z"/>
  <path fill="#9cd10a" d="M508,380.4c7.6-30.9,14.6-60.4,48.9-72.2,9.8-3.4,32.3-3.9,41.8.9,2.1,1.1,4.5,2.3,6.3,3.7,4.6,2.1,12,7.5,15,11.4,6.7,7.6,8.5,10.3,12.4,20-7.1.8-8-7.6-13.5-9.3-1.5,4.4,9,33.9,10.1,39.4,4.7,22.9-1.1,60.5-12.7,80.6-4.7,8.1-14.3,18-20.7,24.6-1.9,1.4-3.5,2.4-5.4,3.7l-1.1,1.5c-5,.8-7.1,1.6-12,.3-1.9-.5-2.1-.6-4.1-.5-6.2.1-12.4.2-18.6.1-7.4-2.4-12.7-6.9-18.6-11.8-12-11.1-21.3-30.4-24.2-46.2-.9-1.8-.7-2.4-1.1-4.5-3.6-5.7-4.1-6.8-10.5-8.5-8.2-10.1-8.5-11.1-4.9-23.4,4.2-5.3,7.7-5.6,12.9-9.5Z"/>
  <path fill="#9fc244" d="M495.1,389.9c4.2-5.3,7.7-5.6,12.9-9.5l.8,4.7c7.3,4.4,50.4-11.8,48.6,13.8-.3,4.4.8,6.4-2.6,10.3-10,4.8-31.1,1.1-42.5,1-4.1,0-1.8,8.6-1.7,11.8-3.6-5.7-4.1-6.8-10.5-8.5-8.2-10.1-8.5-11.1-4.9-23.4Z"/>
  <path fill="#fafdea" d="M528.1,387.9c8.4-.4,23.9-2.3,26.6,8,2.1,8-5.8,11.1-11.7,11.6-9.6,0-18.4.2-28-.3-.2-13.9-2.6-18.6,13.2-19.2Z"/>
  <path fill="#e8f6a2" d="M503.4,389c11.5.8,6.9,14.9.8,20.7-10.6-5.3-6.5-14-.8-20.7Z"/>
  <path fill="#caec4c" d="M598.7,309.1c2.1,1.1,4.5,2.3,6.3,3.7,4.6,2.1,12,7.5,15,11.4,6.7,7.6,8.5,10.3,12.4,20-7.1.8-8-7.6-13.5-9.3-1.5,4.4,9,33.9,10.1,39.4,4.7,22.9-1.1,60.5-12.7,80.6-4.7,8.1-14.3,18-20.7,24.6l-3.6-.3-.6-1.9c15.2-7.7,21.7-24.6,25.3-40.6,1.1-4.7.5-12.9,2.9-16.8,1.5-2.5,1.3-2,1.6-5.1l-1.1-1.2c-.8,2.8,0,2-1.8,3.2-.2-1.7-.4-1.3.4-2.8,3.5-6.9,2.2-15.2,2.9-23.8l.9,4.6c1-3.2,1.4-3.6,1.2-7l-1.2-.2,1.4.7-2.9-.4c3.4-21.6-7.8-47.4-22.5-62.8-6.3-6.7-9.5-3-13.8-7.2v-2.1c1.4-2.6,3-2.8,5.8-4l1.1-.5-.6-.2.7-.7c2.4-.4,4.6-.9,6.9-1.4Z"/>
  <path fill="#9dc828" d="M605,312.8c4.6,2.1,12,7.5,15,11.4-2.8,1.1-4,3.5-6.8,5.5-7.8,1.4-15.3-5.9-12.5-13.7,2.3-1.1,2.9-1.2,4.3-3.3Z"/>
  <path fill="#9dc828" d="M511.5,426.5c8.3,4.2,24.2,36.5,24.2,46.2-12-11.1-21.3-30.4-24.2-46.2Z"/>
  <path fill="#9fc244" d="M577.1,485c1.1-2.1,9.5-6.9,12.2-8.7l2.1,1.1.6,1.9,3.6.3c-1.9,1.4-3.5,2.4-5.4,3.7l-1.1,1.5c-5,.8-7.1,1.6-12,.3Z"/>
  <path fill="#caec4c" d="M556.6,334.5c18-.5,37.9,28.4,40.7,44.8,2.6,15.1,6,41.4-2.6,55.1-6,9.5-10.3,23.6-21.4,26.1-2.3-.6-2.8-.8-5.1-.3-2.8-.1-1.9.5-3.7-.9.2-.2,2.4-1.9,2.7-2,7.4-3.1,13.5-16.1,15.9-23.3.8-2.4,1.5-8.6,2.6-11.8,1.7-3.2,3.6-8.2,5.3-11.2,3.9-6.7-3.7-19.9-3.5-22.1l2.1-.2c1.3-10.1-3.9-7-6.9-15.2-.7-4.9-1.6-10.3-2.1-15.3-1.2-11-14.7-18.3-24.1-23.8Z"/>
  <path fill="#caec4c" d="M557.4,379.3c14.7,2.9,11,27.7,5.1,37.6l-2,.4c-1.9-5.4,11-14.8-3.1-38Z"/>
  <path fill="#caec4c" d="M719.2,319.1c.3,0,.7.1,1,.2,30.8,19.2,34.1,71.1,27.9,102.2-2.7,13.5-11.7,31.6-19.1,36.5l-1.5-.5c-.3-3.1.3-2.9,1.8-6.1-.1-.4,0-1.8.1-2.3,10.8-10.6,4-20.6,10.1-26.3l2.7.5c3.3-4.9,2.8-24.4,2.7-30.5v.5c1.1-20.7-9.9-42.8-16.2-62.5-.3-.8-7.9-9.2-9.5-11.6Z"/>
  <path fill="#e8f6a2" d="M686.1,379.7c14.4-1.2,13.8,14.8,7,23.5l-1.7-.3c-1-2.6.6-7.5,1.2-10.6-2.4-3.4-6.4-8.8-6.5-12.7Z"/>
  <path fill="#9cd10a" d="M163.7,1518.3l.7,1.7,1-.2c2.9-9.6.4-20.6,4-30.7,5.4-4.6,29.8,7.1,38.6,2.4,9.8-5.2,13.5-9.1,16.1,5l.2,1.3,1.3.8c2.6,11.8,3,34.2,8.5,42.9,13.9,21.9,38.1,36.9,52.6,58.1,4.2,6.2,11.3,14.2,6.9,22-.7,1.9-6.2,5.8-8.1,5.8-23.5,0-52,2.4-75.1-.3-15.1-1.7-51.4-40.2-52-54.9-.6-15.5,8.1-25.8,2-43.3l3.1-10.7Z"/>
  <path fill="#9fc244" d="M33.5,887l3.1-11v1.1c.3,3.6.3,4.5-.2,8-1.5,10.7,3.5,21.1-.3,31.2l.5.9c4.7,9.7,6.6,16.7,6,27.5-2.8-7-5.5-15.6-7.9-22.7-11.1-3.8-24-11.5-16.9-26.6,2.9-6.1,9.6-7.1,15.8-8.4ZM30.6,912.3c1.9-6.6,3.3-14.4-5-16.4-3.4,7.4-2.8,12.3,5,16.4Z"/>
  <path fill-opacity="0" d="M485.8,393.9l3.2,3.2h1.4c1.5-3.8,1.9-4.5,4.7-7.2-3.6,12.3-3.4,13.4,4.9,23.4-3.3-1-4.6-1.6-7.5-3.4-1.2,13.9,1.9,18.6-3.7,31.9.7-22.5,3-25.2-3-47.9Z"/>
  <path fill-opacity="0" d="M86.2,811.4l1.6-2.9c5-3,20.8-2,26.7-1.2l-.9,2c-4.4,1.8-20.5,1.2-27.4,2Z"/>
</svg>