<?xml version="1.0" encoding="UTF-8"?>
<svg id="fixed_id_0"  xmlns="http://www.w3.org/2000/svg" version="1.1" xmlns:xlink="http://www.w3.org/1999/xlink" viewBox="0 0 1229.7 1681.5">
  <!-- Generator: Adobe Illustrator 29.3.1, SVG Export Plug-In . SVG Version: 2.1.0 Build 151)  -->
  <defs>
    
    <linearGradient id="fixed_id_1"  x1="897.3" y1="1615.2" x2="898.6" y2="1604.7" gradientTransform="translate(0 1673.6) scale(1 -1)" gradientUnits="userSpaceOnUse">
      <stop offset="0" stop-color="#fcfcf9" stop-opacity=".5"/>
      <stop offset="1" stop-color="#fcfcf9" stop-opacity=".5"/>
    </linearGradient>
    <linearGradient id="fixed_id_2"  x1="1031.2" y1="1619.5" x2="1034.7" y2="1602.1" gradientTransform="translate(0 1673.6) scale(1 -1)" gradientUnits="userSpaceOnUse">
      <stop offset="0" stop-color="#fcfcf9" stop-opacity=".6"/>
      <stop offset="1" stop-color="#fcfcf9" stop-opacity=".7"/>
    </linearGradient>
  </defs>
  <path fill="#bad858" d="M783.9,90.8c-.9-9.9-2.5-34.6,3.5-42.6,4-1.8,10.7-3,15.1-3.3,62.7-5,124.7-9,187.4-14.8,51.6-4.8,113.7-7.7,147.3,40.3,15.9,23,24.3,65.4,24.8,93.2.7,40.4-1,81.8-2,122.3l-4.6,209.8-10.4,685.4-4.4,165.2c-.4,19.1-1.8,57.6-.5,75.7,11.5,3,22.6,5.2,33.8,6.9,10.5,1.7,30.9,4.8,35.6,15.3,4.4,9.9,4.3,37.5,3.3,47.9-10.6,8.7-26.5,15.5-40.1,13.2-16-2.7-35.9-5.2-46.4-18.5-13.5-4.5-50.9-18.6-62.3-16.9-22.7,4-44.2,14.5-66,22.1-13.7,4.8-28.8,8.1-42.1,13.3-36.9,14.5-74.4,25.4-111.7,38-65.7,21.8-131,44.5-196.1,68.2-14,5.1-28,9.9-42.2,14.4-24,7.5-29,6.5-46.4,24-7.5,7.5-41.8,17.1-52,12.7-2.2-.7-6.7-2.8-8.7-3.8-4-1.1-6.5-2.3-10.4-4-6.4-2.1-8.4-3.2-13.8-7.1-3.6-9.9-3.1-48.9,2.1-57.2,10.4-16.4,75.6-17.7,84.9-30.3l-.3-1.7c-2.2-2.1-4.7-3.7-7.5-4.6-47.9-16.1-95.1-35-143.5-49.8-8.3-2.6-30.3-13.6-37.2-13.5-11.9,10.6,13.9,39.2,20.5,48.9,12.9,18.7,29.2,28.8,40.5,49.3,8.9,16.2,21.2,34.8-6.5,39.8l-1.4.3c-14.3,3.5-60.1-2.6-78.7-3.3-9.7-9.3-25.6-13.5-33.8-25-4.2-5.9-6.3-13.8-10.1-19.9-5.3-8.6-12.2-16.1-16-25.6l-.4-1.2c-4.4-13,.3-19.2-.2-31.5-.8-19.1,4-36.9,4-55.6,0-3.5-9.2-9.4-12-10.6-36.7-15-80.2-32.3-118.7-40.4-16.6.6-33.4,5.9-49.5,9.5-9.3,2.1-16.1,11.3-23.7,13.9-56.5,19.3-78.7,6.4-68.1-53.8,13.4-9.1,40.8-14.5,57.6-11.2l1.2.2c16-6.5,79.9-17.3,88.4-23.5,7-20.2-.5-83.7-.1-108.4.3-17.3,2-52.6-.7-68.1l-.8-.9c-12.3-14-17.2-11.6-22.1-31.6,7-21.3,17.6-17.3,24.9-29.6,5.9-10,6.8-61.8,1.9-74.3-2-4.9-9.9-9.6-15.1-11.2-33.2-9.7-69.4-11.8-101.5-24.5-3.9-1.6-9.4-7.7-11-11.6-6.7-16.2-6.2-44.6,13.1-52,18.9-7.2,39.1-4.7,58.3-9.9,2.2-.6,6.1-4.1,6-5.9-1.2-26.8-2.3-52.4,3.3-79.1,2-15.2,6.7-27.7,12.5-41.5,6.5-15.4,23.3-31.3,27.8-46.1,3.3-10.8,8.5-34.3,1.5-43.5-7.4-9.6-13.5-18.9-10.4-30.9,2.4-11.4,15.8-24.9,15.4-34.8-.8-19.7-13.9-37.8-17-58.8-2.5-16.9-.7-28.2-1.1-44.6-.7-13.5-6.6-25.1-6.4-38.8.3-20.9,9.2-39.4,15.1-58.8,5-16.5,6.8-30.9,18.2-44.8,10.5-12.8,25.2-19.9,37.5-30.6,14.7-13.5,24.4-30.6,42.6-40.4,17.5-9.5,56.6-26.4,61.8-46.8,5.2-26-11-52.4-16.2-77-8.4-39.2,1.8-80.6,38.1-102.6,40-24.3,105.8-16.4,131.9,25.4,8.9,14.2,15,48.4,15.4,65.5,0,4.6-2.6,13.9-3.8,18.6.9,2.2,4.6,10.8,4.4,12.8-2.5,28.2-8.7,56.1-16.5,83.4-3.5,12.5-43.3,9.7-35.6,25.7,3.3,6.8,25.5,20.8,33.2,24.3,12.9-5.9,16-3.4,28.6-6.9,5.2-1.5,12.1-5.7,19.2-7.8,7.2,2.3,17.6,4.9,24.4,8.2,23,11.1,41.7,30.7,51.2,54.3,25.3,13.4,35.9.2,61.2-1.4,6.8-.4,13.3-.1,20.1.4,5.7.5,31.6,6,34.3-.4,4.7-11,4-19.6,12.8-29.2l3.4-3.7c1.1-9.5-.2-11.1,7-19.2,6.8-7.5,29.4,0,30.5-6.2,6.8-38.4,8.8-78.5,12.3-117.5,1.4-15.4,4.1-36.5,4.1-51.1,0-19.6-18-37.1-3.3-59.8,8.5-13.2,19.8-14,7.4-28.6ZM1015.7,37.7c-49.4,3.1-98.6,7.4-147.8,11.9-23.1,2.1-50.2,2.1-72.8,6.1-2.5,12.1-2,19.4-1.1,31.8,5.8-.3,11.5-.7,17.3-.8,6.9,14.9,14.9,6.8,24-.5,28.5-4.5,61.2-5.7,90.1-7.6,38.6-1.8,78-8.6,116.6-6.4,29.9,1.7,51.5,35.1,54.8,62.6,2.1,17.9,2,34.7,2,52.7,0,30.1-.3,60.2-1.1,90.3l-3.7,203-7.9,515.9c-1.4,94.4-1.9,190.5-4.6,284.7,0,11.5,1,22.1.7,33.6-.7,30-5.1,80.8-1.1,109.5,10.1,5.7,19.3,7.6,30.8,7.6,10.6,0,20.3-2.8,20.1-15.2.4-26.6.8-53.2,1.4-79.8l3.3-171.4,11.4-680.7,4.4-208.6c1.4-59.2,9.8-124.4-11.7-181-5.5-14.5-19.8-33.6-34.1-40.6-3.2-1.5-7.2-1.6-9.1,2,2.4,5.9,11.3,15.6,12,22.2-5.3-3.8-8.2-10.5-13.7-15.6-26.9-25.3-45-28.2-80.3-25.6ZM646.5,1318c-3.1,7.8-11.1,29.6-5.9,37,10.4,3,59.1-10.6,72-14,.8-5.6,1-13.1,5.8-16,9.7-5.8,33.9-13.9,44.9-11.4,10.1,2.3,20.4,8.1,30.8,10.3,2.9-30.8,2.2-79.1,2.4-111.3l.7-174.7.5-84.8c0-10.6,1-47.8-1.3-56.1-4.4-1.3-13.3-.4-17.9.2-22.1,2.5-46.9,1.6-65.5-12.2-16.2-12.1-24.9-35.5-36.4-51.2-1-1.3-3.5-1.3-5.2-1.2-41.5,5-110.8,12-149.4,22.5,49.1,21.7,91,54,124.6,96.2,8.7,10.9,15.1,25.6,23.3,36.8,10.5,13.3,25.8,27.3,31.8,43.3,5.3,14.4,11.7,45.8,4.3,60.2-12,23.1-5.8,38.9-10.4,60.4-11.9,55.9-29.8,112.2-49.1,166.2ZM533.9,1379.7c7.7-1.8,14.4-2.2,19.2-8,1.8-8.7-.5-25.6.5-35.5,3.1-32.6-4.5-61.8-13.5-92.9-15.5-53.5,9.9-101.4,41.2-143.3,1.8-2.4,4-5.3,3.7-8.5-2.8-4.1-6.9-4.5-11.7-5.3-26.5-4.7-53.1-7.7-79.1-15.1-16.4-4.7-35.2-16.8-51.9-17.5-4.2,14.6-5.1,48.1-7.4,65l-29.5,225.5c-1,7.2-12.7,64-3.1,63.1,43.6-4.3,89-16.7,131.7-27.4ZM1042.1,843.8l7,8.7c5.4.1,12.9-.5,16,4.1,7.1,10.2-2.2,20,13.7,23,.9-12.5.4-25.3.9-37.8,1.5-37.5,1.3-74.9,1.8-112.5l3.6-272.7,3.8-207c.5-34.8,3.2-72.8-.8-107.3-3.3-27.8-9.2-53.3-42.4-54.8-2.2,13-1.2,64.1-1.4,79.4l-2.1,148.5-4.2,347.4-2.1,92.9c-.5,23.4-3.9,38.1,5.3,59.7.9,2,.8,24.3.9,28.5ZM1011.4,801.5c0-35.3,1-71.1,1.3-106.5l4.4-357.9,3.2-162.1c.3-25.2.5-50.4-.1-75.5-.4-17.1-11.7-14.8-24.5-14.3-7.7,1.3-14.1,1.5-14.5,11.7-.5,11.7,6,23.7,6.6,34.9.9,15-4.5,30.6-6.5,45.4-1,20.2-.6,43.6-1,64.1l-4.8,374.2c-.9,45.6-1.6,91.2-2,136.7-.2,13.2-1.4,31.6,0,44.7.2,1.6,3.9,7.9,4.5,11.7,1.2,8.3-3.1,29.3,5.8,33.2,3.3,1.5,9.1,1.4,12.8,1.4,4.1-.2,3.3.5,6.1-1.6,5.8-14.2-8.7-25.4,8.7-40.1ZM923.5,788.1c2.4,2.2,5.4,4.7,7.6,7,0,6.8-.6,33.3.4,38.4,29.6,5.8,20.7-4.1,21.1-28.6,2.5-2.4,5.4-5.1,7.7-7.7l6.8-425c.9-45.1,1.4-90.3,1.6-135.4,0-10.2,1.4-44.3,0-52-2.8-1.6-2.1-1.1-6.1-.5-8.4,2.5-25,5.4-31.2,7.9-4.8,14.2-3.7,130.5-3.9,152.4l-3.2,328.6c-.5,37,.7,78.6-.8,114.9ZM751.6,1502.3c8.3-3.2,24.5-9.5,32.9-11.7,34.7-12.4,71.9-23.3,106.9-35.2,11-3.7,43.9-12.8,52-17.5,1.2-3,1.3-1.7.4-4.2-15.8-8.4-56.9-16.5-75.4-22.9-11.7-4-81.1-26.4-87.9-24.7-28.9,5.2-61.9,15.2-91,21.6-12.6,2.8-47.3,8.9-56.5,13.6l-1.1,1.7c2.3,9.8,39.7,35.5,49.3,42.4,9.8,7.1,26.9,7.4,37.2,11.8,10.6,4.4,23.3,17.5,33.2,25ZM803.6,180c13.8.8,86,3.7,94.1-5.1,6.6-7.2-1.1-36.1.5-46.2,1.2-7.5,7.1-20.4,5.6-27.5-.2-1.1-.3-1.2-.8-2-4.8-1.8-14.8-.7-20.3-.3-20.4,1.7-40.8,2.9-61.2,4.3-13,.9-24.1,1.5-33,12.6-17.1,21-8.7,52.6,15,64.2ZM635.6,1385.7c-4.4,5.4-9.1,9.6-8.5,16.3,3.5,7.4,10.4,6.2,17.1,4.8,27.7-5.7,55.2-12.7,82.7-19.2,13.6-3.4,42.8-8.3,54.7-12.9,19.3,4.8,38.4,10.1,57.5,15.8,41.2,13,84.1,24.1,125.4,37.3,4.7,1.5,24.3-5.8,27.8-10.5,0-1.3.5-2.7-.4-3.1-28.9-11.8-86.6-25.8-114.8-34.4l-66.1-20.6c-7.3-2.2-19.7-6.8-26.7-8-25.6,4.4-55.9,13.8-81.8,20-13.4,3.3-26.8,6.3-40.2,9.2-8.3,1.7-18.7,3.2-26.5,5.3ZM809.2,586.4c4.6,4.9,6.4,6.7,12.3,10.3,3.7,1.9,2,1.9,5.3,1.4,3-3.7,1.5-26,1.6-32.4.5-28.8.7-57.6.5-86.5l1.1-178.9c.3-36.4,0-73.8,1.3-110-5.9-.2-11.4-.4-17.3-.1-4,4.5-3,25.3-3.1,32.8-.2,20.5-.3,40.9-.3,61.4v54.4c0,9.1,0,18.5.2,27.6.4,6.5,6.1,10.5,6.4,17.1.4,8.4-6.8,15.8-7,23.8-1.2,49,.5,98.1-.8,147.1-.2,9.7-1.3,22.7-.2,32ZM871.6,832.6c3.4-.3,10-.4,12.3-3.6,7.7-10.9-.8-29.4-.2-41.2.2-4.2,6.5-20,8.9-23,2.9-77.2,1.3-153.9,3.1-231,0-1.7-3.1-4.3-4.3-5.4-1-4.7,1.4-6.3,4.3-9.8,1.5-6-1-5.5-1.1-9.6-.6-16.3,6.3-57-1.2-71.2l-.7-1.3c0-7.3,5.7-15.1-1.3-20.3-8.5,25.4-9.8,53.6-13.4,80.1-2.4,17.8-4.8,32.8-5.3,50.8-.4,15.4,3,31.5,1.4,45.8-1.3,11.5,5,20.2.4,27.2-3.9,6-3.4,23.9-3.4,31.6l5,6.9c-8.7,18.6,4.3,27-3.6,47.9-4.1,10.9,1.5,42.2-.2,54.6-.4,16.6-3.9,56.6-.7,71.6ZM612.2,1546.7c3.6-1.1,7.1-1.7,9.6-4.3.1-4.9-8-7.1-12.2-8.6-27-9.6-54.6-17.5-81.7-26.7-53.1-17.8-105.9-36.6-158.3-56.6-3.4,5.6-7.4,23.6.1,26.8,28.7,12.3,59.6,20.7,88.7,32,40.2,14.6,79.9,30.8,120.6,43.9,13.5,4.3,20.6-2.6,33.1-6.6ZM739.3,606.3c20.7-17.7,25-17.9,51.4-20,2.7-.2,6.9-.2,9.4-1.6,1.8-1,2.2-7.3,2.3-9.4,1.3-15.3,3.3-136.1-1.2-142.4-.5-.7-1.1-.9-1.8-1.3-3.6,4.8-11.7,15.4-13.9,20.6-4.8,11.2-7.8,25.4-11.5,37.2-2.9,9.1-16.2,29.9-17.7,34.3-3.6,10.8-23.5,72.3-23,78.6,2,2.6,3.1,2.8,6.2,4.1ZM642.2,553.2c7.2-4.9,12.4-8.4,18.6-14.5,6.7-7.6,11.7-12.4,16.2-21.5-4.7-14.2-21.2-59.2-34.1-64.2-12.2-4.7-43.2-6.9-59.4-10-1.1,6.8,12.5,26.6,14.4,34,2.5,9.7-.3,16,5.9,25,5.5,8,14.3,14.7,19.5,21.7,6.5,8.8,11.7,20.5,18.9,29.5ZM95.8,1422c15.6-5.4,52.5-15.5,68.3-13.7,22.8,2.7,51.1,17.9,73.5,23.4,8,2.9,44.6,17,50.1,15.8,3.3-2.9,4.4-6.8,4.7-11.2.2-4.2-.6-8.8-3.6-12-2.1-2.2-4.9-3.4-7.7-4.5-13.6-5.6-116.9-42.1-122.7-41.9-1.2,0-2.4.2-3.6.4-9.6,1.9-48.1,9.4-56.1,15.3-3.1,2.3-2.9,22.3-3,28.3ZM817,1343.3h3.7c3.6-3.6-.5-35.2-.6-43v-308.2c0,0,.7-83.5.7-83.5,0-7.2,2.1-43.5-.9-47.5-2.9-1.6-2.7-1.6-5.9-2.3-1.3,2.1-3.3,5.5-3.3,8,0,12.2.4,24.9.6,37.1.2,22.3.1,44.6-.1,67l-2.7,252.2-1.5,71.3c-.2,11.6-1.2,32.6,1.1,43.3,3.3,3.8,4.3,3.9,9.1,5.7ZM1032.6,979c-.8,13.3-3.3,86.3-.5,96.4,2.3,2.4,3.5,2.5,6.6,3.6,7.3,1.7,28,6.9,35,2.9,1.8-1,2.5-14.8,2.4-17.1-.7-18.7,2.8-76.9-.6-91.9l-1.4-1.4-3.5.2c-13.1,1.9-25.4,5.5-38.1,7.4ZM650.2,1533.3c3.3-1,5.9-1.2,7.9-3.8,0-1.1.2-2.4-1-2.9-50.9-19.6-104.1-38.3-156.1-54.7-29.8-9.4-90.4-36.3-119.2-36.2-4.4,2.3-4.1,1.3-6.5,5,.6,2.2,1.2,3.2,3.5,4.1,26.7,10.2,54.6,18.3,81.5,27.9l121.6,42.5c17.3,6.1,34.4,13.6,51.9,19.1,5.7,1.8,10.6.1,16.5-1.1ZM833.7,872.3c13.8-13.3,24.3-11.9,22.6-35.9-1.8-23.8,7.8-143.6,1.1-159.2l-1.9-1.4c-3.4,8.8-20.2,40.5-20.6,44.9-3.6,38.2-3.7,79-.2,117.2.9,10-5.5,23.6-1,34.4ZM795,360.5c2.9,2.4,4.9,4,8.1,6.2,1.8-48.9.5-98.3,1.4-147.3.2-9,.4-18.7,0-27.7-4.9-3.4-9.1-7-14.8-8.4-3.2,38.3-8,76.7-10.9,115-1.1,15.3-3.9,35.2-3.9,50.1,8.8,4,12.7,5.6,20.1,12.2ZM194.1,1376.2l2.3-1.5c.7-4.4-.7-26.7-1-32.4-1.8-43.4-3-87.1-4.2-130.5-.5-18.5,2.1-60.9-.5-75.8-5.8-5.8-6.5-6.8-14.6-7.6-4.1,6.3-.8,25.8-.5,34.6,1.7,65.8,3,131.6,3,197.4,0,8.7,7.9,14,15.5,15.8ZM269.2,1325.4c4.6-4.4.4-18.4-.9-24.4-4.5-21.8-10.1-44.1-5.3-66.4,1.3-6.2,6.5-18.8,1.2-23.4-5.5-4.7-21.8-7.3-28.9-7.4-4.6,7.9.3,114,1.6,128.3,10.7-2.4,21.5-4.7,32.3-6.8ZM226.3,1111.9c10,12.6,6.8,16,8.7,30.6,13.5,5.2,48.2,18.9,62.6,13.8,1.8-.6,5.4-4,6.9-5.6,4.3-5.5,9.3-10.2,9.4-17-14.5-17.1-47.3-25.6-64.2-41.3-4.7-4.4-14.8-12.3-21.2-12.8-2.3,11-2.3,21-2.2,32.2ZM589.5,415.5c-21.8,20.7,36,21.6,45.5,20.4,2.3-2.4,3.3-2.9,3.9-6.2-1.1-3.5-.1-2-2.8-4.5-9.1-1.5-17.6-2.5-26.7-4.3-5.5-1.1-16-5.1-19.9-5.5ZM759.4,711c-1.1-10.5-6.5-38.1-19.8-37.9-3,7.8,4.3,14.5,5.1,21.4,1,8.1-8.6,18.9-6.4,28.1,3.3,3.8,5.2,3.6,10,2.1,5-4.7,7.6-7.5,11.2-13.7ZM388.3,1121.1c-.5,6.2-2.3,20.8,5.4,23.2,1.8-.9,3.4-2.1,4.3-3.9,3.9-19.4,19.6-43.2-12.1-39.3-6,8.5-4.1,12.8,2.3,20ZM760.2,808.3c-7.3,7.9-7,8.9-16.2,14.9-12.4,8-51.6.6-50.7,16.8.3,6,17.2,26.5,22.1,31.2,10.1,8.8,38.1,22.7,46.8,12.5,5.5-6.4,5.9-68.3-1.9-75.4ZM791.8,887.2c13.9-8.8,11.1-31.8-9.2-29.5-12.8,6.5-16.1,33.8,9.2,29.5ZM404.9,1089.5c1.1-1.8,2.6-3.1,1.5-5.3-3.5-6.9-15.5-31.9-22.3-34.6-2.2,4.9-4.3,16.8-3.6,21.9,1.7,12.4,13.7,16.6,24.3,17.9ZM705.6,1569.5c12.3-2.7,40.8-7.3,49.2-14.8l.9-2.4c-1.6-3.5-.4-2.2-3.6-4.2-1.9.1-3,0-4.9.5-14.8,4.5-39.9,6.8-48.8,19.9l.7,1.6c2.6,0,3.9.1,6.4-.6ZM639.1,1593.2c6.8-1.7,19.9-3.7,23.9-8.4.4-3.1.7-1.6-1.2-4.5-3.7-1.6-4.1-1.5-8.3-1.7-10.5,3.5-34.9,9.7-42,15.7l-1.1,2.4c1.4,3.4,9.2,4.4,12.6,4.5,8.8-1.6,9.9-1.2,16.1-8ZM858.6,1519.8c6.5-2,29-8.5,33.4-11.7-2.4-4.8-5.4,1.6-6.5-8.4l-1.8-1.1c-7.1,2.2-35.7,10.3-34.1,19.4,3.6,3.1,4.1,2.8,9.1,1.7ZM583.7,1616.7c6-2.1,19.8-6.2,16.4-14.8-3.3-2.7-5.9-3.3-10.2-3.5-8.1.7-18,3.5-18.2,13.6,2.7,5.7,6.3,5.1,12,4.7ZM703.4,672.1c8-.8,11.1-.2,17.2-6.5,6-6.3,8.3-38.5,2.4-43.5l-1.6-.4c-9.2,11.1-37.7,38.1-18,50.5ZM333.8,1454.7c3.1-2.6,5-4.1,5.5-8.3.7-6.4-1.3-12.9-5.5-17.8-1.6-1.8-2.5-2.1-4.7-2.7-3.9,8.6-12,28.4,4.7,28.8ZM659.3,1061.5c-2.4,2.2-4.1,2.9-4.2,6.2-.2,6.5,7.9,17.1,12.4,21,8.2-4.7-3.6-22.7-8.2-27.2ZM505.7,1464.5c5.7,1.7,20.3,7.1,24.8,4.9,3.8-5.6,3-19.8-.9-24.9-3.2-.8-3.1-.7-6.4,0-7.7,1.4-29.3,3.9-34.2,8.5-.6,6.9,11.3,9.6,16.7,11.5ZM674.8,436.9c4-4.7,11.6-12.3,3.2-18.4-3.6-2.6-11.3-2.3-15.6-1.6-21.8,6.5-6.3,18.8.6,29.1,2.2,3.3-4.6,12.9,9,11.2,5.6-7.6,4.1-10.4,2.9-20.2ZM205.9,1130.2c-4.1,4.3-6.4,8.3-3.6,13.9,3.8,2.9,4.7,3.3,9.7,2.6,1.9-.3,3.7-.6,5.6-1,13-13.8.4-16.3-11.7-15.6ZM341.7,1162.5c3.1-3.8,4.2-5.3,7.9-8.4-.9-6.9-.8-17.6-8-20.8-10,10.9.9,19.8-1.9,28.3l1,1.1h.9ZM740.9,415.1c0-3.5,0-7,0-10.5-12.7-6.5-18.2,6.6-27.7,12-6.2,3.6-17.1,1.8-23.1,8.2-1,4.4,4,7,7.7,7.6,16,2.3,32.5-5.3,43.1-17.3ZM780.2,1548.2c12.8-4.1,29-8.9,41.2-13.8,1.6-2.9,2.3-5.7,5.1-6.5,3.5-1.1,9.4,0,11.1-2.3-.7-1.5-1.7-3.9-3.3-4.2-3.1-.6-11.5-1.8-14.4-1.2-19.4,5.1-30.4,11-47.2,21.4-2.3,1.4-10.1,1.5-14.5,4l.4,1.1c8.1,3,13.2,2.9,21.6,1.4ZM847.5,410.5c-4.6,8-3.8,49-2.9,60.6.2,2.3,1.8,3,3.4,4.1,4.4-7.6,6.1-49.9,3.2-60.4-.7-2.6-1.5-3-3.6-4.2ZM891.9,1053.2c2.6-1.1,6.3-2.7,6.6-5.6,1.7-16,2.8-80-3.1-91.1-6.1-4.1-21.4-3-28.8-2.4-7.4,12.3-5.6,80.5-5.4,97.7.1,10.3,24.3,3.6,30.7,1.4ZM494.8,940.6c1.9,8.3,8.7,25.4,18.1,26.4-1.9-8.7-8.3-24.9-18.1-26.4ZM848.4,246.5c2.9-6.4,5.2-29.9-1.3-33.8-4.4,6.8-5.9,25.2-2.9,32.7,2.1.9,1.9.9,4.2,1.1ZM250.3,1378.2c3.9.6,9.1,2,12.4-.7,7.6-6.1,4.6-17.9.2-24.7-3.2-1.7-1.5-1.3-5.4-.7-7,1.9-16.4,3.8-20.2,10.7-4.8,8.8,6.8,13.5,13,15.4ZM678.5,1041.9c3.2-6.8,3.2-17.4-6-18.9-3.2,7.4-5.7,18.4,6,18.9ZM543.1,1386.2c-17.8,2.9-48.5,10.8-66.7,15.3-21,5.2-61.4,12.3-80.3,19.1l-1,1.5c1.2,5.2,6,6,10.7,7.2,11,0,30.1-5.5,41.5-8.3,31.6-7.7,63.1-16.2,95.1-22.5,4-.8,7.5-4.5,8.6-8.4-.9-3.2,0-1.9-2.8-3.9-2.7-.2-2.4-.3-5.1.1ZM1022.9,1089.8c2.2-13.6,2.9-96.9,1.2-110.9-2.3-3.1-3.1-3.3-7.3-4.5-1.5,7.2-2.6,108.4-1,111.7,2.8,2.4,3.7,2.5,7.2,3.7ZM280.9,1412.2c4.3.3,3.7,1,6.3-1,1.5-3.2,1.6-2.9,1-6.3-5.9-10.3-51.5-23.5-64.3-25.8-3.5,2-7.3,4.1-10.6,6.2,19.1,10.2,46.7,19.3,67.7,26.9ZM963.9,809.1c-2.4,6.2-2.8,27.2-.3,33.5,1.9,1.7,1.7,1.7,4.2,2.1,3.2-7.1,6.2-33.2-3.9-35.6ZM214.8,1375.5c11.7-6.1,11.5-8.3,11-21.6-1.8-46.6-3.3-93.2-3.1-139.8,0-11.5-4.1-15.5-15.3-17.2-12.1,14.3-2.4,76.2-3.6,96.6-.9,16-.4,34.6-.5,50.8.2,8.1-2.7,19.3-2.1,27.1,3.4,5.1,7.9,4.5,13.6,4.1ZM882.1,217.6c2-7.3,4.5-12.4,1.7-19.3-2.1-1.9-2.1-2.1-4.6-3.2-4.5,7.1-3,16.8,2.9,22.5ZM265.5,967.2c1.9,9.5,8.6,13.2,17.8,13.5-.2-8.8-10-13.2-17.8-13.5ZM379.6,1395.4c-3.5,7.2-7.4,19.7-2.7,26.9,4.4-4.8,6.6-21.4,2.7-26.9ZM217.7,1114.8c3.6-13.7,5.8-66.5-13.4-74.3-.7-.3-3.8-.7-4.8-.8,0,17.8,0,35.7,0,53.5,0,12.3.6,28.5,18.3,21.6ZM607.6,1005.8c.6-1.1,2-3,1.3-3.9-4.7-6.7-18.2-26.6-25.8-28.9-2.7,10.9,5,12.1,10.8,18-1.1,9.7,5.4,11.6,13.7,14.9ZM318,1044.6c.8-8.3-1.7-19.8-10.5-22.5.9,6.2,4.7,19.6,10.5,22.5ZM512.1,1023.3c2.7-10.4-6.3-15.6-15.5-16.5-5.7,13.5,4.3,16.8,15.5,16.5ZM707.2,443.2c-20.1,5.4-20,4.7-14.3,26.4,1.3,5.1,5.7,19.2,10,21.8l2.2.3c10.5-10.5,32.8-50.2,2-48.5ZM844.3,481c-1.2,6.3-1.7,10.8-.2,17.1,1.5,1.4,1,1.1,2.9,2.1.6-5.1,2.3-14.3-.6-18.4l-2.1-.8ZM191.9,1115.2c2.1-5.1,3.1-69.9,1.1-77.1-3.9-3.4-5.8-2.9-11.2-2.6-1.1,1.7-2.3,3.9-2.4,6-.6,22.1-.7,44.8.7,66.9.2,3.8,8.8,6,11.7,6.8ZM565.1,952.5c-1.4,10.6,8.6,17.6,18.2,18h1.9c1.1-9-12.3-17-20.2-18ZM1070.8,1433.4c-3,5.2-2.9,15.6,1.4,19.9,11.3,11.4,38.9,16.5,54,14.9,6.9-25.4-27-21.5-42.2-27.7-4.8-1.9-7.7-5.6-13.2-7.2ZM531.3,1410.5c-16.4,3.4-87.2,17.6-97.9,23.8v1.5c4.4,3.1,11,4.8,16.3,6.6,17.3,4.8,20.6,5.6,38.5.7,10.8-2.9,23.1-5.3,34.2-8.3,13.9-3.8,19.5-6.8,17.6-23.2-2.6-2.9-4.8-1.8-8.5-1.1ZM652.3,1190.8c5.8-8,15.7-35.9,3.8-41-4.4,8.3-8.6,30.4-6.9,39.5,1.9,1.8.8,1.5,3.1,1.5ZM938,964.8l-13.9,2.5c-2.7,11.9-5.2,69.7-.5,83.7.9,2.7,10.2,5.5,13.7,6.6,5.4.5,9.2.8,14.7.7.4-14.2,1.7-81.6-1.3-92-3.2-3.2-8.5-2-12.8-1.6ZM346.5,1286.6c17.1-5.4,17-34.7,13.6-49.1-.9-3.9-3.7-6.1-7.4-7.4-4.4,6.9-8.5,10.6-14.2,16.4,0,7.7-.2,33.3,1.3,39.3,2.3,1.5,4,1,6.7.8ZM818.3,724.8c-3.5,2.7-7.1,5.8-8.3,10.2-4.3,15.6.2,40.2,8.8,53.6,3.8,1.1,2.9,1.5,5.8.3,1-5.6,1.6-57.2.5-62-2.9-2.5-2.1-1.7-6.8-2ZM843.9,278.1c-.3,14.6-1.9,100.1,1.4,109.2l1.8.4c2.3-1.9,2.5-2,4.2-4.4,0-14.1,1.3-28.5.8-42.6,0-.6-3.6-3.4-4.2-3.9l-.2-2.1c.5-.5,4.6-4.6,4.6-4.6,1.2-5.7,1-16.3,1-22.1-.1-8.7.4-19.5-.7-27.7-2.7-2.5-4.6-2.3-8.7-2.4ZM848.3,1059.5c1.4-1.7,2.6-3.3,2.7-5.6,1.1-24,.4-48.6.1-72.6-.1-9.5,1.8-19.5,1.1-28.8-3.8-4.6-11.5-4.8-17.2-5-2.3,8-2.4,38.8-2.1,47.9.4,12.7-5.9,61.2,6.3,66.4,4.6.1,4.9-.3,9.1-2.2ZM453.5,861.8c-6.2.7-13.9,1.3-19.9,2.3-2.8,15.3-2.2,31.7-4,47.4-3.6,30.4-10.4,61.6-9.9,92.3,0,5.7,6,15.3,8.4,20.8,2.6,3,1.6,2.9,4.7,3.4,7.4-4.8,9.5-48.2,10.7-58.3,1.9-17,16.8-95.9,12.4-107.1l-2.4-.8ZM794.2,805.9c-7.5,3.6-19.6,11.1-13.4,21.4,6.2,10.4,17.4,9.7,27.8,8.6,17.8-5.8,13.8-17.9,2.4-28.2-6.4-1.6-10.2-2.8-16.8-1.9ZM771.5,737.5c-17.1,11.7-2.9,17.4-.4,31.1,1.5,8.4-15.1,51.3,12.6,36.8,16.6-9.9,19.1-11.4,15.3-32.1-2.8-15-8.7-36.6-27.4-35.9ZM419.4,864.5c-5.7,1-8.2,1.5-13.8,3.3-5.2,24.5-10.6,66.2-11.7,91.8-.2,3.9,3.5,10.1,5.8,13.5,1.4,2.1,2.8,4.3,4.3,6.3,2.8,2.2,2.1,2.5,5.2,2.8,4.8-4,18.2-107.2,14.9-117-2.7-1.5-1.2-1.1-4.7-.7ZM203.4,1159.8c-4.2,9.2-4.2,21.2,7.7,24,9.2,2.1,18.7,5.1,28,7,11,2,23.9,9.9,33.8,4.3,4.5-5,6.7-8,2.7-14.2-5.8-3.3-65.2-20-72.3-21ZM981,971.7c-1.6,1.9-2.3,2.3-2.4,5.1-1,27.1-1,54.4-1,81.5,0,10.4,17.6,12,25.5,13.6l3.2-1.2c1.7-5.5,1.9-88.4-.7-95.5-5.1-4.1-18.3-4.5-24.6-3.6ZM954.9,85.1c-9.5,6-6.7,28.8-6.9,39.1,5.6,3,11.5,5.3,13.3,12.1,4.1,15-26.5,18.2-24.2-1.1.9-7.4,5.5-27.8,1.3-33.3-4.3,0-6.8,2.8-10,5.8-6.5,6.1-7,11.9-7.5,20.3-9.8,36.7,36.5,71.5,48.9,33.8,2.2-6.8,2.2-68.2-.7-73.2-4.5-3.7-8.3-3.2-14.1-3.3Z"/>
  <path fill="#9bd106" d="M287.6,1555.3c2.4-2.1,2.3-1.9,3.6-4.7,4.7.2,4.1.9,7.8-1,2.6-4.2,1.1-8.4,1.7-12.9.1-1.1,4.7-2.3,6-5.3-1-2.3-3-3-5.4-4.2-1.7-4.1-2.1-9.4-1.2-13.8l1.4-1.4,4.2,1,.7-1.7c-3.2-2.6-5.1-3.3-6-7.2-.9-3.7,2.6-11.9,2.4-13.9-1.1-10.8-7.5-15.3-.7-26.2,3.5-1.1,3.2.4,7.1,1.5,0,0,4.2-2.2,4.2-2.2,9.7,0,21.8.6,30.2,5.5,9.7,5.7,14.2,10.7,17.8,20.6-3.8,6.7-3.9,7.8-4.7,15.5-4.2,5.4-5.6,14.8,0,19.5,4.7.7,16.9-3.7,16.8,4.4,0,3.7-2.6,5.5-1.5,9.8,3.7,2.6,5.9,4.2,9.8,6.3,3.1,7.5,0,15.9,2.8,19.4,2.7.9,4.4-.1,7.1-1.2,6.9,1,7.5,9.4,11.8,9.2,7.1-.3,8.9-8.1,15.3,5.9l-.7,1.5c-6.5,1-12-2.6-16.9-1.1l-.3,1.4c1.9,2.3,2.9,3.3,5.1,5.4,19.2-5.9,15.5,4.9,9.7,17.3,4.6-.1,9.9-.8,14,.9,10.1,11-10.9,19.4-16.4,23.7,2.8,3,8.6,1.5,12.5,1.6-14.3,3.5-60.1-2.6-78.7-3.3-9.7-9.3-25.6-13.5-33.8-25-4.2-5.9-6.3-13.8-10.1-19.9-5.3-8.6-12.2-16.1-16-25.6Z"/>
  <path fill="#9bd106" d="M517.7,1578.9c5.2-1,17.2-4.2,21.3-1.5,2.2,5.3-2.3,4.1-1.3,10.3,2.5,2.1,6,4.3,6.9,7.5-1.2,2-1.6,2.6-3.1,4.4l.6,1.3c3.2,0,4.2-.2,7.3-.7,5.8,2.9,11,15.8,10.1,22.6-4.3,6.3-8.8-.3-14.8,2.8-5.7,11.1,7,15.1,9,19.1l-.8,1.6c-4.3.9-6.8-3.1-9.8-6.1-8.5,2,1.4,15.1-13.5,19.4-9.9,2.9-24.6-3-31-.5-4-1.1-6.5-2.3-10.4-4l2-1.2-1.6-.8c-2.3-1.2-3.1-1.9-5.2-3.4v-1.7c2.9-1.7,6.9-3.1,8-5.5-2.1-2.8-5.1-1.2-5.5-2.8-3.1-10.2-3.9-30.6,1-40.1l2-1.3c2.6,1,18.3,6.3,18.5,6.6-6.4,13.1,6.2,5.4,4.4,15.8-2.7,2.6-4.6,1.7-8.4,1.3-1.8,2.2-1.5,2.9-1.7,5.8l-1.6,1.8c-2.5,0-2.6,0-5.1-.5-.9,2.5-.5,2.8,0,5.5,2.8,3.2,5,3.7,5,4.4l-.5.2c1.1-1.5.8-1.7,1.1-3.5l2-1c2.1,1.2,4.1,4.7,4.5,4.8,5.3,2.6,13.6,3.3,18.8.4l.2-1.7c-2.6-3.3-6.1-3.5-10.3-4.4-.1-10.4-2.8-19.7,1.2-28.4-.9-2.6-1.5-2.6-3.8-4.3-.8-7,4-4.3,7.2-9.7l-.2-3.5,1.4-.7,3.1,1.5c3.3-1.5,3.3-3.3,5.3-7.3l-12.2-2.3Z"/>
  <path fill="#9bd106" d="M420.7,699.9c6.4-13.2,12.2-15.9,22-26.2,4.4-3.8,14.5-20.5,18.4-22.9,16.6-10,7-7.7,12.6-22.9.6-1.7,4.8-5.2,7.1-5.7.7,2.3,1.4,4.6,2.1,6.9,3.8,1.9,9.3,1.3,12-2.1-1.1-2.9-2.3-5.1-3.7-7.8l-1.4-.3c-1.4,2.7-1.1,2.8-3.2,4.6-3-2.2-3.5-9-1.8-12.5,7.8-2.6,22.3,4.7,29.3-3,1.2-5.3-1.2-12-2.7-17.5,6.2,8.5,13.9,15.2,4.2,24-5.1,2.5-5.4,2.9-8,8.1,5.4-.6,5.1-3.5,8.4-6.4,1.6,4.2,4,6.8,6.8,10.2l-.4,1-5.6,1c8.9,6.8,12,.6,16.9-6.7,2.7,5.7,4.9,11.6,7.2,17.5,7.2.9,4.9,1.6,9.9,4.2,10.9,5.6,14.4,12.4,20,22.8,1.7,3.2,7.8,2.1,11.6,4.4.3,1.1.9,4.1,1.7,4.3,11.7,3.2,23.1,7.4,34.6,10.9.4.1,4,4.4,4.6,5.1,5.4.9,11.6,3.3,17,4.9,26,7.8,30.5-3.1,44.8-21.8l1.1,1.2c5.8,6.4,6.5,10.5,11.4,17.5,0,0,5.9,2.4,5.8,2.3,5.1,8,11.4,15,17.1,22.5,2.1,2.8,2.9,8,.9,11.2,2.9,1.8,5.7,1,9.4,3.5,1.4,3.7.9,4.7-.5,8.6,9.3,5.4,12.2,1.6,27.8,13-3.1,6-4.8,13.1-8.2,17.6-4.3,1.2-16.5-2.1-19.9-1-10.2,3.1-12.4,10.2-24.5,8.3-3.3-2.4-2.2-1.4-3.7-6.1-8.3-1.2-11,8.9-23.2,10.7-4.1-1.4-4.5-4.3-7.9-7-1.1,1.4-.6.7-1.5,2.7l-.7,1.6c-10.6,6.1-11.2-7.3-20.2-8.9-1.6,2.4-.7,5.2-.3,8.7l-1.3,1.4-6.3-1.1c-2.6,1.4-3.7,1.5-5.1,4.1l1.1,2.3-.7,1c-3.3.9-4.6,1.5-7.9.6-1.1-1.6-1.7-3.3-2.3-5.1-6.2-3.6-8.3,1.2-14.1-1l-.5-2.7-1.2-.8-1.4.9c-.3,1.3-1.2,5.7-2.3,6.2-5.8,2.8-26.1,5.6-30.6,1-.2-2.9,0-3.9-1.1-6.5l-2-.4c-3.4,1.7-7.9,7.5-10.8,10.7h-1.6c0,0-2.9-4.7-2.9-4.7-5.8-1.6-3.5,5.6-9.1,8.3-3.7-1.5-4.7-7-9.6-10.5l-2,1c-3.1,6,2.3,4.5,4.6,11.8-1.6,3.3-.5,1.8-4.5,3.9-7-2-11.6-18.1-23.3-14.2,0,2.7,2.8,4.1,5.4,7.1-.2.1-.5.2-.7.3-10.7.7-29,10.3-38.6,5.9-.8-2.9-.7-3.1-2.4-5.4-7.9.2-6.3,7.3-5.5,12.1l-1.4,1.3c-5.6.6-12.3-6.6-17.2-10.4-4.3,6.5-4.5,7.1-10.3,12.4-11.1,1.3-25.2,5.4-37.1,7.4-5.3-6.9-6.6-8-15.6-4.8l-.6,1.6c5.5,9.4,1.1,6.1.4,10,4.7,2.5,17.4,4.6,23.3,5.9,2.5,2.6,5.2,5.1,7.8,7.5,3-1.7,5.5-2.9,7.6-5.5l-2-2.2,1.2-1.7h2.4c2.2-2.1,1.4-1.5,1.5-5.7,1.8-2.4.6-1.5,3.9-2.4,6.5,2.6,3.1,7.3,7,12.4,3.5-2.4,1.3-2.9,4.4-8l2.1-.3c1,.7,4.4,3.3,5.3,3.3,9.2.9,21.8-8.6,30.2-6,2.5.7,3.1.9,5.8.8,12.5-8.9,9.3-.5,14.9,2.5,1.8-1.5,3.6-2.9,5.4-4.4,4.6-.3,12,3.7,13.6,3.1,10.8-4,7.4-4.7,18-1.7,6.7-2.8,3.3-11.8,12.2-12.5,3.5,1.7,2.4,1.2,4.5,5.7,4,1.1,3.6-1.4,9.4-2,4.9,4.7,7.4,6.9,11.5,12.4-.3,4.3-3.9,3.9-5.9,9.3l1.8.7c8.4-.7,9.4-4.9,14.9-10.8-2.6-7.5-6.7-4-11.6-8.4,1.2-4.1,5.3-7.6,9.8-6.8l2.2,3.5,2.3.2c9.4-5.7,14.4-3.1,26-2.2l3.2-2.5c11.3-8.7,15.1-.6,26.8.5,6.2.6,20.1-7.6,25.9-10.7.2-2.7-.2-3.5,1.5-5.4,7.1-1.1,31.4-3.2,39.2-1.7,1.1.2,1.4,2.6,1.9,4.2l1.5.4c12.2-4.2,7.2-2.3,15.6,4.8,2.7.7,2.5.7,5.2-.2l.7-2c-1.5-4.1-2.4-5.4-4.7-9.2,1.6-.7,6.4-2.5,7.8-2.4,12.4.8,12,21.4,4.3,27.8-6.9,5.7-16.2,9.1-24.3,7.9-3.1-1.6-3.4-3.3-4.9-6.4-2.9-.4-1.8-.2-5.2,1.3-1.2,2.3-1.3,2.4-3,4.4-5.1,1.5-15.1.6-20.7.2-7.9-.5,1-19.1-8.1-19.5l-1.5,1.6c-1.5,5.3-.9,10.5-.8,16.1-7.6,3.2-25.4,10.5-33.3,5.5-2.8-1.8-3.4-4.7-7.9-4-5.2.8-1.6,1.5-5,4.7-6.7.3-30.2-2.9-38.9-3.7-1,3.1-1.2,1.8-.5,4.3,4.9,1.3,6.6.8,8.3,5.6l-1,2c-7,5.4-39.4,11-44.4,5.3.8-2,2.5-4.8.9-6.4-7.5-7.2-17.5-2.8-24.3.8,1.3.9,2.6,1.9,3.9,2.9,3.2,2.4,3.7,2.7,4.1,5.9l-1.9,1.7c-5,1.3-17.3,2.6-21.6-.7-5.5-4.3-7.5.8-14.1,1.2l-2.2-2.1c-4-.7-7.6,6.4-14.5,7.6-7.3,1.2-22.1-4.7-27.8-3.1-3.9,5.7-6.7,6.3-13.2,8.3-5.5,1.7-17,7-21.8,3.7.2-2.6.3-1.7-.3-4.3-3.7.3-5.2.7-8.8-.4-2.2-2.9-1.5-2.1-1.6-6.5-2,.6-2.2.5-4.3.4l-.8.9c2,9.8-9.3,6.5-9.1,11.2.3,7.5,4.1,16.4-1,23.4l-1.1-.2c.4-2.8.6-2.9.4-5.7-3.1-1.8-13.7-2.3-15.9.5,2.1,4.3,6.9,2.2,9.7,7.2-.3,3.9-.9,3.3-4.1,6.9.3,5.5,3.9.2,8.2,5.1-.4,3.3.4,2.3-1.4,4.1-2.9-1.2-3.4-1.6-6.6-2l-1.2,1.3c.7,2.3,1.2,4.1,1.8,6.4-1.8,3.1-1.6,2.2-5.7,3.9v1.6c1.7,1,3.4,2,5,3.1,2.6,4.4,1.2,12.8-2.5,15.9-2.8,0-2.9,0-5.6.5,7.7,6.3,16.2,15.2,4.3,22.7-8.9,5.6-33.6-38.1-35.7-44.3l-7.7-5.3c-2.3-6.5-4.9-17.6-10.6-19.5-3.2-1-4.3-2.3-6.4-4.9-.5-2.7-.5-4-2.1-6.2-6.6-1.1-14.2,7-19.6.7-.2-1.8-.5-6-1.5-6.4-8-3.1-6.5-3.1-11.4-9.1-1.9,2.5-3.9,5-5.9,7.5-9.3,3.3-26.1,4.3-34.3,6.6-7.3,2.1-3.8,9.1-20.4,10.1-5.1-3.6-5.7-13-11.1-14.3,0,3.2,1.1,7.5,1.7,10.7-1.3.7-2.3,1-3.7,1.4.3,2.8,1.2,2.5,4.2,5,.2,2.3.4,1.2-1.2,3.3-4.6-1.9-4.8-3.4-9.5-2.8-3.1,1.6-4.2,4.7-5.8,7.9,3.9,1.4,8.5,1.9,8.2,6.5-2.7,2.5-5.2,2.6-8.9,3.3-8.1,10.7-10.2,14.8-22.2,21.4-5.4,3,.9,17.1,1.4,20.8.7,6.2-12.4,16.5-17,20.4l9.4,5.6c-1.6,2.8-2.4,4-3.4,7.2,2.2,2.1,2.1,1.9,3.3,4.7-5,10.9,7.5,7.7,9.6,18.1-3.2,9,2.7,7.2,3.6,15.9l-1.7,1.5c-4.8.2-17.7,3.2-20.7,2.2-18.1-6-38.5-8.9-54.1-20.1-15.3-.4-47.3,3-58.8-8.4-1.3-4.6-1-22.8-.4-28.5.4-3.7,1.6-4.7,4.1-6.5,10.5-1.9,18.5,6.2,27.3,9.7,2.5,1,2.8-1.8,7.5,1.8,1.7,7.6-1.4,3.9,4.6,9.4,13.1-.5,15.5,1.1,25.2-7.6.6-.5,4.2,1.3,6.4-.3l-5-6.1c2.1-2.5,4.6-4.7,5-7.8l-1.6-.9-1.8.6c-1.2,2.6-1.5,3.6-3.2,6l-1.5-.5c-3-8.4-3.1-5.4-12-4.5-10,1-16.4-.5-25.8-3.3l-1.9-7.6,7.3-12.1c1.1,3.8,3.1,12.4,8,11.7,2.7-3.2,1.7-1.4,2.3-6.1,2.9-5.1,12.6-6.7,18.6-8.5,4.6,2.6,6.8,5,11.4,4.6,2.1-1.6,3.4-2.9,6.2-3.2.9-3.5-7.4-13.4-7.9-18.5-.9-8.5,3.9-16.8,5.2-25.1,1.1-6.6-1.9-15.2-.7-21.7.5-2.7,6.3-9,8.2-11.2-.7-2-.9-2.2-2.3-3.6l-1.2-1.2c.4-18.6.7-14.9,9.5-28.6,2.8-4.4-.5-26.1,9.9-30.8,11.1.9,10.9,17.5,17.1,22.1,1.5-2.4,2.1-3.7,3.3-6.3l1.3-.3c5.6,6.7,13.7,7.5,23.7,18.2,19-2.2,36.4,1.3,54.5,7.5.5.9,1,1.9,1.5,2.8,1.8,3.3,4.7,7.9,8.5,8.9l3.4-1.9c.6,3.4.3,3.9,2.7,6.4,5.7,1.2,28.7-4.6,35.4-6,4.2,2.1,3.3,9.6,7.8,11,4.9-4.4-2.1-10.8-1.6-14.8,1-7.6,7.2-10.9,3.4-19.3-32.3-2.7-7.2-9.2-27.7-28.5,2.5-5.8,5-13.6-4.4-14.8.6,3.1.9,2.1,0,4.9-15.6-.3-20-22.3-20.8-34.3-4.2.6-8.4,1.5-12.6,2.3-5.1-11.6-12.5-22-21.7-30.7l-.3-1.3-.5-1.9c-2.2-9-8.7-18.7-15.9-24.7-1.4-1.9-9-4.1-10.8-2.2-3.9,4.3-1.1,3.6-7.5,4.7-5.3,5.7-.8,22.5-12.2,26-.4-.5-.7-1-1.1-1.5-2.1-9.1-15.1-16.8-15.1-26.3,0-3.5,5.1-6.9,7.3-8.6v-1.7s-2.7-2.5-2.7-2.5c-.7-10.3,13.5-19.8,18.6-29.2-2.4-3.6-5.3-6.7-5.1-10.8,4.6-3.6,9.4.8,15.1,1.3,3.8.4,7,.4,10.8.5,1.3,2,2.5,4,4.7,5.1,14.6,7,27.3,38.9,44.5,50.6,2.2,5.1,4.5,15.4,7.1,19.4,5.6,8.7,16.2,16.9,20.9,26.3,3.2,6.4,4.9,15.6,7.5,22.4,1.2,3,1.6,3.4,3.9,4.3,2.5-1.3,1.8-1.1,4.4-1.7,4.8,4.5,15.4,14.4,16.2,20.7-.8,4.3-2.7,4.1-4.6,7.8,2.4,2.3,2.8,2.2,4.1,5.1l-1.4,2.3c1,2,.8,1.3,3.2,2.8l1.4-.8.5-3.8c3.5-.2,13,3.2,17.3,4.4,5.1,11.7,5.1,8.6,14.8,12.4.8,3.4,0,3.5-1.5,7.4,1.7,2,2.1,2,2.6,4.5-2.1,2.2-5.3,2.5-8.7,3.4-3.6,6.4-6.5,19.1-2.5,25.6,6.1,3.3,10-2.2,13.2-6.9,3.9-5.7,8.1-5,12.5-9.7-2.1-3.2-2.9-3.9-3.1-7.7,3.6-8.6,4.4-.6,9.8-3.9-1.5-2.3-2.5-3.6-3.6-6.2,1.9-2.3,3.9-2.4,7.2-3.6l.6-1.3c-6.1-3.3-17.8,2.4-23.5-3.2-.3-3.5,5.9-11.3,8.6-16-16.2-2.5-17.4-7.4-24-21.5-3.9-1.3-8.1-2.3-11.1-5l.2-1.3c2.4-1.2,2.8-1,4.1-3.2-1.8-3-3.3-2.2-5.6-3.3-6.4-3.1-2.2-15.3-9.4-21.7-2,.3-2.8.3-4.8.3-3.3-2.8-21.2-16.9-22.6-19.1,5.1-1.9,8.1-2.1,10.1-7.3-1.5-7.4-4.5-3.1-9.8-8.2-1.9,2.5-2.6,8.4-3.3,11.8-1.5-2.3-2.9-4.6-4.3-7-7-11.9-10.5-24-6.8-37.8l.3-1.1c-3.3-2.5-8.5,2.7-13.9-1.5-1-4,.4-4.3,1.9-9.3-5.7-9.7-20.5-2.8-16.6-19.9.7-3.2,1.4-6.6,4.4-8.5,6.8,1.3,14.4,18.5,19.4,20.3,38.1,14,14,13.8,13.6,24.3,3.6,2.7,5.3,4.8,9.8,3.5,2-2.3,3.1-4,6-5,4.1,1,2.5,0,5.2,2.6.3,2.8-.7,3.8-2.2,6.2l-.6.9.5.7c14.1-1.7,10.9,3.6,19,3.7,1.1-1.6.5-.8,1.9-2.4,3.3,1.6,3.1,1.4,5.4,4.2l-.5,1.4-6.3,2.1-.3,1.4c18.7,6.6,9.4,8.8,20.3,16.7,2-1.4,2.1-1.6,4.4-2.3,4.5,6.6,12.7,6.9,21.1,8.9,18.4-6.2,35.1-17.5,51.7-27.6Z"/>
  <path fill="#d2e39c" d="M1015.7,37.7c35.3-2.5,53.4.4,80.3,25.6,5.5,5.2,8.5,11.9,13.7,15.6-.7-6.6-9.7-16.3-12-22.2,1.9-3.5,5.9-3.5,9.1-2,14.3,6.9,28.6,26,34.1,40.6,21.5,56.6,13.1,121.7,11.7,181l-4.4,208.6-11.4,680.7-3.3,171.4c-.5,26.6-1,53.2-1.4,79.8.2,12.4-9.5,15.1-20.1,15.2-11.5,0-20.7-1.9-30.8-7.6-4-28.7.5-79.4,1.1-109.5.3-11.5-.7-22.1-.7-33.6,2.7-94.3,3.1-190.3,4.6-284.7l7.9-515.9,3.7-203c.8-30.1,1.1-60.2,1.1-90.3,0-18,0-34.8-2-52.7-3.3-27.6-24.9-60.9-54.8-62.6-38.6-2.2-78,4.6-116.6,6.4-28.9,2-61.6,3.1-90.1,7.6-9.1,7.3-17.1,15.4-24,.5-5.8,0-11.5.4-17.3.8-.8-12.4-1.3-19.6,1.1-31.8,22.6-4,49.6-4,72.8-6.1,49.2-4.5,98.4-8.8,147.8-11.9ZM1098.2,1399.8c2.8-24.1,5.3-87.8-3.2-109.2l-.7-1.7-.4-1,6.9-6.9c2.2-14.6,1.7-30.6,1.7-45.4.1-27.4-.9-54.9-.7-82.4.3-30,.8-59.9,1.4-89.9.4-15.6,4.4-63.4-6.7-73.6-7.1,11.1-8.3,254.4-8.8,284.9-.4,27.6-.7,55.2-.8,82.8,0,9.6-2.6,40.7,4.6,45.5,3.7,0,4,0,6.6-3ZM1102.5,573c-.5,5.7-3.1,23-.4,27,3.6.4,3.9.6,7.6,0,3.9-4.8-1.3-222.2,3.4-246.3.4-4-2-9.1-1.5-12.9.6-16,1.9-33.6,1.9-49.6,0-13.4,3.6-36.4,2.8-48.4-1.9-3.1-.6-1.8-4.7-3.1l-1.9,1c-2.9,5.9-2.3,55.2-2.5,65.8l-2.1,150.6c-.3,38.5-.1,77.4-2.6,115.8ZM1105.2,738.5c4.9-39.4,4.8-73.9,5.1-113.5-3.2-4-4.9-6.9-9.9-8.4-.5,14.2-2.8,117.9.1,123.7l2.1.8c2-1.4,1.4-.7,2.5-2.7ZM1110.7,186.4c-3.3,5-3.7,43-1.2,47.9l1.6.3,1.6-1.2c5.5-5.1,5.5-8.8,5.5-16.2,0-8.1.8-26.9-7.5-30.9ZM1141.5,240.4c-.3,4.7-.5,13.4,0,18,0,28.1-.1,56.1-.6,84.2-.2,7.3-2.5,34.7-1.4,40.2v5.1c-2.9,13.2-2.3,58.6-3,74.8-.3,24.1-2.8,48.1-2.8,72.1s-.1,11.9,5.3,13.7l1.2-1c3.3-12.8,2.1-53,2.1-69.4l1.1-108.7c.2-17.3.7-38.9.7-55.8,0-12.9,3.8-92.7-1.4-96.9-4.3,4.7-2.2,14.3-1.4,20v3.7ZM1124.6,1268.8c2.6-7.9,3.7-66.4,1.7-74.6-.5-.4-1.4-1.2-1.9-1.5-4.2,18.8-3.4,41.8-4.5,61.2-.3,6,0,10.9,4.8,15ZM1094.5,933.8c-1.1,7.6-5.4,36.8,4.5,38.9l3.1-.9c5.6-9.9.4-32.5-7.6-38ZM1117.5,183c1.4-6.8-.9-33.1-7.1-37.3-.7,9.7-3.2,27.8-.1,35.8,2.7,2.4,3.2,1.9,7.2,1.5ZM984.7,61.8c3.2-2.9,4.9-2.1,8.9-1.5,16.3,9.2,53.5-5.2,73.7,6.5,18.4,11.8,22.5,22.9,38,37.3l10.8,2.9c0-3.3-1.1-5.8-2.1-9l.7-4.1c-2.6-5.4-8.1-1.8-14.4-11.9-13.4-7-26.9-28.2-44.3-27.4-18.5.9-64.8-1.6-81.5,2.6-20.5-.1-39,3.8-59.3,2.9-1.4,0-3.4.7-4.6,1.3h-.8c-5.9,4.2-11.1.4-17.4,1-5.7.5-12.2,4-18,4.8-13.5-.6-46.1-6.4-58,1.6l-.4,2c1.9,2.7,6,4.7,8.9,4.7,25,.3,52.3-5.1,77.3-6.5,18.6-1,35-2.1,53.5-2.8,5.8-.2,21.8.6,25.7-.7l3.5-3.7ZM1104.8,912.7c.7-25,1.1-50.2-1.6-75.1-1.3-11.7,5.3-21-7.9-25.6-1.1,12.8-3.5,97.4-.4,101.3,3.2,1.6,6.9,1,10-.6Z"/>
  <path fill-opacity="0" d="M1102.5,573c2.5-38.4,2.2-77.3,2.6-115.8l2.1-150.6c.2-10.6-.4-60,2.5-65.8l1.9-1c4.2,1.3,2.8,0,4.7,3.1.9,12-2.8,35-2.8,48.4,0,16-1.2,33.6-1.9,49.6-.5,3.8,1.9,8.9,1.5,12.9-4.7,24.1.5,241.5-3.4,246.3-3.7.6-4,.4-7.6,0,2.6-.5,4-.1,6.7-1.2.2-6.4,1-24.3-.7-29.8h-1.2c-1.3,1.7-2.6,2.7-4.3,4Z"/>
  <path fill-opacity=".6" d="M1141.4,236.6c-.8-5.7-2.9-15.4,1.4-20,5.2,4.2,1.4,83.9,1.4,96.9,0,16.9-.5,38.6-.7,55.8l-1.1,108.7c0,16.5,1.1,56.6-2.1,69.4l-1.2,1c-5.4-1.7-5.3-8.5-5.3-13.7,0-24.1,2.5-48.1,2.8-72.1.7-16.2,0-61.7,2.9-74.8.9,8-.1,28.7-.4,37.8-.5,22.8-1.3,45.7-2.3,68.5-.5,10.5-3,43,0,52.2h1.8c3.1-3.2,2.9-18.7,2.3-22.9-2.4-17.4,3.5-132.7-1.4-140.7-1.1-5.5,1.3-32.9,1.4-40.2.4-28.1.6-56.1.6-84.2,1.4,3.9,1.2,6.6,1.3,10.8l.4-.4c.8-15.8.8-33.8.8-49.7l-.5-1.4-1.4.2c-1.2,4.7-.6,13.5-.8,18.9Z"/>
  <path fill="url(#fixed_id_1)" d="M910.5,61.4c10.3,1,20,.1,30,.7-5.2.4-10.5.8-15.7,1.1,8.6.6,16.4,1.2,25,1.5,7.6.3,25.3-.4,31.5.9-3.9,1.2-19.9.4-25.7.7-18.4.8-34.8,1.8-53.5,2.8-25,1.4-52.3,6.7-77.3,6.5-2.9,0-7.1-2.1-8.9-4.7l.4-2c11.9-8,44.5-2.1,58-1.6,5.8-.8,12.3-4.3,18-4.8,6.4-.6,11.5,3.2,17.4-.9h.8Z"/>
  <path fill-opacity=".8" d="M974.4,57.3c16.7-4.2,62.9-1.7,81.5-2.6,17.4-.8,30.9,20.4,44.3,27.4,6.3,10,11.9,6.4,14.4,11.9l-.7,4.1c1,3.2,2.1,5.7,2.1,9l-10.8-2.9c-15.5-14.4-19.6-25.4-38-37.3h5c.7-16.4-60.6-8.1-71.1-9.1-7.1-.6-18.7,0-26.8-.3Z"/>
  <path fill="#f7f9f0" d="M936.2,59.8c1.5-.9,8-5.1,9.3-5.5,19.5-5.4,43.4-.6,63.6-.6,5,0,14.6-7.2,20.9-5.8,5,1.1,11.8,6.9,16.7,4.2l-3.3-4,.8-.8c16.9-.1,49.2,19.5,56.1,34.8-13.4-7-26.9-28.2-44.3-27.4-18.5.9-64.8-1.6-81.5,2.6-20.5-.1-39,3.8-59.3,2.9-1.4,0-3.4.7-4.6,1.3h-.8c0-3.3-.5-1.9,1.5-4.4,6.8-2.1,17.7,2.2,25,2.8Z"/>
  <path fill-opacity=".2" d="M1139.6,382.7c5,8.1-.9,123.4,1.4,140.7.6,4.2.8,19.7-2.3,23h-1.8c-3-9.2-.5-41.7,0-52.3,1-22.8,1.7-45.7,2.3-68.5.3-9.1,1.3-29.9.4-37.8v-5.1Z"/>
  <path fill="url(#fixed_id_1_2)" d="M1001.2,57.7c10.5,1,71.9-7.2,71.1,9.1h-5c-20.2-11.7-57.4,2.7-73.7-6.5,2.7.3,4.5.8,6.9-.3l.7-2.3Z"/>
  <path fill-opacity="0" d="M1124.4,1192.7c.5.3,1.4,1.1,1.9,1.5,2.1,8.2.9,66.8-1.7,74.6-4.8-4-5.1-9-4.8-15,1.1-19.4.3-42.4,4.5-61.2Z"/>
  <path fill="#878785" fill-opacity="0" d="M1110.4,145.7c6.2,4.2,8.4,30.5,7.1,37.3-3.9.4-4.5.9-7.2-1.5-3.1-8-.6-26.1.1-35.8Z"/>
  <path fill-opacity=".5" d="M940.4,62.1c6.2-1.9,39.3-5.4,43.9-2.4l.4,2.1-3.5,3.7c-6.3-1.3-24-.6-31.5-.9-8.6-.3-16.4-.8-25-1.5,5.2-.3,10.5-.7,15.7-1.1Z"/>
  <path fill="#f7f9f0" d="M1113.9,98l1.1-.2c3.1-.7,4.4-.7,6.7-2.8l1-2.2c-3-4.6-6.3-3.9-7.6-8.1,1-2.9,0-1.8,2.3-3.6,6.7,1.4,12.4,12.5,12.5,18.8-1.9,2.1-8.6,5.8-12.2,9.2l-1.4-.3-.3-1.6c0-3.3-1.1-5.8-2.1-9Z"/>
  <path fill-opacity=".6" d="M910.5,61.4c1.2-.5,3.2-1.3,4.6-1.3,20.3.9,38.8-3,59.3-2.9,8.1.3,19.7-.3,26.8.3l-.7,2.3c-2.4,1.2-4.2.6-6.9.3-4-.6-5.8-1.4-8.9,1.5l-.4-2.1c-4.5-2.9-37.7.5-43.9,2.4-10-.6-19.6.4-30-.7Z"/>
  <path fill-opacity=".5" d="M1144.1,219c0,15.9,0,33.9-.8,49.7l-.4.4c0-4.2.2-6.9-1.3-10.8-.5-4.6-.4-13.4,0-18,2.4-4.5,2.1-15.4,2.5-21.4Z"/>
  <path fill-opacity=".3" d="M1141.4,236.6c.2-5.4-.4-14.2.8-18.9l1.4-.2.5,1.4c-.4,5.9-.2,16.8-2.5,21.4v-3.7Z"/>
  <path fill="#9bd106" d="M386.7,97.7c15.4-2,34.1,3.1,48.1,9.3,2.3,3.9-2.1,2.6-.7,7.2,8.3,4.1,12.2,3,19.1,4.2,6.9,1.1,26.5,25.4,23.5,33.3-1.8,4.8-6.8,10.7-12.6,9l-.7-1.7c.9-2.6,1.3-3.3,1.6-6.1l-1.9-.2c-9.9,9,10.7,19,17.3,27.2-4.3-1.2-16.2-5.9-18.3-.1,2.1,3.9,5.1,3.2,7.9,6.6,0,3.2-.5,2.3.9,4.7,2.2,0,4.1,0,6.3,0-2.7,1.7-3.3,1.4-4.2,3.8,2.2,2.3,1.7,1.2,2.5,3.9l-2.7,2.1v1.5c2.3,1.4,2.3,1.3,3.8,3.4-.2,4.3.6,2.8-1.5,5.3h-4.1c0,0-1,1-1,1,2.1,5.1,5.3,3.5,9.2,9.8.9,3.7.5,3.7-.8,7.2-4.4,2-6.3-.6-10.2,1.4l-.5,2.1c1.5,5.3,8.7,6.4,7.7,11.3l-3.3.8v1.2c4.9.3,6.3-.7,7.1,4.2-1.8,4.7-6.3,3.1-11.1,8.4.6.4,1.2.7,1.8,1.1,3.4,2.1,4.8,2.6,5.6,6-17.9,15.4-3.8,8.9-.9,25.1,1,5.4-5.5,16.4-9.4,20.4-6.5,6.7-16.8,7.2-25.2,10-9.3,3.5-8.3,7.8-19.4,7.5l-1.7,2.4c-3.2-.9-5.3-1.5-7.6.9.6,4.6-.3,2.7,2.3,6,3.4,1.2,3.8,1.2,6.7,3.5,1.7,4,1.6,4.6.9,8.8.4.8,1.5,3.7,1.9,4.7-1.9,6-1.7,6.8,2,11.7-.5,4.9-3.6,9.7-5.9,14.2-3.9-2.2-6.2-3.6-10.5-5-4.2-1.3-7.7-.8-10.1-3.7-7.3-8.9-10.5-9.1-20.8-11.6-6.8-17.1-13.3-32.4-21.8-48.8-3.7-7.1-18-23.2-18.8-28.8,1.9-1,2.2-1.1,4.2-1.5l1.8-.4.2-1.5-1.3-1.3c-15.6-.3-6.4-10.5-11.9-15.1-2.8,1.4-1.8,1.4-4.6,1.3-2.8-7-.4-21.9.3-29.9l-1-.8c-28.6-23.2-23.9-67.2-6.5-95.8,10-16.5,11.4-.6,20.1-7.6,1-4.6-1-7.8-1.8-13.2,2-1.8.3-.9,2.5-1.3,11.9-2.5,9.7,8.9,14.1,12.6,1.2-1.6,2.5-3,3.9-4.3.5-2.1.5-1.1,0-2.9l-2,.7v-.7c0,0,.9.5.9.5,1.3-.6.6-.2,2.1-1.2-.6-1.5-1.3-2.9-2-4.3l.8-1.8c2.7-.6,3.7-.7,6.3-1.9l-.2-1.7c-4.3.1-7.5.6-10.8-1.8l.2-1.3c6.7-3.5,26.5-9,34.1-9.9Z"/>
  <path fill="#9bd106" d="M578,1383.7c11.2,3.6,19.3,4.4,30.3,6.8,16.7,3.5,9.2,24.7,16,35.8,2.9,4.7,10.9,7.5,14.6,13.8-1.5,4.7-3,8.4-1.4,13.1,2.8,2.1,1.2,1.4,5.1,1.6,2.4-2,4.4-5.5,6.2-8.2l17.2,11.1c.5,8.6,1,12.6-1.8,21.1,19.6-6.2,38.3-.2,57.5,6,4.2,4.1,5.7,6.3,8,11.7,1.9,4.3,8,3.1,9.6,8.6-6.6,7.9-15.9,2.5-25.2,2.7-7.2,11.3-9.4,3.1-19.5,4.8-1,.8-4.7,3.6-5.8,3.4-8.1-1.4-15.8-2.7-24.1-2.9h-1.6c-2.5-2.2-2-3.7-2.9-7.7-4.1-1.9-7.7-3.2-9.8-7.3,0-3.6,0-4.5-.9-8.1-2.5-2.5-1.4-2.4-3.8-2.4l-1.5,2.8c-1.8,0-1.8.2-3-.4-9.6-5.5-11.6,1.9-17.3.9l.2-3.3c-2-1.2-11.4-.3-17.8-2.5l-9.4,4.7c-8.5-3.3-31.5-9.7-36.8-14.4-5.4-.3.9,1.5-8.5,5.4-3.3-1.3-8.1-3.4-9.2-7,3.8-.9,4.2-.3,5.8-2.6-.6-3.6-1.2-3.9-3.6-6.4,0-3.7,4.2-11,6-14.7l-8.8-8.3c2.8-7,5.6-13.7,7.7-21,2.6-9,2.7-28.9,13.4-31.9,4.7,1.9,4.2,6.2,9.3,5.2,3.2-2.9,4-6.2,5.6-10.3Z"/>
  <path fill="#bad858" d="M655.1,1480.3c-1.2.5-2.3.9-3.5,1.4l-1.1-.8,1.9-1.9c6.3-2.5,6.3.7,11.8-.3.2,4.7.8,5.8-1.3,9.4l-1.8.3c-3.3-1.6-4.3-4.7-6-8.1Z"/>
  <path fill="#9bd106" d="M808.9,130.1c4.4.6,5.3.5,9.2,2.4l.4,1.5c-2.1,2.3-3.4,3.3-4.4,6.2,1.7,3.2,1.6,2.4,5.5,4.4,1,3.6.8,1.7-.9,5.9-16.4,3-19.4-11.6-9.8-20.5Z"/>
  <path fill="#9bd106" d="M505,361.2s2.2.5,2.2.5c5.8,2.5,14.9-1.3,19.8.9l1.1,3.5c3.3,1.7,7.8,0,12.6,0,6.6,8.1,5.3,3,12.9,5.2l.6,1.6c-1.4,5.6-3.9,7.2-5.2,11.7,9.2,4,29.7-.5,35.9,12.9,1.2,2.7,3.3,9.9,2.3,12.7-2.5,1.5-2.4.9-6,.5-3.9,2.7-2.7,4.3-6.2,9.1-3.3.8-4.7,1.3-7.9,2.5-5.5,7.3.8,8-.4,14.2-1.6.4-3.1.6-4.8.7l-2,2.4c.1,6.9-4.3,7.2-10.3,10.6-2.7,10.5-5.8,23.2-16.9,27.2,2.8,2.5,3.6,2.4,4.3,5.3-4,2.9-11.3-.2-15.8-1.4-7.1-1.2-42.8-6.6-36.6-19.6,2.8-1.3,3.8-1.5,6.2-3.6,1.2-9.9-13.1-8.7-9.3-20,4-.9,3.4,4.1,9.3,5.2l2-1.7v-3.1c-7.2-7.8-11.4-5.5-19.5-9.9-6.2-3.3-7.5-28.2-3.2-33.4,5.7-.8,13.8,2.9,19.2,5.1,11.3-2.3,18.9-.9,29.8-2.5,5.2-.8,0-8.1.5-11.1.4-1.9,2.4-5.9,3.4-7.9l2.5-.5.5-.9-.8-1.8c-6.4-2.5-5.6-1.6-6.5-8-4.9-4.2-10.1,1.2-13.8-6.8Z"/>
  <path fill="#d2e39c" d="M1029,80.9c3.9.2,5.2,0,7.6,2.3,2.1,6.9,1.8,19.6,1.7,27.1-1.2,73.1-2.6,146.3-4,219.5l-3.6,271.3-1.9,140.3c-.2,11.9-.3,55.6-2.5,64.1-3.4,1.1-4.1,1.1-6.4-1.2-2.9-8-.5-37.7-.4-48.6l1.7-128.8,7.8-546Z"/>
  <path fill="#9bd106" d="M762,362.7c8.1-1.8,15.7-3.1,24-3.4,1.5,3.7,4,9.6,2.8,13.6-2.4,1.4-2.1.6-2.8,2.4,3.5,6.1,4.8,6.8,11.4,9.3.7,3.3.5,3.9,0,7.2,2.2,5.1,5.3,7.3,4.4,13.2-.7,4.5-15.1,12.2-14.3,14.2,10.1,27.3-5.9,19-18.7,29.1.5,7.8,7.9,20.6-.9,23-6.1,1.6-4.3,6.7-8.3,10.6-7.1.4-7.9-5.8-12.1-7.2l-1.3,2.4c-3-.6-1.6,0-4.1-2.5l-.9-3c-4.2-.2-3.7,4.9-8.9.5-.5-3.7,3.6-10.3,5.4-14.2-2.1-7-7.8-21.6-3.6-26.6,10.8-12.7,19.5-9.6,21.6-28.7l-.5-.9c-1.8,4.2-3.3,9.1-7.1,11.6-3.3-.3-3.5-.7-6.3-2.4l-1.2,4.3c0-3.5,0-7,0-10.5.3-2.2.6-4,1.1-6.2,3.2-.9,5.1-1.2,8.4-1.7l-.8.2-1-1.9c-8.2-2.6-12.2-3-17.5-9.6,4.5-7.5,9.4-16.7,15.6-22.7,1.9,3.3,3.5,7.2,6.6,9.1,4.8-.6,6.3-5.2,8.5-9.3Z"/>
  <path fill="#9bd106" d="M780.8,600.2c2.3.7,24.2,13,29.1,14.5,2.5.8,2.9,13.7,3.3,16.1.6,3.3,1.1,2.9,4.3,4.7,2.2,5.9-2,.8-.4,6.9l5.7,2.6c2.1,3,1.6,1.4,1.6,4.8-.4.6-.8,1.1-1.2,1.7-3.7,5.5-1.1,5.6-1.1,11.8-2.5,4-3.5,3-7.2,5.6l4.9,1.3c4.3,4.1,4.9,6.1,5.8,12l.2,1.1,1.3-.8,1.2.3c6.1,14.7-1.1,15.1-10.1,23.8-3.3,3.2-.7,7-1.8,11.4-2.3,2.9-2.7,2.7-6,4.1-4.1-.9-8.6-1.5-12.8-2.1-6.4-7.6-17.5-25.2-15.9-35.3,1.4-9.1-6.2-16.1-11-23.6,2.4-21.5-14.1-1.2-10.5-33.5-2.5-4-7.8-11.4-7.4-15.9,6.4-4.1,9.7,3.2,15-6.7,7.5,0,7.7.5,13.2-5Z"/>
  <path fill="#9bd106" d="M63.5,1379.7c6.9-.4,11.9-.3,18.9,0,11.3,9.6,10.9,23.1,9.2,36.9-1.1,8.8-4.8,10-12.5,10-.1,0-4.8,10.1-6.5,9.7-5.7,1.7-13.1,4.7-16.1-1.2h-1.8c-10.3-9.2-15.2-5.8-27.3-8.4-4-4.2,2-9.5,1.6-17.2-5.9-5.3-4.5-12.2-5.1-21.5,13.5-5.5,25.2-7.1,39.6-8.2Z"/>
  <path fill="#9bd106" d="M1163.4,1437.7l3.7,1.1c6.1,7.6,6.3,4.3,14.8,6,3.5.7,4.5,5.7,8.3,8.4,4.5.3,5.3.2,9.4,1.7l.7,1.5c-3.2,4.7-4,.9-6.2,4.9l1.7,3.4c-.6,3.7-3.9,5.5-7.3,8.9-.5,3.1.6,6.9,3.2,8.8,2.1,0,2.6-.1,4.5-.6l1.6-.4,1.5,1c.6,3.6.4,4-.2,7.8l-.2,1.1c3.2,1,4.4,0,6.6,2-2,3.7-11.1,6.2-15.3,7.6-4.8-.9-8.6-7.3-14.3-8.6-2.9,2.5,1,3-1.1,6.5-3.3,0-26.1-9.2-29.7-12.1-9.2-7.3,2.2-15.1,3.9-21,2.3-8-4.8-11.5,6.1-14.9-.6-1.2-1-2-1.6-3.1l-.6-1.1c1-2.8.2-1.7,2.4-3.3,1.5.6,3.1,1.2,4.6,1.8,2.9-1.9,2.2-2.7,3.4-7.2Z"/>
  <path fill="#f7f9f0" d="M186.4,542.9c5.5,1.2,10.8,1.8,14.4,6.4,2.6,8.8-3.4,9.8-5.7,19.2l.5.8,3.9-2.1.6.9-1.6,5.8c2.1.6,2.2.7,4,1.8,2.1,7.5-5.1,8.8-5.7,15.2,1.9-.3,1.9-.3,3.8-.4,2.4,3.4.7,6.7,1.1,6.9,5.8,3,4.7,5.7.5,14.8-18.2,8.6-24.5,8-29.6-13-2.7-10.8-3.7-17.4-3.4-28.5,5.8-6.8,5.3-5.7,7.7-14.2,2.4-8.1,2.3-9.3,9.5-13.2Z"/>
  <path fill="#fafa09" d="M553.1,509.6c9.1.6,9.1,2.6,12.7,9.8,4.1,8.1,11.2-1,17,1,7.2,2.5,2.3,17.1.9,22.2,7.4,10.4,12.8,14.7,3.9,26.1-1.7.7-2.6.9-4.4,1.4-3.8-.7-6.3-3.7-9.2-6.5h-3.4c-18.3-.5-15.9-21.7-20.1-34.1-.3-1-4.4-2.8-5.8-4.5l.5-1.7c9.4-4.7,1.3-4.3,7.9-13.7Z"/>
  <path fill="#f7f9f0" d="M239.3,440.3c7.1,4.6,7.6,3.7,15.9,5.6,7.1,5.8,20.1,46,16.6,53.7l-2.2.6c-4.8.1-14.3,1-14.9-5.7,2.2-2.4,1.7-1.3,2.5-4.2-14.9-11.8-9.6-6.3-13.3-24.3-2.3-11.3-5.5-12.8-4.6-25.7Z"/>
  <path fill-opacity="0" d="M721.4,621.7l1.6.4c5.9,5.1,3.6,37.3-2.4,43.5-6.1,6.4-9.2,5.7-17.2,6.5-19.8-12.4,8.7-39.4,18-50.5Z"/>
  <path fill="#9bd106" d="M875.7,1341.3c5.1-.7,22.7-.7,27.7,1.1,5.4,2,5.1,5.7,7.2,10.6,9.1,4.8,18.3-9.8,23.6,3.7-1.2,6-9,10.8-14.9,9.9,1.7-1.8,1.8-1.6,2.7-3.9l-3.3-1.8c-.6-2.2-.5-2.1-2.1-3.7l-1.8.9c-3.3,5.6-4.5,5.1-.8,10l-1.5,1.1c-7.3,1.3-29.8,1.7-31.9-7,1.7-4.2,6.5-5.3,10.1-10.8.2-3.8.6-2-1.6-5.4-5.1-2-3.6.4-10.2,0-3.1-2.5-2.1-1-3.2-4.7Z"/>
  <path fill="#d2e39c" d="M740.9,415.1c-10.6,11.9-27.1,19.5-43.1,17.3-3.8-.5-8.7-3.1-7.7-7.6,6-6.4,16.9-4.6,23.1-8.2,9.5-5.5,15-18.5,27.7-12,0,3.5,0,7,0,10.5Z"/>
  <path fill="#9bd106" d="M1011.2,814.8c4.1,1.6,3.3.6,5.8,3.7.4,4.3.1,6.2,3.3,8.9l1.8-1.2c.6-2.9.6-3.2,1.9-5.8,3.4-1.5,1.7-1.5,5-.4,7.3,7.8,8,19.2.7,27.3-.7.3-2.2,2.4-2.9,3.2-5.8,1.4-8.1,3.3-13.5,5.7l-1.7-.9c-4-8.8-2.7-30.8-.5-40.5Z"/>
  <path fill="#9bd106" d="M962,1359.8h2.9c17.4.2,10.3,2.5,18.4,10.7,6.5,1.2,8.2-5.9,16.7-2.4,2.9,3.3,3,4.2,4.4,8.6-.3,3.3-1.6,4.1-3.9,6.6l-4.2-2.1-2.1.7-.5.9c-10.6.7-13.4.8-23.4-2.5-4.4-5.1-12.1-12.1-10.7-19l2.3-1.5Z"/>
  <path fill="#d2e39c" d="M164.5,778.1c3.5,1,10.5,3.3,12.9,5.4,6.8,6.1,38.2,22.6,39.3,29.3-2,2.3-.8,1.4-5.1,1.8-4.7-1.2-10.7-2.2-13.8-5.8-1-4.7-.9-5.2-3.9-8.8-2.9-.2-.6,2.9-5.8,5.5-14.2-2.4-25.6-12.1-23.6-27.4Z"/>
  <path fill="#9bd106" d="M869.1,1206.8c7,.4,24.5,3.1,25.7,11.3-3.2,5-14.9,5.8-22,8-6.3-1.5-26.4-3.6-28.7-5.2.4-5.5,18.1-7.8,25-14Z"/>
  <path fill-opacity="0" d="M653.5,1578.6c4.2.2,4.5,0,8.3,1.7,1.9,2.8,1.6,1.4,1.2,4.5-4,4.7-17.1,6.7-23.9,8.4-6.2,6.8-7.3,6.4-16.1,8-3.3,0-11.1-1.1-12.6-4.5l1.1-2.4c7.1-6,31.5-12.2,42-15.7Z"/>
  <path fill="#9bd106" d="M903.3,791.6c1.8.8,4.7,2.1,6.2,3.2,9.4,7.1,16.4,29.8,9.4,39.4-3.6-.4-6.7,1.3-10.5,2.1-5-12.9-1.1-31.5-5.1-44.7Z"/>
  <path fill="#9bd106" d="M1034.5,861c16.4-.2,29.2,5.3,15.2,24.9-.6.8-2.6,2.6-3.5,3.6-4,3.2-6,6-11.1,4.3l-1-2.4c.5-8.6,2.8-11,7.5-18.1-3.8-4.8-5.7-6.1-7.1-12.2Z"/>
  <path fill="#9bd106" d="M861.9,926.4c1.9,1.8-.6,1.9,3.7,4.9,5.1.1,22.8,1.5,25.5,6.3-1.8,4.2-8.6,5.3-12.8,6.5-12,.3-29.1-.7-29-16.6,2.2-1.8,8.8-1.1,12.6-1.1Z"/>
  <path fill="#9bd106" d="M979.2,1074.5c6.7-.1,26.7,1.9,30.7,7.7-.5,6.6-5.7,2.5-8.8,6.9-5,5.6-25.1,3.9-27.6-6,1.1-3.9,3-5.4,5.7-8.6Z"/>
  <path fill-opacity="0" d="M883.6,1498.7l1.8,1.1c1.1,9.9,4.2,3.6,6.5,8.4-4.4,3.2-26.9,9.7-33.4,11.7-5,1-5.4,1.3-9.1-1.7-1.5-9.1,27-17.2,34.1-19.4Z"/>
  <path fill="#fafa09" d="M325.2,540.8c2.3,1.2,2.5,1.1,3.8,3.2-2.6,14,9.1,10.9,7.4,20.9-4.9,5.8-8.5,1.9-12.5,7.1-2.6,3.5-1,2.6-4.3,3.7-1.8-.6-3-.9-4.1-2.5-5.2-7.7-.1-11.1,4.9-15.5,4-8.3-3.3-7.8,4.8-16.9Z"/>
  <path fill="#9bd106" d="M1005.8,1159.6c7.9.8,25.1,1.3,26,11.2-2.4,4.8-7.3,6.1-12.3,5.1-7.9-3.3-17.5-.6-22.5-6.8-1-4-1.4-2.5.1-5.2,4.3-1.2,7,1.5,12.3.7-.3-2.7-1.1-2.6-3.6-5Z"/>
  <path fill="#9bd106" d="M231,614.4c6,.5,21,11.9,19.9,19.3l-1.4.8c-2.6-1.2-3.4-2-6.2-1.6-3.6,3.4-2.8,4.7-3.2,10.4-3.4-.5-6-2.6-7.7-5.6-.4-3.7.3-4.4,2-7.9l.6-1.1c-1.7-1.4-7-.7-10.5-1-2.8-1.9-2-.7-2.7-3.8,2.9-4.7,6.3-3.3,9.2-9.5Z"/>
  <path fill="#9bd106" d="M1004.8,1226.3c-6.8.6-13.9,1.1-18.5-4.8-1.6-7.9,5.7-14.1,11.8-9.1-1.2,2.7-2.3,4.2-1.7,7,7-.6,10.1-6.5,16.3-3l2.3,3.3c3.8.4,4.2-.3,6.3,1.8-2.9,4.9-9.5,7.8-15.2,6.2l-1.4-1.5Z"/>
  <path fill="#f7f9f0" d="M348.5,445.1c6.3.2,12.6-.6,16.8,3.5,1,3.7.4,4.7-.6,8.2,2.3,4.4.7,4.8-1.8,8.6l-2.1.9c-6.6.4-15.2-9.3-16.2-16.1,1.3-3.9.3-2.2,3.7-5.1Z"/>
  <path fill="#9bd106" d="M994.8,1267c8.4-.5,17,.3,25.3,1.4,7.1,1,10.6,3.6,9,11.2h-1.5c-9.8,4.2-5.4,1-11.9-2.5-5.1-2.7-17.3,6.6-17.8-6.7,0,0-2.8-3.1-3.1-3.4Z"/>
  <path fill="#d2e39c" d="M920.7,931.7c6.9,1.9,13.8,13.6,13.2,20.7-.3,3.4-1.8,4.1-4,6.1-12.8-2.6-19.2-16.6-9.2-26.8Z"/>
  <path fill="#9bd106" d="M997.8,1183.8c12.9,3.2,19,9.2,30,12.8l-3.5,5.3-1.3,1c-6,1.2-19.1-.3-22.8-5.7l1-4.3c-3.1-3.7-3.3-4.2-3.5-9.1Z"/>
  <path fill="#fafa09" d="M294.5,579l6.7.2c7.3,3.8,10.7,18.6.2,20.9-3.9-1-4.6-2.3-7.7-5.2-4,1.3-10.8-.7-12.9-4.5,4.2-3.1,10.4-1.3,14.4-4.2-1.1-3.4-1.5-3.7-.6-7.2Z"/>
  <path fill-opacity="0" d="M583.1,973c7.6,2.3,21.1,22.2,25.8,28.9.7,1-.7,2.8-1.3,3.9-8.2-3.3-14.8-5.2-13.7-14.9-5.8-5.8-13.5-7-10.8-18Z"/>
  <path fill="#9bd106" d="M279.5,1343.8c12.5,3.1,12.1,22.5-.8,29.1l-.8-1.2c-.3-4.1,1.3-5.1,3.2-9.2-1.9-4.9-5.6-3.5-8-9.2.3-3.5,4-5.9,6.4-9.5Z"/>
  <path fill="#d2e39c" d="M496.5,577.5c5.1,3.1,11.3,15.3,9.3,21.4-.5,1.6-2.5,1.8-4.2,2.5-18.2.4-9.3-12.9-5.1-23.9Z"/>
  <path fill="#9bd106" d="M1002.1,1239.2c3.5-.1,16.2,1.4,18.5,3.8l-.7,1c-2.7,0-3.9.2-6.5.6-4.6,5.2-5.2,5.9-11.6,9l-3.6-.6c-2.9-3.6,0-4.6-4.4-8.7-2.8-.1-3.9,0-6.5-.9l-.4-1.6,1.4-1.8c7.1,2.5,6.4,1,13.9-.8Z"/>
  <path fill="#fafa09" d="M344.4,524.9c10.2,2.9,14.6,9.3,15.9,19.4-15.9-1.1-19.1,0-15.9-19.4Z"/>
  <path fill-opacity="0" d="M847.1,212.7c6.5,3.9,4.2,27.4,1.3,33.8-2.2-.2-2.1-.2-4.2-1.1-3.1-7.5-1.5-25.9,2.9-32.7Z"/>
  <path fill-opacity="0" d="M659.3,1061.5c4.6,4.5,16.4,22.4,8.2,27.2-4.5-3.9-12.6-14.5-12.4-21,0-3.3,1.8-3.9,4.2-6.2Z"/>
  <path fill-opacity="0" d="M496.6,1006.7c9.2.9,18.1,6.1,15.5,16.5-11.2.3-21.2-3-15.5-16.5Z"/>
  <path fill="#9bd106" d="M1063.6,926.8c3.3.6,3.5,0,5.6,2.1-1.9,2.5-1.3,4.2-2.4,7.2-3.4,2.1-8,1.8-12.7,3.8-3.3.1-6.8.2-8-3.4,2-7.9,11-8.7,17.6-9.7Z"/>
  <path fill-opacity="0" d="M565.1,952.5c7.9,1.1,21.2,9.1,20.2,18.1h-1.9c-9.6-.5-19.7-7.4-18.2-18.1Z"/>
  <path fill="#9bd106" d="M848.4,1330.3c7.4-.5,14.4.5,20.2,5.5,1.1,3.4,1.2,1.7-.5,5.1-2.3,1.2-2.4,1.1-5,1.6l-.2,1.6c-6.2,1.5-9.7-4.5-12.9-9-2.2-.8-1.4-.3-3-2.2l1.4-2.6Z"/>
  <path fill="#9bd106" d="M954.4,1308.8c.4.3.7.6,1,1,3.4,5.5,17.7,4.9,17.1,12.6-2.9,1.5-1.7,1-5.3,1.1-7.9-2.1-14.3-3.5-22.3-5,2.5-3,6.6-6.9,9.5-9.7Z"/>
  <path fill="#9bd106" d="M892.5,1136.9c4.3-.4,9.1.7,10.8,5l-1.4,2.4c-3.4,1.8-7,3.8-10.8,4.3-7.1-2.9-10.5-4.3-17.9-6.1,6.4-1.8,12.8-3.7,19.2-5.6Z"/>
  <path fill="#9bd106" d="M845.4,1227.7c6.4.5,13.5,0,15.5,7.2-.5,3.6-2.4,5.2-4.9,8-1.2-.4-1.9-.3-2.5-1.3-2.9-4.7-8.1-2.4-11-5.8,0-3.3,1.4-5.1,2.9-8.1Z"/>
  <path fill="#f7f9f0" d="M215,759.6c12.1,2.1,13.6,9.2,16.4,20.3l-2.5.7c-9.4-1.5-12.4-13-13.9-21Z"/>
  <path fill-opacity="0" d="M494.8,940.6c9.9,1.4,16.2,17.7,18.1,26.4-9.4-1-16.2-18-18.1-26.4Z"/>
  <path fill="#9bd106" d="M705.3,530.7c6.2,0,7.9,11.7,3.2,15.8-3.4-.5-2.4-.5-5.5-3.3-5.1-7.2-5.4-1.4-11.6-7,1.3-1.8,9.4-2.2,13.8-5.5Z"/>
  <path fill="#9bd106" d="M942.8,1252.3c5.4.3,15.9,3.7,17.8,9.4l-1.4,1.1-3.3-1c-5.7,1.7-14.4,2.2-17.4-3.9,1.2-3.8.8-2.6,4.4-5.6Z"/>
  <path fill="#9bd106" d="M1051.4,1350.5c3.1-1.5,7.8-.2,9.7,3.2l-.9,3c-2.8,3.1-5.1,3.8-9,5.6-1.2.7-.5.5-2.2.4.7-6.4-4-5.5-8.4-10.7,2.2-1.6,7.5-1.3,10.8-1.5Z"/>
  <path fill="#9bd106" d="M1000,872.7l1.1-.6c3.2.4,2-.3,3.9,2-.2,7.3-5.4,9.8-11.8,7.1-4.8-1.3-5.7-1.4-9.7-4.4l.2-1.5c6.3-1.9,10.4-.5,16.3-2.6Z"/>
  <path fill="#9bd106" d="M1071.5,1320.1c2.9.2,3.6,1.3,4.4,3.6-1.7,7.3-6.6,7.3-13,7.4-2.7-.8-2.5-.9-4.7-2.9v-2.1c3.5-4.2,8.1-5.2,13.3-5.9Z"/>
  <path fill="#9bd106" d="M996,1294.7c12.2,4,11.2,2.6,23.3,3.7l-.3,1.4-4.6,2.2-.2.3c-13.9,7.5-12.3,3.2-19.7-5.3l1.4-2.3Z"/>
  <path fill="#9bd106" d="M916.5,1169.7c7.6-.3,13.1,4.1,10.3,11.7h-2.6c0,0-8.6-1.2-8.6-1.2l-1.5-1.1-.4.6c1.2-2.3,1-1.8,1.7-4.5l-3.3-.5v-1.4c.1,0,4.5-3.6,4.5-3.6Z"/>
  <path fill="#d2e39c" d="M1066.2,1393.9c4.3.5,4.7.5,7.2,3.7.2,3.7.7,2.1-1.3,5.1-3.8,1.9-2.4,1.4-7.2,1-3.5-1.3-5.3-1.6-8-4.3v-1.9c2.7-2.5,5.6-2.8,9.3-3.6Z"/>
  <path fill-opacity="0" d="M265.5,967.2c7.8.3,17.6,4.6,17.8,13.5-9.2-.3-15.9-4-17.8-13.5Z"/>
  <path fill="#9bd106" d="M948.9,1228.8c5.8-.2,23.1-1.8,22,6.3-10,3.7-15.4,2.1-22-6.3Z"/>
  <path fill-opacity="0" d="M879.1,195.1c2.6,1.1,2.5,1.3,4.6,3.2,2.8,6.9.3,12-1.7,19.3-5.9-5.7-7.4-15.5-2.9-22.5Z"/>
  <path fill="#9bd106" d="M841.3,1104.5c4.1.8,12.5,2.6,13.4,7.4-2.8,2.4-2.6,1.6-7,2.2-3.1.2-1.7,2.8-7.7,2.1l-1.2-1.6c.5-4.8.8-5.5,2.5-10.1Z"/>
  <path fill="#f7f9f0" d="M379.6,1395.4c3.9,5.5,1.7,22.1-2.7,26.9-4.7-7.2-.8-19.7,2.7-26.9Z"/>
  <path fill="#9bd106" d="M1047.4,1215.1c1.3.7,1.1.8,2.2,1.9l-2,1.7c1.9,3.6,8.6,1.2,11.3,9.5l-.8,1.4c-5.7,0-14.3-2.9-15.4-9.1,1.7-4.1.8-2.7,4.7-5.4Z"/>
  <path fill="#9bd106" d="M865.5,1262.6c6.2-.3,15.2-1,20.3,2.7l-.2,1.4-3.4,1.2c-9.2-1.7-12.5,3.2-18.9-1,0-3.2-.4-1.7,2.1-4.4Z"/>
  <path fill="#9bd106" d="M843.8,1256.4c5.4-.3,11.3-2.9,16.1,2-.7,3.5-.5,2.4-3.6,5.4-9.2-4.7-7.9,1-14-2.2-.2-2.8,0-2.8,1.6-5.3Z"/>
  <path fill-opacity="0" d="M307.5,1022.1c8.8,2.8,11.4,14.2,10.5,22.5-5.9-2.9-9.7-16.3-10.5-22.5Z"/>
  <path fill="#9bd106" d="M1033.3,926.8c2.1,2.8,2.5,3.6,1.6,6.8-4.5,3.5-11.3,2.8-16.8,2.5,0-2.7.3-2.7,1.3-5.2,5-3.3,7,2.7,13.9-4.1Z"/>
  <path fill="#d2e39c" d="M420.6,450.8c4.7.5,5.3.6,7.9,4.1.7,4-.3,5.9-1.6,10-3.5,0-2,.4-4.8-1.4-2.6-4.3-2.3-7.8-1.5-12.7Z"/>
  <path fill="#9bd106" d="M1054.5,1135.6c2.4.7,1.5.3,3.4,2.2-.8,3.9-2.3,6.1-5.6,8.4l-3.6-.9c-2,.8-.9.6-3.3.6l-.8-1.8c2.1-5.1,5-6.6,9.9-8.5Z"/>
  <path fill="#9bd106" d="M858.2,1157.9l3.1,2c1.1,2.2,2.9,10.9,2.7,13.2l-2.6.5c-2.8-.8-7.1-1.6-8-4.5,5.9-5.4,5.8-3.8,4.8-11.2Z"/>
  <path fill="#9bd106" d="M997.9,954.5c3.6.3,6.5,0,9,2.3,1.1,3,0,4.8-1.2,8-1.4,1.6-1,1-3.1,2l-2-1.2c-2.2-4.5-2.1-5.9-2.7-11Z"/>
  <path fill="#9bd106" d="M1036.8,1084.4c4.6-.2,7.4-.7,10.8,2.2,0,3.9,0,2.7-2.6,6.5-5-.9-8.4-1.8-9.4-7l1.2-1.8Z"/>
  <path fill="#9bd106" d="M951.2,1126.4c3-.4,2.9-.5,5.9.1l.5,1.1c-1.1,3.6-2.7,4-5.9,6.5-2.8-.3-7-.5-8.7-2.9l1.5-1.7c2.5-.7,3-.9,5.1-2.2l1.6-1Z"/>
  <path fill="#9bd106" d="M1007.4,950.5c7.3,1.4,12.4,1.3,14.4,9.2-8.9,2.3-11.1-2.2-14.4-9.2Z"/>
  <path fill="#9bd106" d="M917.8,1270.3c7.1,2.3,10,4.4,10.8,12-2.9.9-3.6,1.4-6.5.9-1.5-1.7-2.6-9.1-4.3-12.9Z"/>
  <path fill="#9bd106" d="M998.4,1112.7c1.5-1,3.4-1.1,5-.3,1.6.8,2.6,2.5,2.6,4.2,0,1.8-.9,3.4-2.5,4.3-2.3,1.3-5.2.6-6.6-1.7-1.4-2.2-.7-5.2,1.5-6.6Z"/>
  <path fill="#9bd106" d="M987.5,1135.4c4.2.4,7.3,2.9,11,5.3,4.7,0,8.1-.7,11.6,1.4-11.3,2.2-16.6,4.9-22.7-6.7Z"/>
  <path fill="#9bd106" d="M1044.4,1241.7c2.5-.8,5.1.5,6,3,.9,2.5-.4,5.1-2.8,6.1-1.6.6-3.5.3-4.8-.8-1.3-1.1-1.9-2.9-1.6-4.6.3-1.7,1.6-3.1,3.2-3.6Z"/>
  <path fill="#9bd106" d="M932,1226.2c4.9,0,8-.4,11.8,3.1l-.4,1.5h-2.8c-.7.4-1.3.6-2,.9-3.4,1.2-4.9,1.6-8,0-.5-3.7-.7-1.8,1.3-5.6Z"/>
  <path fill-opacity=".2" d="M844.3,481l2.1.8c2.9,4.1,1.1,13.3.6,18.4-1.8-.9-1.3-.6-2.9-2.1-1.5-6.3-1-10.8.2-17.1Z"/>
  <path fill="#9bd106" d="M845.7,1144.8c4,1.5,3.9,1.8,5.3,5.5-.3,4.5-1,5.3-3,9.6-3.2-2.2-3.3-1.4-3.9-4.2,1.9-4.7,2.2-5.8,1.6-10.9Z"/>
  <path fill="#9bd106" d="M997.1,1344.6c3.9.8,5.3.9,8.6,2.8,2,3.5,1.5,1.6.9,6-4.6.4-3.3.9-7.1-.7-2.2-2.9-2-4.4-2.4-8.1Z"/>
  <path fill="#9bd106" d="M1060.5,1244c3.8-.2,10.1-1.5,12.2,1.7l-1.5,2.7c-4.5,1-8.3,2.7-11.4-1.2l.7-3.3Z"/>
  <path fill="#9bd106" d="M901.5,1167.3c3.6,1.8,2.4.5,4.1,3.5-.2,3.4-1.6,4.7-3.6,7.5-3.5-1.7-3.3-2-4.5-4.8.7-3.6,1.4-3.9,4-6.3Z"/>
  <path fill="#d2e39c" d="M280.3,476c3.5.3,3.8.5,6.9,1.4,2.6,2.3,2.4,4,3,7.5-7.2,0-8-2.7-10-8.9Z"/>
  <path fill="#d2e39c" d="M425.4,494.8c2.8,1.1,1.9.7,4.3,2.9,1.5,3.5.8,5.6.2,9.4-2.3-.8-2.3-1-4.2-2.7-1.6-3.4-.8-5.7-.2-9.5Z"/>
  <path fill="#9bd106" d="M1063,1187.3c4.2,0,5.9-.2,9.8,1.2,2.6,2.7,1.8,1.1,1.8,5.2l-2.9,1.4c-3.5-1.4-6.1-4.9-8.7-7.7Z"/>
  <path fill="#d2e39c" d="M465.1,554.2c4,.9,2.5-.1,5,2.3-.9,3.5-1.9,3.4-5.1,6.4-.6,0-2.4-.5-3.1-.7l-1-2c.7-3.1,1.9-3.8,4.2-6Z"/>
  <path fill="#9bd106" d="M857.4,1133.4c4.1.6,4.2,0,7.1,2.2-.7,3.1-1.3,2.6-4.3,5.1-3-.2-2.9,0-5.2-2,.1-3.6-.3-1.8,2.3-5.3Z"/>
  <path fill="#d2e39c" d="M365,496.9c3.6,1.6,5,2.9,5.3,6.7l-1.9,1.8c-3.1-.9-4.6-1-6.9-3.3.5-3.2.6-2.4,3.5-5.3Z"/>
  <path fill="#9bd106" d="M970.4,420.9c2,1.1,1.5.9,3.2,2.7,1.1,3.8,0,6-1.1,10-2.3-.9-1.5-.4-3.3-2.4-1-3.9.1-6.2,1.3-10.3Z"/>
  <path fill="#9bd106" d="M559.6,1263.9c3.2.8,4.5.9,7,3v1.7c0,0-3.4,2.1-3.4,2.1l-1.5,2.2-1.3-.5c-1.5-3.7-1.2-4.4-.8-8.6Z"/>
  <path fill-opacity="0" d="M670.5,1622.8c2,1.3,1.7,1.3,3.3,3.3-.5,3.1-.2,2.1-3.6,4.6-2.2-1.3-2-1.2-3.3-3.5,1.3-3.4.3-1.8,3.7-4.4Z"/>
  <path fill-opacity="0" d="M610.4,1644.6c1.2-.7,2.8-.4,3.6.9.7,1.2.4,2.8-.8,3.6-.8.5-1.8.6-2.6.1-.8-.4-1.4-1.3-1.4-2.2,0-.9.5-1.8,1.3-2.3Z"/>
</svg>