<?xml version="1.0" encoding="UTF-8"?>
<svg id="_레이어_1" data-name="레이어_1" xmlns="http://www.w3.org/2000/svg" version="1.1" xmlns:xlink="http://www.w3.org/1999/xlink" viewBox="0 0 1024 1024">
  <!-- Generator: Adobe Illustrator 29.3.1, SVG Export Plug-In . SVG Version: 2.1.0 Build 151)  -->
  <defs>
    <style>
      .st0 {
        fill-opacity: 0;
      }

      .st0, .st1 {
        fill: #daf55b;
      }

      .st2 {
        fill: #a0c902;
      }

      .st3 {
        fill: #9ea456;
      }
    </style>
  </defs>
  <path class="st2" d="M227.9,73.6c15.1-28.9,33.4-53.2,65-64.1,24.1-8.3,38.9,4.9,58.8,13,32.1,13,56.1,17.9,65.4,55.9,4.8,19.7,5.3,38.6,1.2,59-1.5,7.5-4,14.5-4.5,22.3,2.4-1.2,6.6-3.9,8.3-4.6,10.5-4.6,20.6,2.9,30.8,2.9,2.5,0,4.4,1.4,5.8,3.4,3.5,4.8,8.7,0,12.4,3.2,5.2,4.6,4.5,15.3,4.5,21.8,20,9.1,42.2,18.3,62.5,27.1l101.8,44.9,56,25.2c8.9,4.1,30.2,14.5,38.6,16.3,2.4-3.5,7-10.2,11.4-11,5.7-.9,7.5,7.7,14.8,5.2,3.6-1.2,5.4.9,7.6,3.5l.8.9c.2.2.3.4.4.5,10.5,1.9,12.5,7.1,22.2,10.9,3.4,1.4,5.9,11.2,7.5,14.3,3.3,5.8,14.1,8.5,20.2,11.8,5.1-8.1,8.7-16.5,13.4-24.7,12.7-21.9,32.2-45.5,57.7-51.5,4.5-1.1,14.6-1.7,18.9-.4,11.1,3.3,21.4,9.1,32,13.5,12.6,5.2,25.4,10.4,37.9,15.6,20.8,8.6,28.8,22.8,32.4,44.8,3.1,18.4,1.3,35.9-2.5,54-1.3,6.6-3.9,15-4.3,21.4,4.7,1.7,17.5,5.6,18.8,9.6,3.6,11.1-5.5,30.2-19.2,21.7-2.3-1.4-8.5-4-10.8-5.1-4.5,8.3-9,17.7-14.2,25.9-14.4,22.3-42.3,53.7-71.7,46.8-13.6-3.1-28.5-12.8-41.6-17.9-11.6-5-23.1-8.8-34.1-14.8-13-7-20-19.5-23.5-33.8-6.4-25.7-3.2-59.3,4.3-84.3-6.7-1.8-12.3-3.7-18.6-6.9-3.9,8.5-5.6,11-11.2,18.4,0,9.6.4,18.9,1.2,28.5.6,7.3.4,15.1,1.6,22.4,4.2,26,9.6,53.4,4,79.6-2.1,9.8-7.2,18.5-10.6,27.9-3.9,11.4-1.6,23-15.9,27.1-9.9,2.8-20.2,4-30,7.1-14.4,4.6-26.4,11-41.3,14.4-8,1.9-16.2,2.6-24.4,2-15-1-27.4-5.9-40.4-13.4-28.7,28-52.9,35.1-91.3,38.5-6,.5-18.6.5-23.3,2.9-6.2,3.3-14.3,11.3-20.4,15.9-6.9,5.1-12.6,6.8-17.2,13.8-1.3,27-2.7,48.1-23.7,67.1-6.2,6.3-13.8,9.7-21,14.6-10.2,7-21.2,18.3-34.1,19.5-6.2.6-10.6-12-12.1-16.9l-1.3-1c-2.4,2.1-1.7,9.5-.4,12.3l.5,1.1c2.3,5.1,6.2,10.6,9.4,15.4,6.8,10.4,12.5,22.7,14.2,35.1,2.5,17.7-1.6,37-3.7,54.7-2.8,23.7-5.9,46.5-6.2,70.5-.2,14.8,3.2,13.6,7.6,26.9,1.1,3.4.9,13.8,1.6,17.8,1.1,6.3,4.6,11.7,4.6,18.1,0,2-.3,4.1-1,6-2.2,6.1-8.9,7.7-12.1,11.2-8.6,9.5-14.8,20.3-27.4,25.1-16.1,6.2-37.8,8.7-54.3,3.3-10.8-3.5-9.4-17.2-4.7-24.5,12.9-19.9,30.3-33.8,35-58.9.9-4.7,3.9-10.7,4.8-15.6,2.4-13.2-.2-29.8-4-42.4-6.8-22.6-21.7-41.8-29.6-64-7-19.6-3.3-35.5-4.2-55.1-.4-8.2-7-18.4-9.9-25.8-8.3-18.7-8.2-41.1.8-59.4,7.3-14.8,16-17.6,27-26.2,13.7-10.7,20.2-19,38.5-23.9,2.9-.8,10.1-2.6,12.8-3.7-16.4-1.2-32.7,2.4-46.3,12-1.7,1.2-4.4,4.8-6,5.7-21.6,12-41.4,27.5-42.9,55.2-.1,2.8-.2,5.5-.3,8.3-25.7,5-45.9,7.2-71.7,1.3-10-2.3-33.4-10.7-42-6.7-1.6,2.8.3,8.9,1.1,12.1,5.9,22.4,3.8,48.5-7.1,69.1-2.7,6-10.4,12.6-12.7,18.2-7.6,18.1-12.4,37.9-15.2,57.5-2.8,19.4,15.5,46.1,7.3,63.9-5.8,12.5-39.2,6.3-50.6,8.6-12.3,1.9-22.9,4.3-35,7-16.3,2.3-40.3,4.6-54.9-4.3-5.9-3.6-8.3-11.1-3.2-16.5,9.5-10.1,27-10.9,38.8-17.8,14.6-8.6,38-26.3,45.6-40.6,2.1-4,3.4-8.3,3.9-12.7,1-8.7.3-19,.4-27.8.6-29.5-2.7-59.4-1.2-88.9,1-18.7,8.1-33.4,5.1-53.2-1.2-7.7,3.6-27.3,6.7-34.5,6.1-12.1,20.1-16.2,30.2-21.9,33.7-19.3,67.2-33.7,106.2-36.1,12.7-.6,29.2-1.6,41.7-.4,24.3,2.4,43.3,4.5,63.7-11.4,10.2-6.3,15.5-12.1,21.1-23,2-3.9,14.8-11.6,16.4-15.6,9.6-23.9,13.3-33.6,32.8-51l1-.2c7.8-1.3,28.1-1.3,33.6-3.4l-.2-.7c-14.6-6-31.9,1.8-21.9-25.1,4.4-11.9,22.1-20.7,31-29.2-27.1,10-40.6,17.4-44.8,48.7-34.7-10.8-50.8-37.7-58.7-71.2-1.3-5.6-13.6-17.8-15.1-24.6-3.3-10,.5-15.1.6-23.4.2-15.9-1.4-26.2,3.4-41.9,6.7-22.1,18-35.4,29.8-53.8,5.2-8.2,9.9-16.6,14.3-25.2,7.7-15,7.5-16.9,10.9-32.8l-.5.5c-5,5.7-9.6,12.6-14.5,18.4-18.7,22.4-47.5,42.5-77.4,32.1-13.2-4.6-24.8-11.7-37.1-18.1-8.3-4.3-18.8-8.2-26.7-12.8-3.1-1.8-6-3.9-8.7-6.3-26.4-24.7-24.1-75.7-13.4-107.4-3.4-1.6-10.1-3.9-12.3-5.8-2-6.8-1.4-18.3,6.7-20.7,5.2-1.6,9.2,1.1,13.7,3.4ZM635.6,490.2c-1.8,2.4-3.8,4.9-5.4,7.4,2.6-1.9,5.1-3.6,7.5-5.7,18.6-14.5,51.5-24.9,71.5-7.6,2.3,6.1,3,9.7,5.9,16.2-1.2-15.9-.2-33.9,6.4-48.4,7.4-16.4,16-28,17.4-46.9.8-12.1,1.9-24.7,2.2-36.8.2-6.3-11.6-16-15.4-21-7.3-9.4-6.6-17.9-5.4-29-6.4-3.1-16.5-6.9-23.4-9.9l-49.1-21.7-175.4-78.4c-4.8,3.8-9.2,7.3-15,9.7-6.5,2.7-19.1,2.4-24.4,6.7-2.1,1.7-4.6,11.4-5.7,14.6-2.8,8.6-9.1,25.3-9.4,34-.5,22.1,9.5,48-3.3,68.2-2.8,4.4-12.1.6-15.4,4.4,1.5,1.1,17.5,3.2,22.3,4.9,18.6,6.4,28.3,15.2,32.3,35.6,1.3,6.6,1.9,12.4,5,18.3,0-2.5-.6-15.2,1.8-15.4,27.7-3,44.8,11,56.3,34.3,5.5,2.2,7.6,4.7,13.8,5,7.3.3,15.9-8.9,20.9-13.9-11.5-19.8-10.5-25.6,4.9-42,10.4-11.1,6.4-16.3,22.2-21.7,7.9-13.3,12.3-12,25.2-18,37.2-17,74.1,22.1,74.1,59.4,0,14.4-5.4,28.2-15.3,38.4-10.9,11.1-17.5,11.3-31.1,15.1-13,3.7-22.4,7.6-36.6,7.5-7.9-4.4-17-9.3-26-11-6-1.1-20.3-3.5-26-.9v.8c4.9,1.5,9.7,2.1,14.7,3.1,13.9,2.8,26.5,7.4,39.6,12.4,5.6,1.2,12.8.4,18.4.4,15.7.1,28.5,5.6,40.8,15.1-8.2,5.7-13.5,9.9-20.7,16.7ZM884.7,479.7c-1.6-8.1-4.6-18.6-4.8-26.6-1.7-55.4,29.4-139.9,83.4-159.9l-9.1.5c-57,14.5-96.6,126.7-75.6,179,.9,2.3,3.1,7.3,6.1,7ZM912.7,280.7l1.6-3.2c-20.2,3.3-34.8,25-46.8,40.1-23.3,29.4-47.3,115.4-20.5,147.2-2.9-13.6-4.9-25.6-4.5-39.5,1.4-49.2,21.9-100.7,57.5-134.3,3.9-3.7,9-6.8,12.7-10.3ZM273.9,211.1c-1.6-9.1-6.6-18.1-7.2-27.9-3.4-51.8,19.1-111,62.7-140,3.1-2,17.7-8.5,18.3-9.3-1.6-.3-1.5-.4-3.1-.2-26.8,5.9-41.8,19.4-57.2,42.8-19.1,29.1-32.4,73.2-24.9,108.2,1.9,8.9,4.6,19.7,11.4,26.3ZM243,193.4c0-.3.1-.5.2-.8-1.1-9.3-4.7-20.4-4.8-30,0-13.8.5-30.3,3.8-43.6,6.6-26,23.5-57.7,42.5-76.4,6.4-6.3,19-15,27.1-18.9.8-.4.8-.6,1.4-1.3-1.7-.5-1.1-.5-2.7-.3-55.6,14.5-89,102.5-74.4,155.2,1.5,5.5,3.4,11.5,6.9,16ZM595.8,500.7l7.6-7.5c-33.8,13.2-54.5,24.2-90.9,7.2-7.7-3.6-18.2-10.5-25.5-13.1,8.9,13.7,31.6,28.5,47.6,31.3,18.3,3.2,36.6.5,52.1-10.2,3.3-2.2,6.3-4.8,9-7.8ZM354.9,157.6c-8.1-4.5-13.5-9.7-8.4-20.6,3.6-7.6,15.7.9,19.8-3.1,1.6-7.9-5.6-13.5-12.6-13.9-16.3,7.4-19,18.5-17.7,35.5,2.5,4,3.8,6.1,8.5,7.5,3.5,1,11.1-.3,11.6-4.6l-1.1-.8ZM959.1,423c-3.1-2.5-8-5.1-8.3-9.4-.4-6.9,3.3-19.6,10.2-22.3,4,.2,6.9,1.9,9,.7,3.5-6.2-4-10.7-9.9-10.6-30.6,17.5-14.7,61.6-.9,41.6ZM458.4,496.8c6.2,8.6,9.3,12.6,13.5,22.3,2.9,6.8,4.3,20.6,6.8,24h.5c1.8-18.6,2.2-41.9-20.7-46.2ZM697.6,519c-24.9,6.9-32.1,3.9-57.7,0,1.9,1.6,4.5,4.1,6.8,5,14,9.1,28,11.2,43.2,3,3.5-1.9,7.1-2.6,8.1-7l-.4-.9ZM327.5,775.1c1,11.5,5.1,42.8,12.7,51.1h.6c2-7.6-6.3-47.3-13.3-51.1ZM524.2,535.4c3.3,6.9,5.7,12.1,13.6,15,4.4,1.6,12.1.9,16.3-1.3v-1.4c.3.1-30.6-12.4-29.8-12.2ZM432.9,527.8c-1-2.4-2.2-5-3-7.4,1.2-3.8,6-13.8,5.6-15.2h-.6c-2.8,1.6-6.3,3.6-8.2,6.3-7.3,10.2-14.7,5.4-26.6,8l.9.4c5.3,2,9,2,13.3,3.9,1,3.3-4.6,9.5-6.2,13.4-.7,2.3-1.5,4.1-1.1,6.5,6-2.4,4.6-17.1,26-15.9ZM428.2,486.4c-7.2,1.5-12.2,3.5-16.5,10-.3.4-.5.8-.8,1.2,5.1-2.3,7.5-3.3,13-4.6,4.7-.2,15.1-.2,19-1.6l.5-1.1c-3.1-4.2-10.7-4.4-15.3-4ZM384.4,346.1c8.1-7.6,13.2-16.3,14.1-27.9.2-2.5,0-8.5-1.2-10.5-4.1,9.1-5.2,20.6-10.2,29.8-.9,1.7-3.7,7-2.8,8.6ZM125.6,717.4c-7.7,19.7-12.4,32.8-3.6,53.7,1.1,2.7,2.4,5.4,3.7,8l1.8,1.6.5-.5c-3.6-18-5.9-32.4-2.7-50.9.5-2.9,2.3-9.8.3-11.8ZM506,442.8c-17.1,3.2-22.8,10.8-34.3,23.7.9,3.9,1.7,10.5,4.6,12.7l.9-2.6c8.4-24.3,21-22.7,39.6-33.9-3.4,0-7.5-.3-10.8.2ZM418.4,415c-3.7-7.2-13.6-15-18.8-21.8-3.1-4.1-10.2-18.7-13.3-20.9-.4,11,3.7,22.5,10.8,30.8,4.4,5.2,14.6,11.8,21.3,11.9Z"/>
  <path class="st1" d="M398.1,190.4c-.1-2.5,3.1-7.8,4.4-9.9,1.7-.1,1.1-.2,2.7.3l.5,1c-1.4,1.9-5.7,7.5-7.7,8.5Z"/>
  <path class="st1" d="M914.4,277.5c4.3-1.1,6.6-1.5,11-2.2-2.8,1.6-9.4,5.4-12.6,5.3l1.6-3.2Z"/>
  <path class="st0" d="M635.6,490.2l2.1,1.7c-2.4,2.1-4.9,3.8-7.5,5.7,1.6-2.4,3.6-5,5.4-7.4Z"/>
  <path class="st2" d="M629.9,577.8c43.4,16.8,46.1,13.9,89.2,2.2-1.9,14.7-5,19-18,26.4-12.1,6.9-24.7,13.5-36.1,21.6,7,24,11.5,69.7,17.9,90.7,1.4,4.7,62.4,19,68.6,25,2.1,2,2.2,20.5.9,24.1-2.3,6.5-12.6,10.1-19,13.3-7.3-1.6-16.2-4.2-23.1-7.1l-3.4-4.8c-10.6-4-22.2-7.2-32.9-10.9-22.6-7.9-45.1-15-68-22.1-2.1.8-5.3,1.9-7.5,1.6-6.8-1-17.7-2.9-22.4-8.1-1.7-4.2-1.5-15.2-1.4-20,.2-10.8,14.8-17,23.8-15.1,13.8,2.9,27.4,10.5,41.4,12.6l-2.1-12.3c-2-13.2-6.7-34.1-10.1-47.1-21,13.7-42.7,25.7-64.4,38.1-23.6,13.5-47.3,27.3-70.8,41.1l-48.3,28c-7.9,4.7-20.2,12.9-28.2,16.1-2.5-8.2-6.6-16.6-9.8-24.8,51-34.1,76.1-37.2,80-107,6.9-6.1,22.2-16.8,29.5-22.7,4-3.2,24.5-3.3,31.1-4.2,20.5-2.7,43.3-7.5,61.3-18.8,8.1-5.2,14.2-10.6,21.8-15.9ZM486.3,699.6c8.9-4,23.1-12.1,32.1-17,27.1-14.9,54-30.4,80.5-46.3,13-7.8,26.1-15.1,38.7-23.7,4.2-2.8,9.1-5.4,12.9-8.6l-.2-.6c-5.6,2.9-11.2,5.2-16.7,8-41.9,21.6-83,45-123,70-5.4,3.4-21.4,13-24.9,17l.6,1.1Z"/>
  <path class="st2" d="M279.9,711c2.7-.1,4.2-.4,6.3,1,1.8,6.5,3,11.1,5.4,17.4,1.8,4.7,8.5,18.5,9.1,22.7,1.5,9.4.7,23.7,1,33.5.2,7,1.6,15.7.4,22.2-3.9,4.5-10.2,11.8-12.6,17.3-5.1,11.6-9.5,26.6-13.1,38.8-4.6,15.7-16.7,46.8-18,62.4,7.1,3.4,37.7,9.7,40.7,14.8,3.4,5.7,2.9,19.2,1.3,25.6-.5,1.9-1.1,3.3-2.9,4.3-5.8,3.3-24.9,8.2-31.3,5.1-2.9-1.4-3.5-4.6-4.4-7.4-20-8.8-45.7-14.7-66.5-22.4-2.4-.9-6.2-1-8.9-1.1-5.2-.2-20.3-3-23.3-7.5-1.5-5.9-1.4-23.1,1.1-28.6,9.8-8.8,24.3-5.3,35.4-1.3,16,5.7,15.5,4.8,19.8-10.8,5.3-19.3,11.8-38.8,17.7-57.9,5.1-16.3,9.3-32.1,19.2-46.1,1.6-2.2,3.8-5.3,3.4-8.1-3.5-2.7-12.8-4.6-17.2-6.2-13.2-4.5-33.8-8.9-45.4-15.8-.4-1.7-.7-3.3-1-5-1.3-9-2.7-23.6,2.8-31.2,2.5-4,19.6-13.6,23.2-13.8,9.9-.3,19.3,1.3,29.2,1,10.1-.2,18.6-2,28.3-3.2ZM286.7,760.2c-3.9-6.5-66.2-23.8-76.1-24.1,6.6,6.5,64.3,23.4,76.1,24.1Z"/>
  <path class="st2" d="M839.3,542.5l.6.7c.5,10-7.3,34.5-11.4,43.8-16.3,37.4-44.2,67.1-78.9,87.2-15.2,8.8-30.4,14.5-46.4,20.9h-.2c-.1-1.2,6.3-4.9,7.7-5.9,16.3-10.6,31.9-22.2,46.8-34.7,27.8-23.8,51-52.6,68.5-85,4.7-8.5,8.5-19.6,13.1-27.2Z"/>
  <path class="st2" d="M278.4,295.6c-8.4,42.6-5,96.3,7.8,137.8,4,13.1,9.4,25.9,13.8,39l-.7,1.2c.7,2.2,1.4,3,1.1,5.4-2.3-.6-1.4-1.6-3.9-3.6l-.5.3c-33.3-48.6-47-126.7-17.7-180.1Z"/>
  <path class="st2" d="M820.9,500.2c1.4,3.9,0,9.5-.2,13.5-1.4,49.7-36.6,97.6-80.7,117.8,0-2,14.9-16.6,17.2-18.9,29.6-28.9,52.6-71.9,63.6-112.4Z"/>
  <path class="st2" d="M310.1,277.9c2.2-4.3,2.9-5.1,5.9-8.7-1.7,6.2-3.5,12.4-5.4,18.5-12.8,54.4-9.7,89.2,5.3,142.5-5.2-7.9-12.2-23.2-15-32.2-13.7-44.8-11.4-78.1,9.1-120.1Z"/>
  <path class="st3" d="M310.1,277.9c2.2-4.3,2.9-5.1,5.9-8.7-1.7,6.2-3.5,12.4-5.4,18.5-1.4-5.3,2.1-5.4-.5-9.8Z"/>
  <path class="st3" d="M300,472.5c3.9,8,7.1,16.7,11,24.8-4-5-12.7-15.9-15-21.5l.5-.3c2.5,2,1.5,3,3.9,3.6.4-2.3-.3-3.1-1.1-5.4l.7-1.2Z"/>
</svg>