<?xml version="1.0" encoding="UTF-8"?>
<svg id="_레이어_1" data-name="레이어_1" xmlns="http://www.w3.org/2000/svg" version="1.1" xmlns:xlink="http://www.w3.org/1999/xlink" viewBox="0 0 1740.5 1552.7">
  <!-- Generator: Adobe Illustrator 29.3.1, SVG Export Plug-In . SVG Version: 2.1.0 Build 151)  -->
  <defs>
    <style>
      .st0 {
        fill-opacity: 0;
      }

      .st0, .st1 {
        fill: #fbfce7;
      }

      .st2 {
        fill: #e2f795;
      }

      .st3 {
        fill: #aede41;
      }

      .st1 {
        fill-opacity: 0;
      }

      .st4 {
        fill: #8dce0f;
      }

      .st5, .st6 {
        fill: #9ac449;
      }

      .st6 {
        fill-opacity: 1;
      }

      .st7, .st8 {
        fill: #d0f274;
      }

      .st8 {
        fill-opacity: .1;
      }
    </style>
  </defs>
  <path class="st4" d="M90.1,28.1c25.3-9.1,41.7-.6,64.9,8.9,11.6,4.8,23.2,9.3,34.9,13.6,24.1,8.9,27.1,7.9,52.6,6.2,20.9-1.4,41.9-3,62.8-5,19.4,10.2,16.9,13.6,15.1,36-7.8,2-20.3,3.3-28.6,4.5l-.5,1.3c4.5,7.3,8.7,11.9,13.5,18.8,5.6,14.4,4.4,18.4,3.3,34.2,35,64.1,67.6,132.1,101.6,196.9,12.7,24.3,31.4,65.4,45.7,87.7,17.5,4.7,18.3,6.5,18.5,27.1,5.8,7.4,5.2,10.1,7.8,13.6,9.3,12.6,18.5,24.7,27.1,38.1.1,5.5,0,18.6,1.2,23.2-3.9-1.3-2.5,0-4.8-3.5-.5-4.2,0-4.9-1.8-7.9-4.7,1.3-3.2,2.7-9.5,3.3-5.2,4.2-1.5,8.7-1.8,15.9-4.3-11.4-9.1-4.9-16-18.4-6.4-12.6-4.8-35.4-13.1-43.5-2.1-.6-1.2-.3-3-3-3.1-10.2-24.5-19.6-14.3-32,1-2.5,2.2-4.3,1-6.9-13.4-27.8-27.7-56.7-41.7-84.1l-100.2-194.4c-.9-1.8-.8-1.8-2.4-2.6l-2.2.9c-2.5,3-2.8,2.9-3.5,7,0,43.2,1.1,94.6-.2,137.3,1.2,37.1.2,82.1.2,119.7v231.2c-.1,0,.1,678,.1,678,16.1,0,78.2-2.2,88.8,3.5,3.3,4.2,2.2,21.3,2.3,28.1,6,2.2,9.8,3.1,8.9,11.1-8.5,14.6-34.9,13.5-48.8,11.6-4.5-.6-6.3-5.5-8.6-9.5-6.6-.4-67.2-.8-71,.6-16.2,6-56.7,27.8-73.5,36.9-31.7,17-67.2,32.9-98,50.9,3,2.8,3.5,3.4,5.9,6.8,2.3,13.5-18.6,18.4-27.6,21-7.4,2.1-44.5.5-46-8.9,2.4-4.3,6.6-6,10.8-8.6,0-9.4-2.1-38.9,7.1-42.8,14.2-6,28-11.5,42.1-18.4,1.3-34.4.2-79.4.2-114.8l-.4-231.6.3-672.5v-227.4c-.1-45.5-.7-92.9.8-138.3ZM196,162.3c-2.4,10-.7,85.7-.7,99.9l.3,306.1-.4,92.8c0,12.2-.4,26.6.2,38.9.1,2.2,1.8,3.7,3.3,5,5,1.6,6.6-3.4,14.3-1.5.3-.5.6-.9,1-1.4,0-145.1.5-406.5-.3-541.6-5.1,1.1-12.5,2-17.7,1.8ZM176,708.6c3.2-2.1,7.6-5.9,10.7-8.3.9-17.3,0-43.4,0-61.6v-120.2c-.1,0,.2-359.1.2-359.1-10-17.3-5.9-39.4-6.1-59.1,0-2.8,2.7-5,4.7-6.1-4.7-2.4-9.2-4.1-14-6.1-1.9,75.5.4,158,0,234.3l-.5,258.3c0,14.8-1.1,123.5,1.2,128.5,2.6.4,1.3.5,3.7-.5ZM243.3,801.9l.9-1.5c1.6-143.4,2-286.8,1.2-430.3l-.3-137.9c0-14-.9-54.8.5-67l.2-1.2c-.3-4.1-.3-4.1-3.2-6.1-4.1-.3-9.1,2.1-13.2,3.6-1.5,5.7-.8,47.2-.8,56.5l.2,125.6v316.8s.1,72.2.1,72.2c0,7.2-.3,29.5.7,35.1,12.3,6.5-1.7,22.5,6.1,33.4,2.7,1.4,4.7.9,7.7.8ZM171.7,856.8c-.8,21.4-.2,45.6-.2,67.3,0,35.5.2,70.9.6,106.4,14.1-4.6,28.4-8.4,42.9-11.4.9-38.5-.8-78.4-.3-116.9.1-10.7-.6-40.6.9-49.4l-2.4-3.1c-4.4,3.8-4.8,3.4-9.9,4.9l-.8.2c.9,20.6,1.3,41.1,1.3,61.7,0,12.5,3.3,41.5-9.4,45.7-2.5-.7-3.7-1-5.3-3.5-3.4-5.2-1.5-91.2-1.7-103.2-4.9.5-10.8,1.2-15.7,1.3ZM242,846.5l-4.1,2.8-5.4,1.6c-1.7,2.3-1.7,2.4-3.9,4.1v163.9c.1,0,22.9,7.8,22.9,7.8,2.2,1,4.1,1.8,6.3,3.1,1.9,4.1.6,188.9,1,212.1,0,9.8-.2,19.7.2,29.5-.1,4.9-.3,9.5,0,14.4v6.6c-.1,11.2-.7,28.1.8,38.7,2.8-.2,2.6-.3,5.1-1.9,2.8-4.7,1.5-61,1.5-70.6v-118.5c0,0-.4-71.1-.4-71.1,0-13.8.3-31.5-1.1-44.9-7-2.2-12.6-4.1-19.4-6.9-1.4-25.9,0-60.5-.6-87.1-.3-16.9-1.1-64,1.4-79,5.7.7,15.7-2.8,18.7-8.7-5-4.3-8.4,3.9-15.7,4.1l-7.3.2ZM132.9,1391.2c4.7-1.9,10.6-4.3,14.7-5.7,7.5-2.7,10.4-15.3,2.9-19-.8-.4-7.5-.6-8.6-.7l-1.5-1.2c-1-7-.5-26.7-.5-34.7v-67.8c0,0,.4-150.5.4-150.5,0-24-.5-51,.1-74.7,4.6-.7,10.2-1.3,14.7-2.2.6-13.4.6-27.2.5-40.6-.3-45.7.5-91.5-.1-137.2-5-.5-10.1-.5-14.6-2.6-3-4.7-2.3-32.7-2.2-39.6,0-4.2,9.1-5.2,12.1-5.8.4-10.2-.2-27.2.7-37.7.1-1.6,3.9-1.6,3.9-7.9,0-29.8-.2-59.8-.3-89.6l-.4-177.1.4-413.8c-5.1-1.7-18.5-7.3-22.3-7.7v808.1c-.1,0,0,338.2,0,338.2,0,56.4-.5,113.4,0,169.7ZM475.6,481.1c-.3,6.1,7.8,38.9,11.5,42.7,4.2-1,6.3-1.9,10.3-3.5,2.5-2.9,1.7-1.2,2.4-5.2-1.5-7.3-16.5-26.5-21.6-32.9l-2.6-1ZM204.1,774.5c-4.5,5-5,22.9-2.1,29.4,2.6,1.3,2.7.8,5.8.4l2.7-1.1c1.7-4.3,4.1-26-2.3-28.7-.4-.2-3.4-.1-4.1,0Z"/>
  <path class="st1" d="M232.5,851l5.4-1.6h6.9c.5.5,1,1.1,1.5,1.7-2.5,14.9-1.7,62.1-1.4,79,.5,26.6-.9,61.2.6,87.1,6.8,2.8,12.4,4.7,19.4,6.9,1.4,13.4,1,31.1,1.1,44.9l.3,71.1v118.5c0,9.6,1.3,65.9-1.4,70.6-2.5,1.6-2.3,1.7-5.1,1.9-1.5-10.6-.9-27.5-.8-38.7v-6.6c-.3-4.9,0-9.5,0-14.4-.4-9.8-.3-19.7-.2-29.5-.4-23.2.8-208-1-212.1-2.1-1.3-4-2-6.3-3.1l-22.7-7.8v-163.9c2.1-1.7,2-1.8,3.8-4.1Z"/>
  <path class="st0" d="M229.5,767.7c-1-5.6-.7-27.9-.7-35.1l-.2-72.2v-316.8s-.2-125.6-.2-125.6c0-9.3-.7-50.8.8-56.5,3.5,18.1,2.1,87.8,2.2,109.1.5,82.4.5,164.9,0,247.3-.1,21.6-1.3,42.5-1.3,64.2v130.7c0,9.7.6,48-.6,54.9Z"/>
  <path class="st8" d="M242,846.5l7.3-.2c7.3-.2,10.7-8.3,15.7-4.1-3,6-13,9.5-18.7,8.7-.5-.6-1-1.2-1.5-1.8h-6.9c0,0,4.1-2.7,4.1-2.7Z"/>
  <path class="st5" d="M304.8,112.4c5.6,14.4,4.4,18.4,3.3,34.2,35,64.1,67.6,132.1,101.6,196.9,12.7,24.3,31.4,65.4,45.7,87.7,17.5,4.7,18.3,6.5,18.5,27.1,5.8,7.4,5.2,10.1,7.8,13.6,9.3,12.6,18.5,24.7,27.1,38.1.1,5.5,0,18.6,1.2,23.2-3.9-1.3-2.5,0-4.8-3.5-.5-4.2,0-4.9-1.8-7.9-4.7,1.3-3.2,2.7-9.5,3.3-5.2,4.2-1.5,8.7-1.8,15.9-4.3-11.4-9.1-4.9-16-18.4-6.4-12.6-4.8-35.4-13.1-43.5-2.1-.6-1.2-.3-3-3-3.1-10.2-24.5-19.6-14.3-32,1-2.5,2.2-4.3,1-6.9-13.4-27.8-27.7-56.7-41.7-84.1l-100.2-194.4c-.9-1.8-.8-1.8-2.4-2.6l-2.2.9c-2.5,3-2.8,2.9-3.5,7-.4-.3-1.7-.4-2.3-.5-22.6,14.8-26.6,8.5-46.8-.9l-1.9,1.4c-.3-4.1-.3-4.1-3.2-6.1-4.1-.3-9.1,2.1-13.2,3.6-1.5,5.7-.8,47.2-.8,56.5l.2,125.6v316.8s.1,72.2.1,72.2c0,7.2-.3,29.5.7,35.1,12.3,6.5-1.7,22.5,6.1,33.4,2.7,1.4,4.7.9,7.7.8l-2,2.7c-3.9,0-4.3.1-7.9-1.2-6.1-7.1-2-15.1-3.9-24.8-1.2-5.8-2.7-8.9-5-14.2.4-3.5.6-3.9,0-7.5-4.3,0-8.7,13.2-14.7,9.5,10.7-17.2,9.4-62.7-20-60.8-4.8.3-7.2,3.8-13.6,3.1,3.2-2.1,7.6-5.9,10.7-8.3.9-17.3,0-43.4,0-61.6v-120.2c-.1,0,.2-359.1.2-359.1l3.2,3.2c1.5-.1,4.4-.6,5.8-.2-2.4,10-.7,85.7-.7,99.9l.3,306.1-.4,92.8c0,12.2-.4,26.6.2,38.9.1,2.2,1.8,3.7,3.3,5,5,1.6,6.6-3.4,14.3-1.5.3-.5.6-.9,1-1.4,0-145.1.5-406.5-.3-541.6-2.5-1.2-3.7-1.1-6.5-1.5,2.8-1.7,6.2-.4,8.9.9,5.4,2.6,3.2,18,3.2,23.3-.6,65.3.3,130.8.9,196.2-.7,60.8-.1,121.6-.6,182.4-.2,33-.3,66.9,0,99.6,0,8-2.8,49.5,2.2,52.2l1.3-1.2c3-7.8.6-46.9.5-57.6-.2-29.1.2-58.5-.1-87.6-.8-87.6-.8-175.2-.1-262.7.2-44.9,2.4-90.7.1-135.5-.2-3.6,1.5-9.3,3.7-12,1.1,0,17.1-2.8,16.1-3.5,17.2,13,34.7,22.8,52.6,3.3l.9-1c11.9-2.5,8.6-13.2,9-23.2.3-6.5-.9-12.7-1-19.1v-1ZM497.4,520.2c2.5-2.9,1.7-1.2,2.4-5.2-1.5-7.3-16.5-26.5-21.6-32.9l-2.6-1c-.3,6.1,7.8,38.9,11.5,42.7,4.2-1,6.3-1.9,10.3-3.5Z"/>
  <path class="st4" d="M445.7,444.1c3.6-1.7,4.2-2.5,6.9-5.7,9-1.5,13.3,10.4,16.1,17.6-1.3,3.4-2.4,11-3.6,12.6l-1.3-2.5h-1.7c-1.8,4.6-1.7,5.1-2.1,10.1-3.1-10.2-24.5-19.6-14.3-32Z"/>
  <path class="st3" d="M468.7,455.9c3.7,1.9,9.5,14.2,8.6,20.1-4.2,6.4-8,4.6-14.3,3.1-2.1-.6-1.2-.3-3-3,.4-5.1.3-5.5,2.1-10.1h1.7c0,0,1.3,2.5,1.3,2.5,1.2-1.5,2.3-9.1,3.6-12.6Z"/>
  <path class="st3" d="M258.8,1241.8c0,9.8-.2,19.7.2,29.5-3.9,1.9-1.7.3-4.1,1.1-25,8.3-50.4,19.3-75,29.4-.8-.5-1.6-1.1-2.3-1.6v-1.9c6.4-5.9,50.2-19.3,54.2-27.1-.6-3.9.2-2.3-2.2-5-14.7,2.6-28,10.4-44.2,10.9l-.3-.4c5.3-4,62.6-25.2,70.7-27.4l1.1-.3c1.3-2.3.7-4,.7-7.2h1.2Z"/>
  <path class="st7" d="M244.1,800.4l1.3-1.3c3.2.8,3,.7,5.5,3,3.5,6.8-.7,12.3,3.3,17.5,11.6,1.7,12.1,5.6,11,18.2-2.6,1.7-1.2,1.3-4.4,1-2-4.6.3-7.5-2-10.7-3.9-1.3-21.7-.1-24.9,1.2,1.2,5.8,2.7,9.1,3,15.1,2.8,2.6,2.3.4,5,2l-4.1,2.8-5.4,1.6c-1.9-6.7,1.2-19.3-10.7-19.1-4.7,3.7-6.1,13.8-4.1,19.8,1.5,4.6,9.4,4.3,9.3,9.6-3.8,2.7-8.6-1.5-10.9-5l-.6-3.6-2.4-3.1c-.2-8,.4-9.3,2.4-16.8-.3-.4-.7-.8-1-1.1-13.3.5-27.4,2.6-40.4,1.7,17.3-7.9,52.4-7.6,72.6-12.2.2-5.4,1-9-.5-14.1-2.5-2.8-1-1.7-5.1-2.5l2-2.7.9-1.5Z"/>
  <path class="st7" d="M245.7,164l1.9-1.4c20.2,9.4,24.2,15.7,46.8.9.5,0,1.9.3,2.3.5,0,43.2,1.1,94.6-.2,137.3-1.7,5.9-1.1,33.4-1.2,41.6-1.1-46.2.4-93-.3-139.2-.2-10,.6-21.4-.8-31.2-1.6-1.3-9.7,2.6-12.2,3.4-4,1.3-8.1,1.8-12.2,1.5-8.1-.4-19.3-4.9-24.4-12.3l.2-1.2Z"/>
  <path class="st7" d="M259,1292.3l-.8.6c-14.5.5-72.9,33.9-79.2,28.6,9.3-9.5,62.2-26.6,78-36.5l2,.6v6.6Z"/>
  <path class="st7" d="M185.1,1276.7c-3.6,1-4.1,1.5-7,.3l-.3.4h1.1c-.6-1.2-.5-.7-.6-1.5,9.1-8.2,56.9-23.5,71-29.9,2.4-1.1,6.1-3.2,8.4-4.2,0,3.2.5,5-.7,7.2l-1.1.3c-8.2,2.2-65.4,23.3-70.7,27.4Z"/>
  <path class="st7" d="M233.3,1036c-8.5,3.6-44.2,11.5-53.7,13.2l-1.6-1.5-1.1,1.4,1.7.3-.9-1.5c8.8-7.3,43.8-14.4,57.2-18.3l-2.9,4c.4,2.1,0,1.4,1.3,2.4Z"/>
  <path class="st7" d="M232.6,1343.6c4.8-5.7,18.6-11.2,25.8-14.4l1.5,1.8.5,2.1c-4,5.2-21.6,12.1-27.8,10.4Z"/>
  <path class="st2" d="M251.5,1026.7c2.2,1,4.1,1.8,6.3,3.1-3.5,2.4-19.7,5.3-24.5,6.2-1.4-1.1-.8-.3-1.3-2.4l2.9-4c5.9-.6,7.6-3,16.6-2.8Z"/>
  <path class="st7" d="M256.3,1067.9l1.2.5.3,3.9c-2.9,4.2-21.4,7.6-27.2,9.2l-50.5,14.1c-.8-1.2-1.2-2.1-1.8-3.5,3-4.7,66.9-20.1,78-24.2Z"/>
  <path class="st7" d="M256.9,1045.9l.5.5c.8,3.1.8,2.9.2,6-5.6,1.9-22,5.5-28.5,7.1-15.1,3.9-35.1,10.7-50.1,11.8l-.7-2.4c2.6-2.9,69.2-20.3,78.6-23Z"/>
  <path class="st7" d="M256.3,1133.2l1.3.5c.4,3.5.7,2.4-.3,5.3-4.6,2.5-18.5,6.2-24.4,8-17.5,5.6-35,11.1-52.6,16.2-.6-.2-1.4-1-2-1.5l.7-2.4c7-4.7,65.3-22.1,77.3-26.3Z"/>
  <path class="st2" d="M257.6,1198.3c.5,3.4.8,3.8-.3,7.1-25.4,7.1-51.2,19-77.3,26.6-.9-1-.8-1.3-1.4-2.7,4.3-5.1,67.9-25.8,78.9-31Z"/>
  <path class="st7" d="M256.3,1111.7l.8.5c.8,4.2,1,2.3,0,5.9-4.4,1.5-9.2,2.6-13.7,3.8-21,5.6-41.9,13.5-63.1,18.3l-1.7-.7-.4-1.8c3.2-3.8,68.7-23,78.2-26Z"/>
  <path class="st7" d="M257,1176.6l.7.6c.7,3.5.9,3.4-.1,6.7-20.3,2.4-56.5,21.6-77.5,25-1.2-1.6-.7-.7-1.1-3.1,1.5-2.1,70.4-26,78-29.2Z"/>
  <path class="st7" d="M255.6,1155.2l2,.2c.6,4.4,1.1,2.6-.6,5.8-4.7,2.7-10.8,3.1-16.7,5.1-19.2,6.6-38.2,13.4-57.7,19.2-1.5.1-1.8,0-3.3-.3l-.3-1.8c3.9-4.3,65.2-24,76.6-28.2Z"/>
  <path class="st7" d="M256.5,1220.7l.9.2c1,3.5,1,1.8.3,5.2-4,2.6-14.3,5.4-19.7,7.5-19.1,7.5-38.3,14.9-57.7,21.7l-1.6-.6-.5-1.6c3.9-5.1,67.2-27.6,78.3-32.4Z"/>
  <path class="st7" d="M257.5,1306.3c1.2,3.1,1.2,4.5,0,7.3-23.7,9.4-57.3,27.2-79.2,33.6v-2.1c3.2-6.2,67.2-30,79.2-38.8Z"/>
  <path class="st2" d="M241.3,1100.2c-16.2,5.6-33.1,9.1-49.3,15-3.4,1.2-10.4,1.7-13.7-.3,2.8-3.2,51-17,58.5-19.4,3.5,2.3,3.3,1.3,4.5,4.7Z"/>
  <path class="st7" d="M210.6,1350.7c.5.2,2,1.2,2.5,1.5l-.2,1.9c-4.6,5.7-20.1,10.6-27.3,13.4l-2.3-.4.3-1.9c3.8-3.9,21-11.6,27-14.5Z"/>
  <path class="st5" d="M251,1320.7c2.6-.8,1.3-.8,3.9,0l1,2.8c-.5,3.3-.4,3.1-2.6,5.5-4.1,1.3-2.2,1.4-6.1.4-4.4.1-2.6.9-5.7-1.3l.3-2.1c3.5-3.9,4.4-3.8,9.3-5.3Z"/>
  <path class="st7" d="M236.8,1095.5c3.4-.9,18-5.6,19.8-5.3l.8,2.2c-2.5,5.9-10.5,6.4-16.1,7.8-1.2-3.4-1-2.4-4.5-4.7Z"/>
  <path class="st4" d="M1426.5,58.4c14.2-8.2,20.3-5.8,36-4.9,22.7,1.2,46.6,5.3,69.3,4.1,7.2-.4,16.9-6.1,24-8.3,24-7.4,74.7-36.8,98-20,2.4,15.3,1.7,35,1.7,50.9v70.7c-.1,0-.2,250-.2,250l.3,1008.6c10.2,8,43.2,16.4,49,28,1.4,2.9.5,29.2,1.1,35.9,5.2,2.6,11.8,4.4,9.3,12-9.2,9-43,9.4-54.5,3.6-14.8-7.5-22.9-6.3-15.4-26-11-7-27.1-14.7-38.9-20.8l-81.3-41.3c-15.6-8-40.6-24.5-57-25-20.2-.6-41-.2-61.3-.6-1.5,2.7-3.5,6.5-5.2,9-12.6,1.1-25.2,1.3-37.8.7-5-3.3-11.6-6.9-14.9-11.7-1.3-9.7,7.8-5,8.8-15.8.7-7.8-2.9-18.9,1.6-24.7,7.6-3.5,74.3-1,89.1-1.5,1.1-98.7,0-199.2,0-298V437.8c-.1,0,.2-199,.2-199,0-8.7,0-68.3,1.3-74.4l.3-1.5c-1.7-3.1-4.2-5.5-6.5-8.1-.4-.4-.7-.9-1.1-1.3-6-8.5-3.4-26.2-1.5-36,1.1-5.6,3-6.8,3.1-13.1,3.1-3.1,5.1-4.4,6.4-8.6-2.2-9.1-39.8,6.1-23.9-37.4ZM1499.9,802.7l.2.9c3.6.6,7,1.7,10.5.5,2.7-4.6-1.8-25.7,0-33.1,1.2-4.7,0-2.3,4.9-6.4l.7-437.5.3-107.8c0-10.4,1.1-47.2-.3-55.2-3.5-4.6-10.7-6.2-15.6-4-2.6,3.3-1.7,1.4-2.4,6.1,2,4.8,1.2,53,1.2,61.3v106.8s-.2,345.1-.2,345.1v79.7c0,11.4-.4,33,.7,43.7ZM1530.2,1019.8c15,2.4,29,5.8,43.8,9.3v-31.7c-.8-12-.4-33.5-.4-46.3l-.4-94.8c-5.2,0-7.7,0-12.9-1.1l-2,.9c-5,16.5,4,90.3-2.3,104.2-12.9,11-15-11.6-14.6-20.5.5-28.5.7-57.1.7-85.6-3.8-.4-8.2-.7-11.9-1.4-.7,50.8-1.3,116.4,0,167ZM1541.5,708.5c2.9-1.8,3.7-2.3,6.2-4.9,1.1-20.2-.7-59.5-.6-81.8l.9-202.8.3-168.8c0-22.7,1.3-64.1-.2-85.1-2.3-2.5-3.5-2-7.4-2.8l-11.4,2.3c-1.7,104.6-.5,213.8-.3,318.7l.5,137.4c.2,31.7,0,65.3,1.5,96.9,1.5-.3,1.8-.5,3.2-1.1,2.6-3.7,3.6-5.8,7.1-8ZM1557.4,702c5.4,2.5,9.7,3.8,13.3,9l1.6-.2c2.7-5.4,1.7-83.7,1.7-97.5v-166.9c.1,0-.3-231.2-.3-231.2,0-42.1.7-85,0-126.9-4.4,1-9.4,1.6-13,4.3-2.7,6.2,2.7,9.7,2.3,17.9,1.9,18,3.5,35.1-4.4,51-.7,1.5-.6,1.3-.6,2.9-1.6,27.8-.5,67.9-.5,96.6v183.1c.1,0,0,139.8,0,139.8,0,20.1-1.2,53.5.2,72.1-.4,15.2-.2,30.7-.2,45.9ZM1560.3,807.9c3.3,0,6.9.5,9.4-1.6,1.6-8.7.4-21.5-.2-30.4-.6-1-.8-1.7-1.5-2-3.4.4-7.2.7-10.6,1.2,0,6.9-1.3,27.7,1.4,32.4l1.4.4ZM1587.7,763.4c8.8,16.4,5.4,25.3,5.7,44.3,3.8.6,7.7.7,10.8,3.1,1.4,6.5,1.4,37.5-1.7,43.2-4.5,3.1-8.7,2.6-14.1,2.7,0,56.4-1.2,119.8.5,175.9,5.1,1.3,11.1,2.7,16,4.2v218.2c-.1,34.2,0,68.5,0,102.7,0,4.5.3,4.9-1.6,8.3-2.2,1.1-3,1.8-5.4,1.9-11.6,1.2-13.2,7.1-3.3,14.7,4.7,3.6,10.9,5.5,16,8.4,1.4-15.9.7-37.5.6-53.9l-.2-78.8c.4-93.1.3-186.3-.4-279.4l.4-693.9c0-23.3,1.5-204.4-1.3-208.8-.6-1-.9-.9-2-1.4-4.5,1.3-16.5,4.8-18.8,9.7-2.5,5.4-1.6,620.8-1.4,679ZM1544.3,806.5c.1-8.6,1.9-22.2-1.8-28.7-2.5-1.9-4.6-1.5-7.7-1.4-.3,8.5-2.3,22.6,1.5,28.9,2.9,1.7,4.7,1.3,7.9,1.2ZM1500.1,1020.5l1.8,1.6c5,.4,8.9-.9,13.8-2-.8-10-.3-31.8-.3-42.9v-83.5c0-11.9,1.3-32.6-3-42.9-4.2-2.1-6.8-3.6-11.3-1.9l-1.9,2.3c.8,19.3.3,41.8.4,61.4l.5,107.8Z"/>
  <path class="st7" d="M1499.2,851.3c-4,1-10.9.8-14.4-1.9-3.6-2.8-6-7.1-6.7-12-.8-6.2,1.4-16.9,9-16.8,9.9,0,1.2-13.2,9.6-20.8l1.6.4,1.5,2.6.2.9c-2.5,4.3-5.1,12.2-1.8,16.6,19.9,5.6,56.1,6.5,73.4,12.6h-1.4c-12,1.3-23.3-1.2-34.2-.7-1.7,5.2-2.7,9.9-1.6,15.3,5.2,3.9,13-2.6,14.1,4.1,1,5.9-1.9,15-.6,20l1.6,1.1c6.2-6-.5-18.5,9.6-23,.8,2.7,1.3,3,1,5.5l-2,.9c-5,16.5,4,90.3-2.3,104.2-12.9,11-15-11.6-14.6-20.5.5-28.5.7-57.1.7-85.6-3.8-.4-8.2-.7-11.9-1.4-.7,50.8-1.3,116.4,0,167,15,2.4,29,5.8,43.8,9.3v-31.7c1.1,6.4.7,26.4.7,34.2-9.8,0-33.9,1.3-41.1-4.5-3.3.7-2-.2-4.2,2.1,5.3,5.9,33.8,10.5,38.1,16.9l-.4,1.8c-8.1,3.8-63.5-17.1-76.5-16.4-2.9.1-5.1,8.3-3.5,11.2,6,10.5,78.2,18,79.7,28-7.3,5.6-68-21.4-78.9-16.4-1.8,2.9-1.8,2.7-2,6.2,5.3,17.1,73.6,20.6,81,32.5-6.3,7.6-65.7-20.9-78.4-17.3-4,5.1-2,10.4,2.8,13.8,10.9,7.7,67.8,17,75,25.3l-.2,2.2c-7.7,3.1-64-20.5-75.7-20.1-1.3,0-3.7,3-4.6,4.3-3.1,19.3,78,25.9,82.2,38.6-8.9,10.6-43.7-8-49.7-4.3,4.8,5.9,7.5,3.7,14.1,6.1,11,4,22.5,7.9,33.5,11.7.5.2,1,4.6,1,5.3l-.7,3.6c-10.4,4.5-73.2-28.3-79.3-19.6-.4,3.9-.4,7.8,1.8,11.1,4.7,6.9,75.7,24.6,77.7,29.1.3.8,0,1.8,0,2.6-17.2-.3-68.4-27.2-79.5-20.4-8.2,19.5,72.2,30.2,79.5,41.8l-.8,1.5c-9.6,2.1-61.7-24.3-75.9-23.9-3.2.1-3.3,8.9-3.1,11.3,9.8,9.4,53.7,18.7,67,27.6,3.7,2.5,12,1.1,13.5,7.3-1.3,1.2-1.6,1.9-3.6,1.5-11.6-2-69.1-29.5-76.1-24.8-1.1,3.8-1.3,7.3.5,10.8,3.7,7.6,77,28.5,78.5,33.6.2.7-.2,1.5-.2,2.3-5.8,3.1-64.8-25.5-75.7-25.9-2.9-.1-7.1,4.5-5,7.4,14.1,19.7,67.5,25.5,81.8,40.9l-.7,1.5c-12.9,1-66.6-32.7-79-25.5-11.3,18.3,72.8,34.4,79.4,46.3-.9,2.1-.2,1.5-1.5,2.2l-3.3,1.7c-1.5,5-6.1,7.2-7.5,11.7,4.1,1.9,7.8,3,10.5,6.6l-.6,1.3c-4.2.5-7.3-1.3-11.4-2.9-3.2-.2-12.7-2.6-13.8-2.6-6.4.2-28.9-12-32.2-11.4l-1.3,1.4.5.5-1.7,2.1c8.7,5.7,21,9.5,30.8,12.4,1.5,3.1,1.4,3.9,2,7.3,7,3.6,26.2,10.5,29,17-5.3,1.4-55.5-23.5-64.1-26.6-4.2-1.5-8.6-6.4-14.1-4.1-2.5,3.3-2.6,3.1-3.4,7.3,2.5,12.2,18.8,11.2,25.7,18.8v1.2c-7.7,1-22.4-7.2-29.9-11-1.5-12.2-1-30.7-.9-43.3v-66.9c.1,0,0-132,0-132,0-12.1-.6-54.2,1.5-63.3,3.9-4.6,13.8-7.9,18.8-5.7l1.8,1.6c5,.4,8.9-.9,13.8-2-.8-10-.3-31.8-.3-42.9v-83.5c0-11.9,1.3-32.6-3-42.9-4.2-2.1-6.8-3.6-11.3-1.9l-1.9,2.3Z"/>
  <path class="st5" d="M1554.5,1314.3c-15.2-6.3-30.1-13-45.3-19.7-7-3.1-20.8-4.3-22.4-15.4-.5-3.3.4-4.1,1.9-6.5,1.4-.8,3.5-1.8,5.1-1.1,23.1,9.8,46.3,20,69.6,29,.6.1,1.2.2,1.8.4l-3.3,1.7c-1.5,5-6.1,7.2-7.5,11.7Z"/>
  <path class="st5" d="M1567,1158.6c-25.8-7.7-51-16.7-76.7-24.7-3.9-1.2-4.2-9.4-2.4-13,9.9-6.4,66,22.4,80.1,19-8.9,10.6-43.7-8-49.7-4.3,4.8,5.9,7.5,3.7,14.1,6.1,11,4,22.5,7.9,33.5,11.7.5.2,1,4.6,1,5.3Z"/>
  <path class="st5" d="M1537.4,1329c-11.6-4.8-49-17.1-51.8-29.9,1.1-4,.2-2.2,3.2-5.2,6.1-1.7,54.9,21.1,64.3,25.4-3.2-.2-12.7-2.6-13.8-2.6-6.4.2-28.9-12-32.2-11.4l-1.3,1.4.5.5-1.7,2.1c8.7,5.7,21,9.5,30.8,12.4,1.5,3.1,1.4,3.9,2,7.3Z"/>
  <path class="st4" d="M1541.2,939.8l.3-1.1c2.7-10.3.1-12.5,6.3-22.3l1.7-.9c6,4.2,6,36.3,6.2,44.9-12.9,11-15-11.6-14.6-20.5Z"/>
  <path class="st3" d="M1512.4,850.8c0-8.9-.7-14.8,8.4-18.8,3.7.3,2-.3,5.2,2.1,2.6,5.8,3.5,18.9-3.2,21.6-2.1.8-4.4,1.7-6.6,2.3-1.1,5.3-.4,29.9-.4,37.7v81.6c.2,11.6.7,31.5-.1,42.7-.8-10-.3-31.8-.3-42.9v-83.5c0-11.9,1.3-32.6-3-42.9Z"/>
  <path class="st4" d="M1485.4,827c5.7.5,21.9.3,24.6,2.8.8,3.6-1.5,10.6-2.3,14.7-3.8,2.1-19.9.9-22.9-3.1-.8-5.5-.1-8.8.5-14.3Z"/>
  <path class="st2" d="M1450,162.9c2.5.9,2.8,1.1,5,2.6,17.1,11.6,25.1,5.4,41.1-2.9,1.8,1.3,1,.7,2.1,3.5-8.4,14.2-45.9,16.9-48.5-1.7l.3-1.5Z"/>
  <path class="st5" d="M1540.8,162.3c3-1.1,9.6-.3,12.7.1,11-8.1,4.8-41.9,9.3-52,1.9,18,3.5,35.1-4.4,51-.7,1.5-.6,1.3-.6,2.9-1.6,27.8-.5,67.9-.5,96.6v183.1c.1,0,0,139.8,0,139.8,0,20.1-1.2,53.5.2,72.1-.4,15.2-.2,30.7-.2,45.9,5.4,2.5,9.7,3.8,13.3,9-7.7.8-10.4-4.8-16.6-6-1.4-.3-7.6,3.8-12.6,3.5,2.9-1.8,3.7-2.3,6.2-4.9,1.1-20.2-.7-59.5-.6-81.8l.9-202.8.3-168.8c0-22.7,1.3-64.1-.2-85.1-2.3-2.5-3.5-2-7.4-2.8Z"/>
  <path class="st1" d="M1557.9,164.5c2.7,10.8,2.1,50.9,2.1,64.5v84.1c0,114,1.8,227.3-1,341.4l-1.4,1.7c-1.3-18.6-.2-52-.2-72.1v-139.8c.1,0,0-183.1,0-183.1,0-28.7-1.1-68.8.5-96.6Z"/>
  <path class="st7" d="M1532.2,764.8c-8-10.9-13.3-37-3.4-47.6l2.3.3c1.7,4.5-2.9,19.5-2.2,25.9.8,7,3.7,15.8,5.6,22.5l-2.3-1.2Z"/>
  <path class="st7" d="M1531.5,1350.7c6.1.2,27.2,11,32.1,15.2v2.6c-3.8,0-26.1-8.9-30.3-13-2.2-2.2-1.5-1.5-1.8-4.8Z"/>
  <path class="st4" d="M817.7,244.6c-4.4-33.7-3.5-66.7,28.3-81.3,17.6-8.1,33.9-10.8,51.7-.1,3.8,2.3,11.4,8.3,15,9.1l1.5.4,1.2.3c6.1,8.7,11.3,22.4,13.1,33.7,1.2,4.4-2.1,34.2-.8,35.8,12.2,15.6,7,28.7-.3,48.7l-7.5,6.2c-.5,6.7-.8,11.6-2.2,18.2,0,10.7-.8,16,3.2,25.6,24.2,11.6,40.2,13.8,57.8,35.4,4.9,2.6,13.1,0,18.8-1,31.4-3,57.6,15.2,71.2,46.4,2,4.6,4.1,9.5,6.6,13.7,10.6,0,17,3.1,26.3,9,4.8,3.1,8.9,5.6,13.1,9.7,10.2,9.8,13.5,18.6,26,24.8,7.4,3.6,14.5,7,21.6,11.5,5.4,4.2,31.9,37.8,35.5,44.7,4.3,7.6,6.6,10.9,6.5,20.1,2.3,1,1.8,1,4.2,1.2,1.8-3.3,10.8-10.1,14.1-12.9,4.1-3.7,6.6-6,11.1-9.2,9.3-1.7,3.8-6.2,9.5-9.8,3.8-.2,8.9,2.9,13.1,4.5l.5.8c-8.8,2.8-6.7,13.5-6,21.6-.1,8.6-.4,17.2-.8,25.8-.3,15.5-.3,47.7-2.7,61.5.6,5.5,1.2,10.6,1.5,16.2-1.5,2.3-3.3,5.1-4.9,7.3-18.4,25.8-26.8,26.9-52.4,8.2-5.9-4.1-11.7-12.2-16.3-14.6-4,3.3-5.9,4.1-10.4,6.4-4.2-5.9-13-22.8-12.4-30.1.4-5.2,2.5-6,5.7-9.3-2.4-8.2.3-15.7,2-24.3-38.3-8-31-30.8-54.8-54.7-14.1-.7-25.1-.4-38.5-5.6-16-4.8-30.2-18.6-41.3-31.7-3.3-3.2-5.8-6.2-9.9-7.8l-1.9.7c-2.2,6.2.6,11.7-1.8,24.2-4.6,24.5-18,53.7-33.2,72.3-.3,0-.5.1-.8.2-3-3.4-1.2-4.3-3.2-10-3.3,5-7.4,42.6-7.6,51-.6,22.2,10.3,36.5-1.3,60l-.9.6c-.3,5.4-.2,6.2,1,11.5l2.2,7c2.7,19.8,4.6,10.9,9.3,22.5,0,3.5-.3,7.1-.6,10.6-2.6-12.4-3.9-16.9-17.9-11.1-14.7,6.1-27.1,11.2-43,12.7-6.1.6-15.1-.2-19.7,3.8-21.5.7-62.8-2.9-82.9-8.2-20.8-5.5-27.4-10.6-43.8-12.3,8.6-6.9,4.2-15.6,8.9-24.5,0,.1,5.2-4.5,5.4-4.7-.5-3.5-1.2-3.2-3.8-6.4-11-14.3-6.8-34-4.1-50.6,2.3-13.5-.9-28.6-2-42.3-1.5-6.1-1.4-15-4.7-19.3h-1.4c-.7,2.9-.9,5.4-2.8,7.3-7.7-2-20.3-32.6-23.6-40.5-8.8-18.3-11.1-34.2-11.1-54.4-4.6,3.2-7.8,6.2-12,10l-2.1,3c-15.3,13.3-27.5,23-47.2,27-10.1,1.9-18.6,3.6-28.9,4-17.6,19.9-26.5,48-53.4,56.3-3.2,6.2-4.7-2.1-13.7-2.4l-.7-.4c-8.6-18.2-26.9-29.1-40.1-42.3l.2-1.8c2.1.8,4,1.6,6.1,2,2.5-5.1,5.9-15.5,9.3-20.5,10-14.8,26.9-37.4,40.5-47.7,5-3.8,18.7-6.2,23.4-11,12.3-12.4,19.7-22.2,33.9-32.4,2.5-3.5,24.7-9.6,25.3-10.7,15.9-29.5,26.3-51.1,62.3-56.2,16.3-3.4,25.5,7.4,33.3.4,11.3-16.5,40-30.1,57.6-34.7,2.1-1.9,2.8-3.7,4.2-6.3-.9-12.6-1.2-23.7-2.5-36.4-9.8-10.8-17.8-31.6-15.1-47.5.5-3.2,4.4-5,6.8-6.5ZM1225.2,560.2c-3.7,3.4-11.7,10.4-14.8,14v1.6c10.6,13.4,13.4,29.6,21.7,41.5,2.9,3.7,5.6,7.5,8.8,10.8-5.9-10.4-4.2-52.4-4.3-66.5-1.2-2.8-1.9-5.9-2.7-8.9-2.9,2.6-5.7,5.1-8.6,7.6Z"/>
  <path class="st7" d="M864.3,575.8c-25.7,1.7-27.5,6.3-49.2,20.9-.3-5.1,0-7.1-2.1-11.6,5.5-2.7,13.1-1.3,17.5-3.3,12.2-5.5,25.2-8.2,37.3-13.3,2.2-.9,4.2-14.3,4.6-16.9,1.9,11.4,1.1,11,5.1,21.7h.9c10.9.2,39.2,5.1,45.8,14.7l2.9-1.8.3,1.2-2.7,2.9c-17.7-2.7-30-24.4-48.9-4.9-1,8.1-2.9,26.6-1.2,34.9,2.5,11.9,21.3,7.1,29,6.3,6.4-.7,17,2.1,22.6-2.5,3.6-2.7,6.7-19.2,8.6-20.4,3.2,10.7-2.8,22.3-4.1,34.4-2-1.2-7.7-4.5-9.7-4.7-13.7-1.8-33.9-2.1-46.9,1.5-.4,30.8-5.1,33.7,22.7,43-11.2-.6-20.5-3.2-30.2-3.8,4-9.5,8.4-39.5-4.8-42.3-13.4-2.8-31.7,2.4-46.2,3-.5,12.9-1,16.4,2.7,28.8l.5,1.6.3,1c-4.1-3.9-2.8-5.6-7.9-8.9-3.7-.3-2.3-1-4.8,1.2-4.1-3.5-9.5-11.3-12.7-16.1,3.9,3.2,11.4,10.1,15.8,10.4,3.6-3.4,4.2-15.8,5-21.8-2.6-5.4-7.5-14.1-6.4-20,1.9-2.2.7-1.6,3.6-1.7,5.5,7.8,3.1,16.5,15.3,18.3,6.6.9,14.3-1.8,21.1-2.3,5.7-.4,16.3,2.6,20.7,1.7,3-12.3,1.9-31.2.7-43.9-1.7-2.5-3.4-5.3-5.4-7.4Z"/>
  <path class="st7" d="M806.6,658.7c2.5-2.2,1-1.6,4.8-1.2,5,3.3,3.8,5,7.9,8.9l.2.8,7.2,8.4c4.1.9,12,2.1,15.4,4.2l-.6,1.4c-8.1,1.1-14.3-4.2-19.4.9-1.2,7.5,1.6,20.3,3.6,27.3,1.7,5.9,6,21.8,9.7,25.9,29.8,34,102.6,5.3,132-5.5,0-4.6-.2-9.4,1.1-13.6,2.7,19.8,4.6,10.9,9.3,22.5,0,3.5-.3,7.1-.6,10.6-2.6-12.4-3.9-16.9-17.9-11.1-14.7,6.1-27.1,11.2-43,12.7-6.1.6-15.1-.2-19.7,3.8-21.5.7-62.8-2.9-82.9-8.2-20.8-5.5-27.4-10.6-43.8-12.3,8.6-6.9,4.2-15.6,8.9-24.5,0,.1,5.2-4.5,5.4-4.7-.5-3.5-1.2-3.2-3.8-6.4,6.5-.5,22.2,17.5,24.4,23.7-7.1-2.9-12.2-14.7-21.9-11.9-3.5,3.9-3.2,8.3-3.3,13.7,2.8,5.8,20.1,7.9,25.9,10.7,5.6,2.7,9.4-.4,14.8-2.4,3.1,1.7,1.7.5,3.7,4.6,3.8,1.8,2.3,2.1,5.2,1.2.3-6.1-6.1-10.8-5.6-12.9,1.9-9.1-2.8-13.2-4.3-21.4-2.6-13.3-3.1-24.3-7.7-37.2l-4.8-7.9Z"/>
  <path class="st2" d="M806.6,658.7c2.5-2.2,1-1.6,4.8-1.2,5,3.3,3.8,5,7.9,8.9l.2.8c1.3,4.1,3.6,6.7,3.6,10.4-2.3,1.7-2.2,1.5-5,1.4-3.7-3.7-.9-6-6.6-12.3l-4.8-7.9Z"/>
  <path class="st4" d="M1233.7,534.3c9.3-1.7,3.8-6.2,9.5-9.8,3.8-.2,8.9,2.9,13.1,4.5l.5.8c-8.8,2.8-6.7,13.5-6,21.6-.1,8.6-.4,17.2-.8,25.8-.3,15.5-.3,47.7-2.7,61.5-1.9-3.5-4-7.5-6.5-10.5-5.9-10.4-4.2-52.4-4.3-66.5-1.2-2.8-1.9-5.9-2.7-8.9-2.9,2.6-5.7,5.1-8.6,7.6l-1.2-3.3c-2.6-1.1-1.8-.4-3.7-2.6l.9-1.1c1,.2,1.7.4,2.7.3-.7-3.7-.9-6.1-1.3-9.9,4.1-3.7,6.6-6,11.1-9.2Z"/>
  <path class="st3" d="M1236.6,561.5c3.8,3.3,3.4,2,4,7.2.6,5,2.1,24.2,3.7,28v-1.4c.3-5.4,1.9-14.5,5.8-18.2-.3,15.5-.3,47.7-2.7,61.5-1.9-3.5-4-7.5-6.5-10.5-5.9-10.4-4.2-52.4-4.3-66.5Z"/>
  <path class="st3" d="M1208.5,556.4c1.8-3.3,10.8-10.1,14.1-12.9.4,3.7.6,6.2,1.3,9.9-1,.1-1.7-.1-2.7-.3l-.9,1.1c1.9,2.2,1.1,1.5,3.7,2.6l1.2,3.3c-3.7,3.4-11.7,10.4-14.8,14v1.6c10.6,13.4,13.4,29.6,21.7,41.5-6.4-.5-16.4-14.3-26.3-17.3-10.1-3.1-18.2,4.6-21,4-2.5-4-1.8-6.5-1.9-11.9l-1.4-1-2.6.9c-4.3,5.2-3.9,11.1-4.3,18-4.5-1.7,2.2-8.7-9.6-10.6,2.2-.4,3.3-.5,5.4-1.2,9.7-15.1,20.6-26.3,34.1-36.8,1.8-1.4,3.8-3,4-5Z"/>
  <path class="st2" d="M1210.5,575.8c-1.2,5.5-11,16-16.7,13.5.8-4.5,11.7-13.9,15.6-16l1,.9v1.6Z"/>
  <path class="st3" d="M741.7,553.3c4.4,2.8,10,11.6,13.1,16.5,3,4.8,5.5,4.6,7.2,9.9,7.1-4.5,1.1-23.5,5.7-31.3,3.3.2,11,9.1,15.9,10.1,5.1,1.1,7.1-2.6,11.9,0-.2,1.5-.3,2.1-.7,3.6l1.4.6c-.2,14.8.4,6.1,5.7,16.1l-.6,1.2-3.3.9c1.4,4.2,2.8,1.8,4.2,6.4l-.8,1.7c-10.8-6-9-.5-18.1-11.7l-.9.8-.6,3.1c-2.7,1.3-3.9.1-7.4-1.4l-2,1.6.2,1.3c1.3,7.6,1.8,15.3,1.6,23-1.5-6.1-1.4-15-4.7-19.3h-1.4c-.7,2.9-.9,5.4-2.8,7.3-7.7-2-20.3-32.6-23.6-40.5Z"/>
  <path class="st7" d="M774.3,579.8c-2-2.9-6.6-8.4-6-12.2,5.2,4.9,7.7,7.6,14.1,10.4l-.6,3.1c-2.7,1.3-3.9.1-7.4-1.4Z"/>
  <path class="st4" d="M773.6,564.9c3.4-.4,5.1-.8,8.4.3,1.9,3.4,1.2,2.9.8,7.9-5.4,0-7.8-2.5-9.2-8.1Z"/>
  <path class="st7" d="M733.5,375.7c16.3-3.4,25.5,7.4,33.3.4,15.8,5.6,24.9,9.9,39.9,16.9,3.9,1.8,30.3,8.1,36.1,9.4,6,4.6,7.8,6.7,13,12.6-9-4-16.9-7.4-26.6-9.2-29.9-7.2-29.8,5.6-53.7,8.8,10.6-6.8,19.4-11.3,30.6-17-7.4-5.4-10.6-7.7-19.1-9.5-31.9-6.6-38.5-6.4-64.4,11.9l-.6-.4c4.9-10.2,18-13.1,23.1-19.2l-1.2-1.3,1.1-1.4c-.9-1.2-6.9-1-9.7-1.6l-1.8-.4Z"/>
  <path class="st3" d="M1025.7,506.3c3.6-.1,4.2.1,7.9,1.1l1.6-.6c.2-5.3-3.4-10.5-6.3-14.3l.2-.9c6.3,2.8,17.6,13.5,23.5,17.7,5.3,3.8,30.2,15.4,35.7,15.9l.4,1.5c-2.1.5-1.2.6-3,0-5.2-1.8-11,4-15.9,1.7-2.5-1.2-4.5.5-6.7,1.4,1.6,3,3.8,5,4,8.2-16-4.8-30.2-18.6-41.3-31.7Z"/>
  <path class="st7" d="M978.7,376.4c4.9,2.6,13.1,0,18.8-1l6.1.8-4.4.3-.5.8,3.3,2.4-1,1.1c5,7.1,13.1,8.2,18.7,14.8l-.8.5c-23.4-14.2-35.7-14.3-62.3-7.3-6.7,1.7-8.9,3.5-12.5,9,1.4,1.8,19.3,12.5,24.3,16.6-8.7-2.7-19.8-7.5-27.6-9.9-9.3-2.9-34.3,4-44.5,6.2-.2-10,36.3-13.8,43.8-17.6,12.9-6.6,24.4-13.3,38.4-16.6Z"/>
  <path class="st3" d="M669.3,538.8c2.5-5.2,4.1-5.3,8.5-8.5-1.7-4-13.2-.6-17.6-2.8l-.8-1.7c-3.1-.2-2.3.2-5.1-1v-.9c15.4-2.7,24.9-6.3,38-15.9,3.5-2.6,16.3-12.8,19.1-12.7-.2,1.8-1.2,2.9-2.2,4.6-3.7,3-5.3,3.6-7.1,8.1v2.4c4.3,4.1,9.2,2.1,14.5,1.3-15.3,13.3-27.5,23-47.2,27Z"/>
  <path class="st3" d="M1223.3,640.8c-1.9,6.1-7,14.3-7.4,20l3,1c1.5,2,.9.8.9,4.4l.8.8c2.4-1.7,8-11.3,9.9-14.3,3.1.3,1.8-.3,4,1.7,0,3.2-.2,3.8,1,6.8,3.2,2.3,3.6,1.3,8.6.8-18.4,25.8-26.8,26.9-52.4,8.2.3-.8.9-1.5,1.4-2.3,3,1,3,1,6.1,1.2,6.6-2.5,17.5-21.5,24.2-28.4Z"/>
  <path class="st3" d="M1158.2,622.7h2.8c2.1,3.3,11.8,11.5,15.3,12,3.4-1.2,5.4-3.9,8.1-6.6l.6.4c-4.5,8-10.5,14.8-9.6,24.9,0,.8.2,1.6,0,2.3-4,3.3-5.9,4.1-10.4,6.4-4.2-5.9-13-22.8-12.4-30.1.4-5.2,2.5-6,5.7-9.3Z"/>
  <path class="st3" d="M1162.3,490.4c5.4,4.2,31.9,37.8,35.5,44.7-12.5.1-13.4-9.9-19.5-16.3l-1,1.2-1.3-1.7-1.4,1.6c.9,7.2,7.9,5.9,9.8,11.4l-.8,1.3c-2.7-.6-2.6-.7-5.3-.8.5,3.9.9,7.8,1.2,11.6l-1.2.9c-6.7-2.7-9.7-19.5-12.2-26.4-3.2-9-2.7-18.2-3.7-27.6Z"/>
  <path class="st3" d="M1101.6,444.5c4.8,3.1,8.9,5.6,13.1,9.7,10.2,9.8,13.5,18.6,26,24.8-3.9.3-8.7,0-12.7-.3-2.6-.1-3.7-3.8-5.4-6.8-6.4-.5-16,9.2-22.1-4.8-2.2-5-5.4-6-9.2-9.5l.2-1.6c3.2-3.3,14.6,7.9,18.8,2.5-1.3-6.4-6.4-3.8-8.7-14.1Z"/>
  <path class="st3" d="M842.8,402.4c2.9-1.2,3.5-.8,6.5-.2,5.5-4.1,1.6-26,0-32.2l1.2-.8c3.8,4.6,13.3,33.6,13.1,40.4-1.5,1-.6.7-2.7.6-1.8,2.5-2.3,3.4-3.8,6.1-5.6,2.3-23.3-6.4-27.9-10.5,9.6,1.7,17.6,5.1,26.6,9.2-5.1-5.8-7-8-13-12.6Z"/>
  <path class="st2" d="M1165,599.4l-2.7,1.5-.7-1.1c3-8.4,35.5-43.1,42.8-44.6,2.3,1,1.8,1,4.2,1.2-.2,2-2.3,3.6-4,5-13.4,10.5-24.3,21.7-34.1,36.8-2.1.8-3.2.9-5.4,1.2Z"/>
  <path class="st2" d="M573.2,596.7l-.7-.4c-8.6-18.2-26.9-29.1-40.1-42.3l.2-1.8c2.1.8,4,1.6,6.1,2,3.6,0,1.5-.8,4,1.4,13.9,12.5,26.6,25.9,39,40.2,3,3.5,3.6,1.5,5.2,3.2-3.2,6.2-4.7-2.1-13.7-2.4Z"/>
  <path class="st2" d="M935.5,383.5l-2.6-2.2c-5.9-5-8.9-10.1-14-16.2h-1c0,.1-.5,6.8-.5,6.8h-.8c-2.6-4.7-2-52,.9-56.5,0,10.7-.8,16,3.2,25.6-.5,21.2,5.9,25.5,14.6,42.5Z"/>
  <path class="st2" d="M828.5,335.1l1.6.9c.9,8.2.4,34.7-2.6,42.3-.4-4.8.2-6.9-2-10.6-5.3.5-10.5,10.6-18.1,16.6,5-8.9,12.4-19.1,15.5-28.6,1.2-3.6-.2-9.8,1.5-14.3,2.1-1.9,2.8-3.7,4.2-6.3Z"/>
  <path class="st7" d="M931.4,731.1c5.4-8.8,24.3-32.6,33.8-33.5-.3,5.4-.2,6.2,1,11.5-10-4.4-27.1,14.8-34.7,22Z"/>
  <path class="st2" d="M875.8,432.5c.7,7.8-1.8,24.1,2,29.7,1.8.4,2.3.6,4,1.3-2.1,2.1-3.4,3.7-5.2,6-1.3,9.5-1.6,19.1-1,28.6,2.4,40.4,35.5,43.2,64.6,42,41.5-1.8,52.4-57.7,73.2-84.3-8-5.7-13.9-10.1-20-18.3,9.1,5.3,20.7,12.2,30.6,14.4,6,1.3,11.2,1.3,17.6,3.1-4.7,4.8-26.1,9.8-32.9,11.1-3.5,23.3-12.1,37.7-25,56.1-21.7,31-52.1,32.8-83.5,20.8-11.3-4.3-18.8-12.2-27.7-20.8-5.3,3.1-8,5.4-11.6,10.6-14,13.1-28.5,14.8-46.7,15.9-36.9,2.2-55.7-24.8-71.3-58.4-2-4.4-5.9-21.3-9-23.3-6.3-4.2-28.6-7.6-33.8-12.9,4.2-2.9,17.1-1.2,24.9-3.6,8.4-2.6,16.5-8.5,23.5-9.9-3.6,2.4-15.3,13.2-17.9,16.6,8.1,6.9,7.7,10.5,12.4,20.1,14.8,30.2,31,61.7,65.8,62.8,16.8.5,37.5-1.1,50.9-14.1,13.4-13,8.6-40,9.1-58.6-5.1-4.4-10.1-5.4-13.8-8.8,6.5-1.5,11.3,2.4,14.4-.3.8-6.1.8-13,1-19.2,1.4-2.1,3.5-4.6,5.2-6.6Z"/>
  <path class="st7" d="M931.7,641.1c1.8,2.9,1.8,4.5,2.3,7.9l.2,1.3,1,.5c2.4-1.3,3-1.8,5.6-2.5.5,1.9-10.6,19.8-12.7,27.2-4.5,15.4,5,19.2-4.1,37.3-1.6,3.1-8.7,16.8-11.4,17.7l2.1-5.7c8.2-19.3,7.4-24.8,11.4-44-9.4-1.7-16.3-.5-25.3-2.3l-.4-.8c7.6-1.9,12.1-3.5,19.5-6.4l.7-.9c7.9-9.7,9.4-17,11-29.5Z"/>
  <path class="st7" d="M1057.8,459.5c21.4-.2,47.4,21.8,55.4,43.5-4.4-3.3-10.4-14-18.6-19.7-11.7-8.2-27.7-13.7-36.8-23.8Z"/>
  <path class="st7" d="M683.3,459.1l2.2,1c-3.5,6.8-35.7,17.7-49.3,37.8l-1.1,1.3c-.6-7.4,11.5-19.2,16.4-23.6,10.5-9.5,18.7-13.4,31.8-16.4Z"/>
  <path class="st7" d="M616.1,502.4c3.4,3.3,3.7,12.6,3,17.2-2.1,14.4-8.5,26.9-18.7,35.8l-.8-.2v-1.1c13.9-19,11.9-29.3,16.5-51.7Z"/>
  <path class="st7" d="M1127.8,500.6c1.3,9.1,1.9,18.6,4.4,27.4,1.7,6,9.8,19.4,10.1,24.1-15-13.1-20.7-31.1-14.5-51.5Z"/>
  <path class="st7" d="M895.7,366.9c1.3,12.4-8.3,33.2-14.7,43.2-.2-8.4,11-35.4,14.7-43.2Z"/>
  <path class="st7" d="M1207.3,630.9l1.1,1.5c-2.9,11.9-13.3,24.7-22.4,31.6-.8-1.6-.7-1.6-1.2-3.4,14.4-8.7,10.8-16.6,22.6-29.8Z"/>
  <path class="st7" d="M975,563.5c2.4,2,3.8,6.3,2.3,9.3-3.4,6.7-9.8,8.5-15.9,10.5l-1.5-1.8c2.6-6.6,10.9-5.4,15.1-18.1Z"/>
  <path class="st7" d="M578.6,510.1c.7.8.3.2.8,2.2-2.9,10.8-7.9,28.2-12.9,38l-.8-.5c1.9-9.9,7.9-32.2,12.9-39.7Z"/>
  <path class="st7" d="M975.1,550.3l.5,2c-2.9,9.2-12.9,11.1-20.5,11.2l-.8-1.3c.5-2.8,16.4-8.1,20.8-12Z"/>
  <path class="st3" d="M1134.5,554.4c7.9,4.3,17.8,11.6,24.3,18.2-5.5-.8-21.6-12.7-24.3-18.2Z"/>
  <path class="st3" d="M703.2,405.9c0,3.8-11.3,23.3-13.7,27.6.7-10.1,7.5-20.6,13.7-27.6Z"/>
  <path class="st3" d="M605.6,557.7c.9,4.9-16.4,15.1-20,16.8v-.5c2.1-4.9,15.2-13,20-16.3Z"/>
  <path class="st3" d="M650.7,456.4c1.1.1.3,0,2.1.9-1.2,2.2-12.8,9-16.1,11.2l-1.4.2c1.5-4.1,11.6-9.9,15.4-12.3Z"/>
  <path class="st3" d="M787.6,602.5c5.7,1.1,11.7,8.5,13.6,14.4-4.8-2.9-10.3-9.7-13.6-14.4Z"/>
  <path class="st3" d="M962.7,590c1.1,6.4-5.8,14.8-9.3,19.6-.9-3.9,6.9-15.1,9.3-19.6Z"/>
  <path class="st4" d="M769.8,734.2c16.4,1.7,23,6.8,43.8,12.3,20.1,5.3,61.4,8.9,82.9,8.2,4.6-4,13.6-3.3,19.7-3.8,15.8-1.5,28.3-6.6,43-12.7,14-5.8,15.3-1.3,17.9,11.1.2-3.5.5-7.2.6-10.6l.5,9.6c.8,14.7,8.8,24.1,11.4,39.3,2.4,14.1-.5,25.5.5,38.4,1,11.9,5.1,30.7,6.5,42.7,2.8,24.3,9.8,93.8,3.6,114-4.7,1.3-9.4,2.6-14.1,3.9-.5,4.1-.5,3.9.9,7.8,1.5,10.2-2.3,25.4-6.3,34.4-2.9,11.9-9.6,23.1-12.9,35-3,10.6-3.3,20.5-3.1,31.5.8,5.7,1.5,8,3.2,13.4,14.3,69.9-16.8,110.7-32.9,175.7-1,4.2-4.4,20.9-5.7,23.5l-.3,12c5,2.3,7.6,4.2,7.9,10.7.4,12.8-.4,25.6.8,38.3.8,9.3,3,18.4,6.3,27,4.1,10.7,11.4,19.5,12.2,31.4.8,11.5-.4,20.8-11,25.2-7.1,3.8-34.9,4.8-42.7,2.7-26.8-7.1-18-42.5-22.6-64.3-2.7-12.6-13.1-20.8-11.6-35.1,2.1-18.7,10.2-34,14.1-52.6,4.2-7.9,7.3-4.3,10.1-16.6,1.9-18.9,1.6-52-1.1-70.9-2.1-14.5-6.5-28.2-7-43.9-.4-12.4,8.7-53.5,15.1-60.8l.6-1.3c-.7-12.2-4.1-24.5-6.2-36.7-4.4-27.1-7.2-54.5-8.6-82l-.8-1c-11.7-14.5-5.2-33.5-9.2-41.1-4.1,2.1-3.8,17.1-5.3,21.4-8.1,23.1-8.3,41.6-9.4,65.9-1,22.1-5.7,47.4-9.6,69.1-2.7,13.1-6.5,26.2-7.5,39.6,5.5,10.7,6.8,19.9,9.8,31.2,7.3,28.3,9.4,53.1,1,81.7-9.3,31.6-10.2,69.5-7,102.4,1.3,13.4,7.7,26.8,6.6,41.1,1.7,1.9,5.9,6.4,6.8,8.5,5,12.8,5.6,41.1,5.9,55.7,0,1,0,2.1,0,3.1-9.9,15.8-6.1,22.6-11.1,39.6-2.7,9.3-14.2,18.2-22.7,19.2-16.5,1.9-55.5,2.7-57.8-22.6-2-22.9,15.8-40.5,20.7-61.6,2.4-9.8,3.8-33.8,6.9-39.9,1.4-7.4,4.1-3.4,4.1-18.5,1-25.4-16.1-77-23-104.3-4.7-13.8-11.5-43.1-14.1-57.3-.5-1.5-1.8-11.4-2.1-13.6-2.7-22.3.4-42.5,5.1-64.1,1.7-8,3.8-17.6,4.1-25.7-.6-15.3,1-53.5-1.6-65.8-9.1-17.3-21.4-51.5-22.9-71.3l-2.1-3.7c-2.9,1.6-3.1,2-6.3,1.9-1.2-1.2-2.4-2-2.3-4.1.2-15.9,1.8-32.2,2.7-48,2-34.7,2.3-67.4,9.5-101.4,2.3-10.7-1.9-30.7,1.7-43.9,3.1-11,5.4-16.9,10.6-27.2,1.6-4.3,1.4-18,4-22.1Z"/>
  <path class="st3" d="M967.8,1108.8c14.3,69.9-16.8,110.7-32.9,175.7-1,4.2-4.4,20.9-5.7,23.5l-.3,12c5,2.3,7.6,4.2,7.9,10.7.4,12.8-.4,25.6.8,38.3.8,9.3,3,18.4,6.3,27,4.1,10.7,11.4,19.5,12.2,31.4.8,11.5-.4,20.8-11,25.2,1.4-6.3,6-8.6,7.8-19.2,2.2-12.8-10.3-22.7-11.5-29-2.2-12-8.4-28.8-8.8-40.3-.3-8.3,2.2-29.8-1.7-35.4-7.4-.1-3.4-4-6.9-6.2-5.5-3.4-11.6-.5-16.1-6.9,0-4-.6-2.4,1.7-5.3,4.2-1.7,8.4-.9,13-.7l.3-1.2-1.7-1.1c1.8-4.4,5.4-13.2,5.3-17.9-1.9-2-3.4-3.1-3.8-5.9l1-1.3c1.3,1,2.6,2,3.9,3l1.9-.9c1.8-3.1,1-5.7,1.1-9.3l3.3-2.6c3.7-11,4.1-17.5,4.8-29.2.8.2,1.7.5,2.6.7,3.3-10.1,12.2-28.8,11-37.2h-1.3c-2.1,2-2.7,2.4-4.2,5l-1,1.8c.2-6.4,13.9-69.7,15.9-76.4-1.4,15.8-.4,17.9.5,33.2l.9.2c11.6-11.5,3.5-44.4,4.9-61.8Z"/>
  <path class="st7" d="M928.9,1320c-6.3-1.8-11.6-2.7-18-4.8l-.3-1c3.9-5.1,10.4,1.5,16.3,0l1.6-6.4.7.3-.3,12Z"/>
  <path class="st3" d="M769.4,1223.4l3.6,2c14.2-6.8-1.5-43.7,9.1-62,2.2,2.8,2.2,11.8,2.4,16,.8,15.4,1.5,30.6,3.6,45.9,1.5,11.2,5.8,27,6.3,37.7l-.7.8c-3.4-2.1-4.2-3.5-6.7-6.9h-1.5c-3.6,5.1-.7,15.1-2,23.9-4.7-13.8-11.5-43.1-14.1-57.3Z"/>
  <path class="st7" d="M749.9,979l-.9-1.7c.8-3.5,4.4-5.8,7-8.4,3.9-3.9,16.3-3,18.5-6.7,1-1.8.9-1.8,3-3.1,16-.9,33.3-1.1,49.6.4,3,.3,6.4,7,11,7,3.1,0,6.3,3.5,8.4,6-8.6,0-12.7-3.9-23.5-3.8-19.3,0-37.8.8-56.3,8.1-3.5,1.4-12.8,6.9-14.6,5.9l-2.1-3.7Z"/>
  <path class="st7" d="M964.6,1095.4c-3-4.4-.7-7-2-11.4-1,2.2-1.9,5.6-2.8,8.1-2.6-9.3-3.4-35.9-11.2-41-8.2,3.8-12.9,27.3-31.3,22.6l-.8-1.5c2.2-3.2,10.3-6.3,13.8-8.8,9.1-6.5,14.9-26.4,17.8-37.4l1.3.6c1.1,4.2-.7,12.4-1.4,17.2,2.2,1.7,1,1.4,3.6,1.1,7-9,11-5.9,11.2,5.1l1.4,1.4c9.2-.8,8.8-17.7,16.3-22.6-2.9,11.9-9.6,23.1-12.9,35-3,10.6-3.3,20.5-3.1,31.5Z"/>
  <path class="st7" d="M780.8,1063c2-11.5,2-18.7,10.5-25.2l1.7-.2c.9,8.7-8.4,13.8-7.8,23.4.8,13.6,1.7,26.9,1.6,40.5-2.5-8.3-5.9-20.6-9.1-28.2.3,7.1,1.8,50.9-.2,54.4-.6-3.3-.8-4.2-1-7.8-.6-15.3,1-53.5-1.6-65.8,3.2,1.5,3.9,4.6,5.9,8.9Z"/>
  <path class="st3" d="M885.2,991.2c6.2,4.8,2.9,15.1,7.4,20.5,2.2-1.6,2.3-3.3,3.6-6.4l1.2.5c4.2,11.2-1,29.9-3.2,40.8-1,4.9.4,19.3-.4,26.5-4.4-27.1-7.2-54.5-8.6-82Z"/>
  <path class="st7" d="M915.5,993.2c15.2.7,29,1.6,44.2,0,6.5-.7,23-7.2,26.2-6.6-.5,4.1-.5,3.9.9,7.8-16.7,7.8-54.3,6.9-71.3-1.2Z"/>
  <path class="st2" d="M892.4,1286.7c1.3,8.8-4.4,20.4-5.6,31,4.7,8.2,10.5,10.4,9.5,16.3-3,1.7-1.5,1.5-4.7.8-7.3-7.1-8.5-18.1-6.8-28.1l.3-1.6c0-.3.1-.6.2-1-1.7-1.2-.7-.8-3-.8,4.2-7.9,7.3-4.3,10.1-16.6Z"/>
  <path class="st7" d="M806.5,1385l1.3.6.6,4.5c11.2,1.4,9.1-8.3,29.9-.6-11.4,1-26.3.5-33.2,12.3-.8,1.3-1.2,1.2-2.6,1.8,1.4-7.4,4.1-3.4,4.1-18.5Z"/>
  <path class="st7" d="M900,1109.9c.3-2.1.7-4.1,1.1-6.1,3.4,3.9,9.8,26.9,10.4,33.5l-.6.5c-2.6-6.1-11.3-22-11.4-26.7l.6-1.3Z"/>
  <path class="st7" d="M829.1,1188.5c2.7,7.9.5,31.5,6.3,41.9,1.3,2.4,6,13.4,5.7,15.2l-1.1-.4c-4.4-4.3-7.4-16.2-9.2-22.4-.3,27.7,1.6,62.2,3,90,1.5,8.8,1.5,14.1,1.1,22.8-1.1-2.2-2.6-20-3.1-24.3-4.7-35.8-12-87.5-2.7-122.8Z"/>
  <path class="st7" d="M916.6,1152.6l1,.9c5.6,11.7-3.8,72.9-7.6,88.2-1.1,4.4-.9,9.8-2.2,15l-1-.3v-9.9c-4.9-10.6,4.2-29.4.9-37.7-2.3,1.1-2.2,1.3-4.7,1.1,1.7-7.3,7.6-13.6,9.4-20.6,2.9-11.3,2.3-25.7,4.2-36.6Z"/>
  <path class="st7" d="M807.2,1039.1c4.4,4,10.5,22.4,18.3,27.8,8.1,5.7,2.9,8.1,15.3,7.7-.8,2.5-4.4,4.7-6.6,6.6-1.6,3-3.9,8.4-5.3,11.6.1-4.8.5-9.8.7-14.6-9.7-13-23.6-18.7-22.5-39.2Z"/>
  <path class="st7" d="M789.7,1105.5c4,4,9.9,42.3,10.8,49.7-7.5-10.4-14.4-36.3-10.8-49.7Z"/>
  <path class="st7" d="M957.2,1097.9c3.5,7.1-6.6,25.9-10.1,32.4-1.7-6,6.9-26.7,10.1-32.4Z"/>
  <path class="st7" d="M800.9,1001.3l1.2,1.9c.6,8.1,1,21.2-2.1,28.5-4-8.4-1.5-21.6.8-30.3Z"/>
  <path class="st7" d="M915.6,1089.4c5.1,2,10.1,21,10.4,26.6-5.8-3.3-8.6-19.4-10.4-26.6Z"/>
  <path class="st7" d="M849.1,985.3c5,4.5,8.1,25.4,6.1,32.3-1.5-6.4-6.1-26.8-6.1-32.3Z"/>
  <path class="st7" d="M829.4,1098.2l.8.8c-1.3,7.7-3.5,14-7.3,20.6-.3-.4-.8-1.7-1.1-2.3.7-7.6,4-12.8,7.6-19.1Z"/>
  <path class="st4" d="M512,556.3c.9-2.1.5-.9,1.2-3.5,3.1-.8,7,1.8,10.1,3.4l.7-1.2-8.4-8.4v-.8c3.2,1.9,6.4,3.8,9.5,5.9l1.3-.7-.8-5.6c2.7,2.2,5.4,3.8,7.1,6.8l-.2,1.8c13.2,13.2,31.5,24.1,40.1,42.3l.7.4c9.1.2,10.5,8.5,13.7,2.4.5,6.9,3.3,14.8,1.9,20.2,1.2,4.5,3.8,12.6,4.6,16.8-3.5,7.5-8.3,21.4-14.6,24.6-6.4-.6-5.8-3.4-8.4-9.4-2.9,4-5.2,7.6-8.9,10.7-9,9.6-28.2,24.2-41.1,20.5-5.6-3.9-13.7-12.2-18.2-17.8-4.6-5.7-6.5-7.8-6.1-15.1.4-4.2,1-6.7,1.8-10.8,1.3-6.4,6.9-15.1,9.5-22.2l1.2,1.5h1.3c3.9-3.9,5.7-5.6,8.3-10.6,1.5-7.2,7.7-21.6,11.1-28l2.3-6c-1.7-3.7-16.1-14.5-19.8-16.9Z"/>
  <path class="st5" d="M512,556.3c.9-2.1.5-.9,1.2-3.5,3.1-.8,7,1.8,10.1,3.4l.7-1.2-8.4-8.4v-.8c3.2,1.9,6.4,3.8,9.5,5.9l1.3-.7-.8-5.6c2.7,2.2,5.4,3.8,7.1,6.8l-.2,1.8c13.2,13.2,31.5,24.1,40.1,42.3l.7.4c.1,5.8-.8,9.4-1.9,14.9l3.6,2.4.2,1.7c-5.7,3.1-13.2-.6-15.5-7l-1.5,1.9-.9-.2.4-2.7-1.6-1.6-.9,1.6-1.2-.6c-14.4-6.9-12.3-1.4-23.5,0l-2.4-1.4c-4.4,1.5-5.1,2.1-9.5,1.4,1.5-7.2,7.7-21.6,11.1-28l2.3-6c-1.7-3.7-16.1-14.5-19.8-16.9Z"/>
  <path class="st2" d="M531.8,573.2l1.3-1.5c5.9,3.2,27.4,23.6,29,29.7-2.9,3.2-17.2-1.9-22.7-2.2,1-3.1,8.8-5.1,11.6-6-5.7-4.5-15.6-14.4-21.6-14l2.3-6Z"/>
  <path class="st3" d="M509.6,649.4c4.5,5.2,14.3,19.6,19.3,20.6l-1.5-3c.7-3.3,0-2.2,2.4-3.9l1.5-1c-.8-5.3-4.8-8.4-6.8-14.9,1.5-.2,2.6,2.2,3.8,4.2,5.7,9,10.1,12.3,18.3,18.2,2.9-1.8,6-4.2,8.8-6.3-1.3-4.8-19-22.3-20.2-31.2l.9-.9c4,2,15.7,25.5,23.1,27.9,1.8.6,1.4.9,2.4,2.7-9,9.6-28.2,24.2-41.1,20.5l1.9-3,5.5-.6.5-1c-6.2-10.9-13-15.1-18.2-26.8l-.6-1.4Z"/>
  <path class="st7" d="M527.9,605.8c-3.6,4.1-6.7,5.7-10.6,9-10.3,8.8-16.3,22.8-19.4,36.6h-.8s-.8-2.1-.8-2.1c.4-4.2,1-6.7,1.8-10.8,1.3-6.4,6.9-15.1,9.5-22.2l1.2,1.5h1.3c3.9-3.9,5.7-5.6,8.3-10.6,4.4.7,5.1.1,9.5-1.4Z"/>
  <path class="st6" d="M1444,104.4c0,6.2-2,7.4-3.1,13.1-2,9.8-4.5,27.5,1.5,36,.4.4.7.9,1.1,1.3-7.5,4.8-25.8,43.3-31.2,53.9l-51.6,102.4-42.2,82.3c-6.2,12.2-17.1,32.3-22.1,44.8,5.4,8.5,6.4,13.4,1.3,22.8.2-6-.1-9.8-.9-15.7-1.7-12.3-8.7-10.7-17.2-10.4-5.5,5.7-4.7,6.6-8.4,13.1-.4,3.1-.6,5.4-.8,8.5-2.5-20.2,3.4-23.2,19.7-24,9.1-16.3,18.8-37.5,27.4-54.6l43.9-85.6c15.9-30.9,31.7-61.9,47.3-93.1,7.8-15.3,18.2-34.7,25.5-49.7,7.5-15.2-4.6-25.3,9.8-45.4Z"/>
  <path class="st5" d="M1279.6,435c8.5-.3,15.5-1.9,17.2,10.4.8,5.8,1.1,9.7.9,15.7-4.2,3.1-11.1,7.3-12.1,13.3-2.2,9.2-5.5,7.4-8.5,16.3-4.5,13.7-3.5,26.2-11,38.4-12.5,7.8-14.1,5.5-15.2,22.2-.7-8-2.9-18.8,6-21.6l-.5-.8c-4.3-1.5-9.3-4.6-13.1-4.5-5.7,3.6-.2,8.2-9.5,9.8,5.6-10.9.8-20.4,5.3-28,9.3-15.7,24.7-32.2,31.4-49.7.2-3.1.4-5.4.8-8.5,3.7-6.5,3-7.4,8.4-13.1ZM1250,520.9c2.6,1.9,3.4,3,6.4,2.8,7-4.2,13.5-37.9,10.6-41.2l-.9,1.5c-5.9,10.2-19.1,22-20.6,30.4.9,3.5,1,3.8,4.4,6.5Z"/>
  <path class="st4" d="M1279.6,435c8.5-.3,15.5-1.9,17.2,10.4.8,5.8,1.1,9.7.9,15.7-4.2,3.1-11.1,7.3-12.1,13.3-1.2-3.8-2.5-2.9-3.9-7.3-.4,1-.2.3-.4,2.2l-.2,1.8-1.3-.4c-3.8-5.7-6.9-15.6-8.7-22.5,3.7-6.5,3-7.4,8.4-13.1Z"/>
  <path class="st4" d="M492.1,541c.3-7.1-3.4-11.6,1.8-15.9,6.3-.6,4.7-2,9.5-3.3,1.9,3,1.4,3.6,1.8,7.9,2.3,3.4.8,2.2,4.8,3.5,4.1,2.2,11.7,8.8,15.6,12.1l.8,5.6-1.3.7c-3.1-2.1-6.3-4.1-9.5-5.9v.8s8.4,8.4,8.4,8.4l-.7,1.2c-3.1-1.6-7-4.2-10.1-3.4-.7,2.6-.3,1.4-1.2,3.5-2.4,9.8-5.7,54-1.9,61.4h-1.3c0,.1-1.2-1.4-1.2-1.4-2.6,7.1-8.2,15.8-9.5,22.2-3.2-29.8-2.5-60.5-3.8-90.4-.1-2.3-1.3-5-2.1-7Z"/>
</svg>