<?xml version="1.0" encoding="UTF-8"?>
<svg id="fixed_id_0"  xmlns="http://www.w3.org/2000/svg" version="1.1" xmlns:xlink="http://www.w3.org/1999/xlink" viewBox="0 0 586.5 761">
  <!-- Generator: Adobe Illustrator 29.3.1, SVG Export Plug-In . SVG Version: 2.1.0 Build 151)  -->
  <defs>
    
  </defs>
  <path fill="#95c604" d="M30.3,14c7.6-.8,36.9,2.6,45.6,3.4l49.8,5c13.3,1.3,26.6,2.6,39.8,4.1,1.5.2,6.7,1.3,7.5,2.2,4.8,5.5,3.9,13.8,3.9,20.5v21.6s-.1,80.4-.1,80.4v126.6s0,38.5,0,38.5c0,7.9.2,15.8-.5,23.7-.5,5.7-4.3,10.1-7.8,15-6.5,9.2-9.4,21.4-7.9,32.4,1,7,8.9,9.7,13.9,12.6,1.1.6,2,1.9,2,3.3.4,6.4.2,13.3.2,19.7v38.1s.4,127.2.4,127.2v24.2c0,4.4-.5,13.4.4,17.3,3.6,4.3,51.1,9.3,60.4,13.4,2.6,2.9,7.3,19.3,7.7,23.4l-.6.7c-3.7.8-17.2-2.3-21.7-3.2l-73.1-15.2c-6.8-1.4-21.3-5.1-27.2-5.1-11.5,0-26.7,2.9-38.5,4.3-7,.9-21.2,2.2-27.2,4,1.8,1.5,3.8,2.6,3.5,5-3.2,2.2-25.4,4.3-30.3,4.6-3.3.2-19.4-4-21.2-7,1.5-2.5,10.8-4.6,14.2-5.6-.4-14.8-.1-31-.2-45.8v-92.5c-.1,0-.2-354-.2-354V59.5c0-12.1-.4-26.7.7-38.7.3-3.3,3.6-5.2,6.2-6.9ZM54,607.1v-75.8c0-6-.4-37.9.9-41.4,3.4-1.8,13-1.8,17.6-2.5v-55.5c0-9.6-.4-20.6,0-30-2.3,0-16.5.7-17.2-1.3-2.4-7.3-1.1-29.4,1.7-36,2.6-1.5,8.3-1,11.6-1.1,0-4.8,0-9.6-.1-14.4,0-4.6-.3-7.6,4.1-9.9v-207.4c0-30,.6-62.6-.3-92.5-6.7-.6-17-1.6-23.6-1.5-.7,3.6-.4,32.5-.4,37.9v89.7s0,356.7,0,356.7l.2,70.8c0,10.9,0,22,.3,32.9,0,2,1.1,4.8,3.6,4.8,2,0,4.4-.5,6.3-.9,2.3-.6,5.6-.6,7.6-1.9,1.7-1.1,2-5.7.4-6.3-11.8-4.6-12.3,1.2-12.5-14.4ZM106.9,363.4c3.6,0,6.3.1,9.9-.3l.3-5.7c0-2.6,0-5.2,0-7.8,0-5.2-.8-8,4.1-10.7-.8-53.1-.4-108.8-.1-161.9v-64c0-10.5.2-23-.3-33.4-6.3,1-11.5,0-17.4-2.6.5,63.8.6,127.6.3,191.3l-.2,49.1c0,8.2.3,18.2,0,26.3,4.8,6.1,2,11.3,3.6,19.6ZM144.9,362.8c0,8,4.5,27.9.5,34.6-1.2,2-13,1.7-16.4,1.8.5,19,0,38.3.1,57.3.1,8.8-.4,18.9.4,27.5,5.6.3,11.9.2,17.2,1.8,1.1,6.4.7,16.2.7,23.1v35.2c0,0,0,42.7,0,42.7,0,6.8.4,17.3,0,23.8-1.3,1.1-.5.7-2.4,1-2.8.6-9.6,1.9-10.4,5.1,2.2,4.7,15.1,1.4,19.1,0,.6-23.6.2-48.7,0-72.4.2-34.7,0-69.5-.3-104.2v-241.9s.3-107.4.3-107.4c0-7.6.4-38.5-.7-43.4-2.7-1.8-16.5-2.3-20.2-2.2v.7c.8,5.7,2.6,9.7,2.3,15.5-.3,5.6-3.7,9.1-5.1,13.6-1.2,3.7-.8,11.9-.8,16.2v247c1.9,1.4,2.8,2.2,3.1,4.7.9,6.8-.3,12.8.7,19.8,4,0,8,0,12,0ZM96.1,401.1c-3.6,0-8.2,0-11.7.2-1.5.1-2.8,0-3.6.7-.5,13.7-.1,29.5-.1,43.3,0,7.6-1,36.7,1,41.4,3.8,1.3,33.2-1,39.2-1.6v-55.9c0-3.9.4-25.8-.7-27.9-1.9-.5-3,.3-4.7,1.3-.3.2-.7.4-1,.6-2.4-.7-4.8-1.7-7.2-1.6-1.2,1.1-.9,1.9-1,3.5-.4,11.3,0,22.8.3,34.2,0,5.3.7,11,0,16.2-.2,1.7-.6,3.3-1.9,4.5-1,.9-2.2,1.3-3.6,1.3-1.4,0-3.4-1-4.1-2.2-1.6-2.9-.7-50.4-.7-57.9ZM80.6,40v199.4c0,32.7-.6,67.3,0,99.9.7.7,2.4,2.5,2.6,3.4,1.5,6.4.3,13.6.9,20.5,3.8.4,8.4,1.5,11.5-.5.7-1.3.7-1.7.9-3.1,0-3.2-.2-6.2.2-9.5.3-2.6,1.9-7.1,1.9-9.3.2-9.2.1-18.8.1-28V92.8c0-17.2-.8-34.3-1.1-51.5-4.6-.7-12.4-1.3-17.1-1.3ZM94.7,625.5c3.9-.5,18.6-1.1,19-6-.8-1.3-.7-1.4-1.9-2.2-2-.2-2.3-.2-4.3,0-3.4.3-25.9.2-17.5,8.1,2,.5,2.6.3,4.7,0Z"/>
  <path fill="#e2fa67" d="M97.7,375c2.6-.4,14.4-.2,16.5.3-1.4.5-9.4.8-11.4.9-7.5.2-12.8,1-20.6.2,4.7-.9,10.6-1.1,15.4-1.3Z"/>
  <path fill="#95c604" d="M257.7,274.9c6.5-7.5,18.7-9.1,24.1-16.7,4.7-7.7,7.1-15.9,6.5-25-.4-6.4-3.7-10.2-5.6-15.8-4.2-12.7-3.1-34.4,8.9-42.7,15.3-10.5,36.9-10.5,51.2,1.9,4.8,4.2,6.6,16.7,7.7,23.3,1.2,7.1-.3,17.9,1.2,25.6.3,1.4-1,6.2-1.2,7.9-.5,3-1.7,7.1-2.1,9.9-1.1,8-2,14-11.9,13.4-2.7-.1-4.7-.4-7.3-.9-1.8-.3-7.4-2.6-8.4-2.2,3.6,2.1,9.1,4.6,12.9,6.5,0,7.1-.6,12.9,1.2,19.8.7-4.7.7-8.2,1.1-12.8,2.7,1.6,19.5,12.7,20.9,12.3,21.1-6,42.9,13.3,47.5,33,.3,1.4.3,2,0,3.4,1.8,2,6.9,3.4,9.6,4.7,4.9,2.6,8.4,4.8,12.1,8.9,2.8,3,5.1,6.5,6.9,10.2,1.4,3.1,4.4,11.8,6.3,13.8l.6-.4c.4-2.1-.1-3-.8-5.1,16-1.6,26.3,1.7,40.6,8.5,4.2,2,22.2,5.7,23.1,6.4l.3.9.6.2c5-6.5,2.9-17.8,16.8-16.2.2-8.2-1.5-37.7,14.5-23.8,1.8,1.5-.2,23-.1,26.7,5,1,5.7,1.2,9.6,4.6-1,6.2,1.1,13.6.9,21.8-2.6,3.9-3.5,7.5-6,11.4-1.6,2.4-7.2,1-6.6,4.9.8,5.6,7.2,4.9,12,4.9,1.7-2.4,3-4.4,6.1-4.9,3.8-.6,9.8,0,13.1,2.2,1.9,1.3,3.3,3.3,3.8,5.6.8,4.1-24,94.8-27.7,106.3.8-15.9-2-20.7-12.6-31.6.7-10.3,4.6-23.4,7.4-33.4,2.8-10.1,5.6-20.1,8.5-30.1-24.7-1.7-22.6-5.6-26.5-29.1-.7-4.4,3.4-16.5.4-19.5-.6.4-2.2,5.8-2.9,7.5,1.7,8.5,0,12.7,1.1,18.9-1.7-1-5.3-3.1-7.1-3.5-16.9-3.3-37.8,6-55,2.9-8.9-2.1-21.4-3-29.1-7.9-5.5-3.5-7.7-6.5-14.2-9.2-10.4-4.2-22.6-5.8-24-19v-.8c0,0-.1-.5-.1-.5,5.1-11.5,6.3-6.2,11.9-2,2.6,2,14.2,8.2,16.7,8.1-7.7-5-16.2-9-21.8-17.1,0-13.8-.3-28-10.6-38.4-.9-.9-1.9-1.8-2.8-2.7,5.5,10.7,9.5,20.3,8.5,32.7-1.2,13.8-4.4,15.9-17.2,15.5-7.1-.9-16.3-2-20.2-8.7-3.4-15.6-.4-17.9-8.8-33.6,3.6,14.1,9.8,39.3-10.9,43-17.6,3.2-34.9-.9-50-10.3-7.6-6.8-7.1-17.8-20.7-15.8-2.9.4-5.7,1.5-7.3,4.4-8.4,15.5-11,33.1-31.2,37.8-7.1-2.4-13-8.5-20.2-9.8-5.1-.9-13.2,1-18.1,2.7,6.1-.3,13-.8,18.7,1.6,11.4,4.7,18.7,14.4,32.4,13.8,1.8,0,5.2-.9,6.3-2.3,6.2-8.2,4.7-9.4,14.2-14,.3-7.8-3-39.4,13.6-26.2,2.7,2.1,1.7,22.4,1.9,27.1,6.3,3,16.1,8.7,7.5,15.8l.2,6.6c-5.9,9.6,1.4,15.4-10.1,22-.3,22.5-10.8,22.4-29.4,26.2-7.5,1.5-20.1,2.6-27.1,4.8,6.7,22,12.3,43,18.6,64.9l24.5,84.5c7.1,25.2,14.4,52.6,22,77.5,7.6-2,19.4-3.6,27.5-5.1,8.2-1.5,19.9-4.3,27.9-5.1,1.1,5.4,2.9,13.6,3.4,18.9-4.9,1.3-9.3,2.2-14.4,3.1-19.1,3.3-38.1,7.4-57.2,11.1-2.6.5-5.9-.9-8.1-2.1-6.7-9.5-2.1-13-5.2-23.3-20.3-66.7-39.9-133.7-58.7-200.9-2.8-10.1-7.3-25-8.5-35.4-.7-6.2,18.8-13.2,22.1-6.3.7,1.4,1.2,3.1,1.7,4.5,11-1.8,21.8-4.6,32.9-6,3-.4,7.3-1.1,10.1-1.9,3.2-3.1,3.6-3.8,4.7-8.1-7.7-.8-9.7-1.9-16.7-5.1-20,3.7-42.1,10.6-59.3-2.1-8.6-6.4-13.4-4.1-12-17.6.4-11.5,3.4-16.9,9.8-26.5,1-1.5,4.6-6.5,5.1-8,3.6-11.5,12.6-23.9,24-29.1l1.7,6.9.2-.6c1.7-5.1,1.8-10.4,3-15.5,2.6-10.9,10.3-20.4,20.2-25.6,3.5-1.8,9.8-3.9,13.6-2.5l.2.8c-1.1,1.7-7,6-9.9,9.2,14.2-8.6,19.2-11.4,36-9.4-3.8-1.2-8.7-2.6-12.4-4ZM296.5,282.4c-2.6-.5-7-.7-9.7-.1.8.7,2.5.7,3.8.9,14.2,2.7,28.7,3.3,41,11.3-2.8-3-4.6-5.1-7.1-8.4-7-1.5-21.1-3.8-28-3.7ZM202.3,347.4c6.4-8.5,9.1-14,18.9-20l-.2-.4h-.7c-9.5,3.1-17.5,9.5-18.7,20l.4.4h.2ZM246.5,322.7c8-1.9,17-3.5,21.7-11.2.9-1.4,1.6-2.8,1.4-4.4-5.3,7.4-10.6,10.3-19.1,13.6-1.2.5-3.8,1-3.9,2.1ZM342.1,290.3c4.1-2.6,6.4-3.6,11.1-5-2.4,0-5.3,0-7.7.1-2.9.9-8.8,3.3-8,7.3,1.9.3,3.1-1.2,4.6-2.4ZM439.7,362.3c-1.4.5-3,.9-3.9,1.9,2.1.3,4.4-.4,6.5-.8,1.5,0,3,0,4.3-.6-2-.7-4.8-.6-6.9-.4ZM310.8,264.9c1.4,4.8,4.5,12.2,9.3,14.2-1.4-2-8.5-13.3-9.3-14.2ZM493.6,373.6c-3.1.4-4.7.7-7.7,1.5,3.9.4,6.9.7,10.8.7,1.8,0,2.7.4,4.1-.4-1.5-1.4-5.2-2-7.2-1.9ZM180.4,372.8c5.3,0,9.8,0,15,1.2,2.9,0,5.6-.1,8.6-.4-5.6-1.6-7.8-2.2-13.5-2.4-4,.4-6,.7-10,1.6Z"/>
  <path fill-opacity="0" d="M220.3,327h.7s.2.4.2.4c-9.8,6-12.5,11.5-18.9,20h-.2s-.4-.4-.4-.4c1.2-10.5,9.2-16.9,18.7-20.1Z"/>
  <path fill-opacity="0" d="M269.5,307c.2,1.6-.5,3-1.4,4.4-4.7,7.7-13.7,9.3-21.7,11.2,0-1.1,2.7-1.6,3.9-2.1,8.5-3.3,13.8-6.1,19.1-13.6Z"/>
  <path fill-opacity="0" d="M310.8,264.9c.8,1,8,12.2,9.3,14.2-4.8-2-8-9.5-9.3-14.2Z"/>
  <path fill-opacity="0" d="M439.7,362.3c2.1-.2,5-.3,6.9.4-1.3.7-2.8.6-4.3.6-2.1.4-4.4,1.1-6.5.8.9-1,2.5-1.4,3.9-1.9Z"/>
  <path fill-opacity="0" d="M290.7,283.2c-1.3-.2-3-.2-3.8-.9,2.6-.6,7.1-.3,9.7.1-1.8,0-4.4,0-5.8.8Z"/>
  <path fill="#95c604" d="M274.6,339.6c6.2,5.4,20.9,14.4,29.7,15.1,10.6.8,24.8-1.2,34.5-6.1,3.5-1.8,6.3-4.3,9.3-6.7,7,4.6,10.3,6.9,18.5,8.6,4.1.8,10.6,1.5,13.8,2.4,1.2,8.9,2.5,17.4.8,26.3-1.4,7-3.4,13.4-3.8,20.7-.3,6.5,1.6,12.4,2.1,18.8.4,5.3,2.6,14.3-.8,18.8-1.2,1.5-4.5,3.4-6.3,4.3l.2.5c3.3-1.3,6.3-4.1,9.1-2.8,4,1.9,8.8,7.9,13,8.9,9,2.2,22,.5,31.4,1.4,14.9,1.4,33.1,3.8,47.2,8.2-14.6,16.8-13.4,14-20.7,36.4l.2.6c5.7-9.6,12.7-29.5,25.2-32,12.9-2.6,36.1,12.4,47.3,18.5,5.6,3,7.7,8.4,9,14,3.2,14.6,0,23.1-2.3,37-.9,5.5-.8,16-1.6,22.3-1.7,13.6-4.3,26.7-7.4,40-1.4,6-3.4,15.7-5.5,21.4-10.3,3.5-20,2.2-29.2,6.6-1.2.6-3.2,3.1-4.1,4.3-.6-8.2-1.1-17.9-2.7-25.9-.9-4.3-3.8-11-5.4-15.3-3.5-9.3-4.3-19.5-2.1-29.2,2-8.8,8.6-23.7,11.8-33.8-7.5-.2-24.8.8-30.7,6.1-2.4,2.2-6.9,5.1-9.3,1.3-5.3-8.4-7.4-11.5-17.8-12.5-12.8-2.2-25.8-.3-38.2-.9-.5-6.5-.6-13.9-4-19.5-11.8-19.5-29.3-29.3-50.3-34.8,6,3.2,16.3,7.9,21.3,11.6-7.7.5-12.5.9-19.9,3.4-16.5,5.6-23.9,22.4-22.3,38.9,0,.7.1,1,.3,1.7,1.3-12.4,2.9-22.5,13-30.8,5.8-4.8,17.5-9.5,24.7-8,20.9,4.3,33.8,19.4,29.9,41.1-2.6,14.2-5.7,23-9.6,35.8-.8,2.7-1.5,4.9-1.6,7.7,1.7-3,1.8-5.3,3.6-8.2.9,12.2,4.5,21.8,3.5,34.3-1,13.1-5,22.4-8.2,34.5-3.1,10.8-2.3,22.8-2.6,33.4-.5,16.3.7,13.1,8.4,25.7,3.3,5.4,3.3,18.5,8.5,25.8,5.7,9,15.2,16.7,19.4,26.5,3.3,7.7-2.7,11.8-9.3,12.8-17.1,2.6-45.6,4.6-50.6-17.3-15.7-5.4-10.9-13.9-9.2-27.6,1.2-9.3-.6-12.4,5.9-19.7,2.6-34.4-17.3-66.9-18.9-100.9-.5-9.7,3.4-21,6.8-29.9,3.4-9,6.4-12.9,3.2-22.8-.9,3-2.6,14.3-6.3,14.8-10,1.3-18.2-11.1-24.8-16.7-2.7-2.3-7.7-3.8-10.8-5.7-19.7-9.8-22.3-34.8-17.6-54,1.1-4.4,2.9-9.1,4.3-13.4,1.3-4.2,4.2-9.4,4.4-13.8.6-11.6-2.5-25-5.7-35.9,8.4-14.8,4.6-22.6,10.8-35.4-2.6-7.3-3.9-11.3-11.1-15.1-.2-4.9,0-10.7,0-15.7ZM350,393c1.7,4.9,2.4,14.6,1.6,19.6-5.5,1.5-10.4,1.2-15.6,2.7,12.2.8,20.2,3.5,19.2-11.5-.2-2.8-.4-11.2.9-13.4,1.2-.4,1.4-.5,2.7-.8l-.4-.2c-1.4-.8-1.7-.8-2.7-2.2-1.1-5.9,1.1-15-3.3-19.4-.2,2.6-.5,6.7-.5,9-.2,11.8-2.3,11.7-12.8,13.2-3,.4-9,2.9-12.2,4.2,7.7-.4,15.5-.8,23.2-1.1ZM288.3,442.2c10.2-.4,26,1.3,36.8,2l9,1.3c-9.7-4.3-25.7-6.8-36.3-6.2-3.5.7-6.1,1.7-9.5,2.9ZM342.1,361.9c-6.8,2.1-17.8,7.9-21.1,14.4-1.1,2.2-2.3,5.5-3.1,7.8l.2.4c.9-1.1,1.2-1.4,2-2.6,4.3-5.8,6.3-8,12.2-12.2,3-2.2,13.2-5.9,13.9-7.7-1.8-.2-2.4-.2-4.2,0ZM509.1,564.6c.6-7.5-.3-12.1-1.8-19.4.3,6,.3,9.5-.7,15.3-1.8,8.3-3.9,16.1-7.2,24-1.4,3.1-3.4,6.2-4.6,9.2h.3c9.5-13,10.6-12.3,14-29.1ZM290.7,362.2c2.8,3.6,5.7,5.9,10.2,7-3.1-2.7-6.3-5.8-10.2-7ZM344.4,525.5c1.2,3.1,8,19.1,10,20.7-1.1-6.2-4.3-17.2-10-20.7ZM341.2,561c-7.2,22-6.1,33.2-.2,55.2l.2,1.1c.1-2.5-.9-10-1.2-12.9-.6-5.9,0-15.3-.4-20.3-.3-4.1,1.7-22.4,1.6-23.1ZM371,372.5c-.4-6.7-8.6-10.6-14.7-10,2,3.6,10.5,5.6,13.3,8.9,0,0,1.3,1.2,1.4,1.2ZM315,409.5c2.3,4.5,4.2,8.8,6.2,13.4,2,3.3,3,4.9,5.3,7.9-2.6-9.3-2.5-17.3-12-23.4l-.4.2.9,1.9ZM285.8,370.4c2,4.4,5.5,5.7,9.9,7.3,1,.4,2,.7,3,1-2.7-3.4-8.5-7.3-12.8-8.3Z"/>
  <path fill-opacity="0" d="M506.6,560.5c1.1,1.4,2.3,2.4,2.5,4.1-3.4,16.8-4.5,16.1-14,29.2h-.3c1.2-3,3.3-6.1,4.6-9.3,3.4-7.9,5.5-15.7,7.2-24Z"/>
  <path fill-opacity="0" d="M344.4,525.5c5.6,3.5,8.9,14.5,10,20.7-1.9-1.5-8.8-17.6-10-20.7Z"/>
  <path fill="#96b91b" d="M315,409.5c2.3,4.5,4.2,8.8,6.2,13.4-1.6-.9-5.5-6.2-6.2-8-1.2-3-1-2.8,0-5.4Z"/>
  <path fill="#e2fa67" d="M290.7,362.2c3.9,1.2,7.1,4.3,10.2,7-4.5-1.1-7.4-3.4-10.2-7Z"/>
  <path fill="#e2fa67" d="M284.8,380.4c2.2,1.1,4,2.7,5.4,4.7-2.9-.6-3.8-2.4-5.4-4.7Z"/>
  <path fill="#95c604" d="M218.8,181c10.6-.7,49.9.9,59.7,3.2-3.2,14.8-6.1,23,.8,38,4.4,8.6,7,25.2-.9,32.5-1.9,1.8-26.4,17.6-27.9,17.6-17.4.9-27.8,3.5-39,17.9-3.1-11.9-5-29.9-6.7-42.3-1.7-13-3.4-26.4-5.5-39.3-2.5-15.6,2.9-25.8,19.5-27.6ZM212.2,192c-.6,21.6,5.7,45.2,8.1,66.8.3,2.9.7,6.3,1.2,9.1l.3-.2c.2-5.7-1.1-12-1.6-17.7-1.1-11.9-2.3-23.8-3.7-35.7-.8-6.5-1.9-13.6-1.8-20.2,0-2.8,1.2-4.7,2.7-7l-.4-.6c-2.2,1.6-3.3,3-4.7,5.4Z"/>
  <path fill-opacity="0" d="M216.9,186.6l.4.6c-1.5,2.3-2.6,4.2-2.7,7,0,6.6,1,13.7,1.8,20.2,1.5,11.9,2.7,23.7,3.7,35.7.5,5.7,1.8,12,1.6,17.7l-.3.2c-.5-2.8-.8-6.3-1.2-9.1-2.4-21.5-8.7-45.2-8.1-66.8,1.4-2.4,2.5-3.7,4.7-5.4Z"/>
  <path fill="#95c604" d="M388,521.7c4.4-.6,8.8-1.2,13.2-1.2,5.4,0,31.9,2.2,35.3,5,2.7,2.2,3.4,6,3.7,9.3.2,3.1.3,6.7-1.9,9.1-6.2,6.6-46.4,3.4-47.2,8.3-.5,2.7,2.4,21.4,3.7,23.5,1.3.7,2.7,1,3,2.4,1,4.8.8,7.9,2.2,12.7,10.5-4.6,12.9-1.9,18,7.8,2.4,4.6,8.7,12.6,6.3,17.5-2.8,5.7-11.8,0-13.2-4.4-1-3.2-4.6-9.9-7.4-10.5-4.6,3,1.1,29.9,1.8,36.2-4.9,1.8-11.6,4.6-13.7,9.5-3.3,7.9-1,20.8,7.8,24.6,7.8,3.4,25.1,2.2,30,10.5,1,2.7.4,10.3,1,14.3,3.9,1.1,9.9,2.2,12.5,5l.3,1.2c-1.7,2.5-19.5,6-23.5,6.9-7.8,1.7-18.9-.6-26.5-2.9-2.7-1.2-5.3-2-4.8-5.3,1.2-1.6,1.6-1.7,3.4-2.7-2.4-2.6-4.3-2.5-7.8-3.1-.4-11.4-5.3-15.2-9.3-24.1,2.7-.8,6.1-1.3,5.4-4.9-1.9-2.2-3.5-2-6.5-2.4-.5-4.8-2.4-15.2-.1-19.3.5-.9,2.4-1.8,3.4-2.3-.4-3.8-1.5-13-1.1-16.2,1.6-12.4,6-21.4,7-34.4,1.1-14-2.1-26.5-2.3-39.2,0-2.9,6.3-26.8,7.4-30.7ZM398.3,528.3c3.8-.1,27.3-1.7,29.6-2.7-2.2-.3-2.5-.2-4.8,0-7.7.3-21.4.4-28.1,2.7,1.1.4,1.9.1,3.3,0Z"/>
  <path fill="#96b91b" d="M391.9,698.3c2.6,3,2.9,2.8,1.8,6.5l-.4,1.5c-2.7-1.2-5.3-2-4.8-5.3,1.2-1.6,1.6-1.7,3.4-2.7Z"/>
  <path fill-opacity="0" d="M423.2,525.6c2.2-.2,2.6-.3,4.8,0-2.3,1.1-25.8,2.6-29.6,2.7-1.3.1-2.2.4-3.3,0,6.7-2.4,20.4-2.4,28.1-2.7Z"/>
  <path fill="#95c604" d="M517.3,651.1c1.3-.1,1.3-.2,2.5.2.2.5.4,1,.6,1.4,3.9,8.7,22.7,21.5,31.1,25.7,4.3,2.2,19.7,3.9,24.1,8.7,1.8,1.9,1.4,6,1.4,8.5-10.5,12.1-33.1,9.7-47.3,6.9-4.3-1.2-11.8-3.6-16.2-4-12.3-1.1-27.5.9-39.3-3.2-2.1-.9-4.7-2.8-5.3-5.1-1.4-4.8,1.4-10.1,2.4-14.8,1.4-6.4,1.6-13.2,4.2-19.2.7-1.6,4.9-2.9,6.6-3,3.2-.3,6.7,1.4,10,1.7,8.7.9,16.9-1.5,25.1-3.7Z"/>
  <path fill="#95c604" d="M531.7,618.8c12.9-1.4,18.4,5.4,14.4,17.8-2.9,2.8-5.3,3.9-9.3,4.8-12.4,2.7-24.7,6.5-37.3,8.4-5.8.9-8.1-.4-12.4-3.8-5.3,1.5-9.8,2.4-15.1,3.6-6,1.4-7,2.4-9.9,7.1-12.4,5.8-36.9,8.7-50.6,10.8-5.4,1.5-13.2.7-15.1-5.3-7.1-22.3,20-20.1,33.7-23.1,8.3-1.9,17.1-4.2,25.6-5.5,2.5-.5,6.7,2.6,8.5,2.9,5.1.7,16.2-1.8,20.8-3.4,1.8-3.1,2.5-4,5-6.4,4.7-1.3,12-1.6,17.1-2.6,8.3-1.6,16.4-3.4,24.7-5Z"/>
  <path fill="#95c604" d="M263.4,553c7.8.2,18.1,1.6,26,2.4,1.9,10.8,2.8,24.1,5.2,34.4,6-1,14.8-1.7,21.1-2.4,1.3,8.7,2.6,13.5,4.9,21.9-7.4,1-15.6,1.6-23.2,2.5.1,5.6,1.3,12.4,2.1,18l2.5,20c-5.4,2-16.4,3.4-22.3,4.3-1.5-5.3-3-10.7-4.5-16-6-21.9-7.4-45.2-10.4-67.7-.7-5.4-1.4-11.9-1.5-17.3Z"/>
  <path fill="#95c604" d="M247.8,432.7c5-2.6,14.2-3.7,18.1-8.8,2.1-2.7,3.7-6.9,6.1-9.7,1.6,1.4,1.1,7,1.6,8.9,3.8,16,.5,23.5-5,38.4-4.7,12.6-4.3,33.2-.2,46,.7,2.2,2.5,4.8,3.4,7.5-2.2,3-9.1,2.4-12.5,1.8-1.4-.7-.6-3.5-1.8-3.9-7.4-2-16.9-2.7-18.4-12.3-3.3-21-6.6-43.4-8.9-64.5,4.8-1.5,9.4-2,14.4-2.4l6.6,45.1c.3,1.9.7,5,1.3,6.8l.4.2v.9s-.3-.5-.3-.5l.3.5c0-3-.3-4.9-.7-7.8-1.5-10.2-1.9-21-3.3-31.2-.6-4.8-1.1-10.1-1.3-15Z"/>
  <path fill="#95c604" d="M296.5,532.6c3.8,2.2,10.5,10.4,15.5,13.2,1.7,1,8.3,4.6,8.9,5.5l-.3.8c-5,2-14.9,0-20.3-.7-12.4-1.7-24.6-2.6-37-4.4-8.2-1.2-8-7.6-7.9-14.5,0-1.9.6-5.2,1.9-6.6,4.2-4.3,13.5-4.2,19.4-4.8,3.4,1.8,6.3,4.3,9.2,6.7,4.1,2.9,5.7,3.4,10.5,4.9Z"/>
  <path fill="#96b91b" d="M285.9,527.7c4.1,2.9,5.7,3.4,10.5,4.9-5.1,1.9-9.7,1.1-10.5-4.9Z"/>
  <path fill="#9ca948" d="M476.6,610.8c1,1.3,2,15.1,2.2,17.8-5.1,2-10.3,3-15.8,1.8-1.3-.6-2-.8-2.9-2,1.1-1.8,7.9-2.1,11.4-3.2l.7-.2c1.7-4.9,1.9-9.9,4.4-14.2Z"/>
  <path fill="#96b91b" d="M318.1,677.9c5.7-1.1,11.4-2,17-3.1-.4,15.8-6,9.6-17.1,7.3.3-2,.4-2.4,0-4.3Z"/>
  <path fill="#9ca948" d="M232.9,405c4.3-.8,5.7.8,8.7,3.4-2.3.5-4.3.8-6.6,1.1-2.6.4-8.5,1.7-9.4-1.9,1.6-2.5,4.5-2.4,7.2-2.7Z"/>
  <path fill-opacity="0" d="M348,341.8c.5.1.2,0,.9,0-.8-.2-1.5-.5-2.3-.7h-.5c1.5-.8,2-1.1,3.6-1.2,3.9,6.6,13.1,7.8,20.2,8.7l-2.9.4,2.6.5-.3.4c-1,.2-2,.4-3,.6-8.1-1.7-11.5-4-18.5-8.6Z"/>
  <path fill="#9ca948" d="M237.6,362.1c1.6.5.9,0,2,1.3-.5,3.2-4.3,4.2-7,4.8-1.2-.1-.7.1-1.5-.7.8-2.2,4.4-4.2,6.4-5.4Z"/>
  <path fill="#9ca948" d="M306.8,680.3c3.6-1.1,7.6-1.8,11.3-2.4.3,1.9.2,2.3,0,4.3-3.8-.6-7.5-1.1-11.3-1.8Z"/>
  <path fill="#9ca948" d="M249.7,346.1c.4,1.3.3,5.4.2,7l-5.1,1.7c.1-2.1,3.3-5.4,4.9-8.6Z"/>
  <path fill-opacity="0" d="M372.5,556.1l2-.5c-1.8,2.8-1.9,5.2-3.6,8.2,0-2.8.9-5,1.6-7.7Z"/>
  <path fill-opacity=".1" d="M251.4,478.8h1c.4,2.9.7,4.9.7,7.8l-.3-.5.3.5v-.9s-.4-.2-.4-.2c-.5-1.8-.9-4.9-1.3-6.8Z"/>
</svg>