<?xml version="1.0" encoding="UTF-8"?>
<svg id="fixed_id_0"  xmlns="http://www.w3.org/2000/svg" version="1.1" xmlns:xlink="http://www.w3.org/1999/xlink" viewBox="0 0 731 728">
  <!-- Generator: Adobe Illustrator 29.3.1, SVG Export Plug-In . SVG Version: 2.1.0 Build 151)  -->
  <defs>
    
    <linearGradient id="fixed_id_1"  x1="280.3" y1="565.2" x2="282.1" y2="561.1" gradientTransform="translate(0 728.4) scale(1 -1)" gradientUnits="userSpaceOnUse">
      <stop offset="0" stop-color="#d0fe56"/>
      <stop offset="1" stop-color="#eefb98"/>
    </linearGradient>
  </defs>
  <path fill="#96d204" d="M422.6,76.3c.4-8.6-.3-17.5.8-26,3-24.8,22.1-41.4,47.2-39.9,13.7.7,26.5,6.9,35.6,17.1,12.4,14.1,10,32.6,9.6,50.5-8.5,9.4-4.4,10.9-7.2,21.7-.7,2.9-10.9,20.1-12.7,22.2,0,.9,0,2.2.7,3,5.3,5.9,9.9,9.8,12.4,17.6,3.4,11.5,3.9,19.5-1.9,30.8-4.2,8.1-13.1,17.8-22,20.9-.4.6-1.3,2.1-1.7,2.4-2.5,4.8-4.4,7.1-3.2,12.3,2.2,11.3.5,18.8-2.7,29.9-.5,1.8-2.2,6.6-3.1,8.1,0,3.4,0,9.2-.8,12.2-2,14.2-5.5,31.1-2.3,45.2,9.2,9,17.1,5.7,24.7,14.2.6.6,2.6,5,3.2,6.2,24.4-1,49-.2,73.4-.9,15.4-.4,27.6.8,39.5,11.8,22.2,20.4,19.9,45.6,19.9,72.7v52.1s0,145.3,0,145.3c0,30.7-.4,62.4.3,93,8.6,0,19.3.6,28,1.1,17.5,1,43.2,1.6,60,5.6-19.5,4.2-37,4.2-56.5,5.4-31,2-61.8,2.7-92.8,3.6-166.3,5-332.7,3.9-498.9-3.3-6.7-.3-57.8-3.1-62-5.7v-.7c5.7-3.1,74.6-6,85.1-6.1.4-22.2,0-45.7,0-68l-.3-161.1v-57.7c-.1-23.8-2-48.7,12.5-69.3,6-10.3,20.3-18.3,31.5-21.3,6-1.6,13.6-.9,19.8-1.3,16.7-.9,33.5-.8,50.2-1.1l.5-1.7c2.9-11,7.4-12.6,6.6-24.5,0,0,0,0,0-.1-2.2-7.7-3-15.8-5.4-23.6-4.5-14.8-11.2-30.3-14-45.5-.9-4.8-.9-63.8.4-66.2,1.5-2.7,3.5-5,5.9-7.1,6.2-5.5,34.7-25.9,41.9-27.8,1.9,0,5.2-3.9,7.2-5.6,4-7.6,18.2-12.8,26.3-13.7,5-1.6,12.6-1.7,18.9-3.1,4.2-4.2,9.2-7.5,14.7-9.6,15.4-7.6,25.8-7.8,42.4-2.6,3.1,1,5.8,2.1,8.6,3.7,1.9,0,3.3-.7,5.2-1.5,1.7-1,5.1-2.1,7-2.7,8.2-2.4,12.6-2.8,21.2-2,7.2.6,11.8,2.3,19.1,1,1.4-2.6,5.2-7.6,7-10.2ZM116.1,697.5c21.5-1.6,49-1.4,71.1-1.9,48.1-1.1,96.3-1.7,144.4-1.7,29.9,0,62.5.7,92.1,0-.7-3.8-.4-16.6-.5-21.2v-42c0,0-.5-178.7-.5-178.7v-45.5c.2-20.7,2.1-42.1-12.7-58.9-3.5-2.1-7-5-10.3-6.5,3,3.1,4.7,4.4,6,8.5,2.2,4.3-.6,34,0,41.4,1.5,16.3,3.4,34,2.3,50.4-.9,13.5-3.2,28.3-5.2,41.8-1.9,3.2-3.8,3.5-5.6,6.1-.7,12.8-13.4,31-18,43.4-1.5,4-5.7,16.4-8.2,18.9-10.5,10.8-27,7.9-40,9.4-10.9,1.2-23.2,6.8-34.2,8.5-26,4.8-50.7,2.7-75.1,14.7-17.4,8.5-19.2,12.2-27.6,29.2-3.5,6.7-11.2,15-11.4,22.8-.1,5.5,0,23-5,25.9-13.1,7.7-14.5-11.7-15.9-17-2.4-9.5-5.5-12.5-2.3-21.5v-1c-.9-2.1-.3-1.7-2.1-2.4-8,1.1-17.4-6.9-20.3-14.1-3.5-8.7-3.7-22.9-2.7-32.3.4-3.7,3.6-10.2,5.3-13.7,4-8.7,5.6-16.8,6.4-26.3.7-7.5,4.2-17.2,11.7-20.4,9.2-3.9,15.4,2.2,23.5,5.3l.6.2c20.6-2.8,29.1-23.3,50-23.6,9.1-.1,14.6.3,22.5,5,1.3-6.8.4-17.9.2-25.2-.4-2-.4-5.9-.4-8-4.7-2.7-7.1-4-10.6-8,4.6-20.4,8.3-42.2,12.3-62.9,1.3-6.9-.6-17.8.4-25.3,1-6.6,1.6-14.2,3.5-20.6,3.8-2.5,5.6-3.1,7.5-7.2-2.5-.3-2.3,0-4.9,1.3-1.9,2.5-2.6,2.9-5.6,3.6-4.8.8-8,3.7-9.6,3.7-7.2.2-19.5-1.6-26.3-4.6-.9-.4-7-6.2-7.1-6.2-6.4,0-17.3,0-23.4,0-8,.7-16.1,1.1-24.2,1.1-17.6,0-28.7-.9-40.4,14.2-10.7,13.8-9.6,28.4-9.5,44.7v27.5s0,100.6,0,100.6v106.5c0,0-.4,41.6-.4,41.6,0,6.6-.2,14.2.3,20.7ZM428.1,327.6c7.5-1.6,10.9-1.3,18.4-1.1-2.4-8.5-1.3-15.4-2.3-23.8-.5-4.4-7.7-35.3-9.5-36.4-2.6,1.9-4.3,4.8-6.3,7.2-5.7,6.8-8.3,11.4-10.1,20.3-1.5,7.6-4.9,15.1-9.4,21.6-.2,1.2-.5,1.6,0,2.2,4.2,4.5,15.3,10.9,18,16,7.4,8.7,14.7,24.8,16.2,36,1.4,10.7,1,27,1,38v62.9c.1,0,0,224,0,224,18.6-.5,41.1.4,60.1.8l108.2,2.4c-.5-24,0-49.2,0-73.4v-154.8c0-26.8,0-53.6,0-80.5.2-19-8.1-41.6-29.3-45-7.6-1.2-17.3-.2-25.2,0-20.4.1-40.8.5-61.2,1.1-.6,1.1-4.1,8.2-4.6,8.3-14.6,4.4-31.6,6.6-42.4-6.2-2-.2-5.9-.2-8.1-.3-2.8-3.5-11.4-15.3-13.4-19.1ZM273.8,311.3c1.4,1.5,1.5,1.4,3.6,1.8.1-2.8.8-6.2,1.9-8.8,2.9-9.8,15.1-15.1,19.9-28.3-.4-11.5,6.7-21.6,5.8-29.9-1.6-16-7.2-32.8-6.5-49.6.1-3.2-.4-5.6.1-9-.3-.5-.9-1.6-1.4-1.6-7.6.9-12.3,3.5-20.3,3.3h-.6c-8.4.5-13.8.3-21.5-3l-.9.2c-.4,9.6,1.7,18.2.6,28.3-1,9.9-5.1,19.2-6.7,29-1.6,9.6-.6,41.5,6.3,48.7,6,6.2,17.9,9.3,19.5,18.8ZM221.7,333c.4,2.9,1.5,5,3.7,7-.9-2.3-2-5.3-3.7-7ZM216.6,246.2c-.6-2.7-1.2-5.3-1.9-8l-1.1.5c.8,2.8,1.8,4.9,3,7.5Z"/>
  <path fill="#96d204" d="M267.3,343.1l.6.3c1.7-1.2,1.8-1.3,4.2-1.4,8.1-.4,16.4-.6,24.5-.7,10.3-.2,20.7-.5,31-.8l32.3-1.1c20.2-.7,29.3-2.5,45.8,10.3,2.2,4.3-.6,34,0,41.4,1.5,16.3,3.4,34,2.3,50.4-.9,13.5-3.2,28.3-5.2,41.8-1.9,3.2-3.8,3.5-5.6,6.1-.7,12.8-13.4,31-18,43.4-1.5,4-5.7,16.4-8.2,18.9-10.5,10.8-27,7.9-40,9.4-10.9,1.2-23.2,6.8-34.2,8.5-26,4.8-50.7,2.7-75.1,14.7-17.4,8.5-19.2,12.2-27.6,29.2-3.5,6.7-11.2,15-11.4,22.8-.1,5.5,0,23-5,25.9-13.1,7.7-14.5-11.7-15.9-17-2.4-9.5-5.5-12.5-2.3-21.5v-1c-.9-2.1-.3-1.7-2.1-2.4-8,1.1-17.4-6.9-20.3-14.1-3.5-8.7-3.7-22.9-2.7-32.3.4-3.7,3.6-10.2,5.3-13.7,4-8.7,5.6-16.8,6.4-26.3.7-7.5,4.2-17.2,11.7-20.4,9.2-3.9,15.4,2.2,23.5,5.3l.6.2c20.6-2.8,29.1-23.3,50-23.6,9.1-.1,14.6.3,22.5,5,1.3-6.8.4-17.9.2-25.2-.4-2-.4-5.9-.4-8-4.7-2.7-7.1-4-10.6-8,4.6-20.4,8.3-42.2,12.3-62.9,1.3-6.9-.6-17.8.4-25.3,1-6.6,1.6-14.2,3.5-20.6,3.8-2.5,5.6-3.1,7.5-7.2Z"/>
  <path fill="#f0fc9f" d="M265,471.1c20.1,10.9,39.5,15.2,62.4,12.7,4.4-.5,5.5-12.2,6.8-15.5,2.8-7.4,10.7-49.3,14.4-53.2,13.8-1.2,14.5-6.1,24.6-12.1-8.1,8.6-12.1,14.2-24.7,15.2-5.3,30.5-10.5,59.6-20.9,88.9-1.3,3.7-.3,9.1-1.5,11.9l-1.1-4.4c-3.7,4-5.9,14-8.8,18.5-4.4,6.8-12.4,12.5-17.3,19.3-6.7,9.3-23.9,9.7-33.8,7-10.6-2.6-20.9-1-31.5-1.6-8.1-.5-16.3-2.5-24.4-3.1-6.6-.5-12.8,2.2-19.4,2.2-7.6,0-19.2-4.7-25,2-9.6,11.1.7,28.1.9,40.6,0,3-.2,5.5-.6,8.3-1.2,5.2-2.6,9.4-4.8,14.3h-.5c-1.1-1.9-.5-1.5-2.2-2.2,1-5.4,5.1-13.7,4.7-19.8-1.1-19.8-18.2-50.6,18.2-47.2,4.3.4,6.7,2.1,10.9.2h-.6c11.4-4.3,33.7.7,46.5.8,3.6,0,17.6-.9,19.5-.6,11.1,1.7,22.7,6.1,33.9.2,4.7-2.4,6.8-7.3,9.9-11,2.1-2.5,7-5.1,9.2-8.1,9-12.1,13.8-31.5,17.5-46.1-24.9,1.4-42-3.6-63.2-16.8l.7-.6Z"/>
  <path fill="#f0fc9f" d="M397.2,489.3c-12,2-24,2-35.5-1.5-3.5-1.1-7.4-1.7-10.6-3.8,1.5-.2,9.4,1.8,11.6,2.1,13.6,1.8,27,1.1,40.1-2.9-1.9,3.2-3.8,3.5-5.6,6.1Z"/>
  <path fill="#f0fc9f" d="M254.6,475h.4c.8,7.2,2.1,16.7,2.3,23.9,0,6.1-.1,7.7-2.2,13.4l-.5.2c-.8-1.6.4-8.7-.2-12.3,1.3-6.8.4-17.9.2-25.2Z"/>
  <path fill="#dcfb72" d="M264.4,471.8c-.8-.6-2.6-2.1-2.9-2.9-1.9-4.9-.7-14.8,1-19.5,2,5-1,17.1,2.6,21.8l-.7.6Z"/>
  <path fill="#dcfb72" d="M257.3,498.9c2.1,3.1,0,16.8-.7,21-.2-2.4-.2-6-1.5-7.6,2-5.7,2.3-7.3,2.2-13.4Z"/>
  <path fill="#dcfb72" d="M300.7,499.6c.4,4.3-3.4,14.7-6.5,18.1-4.4,4.8-6.9,7.2-13.3,7.9.6-1.7,7.5-5.9,10.1-9.1,4.7-5.8,6.8-10,9.7-16.8Z"/>
  <path fill="#dcfb72" d="M201.1,525.7c9.3-2.2,21.8-2.2,31.7-2.7l-.3,1.8c-10.9,2-20.3,2.8-31.5.9Z"/>
  <path fill="#dcfb72" d="M376.9,516.4l1,1c-3.5,14.2-7.1,21.2-22.7,23.1,1.9-1.1,4.3-1.9,6.3-3,8.8-4.9,12.7-12,15.4-21.2Z"/>
  <path fill="#dcfb72" d="M194.2,567l.8.4c-3,3.1-4,4.3-5.2,8.3l-.3.6c-1.4-5.2.5-7.1,4.7-9.2Z"/>
  <path fill="#dcfb72" d="M169,528.2l1.7.3c-2.9,3.1-3.5,2.1-6.2,6.5l-.2.9h-.4c0-.1-.1-1-.1-1,1.1-3.2,2.7-4.7,5.3-6.7Z"/>
  <path fill="#dcfb72" d="M378.8,504.2c.4,5.6.2,7.7-.9,13.2l-1-1c.7-4,1.5-8.2,1.9-12.2Z"/>
  <path fill="#dcfb72" d="M232.8,522.9c3.1-.6,6.3-1.1,9.5-1.6-3.5,1.3-6.2,2.3-9.7,3.4l.3-1.8Z"/>
  <path fill="#f0fc9f" d="M320.9,157.1c7.9,4,13.2,6.5,22.2,7.1,0,1.3,0,1.7-.4,2.9l-.2.7c.9.7.9.8,2,1.4l-1,2.1-1.7-.2c-.9.8-.8.4-.9,1.9-.5,14.7,4.9,32.4,14.7,43.5,8.8,9.9,21.4,14.9,34.3,15.7,25.4,1.6,34.7-21.8,40.1-43.2l.8,1.9c-1.2,4.2-2,9-3.2,13-3.7,12-13.3,30.1,5.9,34.2,16.7,3.5,27.1-5.2,35.5-18.3,6.2-9.7,8.6-14.2,12.2-24.9,0,1.8-.3,1.4.5,2.3l-.4.9c1.3-1.2.7-1.1,2-1.3-2.5,4.8-4.4,7.1-3.2,12.3-5.6,7.7-8.2,16.8-15.9,23.7-5,4.5-11.1,6-15.8,11-4.6,4.9-5.9,16.4-13.2,17.5,2.5-6.1,6.3-13.4,9.2-19.5-12.9.7-23.6-.8-27.4-15.2-4.3,3.8-9,7-14.6,8.5-11.5,2.9-30.6-1.6-40.3-7.4-16.6-9.9-25.8-31.3-25.8-50,0-3,0-8.1-2.9-9.8-5.6,1-12,7.7-16.9,10.7-5.7,3.4-11.5,6.9-17.9,9-.3-.5-.9-1.6-1.4-1.6-7.6.9-12.3,3.5-20.3,3.3,19.1-3.5,35.9-11.3,49.8-25-2.9-1.6-5.2-3-8-4.8,2.7-.2,3.3,2.1,5.9,2.1l.6-.8c-1-1.2-3.2-1.9-4.7-2.8v-.8Z"/>
  <path fill="#f0fc9f" d="M346,310.7c19.8-1.2,45.4-4.2,63,4.6-.2,1.2-.5,1.6,0,2.2,4.2,4.5,15.3,10.9,18,16-1.3-.4-9.4-7.3-11.7-8.9-22.2-15.2-52.2-9.7-78-8.7-26.1,1.1-52.2,2-78.3,2.8,7.3-6.8,9.6-3,14.7-5.4v-1.9c1.4,1.5,1.6,1.4,3.7,1.8,21.3.4,47-2.9,67.6-2.1l1-.4Z"/>
  <path fill="#f0fc9f" d="M262.4,344.4c.6-1.8,1.3-5.7,1.9-6.6,7.8-.6,16.7-.5,24.7-.8l51.4-1.5,27.1-1c5.4-.2,13-.7,18.3,0,7.3,1,20.5,6.3,24.3,13.1-3.5-2.1-7-5-10.3-6.5,3,3.1,4.7,4.4,6,8.5-16.5-12.8-25.6-11-45.8-10.3l-32.3,1.1c-10.3.3-20.7.6-31,.8-8.1.1-16.4.3-24.5.7-2.4.1-2.5.1-4.2,1.4l-.6-.3c-2.5-.3-2.3,0-4.9,1.3Z"/>
  <path fill="#f0fc9f" d="M450.8,123.5c7,6.3,19.7,15.6,29.4,14.9,10.1-.8,10.5-10.8,15.7-16.3,0,.9,0,2.2.7,3,5.3,5.9,9.9,9.8,12.4,17.6-2.2-1.2-4.4-10-12.8-15.1-3.1,5.6-6.2,12.6-12.8,14.3-7,1.8-13.4-.7-19.7-3.1-3,2.1-3.7,2.7-5.6,5.9-.7-.3-.8-.7-1.4-1.5h-1c-4.3,1.3-6.3,2.3-10.3,4.6l1.5-1.5c3.7-3.6,9.3-6.2,13.9-10.1-2.2-3.5-6.8-7.8-9.8-10.8l-.4-2Z"/>
  <path fill="#f2f6be" d="M216.2,292.8c1.1,2.5,2.2,4.9,3.1,7.5-3.7,6.6-6.2,11.6-7.5,19.2,0,.5,0,.4-.3.8-1.2-1.9.6-3,.2-6.4-1.2,3.6-1,4.3-3.6,7h-.6c-5.8-1-60.9,1.4-67.7,2.9-6.8,1.4-12.4,3.8-18.2,7.7-3.3,2.2-11.6,10.8-14.1,11.2,6-10.3,20.3-18.3,31.5-21.3,6-1.6,13.6-.9,19.8-1.3,16.7-.9,33.5-.8,50.2-1.1l.5-1.7c2.9-11,7.4-12.6,6.6-24.5Z"/>
  <path fill="#f0fc9f" d="M207.5,321h.6c2.6-2.8,2.4-3.5,3.6-7.1.4,3.4-1.4,4.5-.2,6.4,0,1.2-.2,4.8,0,5.8.7,4.7,4.9,13.5,7.8,16.9,3.8,4.6,15.5,5.6,21.2,6,1,0,3.6.9,4.5.9,7.9-.7,2.9-4.1,11.9-2-4.8.8-8,3.7-9.6,3.7-7.2.2-19.5-1.6-26.3-4.6-.9-.4-7-6.2-7.1-6.2-6.4,0-17.3,0-23.4,0,2.3-.4,19.4-.7,22.7-.8-3.5-6.2-7.6-11.7-5.6-18.9Z"/>
  <path fill="#dcfb72" d="M299.2,276c2.5,14.1,6,19.1,17.9,27.4,1.4,1,2.9,2,4.3,2.9-12.4-3.8-19.7-10.4-24.3-22.5-4.7,7.3-12.5,13.3-16.7,20l-1.1.4c2.9-9.8,15.1-15.1,19.9-28.3Z"/>
  <path fill="#dcfb72" d="M333.7,270.7c12.3,17.6,13.8,18.6,12.3,40l-1,.4v-.6c-1.4-6.6-1.1-14-3.3-20.2-2.4-6.9-6.1-12.2-8-19.5Z"/>
  <path fill="#f2f6be" d="M312.1,90.6c-1.7,2.2-4.7,4.4-6.8,6.3-4.3,3.7-6.5,6.7-9.6,11.3-1.1-1-1.2-1.7-1.7-3.1.6-1.2.5-.7.6-2.1-3.1-1.3-12,.3-16.1.2,5-1.6,12.6-1.7,18.9-3.1,4.2-4.2,9.2-7.5,14.7-9.6Z"/>
  <path fill="#f0fc9f" d="M481.2,194.8c0-1.4,1.1-6.9,1.4-8.7.7-4.9.4-9.4.8-14.3,2.7,7.7,2.9,14.4,1.7,22.5-.4.6-1.3,2.1-1.7,2.4-1.3.2-.7,0-2,1.3l.4-.9c-.8-.9-.5-.5-.5-2.3Z"/>
  <path fill="#dcfb72" d="M318.9,159.4c.7.2-17.7-10.8-17.5-10.5,3.3-.1,16.2,5.8,19.5,8.2v.8c1.4.9,3.5,1.6,4.6,2.8l-.6.8c-2.6,0-3.2-2.3-5.9-2.1Z"/>
  <path fill="#dcfb72" d="M451.1,125.4c-10.9-11-17.4-14.6-14.7-31.7,1.6,4.6.7,13.5,3.1,17.6,2.3,3.8,8.1,8.7,11.3,12.2l.4,2Z"/>
  <path fill="#f0fc9f" d="M422.6,76.3c0,2.3-5.9,19.4-7.2,22.8.2-3,.9-10,.2-12.5,1.4-2.6,5.2-7.6,7-10.2Z"/>
  <path fill="#dcfb72" d="M293.9,105.1c.5,1.4.6,2.1,1.7,3.1-4,6.4-6.2,11.2-9.1,18.1.9-6.9,3.4-15.5,7.4-21.2Z"/>
  <path fill="#f0fc9f" d="M245,122.6c1.9,0,5.2-3.9,7.2-5.6-1.8,3.2-8.6,13.9-11.3,15.6,0-.5,3.6-9.1,4-10.1Z"/>
  <path fill="#dcfb72" d="M473.1,253.2c-1.7,3.3-4.2,8.1-5.5,11.5l-.3.8c-.3-3,5-15.6,7.2-18.4,0,3.4,0,9.2-.8,12.2-.3-1.4-.5-4.6-.6-6.1Z"/>
  <path fill="#dcfb72" d="M344.3,169.1c3.4,1.8,12.8,6.6,15.4,8.9v.5c-1.5-.5-15.3-6.4-16.4-7.2l1-2.1Z"/>
  <path fill="#dcfb72" d="M363.2,91.8c1.9,0,3.3-.7,5.2-1.5l-1.3,2c.7,2.3,2.6,2.9,4.8,4.2,1.5,1.5,2.9,2.9,4.3,4.4l-.2.4c-1.4-.3-2.6-1.8-3.8-2.8-3-2.5-7.2-3.6-10.8-5.7l1.8-1.1Z"/>
  <path fill="#dcfb72" d="M343,164.1c4.3,0,8.7,0,13,0-5.2,1.3-8.3,1.9-13.5,2.8.4-1.2.3-1.6.4-2.9Z"/>
  <path fill="#dcfb72" d="M455.8,143h1c.6.9.7,1.3,1.4,1.6-.5,2-2.9,6.2-4,8.1.4-3.8.7-6,1.6-9.7Z"/>
  <path fill="#dcfb72" d="M429.9,189c.2-2,.3-4.5.7-6.4l.8-.3h-.8c0,0,.7-.5.7-.5.5,2.1-.1,6.9-.6,9.2l-.8-1.9Z"/>
  <path fill="#dcfb72" d="M232.2,147.7c1.4-.2,1.6-.1,3-.1-1.2,1.8-11.6,2.5-16.3,10-7.5,11.9.7,22.6,4.4,34.5,1.5,4.9,2.2,8.2,3.2,13h0c0,.1-.4.2-.4.2-1.5-5.2-5-13-7.7-17.7-10.5-18.3-10.6-35.2,13.8-39.9Z"/>
  <path fill="#f0fc9f" d="M335.6,93.8c7.3-.1,13.8,2.3,19.9,5.9-14.3-3-22-2.8-35.5,2.3-6.7,3.3-9.1,5.1-15,9.6,8.8-10.5,16.8-16.4,30.6-17.8Z"/>
  <path fill="#dcfb72" d="M390.5,125.6c4.7,2.2,26.1,23.6,31,28.6,1.8,1.8,4,5.6,4.9,8.1-1.7-1.1-4.2-5.3-6.2-6.9-3.3-2.7-6.8-5.1-10.2-7.6-7.3-5.3-15.4-14.2-19.4-22.1Z"/>
  <path fill="#dcfb72" d="M209.3,179.9c.2,5.1-.3,12.6-.1,17.1.3,8.5,2.7,34.4,5.5,41.2l-1.1.5c-6.4-20.6-10.3-37.2-4.4-58.8Z"/>
  <path fill="url(#fixed_id_1)" d="M298.9,156.8l.2.5c-11.5,10.6-20.3,14.2-36,14.3l-.8-.4c3.3-1.2,8.5-1.7,11.9-2.9,8.5-3.1,16.6-7.4,24.7-11.4Z"/>
  <path fill="#dcfb72" d="M417.8,276.3c-.2,1.6-1.4,1.8-1.9,2.8-4.6,9.3-4.1,22-17.6,23.9-.9.1-2.1.7-2.8.1,2-1.5,4.2-2.1,6.6-3,7.7-3.8,8.8-8.5,9.9-16.3-4-1.8-8.2-3.5-12.2-5.1,8.2.5,10.7,1.4,18.1-2.5Z"/>
  <path fill="#dcfb72" d="M443.8,162.8c5-3.9,9.9-5.1,15.7-7.8,5.4-2.5,8.9-4.7,13.5-8.3-6.2,11.4-16.8,12.6-27.9,17.7l-1.2-1.6Z"/>
  <path fill="#dcfb72" d="M364.1,111.7c6.3-.5,9.5,2.2,14,5.9-8-2.3-11.1-2.6-19.3-1.3-2.5.4-6.5,2-9.8,2.7l-.2-.3c4.6-3.1,9.8-5.7,15.2-6.9Z"/>
  <path fill="#dcfb72" d="M271.9,133c3.3-.3,5.6-.5,8.9.6-1.9,1-6.2,1.5-8.7,2.3-5.6,1.8-10.4,3.9-15.7,6.1l-8,4.1c8.1-7.1,13.3-10.5,23.6-13.2Z"/>
  <path fill="#dcfb72" d="M354.9,138.8c-7.1,7.2-15.7,10.5-25.7,10.5-1.8,0-3.7,0-5.5-.3l.6-1.5c11.5-1,20.3-3.5,30.7-8.8Z"/>
  <path fill="#dcfb72" d="M230.3,231.9c.4.3.8.6,1.1,1.1,7.4,11.3,8.9,20.8,8,33.6-1.2-10.6-6.1-24.4-9.2-34.7Z"/>
  <path fill="#dcfb72" d="M362.5,269.9c3.4,1.7,3.1,2.5,8.3,4.4,6.6,2.4,15,.5,20,2.2l-.2.4c-9.5,2.6-23.2,3.5-28.1-7Z"/>
  <path fill="#dcfb72" d="M430.1,128.6l1-.9c1.3,12.6,1.7,18.6,1.3,31.4-4.2-10.7-2.5-19.8-2.3-30.5Z"/>
  <path fill="#dcfb72" d="M336.9,242.7c2.6,3.5,4.3,10.8,7.5,15,2.1,2.7,6.2,9.3,7.3,12.5-7.6-3.5-14.6-19.7-14.8-27.5Z"/>
  <path fill="#dcfb72" d="M389.3,248.2c4.9-.4,8.6.2,13.4.9-6.3.8-11.5,1.6-17.7,2.8-4.1,1.1-8.4,1.2-12.6,1.4,5.5-2.2,11.1-3.9,16.9-5.1Z"/>
  <path fill="#dcfb72" d="M330,209c1.6.9,3.9,5.3,5.2,7.2,3.5,5.5,5.8,7.8,10.6,12.1-9.2-1.4-13.9-11.2-15.8-19.3Z"/>
  <path fill="#dcfb72" d="M413.3,251.9c9.8-.1,15.3,5.7,10.9,15.2l-.8.5c-.7-1.9-.7-6-.8-8.2-2.7-4.3-4.9-5.2-9.4-7.5Z"/>
  <path fill="#dcfb72" d="M323.1,220.7c1,1,2.4,3.1,3.7,4.4,6.1,6,7.2,6.8,9.8,14.8-1.6-1.1-2.4-3.8-3.9-5.2-5.6-5.4-8.5-5.7-9.5-14Z"/>
  <path fill="#dcfb72" d="M407.1,253.8c.8,7.5-3.9,17-10.3,21,0,.3,9.6-19.3,10.3-21Z"/>
  <path fill="#dcfb72" d="M386.7,134.3l.7.9c1.6,7.7-4.2,12.8-10.9,15.2-.4,0-.1,0-.6-.4,6.5-6.4,7.8-6.4,10.8-15.7Z"/>
  <path fill="#dcfb72" d="M493.5,140.4c8.6,3.9,10.3,7.4,10.5,16.8h-1.4c-1.9-8.1-3.7-10.7-9.2-16.8Z"/>
  <path fill="#dcfb72" d="M394.3,278c4,3.8-3.8,14.9-7,17.9l-.4-.3c2.4-6.4,7.1-11.6,7.3-17.6Z"/>
  <path fill="#dcfb72" d="M360,295.7c2.9,0,14.1,4.3,17,5.7-7.8,0-10.2-1.8-17-5.7Z"/>
  <path fill="#dcfb72" d="M318.2,232.9c4.3,3.2,6.2,7.5,7.4,12.5-3-1.9-6-9.1-7.4-12.5Z"/>
  <path fill="#dcfb72" d="M411.4,109.6v1.4c-2.2,3.7-7.2,8.9-10.9,10.8.3-1,9.5-10.6,10.9-12.2Z"/>
  <path fill="#dcfb72" d="M353.6,234.3c1.8,2.3,6.1,10.9,9.2,15.3-5.2-3.1-7.6-9.7-9.2-15.3Z"/>
  <path fill="#dcfb72" d="M243.2,326.2c1.9,1.4,5.1,13.1,6.1,16.2h-.7c-1.5-2.7-4.9-13.2-5.4-16.2Z"/>
  <path fill="#dcfb72" d="M448.7,279.1c1.2,4.4.8,12.4.8,17.2-1.7-5.2-1.3-11.8-.8-17.2Z"/>
  <path fill="#dcfb72" d="M314.3,147.6c3.4-.1,6.5-.1,10,0l-.6,1.5c-3.5-.3-6-.8-9.4-1.4Z"/>
  <path fill="#dcfb72" d="M476.3,157.7c1.6,1.6,3.4,6.1,3.9,8.4-2.4-2-3.7-5.3-3.9-8.4Z"/>
  <path fill="#dcfb72" d="M443.8,162.8l1.2,1.6c-.5.4-3.7,2.6-4.5,3.1,1-2,1.9-2.9,3.2-4.7Z"/>
  <path fill="#dcfb72" d="M221.7,333c1.7,1.7,2.8,4.7,3.7,7-2.2-2-3.3-4.1-3.7-7Z"/>
  <path fill="#dcfb72" d="M214.7,238.2c.7,2.7,1.3,5.3,1.9,8-1.2-2.6-2.2-4.8-3-7.5l1.1-.5Z"/>
  <path fill="#dcfb72" d="M502.6,157.2h1.4c0,2.2,0,2.6-.4,4.6-.8-1.4-.8-3-1-4.6Z"/>
  <path fill="#dcfb72" d="M430.1,128.6c0-1.8,0-2.1.5-3.8.7.9.4,1.6.5,3l-1,.9Z"/>
</svg>