<?xml version="1.0" encoding="UTF-8"?>
<svg id="_레이어_1" data-name="레이어_1" xmlns="http://www.w3.org/2000/svg" version="1.1" xmlns:xlink="http://www.w3.org/1999/xlink" viewBox="0 0 1024 1024">
  <!-- Generator: Adobe Illustrator 29.3.1, SVG Export Plug-In . SVG Version: 2.1.0 Build 151)  -->
  <defs>
    <style>
      .st0 {
        fill: #a0c903;
      }

      .st1, .st2 {
        fill: #a9ba47;
      }

      .st2 {
        fill-opacity: 1;
      }
    </style>
  </defs>
  <path class="st0" d="M363.2,0c13.3-.3,21.8,3.9,33.9,8.2,20.8,7.3,43.3,6.6,53.9,29,7.2,15,6.5,32.5,5.4,48.6,0,.8-10.3,3.4-11.9,4.2-4.6,2.3-6.6,8-8.6,12.3-12.5-6.3-20.8-12.3-31.8-.3-.7,3.8-1.6,6.9.5,10.4,3.8,6.3,22.8,10.3,30.2,11.7,1.2-11.1,3-24.1,14.9-28.8,1.8-.7,4.4-.2,5.5.9,4.4,4.2,9.5-2.4,14.6-2.2,8.6,4.1,7.9,2.9,17,.1,4.1-1.3,7.3,4.7,9.3,6.5,3.6,1.6,10.7-1.8,13.7,1.7,6.5,7.6-3.7,20.4-5.9,28.6-1.2,4.4-3,9.6-4.1,14.5-1.4,6-1.3,15.1-5.9,19.5-6,5.7-15.2,5.6-21.7,10.8-6.4,5.1-6.8,15.1-9.2,22.3-3.5,15.1-10.4,35.8-8.8,51,1.7,16.3,6.4,31.5,4.9,48.5-.9,9.9-3.1,21.5-11.2,28.4-3,.5-9.8,1.4-11.6,3.2,1.6.9,11.3,2.3,13.7,2.7,22.4,4,36.8,17,42,38.7,1.2,5,2.2,12.1,4,17l1.2.5h-.4c2.8-3.2-.5-10.9,3-14.3,24.1-3.1,53.7,11.1,59.6,35.4,4.5,1.2,10.2,4.2,14.7,6.1,9.9-3,16.9-8.7,24.2-15.6-13.9-23.5-9.9-26.2,6.6-44.5,7.9-8.7,8.6-17.1,22.8-22.2,1.2-.5,5.6-7.4,7.3-8.6,6.4-3.2,24.7-11.1,31.3-12.2,39.4-6.1,70.7,36.1,67.3,68.9-1.6,15.4-9.5,29.6-21.8,39.3-9.6,7.4-17.9,8.4-29.2,11.9-10.6,3.3-28,9.6-39.3,5.8-12.3-4.2-24.3-11.2-38-12-3.6-.2-13.8-1-16.5,1.2,2.8,2.4,25.2,5.3,31.1,7.5,17.7,6,26.2,11.1,45.9,9.7,9.8-.7,36.8,6.2,42.3,16,1.1,1.9-17.9,14.7-20.3,17.4-1.5,1.7-3.9,4.5-5.7,7,7.4-4.1,14.4-10.2,22.6-14.5,14.2-7.4,32.1-12,47.9-6.9,10,3.2,13.9,5.1,18.6,13.9l1.1.3c1.2-26.4,2-33.8,15.3-57.2,3.6-6.4,8.2-12.7,11-19.5,5.7-13.9,14.9-65.9,10.3-78.9-3.8-10.5-12-18.9-16.4-29.1-4.3-9.9-2-16.6.3-26.5.7-3,1.2-6.7,2.5-9.5,2.3-4.9,7.8-3.6,12.1-5.1,7-2.5,8-13.9,15.6-15.5,5.3-1.1,10.4,3.2,14.5,5.9,3.9,0,6.9.7,10.7,1.4,11,9.3,14.8,3.5,21.9,16.9-16.4,23.1-28.5,44.1-32.2,72.8-2,15.9-1.4,36.4,8.2,50.1,3.4,4.9,8.7,9.1,12.7,14.1l.5.7c1.9,31.4,6,65.4-6.6,95-5.8,13.5-14.2,25.3-17,40.7-1,2.4-5.5,7.3-7.9,7.9-22.9,5.5-43.6,12.4-65.4,20.5-29.3,10.8-56.8,3.5-83.7-9.9-23.1,26.1-59.5,37.6-93.6,39.8-8.9.6-21.2.6-29.2,3-6.1,1.9-14.8,10.6-20.1,14.9-5,4-13.3,8.1-16.9,12-6.5,7.1-5,23.8-7.1,33.5-1.8,8.1-2.1,11.6-6.1,19.3-4.3,8.1-9.9,15.4-16.8,21.5-6.2,5.5-14.5,8.7-21.3,13.1-10.1,6.5-19.5,16.1-31.4,19.7-16.7,5-14.3-14.3-20.3-17.5-7.3,8.5,10.2,29.1,14.5,36.5,3.3,5.8,6.1,11.9,8.3,18.2,12.1,34.9-11.1,106.2-8.5,145,.6,9.3,7,15,7.9,21.1,1.9,12.8,4,22.5,7.3,35,.6,17.7-5.8,12.1-15,22.2-8.7,10.3-19.8,25-34.1,27.8-52.4,10.4-87.6-.9-38.2-49.4,10.2-10.1,21.3-39.5,23.7-53.4,7.3-41.2-25-75.1-37.2-111.8-5.9-18.1-2.3-38.5-4.3-57-1.3-10.1-11.6-22.8-14.4-34.6-4.1-17.4-3.5-34.3,5.8-50,2.7-4.5,6-8.5,9.8-12.1,4.7-4.3,10.7-7.6,15.4-11.5,20.1-17.2,32.4-24.5,58.5-31-.7,0-1.4-.1-2.1-.1-15.1-.9-30.2,2.7-43.1,10.5-4.7,2.8-9.6,7.1-14.1,9.5-17.3,9.4-33.3,21.7-40.7,40.3-2.9,7.3-3,15.5-3.4,23.5-25.2,6.2-53,5.4-78.2.6-10.7-2-32.9-9.7-42.6-7-5,4.4.2,18.4,1.3,24.8,1,5.6,1.6,11.3,1.9,17,1.3,29.9-14,41.2-26.5,64.4-6.8,12.7-13.7,42.8-15.2,56.7-2.2,19.8,15.9,41.6,9.1,64l-.3,1c-18.9,16.7-53.6,3-77.3,12.4-6.2,2.4-24.5,4.8-31.1,5.2-54.9,3.3-73-22.7-9.7-39.1,11.3-3,48.9-31.7,54.3-44.2,7.1-24.6,3.6-54.3,3.6-79.7,0-31.1-2.2-58.2,5.5-88.7,2.3-9.2-2.7-27.6,2.4-39.6,3.7-9,1.7-15.8,11.9-23.2,6.9-7.5,18.4-9.3,26.5-14.4,46.8-29.1,98.1-40.3,153.2-37.4,17.2.9,38.8,3.7,55.5-1.8,5.4-1.2,30.9-17.4,32.5-21.8,3.9-10.8,22.2-21.6,25.4-27.5,8.9-16.7,9.2-27.5,23.5-42.2,18.1-18.4,29.9-7.1,50.8-14.7-7.5-2.8-20.5-3.9-26-7.2-1.9-3.2-1.6-9.4-1-12.8,2.7-15.1,23-27.3,35.4-35.5-25.2,3.2-47.3,22.8-48.3,48.3-28.5-6.2-51.1-31.7-58.8-58.6-1.2-4.1-1.9-10-3.6-13.7-4.8-10.1-14.9-17.5-18.2-28.3-2.1-7.2,2.6-15.6,2.8-23.7.3-14-1.5-30.4,1.5-44.1,5.1-23.2,19-42.6,30.8-62.7,5.2-9.1,10.1-18.5,14.5-28,8-17.1,9.2-22.9,8.7-41.6,0-1.7,4.7-8.9,5.3-13-14.5-5.9-10.9,32.2-18,39.5-8,8.2-26.6,16.5-38,12.9-19.8-6.3-38.7-14.6-58.6-20.8-13.3-4.1-23-27.6-23.6-40.6-1.8-35,8.9-75.3,31.8-102.7C335.4,10.4,346.6,1.5,363.2,0ZM323,152.1l1.3,1.4c.8-1.1.3-3.2,0-4.6-10.7-42.3,6.3-92.3,35.4-124.2,2.9-3.2,12.9-9.1,13-12.2-41.6,12.5-66.4,91.1-54.3,128.6,1.1,3.3,3.2,7.8,4.8,11ZM350.8,163.1c2.2-2.9-1.8-14-2.1-19-2.9-42,14.1-85.9,44.9-115.4,2.7-2.6,6-3.5,8.4-6.6l-.5-.7h-1.3c-2.7,1.4-5.6,2.9-8.2,4.6-39.2,25.5-60.9,95.7-41.1,137.2ZM139.1,710c-10.9,22-15.2,42.2-.3,63.5l1.8,1.4c-.2-4.9-1.1-12.1-2.3-16.8-3.7-15.3,0-30.1,1.8-45.3.1-1.1-.5-2-1-2.8ZM418,326.7c8.8-8.5,15.4-13.5,15-26.6,0-3.2.7-10.7-1.4-12.8-4.5,6-5.3,14.3-7.8,21.4-1.8,5.1-5.8,12-6.7,17.1l.5,1.1.3-.2ZM646.5,487.5c2.5-2.6,5.2-5.2,7.9-7.6-31.3,12.3-58.8,23.9-92.6,10.1-8.9-3.6-24.4-12.8-32.4-15.2,8,12.8,31.8,27.8,46.4,31.2,15.8,3.7,41.9,1.7,56-7.2,5.3-3.3,10.1-7.1,14.7-11.3ZM694.3,506.2c4,3.9,4.4,4.5,9.2,7.4,14.1,8.4,34.8,8.4,48-1.1,3.3-2.4,6.7-3.5,8.4-7.5l-.5-1.1c-1,0-2-.2-2.9-.2-7,3.6-14.1,7.1-22.2,7.1-12.9-.1-27.4-2.3-40-4.5ZM497.8,483.9c6.9,10.1,13.6,18.2,16.6,30.4,1.2,4.9,1,13.6,4.4,17.2l.4-1.2c1.2-8,2.6-16.1.3-24-3.3-11.2-9.4-20.1-21.7-22.3ZM575.4,556.2c2.9,0,8.8.3,11.4-.5l6.4-4.7c-8-.7-14.9-1.2-22.9-1.4l-2.8.3-.4.9c1.9,2.2,5.6,3.9,8.3,5.3ZM600.4,537.5l.4-1.1c-2.5-1.8-6.3-2.6-9.4-3-7.5-1.2-16.5-9.3-23.5-9.6,6.7,13.6,17.6,19.8,32.5,13.7ZM356.9,771.6c-1,16,4.2,36.5,12.2,51.1.2.4.8.8,1.2,1,.9-11.6-1.3-21.8-4.8-32.9-1.6-4.9-4.9-15.8-8.6-19.2ZM471.5,492.5c-7.2,3.6-9.6,7.3-14.5,13.3-6.3.2-11.2,0-17.5,1.2l-.7.8c3.9,2.7,9.1,2.6,13.9,3.6-3.1,5.1-5.8,8-8.9,12.5-1.3,4-1.8,6.2-2.7,10.2,11.4-12.6,10.2-18.9,28.9-18.6-1.2-2.3-2.5-4.7-3.7-7,1.5-6.9,3.3-8.9,5.8-15.2l-.6-.8ZM516.5,465c10.3-24.7,18-24.7,41.3-34.8v-1.1c-2-1.5-5.4-1.2-7.8-.7-16.7,1-29.4,13.9-40.2,25.4,1.7,2.6,5.8,11.9,6.5,12.1l.3-1ZM419.5,356.5c-.5,11.3,3.6,22.4,11.4,30.8,5.2,5.6,15.6,12.8,23.5,12-1.9-5.4-14.5-15.2-19-20.9-4.6-5.8-10.7-18.8-15.9-21.9Z"/>
  <path class="st0" d="M680.5,568.2c2.6,0,17.3,5.6,21.6,6.8,7.5,2,15.2,3.5,23,4.2l-39,29.3c-13,9.8-27.6,21.2-41.5,29.6,13,36.8,33.8,81,49.1,117.4,8.8,21.1,17.8,42.1,27.1,63,3.5,8.2,7.9,20.4,11.9,27.6,17,3.6,38.6,14.3,55.8,20,18.5,6.1,37.5,9.7,56,15.3,11.2,3.4,32,6.2,40.2,12.2,7.2,5.2,5.8,23.6,6.1,33.1-8.5,3.7-22.8,7.2-32.3,6.1-19.3-2.4-15.4-8-28.6-14.3-2.5-1.2-20.2-5.7-24-6.7-14.5-3.7-28.9-7.6-43.3-11.8-18.4-3.8-37.1-10.5-55.4-14.7-2.8-.6-8.7,1.6-11.8,1.5-9.1-.2-18.3-3.9-26.8-6.8-1.3-7.7,0-14.2-.5-22-5.5-1.8-11.5-3-17-4.8-58.2-19.2-115.4-41.2-173.7-60.5-6.8-2.3-15.5-5.2-21.9-8.3-1.4-4.5-2.5-12.8-3.7-17.7-2.5-10.3-6.1-16.5-11.1-25.6,5.3-3.1,15.7-8.3,20.1-11.7,11.4-8.6,26.3-15.5,37.1-24.1,22.8-18.2,26.8-47.6,29.3-74.4,3.1-2.5,31.1-23.2,32.8-23.9,8.8-3.6,22.1-2.7,31.7-3.6,14.6-1.4,29.4-3.7,43.2-8.5,10-3.5,20.7-8.2,29.2-14.5,5.2-3.8,10-8.3,15.6-11.6.2-.1.4-.2.6-.4ZM485.2,736.5c-.4,6.7-.7,12.2-.4,18.9,8.4,5.5,43.6,17.4,55.1,21.6,14.6,5.3,37.3,14.5,52,18.6,12.1,5.1,24.9,9,37.2,13.6,21.1,7.8,41.9,15.7,63.6,21.9-8.9-24.7-22.3-53.2-32.5-77.5-9-22-18.3-43.8-27.8-65.6-2.5-5.8-9.9-25.8-13.7-29.5-7.4,3.9-25.3,17.9-32.7,23.3l-50.3,37.1c-16.8,12.7-28.3,27.2-50.4,17.6Z"/>
  <path class="st0" d="M934.7,230.4c15.3-2.8,34.6,13.3,47,20.1,8,4.4,18.3,8.4,25.6,13.9,18.2,14.1,18.3,41.4,15.4,61.8-3.7,21.4-15.5,45.7-29.6,62.4-14.1,16.7-34,32.4-56.9,34.6-25.9,3.2-34.2-13.4-53.2-22.9-29.4-14.6-42.7-31.6-37.5-65.9,6.6-42.9,40.2-99.6,89.2-104.1ZM897.8,386.3c.2-7.8.3-17.8,2.1-25.7,6.4-28.2,21.1-54.7,41.4-75.7,6.1-6.3,16.9-13.1,24.8-17.1,4.2-2.1,13.9-4.7,16-6.6-1.2-1.4-3.6-1.1-5.4-1-5.5,1.4-12.9,3.1-17.8,5.7-40.1,20.6-72.5,76.5-62,120.9.3,1.3.1.9.8,1.8v-2.4ZM872.6,372.4c-.2-5.8-.7-14.2.2-19.7,6-37.7,27.8-78.6,62.4-98.3,3.1-1.8,13.1-6.1,14.9-8.1-1.8-.4-.9-.4-2.6,0-49,10.6-88.2,76.7-76.7,124.5.2,1,.3.8,1,1.8l.7-.2ZM953.9,354c2.6,5,3.4,7.8,8.9,9.9,20.3-4.4,26.1-33.1,10.5-35.9-13,4.9-17.8,12.5-19.4,26Z"/>
  <path class="st0" d="M571,62.8c10.8-.5,14.3,0,24.1,4.5,10.2,4.6,22.3,8.4,33.3,11,13.6,3.3,23.1,6.5,30,19.5,24.3,43.2-9,140.6-58.3,154.4-17.3,3.4-30.1-6.3-45.7-11.4-25.2-8.2-40.5-8.5-47.8-37.1-7.8-30.6,0-57.9,11.4-86.5,9.6-23.6,26.5-48.1,53-54.5ZM538.5,224.8h1.1c0-7.9-4.9-17.6-4.7-28.8.4-36.9,12.7-75.8,37.1-104.4,2.4-2.7,14.6-12.6,17.8-15l-.8-.6c-46.4,16.5-71.1,97.7-54.6,141,1.2,3,2.2,5.1,4.1,7.8ZM566.6,172.4c.4-12.2,17.3-47.9,25.2-59.4,4.1-5.9,8.8-11.3,14.1-16.1,3.5-3.2,13.6-10.1,15.1-12.7-2-.6-6.3,1.5-8.3,2.6-23.7,13.2-37.9,37.1-46.2,61.6-6.4,19.1-15.8,64.2-1.4,81,.1-4.3-.9-11.9-1.1-16.5-.4-8.7-.7-32.7,2.7-40.5ZM620,188.4c13.5-8.4,21.9-37,4.1-36.2-7.7,5.5-10.3,10.6-12.2,19.8-1.2,5.7,0,16.7,8,16.4Z"/>
  <path class="st0" d="M764,137.9c2.9.1,6.8.2,9.7.5,15.2,1.6,28.9,13.5,41.5,21,10.7,6.5,20.6,9.4,28.7,19.5,13.2,16.2,12.7,38,10.5,57.3-29.6-2.7-21.6-19.2-50.5,5.1l-1.6-.9c-12-6.4-15.6-2.4-21.8,8.7,6,10.1,5.6,13.7,2.5,25.3-4.1,15.4,5.5,28.7,13.9,41.4-1.6,1.3-3.7,2.8-5.5,4.1-8.2,4.2-14.2,6.4-23.4,7-21.3,1.4-32-9.2-48-19.9-9.1-5.4-18.5-10.1-26.5-17.1-34.7-30-14.4-92.8,12.3-121.5,15.7-16.9,34.3-29.4,58.2-30.6ZM697.6,276.8c-5-47.7,19.2-95.6,61.9-119.5,2.6-1.5,8.4-3.3,10.1-5.4-1.9-.7-3-.4-5-.1-30.2,11.1-48,30.1-61.1,58.7-8.1,17.4-11.1,36.7-8.8,55.7.5,4.1.9,8.8,2.7,12.5.5-1.2.4-.6.2-1.9ZM718.3,289l.6-1.2c-3-33.1,7.8-66,29.8-91.3,9.8-11.3,20.9-19.5,34.5-26.5,2.7-1.4,17-5,16.9-6.7-42.4,2.6-77.3,49.2-83.7,87.7-1.9,11.4-1.3,26.9,1.9,38.1Z"/>
  <path class="st0" d="M307.3,704.2c1.9.1,1.9.1,3.7.8,1.2,1.3,5.1,17.6,6.8,21.4,2.6,5.8,7.2,12.4,8.6,18.6.9,4,3.2,53.8,2.5,56.1-2.1,7-10.2,11.2-13.4,17.8-5.7,11.9-33.8,94.7-33.5,104.6,0,.1.1,1.7.3,2,4,6.2,37,8.1,43.7,16.2,3.4,4.2,2.4,20.1,1.9,25.8-.1,1.8-.4,3.2-1.9,4.3-4.3,3.1-23.4,5.8-29.1,5.8-2.6,0-5.2-.4-7.8-.8-1.4-2.6-4-8.1-7.1-9.1-22.7-7.2-45.3-14.6-67.9-21.8-4.4-1.4-9.1-1.2-13.7-1.1-4.9-1.1-17.4-3.3-20.4-6.7-2.4-6.2-2.9-19.5-1-25.7,4.2-14.1,28.9-10.5,39.1-5.8,2.8,1.3,14.7,4.2,17.1,3,1.3-4.3,3.1-7.9,4.4-12l14.5-46.7c7.2-22.5,13-45.2,27.5-64.5,3.3-4.3,15.3-16.6,16.9-20.3-6-7-52.5-14.8-63.8-21.7-10.6-6.4-7.8-36.8,1.8-36.8,24.6,0,46.4,1.5,70.8-3.4Z"/>
  <path class="st0" d="M746.1,382.5c7.4.7,36.1,5.7,42.1,8.5.5,1.4.6,2.8-.1,4.1-11.4,22-20.1,36.1-24.8,61-6.4-1.8-11.7-3.1-18.2-4.5-8.8-.6-17.1,0-25.9.5-5-2.5-14.2-8.9-19.3-12.2,4.2-1.9,8.4-4.1,12.4-6.3,12.8-7.3,24.5-20.4,29.3-34.1,1.9-5.3,3-11.4,4.5-17Z"/>
  <path class="st0" d="M913.2,511.2c3.6,10.3-4.2,40.3-8.4,50.9-17.5,43.2-51.9,80.5-92.9,103.8-19.1,10.8-34.2,15.2-53.6,23.6l-.5-.7c10.2-5.4,19.2-11.6,28.8-17.9,44.3-29,84.9-68.7,109.1-115.5,4.7-9.1,8.7-18.5,12-28.2,1.7-5,3.2-11.4,5.5-16Z"/>
  <path class="st0" d="M893.5,457.4c3.7,49.1-7.6,88.9-40.5,127.1-10.3,11.9-28.9,26.1-43.3,33.3l-1-3.5c7.8-7.9,18.9-18.5,26-26.4,27-30.3,44-66.8,53.7-105.6,2.1-8.4,3.2-16.6,5.1-24.9Z"/>
  <path class="st0" d="M306.3,423.1c-23.8-42.5-25-99.4-9.5-144.3,1.5-4.4,10.7-28.1,13-29.5.3,3-5.4,27.8-6.5,33.2-1.6,8.5-2.9,17-3.8,25.6-2.1,21.7.9,54.5,4.1,76.4,1.1,7.8,6.4,22.4,8.1,32.3l-1-.4c-.6-2-2.2-2.7-3.9-3.9h-1.3c-3.7,3.5,1.7,4.5,1,10.6Z"/>
  <path class="st0" d="M352.4,223.6c.7,1.1.6,1.7,0,3.2-20.3,48.3-30.1,100.3-19.2,152.1,1,5,4.5,21.9,4.2,23.5-1.6-1.1-1.3-1.6-2.1-3.8-19.8-53.2-24.9-95.2,1.4-148.1,4.7-9.5,10.5-17.9,15.8-26.9Z"/>
  <path class="st1" d="M306.3,423.1c.7-6.1-4.7-7.1-1-10.8h1.3c1.7,1.3,3.3,2,3.9,4l1,.4c5.8,13.2,10.6,31.7,18.2,43.8-8.1-5.9-20-28-23.4-37.5Z"/>
  <path class="st2" d="M808.7,614.3l1,3.5c-2.9,1.8-5.7,3.6-8.7,5.3l-1.1-.5-.4.4.3.7h-.8c1.4-2.4,7.3-7.2,9.7-9.4Z"/>
</svg>