<?xml version="1.0" encoding="UTF-8"?>
<svg id="_레이어_1" data-name="레이어_1" xmlns="http://www.w3.org/2000/svg" version="1.1" xmlns:xlink="http://www.w3.org/1999/xlink" viewBox="0 0 1584 1456.7">
  <!-- Generator: Adobe Illustrator 29.3.1, SVG Export Plug-In . SVG Version: 2.1.0 Build 151)  -->
  <defs>
    <style>
      .st0 {
        fill: #c0eb5b;
      }

      .st1 {
        fill: #e1fa8e;
      }

      .st2 {
        fill: #effcb3;
      }

      .st3 {
        fill: #8bcf07;
      }
    </style>
  </defs>
  <path class="st3" d="M719.4,68.8c7.4-8.6,5.5-11.7,9.6-20.6,2.6-5.7,20.4-20.6,25.8-21.6,3.1,1.7,6.5,3.6,9.3,1.5,16.4-11.8,27.8-12,45.7-3.3,2.6,1.3,13.3,8.5,15.1,7.8l.7-4.9c2.1-.4,3.3.3,5.3,2.5,17.1,18.6,27.6,39,30.4,66.6.9,9.1-.5,20.8,1.5,28.1l2.8,1.9c36.7-1.4,49.9,6.2,50.6,51.5.6,41.1-1.4,84.9.3,125.7l3.2,4.2c6.8-3.9,17.9-5.4,25.7-6.5,28-3.9,59.2,4.9,81.4,25.9,5.3,5,10.4,10.9,16.3,14.6,18.8-3.6,53-10.6,70.9-3.1,12.2,2.7,33,19,33.9,18.9,8-1.1,54.6-24.2,63.6-27.2,25-8.3,48.5-1.2,71.2-3.1,19.2-1.7,56.5-19,75-27.5,1.6-1.6,8-4.7,10-7,7.8-8.9,9.4-35.4,10.6-47.8-38.4,9.2-41.7,34.2-62.6-30.6-4-12.3,4.9-15.1,8.4-25-1.3-4.6-3.9-13-2.2-17.7,6.7-18.3,35.6-35,50.4-44.7,11.6-7.5,41.5-23.1,54.7-17.7,3.6,1.5,5.2,7.8,6.5,11.9,12,0,19.9-3.1,26.3,10.4,18.4,33.8,21.7,45.5-8.2,67.9-7.8,5.8-15.7,11.5-23.6,17,8,12.3,22.9-.9,27,10,4.8,12.9-3,11.5,12.7,22.3,2.6,4.8,1.3,10,.4,15.4,13.5,20.1,3.7,14.6,6.9,32.4,11.2,11.5-6.7,18.8-.9,28.4,11.4,7.1,49.5-29,63.2-19.4,6.6,4.6,28.1,42.3,22.1,53.5-2.3,3.5-7.2,6.4-9.1,12.4.4,4.8,1.7,7.6,3.2,12-10.2,25.3-66.9,58.5-89.6,68-14.7,6.2-20.3,5.8-27.4-10.5-3.4,1.1-13.6,5.1-16.4,2.8-7.1-6-24.9-45.8-19.2-54.2,10.5-15.7,30.5-29.2,44.6-40.2,1.4-1.1,1.2-5.2,1.1-6.8-1-1.6-1.2-2.8-2.5-2.9-6.4,0-13.2,5.8-19.3,7.2-8.2,2-19.4-.7-27.2,3-49.9,23.2-87.7,71.3-137.5,94.6-13.7,6.4-24.9,10.8-39.7,9.5-5.7-.3-14.7-.5-20.1.8-8.9,2.3-17.9,9.8-27.2,9.9-10.4.1-23.1-4.3-33.5-2.6-13.7,2.3-29.2,11.9-42.5,17-31.1,12.2-64.9,9.6-95.4-4.1-4.5-2-13.7-5.6-17.6-8.5-2.5-.5-2.7-.8-5,.1,1.3,25.6-26.9,82.6-42.2,100.7-2.4,2.8-7.4,9.4-9.3,12.1-2.4,3.5-4.1,5.6-6.8,8.7l-.2,1.9c-3,22.7-5.5,20-.2,44.3,2.5,11.4-1.6,37.9-3.6,50.2-8.3-2.6-27.2-4.5-36.6-5.6-59.2-6.8-118.7-7.2-178-1.1-13.2,1.4-29.8,3.1-42.7,6.3-1.1-9.1-4.8-23.1-4.7-31.6.3-25.8,8.6-34.6,1.4-60.8-1.9-3.4-5-7.6-7.3-10.9-24.1-26-47.8-74-51.9-112.5l-3.2-4.2c-26.8,14-46.6,27.4-77.5,24-13.5-1.6-26.7-5.1-39.5-10.4-12.5-5.3-22.6-11.5-36-14.4-14.5-3.2-24.7,2.3-38.9,1.9-7.7-.2-18.5-8.9-24.6-9.7-15.9-2.3-27.6-1.4-43.9-5.4-9-2.1-17.8-5.3-26.2-9.5-24-12.2-43.7-32.1-65.6-48.4-15.6-11.8-31.8-23.9-47.8-34.8-15.3-10.4-24.6-7.9-41.1-9.3-4.9-.4-17.8-12.7-21.3-3.3,2.2,7.5,39.8,31.6,46.3,47.7,1.3,3.1.9,6,0,9.1-1.5,5.2-15.9,34.9-18.9,39.1-1.2,1.7-2.7,3.1-4.7,3.4-4.5.6-9.3-4.1-13.6-1.2-4.2,2.8-4.4,10.3-9.6,12.5-7.1,2.9-20.6-4.9-27.1-8.1-17.6-8.8-72.1-40.4-78.2-60.6-1-3.4-.8-5.8.6-8.9.1-.3,1.1-2.3,1.2-2.6,3.2-9.5-7.5-12.2-9.8-19.9-1.6-5.3.6-10.2,2.5-14.9,3.2-7.8,13.7-33.3,20.9-35.8,8.6-3,27.8,6.4,35.4,11.9.3.2.7.5,1,.7l1.1.4c7.2,3,16.2,10.4,22.2,9.2,2-1.5,2.7-2,4.5-3.8-1.6-7.3-7.1-12.4-6.8-15.7,1.8-20.4,7-40.9,12.2-60.2,1.3-4.8,10.5-.5,10.6-17.9v-1c2.3-5.3,8-6.8,12.7-8.7,5,1.4,7.3,2.8,11.6.2.8-11-41.7-32.6-44.3-46.5-1.8-10,16.6-42.4,21.5-50,8.6-3.9,8.7-3,17.7-.6,2.3-3.6,6.6-11.8,9.6-13,7.6-3.1,27.5,1.4,35,5.3,22.4,11.5,59,33.5,71.2,58.9,2,4.1-1.2,10.7-2.8,15,3.7,5.5,11.3,14.4,9.2,22-3,11.1-14.3,41.1-22.4,46.6-5.7,3.9-29-8.2-37-10.7l-1.4-.4c-3.5,2.3-2.3.7-4,4.7.2,5.4,7.4,38.1,11.6,41.4,13.1,10,74.2,34.7,87.3,35.2,33.4,1.2,57.4-8.5,89.8,12.7,9.4,4,29.4,12.3,37.3,18.8l1.2.6c4.8,0,18.4-12.9,25.4-16,6.4-2.9,7-3.3,14.2-5.3,22.3-9,48.1,2,68.7,6.7l4.2-5.2c4.2-5.9,7.7-9.4,13-13.6,36.3-28.6,64.2-25,104.8-22.8l4.1-5c1-7.6.7-22.5.7-30.7v-67c0-24.6-3.5-61.1,19.7-71.6,8.1-3.7,21.8-4.2,30.6-5l3.8-2.9c-1.6-12.7,2.9-40,5.2-52.6Z"/>
  <path class="st3" d="M719.4,68.8c7.4-8.6,5.5-11.7,9.6-20.6,2.6-5.7,20.4-20.6,25.8-21.6,3.1,1.7,6.5,3.6,9.3,1.5,16.4-11.8,27.8-12,45.7-3.3,2.6,1.3,13.3,8.5,15.1,7.8l.7-4.9c2.1-.4,3.3.3,5.3,2.5,17.1,18.6,27.6,39,30.4,66.6.9,9.1-.5,20.8,1.5,28.1l2.8,1.9c36.7-1.4,49.9,6.2,50.6,51.5.6,41.1-1.4,84.9.3,125.7l3.2,4.2,1.1.7c-12.7,7.8-22.6,11.7-32.8,24.6,5.8,2.2,16.1,5.3,20.4,9.4l-.6.6c-37.4-5.3-66.8-5.2-101.9,12.8-7.5,6.1-7.1,6.9-12.4,15.2l-1.4-1.9c-1.9.7-2.4,1.1-4.1,2.2-1.6-.8-3-1.9-4.5-3.1l-1,1.3c-1-2.8-6.5-9.2-8.8-11.3.8-2.7-9.6-13.7-11.8-14.1-13.4-2.5-10.2-18.3-15.2-28.7-1.7-3.4-1.7-4.2-2.3-8.2h-1c-2,6.5,4.7,23.5,0,27.4-7-.6-47.2-1.5-50.4-3.6-3.1-4.1-10.9-12.3-11.8-15.1-6.6,2-6.7,2.4-13.5.5-5.5-6-15.6-7.4-17.9-10.7l.4-1.1,5.2-1.4,4.1-5c1-7.6.7-22.5.7-30.7v-67c0-24.6-3.5-61.1,19.7-71.6,8.1-3.7,21.8-4.2,30.6-5l3.8-2.9c-1.6-12.7,2.9-40,5.2-52.6Z"/>
  <path class="st2" d="M714.2,121.4l1.2.8c.6,4.2,3.6,31.3,3.4,34.2-4.1,3.1-6.3-4.1-8.8,6.4-2.5,10.7,4.9,34.9,8.4,45.4,5,2.5,8.5,3.7,10.3,10.2,4.5,16.3,5.1,28.6,15.9,41.8,4.4,5.4,12.9,13.1,16.1,19-6.8-3.7-18-16.4-23.4-15.9-4.7,8.5.4,30,3.4,38.8l1,.4.9-3.5h1.4c7.5,13.1,4,43.6,20,40.1,6.9-7.4-6.2-23.3-7.2-31.8-.2-1.5,3.6-7.3,2.5-9-.6-.5-.3-1.4,0-2.5l-.3.7h1.5c6.7,5.2,26.4,45.3,22.3,54.7-3.4,1.7-4,1.2-5.5,4.2,1.7,6.5,16.1,16.4,19.4,1.3l1-4.4,1.1-1.2,2.7,1c6.1-5.6,4.5-12,14.5-13.6,15.1-2.4,6.7-26.6,15.4-33.4l.7-3.6c2.5-.5,2.9.9,5.8,3.2,2.6,5.7-.5,14.6-5.1,17.6-.2,4.5-.6,8.8-.9,13.3,22.9-2.5,29.6-3.6,52.7-1.8,2.7-5.9,6.1-11.2,9.5-16.6-2-4.9-39.6-27.6-43.1-27-2.7,4.8.3,16,.7,23.2-10.7-6.8-8.1-48.7-8-61.3-3.9,4.8-25.5,31.1-30.1,29.1,2.3-4.6,8.3-9.5,11.6-13.5,15.3-18.6,19.5-28.5,22.7-53.4,2.6-1.5,9.3-4.5,10.5-7.9,3.9-10.8,10.2-31.7,8.5-43.5-.5-3.7-6.3-5.7-9.2-6.8-.4-5.4,2.3-25.2,3.5-31l1.5-.4,2.8,1.9c36.7-1.4,49.9,6.2,50.6,51.5.6,41.1-1.4,84.9.3,125.7l3.2,4.2,1.1.7c-12.7,7.8-22.6,11.7-32.8,24.6,5.8,2.2,16.1,5.3,20.4,9.4l-.6.6c-37.4-5.3-66.8-5.2-101.9,12.8-7.5,6.1-7.1,6.9-12.4,15.2l-1.4-1.9c-1.9.7-2.4,1.1-4.1,2.2-1.6-.8-3-1.9-4.5-3.1l-1,1.3c-1-2.8-6.5-9.2-8.8-11.3.8-2.7-9.6-13.7-11.8-14.1-13.4-2.5-10.2-18.3-15.2-28.7-1.7-3.4-1.7-4.2-2.3-8.2h-1c-2,6.5,4.7,23.5,0,27.4-7-.6-47.2-1.5-50.4-3.6-3.1-4.1-10.9-12.3-11.8-15.1-6.6,2-6.7,2.4-13.5.5-5.5-6-15.6-7.4-17.9-10.7l.4-1.1,5.2-1.4,4.1-5c1-7.6.7-22.5.7-30.7v-67c0-24.6-3.5-61.1,19.7-71.6,8.1-3.7,21.8-4.2,30.6-5l3.8-2.9Z"/>
  <path class="st3" d="M659.4,298.7c1-7.6.7-22.5.7-30.7v-67c0-24.6-3.5-61.1,19.7-71.6,8.1-3.7,21.8-4.2,30.6-5-1.5.8-2.6.9-3,2.3-1.3,5.5,2.1,13.4,1.8,18.9-.2,3.5-6.2,9.7-7.1,13.4-3.3,15.1,4.4,38.8,9.2,52.9,1.1,3.2,7.6,7.8,10.1,11.6,9.6,66.5-.5,55.9-45,83.6-5.8-2.6-11.6-4.9-17.1-8.3Z"/>
  <path class="st3" d="M865.6,126.7c36.7-1.4,49.9,6.2,50.6,51.5.6,41.1-1.4,84.9.3,125.7l-1.2-2.3c-2.8-.3-11.7,4.2-15.3,5.8-43.7-27.7-55.9-17.7-44.1-85.8,3.2-2.9,6.3-6,9.5-9,7.6-20.1,16-47.4,2.2-65.5.6-5.1,2.3-13,1.4-17.8-.4-1.9-1.1-1.6-3.3-2.7Z"/>
  <path class="st3" d="M681.1,316.5l.8-.4c6.5-3.7,41.2-27.1,44.9-27.5,3.4,4.7-1.7,23.6-2.7,30,3.8-4.2,7.7-8.3,11.7-12.3,3.1,4.6,3.9,16.2,3,21.9-2.4,1.9-26.6.3-31.3,2-1.8.6-12.6,1.6-14.6,1.5-3.1-4.1-10.9-12.3-11.8-15.1Z"/>
  <path class="st1" d="M761.1,303c6.3,3.7,16.4,36,19.3,45-8.7-4.5-17.8-34.2-19.3-45Z"/>
  <path class="st1" d="M813.4,303.6c.8.9.3.2,1,2.4-4.3,18.1-8.6,26.8-17.5,42.6l-.8-2.2c2.5-11.1,11.6-33.4,17.3-42.8Z"/>
  <path class="st3" d="M140.3,122.9c2.3-3.6,6.6-11.8,9.6-13,7.6-3.1,27.5,1.4,35,5.3,22.4,11.5,59,33.5,71.2,58.9,2,4.1-1.2,10.7-2.8,15,3.7,5.5,11.3,14.4,9.2,22-3,11.1-14.3,41.1-22.4,46.6-5.7,3.9-29-8.2-37-10.7l-1.4-.4c-.1-3.8-1.4-8.1-3.8-10.2-7.8-6.6-31.8-17.8-40.7-16.6-6.2,5.3-32.7,28.6-22.9,37.8,8,7.6,16.7,3.8,26,8.4-1.8-3.9-2.2-4.3-.5-7.9,4.4-.5,6.7,2.6,7.5,7.4-.1,11.3-2.1,27,3.3,34.4,2.7,3.7,3.1,5.3,2.7,9.1l-1.2.4c-8.6-9.4-7.2-21.3-11-23.2-6.7,7.6-16.2,42.5-31,42.9-11.2.3-19.7,2.4-30.8,4.4-7.7,1.2-15.7-10.8-21.7-12.6-.7-2.3-.7-1.3-.2-3.2l1.1.4c7.2,3,16.2,10.4,22.2,9.2,2-1.5,2.7-2,4.5-3.8-1.6-7.3-7.1-12.4-6.8-15.7,1.8-20.4,7-40.9,12.2-60.2,1.3-4.8,10.5-.5,10.6-17.9v-1c2.3-5.3,8-6.8,12.7-8.7,5,1.4,7.3,2.8,11.6.2.8-11-41.7-32.6-44.3-46.5-1.8-10,16.6-42.4,21.5-50,8.6-3.9,8.7-3,17.7-.6Z"/>
  <path class="st0" d="M160.2,265.9c-1.8-3.9-2.2-4.3-.5-7.9,4.4-.5,6.7,2.6,7.5,7.4-.1,11.3-2.1,27,3.3,34.4,2.7,3.7,3.1,5.3,2.7,9.1l-1.2.4c-8.6-9.4-7.2-21.3-11-23.2-6.7,7.6-16.2,42.5-31,42.9-11.2.3-19.7,2.4-30.8,4.4-7.7,1.2-15.7-10.8-21.7-12.6-.7-2.3-.7-1.3-.2-3.2l1.1.4c7.2,3,16.2,10.4,22.2,9.2,2-1.5,2.7-2,4.5-3.8,0-3.2-.5-5.1.8-7,4.7-.6,8.1-.6,12.7-.7,4.8-.1,9.7,3.1,12.6,2.2-.5-5.5-13-15.8-17.2-19.7l.9-2.6c13.1-.1,22.5,15.9,34.6,5.6,9.1-17.1-32.6-21.8-35.4-33.3,6.4-1.8,28.4,15.9,36.4,17.5,10,2,8.7-11.2,9.6-19.5Z"/>
  <path class="st2" d="M160.2,265.9c-1.8-3.9-2.2-4.3-.5-7.9,4.4-.5,6.7,2.6,7.5,7.4-2.3,6.9-.3,12.4-3.6,17.1l-1.6-.3c-2.3-6.1-.2-10.6-1.9-16.3Z"/>
  <path class="st1" d="M137.8,137.6c26.2-1.9,74.9,34.8,95.4,55.4-6.8-1.3-27-17.8-33.9-22.1-19.8-12.2-41-23.1-61.5-33.3Z"/>
  <path class="st0" d="M159,119.1c2.1.2,4.2.5,6.2.9,11.5,2.3,38.3,14.1,45.2,25.9-16.9-8.3-33.9-18.2-51.4-26.8Z"/>
  <path class="st2" d="M788.1,445.6c-5.4,12-15,24.2-26.6,27.3-22.2,6-50.1,14.4-72.6,12.9-24.4-2.6-38.8-23.4-54.1-42.6-16-20-22.1-33.8-31.3-58.4-3.3-8.9-16.5-10.1-20.6-16.1h5.4c5.4,4.5,15.3,4.9,20,9.9,4.3,4.6,7.7,17.4,11,23.3,11.1,19.9,28.4,45.6,44.4,59.8,20.1,17.8,41.6,16.2,65.1,11.4,16.6-3.4,39.5-7.6,49.3-25.5,6.9-12.7,7.5-29.6,5.1-44.1-4.9-5.5-11.5-10.6-17.1-15.2,5.5,2,13.2,7,17.2,1.8,1.1-6.1-.2-13.5-.8-19.9l1-1.3c1.5,1.2,2.9,2.3,4.5,3.1,1.7-1.2,2.2-1.5,4.1-2.2l1.4,1.9c-.3,8.2-.5,14.3-.2,22.5,5.9-1.8,9.9-3.5,15.7-5.9-7,6.3-15.6,12-16.3,23.5-3.5,48.3,25.5,57.5,58.7,61.7,21.9,2.8,45.9,6.4,63.9-13.3,21.4-23.3,40-50.7,52.9-81.6,9.7-5.6,11.9-5.1,20.4-9l3,.7.4.7c-2.6,1.4-5.2,2.3-7.1,4.4-6.9,2.4-12.3,7.1-14.6,15.1-2.8,9.5-9.6,21.8-12.4,30.2-16.3,24-26,34.3-43.7,56-3.5,1.1-11.4,4.7-15.3,6.2-12.5,5-27.1,4.6-40.1,1.1-31.9-8.4-50.6-5.2-70.5-38.3Z"/>
  <path class="st0" d="M1409.5,264.4c-2.1-2.4-5.2-5.4-6.1-8.3,2.7.5,5.4,1.6,7.6.6l.8-3.8c3.9-1,28,17.5,27.1-3.6-1-2-21.5-25.2-24.2-24.3-10.8,3.5-27.8,7.6-34.9,18.3l-.9,1.3h-2.2c0,.1-1.2-1.5-1.2-1.5,1.8-10.9,15.8-14,23.2-18.1,6.3-3.5,14.8-7.6,21.6-5.2,5.1,1.7,4.7,1.2,7.8-2.9,8,12.3,22.9-.9,27,10,4.8,12.9-3,11.5,12.7,22.3,2.6,4.8,1.3,10,.4,15.4,13.5,20.1,3.7,14.6,6.9,32.4-1.6-.9-3.1-1.8-4.7-2.8-4.9.7-30.7,13.7-32.4,18.6,8.1,16.6,15.4,2.7,27,7.4l-1,1.4v-1.8s-.4,0-.4,0l-.5,2.3c-.8.3-1.6.6-2.5.9-15.3,5.2-20.1,3.4-31.1-11-3.3-4.3-7.1-7.6-8.4-13.6.8-3.1,1-3,.4-6.1-2.4-3.4-2.5-3.7-5.8-5.6-4.1,1.9-2.6,16.1-12.3,23.7l-1.2-.4c.4-4.3,2.9-6.6,4.6-10.5,4.6-10.3,3.6-24,2.6-35.1Z"/>
  <path class="st3" d="M1448.8,250.7c3.8-.8,12.5-1.2,15.4,2,.3,4.1,1,6.5-.2,10-.7,0-2.5.1-3.1.6-9.4,8.4-20,14.2-30.3,21-2.4.7-4,1.7-6.6,2.1-2.8-2.1-3.1-2-4.8-5.4.1-7.1-1.9-7.7-1-12.9,4.3-6.6,16.5-3.7,26.9-8.6,2-3.3,2.4-5.1,3.7-8.7Z"/>
  <path class="st3" d="M1465.2,270c.4.2.9.5,1.3.7,17,20.4-8.1,25-19,29.9-8.2,3.7-10.1,3.9-15.6,4.2-3.4-2.9-6.6-6.4-6.3-11.6,5.9-9.7,23.6-9.9,32.4-14,5.2-2.4,5-4.1,7.1-9.3Z"/>
  <path class="st2" d="M1414,257.5c2.8-.3,1.4-.6,4.1,1.7.3,3.4-1.5,13.6-1.1,21.9v1.8c-1.8-.2-1.6-.3-3.5-1-1.5-2-2.6-6.6-2.5-9,.3-9.6-1.5-9.2,3-15.4Z"/>
  <path class="st0" d="M957.8,420.6c2.8-8.4,9.6-20.7,12.4-30.2,2.3-8,7.7-12.7,14.6-15.1-2.5,5.7-4.5,6.5-8.9,9.8-2.9,7.2-1.2,13-5.5,19.5-1.4,2.2-3.3,6.7-3.5,9.4,1.8.6,11.1,4.4,11.6,4.2,6.1-2,27.4,2.3,30.9,1.5l.7-.9c-2.2-2.2-5.9-2.6-8.5-1.4,1.1-1.2,1.7-2,2.7-3.3-2.8-4-3.1-4.6-6.6-7.7-.6-1.8-1-2.8-1.5-4.7l-2-1v-1.1c4.9.4,22.4,9.6,28.4,11.6,32,10.9,68,11.8,99.6-.2,3.5-7.1,17.2-16.2,24.2-15.7l1.4,1.4c0,6.4-9.6,15.2-13,20.3-1.5,2.2-5,2.7-7.4,3.3l-.5,1.7,3.2,1c-7.2,4.3-28.1,10.4-36.9,12.1-3.9.7-14.2.7-16.5,1.6l-.3,1.5c3,3.8,15.5,4.7,22.6,13.5v2.1c-9.3,8.6-47-16.2-55.3-24.4-1.1-1-22-2.9-24.3-2.7-15.5,1.8-52.3,14.6-61.5-6.2Z"/>
  <path class="st2" d="M996.1,401.7l-2-1v-1.1c4.9.4,22.4,9.6,28.4,11.6,32,10.9,68,11.8,99.6-.2,5.8-1.7,14.1-7.2,19.2-10.7l.8.4c-.2.4-.4.7-.5,1.1-29.1,33.9-81.6,30.5-117.3,17.9-11.2-4-21.4-12.1-28.2-18.1Z"/>
  <path class="st0" d="M1357.7,300.1c-5.1,13.4-36.5,18.3-46,24.2-16,9.9-20.9,8.3-39.1,7-34.3-2.6-65-.7-95.3,21-5.3,3.6-11,4.3-13.8,7.4-2.4,9.7,23.3,15.6,28.7,18.9,2.1,1.3-2.4,16.7-4.7,19.4-11.6,2.9-17.5,12.9-25.2,9.7-2.8-7.8,9.2-18.2,14.9-20.5-3.8-2-7.7-2.5-11.9-4.5-5.4-2.5-12.2-8.8-17.4-10.3-11.2-3.3-28.1-7.2-38.6-12.2-12.3-5.9-26.3-5.4-37.6-9.2,1.2-3.1,1.4-2.9,4.5-3.3,4.5-.5,8.9-2.3,13.4-3,9.5,1.5,22,.2,30.6,3.4-3-2.9-5.1-4.9-8.3-7.3,1.3-1.6.7-1.1,1.8-1.8,12.2,2.7,33,19,33.9,18.9,8-1.1,54.6-24.2,63.6-27.2,25-8.3,48.5-1.2,71.2-3.1,19.2-1.7,56.5-19,75-27.5Z"/>
  <path class="st1" d="M1188,387.3c-1.4,6.6-16.4,13.7-21.5,16.3v-.8c6.5-10,11.5-11.8,21.5-15.5Z"/>
  <path class="st0" d="M464.6,338.5c-2.8,5.5-7.4,4.5-8.8,8.1,5.8.6,39.4-.6,42.6,2.2-8.9,4.1-16.7,1.4-22.3,3.9-9,4-19.3,11.6-29.2,14.7-8.3,2.6-8,8.1-15.9.6-5.2,2-8,12.2-13.2,13.3-5.8,1.2-10,3.5-16,4.9,1.9,7.2,14.1,12.5,13,18.8-8.2,5.8-24.1-4.6-28-13.8-1.6-3.7-2.1-8.2-3-12.2,2.9-4.3,27.8-6.4,30.8-18.4-2.8-5.7-24.6-9.9-28.3-20.1,9.4,4,29.4,12.3,37.3,18.8l1.2.6c4.8,0,18.4-12.9,25.4-16,6.4-2.9,7-3.3,14.2-5.3Z"/>
  <path class="st1" d="M423.8,359.2l1.2.6,1.7,2.2c-2.5,13.5-25.4,22.6-36.9,17.4,12.9-1.2,15.7-4.6,26.8-13.5,2.9-2.3,3.3-4.9,7.2-6.6Z"/>
  <path class="st1" d="M387.4,387.6c7.3-1.9,19,9.4,24.1,15.5-6.2,1.3-19.3-10.9-24.1-15.5Z"/>
  <path class="st0" d="M1324.1,189.7c-1.3-4.6-3.9-13-2.2-17.7,6.7-18.3,35.6-35,50.4-44.7,11.6-7.5,41.5-23.1,54.7-17.7,3.6,1.5,5.2,7.8,6.5,11.9,12,0,19.9-3.1,26.3,10.4-10-6.5-14.8-8.1-26.8-5.8-9.1-13.8-5.6-16.6-23.3-10.2v1.3c3.7,1.2,5.4,1,9.2,1.1-1.4,1.7-50.3,26.9-53.5,27.2,1.3-2.7,1.5-3.3,1.8-6.3,2.8-2.2,8.3-3.7,10-6.8-4.6-4.9-47.5,30.1-51.9,39.2-1.5,3-.5,13.4-1.3,18Z"/>
  <path class="st1" d="M692.9,331.6c3.2,2,43.5,3,50.4,3.6,4.7-3.8-2.1-20.9,0-27.5h1c.7,4.1.7,4.9,2.3,8.3,5,10.4,1.8,26.2,15.2,28.7,2.2.4,12.7,11.4,11.8,14.1-45-23.2-61.9-19.8-109.4-15.5,8-4.8,18-8.1,26.7-11.3-7.8-4.4-15.4-10.4-23.3-15,6.7,1.9,6.8,1.5,13.5-.5.8,2.9,8.7,11.1,11.8,15.1Z"/>
  <path class="st1" d="M160.2,265.9c-9.4-4.6-18-.8-26-8.4-9.7-9.2,16.7-32.5,22.9-37.8,9-1.2,32.9,10,40.7,16.6,2.5,2.1,3.7,6.4,3.8,10.2h-2.6c0-.1-.5-.9-.5-.9-5.3-9.1-33.6-26.4-41.6-18.3-3.7,3.8-18.8,21.3-19.3,26,3.1,7.4,12.8,5.9,18.7,5.3,2.5-2.9,4.2-5.5,7.5-6.4,2,2,1.4,1.1,2.5,3.9,1.7-.2,6-.8,7.3-.3h-.6c0,.1,1.2.3,1.2.3-2.4,4.7-4.1,5-7,9.4-.8-4.8-3.2-7.9-7.5-7.4-1.7,3.6-1.3,4,.5,7.9Z"/>
  <path class="st1" d="M651.4,541.8c1.6,6.8,6,44.5,4.7,50.6-1.9-3.4-5-7.6-7.3-10.9.6-13.2,1.1-26.7,2.5-39.7Z"/>
  <path class="st1" d="M923.7,542.6c2.3,10.6,4.7,26.7,3.8,37.6-2.4,3.5-4.1,5.6-6.8,8.7-1.1-3.3,2.6-39.1,3-46.3Z"/>
  <path class="st1" d="M537.5,340c8.3,4.4,17.8,8.7,24.4,15.9v1.1c-3.3-.5-27.1-10-28.5-11.8l4.2-5.2Z"/>
  <path class="st1" d="M979.1,467.3l-.5-.4c-1.5-4.3-7.4-16.7-4.1-20.6,3.2,2.4,10.2,16.2,9.6,20.8-2.5-.5-2.7-.8-5,.1Z"/>
  <path class="st1" d="M593.8,464.8l-1.2-.9c2-5,5-12.6,8.4-16.2l1.1.4c.5,5.7-2.9,15.9-5.1,21l-3.2-4.2Z"/>
  <path class="st1" d="M788.1,477.5c1.8,9.3,1.9,15.7,4.5,25.5,8.1,7.4,18.3-1.5,32,2.1,17.1,4.5,26.9,14.7,41.5,20.8l-5.6,5.9c-17.8-12.5-36.4-23.2-57.4-21.7-3.4,2.9-6.3,5.2-9.3,8.7-2,10.3-4.7,32.5.4,41.6,3.6,6.3,31.3-.5,39.6,2.9,6.7,2.8,20,11.6,26.6,8.6,1.2-1.2,6.2-17.7,6.4-20.3,0,0,.8-4.3.8-4.3,3,5.5,2.3,13.7,1.2,19.9-.4,2.3-.9,4.5-1.4,6.8-2.4,10.1,4.5,33.7-7,42.6l-1.5-.6c6.2-10.8,5.8-32.8-5.5-38.8-15.2-8.1-36.4-9.4-52.7-6.6-16.6,2.9-6.3,41-12.2,46.6l-2.1-.2c-2.4-8.3,4-40.5-6.1-44.8-13.9-5.9-43-2.3-56.3,4.4-2.6,1.3-5,3-7.3,4.9-3.7,14.4-1.6,19-3.1,31.6-2-5.4-4.6-11.8-5.2-17.6-.9-9,3.2-11.5,1.4-20-4.2-19.8-3.8-21,2-38.8-.3,8.9-2.8,32.1,5.9,35.7,7-.6,11.4-4.4,18-6.6,11.5-3.8,21.9-3.9,33.7-2.9,3.3.3,10.9,1.2,12.8-2.1,4.3-7.5,3.6-25.6,2.2-34.2-1.3-8-3.4-10.5-8.1-15.4-22-3.9-42.1,7.6-60.2,21-.8-.4-1.7-.8-2.5-1.1-1.6-3.2-1.4-1.6-.9-4.9,3.3-3.8,5.8-3.6,9.8-6.1,10.9-6.6,23.4-15.7,36-15.7,10.8,0,14.3,3.4,25.1-.3l1-4.1c1.8-7.7,2.4-14.5,3.4-22.3Z"/>
  <path class="st1" d="M788.1,477.5c1.8,9.3,1.9,15.7,4.5,25.5-1.9-3.3-2-5-4.5-6-1.5,2-3.6,5.9-4.4,6.9l1-4.1c1.8-7.7,2.4-14.5,3.4-22.3Z"/>
  <path class="st2" d="M582,399.3h.4c0,0,.5.8.5.8-36.9,35.1-103.7,41.1-142.8,7.7-2.3-2.3-3.1-3.3-5.1-5.9,8.5.5,12.7,7.4,19.5,9.7,47.1,16.3,83.4,7.6,127.5-12.3Z"/>
  <path class="st0" d="M1369.5,318.7c3.1,4.4-7.7,8-8,15.8,2.7,1,11.3-1.2,15.3-1.5l.9,1c-3.3,5.3-38.9,24.6-42,23.3,0-2.6-.1-1.6,1-3.9,3.2-2.2,3.1-2.1,5.5-5.4l-.2-1.6c-2.4-1.5-1.2-1.4-3.6-.9-.3,2.8,0,1.8-1.1,4.4-3.9.9-8.7-2.8-15-1.8v-1c6.1-5.1,39.7-24.8,47.1-28.3Z"/>
  <path class="st1" d="M293.3,344.2c3.8,1.3,6.2-.2,9.8.5,26.8,4.9,50.3,7.9,68.5,34.6l-.7,1.5c-4.7-2.7-18.2-13.3-21.9-14.3-18.3-5-38.5-11-56.6-16.3l-.7-1.6c.6-1.5,1-2.9,1.5-4.4Z"/>
  <path class="st0" d="M663.6,545.8c1.2.4,2.8.5,4,.7,6.5,5.9,24.2,26.9,28.7,35.6,1.3,2.5.1,4.3-.8,7.1-10.6-1.2-17.5-8.6-24.2-17.7-7.1-9.6-8.4-13.3-7.7-25.7Z"/>
  <path class="st1" d="M1292.4,403.6h1.5c-4.5,3.4-8.7,7.3-13.3,10.7-24.8,18.5-53.6,23.8-81.9,14.1-2.1-1.3-1.5-.3-2.2-2.7,2.9-1.5,19.1-.3,23.2-.1,28.9,1.3,47.4-7.5,72.6-22Z"/>
  <path class="st1" d="M287.5,407.4c-3.3-2.1-5-2.8-7.3-6.1,6.8,2.6,15.7,8.5,22.5,12.3,13.7,7.6,39.8,13.5,54.9,11.9,3.5.3,21-.6,22.2.4-2.8,2.9-6.8,3.9-10.5,4.7-32.5,6.9-55-2-81.8-23.2Z"/>
  <path class="st1" d="M1438.7,136.8c1.7,0,1-.3,2.3.5-26,12.3-50.9,24.9-74.9,42.2-6.6,4.8-13,9.2-19.9,13.4l-1.5.5c1.4-3.7,8-8.8,10.9-11.5,23.4-21.2,54.5-39.3,83.1-45.1Z"/>
  <path class="st1" d="M1535.2,350.7c1.1.4.4,0,1.6,1.5-2,3.1-69.7,41.4-77.8,45.6h-.9c5.2-7.7,46.6-34.5,56.3-38.8,6-2.7,14.3-6.1,20.8-8.4Z"/>
  <path class="st0" d="M33.6,349.5c16.5.6,74.2,33.7,85.2,48.9-13-7.8-26-15.3-39.2-22.6-9.4-5.1-39.7-20.6-46.1-26.3Z"/>
  <path class="st1" d="M1275.7,344.7h4.1s.5.9.5.9c-6.3,3.3-19.4,5.6-26.7,8-16.3,5.4-28.2,13.6-42.3,24-2.2,1.5-2.2,1.6-4.6,2.1l-.4-1.2c13.3-25,47.1-30.3,69.4-33.8Z"/>
  <path class="st2" d="M615.2,419.7c1.8,2.2,1.2.9,1.5,4.1-6.5,10.2-32.5,7.3-42,6-2.1-1-3.8-2.2-5.9-3.4.3-.4.6-.8.9-1.2,12.7-.5,34-3.6,45.5-5.5Z"/>
  <path class="st1" d="M690,616.5c3.1.8,6.4,4,8.9,6.3,15,13.5,15.9,27.9,18.2,48.2-5.5-5.4-6.3-18.6-10-25.8-5.9-11.4-12.8-15.9-17-28.7Z"/>
  <path class="st2" d="M884.2,618.1l1.2.5c.3,4.7-5.9,11.1-8.7,14.5-8.9,10.6-11.5,22.1-15.3,35.8l-.8.2-.8-1.3c.4-9.3,1.8-17.2,3.2-26.3,7.1-10.2,11.4-16.9,21.1-23.5Z"/>
  <path class="st0" d="M1532,384.1c2.9,0,3.4-.8,5.2.9-1.9,2.1-3.7,4.2-6.1,5.2-19.2,7.9-35.9,18.7-53.1,31.4l-1,1.3-1.3-.5c6.8-11.6,43.9-33.8,56.2-38.3Z"/>
  <path class="st0" d="M37.2,383.3c4.1.3,8.2.8,12.1,2.4,11.4,4.8,47.7,26.5,52.7,38.5-1.1-.6-11.3-8.6-12-9.4-10.2-11.8-45.1-21.4-52.7-31.4Z"/>
  <path class="st0" d="M613.1,312.7c10.5-.5,14.8-.1,24.9,2.9-14.4,1.6-24.3,3-38.4,7.4-7.1,3.1-14.2,6.6-21.2,10,10.7-12.2,20.6-15.4,34.7-20.3Z"/>
  <path class="st1" d="M956.9,312c14.5,1.6,27.9,8.7,39.9,18.1-3.9-.9-7.5-2.2-11.3-3.4-16.3-7-27.4-6.4-38.6-11l-.3-1c3.1-2.1,6.7-2.2,10.3-2.7Z"/>
  <path class="st1" d="M522.6,435.9c-.5,8.8-36.7,19.1-43.9,19.4v-1.1c4.3-4.7,36.2-15.7,43.9-18.4Z"/>
  <path class="st0" d="M208.3,322.1c8.4-.6,42.1,21.2,49.2,27.1-9.5-.7-41.9-18.6-49.2-27.1Z"/>
  <path class="st1" d="M668.8,514.5c2,1.7,25.6,35.8,26.5,38.4-11.1-5.4-27.5-23.4-26.5-38.4Z"/>
  <path class="st1" d="M905.3,516.4c2,.3,1.2-.3,2.5,1.6-.5,11.7-14.1,28.1-22.9,32.8l-1.4.7-.5-.9c2.1-4.8,16.6-23.6,22.3-34.1Z"/>
  <path class="st1" d="M741.2,619.7c9.6-1.8,19.5,1,28.8,3.8-6.2,1-12.8,1.4-19.1,1.9-8.9.9-10.6,2-20.2,0l-.6-1.3c3.6-2.8,6.8-3.2,11-4.3Z"/>
  <path class="st1" d="M820.2,621.1c5.2-1.1,22.7-.2,26,4.6-2.6,2.2-6.6,1.8-10,2-4.9-.5-24.3-2.4-27.4-4.8,3.1-2,7.7-1.7,11.4-1.9Z"/>
  <path class="st1" d="M911.6,550.9c-2.1,12.8-15,27.4-25,32.3,0-.6-.4-2.2,0-2.7,3.8-6.3,20.5-25.7,25-29.5Z"/>
  <path class="st0" d="M199.3,333.2c.8,0,2.4-.3,3.1-.2,7.1.8,39.6,23,43.6,27.7-5.2-1.2-42.8-22.2-46.7-27.4Z"/>
  <path class="st2" d="M649.7,496.7c14.4,4.9,18.7,1.2,28.9,3.7l.6,1.6-1.3,1c-10.3,6.8-21.5,6.6-28.2-6.3Z"/>
  <path class="st1" d="M924.6,497.9l.6,1.2c-1.7,4.6-9.6,7.4-13.6,9.4-3.2-1.2-6.5-2.4-9.8-3.5-2.5-1.7-2.9-1.4-4.2-4,3.6-1.9,17.6-.7,25.6-2.7l1.3-.3Z"/>
  <path class="st1" d="M786.4,634.9c3.4.7,10.8,1.5,12.4,5l-1.2,1.9c-2.7.7-3.6,1.1-6.1,2.2-3.3-.5-11.9-1-12.9-4.9,2.4-2.8,4.6-3.1,7.8-4.2Z"/>
  <path class="st1" d="M1151,438.9c4.6-.4,25.6,2.8,28.7,6.2l-1,1.8c-11.2.2-18.9,1.1-27.7-8Z"/>
  <path class="st1" d="M909.2,525.9c4.7-.2,19.4-.5,23.1,1.8l-.5,2c-10.4,5.6-13.7,4.2-22.5-3.8Z"/>
  <path class="st1" d="M664.3,525.1l1.3.2.2,1.5c-4.3,5.2-10.1,7.2-16.1,6.6l-4.9-6.4c6.4-.5,13.1-1.3,19.5-1.9Z"/>
  <path class="st1" d="M416.7,440.1c2.2-.3,2.7-.1,5,.2v1.1c-5.6,3.8-11.1,5.4-17.5,6-2.5-.4-2.4-.3-4.7-1.7l.2-1.4c4.9-2.3,11.6-3.2,17-4.2Z"/>
  <path class="st0" d="M694.6,507.9c6.1,2,8,10,10.6,16.4-6.6-2.3-8.7-9.4-10.6-16.4Z"/>
  <path class="st0" d="M881.3,507.1l.8,1.8c-2.3,6.5-4.4,10.4-8.7,15.1l-1.1-1.7c2-5.2,5.3-11.8,9.1-15.3Z"/>
  <path class="st3" d="M659.4,684.7c12.9-3.1,29.5-4.8,42.7-6.3,59.2-6,118.8-5.7,178,1.1,9.4,1.1,28.3,3,36.6,5.6l1,2.5c5.9,3.5,8,11.4,8.3,18.6l3.3,1.9c11.6.3,49.5,9.7,59.2,19.6.5.6,1,3.4,1.2,4.4l2.2,2.4c29,.7,67.3,29.9,87.1,54.6,11.5,14.2,20.5,30.9,26.4,49.3l4.1,4.7c21.8,14.8,21.3,41.2,21.2,67.2.6,5.5.5,7.2,2.2,12.2,8.2,36.8,20.9,75.1,23,113.1,1.3,24-3.5,55.6-6.7,79.5-6.5,48.2-16,97.4-11.6,146.4l8.5,6.9c-8.5,3.5-26.7-2.8-33.6,11.3-3.7,7.6,1.5,19.3-.2,21.8l-1.1-.3c-1.1-.3-5.2-1.4-6.1-1.1-8.4,3.4-22.8,19.5-30,4.8-3.3-6.7-2.5-13.2-4.6-20.6l4-4.6c-1.4-42-9.5-87.3-21.7-127-3.5-11.2-11.8-24.2-17-34.7-9-17.9-13.7-39.9-14.7-60.5-1.5-31.1,6.7-59.9,11.9-89.7.5-2.8-.1-10.9-1.7-13.4-12.4-19.8-32.4-13.2-50.2-14.4-17.7-1.2-34.2-6.3-51.1-11.2-2.1,2.1-3,2.8-4.7,5.3-13,10.5-42.7-11.7-55-18.1-21.4-11.1-44.1-20.3-67.2-25-34.3-6.9-71.4,12.2-102.4,28.3-10.3,5.5-21.4,14.5-32.7,16.6-4.1.8-15.3.9-18.6-2.1l-.6-3.8c-2.9-1.3-30.1,6.9-35.8,8.5-27.1,7.4-53.3-11.7-70.3,21.8,7.4,54.5,24.8,94.8.9,151.3-7.6,18-18.6,29.3-23.4,48.4-5.3,21-9.5,42.4-12.6,64-.8,5.6-5,38.2-5.9,41.1l-5.5.8c1.1,6.9.4,13.2,4.2,17.4l-1.9,1.2c-2.6,7.1-.4,16-4.5,19.2-6.7.8-15.6-5.9-21.8-9.7.6-5.9,1.8-13-1.5-18.1-5.2-8.2-22.6-17.3-30-10.4,1.9-8,1.1-20.5,1.1-29-.5-66.8-20.1-132.8-21-199-.5-36.9,15.5-79.7,22.7-116.3,1.4-7,1.9-13.2,2.6-20.3,0-1.7,0-3.4,0-5.1,0-11,2.3-32.7,8.9-40.6,3.6-6.1,10.6-11.7,15.7-18.2,1.6-5.7,4.2-11,6.9-16.2,21.7-43.2,57.2-74.3,98.4-86.1l1.4-.3c6-1.3,7.8-1,11.1-6.9,7.6-10,32.4-15,43-17.5,5.6-1.1,13.8-2.7,18.6-5.7l.9-3.6c1.6-6.5,1.8-7.8,6.4-12.1l2.3-4.1Z"/>
  <path class="st2" d="M648.8,930.1c.1-2.1,0-1,.8-3.2,6.8-4.9,18.3-.7,27.3-4.9,10-4.6,22.1-13,31.5-17.7,19.7-8.1,57.2-26,77.7-25.5,37.1.8,80.3,24.9,113.7,42.9,9.2,4.9,23.4-.3,30.2,7.2-2.1,2.1-3,2.8-4.7,5.3-13,10.5-42.7-11.7-55-18.1-21.4-11.1-44.1-20.3-67.2-25-34.3-6.9-71.4,12.2-102.4,28.3-10.3,5.5-21.4,14.5-32.7,16.6-4.1.8-15.3.9-18.6-2.1l-.6-3.8Z"/>
  <path class="st2" d="M659.4,684.7c12.9-3.1,29.5-4.8,42.7-6.3,59.2-6,118.8-5.7,178,1.1,9.4,1.1,28.3,3,36.6,5.6l1,2.5c-.6.5-1.1,1.1-1.7,1.6-41.7-6.3-84-6.1-125.9-6.2-25.4,0-51.3-.3-76.7.7-13.2.6-26.3,1.7-39.4,3.3-3.1.4-14.7,2.9-16.9,1.7l2.3-4.1Z"/>
  <path class="st2" d="M588.3,727.7c17.8,2.1,34.1,5.2,49.8,16.5,30.5,21.9,50.6,57,56.3,98.8,2.9,21.6.3,23.7-2.3,43.8-.5-2.5-.3-2.1-.2-4.3,2.6-64.7-34.3-135.2-90.9-145-6.1-1.1-20.9-.8-25.2-2.5l1.4-.3c6-1.3,7.8-1,11.1-6.9Z"/>
  <path class="st2" d="M882.7,842.9c9.8-57.9,40.2-102.8,91.8-113.7,6.4-1.4,11.2-4.2,15.1,3l2.2,2.4-.2.9c-3.9.3-11.7,0-14.8.7-41,9.1-67.8,41.6-83.7,86.6-5.6,8.9-9.6,43.2-10,43.5l.5,1.2-.3.6c-.1-7.6,0-17.7-.5-25Z"/>
  <path class="st2" d="M1074.4,1279.8c.1-6.9,7.9-53.4,9.9-61.3.6,9.1,1.4,20.7.6,29.8-1.1,11.9-13.2,48.9-.4,55.8,5.1-1.2,14.7-6.9,20.1-9.6-1.7-28,13.6-29.7,32.9-32.9l8.5,6.9c-8.5,3.5-26.7-2.8-33.6,11.3-3.7,7.6,1.5,19.3-.2,21.8l-1.1-.3c-1.1-.3-5.2-1.4-6.1-1.1-8.4,3.4-22.8,19.5-30,4.8-3.3-6.7-2.5-13.2-4.6-20.6l4-4.6Z"/>
  <path class="st1" d="M649.8,704.5c15.8-1.3,49.9,12.7,63,22.9l.4,1.3c-12.3-.2-48.7-19.6-64-18.2-3.1.3-16,1.6-17.9.7v-1c5.4-1.1,13.7-2.7,18.5-5.7Z"/>
  <path class="st1" d="M446,901c4.6,10.7,7.1,66.5,8.8,82.7-5.6-3.2-11-52.9-11.4-62.4,1.4-7,1.9-13.2,2.6-20.3Z"/>
  <path class="st2" d="M1122,989.2c-.7-9.5,2.4-38.1,3.5-48.9,1-10.2,1.8-27.2,2.9-36.5l1.2-.9,1,7.4c.6,5.5.5,7.2,2.2,12.2.1,23.9-5.3,44.1-10.8,66.7Z"/>
  <path class="st1" d="M929.3,708.2l.4.4-.2,1c-21.1,2.4-36.4,10.4-56.9,16.4-3.7,1.1-10.2,4.4-12.9,4.4,5.2-8.4,58.3-30,66.3-24.1l3.3,1.9Z"/>
  <path class="st1" d="M496.2,1266c-6.6-7.1-4.7-41-2.7-51.4,1.5,16.5,2.4,35.5,8.2,50.6l-5.5.8Z"/>
  <path class="st0" d="M882.7,842.9c.5,7.3.4,17.5.5,25l.3-.6-.5-1.2c.4-.3,4.4-34.6,10-43.5-7.6,31.4-8.3,40.4-5.8,72.3-4-13.9-9-37.7-4.5-52Z"/>
  <path class="st1" d="M470.5,837.1c6.1-4.5,16.6-8.9,23.6-12-13.1,14.9-23.5,15.7-37.8,30.6l-1.4-.4c3.6-6.1,10.6-11.7,15.7-18.2Z"/>
  <path class="st1" d="M1081.9,824.3c6.4,3.2,18.9,8.7,23.4,14.2l4.1,4.7c-7.9,1.8-22.2-12.7-27.5-18.9Z"/>
  <path class="st2" d="M1075.7,991.4c25.6,29.5,27,86.1,27.5,125.9,0,2.3,0,4.6,0,6.9.6,6.7-1.8,59.5-4.2,63.7-2.2-3.4-1.6-20.2-1.3-24.8,1.5-26.5-5.2-60.3-3.8-85.6-4.1-39.7-7-48.3-18.2-86Z"/>
  <path class="st0" d="M1093.9,1077.4c4.9,29.1,3,58.1,6.6,85.7.5-8.2,1.6-32.1,2.7-39,.6,6.7-1.8,59.5-4.2,63.7-2.2-3.4-1.6-20.2-1.3-24.8,1.5-26.5-5.2-60.3-3.8-85.6Z"/>
  <path class="st2" d="M474.5,1150.7c-1.2-41-1.8-83.6,8.2-123.7,1.9-7.7,11-29.2,16.9-32.6-.6,5.4-7.7,25.1-9.3,33.7-5,26.8-8.6,51.9-10.3,79.1.4,15.1-.8,67.8-2.7,80.7-1.4-12.2-3.5-25.1-2.8-37.3Z"/>
  <path class="st0" d="M474.5,1150.7c1.9,5.3.9,9.6,1.8,12.9l.9-.4c1.8-14.4-.4-42.5,2.9-56,.4,15.1-.8,67.8-2.7,80.7-1.4-12.2-3.5-25.1-2.8-37.3Z"/>
  <path class="st1" d="M1068.8,867.4c-1.3,2.7-6.4,6.8-8.6,8.9-29.8,27.8-71,8.7-91.4-24.7-7.9-12.9-16.8-28.5-24.9-42.8,28.7,30.2,49.4,78.5,96.3,73.4,15-1.6,16.7-4.9,25-17.2l.7-1,.5,2.8,2.3.6Z"/>
  <path class="st1" d="M529.6,880.9l1.1.3c56.5,14.4,89.6-68.3,101.7-70.5-2.8,2.8-10,16.9-12.3,21.4-15.5,30.3-39.9,57.6-71.6,57-8.2-.2-16.3-2.5-23.6-6.7l-.4-2.1c2,0,3.2.3,5.2.6Z"/>
  <path class="st1" d="M439.1,996.6c2.3,13.2,2.2,34.3,2.6,48.4.7,24.6,1.9,49.7,2,74.3-8.7-19.7-10.6-101.6-4.7-122.7Z"/>
  <path class="st1" d="M1137.6,993.5c8,18.9,2.4,96.6-3.1,119.4l-.2.3h-.6c-.7-9.2,2.2-113.4,3.9-119.7Z"/>
  <path class="st1" d="M618.8,772.3h8.8c-27.3,11.9-58.7,13.8-83.3,28.8l-3.8,1.8-1-.9c1.7-3,7.2-6.3,10-8.1,21.4-14.2,45.3-19.3,69.4-21.6Z"/>
  <path class="st1" d="M950.4,772c25.1,2,70.7,8.9,88.8,32.3-10-4.7-15.3-9.1-27.2-13.6-17.1-6.4-47.9-8.7-61.6-18.7Z"/>
  <path class="st1" d="M891.8,855.4c6.3,1.7,22.5,13.2,29.6,17.5,8.4,5.1,30.7,14.3,36.7,19.3-23-4-50.7-15.3-66.3-36.8Z"/>
  <path class="st1" d="M682.2,855.6l.5.9-.5,2.3c-15.4,18.1-38.2,28.4-59.3,32.5-.9-.6-.5-.2-.9-1.5,14.9-7.1,29.8-13.6,43.7-23.3,5.4-3.8,10.9-7.3,16.4-10.8Z"/>
  <path class="st1" d="M503.4,890l1.5,2.5c2.2,18.1-9,25.2-16.6,37.9-1.2,2-6.2,16.6-7.3,19.7l-.9-.2-.9-2c1-18.7,8.5-24.5,16.2-40,2.7-5.5,5.5-12.1,7.9-17.8Z"/>
  <path class="st1" d="M1073.1,887.9c2.1,5.6,5.3,14.4,7.9,19.6,8.4,16.5,17.9,23.4,15.4,44.6-6.6-18.9-10.7-26.8-21.7-42.3-2.7-3.8-3-16.6-1.6-22Z"/>
  <path class="st0" d="M500.7,843.8c2.2-3.6,3.8-6.4,7.1-8.3l.7,1.3-.9,4.3c.5,22.9,4.5,30.3,22.1,39.8-2-.3-3.1-.6-5.2-.6l.4,2.1c-8.3-1.1-30.2-23.7-24.2-38.6Z"/>
  <path class="st2" d="M500.7,843.8c2.2-3.6,3.8-6.4,7.1-8.3l.7,1.3-.9,4.3c-3,12.2.3,19,4.7,30-6.2-7.8-12-13.3-11.6-24.4,0-.9,0-1.9.1-2.8Z"/>
  <path class="st1" d="M542.2,927l1.4,1.6c-3.8,18.5-20.2,41.7-34.8,49.7h-.7c1.2-4.4,10.6-13.8,13.9-19.2,6.7-10.8,13.2-21.5,20.2-32.1Z"/>
  <path class="st1" d="M1031.7,926.7c7.7,3,17.7,25,23.6,33.1,4.1,5.6,11.7,15.1,15,20.8-3.1-1.4-5.8-4.1-8.6-6.2-16.4-12.4-21.3-28.8-30-47.7Z"/>
  <path class="st1" d="M996.9,746.8c22.5,4.3,35.6,20.6,46.7,42.6-3.6-.1-16.2-17.9-20.9-21.9-8.5-7.2-17.3-13.5-25.8-20.7Z"/>
  <path class="st1" d="M576.7,747.1h2.3c-1.5,2.3-10.8,8.7-13.6,11-12,9.7-20.7,18.5-30.8,31.1l-1.1,1.4-.2-2.2c8.1-21.9,25.7-33.1,43.4-41.4Z"/>
  <path class="st1" d="M491.4,1065.4l.5.7c4.8,21.7,9.5,40.2,16.8,60.9.8,2.2.5,4.2-.3,6.4-15-30-14.5-34.4-17.1-68Z"/>
  <path class="st1" d="M1084.2,1070.6c5.5,15.1-8.7,48.3-15.1,61.8-.8.2-.3.2-1.4-.5-.2-8,7.7-26.6,10.3-35.3,2.5-8.5,4.6-17.2,6.2-26Z"/>
  <path class="st2" d="M1065.9,864l.5-1.2c5.4-12.9,1.5-14.5,4-26.3l1.1-.2c3.2,3.5,3.8,6.3,5.5,11-1.9,10.2-2,12.3-8.3,20l-2.3-.6-.5-2.8Z"/>
  <path class="st0" d="M709,754c8.6,2.4,28.9,26.3,33.6,35.3-11.7-8.2-24.8-23.2-33.6-35.3Z"/>
  <path class="st0" d="M864.5,756.6l.2,1.5c-4.2,6.5-21.6,25.1-27.8,28.9l-.9-.4c3.9-9.2,20.3-25.1,28.4-30.1Z"/>
  <path class="st3" d="M649.3,933.9c3.3,3.1,14.4,2.9,18.6,2.1,11.3-2.1,22.4-11.1,32.7-16.6,30.9-16.1,68.1-35.2,102.4-28.3,23.1,4.6,45.8,13.9,67.2,25,12.3,6.4,42,28.5,55,18.1,1.6,26.9,3.9,53.6-26.6,53.7-24.4.1-49.5-1.5-73.8-.4-.9,28.4-.3,57.8-.5,86.2-.4,69.2,1.2,138.9.6,208l123.7.3c44.1,0,78.6-13.8,72.5,58.6-.8,9.3,1.9,34.3-3.6,40.6-8.6,1.6-58.5,2-69.6-.4-2.3-.5-3.5-9.7-4.1-13.6-103.4-1.4-208.3,1.9-311.7-.4-.5,13.1-.8,16.1-12.8,15.5-6.4.9-54.8,2.6-60.1-1.2-4.7-3.3-3.1-43.5-3.1-52.8,0-13.8,1.3-27.6,10.6-38.4,3.1-3.8,7.2-6.2,11.6-7.1,9-1.7,42.3-.6,53.7-.6l119.8-.4c1.5-46-.1-102.8,0-149.7.1-43.1,2-102-.4-143.9-17-1.5-40-.1-57.4-.1-45.2,0-43.7-6.2-44.8-54.1Z"/>
  <path class="st0" d="M775.8,925.7c24.5,1.6,70-1.6,92.9,6.1-20.4,3.3-47.2,3.5-67.8,3.6-30.9,0-63.5.7-94.2-3.6,13.8-4.2,54.1-5.4,69.2-6Z"/>
  <path class="st1" d="M773.5,927.9c27.2-.3,53.6-.3,80.7,2.5-14,3.6-28.8,3.1-43.1,3.3-12.5.2-74.3,1.2-82.6-2.7,6.9-2.9,35.8-2.9,45-3.1Z"/>
  <path class="st3" d="M440.7,1265.6c7.4-6.9,24.8,2.2,30,10.4,3.2,5.1,2,12.3,1.5,18.1,6.2,3.9,15.1,10.5,21.8,9.7,4-3.3,1.9-12.2,4.5-19.2l1.9-1.2,3.4,2.3c19.3,9.5,11.4,28.3,13.7,49.1,1.2,11,8.1,41.1,4.9,49.6-6.9,18.1-39,17.1-52.9,20.2-15.3,5.6-20.6,20.6-36.6,26.7-19.5,7.4-92.2,13.3-100.3-16.2-6.8-24.5,34.6-48.9,47.5-61.6,8.9-8.7,21-23,28.3-35,13-16.2,8.4-28.9,16.7-43.8,7.9-5.3,9-4.1,15.4-7.7l.2-1.4Z"/>
  <path class="st2" d="M440.7,1265.6c7.4-6.9,24.8,2.2,30,10.4,3.2,5.1,2,12.3,1.5,18.1,6.2,3.9,15.1,10.5,21.8,9.7,4-3.3,1.9-12.2,4.5-19.2l1.9-1.2,3.4,2.3c1,3.2.3,6.6.3,9.9,0,3.6-.2,6.1-1.7,9.1-8.8,17-19.5-.5-29.4-4.3-.5-.2-7.5,1.5-8.8,1.8-.6-5.1,1.9-10.5,2-15.8.1-16-21.5-14.7-25.6-19.5l.2-1.4Z"/>
  <path class="st3" d="M1145.9,1268.5c15,13.2,6.8,28.5,20,46.5,8.3,11.5,17.3,25.3,26.7,35.4,16.3,17.5,47.8,28.6,51.8,58,3.2,23.3-30.4,28.4-43.6,29.1-24.9,1.3-57.2,1.3-77.1-19.4-1.8-2-8.7-9.3-10.5-10-17.2-6.6-44.3-2.3-58.6-19.3-6-22.4.2-18.4,3.8-38.7,3.9-22-6.4-49.8,12-65.8,2.2,7.4,1.3,13.8,4.6,20.6,7.2,14.6,21.6-1.4,30-4.8.8-.3,4.9.8,6.1,1.1l1.1.3c1.8-2.4-3.5-14.2.2-21.8,6.9-14.2,25.1-7.8,33.6-11.3Z"/>
  <path class="st3" d="M615.1,1051.6c38.3-1.9,86.7-.4,125.7,0,.3,10.8.8,49.3-.9,57.8-3.4,3.7-13.9,2.5-19,2.5-9.4,0-57.1-2-61.9,2.4-.5,3.5-.6,4.3-1.7,7.7-3.4,2.8-46.6,2.5-49.9-.5-3.5-9.4-1.8-48.3,0-59.4.6-4.2,4.7-8.1,7.8-10.3Z"/>
  <path class="st3" d="M836.6,1051.7c13.7-.4,121.4-2.6,127,2,3.5,2.8,5.4,9.5,6,14.2.4,3.4,1,46.9.7,49.1-.4,2.6-1.1,3.7-2.4,5.7-5.5,1-41.2,1.8-46.7.3-2.1-2.8-2.9-7.7-3.8-11.5-7.3-1.1-19.8-.2-27.6,0-18,.3-36.1.2-54.1,0-.1-8.7-.9-53.2,1-59.6Z"/>
</svg>