<?xml version="1.0" encoding="UTF-8"?>
<svg id="fixed_id_0"  xmlns="http://www.w3.org/2000/svg" version="1.1" xmlns:xlink="http://www.w3.org/1999/xlink" viewBox="0 0 1367.2 1707.8">
  <!-- Generator: Adobe Illustrator 29.3.1, SVG Export Plug-In . SVG Version: 2.1.0 Build 151)  -->
  <defs>
    
  </defs>
  <path fill="#8fc306" d="M645.9,324.6c-7.6-9.1-10.9-13.3-10.4-26.1.3-9.3,8-23.9,18.3-24.6,2.1,1.7,1.8,2,2.7,4.6,6.8-.1,7.8-15.5,21.3-5.4,3.6.4,9.9-1,13.4-1.8,41.9-10.3,81.4-.7,106.2,36.2,2.5,3.7,6.2,7.7,7.6,12.3,7.3,36.4-4,73.2-18.4,106.4-4.4,10.1-2.9,30.4-1.3,41,4.3,29.2,41.4,40,64.9,54,1.1.8,4.2,3.2,5.4,3.2,11,.4,22.2-2.9,33.2-2.5,10.7.4,21.3,2.7,31.1,6.8,16.1,5.7,39.6,21.2,47.1,37.3.7,4.1.9,5.1,2.3,9.1,11.3,8.5,18.9,5.1,22.2,21.8,2.5,13.1.7,38.6,10.7,47.4,9.1,7.4,4.5,16.6,6.1,26.7,0,6.1,1.5,15.5-2.4,19.8l-3.4.4c-10-.8-20.7.4-30.8.7-21.1.5-43.6-9.4-61.1-20.2-8,27.5-14.4,48.9-29.2,73.5-27.7,45.8-60.9,53-54.4,114,.6,5.9-.9,22.3.7,26.4h1.2s.8-.9.8-.9l.2-1.8.3,1.9c1,6.4.7,12.6,2.1,19.3,10.2,50.8,38.9,93.6,29.2,148.6-8.3,29.9-9,30-24.2,56.1,11.6.7,39.6,3,49.5,7.1,13.9,15.7,14.8,40.7.5,56.5-13.9,3.7-131.4,26.2-136.5,23.1-5.7-3.5-10.2-16.8-13-22.9v-1.4c-1.2-5.9,1.3-14.4-2.1-17.6-16,6,4.5,47.7,8.7,57.9,7.5,18.6,20.7,50.5,18.6,70.7-6.6,64-24.8,121.9-30.5,186.7,0-1.2-.3-6.6-.7-7.2h-.2c0-.1.7,1.2.7,1.2l-1.5.3c-4.3,25.8-5.9,45.3-2.1,71.1.9,6.1.4,11.3,2.5,17.2h.8c0,0,1.3-3.2,1.3-3.2l.6.2c.5,1.3,4.2,10.3,4.3,10.6,1,18.5,6.1,38.5,8,56.3h1c0,0,.3-.2.3-.2-4.1,21.8-17.4,20.2-28.9,34.3-7.9,9.7-3.8,19.5-18.9,29-30.5,19.3-87.8,23.6-120.2,8.2-14.3-22.6,2.1-38.1,16.4-54.7,2.8-3.3,8.4-11.8,11-13.6,5.2-7.8,17.2-24.9,16.8-34.2l-1.8-1.6c-17.8-3-35.3-7.4-53-10.8l-108.3-20-19.3,7.9c-10.2-2.3-47-8.8-53.5-11.7-1.7-5.6,9.7-45.1,14.8-50.9,3.8-4.3,14.7-4.3,19.3-6.5,23.9-11.8,42.6-4.1,66.7.8,10.5,2.1,21.2,3.9,31.8,5.4,5.2.7,11.4,1.7,16.7,1.5,1,0,2.6-.5,2.9-1.6,5.6-19.2,28.2-196.5,26.7-201.5-2.9-1.4-2.8-1.3-6-1.6-4.5,2.5-7.4,14.8-17.3,11.7-19.1-6-19.4-38.5-1.9-46.8,9-4.3,14.3,10.1,22.4,13.3,8-.4,8.3-10.3,8.3-16.8,6.5-11.3,9.2.3,12.4-20.6,2.3-8.5,4-23.2,5.2-32.3,5.7,1.8,24.4,3.1,30.4,2.5v-3.9c-2.1-3.3-7.8-2.7-11.5-2.9-19-3.3-142.2-13.6-150.1-20-3.9-3.2-4.6-8.7-5-13.4-.6-5.6,0-16.7-1.3-20.6l-1.8-.7c-30.1,3.2-40.9,1.8-71.5-2.4-18.4-2.5-33-.8-47.8,11.1,2.7,10.6,7.8,24.2,11.2,35.2,7,24,10.1,48.9,9,73.9-1.5,31.9-16.6,45.8-22.9,67.5-9.1,30.9-19,108.5-14.8,140,1.5,1.5,6.6,6.6,7.4,8.2,8.4,13.8,7.5,36.5,12,50.4,7.6,23.9,10.1,34-18.7,42.4-11.2,3.3-22.8,5.1-35.1,5.4-11.1.3-24-1.2-35,1-16.9,3.7-32.4,13.2-48.9,17.6-22.8,6.1-48.3,6.6-71.6,3.6-12.1-1.6-23.3-4-32.4-12.5l-3.1-8.9c5.3-28.2,18.6-21.1,41.5-30.5,29.9-12.3,58.8-38.5,81.5-61.2,2.5-2.5,9.3-16.6,11.3-20.6,13.5-4.7,13-7.4,14.2-22.1,5.7-67-16-133.5-21.2-199.9-.9-11-.7-61,4.4-66.6l1.8.8c1,2.2,1.1,2.7,2.5,4.6,3.4-13.2-7.3-29.9-8.9-43.3-2-16.6-1.8-36.9.3-53.5,1.2-9.6,3.9-18.2,10.6-25.5,12.7-13.9,86.1-56.6,105.3-66.4,11.3-5.7,23.1-10.5,34.8-15.3,7.8-3.2,28.3-6.3,32.9-10.2,14.9-12.6,100.5-22.6,121.6-23,6.1-.1,20-2.8,25.3-5.8,7.9-6.5,9.3-6.8,18.9-8.9,1.7-1,4.1-2.9,5.7-4,2.3-3.8,9.5-30.5,8.9-34.4-3.6-23.7-1.3-39,3-62.6,3.7-20-2.2-45.1-7.9-64.9-3.3-22.2-1.3-27.9.3-49.6-.4-3.2-.1-6.3,1.4-9.1,4.3-.5,15.1,4,22.1,3,5.6-.8,27.4-3.4,30.7-7.1l-3-1c-13.2,2.5-33.6,4.9-46-1.8-3.9-1.2-8.4-5-11.2-7.9-9.9-7.6-14.4-20.9-20-25-33,18.5-55.1,22.7-93.4,14.1-9.8-2.2-18.5-7.2-28.6-7.8-9.5-.6-16.1,6.1-25.2,7.9-3.8.6-9.6.6-13.3-.5-13.1-4-21.5-1.1-34.4,1.6-10.3,1.5-23.9,2.1-34.1,0-27.5-5.5-53.7-18.4-80.8-25.9-16.5-4.6-30.8-10.9-48.1-11.7-8.9,6.4-11.2,7.3-21.8,4.6l-1.1,3.4c.9,9.4.4,29.3.4,39.4-8.7,15-31.2,14-39.5-.8.1-7.6-.8-37.5.3-41.6-2.1-3.8-5.8-3.5-9.9-4.2-12.8-2-12.1-13.7-11.5-23.5-9.1-9.4-7.1-11.3-4.3-23.7-8-9-6.9-12.5-.3-22-1.4-14.8-2.4-21.7,12.6-27.7,5.1-.7,8-1.3,13-2.6,16,12.1,15.5,4.6,23.8-6.9.8-1.2,9.3-5.2,11.4-6.3,3.3-4.5,2.2-25.6,2.9-33.6.6,1.5.8,35.7,1,40.6,8.4-.5,12.3-1,20.6,1,7.4,1.6,12.7,26.5,17.1,32.8.6.8.5,1.2.5,2.3,14.6,7.9,56.4,10.2,73.6,8.7,8.5-.7,20.8-3.9,29.1-6.3,25.6-8.5,48.8-7,74.3.3,21.1,6.1,25.4,6.3,44.8-2.7,22.8-10.5,47.5-12.8,72-6.7,10-12.7,23.7-24.8,38.2-32.3,17.4-8.9,46.8-13.2,65.4-6.7,6.3,2.7,12.5,5.6,18.6,8.6,1.4.4,3.4.8,4.7,0,10.2-6.6,28.3-20.5,39.4-24.4,7.4-4.4,4.9-10.4,15.4-17.8-5.9-1-11.9-2.5-17.8-3.8-6.3-2.2-8.2-3.7-12.7-8.6-3-19.7-8.2-39.8-13-59.1-4.2-16.7-1.2-18.3,2.4-34.1-2.8-5.6-5.8-11.2-8-17.1,4.2-13.8,10.4-32.7,13.3-46.3ZM653.9,1491.2c1.6-.3,3.2-.5,3.9-2.2,5.8-12.4,1.2-67.2-2.3-78.6-1.6-8-3.4-16-5.3-23.9-1.4-6.3-3.7-12-5.2-18.2-2.6-3.7-4.3-7-8.2-9.3-5.8,46.6-14.3,93.7-19.4,140.6,9.1-3.1,27.3-9.6,36.4-8.5ZM741.1,708c15.1,1.5,27.8,2,42.8.5,3.1-2.1,13.5-4.9,17.8-7.4,36-20.9,56.2-54.3,70.6-92.5-14.9,15-26.6,39.1-41.2,55.3-16,17.6-32.4,30.6-55.7,37-5.2,1.4-10.1,3.3-15.6,3.6-7.3,1-11.7,1.6-18.8,3.4ZM945.1,655.3c4.4,2.6,20,2.4,25.8,1.1-5.3-1.4-12.8-3.2-18.2-3.8-11.8-2.9-22.5-5.6-34.1-9.7-5.5-2-15.5-7.4-20-8.6,1.2,11.4,36.5,19.5,46.5,21Z"/>
  <path fill-opacity="0" d="M872.4,608.7c-14.5,38.1-34.6,71.6-70.6,92.5-4.3,2.5-14.7,5.2-17.8,7.4-15.1,1.5-27.8,1.1-42.8-.5,7.1-1.8,11.5-2.4,18.8-3.4,5.4-.3,10.3-2.2,15.6-3.6,23.3-6.4,39.7-19.4,55.7-37,14.7-16.2,26.4-40.3,41.2-55.3Z"/>
  <path fill="#8fc306" d="M589.9,1202c5.7,1.8,24.4,3.1,30.4,2.5-1.7.9-2.2,1.2-3.7,2.3,1.3.4,4.2,1.1,4.2,3.1-.2,28.1-5,54.3-4.8,83,.2,30.2,11.7,45.3,17.1,71.2l1.4.5c1.7-2.5,1.6-2.6,2.4-5.5-5.8,46.6-14.3,93.7-19.4,140.6,9.1-3.1,27.3-9.6,36.4-8.5-1.7,5.9-7.3,29.6-8.7,33-.5,4.7-8.4,12.1-11.7,15.4-.6.5,1.5,2.8-.2,5.8-1.5,9.5-2.7,16.6-6.2,25.6-1.2,3.2-4.5,9.2-5.1,11.7-17.8-3-35.3-7.4-53-10.8l-108.3-20-19.3,7.9c-10.2-2.3-47-8.8-53.5-11.7-1.7-5.6,9.7-45.1,14.8-50.9,3.8-4.3,14.7-4.3,19.3-6.5,23.9-11.8,42.6-4.1,66.7.8,10.5,2.1,21.2,3.9,31.8,5.4,5.2.7,11.4,1.7,16.7,1.5,1,0,2.6-.5,2.9-1.6,5.6-19.2,28.2-196.5,26.7-201.5-2.9-1.4-2.8-1.3-6-1.6-4.5,2.5-7.4,14.8-17.3,11.7-19.1-6-19.4-38.5-1.9-46.8,9-4.3,14.3,10.1,22.4,13.3,8-.4,8.3-10.3,8.3-16.8,6.5-11.3,9.2.3,12.4-20.6,2.3-8.5,4-23.2,5.2-32.3Z"/>
  <path fill="#f0fca1" d="M633.3,1545.4c-.8-3.3-2.9-3.4-6-4-19.8-3.9-39.7-7-59.5-10.7l-149.8-28.5,2.8-1-1.6.3c18.8-3.1,185.1,29.4,215.6,34.2,2.9-3.3,7.2-8.7,10.4-11.4-.5,4.7-8.4,12.1-11.7,15.4-.6.5,1.5,2.8-.2,5.8Z"/>
  <path fill="#8dbe0d" d="M584.6,1234.3c1.4,5.5.9,10.2.8,15.9,5.5,1.3,19.4,4,23.6,5.8-2.1,1.5-5.8,1-8.1,0-7.9-3.3-21.9,0-28.8-1.1,6.5-11.3,9.2.3,12.4-20.6Z"/>
  <path fill="#f0fca1" d="M612.2,1314.4c4.2,9.9-20,172.7-24.6,193.8h-1.4c-3.6-6.5,20.5-176.6,26.1-193.8Z"/>
  <path fill="#8fc306" d="M453.7,1164.4l1.3.4c1.2-10.1-1.7-25.9,7.2-33.3,12.7-10.5,116.1-20.3,136.9-22.2,1.5,17.9,10.9,43.5,13.6,62.3,1.3,8.7,9.9,19.4,7.5,29-2-3.3-7.7-2.7-11.4-2.9-19-3.3-142.2-13.6-150.1-20-3.9-3.2-4.6-8.7-5-13.4Z"/>
  <path fill="#f0fca1" d="M483,1133.6c3.9-.1,7.9-.2,11.8-.2,16.4,0,90.2,4.9,99.2,13.9-8.9.6-29.8-1.7-39.2-2.8-23.9-2.6-47.7-5.7-71.4-9.2l-.4-1.7Z"/>
  <path fill="#8fc306" d="M129,542.9c16,12.1,15.5,4.6,23.8-6.9.8-1.2,9.3-5.2,11.4-6.3,3.3-4.5,2.2-25.6,2.9-33.6.6,1.5.8,35.7,1,40.6,8.4-.5,12.3-1,20.6,1-8.3,2-19,.2-28,.6-7,5.8-17,24.5-13.4,33.5,11.1,10.1,20.6-8.4,28.1-11.1l1.3,1.2v1.3c-3.8,2.9-3.7,7.1-4.9,12.6,8.4,13.2,7.2,20.5,5.4,36.5-.4,3.2-3.1,6-5.2,8.4,0,5.3,1.2,22.2-1.7,25.2l-1,.3-1.1,3.4c.9,9.4.4,29.3.4,39.4-8.7,15-31.2,14-39.5-.8.1-7.6-.8-37.5.3-41.6-2.1-3.8-5.8-3.5-9.9-4.2-12.8-2-12.1-13.7-11.5-23.5-9.1-9.4-7.1-11.3-4.3-23.7-8-9-6.9-12.5-.3-22-1.4-14.8-2.4-21.7,12.6-27.7,5.1-.7,8-1.3,13-2.6Z"/>
  <path fill="#8fc306" d="M166.2,633.8l.9,33.5c.2-3.8.4-14.8,1.2-17.8.9,9.4.4,29.3.4,39.4-8.7,15-31.2,14-39.5-.8.1-7.6-.8-37.5.3-41.6l.8,1c.3-.1.5-.2.8-.3,14.9-2.5,23.4-3.4,35.1-13.4Z"/>
  <path fill="#f0fca1" d="M129,542.9c16,12.1,15.5,4.6,23.8-6.9.8-1.2,9.3-5.2,11.4-6.3,3.3-4.5,2.2-25.6,2.9-33.6.6,1.5.8,35.7,1,40.6,8.4-.5,12.3-1,20.6,1-8.3,2-19,.2-28,.6-7,5.8-17,24.5-13.4,33.5,11.1,10.1,20.6-8.4,28.1-11.1l1.3,1.2v1.3c-3.8,2.9-3.7,7.1-4.9,12.6,8.4,13.2,7.2,20.5,5.4,36.5-.4,3.2-3.1,6-5.2,8.4,0,5.3,1.2,22.2-1.7,25.2l-1,.3-1.1,3.4c-.8,3.1-1,14-1.2,17.8l-.9-33.5c-11.7,10-20.3,10.9-35.1,13.4-.3.1-.5.2-.8.3l-.8-1c-2.1-3.8-5.8-3.5-9.9-4.2,10.7-2.9,38.4-1.8,41.6-15.1-3.8-8.5-28.7-1.3-35-4.7,11.9-6.4,45.2,4.8,42.8-18.3-1.8-2.2-2.5-2.5-4.7-4.3v-1.5c.1,0,4.2-3.5,4.2-3.5,2.8-4.3,2-12.7-3.7-12.9-17.5-.6-28.3-2.6-44.9-7.5,5.1-.9,21.5,2.1,24.3,1.1-1-3.8-4.8-3.1-4.8-6.3,0-3.3,2.7-9.7-.2-12.3-4.4-3.9-17-10.3-22.8-10.4l-.6-1.4c5.1-.7,8-1.3,13-2.6Z"/>
  <path fill="#cdee58" d="M169.1,604.3c-6.8-3.2-34.8-1-46.7-5.5,14.2-2.5,25.8,2.3,44.9-3.3l1.3-.4-4.1,3.5v1.5c2.1,1.7,2.8,2.1,4.6,4.3Z"/>
  <path fill="#8dbe0d" d="M837.4,1108.7c11.6.7,39.6,3,49.5,7.1,13.9,15.7,14.8,40.7.5,56.5-13.9,3.7-131.4,26.2-136.5,23.1-5.7-3.5-10.2-16.8-13-22.9,5.6-3.5,21.9-9.3,28.7-12.9,15.9-8.5,61.1-38.3,70.8-50.9Z"/>
  <path fill="#cdee58" d="M867.7,1125.8h9.5c-18.2,5.1-39.6,9.2-58.2,12.8-6.4,1.3-8.6,1.5-15,1.8,17-7.5,44.7-12.6,63.7-14.6Z"/>
  <path fill="#f0fca1" d="M599.7,1103.4c5.1-34.2,19.6-53.5,44.9-76.4,10.8-9.8,16.4-18.8,30.8-25.1,21.1-9.2,45-9.5,66.4-1,14.6,5.8,31.1,18.2,39.6,31.6,3.3,5.1,5.7,12.1,8.1,17.8l-2.2,2.6c-11.5-36.5-59.6-58.5-95.6-49.1-8.5,2.2-13.5,24.4-21.2,31.4.5-8.7,8.7-18.4,9.5-26.2l-1.3-.6c-7.3,4.1-14.7,13-21,18.6-19.8,17.6-39.4,37.1-47,63.4-5.7,19.8.3,27.7,5.3,45.7,2.5,9.1,2,21.8,5.5,32.2,7.5,21.8,16.2,38.6,21.6,61.3-3.2-5.5-6.9-11.7-9.7-17.4-4.6,40.9-12.3,77.2,0,116.8,2.5,8,12.3,33.3,11.7,39.3-2.6-3.7-4.3-7-8.2-9.3-.9,2.9-.7,3.1-2.4,5.5l-1.4-.5c-5.3-25.9-16.8-41-17.1-71.2-.2-28.7,4.6-54.8,4.8-83,0-2-2.9-2.6-4.2-3.1,1.6-1.2,2-1.4,3.7-2.3v-3.9c2.4-9.6-6.3-20.3-7.6-29-2.7-18.8-12.1-44.4-13.6-62.3-20.7,1.9-124.1,11.7-136.9,22.2-8.9,7.3-6,23.1-7.2,33.3l-1.3-.4c-.6-5.6,0-16.7-1.3-20.6l-1.8-.7-5-1.3c9.9-7.8,2.3-16.7,20.8-21.3,14-3.5,27.2-4.9,41.4-6.9,30.5-4.5,61.1-7.9,91.9-10.3Z"/>
  <path fill="#f0fca1" d="M791.2,1135.6c15.2-5.3,43.1-31,51-45.9,17.7-33,15-80.3,3.5-114.9-8.4-25.2-21.4-48.8-24.9-75.7-1.2-8.8,3.6-33.7,4.8-44.2.8,7.6-.7,29.3,2,33.4l1.5-.3.6-3.3.2-1.8.3,1.9c1,6.4.7,12.6,2.1,19.3,10.2,50.8,38.9,93.6,29.2,148.6-8.3,29.9-9,30-24.2,56.1-9.7,12.6-54.8,42.4-70.8,50.9-6.8,3.6-23.1,9.4-28.7,12.9v-1.4c0,0,0-1.2,0-1.2,0-1.6,0-7.5.8-8.1,11.6-8.2,29.7-9.1,40.5-20.3,4.9-.6,8.2-3.1,11.9-6Z"/>
  <path fill="#fafdc9" d="M667.7,631.9c2.2,9.8-.9,30.7,2.7,35.9,3.7,10.7,7.2,18.6,18.8,23.7,18,7.8,44.5,12,64.1,11.8,3.1,0,5.1-.7,7.2.6l-.6.7c-7.3,1-11.7,1.6-18.8,3.4,15.1,1.5,27.8,2,42.8.5l.4,1c-11.2,6.1-46.8,2.3-60.2,0-13.8-2.3-37.4-6.8-48.4-16.4-2.8-2.4-9.1-11.4-11.8-15.1-6,5.8-20.5,22-30,19.6-3.5-.9-4.4-.3-7.6.8-13.2,2.5-33.6,4.9-46-1.8.1-.5,0-.1.9-1.3,1.5.4,3.1.8,4.6,1.1,26.2,6.1,69.2-5.4,75.6-35.7,3.2-9.9,1.3-15.6,6.3-29Z"/>
  <path fill="#fafdc9" d="M655.4,1410.4c0-2.6-.2-4.4.4-7,1.6,3.1,5.7,35.1,7.3,41.4,0,11.6,2.4,26.5.4,37.4-2.6,14.6-5.6,32.8-9.3,47-11.5,8.8-11.4,17.4-14.4,31.2-4,18.8-12.2,34.8-24,49.9-1.8,2.3-5.8,8.1-8.3,8.5l-.6-.4c5.2-7.8,17.2-24.9,16.8-34.2l-1.8-1.6c.6-2.6,3.9-8.5,5.1-11.7,3.5-9,4.7-16.1,6.2-25.6,1.7-3-.3-5.3.2-5.8,3.3-3.2,11.2-10.7,11.7-15.4,1.4-3.4,7-27.1,8.7-33,1.6-.3,3.2-.5,3.9-2.2,5.8-12.4,1.2-67.2-2.3-78.6Z"/>
  <path fill="#f0fca1" d="M663.2,1388c-.6-18.3-4.4-37-6.2-55-2.4-23.8-4.7-48.1-6.7-72,14.7,28.5,15.4,84.2,15.7,116.9-.4,4.3,0,7.1-2.8,10Z"/>
  <path fill="#f0fca1" d="M664,489.8l.8-1.6c3.2.3,11.8,1.4,14.1,1.3,17.4-1.1,33.1-6.8,48.5-14.8,3.7-1.9,10.7-6.1,14.1-6.6-14.6,16.1-41.7,26.9-62.9,31.1,1.2,13.3,2.6,23-2,35.7l-1.1.2c-1.9-6-2.4-18.9-5.8-22.8-.5-.5-2.6-.8-3.4-.9,7.4-4.4,4.9-10.4,15.4-17.8-5.9-1-11.9-2.5-17.8-3.8Z"/>
  <path fill="#f0fca1" d="M539.2,585.9c4.3,3.6,9.1,7.4,13.2,11.2,1.2,29.9-2.6,63.8,16.6,90.2v1.5c-9.8-7.6-14.3-20.9-19.9-25-2.9-10.7-4.1-18.4-4-29.5.2-20,5.2-30.5-6-48.4Z"/>
  <path fill="#f0fca1" d="M850.1,521.2c1.1.8,4.2,3.2,5.4,3.2,11,.4,22.2-2.9,33.2-2.5,10.7.4,21.3,2.7,31.1,6.8-3.1.8-13.3-1.9-17.6-2.6-11.8-2-17.9-1.5-29.7,0,7.9,3.2,12.1,5.6,19.5,10-41.2-9.4-40.8-2.2-78.6,10.4,7.6-6,12.3-10.2,21.2-14.4,3.6-1.7,13.4-5,15.6-6.7l-.3-4.2Z"/>
  <path fill="#8dbe0d" d="M309,575.2c-2.9,5.2-13.3,7.7-18.6,9l-1.3.3c5.5.9,11,1.8,16.4,2.9-5.7,7.6-90.2-10.1-96.2-7.6l-1.9-1.2c-1.6-3.6-2-2.9-1-5.7,14.6,7.9,56.4,10.2,73.6,8.7,8.5-.7,20.8-3.9,29.1-6.3Z"/>
  <path fill="#cdee58" d="M575.1,712.7c3.6,8.3,17.8,21.3,12.8,32.2-17,1.9-6.9,7.3-9.7,15.6-1.6,1.1-1.6,1.1-3.4,1.9-3.3-22.2-1.3-27.9.3-49.6Z"/>
  <path fill="#8dbe0d" d="M666,1377.9c2.1,23.1-1,44-2.9,66.9-1.6-6.3-5.6-38.3-7.3-41.4-.6,2.5-.4,4.4-.4,7-1.6-8-3.4-16-5.3-23.9l1.3-.8c4.4,4.6,5.1,16.6,9.5,20.1,4-3.7,1.5-12.2,2.3-17.8,2.8-3,2.4-5.7,2.8-10Z"/>
  <path fill="#f0fca1" d="M966.9,566c.7,4.1.9,5.1,2.3,9.1-3.2,1.5-20.4-.7-26.4.1-12.9,1.7-23.4,5.5-35.8,8.9,11.5-6.3,22.2-12.6,35.3-15.1,7.3-1.4,18.6-.1,24.6-3Z"/>
  <path fill="#e1f87b" d="M682.2,595.5c-9,27.1-13.1,43.9-11.8,72.3-3.6-5.3-.5-26.2-2.7-35.9-5,13.3-3.2,19.1-6.3,29-1.5-21.2,9.1-48.1,20.8-65.3Z"/>
  <path fill="#e1f87b" d="M603.7,527.2c6.3,2.7,12.5,5.6,18.6,8.6-4.3,1.9-15.2-1.2-21.2-1.1-11.6.3-21.9,3-33,5.6,11.7-6.8,22.8-9.2,35.6-13.2Z"/>
  <path fill="#e1f87b" d="M520.9,943c6.1-.1,20-2.8,25.3-5.8,3.7,5.2,17.6,11.2,25.7,19.3-10-4-19.6-9.5-30.1-12.2-4.2-1.1-18.1.7-20.9-1.3Z"/>
  <path fill="#cdee58" d="M779.2,1141.6c6.6-19.8,14.2-26.3,13.3-52.1l1.2-.5-.6-.6c7.6,12.4-3.5,35.9-8.1,49,2.2-.5,4-1.1,6.2-1.8-3.7,3-7,5.4-11.9,6Z"/>
  <path fill="#e1f87b" d="M570.8,924.3c7,4,19.4,9.5,27.1,12.3-14.1-1.6-19.2-3.4-32.8-8.3,1.7-1,4.1-2.9,5.7-4Z"/>
  <path fill="#cdee58" d="M789.5,1050.3c1.2,3.4,3,6.9,2.2,10.4l-1.4-.4c-1.8-3.3-2-3.8-3.1-7.4l2.2-2.6Z"/>
  <path fill="#f0fca1" d="M754.2,916.7c-26.3,3.8-61.4,4.1-88.1,3.3-18.1-.6-70.7-7.3-84.3-18.8l.3-1.1c10.2,0,40.4,9.3,55.1,10.7,38.1,3.9,72.8,1.2,110.6.9,11.1-1.3,39-2.1,49.4-.4-8.4,1.3-35,5.7-43,5.4Z"/>
  <path fill="#e1f87b" d="M747.7,911.7c11.1-1.3,39-2.1,49.4-.4-8.4,1.3-35,5.7-43,5.4,5.2-2.2,9.3-1.3,15.8-4.5-7.7,0-14.6,0-22.3-.6Z"/>
  <path fill="#f0fca1" d="M501,650.3c-.6-.2-3.9-3.4-5.6-3.1-16.5,2.6-34.8,4.5-51.1.1-3.8-1-16.2-5.8-17.8-9,5-.6,10.5,1.9,15.8,2.2,24.4,1.8,49.5-4,72.1-13.1,6.6-2.7,11.9-7.7,19.1-9.9l.9.8c1.1,8.7-12.6,14.4-13.9,19.8,5.3,4.2,4.5,1.1,8.6,5.1-5.5,5.9-20.2,10-28.2,7Z"/>
  <path fill="#e1f87b" d="M501,650.3c6.1-6.8,19.5-8.8,28.2-7-5.5,5.9-20.2,10-28.2,7Z"/>
  <path fill="#f0fca1" d="M276,1199c3,2.6-.6,14.7-1.5,19.6-4.7,24,.2,45.3,8.4,67.8,1.3,3.6,10,24,10.2,25.3h-1.1c-6.7-6.7-14.6-23.3-19.7-32.3.1,12,.4,22.4,2.1,34.3.5,7.9,4.5,37.2,3.1,43-.3-.5-.7-1-1-1.5-7.2-43.9-16.8-88.2-10-132.9,1.1-7.1,6.3-16.9,9.6-23.4Z"/>
  <path fill="#f0fca1" d="M406.7,1048l.6,3.9c-28.9,23.8-59.1,49.2-99.6,48.2-17-.4-27.6-7.6-38.7-19.7,54,26.6,93.5-2.8,137.6-32.4Z"/>
  <path fill="#f0fca1" d="M423,966.5c45.8,12.5,84.7,75.2,80.6,120.7-1.8-3.2-4.6-22.7-7-28.7-12.1-31.1-27.9-56.1-53.8-77.4-6.9-5.6-13.2-9.2-19.2-14l-.6-.5Z"/>
  <path fill="#f0fca1" d="M601,786.5c9.3,7.3,16,5.3,27.6,4.3-6.5,3.7-16.9,4.6-21.3,9.5-5.9,6.5-3,22.3-.9,30,2.2,8.2,4.7,11.2,10.6,16.7-9.7,4-9.1,6.8-10.3,16.6-1.7,7.9.6,19-1.3,28.1l-1.1.4c-3.9-6.1-3.9-25.4-3.3-33.1,1.9-25.1-2-47,0-72.6Z"/>
  <path fill="#f0fca1" d="M736.4,796.5c3.7,4.4,5.8,14.1,9,20.5,2.2,1.2,3.3,1.5,4.6,3.7-1.9,2.5-7.6,9.5-8.7,11.7-9.3,19-6.5,33.3-16.7,52.6l-1.5,1.1c-3.4-2.8,7.6-21.5-1.8-32.3l-1.1-1.3c0,.5,16.9-17.7,16.7-28.7-.1-6.4-2.1-24.3-.5-27.2Z"/>
  <path fill="#f0fca1" d="M658.5,734.7c3.6,1,2.1,2.1,1.6,5.6-2.2,15.1-6.7,31.5-1.3,46.4,3.7,10.2-2.2,23.4-1.6,34.6.2,4,.7,18-.2,20.6l-2.7-.8c-8-16.7-3.3-31.6.9-48.5-4.9-17.4-9.6-42.9,3.3-57.9Z"/>
  <path fill="#f0fca1" d="M781.6,552.7c-25.3,1-60.6,8.3-82.7,21.1v-.9c23.8-26.9,69-26.5,101.8-23.9,4.9,0,7.3.9,12,2.1-11.7,2-19.2,2-31,1.6Z"/>
  <path fill="#cdee58" d="M800.6,549c4.9,0,7.3.9,12,2.1-11.7,2-19.2,2-31,1.6,6-1.5,12.2-.3,19.2-1.7l-.2-2Z"/>
  <path fill="#f0fca1" d="M728.4,1277.9c.1-3.3-.2-6.6,1.2-9.3,2.4,3.6,2.9,6.1,4.8,9.1,2.7,18.5,2.9,31.3,1.5,49.9.6,3.6-4.2,29.2-6,31.5-.6-4.4-.1-44.2.4-48.7-1-9.6-1.4-22.6-1.9-32.5Z"/>
  <path fill="#cdee58" d="M736,1327.5c.6,3.6-4.2,29.2-6,31.5-.6-4.4-.1-44.2.4-48.7,1.6,7.3-1.5,17.3,2.5,22.9,4.1-4.4.3-3.1,3.1-5.7Z"/>
  <path fill="#f0fca1" d="M657.4,1086.4l2.2,1.2c-2.1,3.6-15.3,5.8-20.5,16.4-8.5,17.4-3.4,32.1,1.7,49.1l-1.4,1.8c-17.9-22.1-15.6-62.7,18-68.5Z"/>
  <path fill="#f0fca1" d="M629.7,548.3c24.5-.9,44.4,1.7,57.3,24.9-5.5-3.4-10.2-6-15.9-9.1-21.6-12.6-39-11.7-62.9-11.3,7.7-3.7,13.1-3.5,21.6-4.5Z"/>
  <path fill="#e1f87b" d="M660.4,1001c3.9-5.6,9-9.6,14.4-13.7,18.4-14.1,32-20.9,54.6-24.4l3.9,1.8v1.5c.1,0-.8.9-.8.9-28.6,5.5-48.6,18.2-72.1,33.9Z"/>
  <path fill="#f0fca1" d="M291.8,1431.4c1.1,7.1,2.5,14.2,3.5,21.4,2.3,16,7.4,32.3-13,36.4-1.6-1.4-1.7-1.6-3.1-3.1,2.2-2.5,8.5-6.6,9.5-8.6,6.2-12.1-.2-32.1,3.1-46.1Z"/>
  <path fill="#f0fca1" d="M787.6,1101.9l.5.6c.4,3-1.4,5.6-2.8,8.5-15,13.4-23.4,14.5-42.9,17.2l-.9-.8c2.5-4.6,10.1-5.2,15-7.6,13.8-6.9,19.5-7,31-17.8Z"/>
  <path fill="#f0fca1" d="M630.8,731.7l.8.9c-1.6,1.4-7.6,5.1-9.7,6.4-17.4,11.1-18.3,14.8-23,33.6-4.2-7.2-1.6-16.2.5-23.8,11-12.3,15.2-14.6,31.4-17.2Z"/>
  <path fill="#f0fca1" d="M666.9,792.3c13.6-1.4,39.5,5,54.1,8v1.6c-14.5,4-30.1-.7-44.3-4.6-3.3-.9-8.2-2-9.8-4.9Z"/>
  <path fill="#e1f87b" d="M678.5,732.4c22.3,2.4,48.2,15,54.4,38.3-4.6-2.3-12.3-14.4-18.4-19.5-8-6.7-30.7-13.6-36-18.9Z"/>
  <path fill-opacity="0" d="M945.1,655.3c-10-1.5-45.3-9.5-46.5-21,4.5,1.2,14.4,6.6,20,8.6,11.5,4.1,22.3,6.7,34.1,9.7l1.1,2.2c-4.3,1.5-4.5-.4-8.7.5Z"/>
  <path fill="#f0fca1" d="M572.5,986.6c2.7,1.7,28,47.8,30.5,53.3-14.9-6-26.8-39.2-30.5-53.3Z"/>
  <path fill="#f0fca1" d="M738.8,504.8l.8,2.1c-3.6,19-12.5,31.8-26.7,44.7l-.4-1.1c4.2-8.7,20.7-38.1,26.3-45.7Z"/>
  <path fill="#f0fca1" d="M257.3,1093.5l2.6,1.8c4.3,7.8,3.3,17.8,2,26.3-5,6.2-7.5,9.4-11.5,16.1l-1.2,1.6h-1.1c0-4.5,2-7.7,3.7-11.7,4.9-11.3,4.3-22.2,5.4-34.2Z"/>
  <path fill="#e1f87b" d="M391.6,987.3c3.6-.3,12.2-1.4,14.9,1-2.3,1.7-49.1,10.6-57.1,13-3.6.9-5.4,1.3-9.1,1.7,5.9-5,42.5-14.2,51.3-15.6Z"/>
  <path fill="#f0fca1" d="M829.2,722.7l1.2.5c-4.2,12-21.8,13.4-32.4,12.2-2.1-1-1.4-.2-2.3-2.2,4-3.5,27.1-8.8,33.5-10.4Z"/>
  <path fill="#e1f87b" d="M698.5,1143.5c3.9,12.1-6.6,40.5-14.1,50.6-.8-4.1,11.3-44.6,14.1-50.6Z"/>
  <path fill="#e1f87b" d="M808.2,883.7l1.1.5-.8,1.8c-8.5,6-36.2,17-46.4,18l-.7-.4c11.9-6.7,33.5-16.7,46.7-19.9Z"/>
  <path fill="#e1f87b" d="M215.9,609.7c12.2.8,42.6,2.8,51.8,10.1-9.7.5-44.4-4.7-51.8-10.1Z"/>
  <path fill="#f0fca1" d="M864.9,639.1c5.8.3,26.6,7.8,30.1,11.6-8.9,1.9-29.7.3-30.1-11.6Z"/>
  <path fill="#e1f87b" d="M417.9,584.1v1.1c-4.1,9.1-18.9,20-28.1,24.4l-.2-1.6c7-10.1,18-17.6,28.4-23.9Z"/>
  <path fill="#e1f87b" d="M472.8,1079.6c3.8.3,8.5.1,12.4.1-14.5,6.2-20.2,7.2-35.4,10.3-2.7.5-3.8,1-6.3,0,2.2-3.5,24-9.2,29.3-10.5Z"/>
  <path fill="#f0fca1" d="M833.8,748.8c0,11.8-17.7,11.1-25.6,10.9l.3-1.5c7.4-3.8,17.1-7.6,25.3-9.3Z"/>
  <path fill="#f0fca1" d="M370.1,618.4c13.9-1.1,18.9,3.6,27.7,13.4-4.9-.7-19.5-7.1-24.8-9.4-2.6-1.1-2.2-1.8-2.9-4Z"/>
  <path fill="#cdee58" d="M721.8,1235.7c5.8,13,10.7,27.8,12.7,41.9-1.8-3-2.3-5.4-4.8-9.1-1.5,2.7-1.1,6-1.2,9.3-2.6-13.8-3.6-27.3-6.6-42.1Z"/>
  <path fill="#e1f87b" d="M684.3,1074.9c6.7,1.6,14.1,21.7,14.5,28.2-4.9-7.1-10.3-15.6-14.9-22.9-1.4-2.2-.5-2.7.4-5.3Z"/>
  <path fill="#cdee58" d="M210.5,621.4c11.2-1.3,25.8,4.1,35.6,9.1-7.9,0-28.9-4.7-35.6-9.1Z"/>
  <path fill="#cdee58" d="M729.4,962.8c9-.7,16.4-.3,25.5.8-8.1,2-14,2.5-22.4,3.4l.9-.9v-1.5c-.1,0-4-1.8-4-1.8Z"/>
  <path fill-opacity=".3" d="M952.7,652.6c5.4.6,12.9,2.5,18.2,3.8-5.8,1.3-21.4,1.4-25.8-1.1,4.2-1,4.3,1,8.7-.5l-1.1-2.2Z"/>
  <path fill="#cdee58" d="M406.7,1048c3.9-3.7,10.1-7.9,14.6-10.8-4.1,4.7-9.3,10.9-14,14.8l-.6-3.9Z"/>
  <path fill="#8dbe0d" d="M778.3,937.7c4.2-.4,6.4-1.1,10.2.4-2,1.7-2.5,1.1-5.8,1.2-4.6,1.3-4.8,1.4-9.3.1v-.9c.1,0,4.9-.9,4.9-.9Z"/>
  <path fill="#8fc306" d="M802,53.9c3.6-.5,9.3-2,13-2.9l.3-.7-5.1-1.3c-3.4-4-2-11,2.8-13.5,10.4-5.3,26.1-6.3,37.3-3.5,10.1,2.5,4,10.1,15.6,13.7,5.2-.3,35.6,8.3,39.3,11.2,1.4,1.8,1.5,1.7,1.9,3.9,1.2,5.9,8.4,7.7,13,9.4,17.9,5.3,202.9,56.9,204.5,58.6l4.1.3c17.2-6.6,55,2.8,72.1,11,29.3,14.1,45.7,32,57.2,62.3,12.2,32,9,60.2,9,93.3v69.1c.1,0,.2,221,.2,221v74.4c0,12.7-.4,29.7.5,41.9-1.3,9.7-.4,45.2-.4,57.2l-.2,124.4-.4,426.8c0,11.1-1.3,105,1.4,108.4.5.7,1,1,1.6,1.5,10.7.7,61.3,6.9,68,10.8,5.7,7.6,15.2,40.7,17.8,51.3-8.1,4.9-26.8,10.1-37.3,14.9-11.8-1.9-51.7-7.5-60.1-11.3l-.5-1.2c-.9-2.3-2.1-5.9-4.4-6.4-8.3-1.9-18.8-3.3-27.1-4.6-29.3-4.5-58.7-8.8-88.1-12.9-30.5-4.4-61.3-10.4-91.8-13.7-2.7-.3-6.2.5-8.8,1.2-56.6,16.2-113,33.1-169.4,49.9-28,8.3-56.2,15.7-84.1,24.3-11.5,3.6-25.3,7.1-36.4,11.4,30.2,8,74.6,15.1,106.3,19.7,6.9,11.3,15.5,41.9,18,55,.8,4.4-36.9,17.8-41.7,17.7-20-.2-41.2-6-61-9.3-1.5-.2-3.5-8.9-4.2-11.2-3.7-.2-11.6-.3-14.8-1.1l-2.5,10.2-.3.3h-1c-2-17.9-7-37.9-8-56.4,0-.4-3.8-9.4-4.3-10.6l-.6-.2-1.3,3.3h-.8c-2.1-6-1.6-11.2-2.5-17.3-3.8-25.8-2.2-45.3,2.1-71.1l1.5-.3-.7-1.3h.2c.4.8.6,6.1.7,7.3.1,4.4.1,11.4,1.1,15.6,8.2-3.6,1.3-10.3,6.3-16.4,3.5-.6,16.5-5.4,20.6-6.8l14.9-145.7c3.3-33.1,7.8-83.6,14.8-116.2,8.9-2.8,52.6-11.5,61.1-11.5,6.4,3.9-1.5,53.5-2.7,63.9l-12.3,109c-1.3,10.9-11.6,75.5-7.7,81.1,7.9.2,53-12.8,59.1-16.8l-5.9-1.3c-7-.8-39.1-5.7-42.2-10.5-1.9-9.5,2-37.7,5.8-46.4,6.9-6.5,37.8.3,47.3,1.8,18.9,3,37.8,5.9,56.8,8.7,6.8,1,20.9,3.8,26.8,1.9,2.5-3,2.1-1.4,2.2-4.7-6.7-7.7-34.6-.6-39.3-11.6-.4-1.2-.7-2.5-.9-3.8-3-14.1,4.9-14.4,5.6-22.5-7.1-2.8-7.5-14.9-6.2-21.2.9-4.8,1.8-5,5.4-7.6-2.2-7.9-11.9-24.2-2.1-32.4l1.4-1.8c-2.5-10.7-9.7-20.5-.3-31.7-.2-8.7-8.7-25.8.3-32.6l.8-5.3c-6.4-3.3-7.4-23.9.4-27.7l1.5-4.7c-7.2-5.2-8.3-23.2-2.3-28.3v-5c4.6-.8,39.7,3.1,46.5,3.8l93.1,8.9c16.5,1.7,33.4,3.6,49.9,5.3,11.1,1.1,38.7-7.3,45.4-6.5l.9.8,3.1,1.8c10.7,4.4,11.1,11.6,6.7,21.5-1.8,4-4.9,5.1-7.2,8.4l5.5,3.7c2.6,2.8,2.8,3.7,4.5,7.2-.2,6.8.3,10.3-2.7,16.6-3.2,3.1-3.4,2.4-4,5.9l3.4,3.1c6,9.9,4.5,21.4-3.6,29.4l4.1,5c4.2,5.9,3,12.7,2.8,20.1-1.7,2.5-4.1,6.3-6.1,8.4l3.8,5.8c1.9,10.8,3,18.8-3.7,28.3l2.9,4.4c6.3,9.9-.1,21.1-1,29l.4,3.5c3.4,5.4,1.8,21-.4,26.9l-.5,1.4c-9.8,5.1-32.6,3.7-37.8,14.1-.8,11.2,14.8,10.6,23.2,12,7.8,1.3,22.7,5.9,28.2.4,1.1-3.8.2-68.2.2-77.5l-1.4-354-.5-490.7v-145.3c0-25.9.2-51.3,0-77.7-.2-29.6-8.9-75.7-45.4-80-7.4-.9-13.7-.6-21.1-.3,0,26.9,2.1,265.5-.5,270.1-1.3,2.3-6.2,4.5-8.7,4.7-2.4.2-4.7-.4-6.4-2.1-2-2.1-2.6-5.8-2.7-8.6-.4-8.3.3-17,.3-25.4v-59.7s-.7-178.1-.7-178.1c-6-.3-13-1.8-17.1,3.3-2,6.2,3.3,15.7,4.7,22.1,5.8,13.6,6,43.8-2.2,56.8-2.5,5.3-3.8,6.4-7.7,10.7-6.8-1.4-15.6-.4-22.6-.8-7.6-.4-3.7-3.5-13.2-3.6-15.6-16.8-14.8-41.3-9.9-62.2-2.6-5-18.7-6.1-24.7-7,0,9.6,1.6,74.1-1.5,77.5l-1.2-.4c-6.1-6.8-14-47.2-16.4-58.6-1.1-5.2-.9-17.7-2.6-23.1-.8-.3-4.3-1.7-4.5-2.4-9.9-33-19.3-66.3-61.8-63.8-8.4.5-20,3.9-28.6,2.1-13.2-2.7-24.2-8.8-38-10.9-3-3.3-3.3-11-5.5-17.1-1.7,11.9-1.7,26.6-2.5,39-5.6,2.3-18.1,6.6-22.2,8.9-8.8,2.1-8.9,22.5-6.8,29.7,3.7,10.7,15.5,16.1,26.3,15l1.2-1.4c1.3,1.2,1.9,2.1,2.3,3.8.6,2.4-.2,4.7-1.6,6.7-4.2,5.8-13.1,8.5-19.8,9.2-7.9.8-22.3.4-28.2-5.4-4.1-4-2.6-84.5-2.7-95.8-10.5.5-28.2,1.8-38.4,3.4-31.7,3-63.3,6.4-94.9,10.2-17.2,2.1-41.9,5.8-59,6.6-5.6-.1-11.3.6-16.2.4-19.5-.9-43-2-61.6,5.4-2.8.1-7.5,1.6-10.7,1.2-8-1-27.4-2.8-32.8-8.5-1.9-7.6-2.4-35.8,1-42.7,5.5-2,23.4-2.8,30.9-3.8,9.4.7,71.7-7.6,83.2-9.9,1.1-.3,12.6-1.6,14.4-1.8,44.5-4.8,88.5-11.1,132.9-16.4,9.4-1.1,40-5.6,46.8-5.6ZM1021.4,1379.6c-2.4,3.7-2.2,1.9-1.8,5.3,4.9,4.6,70.9,12.4,81.6,13.1,1.5-3.1,2-3.4,1.6-6.9-3-3.2-74-11-81.4-11.4ZM1070.5,151.8c6.9,1.9,27.4,7.8,33.4,6.6-3.4-2.5-19.9-7.1-24.4-8.2-13.4-4.2-27.9-7.9-41.6-11.9-14.7-4.4-30.3-9.6-45.1-13.4-6.4-1.9-30.3-8-36.3-6.5l7,3c4.2,1.4,16.7,5.5,20.6,5.7,23.3,6.3,46.3,14.1,69.8,19.9,5.1,1.3,11.6,3,16.5,4.8ZM1031.9,190.4c4.8,2.6,13.8,4.5,19,2.2-2.8-5.1-13.2-2.7-19-2.2ZM1233,217.1c-4.7-19.5-10.7-29.8-21.9-46.2l-5.6-.2c3.4,4.9,8.4,13.8,11.2,17.5.8,1.8,1.7,4.2,2.9,5.7,1.9,4,5.6,15.1,5.8,19.3,1.2,10,4.8,22.5,6.4,33.3l1.4-.9c2-11.4-.3-16.6-.3-27.3v-1.1Z"/>
  <path fill="#8fc306" d="M942.7,1138c4.5-.8,39.6,3.1,46.5,3.8l93.1,8.9c16.5,1.7,33.4,3.6,49.9,5.3,11.1,1.1,38.7-7.3,45.4-6.5l.9.8,3.1,1.8c10.7,4.4,11.1,11.6,6.7,21.5-1.8,4-4.9,5.1-7.2,8.4l5.5,3.7c2.6,2.8,2.8,3.7,4.5,7.2-.2,6.8.3,10.3-2.7,16.6-3.2,3.1-3.4,2.4-4,5.9l3.4,3.1c6,9.9,4.5,21.4-3.6,29.4l4.1,5c4.2,5.9,3,12.7,2.8,20.1-1.7,2.5-4.1,6.3-6.1,8.4l3.8,5.8c1.9,10.8,3,18.8-3.7,28.3l2.9,4.4c6.3,9.9-.1,21.1-1,29-11.1-1.7-35.9,11.1-51,10.7-16.7-.4-33.6-3.8-50.1-6.1-31-4.2-62.2-8.4-93.3-12.1-6.4-.8-45.9-6.9-48.6-5-7.1-2.8-7.5-14.9-6.2-21.2.9-4.8,1.8-5,5.4-7.6-2.2-7.9-11.9-24.2-2.1-32.4l1.4-1.8c-2.5-10.7-9.7-20.5-.3-31.7-.2-8.7-8.7-25.8.3-32.6l.8-5.3c-6.4-3.3-7.4-23.9.4-27.7l1.5-4.7c-7.2-5.2-8.3-23.2-2.3-28.3v-5Z"/>
  <path fill="#8fc306" d="M942.7,1138c4.5-.8,39.6,3.1,46.5,3.8l93.1,8.9c16.5,1.7,33.4,3.6,49.9,5.3,11.1,1.1,38.7-7.3,45.4-6.5l.9.8,3.1,1.8c10.7,4.4,11.1,11.6,6.7,21.5-1.8,4-4.9,5.1-7.2,8.4l5.5,3.7c2.6,2.8,2.8,3.7,4.5,7.2-.2,6.8.3,10.3-2.7,16.6-3.2,3.1-3.4,2.4-4,5.9-7-1.1-38.9,9.9-50.1,9-13.3-1-26.2-3.5-39.2-4.8l-141.6-14.9c-3.5-.4-6.9-.6-10.4-.8-6.4-3.3-7.4-23.9.4-27.7l1.5-4.7c-7.2-5.2-8.3-23.2-2.3-28.3v-5Z"/>
  <path fill="#8fc306" d="M942.7,1138c4.5-.8,39.6,3.1,46.5,3.8l93.1,8.9c16.5,1.7,33.4,3.6,49.9,5.3,11.1,1.1,38.7-7.3,45.4-6.5l.9.8,3.1,1.8c10.7,4.4,11.1,11.6,6.7,21.5-1.8,4-4.9,5.1-7.2,8.4-8.3,0-31.9,8.2-42.4,7.8-15.6-.5-31.4-2.4-46.9-4l-75.6-7.7c-9.4-1-66.3-8.5-71.2-6.9-7.2-5.2-8.3-23.2-2.3-28.3v-5Z"/>
  <path fill="#f0fca1" d="M942.7,1138c4.5-.8,39.6,3.1,46.5,3.8l93.1,8.9c16.5,1.7,33.4,3.6,49.9,5.3,11.1,1.1,38.7-7.3,45.4-6.5l.9.8,3.1,1.8-.5,1.2c.9-.3-45.6,8.1-43.5,8.3-46.8-3.9-93.5-8.7-140.2-13.8-12.4-1.3-24.7-2.4-37.1-3.4-4.9-.4-13.2-.5-17.6-1.4v-5Z"/>
  <path fill="#f0fca1" d="M944.9,1171.3c4.9-1.7,61.8,5.8,71.2,6.9l75.6,7.7c15.5,1.6,31.3,3.5,46.9,4,10.5.3,34.1-7.8,42.4-7.8l5.5,3.7c-5.6,1.7-46.5,10.2-50.6,10-20.4-1.2-43.6-4.4-64.3-6.4-29.4-2.9-58.7-6-88.1-9.3-10.9-1.1-30.7-2.4-40.2-3.9l1.5-4.7Z"/>
  <path fill="#8fc306" d="M943,1203.8c3.5.2,6.9.5,10.4.8l141.6,14.9c13,1.2,25.9,3.8,39.2,4.8,11.1.9,43.1-10.1,50.1-9l3.4,3.1c6,9.9,4.5,21.4-3.6,29.4-9.1,2.3-38.5,10.7-45.9,10.2-57.4-4.3-115.1-13.4-172.5-18.8-4.5-.4-19.6-2.8-22.4-1.9l-1.3,4.3c-.2-8.7-8.7-25.8.3-32.6l.8-5.3Z"/>
  <path fill="#f0fca1" d="M943,1203.8c3.5.2,6.9.5,10.4.8l141.6,14.9c13,1.2,25.9,3.8,39.2,4.8,11.1.9,43.1-10.1,50.1-9l3.4,3.1c-5.5,1.6-46.7,11.7-50.2,11.5-42.7-2.9-85.8-10-128.7-13.7-22.3-1.9-43.8-5.9-66.6-7.2l.8-5.3Z"/>
  <path fill="#f0fca1" d="M1039.6,1228.8c3.2-1.4,7,0,8.4,3.3,1.4,3.2,0,7-3.3,8.4-3.2,1.4-7,0-8.4-3.3-1.4-3.2,0-7,3.3-8.4Z"/>
  <path fill="#8fc306" d="M943,1307.6l.2-4.2c1.2-.7,46.9,4.7,53,5.3,7.9,1.4,16,2.4,23.9,3.3,39.4,4.6,79.2,11.6,118.8,13.8,4.7.3,27-5.9,32.5-7.4,5-1.3,8.6-2,13.6-2.9l2.9,4.4c6.3,9.9-.1,21.1-1,29-11.1-1.7-35.9,11.1-51,10.7-16.7-.4-33.6-3.8-50.1-6.1-31-4.2-62.2-8.4-93.3-12.1-6.4-.8-45.9-6.9-48.6-5-7.1-2.8-7.5-14.9-6.2-21.2.9-4.8,1.8-5,5.4-7.6Z"/>
  <path fill="#f0fca1" d="M943,1307.6l.2-4.2c1.2-.7,46.9,4.7,53,5.3,7.9,1.4,16,2.4,23.9,3.3,39.4,4.6,79.2,11.6,118.8,13.8,4.7.3,27-5.9,32.5-7.4,5-1.3,8.6-2,13.6-2.9l2.9,4.4c-8.7,1-41.6,10.5-50.1,13.5-11.7-2.9-37.5-5.7-50.6-7.5-33.3-4.5-66.7-8.8-100.1-12.8-5.8-.7-40.8-4.2-44.1-5.6Z"/>
  <path fill="#8fc306" d="M940.9,1275.3c1.6.5,12.5,1.3,15.4,1.6,21.4,2.3,41.9,4.3,63.3,7.3,24.6,2.8,49.2,5.8,73.7,9,12.5,1.7,33.5,5.4,45.5,5.2,5.6,0,23.7-6.5,32.5-7.8,6.6-2.1,10.7-2.5,17.5-3.4,1.9,10.8,3,18.8-3.7,28.3-5,.9-8.7,1.6-13.6,2.9-5.5,1.5-27.8,7.7-32.5,7.4-39.6-2.2-79.4-9.2-118.8-13.8-7.9-.9-16-2-23.9-3.3-6.1-.6-51.8-6-53-5.3l-.2,4.2c-2.2-7.9-11.9-24.2-2.1-32.4Z"/>
  <path fill="#8fc306" d="M940.9,1275.3c1.6.5,12.5,1.3,15.4,1.6,21.4,2.3,41.9,4.3,63.3,7.3,4.2,3.4,9.1,5.2,14.6,4.4l1.7,1.3c-1.9,6.2-6.3,15.2,2.2,19l-.4,1.1c-5.5.4-10.7-1.1-16.2-1.5-7.5-.5-17.9-.7-25.3.2-6.1-.6-51.8-6-53-5.3l-.2,4.2c-2.2-7.9-11.9-24.2-2.1-32.4Z"/>
  <path fill="#8dbe0d" d="M1019.5,1284.2c24.6,2.8,49.2,5.8,73.7,9,12.5,1.7,33.5,5.4,45.5,5.2,5.6,0,23.7-6.5,32.5-7.8-8.3,7.4-28.4,9.9-39.3,10.7-12,.9-75.1-12.5-82.9-9.2.8,4.3,1.7,6.3,3.4,10.4-1.4,2.9-3.1,5.1-3,7.9,12.2,4.8,72.5,10.9,89.9,13.1,7,.9,20.4-7.9,32-4.9-5.5,1.5-27.8,7.7-32.5,7.4-39.6-2.2-79.4-9.2-118.8-13.8-7.9-.9-16-2-23.9-3.3,7.4-1,17.8-.7,25.3-.2,5.5.3,10.6,1.8,16.2,1.5l.4-1.1c-8.4-3.7-4.1-12.7-2.2-19l-1.7-1.3c-5.5.8-10.4-1-14.6-4.4Z"/>
  <path fill="#f0fca1" d="M942.3,1273.4l1.1-3.5c9.4-.1,41.5,4.7,52,6l79.3,9.4c19.1,2.4,37.6,4.8,56.7,6.5,18.1,1.7,41.4-10.4,53.4-10.4l3.8,5.8c-6.8.8-10.9,1.2-17.5,3.4-8.8,1.3-26.9,7.7-32.5,7.8-12,.2-32.9-3.5-45.5-5.2-24.6-3.2-49.1-6.2-73.7-9-21.4-3-41.9-5-63.3-7.3-2.9-.3-13.9-1.1-15.4-1.6l1.4-1.8Z"/>
  <path fill="#f0fca1" d="M942,1241.7l1.3-4.3c2.8-.9,18,1.5,22.4,1.9,57.4,5.4,115.1,14.5,172.5,18.8,7.5.6,36.9-7.9,45.9-10.2l4.1,5c-13.8,3.5-35,7.6-48.7,11.1-7.9,2-38.2-3.8-48.6-5l-114.6-13.4c-4.7-.6-32.3-2.6-34.2-4Z"/>
  <path fill="#8dbe0d" d="M948,1254.5l.7-.2,1.1.7c-.2,3.5.2,7-1.5,9.8-1.8-1.4-1.7-8.2-.3-10.3Z"/>
  <path fill="#8dbe0d" d="M943.8,1336.5c2.7-1.9,42.2,4.3,48.6,5,31.1,3.7,62.3,7.9,93.3,12.1,16.5,2.2,33.5,5.6,50.1,6.1,15.1.4,39.9-12.4,51-10.7l.4,3.5c3.4,5.4,1.8,21-.4,26.9-.9-6.5.9-17.3-2.5-21.4-2.6-.5-37.7,10.9-45.6,11-23.9.3-47.3-6-71.6-7.6-25.6-1.7-9.6,8.3-18.9,16.6-5.1-.5-11.8,0-15.3-3.5-2-5.7,2-10.1,4.6-16.4-12.8-2.8-29.5-4.7-42.6-5.7-11.8-.8-45.8-11-53.8-4.7-2,4.1-1.8,10.3-2.1,15.1-.4-1.2-.7-2.5-.9-3.8-3-14.1,4.9-14.4,5.6-22.5Z"/>
  <path fill="#f0fca1" d="M943.8,1336.5c2.7-1.9,42.2,4.3,48.6,5,31.1,3.7,62.3,7.9,93.3,12.1,16.5,2.2,33.5,5.6,50.1,6.1,15.1.4,39.9-12.4,51-10.7l.4,3.5c-5.5,3.9-42.3,11.8-50.9,13.4-1.8.3-23.4-2.6-27.5-3.1l-66-9.1-64.1-8.4c-8.4-1.1-26.3-2.9-33.5-4.6l-1.5-4.2Z"/>
  <path fill="#f0fca1" d="M747.5,1615.3l-.3.3h-1c-2-17.9-7-37.9-8-56.4,0-.4-3.8-9.4-4.3-10.6l-.6-.2-1.3,3.3h-.8c-2.1-6-1.6-11.2-2.5-17.3-3.8-25.8-2.2-45.3,2.1-71.1l1.5-.3-.7-1.3h.2c.4.8.6,6.1.7,7.3.1,4.4.1,11.4,1.1,15.6l2.9.3c.5,3.6.8,4,2.7,6.8-1,2.7-.5,1.7-2.5,3.9-2.3,9.2-.5,26.4,1.6,35.6,1.3,8.7,5.6,16,9.5,24,19.9,4.6,39.4,8.1,59.4,12,1.5.3,3.9,1.6,4.4,3.1,2.1,5.1,6.2,24.1,5.7,28.7-2.4-3-7.2-20.8-9-25.8-11.1-3-49.5-10.4-60.5-10.5.6,6.4,1.4,12.2,2.5,18.5.8,4.5,5,20.9,3.4,23.3l-3.7.8-2.5,10.2Z"/>
  <path fill="#8dbe0d" d="M865.8,122.6c17.6-1.3,22.4,4.1,37.8,6,18.5,2.3,31.4-4.5,50.8,1.6,28.1,7.3,33.5,34.4,42.2,57.9,2,5.4,7.5,4.6,6.7,13.4-1.6,16.1,4.7,38.6,11.3,53.3.4-8.7.3-48.8,2.9-52.8,7.7-2.9,21.8-2.7,28.6,2.4.7,3,.8,1.4-1,4.7-2.6-5-18.7-6.1-24.7-7,0,9.6,1.6,74.1-1.5,77.5l-1.2-.4c-6.1-6.8-14-47.2-16.4-58.6-1.1-5.2-.9-17.7-2.6-23.1-.8-.3-4.3-1.7-4.5-2.4-9.9-33-19.3-66.3-61.8-63.8-8.4.5-20,3.9-28.6,2.1-13.2-2.7-24.2-8.8-38-10.9Z"/>
  <path fill="#8dbe0d" d="M802,53.9c3.6-.5,9.3-2,13-2.9l.3-.7-5.1-1.3c-3.4-4-2-11,2.8-13.5,10.4-5.3,26.1-6.3,37.3-3.5,10.1,2.5,4,10.1,15.6,13.7-4.8,3.5-56.6,10.1-63.8,8.1Z"/>
  <path fill="#f0fca1" d="M960.6,1399.2c2.6-.3,3.6-.4,5.9-1.5,3.4.4,3.7-.1,5.7,1.8-1,2.9-5.2,4.8-8,6.4-18.7,5.4-57.5,17.5-75.4,20.3l-1.1-1-5.9-1.3-1.3-1.1c3.4-4,69-19.8,80.2-23.4Z"/>
  <path fill="#e1f87b" d="M960.6,1399.2c-15.3-8-110.5-12.8-116.4-21v-2.2c4.1,3.6,26.8,4.5,33.7,5.6,18.1,2.9,36.4,5.5,54.6,8.3,16.1,2.7,37.3,4.2,52,9.4-6.1,2.5-13.8,6-20.2,6.5,2.8-1.6,7-3.4,8-6.4-2-1.9-2.3-1.3-5.7-1.8-2.4,1.1-3.3,1.2-5.9,1.5Z"/>
  <path fill="#8dbe0d" d="M1100.7,208.4c5.8,13.6,6,43.8-2.2,56.8-4.9-6.8-2.7-51.3,2.2-56.8Z"/>
  <path fill="#f0fca1" d="M736.5,1484.7c2,2.2,2,3.2,4.8,2.9,18-1.8,41.1-11.9,58.7-12.3-19.5,9.4-48.9,13.3-63.3,20.1,2-2.2,1.5-1.2,2.5-3.9-1.9-2.9-2.2-3.2-2.7-6.8Z"/>
  <path fill="#cdee58" d="M905.1,56.9c1.4,1.8,1.5,1.7,1.9,3.9,1.2,5.9,8.4,7.7,13,9.4-4.9,1.2-7.1,0-12-1.5.6,9.1,2.2,20.7-.9,29.1-3.4-3.8-1.1-31-3.1-37.5-.5-1.8,0-1.6,1.1-3.4Z"/>
  <path fill="#cdee58" d="M1124.5,128.8l4.1.3c-.2,7.6-.2,17.8-2.1,25-.6-3.3-2.6-23-2-25.3Z"/>
  <path fill="#f0fca1" d="M1233,217.1c2.2,14.7,4.2,55.8,1.8,70.7-.9,14.8.1,35.9.4,51.1l.7,80.1c1,94.7,1.6,189.4,1.6,284.1l-.4,335.9c0,34.9-.4,69.8-.9,104.8-.2,17.1-1.3,42.3-.4,58.6,1,6.7.3,26.6,0,34.1-.6,22.3-.9,44.7-1.1,67,0,6.1.5,38.2-2.4,40.6-1.4-5.1-1.6-52.8-1.8-61.7-1.2-71.5-1.6-143-1.2-214.4l-.2-54.8c0-8.3-.5-25,.6-32.7v-34.4c-2-15-1.2-49.8-1.2-65.8v-123.8s3.3-510,3.3-510l1.4-.9c2-11.4-.3-16.6-.3-27.3v-1.1Z"/>
  <path fill="#cdee58" d="M1233,217.1c2.2,14.7,4.2,55.8,1.8,70.7-2.8,5.6-1.4,46.5-1.7,56.6-3.3,136.7-4.4,273.5-3.3,410.2v126.9c0,16.3,1.2,49.4-.1,64.5-1.8-15-1.1-49.8-1.1-65.8v-123.8s3.3-510,3.3-510l1.4-.9c2-11.4-.3-16.6-.3-27.3v-1.1Z"/>
  <path fill="#cdee58" d="M1229.8,980.3c1,5.1.6,26,.6,32.7v67.1c.1,0,1.8,220.7,1.8,220.7,3.6-23.2-.8-54.2,2.2-78.2.7-5.9-.4-14.7,1.4-20.3,1,6.7.3,26.6,0,34.1-.6,22.3-.9,44.7-1.1,67,0,6.1.5,38.2-2.4,40.6-1.4-5.1-1.6-52.8-1.8-61.7-1.2-71.5-1.6-143-1.2-214.4l-.2-54.8c0-8.3-.5-25,.6-32.7Z"/>
  <path fill="#f0fca1" d="M795.5,1456.3c3.4-20.6,5.5-54.4,7.8-76.2,5.6-51.2,12.3-102.2,20.2-153.1l.7.3c1.2,10.7-3.3,44.6-4.5,56.9-3.5,37.5-7.4,74.9-11.6,112.3-1.6,14.8-4.6,32.3-5.5,46.7v1.1c-.8,5-1.8,18.8-4.7,21.4-2.8-2.6-2.3-4.2-2.5-8.2v-1.1Z"/>
  <path fill="#f0fca1" d="M1021.8,1411.2c4.4.9,2.4-1.4,6.9.3l-2.5-.2v.8c-7,.7-16.8,5.3-23.9,7.4-56.1,16.7-113.4,35-170.3,49.1-2,.6-4,.9-6,1.3l-1.2-1.2.5-1.9c9.4-7.3,134.3-39,155.4-44.5,7-1.8,36-8.5,41.2-11Z"/>
  <path fill-opacity="0" d="M1021.4,1379.6c7.3.4,78.4,8.3,81.4,11.4.4,3.5-.1,3.8-1.6,6.9-10.7-.7-76.7-8.5-81.6-13.1-.4-3.3-.6-1.6,1.8-5.3Z"/>
  <path fill-opacity="0" d="M984.1,127.1l-.8-1.8,1.5-.8c3.2.4,4.9.4,8.1.4,14.8,3.9,30.3,9.1,45.1,13.4,13.6,4,28.1,7.7,41.6,11.9-3.2,2.1-5.2,1.6-9,1.6-4.9-1.8-11.4-3.5-16.5-4.8-23.5-5.8-46.5-13.6-69.8-19.9Z"/>
  <path fill="#cdee58" d="M1242.1,1435h1.4c14.3-.2,42.5,5.5,59.1,6.8,2.4,9.3,4.6,17.7,6.5,27.2-12.9-14.6-.8-26.4-35.6-28.2-5-.3-26.2-4.1-31.4-5.8Z"/>
  <path fill-opacity=".7" d="M1205.6,170.6l5.6.2c11.1,16.4,17.2,26.7,21.9,46.2v1.1c0,10.7,2.3,16,.3,27.3l-1.4.9c-1.7-10.8-5.2-23.3-6.4-33.3,2.8,5.2,4.8,16.1,6.6,22.5,0-20.2-2.7-26.9-11-45.4-2.2-4.4-2.7-5.6-5.7-9.3-.6,2.6.4,4.1,1.4,7.2-2.8-3.7-7.8-12.6-11.2-17.5Z"/>
  <path fill="#cdee58" d="M899.7,102.5c10.9,1.1,45.4,8.5,55.1,12.9l-1.5.9.3,1,3,1,7,3c-7.2,1.5-54.6-15.2-63.8-18.8Z"/>
  <path fill="#cdee58" d="M1045.6,1410.5c2.4,1.2,4.3,1.5,6.9,2.2,2.3,2.5-2.3,13.8-1.7,20.2l-2.1.2-1.4,2.6-.5,1.1c-2.2-1.3-1-12-2.8-14.9-.5-.8-1.5-3.3-2-4.3.3-.2,2.8-5.7,3.6-7.1Z"/>
  <path fill-opacity=".2" d="M1221.1,190.3c8.3,18.6,10.9,25.2,11,45.4-1.8-6.4-3.8-17.3-6.6-22.5-.2-4.3-3.9-15.3-5.8-19.3l1.4-3.6Z"/>
  <path fill="#f0fca1" d="M956.6,118.4c6-1.5,30,4.6,36.3,6.5-3.3,0-4.9,0-8.1-.4l-1.5.8.8,1.8c-3.9-.2-16.4-4.4-20.6-5.7l-7-3Z"/>
  <path fill-opacity=".3" d="M1079.5,150.2c4.5,1.1,21,5.7,24.4,8.2-6,1.2-26.5-4.8-33.4-6.6,3.8,0,5.9.5,9-1.6Z"/>
  <path fill="#cdee58" d="M1186.4,151.4c11.1,5.1,16.8,10.7,24.7,19.5l-5.6-.2c-6.2-7.8-11.7-12.7-19.2-19.3Z"/>
  <path fill-opacity=".4" d="M1031.9,190.4c5.8-.5,16.2-2.9,19,2.2-5.2,2.3-14.1.4-19-2.2Z"/>
  <path fill-opacity=".5" d="M1216.8,188.1c-1-3.1-2-4.5-1.4-7.2,3,3.8,3.5,4.9,5.7,9.3l-1.4,3.6c-1.2-1.5-2.1-3.8-2.9-5.7Z"/>
  <path fill="#cdee58" d="M1104.8,157.5c5-.3,10.9,2.9,15.5,5-2.1,0-4.3-.1-6.4-.3-4.8-.4-6.3-1.1-9.1-4.7Z"/>
  <path fill="#8fc306" d="M917.6,344.5c9.9-.6,25.7.3,34.8,4.2,9.6,4.2,15.5,9.7,19.4,19.4,1.8,4.5,3.6,15.4,3.2,20-2.2,23.2-9.4,140.2-15.2,153.7-12.7-6.7-20-13.4-35.5-18.8-12.8-4.4-36.8-10.6-49.8-4.7-3.9.9-7.6,2.5-11.4,3.9-7.9-6.8-15.8-11.8-24.7-17.5-11.8-7.6-30.3-13.8-38.5-25.4-6-9.7-7.9-28.4-7.1-39.6,1.9-24.9,18.8-46.6,19.2-72.1,0-6.2,1.4-13.7,2.6-19.7,35.2-3.5,70.4-.8,102.9-3.5Z"/>
  <path fill="#e1f87b" d="M940.5,360.3c12.1,7.7,7.6,39.5,5.8,51.9-4.4,29.3-6.3,60.9-13,89.6l-.3,2.1c-1.1-12,.7-23.6,1.5-35.5,1.7-23.7,4.2-47.4,7.3-70.9,1.8-14.4,2.2-23.2-1.3-37.2Z"/>
  <path fill="#8fc306" d="M877.6,194.5c10-2.8,41.6-8.6,51.9-9.2,25.4,25.4,9.9,73,8.1,104.5-.9,15.4-3.8,31.5-4.7,47.1-8.1.6-14.9,1.1-23.1,1.1-13.6.1-37.1,1.4-49.4,0,.2-5.2.8-10.3,1.3-15.5,4.3-29.1,6.3-59.5,10.1-88.7,1.7-12.9,2.8-26.8,5.7-39.4Z"/>
  <path fill="#f0fca1" d="M904.1,326.1c3.9-24.3,5.8-51.5,9.4-76.3,1.6-11.4,7-34.4,7.6-43.9l.8-.3c.4,14.4-1.3,18.4-2.2,31.4-1.6,23-3.7,46-6.5,68.9-.7,5.4-2.2,27.8-3.2,31.6-2.8.1-3.2.5-5.6-.8-1.5-2.6-.6-7.2-.3-10.5Z"/>
  <path fill="#8dbe0d" d="M860.5,338.1c.2-5.2.8-10.3,1.3-15.5.5,3.7-.2,3.7,2,5.5l.2-.6c2.2,3,2.2,4,5.1,5.3,2-.4,10.6-.7,10.1-.4-3-.6-6-1.2-8.9-1.9,4.8-2,24.9-.7,30.2.4,2.7-2.1,1.8-2.2,3.7-4.6-.3,3.3-1.2,7.9.3,10.5,2.4,1.3,2.8,1,5.6.8v.6c-13.7.1-37.2,1.4-49.5,0Z"/>
  <path fill="#8baf23" d="M999.9,441.3c2.1,1.1,1.4.6,3.1,2.5,4.6,15,6.5,72.2,3.7,87.3-1,0-6.4.5-6.5-1-.8-26-3.4-63.4-.2-88.7Z"/>
  <path fill-opacity="1" d="M1063.3,511c.9.3,2.5,1,3.4,1.4,4.2,6.6,2.4,17.9,1.1,25.4-2.3-.2-2.2-.3-4.4-1.3-3.7-6-1.5-18.8,0-25.6Z"/>
  <path fill="#8fc306" d="M863.6,1063.3c1.4.2,4.2.5,4.4,2.2,1.1,9,0,26.2-3.3,34.4-2.4,1.9-5.6,1.6-8.9,1.8-4-.8-3.3,0-5.4-2.5.5-3.1,11.5-32,13.2-35.9Z"/>
  <path fill="#8fc306" d="M1114.1,511h16.7c1.3,3.8,1.1,5.5,1.1,9.7.1,100.7,0,201.5-.1,302.2v84.5c-.2,8.4.3,33.2-.9,39.9,3.6.8,6.2.8,8.4,3.6,1.6,6.1.5,37.6.3,46.1,15-.3,32.3-3.9,28.9,17.8-.1.8-.3,1.7-.4,2.5l3.1,1.8c4-.5,10.4-1.6,13.9.9,8,5.5,5.4,24.1-2.5,28.1l3.3,3.8c8.3,9.5,3.1,23.8-4.7,29.8-.2.4-.4.7-.6,1.1l3.2,1c13.6,8.2,7.6,24.2-3.7,32l5.2,2.9c7.6,4.8,5.9,19.5,1.7,25.6-2.7,1.6-6.9,3.6-8.4,5.9l-.9-.8c-6.7-.8-34.3,7.6-45.4,6.5-16.5-1.7-33.4-3.6-49.9-5.3l-93.1-8.9c-6.8-.7-41.9-4.6-46.5-3.8l-.8-.5c-4.2-7.5-8.6-22-.2-27.9l1.1-2.8c-1.7-3-3.6-5.8-5.5-8.7-.1-6.5-1.3-16.2,4.4-20.3.6-1.6.9-3.8,1.3-5.5-6.7-4.7-5.3-19.2-1.5-25.3,1.4-2.3,1.3-1.5,2-4.8l-1.1-3.2c-2.2-2.9-2.1-9.8-2.4-13.6.2-6.4-1-11.7,4.7-14.8,2.8-1,14.7-3,18.3-3.8-3.4-23.5,7.2-15.7,21.4-18.1,13.8-2.3,3.1-37.7,8.1-47,2.2-.7,4.5-1.3,6.7-1.9,2.3-3,1.6-2.1,1.6-6.8-.2-14.9-.3-29.8-.2-44.8.5-62.4-.6-124.8-.9-187.2,0-2.1.4-3,1.1-4.9,9.5,7.9,3.1,11.3,10.5,22.6l3.4,3.4c.5.6,1,1.2,1.5,1.8.7,20.7.4,51.8.3,71.5,0,39.8,0,101.5.4,143.2.4.6.9,1.3,1.3,1.9,4.4,1.6,4.4.8,6.5,3.9,1.3,11.2.5,32.8.5,45.2,7.9.5,22.4,3.4,27.5-.7,4.8-10.6-4.4-30.4,4.1-36.3h4c-1.5-6.7-1-19.6-1-26.9v-54c0,0,.1-108.1.1-108.1,0-16.8,0-34.3.5-51.1,0-2.9,1.7-5.4,3.3-7.8l1.6-.2c6,6.9,4.2,46.3,4.2,57.4v80.2c0,0,.1,63.6.1,63.6,0,13.8.8,32.7-1.8,45.8,7.1,1.7,8.6,4.8,8.5,11.9-.4,33-7.8,31.7,28.2,31.5.3-16.2,1.3-29.2.4-45.6,3.1-.9,3.7-1.2,6.5-2.6,4-4.7,2.7-65.2,2.7-76.3l-.3-122.2c0-22.4-.4-44.9.2-67.3.2-7.5,3.7-13.7,4.5-21.4,2.6-12,4.5-23.7,3.6-36-2.2-7.4-4.6-12.4-8.6-18.9.8-30.8.3-62.8.2-93.7Z"/>
  <path fill="#8dbe0d" d="M1114.1,511h16.7c1.3,3.8,1.1,5.5,1.1,9.7.1,100.7,0,201.5-.1,302.2v84.5c-.2,8.4.3,33.2-.9,39.9,3.6.8,6.2.8,8.4,3.6,1.6,6.1.5,37.6.3,46.1,15-.3,32.3-3.9,28.9,17.8-.1.8-.3,1.7-.4,2.5-2.6-2.8-25.8,4.5-30.9,4-21-2.1-164.2-10.7-173.9-14.7-3.4-23.5,7.2-15.7,21.4-18.1,13.8-2.3,3.1-37.7,8.1-47,2.2-.7,4.5-1.3,6.7-1.9,2.3-3,1.6-2.1,1.6-6.8-.2-14.9-.3-29.8-.2-44.8.5-62.4-.6-124.8-.9-187.2,0-2.1.4-3,1.1-4.9,9.5,7.9,3.1,11.3,10.5,22.6l3.4,3.4c.5.6,1,1.2,1.5,1.8.7,20.7.4,51.8.3,71.5,0,39.8,0,101.5.4,143.2.4.6.9,1.3,1.3,1.9,4.4,1.6,4.4.8,6.5,3.9,1.3,11.2.5,32.8.5,45.2,7.9.5,22.4,3.4,27.5-.7,4.8-10.6-4.4-30.4,4.1-36.3h4c-1.5-6.7-1-19.6-1-26.9v-54c0,0,.1-108.1.1-108.1,0-16.8,0-34.3.5-51.1,0-2.9,1.7-5.4,3.3-7.8l1.6-.2c6,6.9,4.2,46.3,4.2,57.4v80.2c0,0,.1,63.6.1,63.6,0,13.8.8,32.7-1.8,45.8,7.1,1.7,8.6,4.8,8.5,11.9-.4,33-7.8,31.7,28.2,31.5.3-16.2,1.3-29.2.4-45.6,3.1-.9,3.7-1.2,6.5-2.6,4-4.7,2.7-65.2,2.7-76.3l-.3-122.2c0-22.4-.4-44.9.2-67.3.2-7.5,3.7-13.7,4.5-21.4,2.6-12,4.5-23.7,3.6-36-2.2-7.4-4.6-12.4-8.6-18.9.8-30.8.3-62.8.2-93.7Z"/>
  <path fill="#8fc306" d="M1114.1,511h16.7c-1.2,5.2-1,10.8-1,16.3-.2,24.1.2,48.3,0,72.4-.1,13.9-2,27.6-2.1,41.5-2.2-9.1,1.6-11.7-5.3-17.6-2.2-7.4-4.6-12.4-8.6-18.9.8-30.8.3-62.8.2-93.7Z"/>
  <path fill="#8baf23" d="M1130.8,510.9c1.3,3.9,1.1,5.6,1.1,9.9.1,100.7,0,201.5-.1,302.2v84.5c-.2,8.4.3,33.2-.9,39.9-3.2-1.9-1.9-40.5-1.9-46.6l.2-155.8c0-12.3,1.6-90.2-3.1-95.6-3.4,3.8-3.1,8-7.2,10.2,2.6-12,4.5-23.7,3.6-36,6.9,5.9,3.1,8.5,5.3,17.6,0-14,2-27.6,2.1-41.5.2-24.1-.2-48.2,0-72.4,0-5.5-.2-11.1,1-16.4Z"/>
  <path fill="#8fc306" d="M1001.1,696c9.5,7.9,3.1,11.3,10.5,22.6l3.4,3.4c-1.4-.2-3.2-.4-5.5-.7-2.8-2.6-1.6-4.5-4-2.8-2,9.5-1.4,54.3-1.4,65.6.3,34,.3,67.9,0,101.9,0,9.8,1.6,40.7-3.3,46.9-.2-14.9-.3-29.8-.2-44.8.5-62.4-.6-124.8-.9-187.2,0-2.1.4-3,1.1-4.9Z"/>
  <path fill="#8fc306" d="M963.2,1006.7c9.7,3.9,152.9,12.6,173.9,14.7,5.1.5,28.3-6.8,30.9-4l3.1,1.8c4-.5,10.4-1.6,13.9.9,8,5.5,5.4,24.1-2.5,28.1l3.3,3.8c8.3,9.5,3.1,23.8-4.7,29.8-.2.4-.4.7-.6,1.1l-1.4-.9c-4.4-.6-24.4,3.9-30.5,4.6-11.9,1.4-16.7,1.9-28.8.7l-101.2-9c-9.8-.9-69.4-7.4-75.4-6-6.7-4.7-5.3-19.2-1.5-25.3,1.4-2.3,1.3-1.5,2-4.8l-1.1-3.2c-2.2-2.9-2.1-9.8-2.4-13.6.2-6.4-1-11.7,4.7-14.8,2.8-1,14.7-3,18.3-3.8Z"/>
  <path fill="#8fc306" d="M963.2,1006.7c9.7,3.9,152.9,12.6,173.9,14.7,5.1.5,28.3-6.8,30.9-4l3.1,1.8c4-.5,10.4-1.6,13.9.9,8,5.5,5.4,24.1-2.5,28.1-3.7-1.5-29.1,4.9-37.8,5.3-18.2.8-31.7-.1-49.8-2.1-49.7-1.6-103.1-12-152.4-12.3-2.2-2.9-2.1-9.8-2.4-13.6.2-6.4-1-11.7,4.7-14.8,2.8-1,14.7-3,18.3-3.8Z"/>
  <path fill="#e1f87b" d="M963.2,1006.7c9.7,3.9,152.9,12.6,173.9,14.7,5.1.5,28.3-6.8,30.9-4l3.1,1.8c-41.6,10.6-94.1.7-137.2-.8-10.1-.3-84.6-5.7-89-7.9,2.8-1,14.7-3,18.3-3.8Z"/>
  <path fill="#8dbe0d" d="M940.2,1025.3c3.4,4.2,1.7,6.3,6,9.5,7.8,2.2,73.9,6.4,82.9,5.9,7-4.9.1-17,13-16.3,2.8.1,4.9,1.5,6.9,3.4,1.5,3.6,1.4,11.7,0,15.2,14.5,2.1,33.6,2.6,46,8.3-49.7-1.6-103.1-12-152.4-12.3-2.2-2.9-2.1-9.8-2.4-13.6Z"/>
  <path fill="#f0fca1" d="M942.5,1038.9c49.3.3,102.7,10.8,152.4,12.3,18.1,2,31.6,3,49.8,2.1,8.7-.4,34.1-6.8,37.8-5.3l3.3,3.8c-4.1,1.7-13.7,1.6-18.5,2.9-27.4,7.4-48.2,4.4-76,1.9l-67.1-5.6-49.8-4.2c-8.5-.7-21.9-1.2-29.7-2.8l-1.1-2-1.1-3.2Z"/>
  <path fill="#8dbe0d" d="M941.7,1109.6c1.7,1,185.2,17.3,200.2,18.1,13.1-3.8,29.4-6.3,43.1-8.9,7.6,4.8,5.9,19.5,1.7,25.6-2.7,1.6-6.9,3.6-8.4,5.9l-.9-.8c-6.7-.8-34.3,7.6-45.4,6.5-16.5-1.7-33.4-3.6-49.9-5.3l-93.1-8.9c-6.8-.7-41.9-4.6-46.5-3.8l-.8-.5c-4.2-7.5-8.6-22-.2-27.9Z"/>
  <path fill="#8fc306" d="M1185.1,1118.7c7.6,4.8,5.9,19.5,1.7,25.6-15.2-1-32.2,6.3-47.5,7.9-9,.9-80.4-6.1-90.7-8.5,3.8-10.2,4.8-9.1,1.7-18.5,6.5-3.6,80.4,9.1,91.7,2.4,13.1-3.8,29.4-6.3,43.1-8.9Z"/>
  <path fill="#8fc306" d="M950.6,1113.6c18.4,4.3,46.1,3,65.3,6.8,7.4,1.5,14.2.6,21.7,3.4-2.2,2.2-3.1,3.7-3.8,6.8-.9,3.7-.2,7.6,2,10.8.4.5.7.9,1,1.4l-5.1,1.2c-8-3.6-33.6-3.6-43.8-4.8-14.2-1.8-29.3-2.7-43.4-5.7-.6-5.7-2-11.4,0-16.5,2.5-2.7,2.6-2.5,6-3.3Z"/>
  <path fill="#f0fca1" d="M1040.2,1128.3c2.1-.8,4.4-.3,6.1,1.2,1.7,1.5,2.4,3.7,1.9,5.9-.5,2.2-2.1,3.9-4.3,4.5-3.1.9-6.4-.9-7.4-4-1-3.1.7-6.4,3.7-7.5Z"/>
  <path fill="#f0fca1" d="M943.1,1072.3c6-1.4,65.7,5.1,75.4,6l101.2,9c12.2,1.2,16.9.8,28.8-.7,6.1-.7,26.1-5.2,30.5-4.6l1.4.9,3.2,1c-.1,1,0,.3-1.2,1.7-11.6,1.7-32.2,8-42.9,8.3-14.3.4-37.3-2.3-52.1-3.7l-91.7-8.3c-16.7-1.5-37.6-4-54-4,.6-1.6.9-3.8,1.3-5.5Z"/>
  <path fill="#f0fca1" d="M942.8,1106.8l.9-2.3c16-.2,58,5,75.7,6.9,34,3.6,68.1,6.8,102.2,9.5,7.6.6,10.6.8,17.8.4,7.2-.5,35.7-6.4,40.5-5.5l5.2,2.9c-13.7,2.6-30,5.1-43.1,8.9-15-.8-198.6-17.1-200.2-18.1l1.1-2.8Z"/>
  <path fill="#8fc306" d="M543,151.1c.8-3.7,1-6.5,3.5-9.2,9.6-3.8,34-3.5,44.7-1.2,1.7.4,3.1,2.1,3.4,3.9,2.8,15.4-1.6,64,1,76.6-5.5,17.6-27.6,15.6-42.6,12.7-9.3-1.8-9.1-12.5-9.7-20.3-47.7-.2-96.6,2.3-144.4,2.2-25.3,0-41.7,25-56.4,42.9l-48.5,59.7c-27.7,33.8-56.8,67.2-84,101.5-9.5,12-32,38-37.8,51-6.3,14.3-2.7,48.4-4,65.7-.2-5-.3-39.2-1-40.6-.7,8,.4,29.1-2.9,33.6-2.1,1.1-10.5,5.2-11.4,6.3-8.3,11.5-7.8,19-23.8,6.9,0-6.8,1.1-23.6-2.4-28.5-8.1-4.3-68.4.9-82.5-.6-17.2-1.8-21.4-1.2-22.1-24.2-.5-5.1,4.2-13.4,9.9-13.5,26.9-.5,58.6-3,85.2-.7,3.7,2.8,5.4,4.8,9.8,4.8,5.3-3.5,6-19.1,8.8-25.6,8.4-19.4,22.1-33.4,35.3-49.5l52.5-63.6,77.7-93.1c10.9-13.1,25.5-32.8,36.5-44.5,11.9-12.5,27-21.3,43.7-25.5,19-4.8,68.8-3.4,90.9-3.5,23.6-.1,47.1-.6,70.7-1.5.2-7.6.3-14.6,0-22.2Z"/>
  <path fill="#8fc306" d="M840.7,157.2c16.6-5.4,36.4-8.7,53.6-12.2,18.4-3.7,41.3-11.1,58.9-2.1,26.5,13.6,28.1,42,36.1,67.2,2,6.4,3.7,13.3,5.4,19.9l51.3,189c2.2,7.6,3.9,15.4,5.2,23.2,1,5.8,2.3,28.1,4.3,30.6,7.4,2.3,11.2-9.4,16.2-9.3,33.8.6,74.7-5.3,107.3,1.8,7.1,1.5,8.8,40.3-8,37.3-32.2.8-65,2.4-97.2,1-4.4-.2-11.9-7.8-18.4-3.8-1.9,7-.1,32.1.3,40.6-5.4,1.1-34.7,6.2-38.4,5.4-2.5-8.9-1.9-20.8-1.6-30.2.6-20.2,1.5-68.2-6.8-84.8-.5-6.3-6.9-25.5-8.9-32.4-6.4-21.9-12.7-43.9-18.9-65.8l-21.4-80.5c-5.2-20.1-10-40.8-16.8-60.5-1.9-5.5-5.6-10-10.4-13.4-3.8-.6-7.2-.6-11,.2-12.7,2.4-25.3,6-38,8.8-11.5,2.6-25.6,3.3-36.1,8.4-9.8.7-14.9-10.4-16.6-18.3.3-17.9,1.4-10,9.8-19.9Z"/>
  <path fill="#8fc306" d="M916.1,684.4c7.2,3.1,24.6,9.1,27.7,15.2.3,17-3.5,47.5-5.5,64.8-3.6,28.4-7,56.8-10,85.2l-11.7,121.4c-1.8,18.9-2.8,47.5-7.9,65.7-4.3,15-32.2,21.3-47.1,15.9,9.7-55-19-97.8-29.2-148.6-1.3-6.7-1-12.9-2.1-19.3l-.3-1.9c.4-15.8,6.2-40.1,7.9-56.8,2.5-24.7,31.3-43.6,42.6-64.4,19.4-30.5,23.9-44.8,35.7-77.3Z"/>
  <path fill="#f0fca1" d="M901.8,777.1c-.3-4,4.3-29.9,5.3-34.6.9,8-.4,42.8-2.3,50.2l-.6.7c-4.6,58.8-12.1,117-18.6,175.6-1.7,14.9-5.3,32.5-6,47v1.5c-1.9-10.4,1.1-38.7,1.9-50.6,3.9-63.5,10.6-126.8,20.3-189.7Z"/>
  <path fill="#8dbe0d" d="M901.8,777.1c-.3-4,4.3-29.9,5.3-34.6.9,8-.4,42.8-2.3,50.2l-.6.7c-.6-5.7,1.9-20.5.5-25-2,2.2-2.3,5.6-2.9,8.7Z"/>
  <path fill="#8fc306" d="M1016.1,552.3c3.1-.1,5.2-2.5,8-3.3,17.1-5.2,43.3-4.2,60,1.9,1.6,6.3,1.3,14.2,1.2,20.9,2.9,4.9,4.4,7.7,6.7,13-.7,3.1-.9,3.8-1,7.1l-1.1,1.6c-4.5,6.5-1.9,31.8-5.2,42-2.1,6.5-8.2,14.3-8.8,17.5l1.3.5c16.2-8.6,16.6-39.6,16.6-55.9,0-.7,1.3-2,1.9-2.4,17.7,13.1,21.8,40.2,15.9,59.5-1.9,6.3,0,15-4.8,20.8-6.4,8.1-33.8,26.4-43.5,19.7-3.2-5.4-.7-28.6-1.2-37.7-12.2-11.4-31.3-6.3-49.3-10.5-6-3.8-6.3-4.8-8.4-11.7-.7-4.6-.3-4.5,1.6-7.7l-2-4.7-1.7-.9c-3-5.6-3.1-9,.9-14.4l.4-5.8c-8-4.1-8.1-17.9,1.6-20.3.9-3.1,0-6.2-.7-9.4l.6-3.7c.3-1.4.7-2.9,1-4.3,1.8-7,4-8.2,10.1-11.8Z"/>
  <path fill="#e1f87b" d="M1004.3,572.1l1.4-.8c.5,1.8,1.2,3.5,2,5.2,3.8,1.1,9.8-1.8,14.2-2.7,14.1-3.1,27.5-2.3,41.9-.8-14.6,2-29,2.9-43.4,5.5-4.5.8-12.1,4.1-15.4,3.1.9-3.1,0-6.2-.7-9.4Z"/>
  <path fill="#cdee58" d="M1003.4,601.8c7.4-1.4,45.1-2.4,53.1-1.4v.4c-17.2,1.9-36.4,3.3-53.1,6.8-.1,0-.3,0-.4,0l.4-5.8Z"/>
  <path fill="#cdee58" d="M1003.8,622.9c17,3.4,34.7,2.1,52,3.6-8.9,2-42.7,3.9-50,1.1l-2-4.7Z"/>
  <path fill="#8fc306" d="M601,139.9c12.9-2.4,29.8,0,42.9-2.2,37-6.2,74.3-8,111.4-14,4.6-.7,8.3.9,12.7,2.4,11.4,3.5,21,4.9,32.4,7.6,0,5.5-.3,20.2.5,24.9-1.6,3.6-1.2,4.4-3.9,6.2-12.2-.8-51.3-9.7-65.3-12.7-9.3-2.4-36.2-7.2-45.5-7.2l-.5,1.1c2.9,1.7,34.3,8.2,39,8.7,14.1,2.4,29.2,6.3,43.3,9.1,7.5,1.5,24.2,4.5,30.6,7,1.9,3.1,2.5,14.5.1,17.5-3.5.3-3.8.2-7.2-.1-13.5-1.6-185-38.4-188-40.7-2.6-1.9-2.2-4.6-2.6-7.6Z"/>
  <path fill="#8fc306" d="M1015.7,652.1c9.8.1,29.5,1.6,38.3,5.4.7,14.1-1,31.4.5,45.4-2.3,6-2.3,10.4-8.9,12.8-9.6,3.5-23.2,4-29-5.8.2-4.6-.7-13.3-.8-18.6-.4-13-.4-26.1-.1-39.2Z"/>
  <path fill="#8dbe0d" d="M1054.9,271.4c9.6.1,5.6,3.2,13.2,3.6,7.1.4,15.8-.5,22.6.8-6.4,3.7-12.2,2.2-19.6,1.4-1.5,38.4-.4,78.1-1.1,116.5-.3,14.5.9,50.1-2.4,61.9l-3.1,1.3c-2.1-1.4-4.4-10.5-4.4-13-.2-54.1.6-108.2.2-162.3,0-6.7-.6-5.8-5.3-10.3Z"/>
  <path fill="#fafdc9" d="M1267.7,702.2c.5.6,1,1.2,1.5,1.8.2,29.9.1,76.5.1,104.3v428.6c0,16.4.2,32.7,0,49.4-.7,44.3,2.2,88.8.7,133.2,0,.4,0,.7-.1,1.1-.7-.5-1.1-.8-1.6-1.5-2.7-3.4-1.4-97.3-1.4-108.4l.4-426.8.2-124.4c0-12-.9-47.5.4-57.2Z"/>
  <path fill="#8fc306" d="M998.8,575.9c-4.5,4.2-6.5,6.9-12.9,4.4-11.1-11.7-3-60.6,22.7-37.6-.4,2,.3,7,.4,6.6-2.9,7.4-6.7,10.8-8.5,19,0,1.2-1.3,5.9-1.8,7.6Z"/>
  <path fill="#505437" fill-opacity="0" d="M1008.3,671c1.2-7.7-.7-16.5,1.1-23.4l3.3-.5c18,4.1,37.2-1,49.3,10.5h-1.7c-2.2,0-1.3,0-3.1-.2-5.1,3.7,1.6,40.2-2.6,45.5-1.6-14,.1-31.3-.5-45.4-8.8-3.8-28.5-5.3-38.3-5.4-.3,13.1-.2,26.1.1,39.2.1,5.3,1,14.1.8,18.6-.9,5.1-.1,6.2-5.1,8.7-7.4-11.3-1-14.7-10.5-22.6,1.1-2.3.9-2.2,1.5-4.8l3.4-.4c3.9-4.3,2.4-13.7,2.4-19.8Z"/>
  <path fill-opacity="0" d="M614,135.5c17.1-.9,41.8-4.6,59-6.6,31.6-3.7,63.3-7.1,94.9-10.2-1.6,1.1-3.1,2.1-5,2.7l-1.9-.9-.9.9,2.9-.4-2.8.2c4.8.1,5.4.4,7.6,4.7-4.4-1.4-8.1-3.1-12.7-2.4-37.1,6-74.4,7.8-111.4,14-13.1,2.2-30-.2-42.9,2.2l.5-1.9c4.4-.7,9.5-.4,12.5-2.5Z"/>
  <path fill="#8fc306" d="M544.2,80.5c-.5-23.2,33.5-19.8,47.8-14.6,1.3,3.4,2,4.6,2.3,8.4-5.6,4.5-39.9,7-47.3,6.5h-1.8c-.4-.1-.7-.2-1.1-.2Z"/>
  <path fill-opacity=".3" d="M1008.9,430.7c8.3,16.6,7.4,64.6,6.8,84.8-.3,9.4-1,21.3,1.6,30.2,3.7.9,33-4.2,38.4-5.4-.4-8.5-2.2-33.6-.3-40.6,1.4,5.4,2.2,36.5.4,41.2-2.4,1.4-3.1,1.8-5.7,2.8,8.9,1.9,28.6-.5,33.9,7.3-16.7-6.1-42.9-7.1-60-1.9-2.7.8-4.9,3.2-8,3.3.4-.7,2.7-2.5,3.4-3l.9-.7c-2.4-.5-2.4-.5-4.7-1.7-3.8-6.6-.1-62-1.2-76-.7-9.3-5.5-33.7-5.5-40.2Z"/>
  <path fill-opacity="0" d="M731.7,152c14,3,53.1,11.9,65.3,12.7,2.7-1.9,2.3-2.6,3.9-6.2,0,8.5,2.7,23.6-.1,30.1-3.8,3.1-5,1.8-9.1-.5,3.3.4,3.7.5,7.2.1,2.4-3.1,1.8-14.4-.1-17.5-6.4-2.5-23.2-5.5-30.6-7-14.1-2.8-29.3-6.7-43.3-9.1l-1.5-2,.8-.8c2.9.2,4.8.2,7.6,0Z"/>
  <path fill-opacity="0" d="M1091.9,584.8c.8,3.4.8,4.5.6,8,1.5,2.2.6,1.4,3,2.4-.6.4-1.9,1.7-1.9,2.4,0,16.3-.4,47.3-16.6,55.9l-1.3-.5c.6-3.2,6.7-11,8.8-17.5,3.3-10.2.7-35.5,5.2-42l1.1-1.6c.2-3.3.4-4,1-7.1Z"/>
  <path fill="#e1f87b" d="M536.2,141.4c18.7-7.4,42.1-6.3,61.6-5.4,4.9.2,10.6-.5,16.2-.4-3,2.1-8,1.8-12.5,2.5-2.5.1-6.1,0-8.2.9.7.8,1.6,1.8,2.7,3,.8,25.2.2,50.6.2,75.9,0,1.7-.2,2.3-.7,3.4-2.6-12.6,1.8-61.2-1-76.6-.3-1.8-1.7-3.6-3.4-3.9-10.6-2.3-35-2.6-44.7,1.2-2.5,2.7-2.7,5.5-3.5,9.2-.6-4.8,1-7.4-.6-9.4l-6.2-.3Z"/>
  <path fill-opacity=".2" d="M594.4,74.2l-.7,2.8c3.4,1.7,9.1,0,14.2.6-11.4,2.2-73.7,10.5-83.2,9.9,3.1-3,15.6-1.6,22.4-4.5l-2.8-2.5c.4,0,.7,0,1.1,0h1.8c7.5.6,41.8-1.9,47.3-6.4Z"/>
  <path fill-opacity=".2" d="M724.8,154.7c-4.7-.5-36.1-7-39-8.7l.5-1.1c9.3,0,36.2,4.8,45.5,7.2-2.8,0-4.8.2-7.6,0l-.8.8,1.5,2Z"/>
  <path fill="#fafdc9" d="M608.7,1197.8c3.7.2,9.4-.4,11.4,2.9v3.9c-5.9.6-24.6-.8-30.3-2.5,6.4-3.2,12.9,2.1,18.9-4.3Z"/>
  <path fill-opacity=".6" d="M828.8,183.1c-2.1-7.2-2-27.6,6.8-29.7-1.7,2.9-1.8,3-2.8,6.2,2.7-.8,5.5-2.4,7.9-2.4-8.4,9.9-9.5,2-9.8,19.9l-2.1,6Z"/>
  <path fill="#cdee58" d="M828.8,183.1l2.1-6c1.7,7.9,6.8,19,16.6,18.3,3.4.3,5.6.3,8.8,1.3l-1.2,1.4c-10.8,1.1-22.6-4.3-26.3-15Z"/>
  <path fill="#fafdc9" d="M592,65.9c5.6,2.2,5,2.6,7.1,8.3,3.8,2.6,16.5.8,23.1,1.7-1.8.2-13.3,1.5-14.4,1.8-5-.6-10.7,1.2-14.2-.6l.7-2.8c-.3-3.7-1-4.9-2.3-8.4Z"/>
  <path fill-opacity=".3" d="M1008.6,542.8c1.8,4.1,2,5.2,1.6,9.7l1.2.9,4.6-1c-6.1,3.6-8.3,4.8-10.1,11.8-.4,1.4-.7,2.9-1,4.3h-4.4c1.8-8.3,5.5-11.7,8.5-19.1-.1.4-.9-4.6-.4-6.6Z"/>
  <path fill-opacity=".1" d="M1004.2,635.4c2.1,6.9,2.4,7.9,8.4,11.7l-3.3.5c-1.8,6.9.2,15.7-1.1,23.4-1.7-10.2,3-19.3-6.1-26.7l1.9-1c.4-3.3.3-4.6.1-7.9Z"/>
</svg>