<?xml version="1.0" encoding="UTF-8"?>
<svg id="_레이어_1" data-name="레이어_1" xmlns="http://www.w3.org/2000/svg" version="1.1" xmlns:xlink="http://www.w3.org/1999/xlink" viewBox="0 0 1625.9 842">
  <!-- Generator: Adobe Illustrator 29.3.1, SVG Export Plug-In . SVG Version: 2.1.0 Build 151)  -->
  <defs>
    <style>
      .st0 {
        fill-opacity: .2;
      }

      .st0, .st1, .st2, .st3, .st4, .st5, .st6, .st7, .st8, .st9, .st10, .st11, .st12, .st13, .st14, .st15, .st16, .st17, .st18, .st19, .st20, .st21, .st22, .st23, .st24, .st25, .st26 {
        fill: #e2fc87;
      }

      .st1 {
        fill-opacity: .3;
      }

      .st27 {
        fill-opacity: .4;
      }

      .st27, .st28, .st29, .st30, .st31, .st32, .st33, .st34, .st35, .st36, .st37, .st38, .st39, .st40, .st41, .st42, .st43, .st44 {
        fill: #c4f35f;
      }

      .st2 {
        fill-opacity: 0;
      }

      .st28 {
        fill-opacity: .3;
      }

      .st3 {
        fill-opacity: .2;
      }

      .st29 {
        fill-opacity: .4;
      }

      .st4, .st44 {
        fill-opacity: .4;
      }

      .st5, .st33 {
        fill-opacity: .3;
      }

      .st30, .st22 {
        fill-opacity: .2;
      }

      .st31 {
        fill-opacity: .6;
      }

      .st6, .st40 {
        fill-opacity: .3;
      }

      .st7 {
        fill-opacity: 0;
      }

      .st45 {
        fill: #7cc30e;
      }

      .st34 {
        fill-opacity: .5;
      }

      .st8 {
        fill-opacity: .2;
      }

      .st9 {
        fill-opacity: 0;
      }

      .st10 {
        fill-opacity: .3;
      }

      .st35 {
        fill-opacity: .4;
      }

      .st11 {
        fill-opacity: .1;
      }

      .st36 {
        fill-opacity: .6;
      }

      .st37 {
        fill-opacity: .6;
      }

      .st12 {
        fill-opacity: .1;
      }

      .st38 {
        fill-opacity: .2;
      }

      .st13 {
        fill-opacity: .1;
      }

      .st39 {
        fill-opacity: .5;
      }

      .st14 {
        fill-opacity: .2;
      }

      .st15 {
        fill-opacity: .2;
      }

      .st41 {
        fill-opacity: .2;
      }

      .st16 {
        fill-opacity: 0;
      }

      .st17 {
        fill-opacity: .2;
      }

      .st46 {
        fill-opacity: 0;
      }

      .st46, .st47, .st48 {
        fill: #eefaae;
      }

      .st18, .st47 {
        fill-opacity: 0;
      }

      .st42 {
        fill-opacity: .6;
      }

      .st19 {
        fill-opacity: .2;
      }

      .st20 {
        fill-opacity: 0;
      }

      .st43 {
        fill-opacity: .3;
      }

      .st21 {
        fill-opacity: .1;
      }

      .st23 {
        fill-opacity: 0;
      }

      .st24 {
        fill-opacity: .2;
      }

      .st48 {
        fill-opacity: 0;
      }

      .st25 {
        fill-opacity: .3;
      }

      .st26 {
        fill-opacity: .3;
      }

      .st49 {
        fill: #85d00a;
      }
    </style>
  </defs>
  <path class="st49" d="M606.3,136.3c27.9-33.9,57-62.4,98.2-78.3,27-10.4,50.6-17.5,76,.9,7.1-.3,18.7-7.3,24.2-7.2,20.3.4,44.7-1.2,64.7,2.3,9,1.5,19.1,13.1,27.9,15.7,23.9,5.1,30.1,1.9,52,14.5,5.8,3.7,8.3,5.4,15.3,6.8,26.8,0,64.2,12,87.7,25.2-4,11.7-8.2,18.1-14.8,28.5-3,6.6-5.9,12.3-9.3,18.7-26.7,12.8-42.2,24.3-58,49.9,8-5.6,16.7-16.8,21.5-19.9,5-4.6,23.7-18.4,30.2-16.6,2.1,5-8,23.8-9.6,29.8-.6,2.2-3.2,9.4-4.1,11.5-3.6,14-11.5,34.9-13.4,48.7-1.3,5.6-4.9,25.1-8.8,28-15.4-2.5-51.7-11.6-65.1-8.7-28.4,6.3-60.8,26.9-89.9,35.4-14.9,4.7-30.5,8.1-46.1,8.5-11.5.3-23.7-.7-35,1.6-15.7,3.2-29.6,12.3-46.1,14.8-19.6,3-86.8,1.5-104.4-5.1-10.1-3.8-17.8-11.4-27.4-15.9-13.9-6.5-26.1-11-38.5-20.5-5.2-4.1-8.5-7.6-13.2-12.3-7.8-8.1-12.4-12.7-18.1-22.4-7.6-13-11-37.5-23.8-45.8,0,3.3,0,3.7-1,6.9-9.7,6.4-47-20.6-55.1-27.1-12.3-9.9-22.3-23.7-32.2-36.1-2.5,1.5-3.5,2.2-6.3,3.2-21.1,9.1-32.3,13.1-54.7,12.8-18.2-1-48.9-8.2-64-5.1l-5.5,1.1c-9.4,3.4-18.7,5-28.2,7.9-11,3.2-31.3,8.8-40.4,14.7-11.5,32.2-12.1,39.2-43.8,54.6-.2,6.1-1.1,18.9,1.3,23.8,11.9,9.9,75.5-6.6,79.1,19.9.6,4.4-2,11.4-1.6,14.7,1.4,9.9,4.2,10-2.5,19.1,6.1,14.7,2,11.7,2.9,25.2,1.9,28.5-6.2,26.9-32.6,29.6,3.2,10.6,4.9,22.1-9.1,24.7-32.1,6.2-68.1,5.8-100.5,2-17.5-2.1-20.6-7.6-17.9-24.1l-1.1-3c-8.4.5-18.6-1.3-26.5-4.7-7.2-14.5.5-14.4-.9-24.4-1.9-14-5.4-6.7,0-22.6-3.3-11.2-1.9-12.9-.3-24.3.5-3.8-3.2-11.5-1.5-15.2,9.4-21,63.5-7,77.5-16,3-4.5,1.5-24.2,1.5-30.6,2.9-1.3,7.8-2.8,11-3.8,7.6-3.5,14.8-.4,20.6-5.9l-.2-1.5c-6.3-1.4-20,3.5-26.5,5.6-6.2,1-31.4,4-28.4-11.2,1-5.1,10.4-9,15-10.9-5.1-.9-16.1-.5-17.9-5.9-4.7-14.3,6.1-12.9,12.5-17l.2-1.7-1.4-1.2c-4.3-.3-7.9,0-10.9-2.9-5-10.8,5-11.1,6.7-17.9-.4-.8-.9-1.5-1.3-2.3-5.1-9.7,7.2-14.9,14.2-18.3,12.4-6,25.6-10.5,39.1-12.8,7-1.2,21.6,3.6,27.2.9,11.4-7.8,30.4-14.9,43.5-19.5l1.7-.7c11.7-4.9,23.1-13.2,34.2-20,30.4-18.5,72.7-41.1,108.8-30.9l.9-.3c7.8-2.5,32.5-14.5,37.2-9.6,7.4,7.8,14.7,19,25.6,26.9-1.9-7.4-3.3-11.4-6.1-18.5,13,4.7,24.3,12.6,37.3,18.6,13.1,6,29.2,8.6,41.3,13.7,35.2,14.8,57.9,35,80.4,66.2,13,17.9,33.9,47.5,49.9,60.7-7-11.1-28.7-44.4-33.2-54.4,2.4-10.8,39.8.3,46.8,1.7,8.3,2.4,14.6,4.7,22.7,7.8-5.1,2.9-25.5,9.7-26.5,12.5,4.3,1.9,16.3-.6,21.2-1.5,33.3-6.3,60.4,3,92.4,9.4-12.1-9.7-38.6-18.3-53.6-20.7l-1.5-.2c-3.1-.5-5.4-.6-7-2.8,2.8-4.1,12-9.4,16.4-12.2,8.4-7.5,30.4-21.8,36.5-30.6,7.9-6.8,11.9-10.2,17.3-19.5,6.7-11.5,21-43.7,18-56.1-7.2,11.8-9.7,28.7-15.5,39-15.7,27.7-63.8,62.1-93,72-37.8-7.5-38.7-15.1-80.8-8.6-13.6-18.4,6.2-15.9,17.1-30.9ZM549.8,296c5.4,3.6,19.5,13.7,25.3,13.8-1.3-1.6-5-4.5-6.8-5.7-15.2-9.9-23.3-24.8-37-36.4,4.7,11.2,10.4,19.6,18.5,28.4ZM210.3,141.3c-5.9-1.5-22.7,4.8-26.4,10.6,7.3,0,20.1-6.6,26.4-10.6ZM876,107.3c1.5,2.9,7.8,5.2,11.1,6.6,8,3.5,21.8,15.9,28.8,18,8.9,2.6,17.4,1.4,27.6,4.7l10.7,5.7c-3.6,2.8-9,6.7-12.2,9.7,5.8-2.4,16.3-7.1,22.1-8,10.4-1.7,38.7-2.8,43.4-4.5l-1.8.5-.9-1.8c-13.9-2.4-33-1.6-46.9.7-4.7-3.9-10.2-8.8-15.4-11.6h-1.9c-4-1.3-20.1-.3-27-2.6-11-3.7-15.9-9.7-21.5-19.6,1.8-11,2.3-20.7,15.4-20.4l4.8-.4.4-.6c-11.4-1.4-16.7-1.1-26.5-7.3,1.9,7.1,5.4,19.2,2,26.3-2.1,4.4-7.7,4.3-12.1,4.6ZM442,180.5c5.2,9.1,12.6,14.5,21.2,19.7-3.5-5.3-6.6-10.4-10.9-15.1-23.9-25.9-20.7-65.7-62.7-79.2,8.7,9.2,15.6,10.3,23.7,20.5,12.1,15.1,17.2,40.4,28.7,54.1ZM318.5,94.2c-21.4,2.5-40.9,9.2-57.3,24.5,9.5-3.9,20.1-8.6,29.8-11.7,31.2-9.9,34-6.8,63.5-9.8-15-3-20.5-4.4-36-3.1ZM498.3,123.8c-3.4-5-14.4-14.3-20.3-14.9l-1,1c6,7.4,11.8,8.2,19.6,19,3.8,4.9,14.2,25.4,15.3,31.2-5.9-.4-23.8-2.3-28.2.1,2.1,2.6,31.8,7.4,36.4,7.3l.8-1.5c-.9-2-.2-1.4-1.6-2.2l-3.5-5c-4.1-11.5-10.4-25.6-17.7-35.2ZM873.7,176.9c3.9-2.2,6.5-8.2,8.7-12.4-5.9,3.7-12.3,9.1-17.6,13.6-5.9,3.6-18.5,8.8-21.1,12.9,7.2,5.3,24.6-8.8,30-14.1ZM877.4,241.7c-3.1-3.3-34-23.9-39.2-24.3,7.7,10.6,25.8,25.1,39.2,24.3ZM554.8,226.6c-12.2-.5-27.2-.2-39.6,0-6-2.6-15.1-4.1-21.8-6.5,5.6,4.8,11.3,9.4,18.9,10.2,15,4.8,28.3.7,42.5-3.7ZM973.7,101c-4.9-2.8-20.5-2-28.2-2.8-.4,7.5-3.2,15.2-1.9,20.4,11.5-14.6,10-13.2,30.1-17.6ZM854.9,144.8c-3.9,2.5-25.3,16.7-26.8,19.6v1.2c10.1-2.5,21.1-10.7,26.9-19.4v-1.4ZM810,136.6l.9-.8c5.1-4.6,19.7-14,20.9-18.5l-1.7-.4c-5.7,2.7-20.3,11.5-22.4,17.3,1.2,2.1.4,1.3,2.3,2.4ZM612.5,272.3c3.1,3.9,7.8,10.9,11.1,13.3l.2-1.6c-1.5-5.1-4.8-10.8-8.6-14.5-15.6-17.9-22.9-19.2-43.3-28.3l-2.5,1.5c2.4,2,11.2,6.4,14.5,8,9.2,4.7,16.1,9.5,23.6,16.8l4.9,4.8ZM669.2,316.5c21.4,9,36.3,13.8,54.5-5.4,4.4-6.6,12.2-21.5,1.6-26.4-3.8,4.2,4.6,7.8-2.5,21.7l-.6,1.2c-15.6,17.3-34.1,8-53,8.9ZM837.5,83.1c-4.5-7.7-9.2-12.5-4.5-20.8-4.6-1-11-3.1-13.7,1.9,3.4,6.2,5.2,9.7,9.4,15.3,4.9,8.6,15.8,18.7,23.7,24.6-2.1-3.7-11.9-18-14.9-21ZM786.5,109.6c-3.5,3.4-3.8,2.7-5,6.7l1,3.4,3-.9c3.9-5.9,14-14.2,19.7-20.2-6.7,2.7-12.1,7.5-18.7,11ZM829.8,177.3c-4.1,12-8.4,19.6-14.4,30.7l.4.9,1.1.3c8-3.7,11-5.8,14.6-14.3,1.9-4.5,1.9-14-1.7-17.5ZM645.2,227.6c3.9,8.6,15.6,19.5,22.3,26.7,4.8,5.2,14.4,19,18.7,22.3-.5-11-31.8-46.4-41-49ZM809.2,147.1c-5.6,12.8-7.9,25.7-16.1,36.7v1.7c0,0,2.3.3,2.3.3,10.9-6,25.4-30.2,13.8-38.8ZM247.2,152.4c32-6.2,43.3-12,76.8-11.3-7.5,3.7-16.3,7.2-21.8,13.4,9.1-3.4,26.4-9.6,33.8-15,9.2-5.2,17.9-10.2,27.7-14.2,5.5-2.2,11.4-3.1,16.3-5.5l-.3-1.2c-11.8-4.6-32,7.1-43.5,12-13.9-.3-60.7,11.7-76.4,15.7-3.6.9-9.2,4.2-12.5,6.2Z"/>
  <path class="st21" d="M531.3,267.6c13.7,11.7,21.8,26.5,37,36.4,1.8,1.2,5.5,4.1,6.8,5.7-5.8,0-19.9-10.2-25.3-13.8-8.1-8.8-13.8-17.2-18.5-28.4Z"/>
  <path class="st27" d="M183.9,151.9c3.6-5.8,20.4-12.1,26.4-10.6-6.2,4-19.1,10.7-26.4,10.6Z"/>
  <path class="st45" d="M549.8,296c5.4,3.6,19.5,13.7,25.3,13.8,5.1,1.7,8.9,5.9,8.6,11.9-.7,13.8,25.4,14.7,34.6,19,7.1,3.3,27.3-1.7,35.5-1.3,11.6-.2,27.6-.7,38.6.3,3.5.3,33.8-4.7,35.7-5.9,21.1-12.9,24.4-7.2,45.1-7.9,19.8-.6,36.2-5.4,57.4-4.3-14.9,4.7-30.5,8.1-46.1,8.5-11.5.3-23.7-.7-35,1.6-15.7,3.2-29.6,12.3-46.1,14.8-19.6,3-86.8,1.5-104.4-5.1-10.1-3.8-17.8-11.4-27.4-15.9-13.9-6.5-26.1-11-38.5-20.5,6.8-.2,13.2,2.1,17.7-3.4-.2-2-.5-3.7-.9-5.6Z"/>
  <path class="st45" d="M991.4,193.5c5-4.6,23.7-18.4,30.2-16.6,2.1,5-8,23.8-9.6,29.8-.6,2.2-3.2,9.4-4.1,11.5-1.2-14.9,3.9-27.2-16.4-24.7Z"/>
  <path class="st45" d="M218,125.4c-2.6,2.9-6.2,6-7,9.2,2.2,1.4,2.6,1.1,5.3,1.2l.5,1.2c-2.1,1.7-4.4,4.3-6.5,4.3-5.9-1.5-22.7,4.8-26.4,10.6-2-.2-1.5-.3-3.4-1.4-.1-2.8.1-2.8-1.3-5.2l-4.7-.4c11.4-7.8,30.4-14.9,43.5-19.5Z"/>
  <path class="st32" d="M64.8,389.4c6.5-.5,17.8,1.4,24.8,1.8,16.2.9,42.4,3.9,58,2.8l.3.8c-11.1,3.8-70.9,4.2-80.9,0l-1.2-2.5-1.1-3Z"/>
  <path class="st45" d="M231,188.2c.4-1.3.9-2.5,1.3-3.8-4.3-.5-13-1.6-16.3-4,5.6-3.4,35.2-.6,43.1,0-9.4,3.4-18.7,5-28.2,7.9Z"/>
  <path class="st45" d="M949.2,84.2c5.8,3.7,8.3,5.4,15.3,6.8-6.9,0-21.3,5.6-24.5-.1,2.4-7.2,3.6-1.1,9.2-6.6Z"/>
  <path class="st48" d="M886.1,76.4c9.8,6.2,15.1,5.9,26.5,7.3l-.4.6-4.8.4c-13.1-.3-13.6,9.4-15.4,20.4,5.6,9.8,10.4,15.8,21.5,19.6,6.9,2.3,23,1.3,27,2.6,2.3,1.8,9.1,6.8,10.4,8.8-.3.4-.6.7-1,1.1-2.2-.3-4.2-.6-6.4-.6-10.2-3.3-18.7-2.1-27.6-4.7-7.1-2.1-20.9-14.5-28.8-18-3.3-1.4-9.6-3.8-11.1-6.6,4.4-.3,10-.2,12.1-4.6,3.4-7.1,0-19.2-2-26.3Z"/>
  <path class="st11" d="M389.6,105.9c42,13.4,38.8,53.2,62.7,79.2,1.3,3.3,1.3,2,1.1,5.2-2.5-.5-7.8-6.8-10.8-9.3l-.6-.5c-11.5-13.7-16.6-39-28.7-54.1-8.2-10.2-15-11.3-23.7-20.5Z"/>
  <path class="st13" d="M318.5,94.2c15.5-1.3,21,0,36,3.1-29.5,2.9-32.3-.2-63.5,9.8-9.6,3.1-20.3,7.8-29.8,11.7,16.4-15.3,35.9-22,57.3-24.5Z"/>
  <path class="st23" d="M336.1,130.4c11.5-4.9,31.7-16.6,43.5-12l.3,1.2c-4.9,2.4-10.9,3.3-16.3,5.5-9.8,4-18.5,9-27.7,14.2-11.7,1-23.1-.6-35.2-.5,11-3.1,25-4.7,35.5-8.5Z"/>
  <path class="st28" d="M247.2,152.4c3.3-2.1,8.9-5.3,12.5-6.2,15.7-4,62.5-16,76.4-15.7-10.5,3.8-24.5,5.4-35.5,8.5,12.1-.1,23.5,1.5,35.2.5-7.4,5.4-24.7,11.6-33.8,15,5.5-6.2,14.3-9.7,21.8-13.4-33.5-.7-44.8,5-76.8,11.3Z"/>
  <path class="st46" d="M809.2,147.1c11.6,8.6-2.9,32.8-13.8,38.8l-2.2-.3v-1.7c8.1-11,10.4-23.9,16-36.7Z"/>
  <path class="st3" d="M722.1,307.6l1.5,3.5c-18.2,19.3-33.1,14.4-54.5,5.4,18.8-.9,37.4,8.4,53-8.9Z"/>
  <path class="st25" d="M645.2,227.6c9.1,2.5,40.5,38,41,49-4.3-3.3-13.8-17.1-18.7-22.3-6.7-7.2-18.4-18.1-22.3-26.7Z"/>
  <path class="st1" d="M572,241.3c20.4,9.1,27.7,10.3,43.3,28.3l-.4,2.5-2.4.3-4.9-4.8c-7.6-7.3-14.4-12-23.6-16.8-3.2-1.7-12.1-6-14.5-8l2.5-1.5Z"/>
  <path class="st23" d="M829.8,177.3c3.5,3.5,3.6,13,1.7,17.5-3.6,8.6-6.6,10.7-14.6,14.3l-1.1-.3-.4-.9c6-11.1,10.3-18.7,14.4-30.7Z"/>
  <path class="st20" d="M945.5,98.2c7.7.9,23.4,0,28.2,2.8-20.1,4.3-18.7,2.9-30.1,17.6-1.3-5.3,1.5-12.9,1.9-20.4Z"/>
  <path class="st24" d="M838.3,217.4c5.2.4,36,21.1,39.2,24.3-13.4.8-31.5-13.7-39.2-24.3Z"/>
  <path class="st32" d="M909.7,257.4c13.7,2.5,24.6,6.5,41,8.9v1.6c-11.6,3.5-34.3,1.2-41-10.5Z"/>
  <path class="st28" d="M957.9,138.9c14-2.3,33-3.1,46.9-.7l.9,1.8,1.8-.5c-4.7,1.7-33.1,2.8-43.4,4.5,3.6-2.7,8-3.4,12.4-4.5-5.3,0-13.6.4-18.6-.6Z"/>
  <path class="st20" d="M819.3,64.2c2.8-5,9.2-2.9,13.7-1.9-4.7,8.3,0,13.1,4.5,20.8l-1.2,2-1.5-.2c-2.2-2.1-3.7-3.5-6.1-5.4-4.3-5.6-6.1-9.1-9.4-15.3Z"/>
  <path class="st19" d="M940.5,127.3h1.9c5.2,2.8,10.7,7.7,15.4,11.6,5,1,13.2.6,18.6.6-4.4,1.1-8.9,1.8-12.4,4.5-5.8.8-16.2,5.5-22.1,8,3.2-3,8.6-6.9,12.2-9.7l-10.7-5.7c2.2,0,4.2.4,6.4.6.3-.4.7-.7,1-1.1-1.3-2-8.1-7-10.4-8.8Z"/>
  <path class="st8" d="M496.6,128.9c-.7-2.7-.7-2.1-.7-4.8l2.4-.3c7.3,9.6,13.6,23.6,17.7,35.2l-4.3,2.6.2-1.4c-1.1-5.9-11.5-26.4-15.3-31.2Z"/>
  <path class="st9" d="M864.8,178.2c2.5-1.1,4.8-2,7.4-3,1.4,1.3,1,.7,1.6,1.8-5.4,5.3-22.8,19.4-30,14.1,2.6-4,15.2-9.2,21.1-12.9Z"/>
  <path class="st33" d="M515.2,226.6c12.4-.1,27.4-.5,39.6,0-14.2,4.4-27.5,8.5-42.5,3.7,5.7-.7,13.4,0,21.3-.8-5.9-.6-13-.4-18.4-2.8Z"/>
  <path class="st35" d="M519.4,164c1.3.8.7.2,1.6,2.2l-.8,1.5c-4.6,0-34.3-4.7-36.4-7.3,4.3-2.5,22.3-.5,28.2-.1l-.2,1.4h-12.6c5.5,2.2,13,3.4,19,4.6l1.3-.7v-1.6Z"/>
  <path class="st5" d="M830,116.9l1.7.4c-1.2,4.5-15.8,13.9-20.9,18.5l-.9.8c-1.9-1.1-1.1-.3-2.3-2.4,2.1-5.8,16.7-14.6,22.4-17.3Z"/>
  <path class="st4" d="M854.9,144.8v1.4c-5.7,8.7-16.7,16.9-26.7,19.4v-1.2c1.3-2.9,22.8-17.1,26.7-19.6Z"/>
  <path class="st14" d="M493.4,220.1c6.7,2.4,15.8,3.9,21.8,6.5,5.4,2.4,12.5,2.3,18.4,2.8-7.9.9-15.6.2-21.3.8-7.6-.9-13.3-5.4-18.9-10.2Z"/>
  <path class="st34" d="M722.1,307.6l.6-1.2c7.2-14-1.2-17.5,2.5-21.7,10.5,4.9,2.8,19.8-1.6,26.4l-1.5-3.5Z"/>
  <path class="st39" d="M805.3,98.6c-5.7,5.9-15.8,14.3-19.7,20.2l-3,.9-1-3.4c1.2-4,1.5-3.4,5-6.7,6.7-3.5,12-8.2,18.7-11Z"/>
  <path class="st29" d="M496.6,128.9c-7.8-10.8-13.7-11.6-19.6-19l1-1c5.9.6,16.9,9.9,20.3,14.9l-2.4.3c0,2.8,0,2.1.7,4.8Z"/>
  <path class="st26" d="M828.7,79.5c2.3,1.9,3.9,3.3,6.1,5.4l1.5.2,1.2-2c2.9,3,12.7,17.3,14.9,21-7.8-5.8-18.8-16-23.7-24.6Z"/>
  <path class="st40" d="M442,180.5l.6.5c3,2.5,8.3,8.8,10.8,9.3.2-3.2.2-2-1.1-5.2,4.3,4.7,7.4,9.8,10.9,15.1-8.6-5.2-16-10.6-21.2-19.7Z"/>
  <path class="st37" d="M615.3,269.6c3.7,3.7,7.1,9.4,8.6,14.5l-.2,1.6c-3.4-2.4-8-9.4-11.1-13.3l2.4-.3.4-2.5Z"/>
  <path class="st0" d="M516,158.9l3.5,5v1.6c0,0-1.4.7-1.4.7-6-1.2-13.4-2.4-19-4.7h12.6c0,0,4.3-2.6,4.3-2.6Z"/>
  <path class="st10" d="M864.8,178.2c5.3-4.5,11.8-9.9,17.6-13.6-2.2,4.1-4.8,10.1-8.7,12.4-.6-1.1-.2-.5-1.6-1.8-2.6,1-4.8,1.9-7.4,3Z"/>
  <path class="st49" d="M337.4,202.9c2.4-5.5,3.6-8.4,9.5-10.2,15.5-4.6,27.3-8.2,42.2-14.7,25,36.2,48.7,51,89.6,64.2,12.5,26.4,16,36.1,35.9,58.3,1.1,3.9,1.7,3.4.4,6.1l-1.4.5c-10.8,4.1-40.3,22.1-52.1,29.2,17,2.2,36.2.6,53.4.9,17.9.3,36.4-.2,54.2.9,10.8.7,20.9,9.8,31.3,12.6,27.6,6.2,57.8,4.3,86,5.4,8.5.3,36.8-3.3,44.2-7.1,25-12.9,39.3-10.1,66.7-10.4,26.5-.3,53-.3,79.5-.2,46.3.1,98.9-1.5,144.4,0,29.9,24.9,85.7,29.8,123.1,25.7,14.7-1.6,28.1-8.1,42.5-9.7,13.6-1.5,73.4,11.7,89,15.8,6.1,1.6,20.4,7.6,25.1,2.4,1.1-4.8.5-9.6,2.7-12.5,11.5-6,45.5-2.2,60.2-7.3,2.7-.9,24.9-5.4,26.7-5.2.7,1.2,1.2,1.5.6,2.5-6.3,11.6-16.1,23.3-22.7,34.8-6,10.4-9.4,19.1-13.6,29.8-6.7,3.9-65.1,2.4-75.8,2.4h-168.1c0,0-562.3.4-562.3.4l-135.6-.5c-22.5,0-45.5.9-68,.6-4.7,0-7.8-1.3-11.6-4.1-5.6-8.1-7.9-12.4-8.6-22.6-1.4-23.4,2.1-33.4,22.1-45.3,14.8-8.8,26.7-8.8,43.3-9.8-17.9-8.6-32.3-16-42.4-34.3-10.1-18.2-12.4-32.7-13.5-53.1-.2-4.3-3.3-12.4-3-17.3.7-9.2,3.7-19.4,6.1-28.4ZM476.8,363.6c14.5-.2,33-.9,47.4-3.4-32.5-3.1-64.1-3.7-96.7-3.6-18.7,0-38.7-.6-57.3.3-5.8.6-16,1.6-19.4,6.9-3.2,4.8-6.2,14.9-3.6,20.6l1.6.8c3.7-6.6,2.3-17.6,13.9-19.7,13.6-2.5,32.7-1.5,46.7-1.4,22.5.4,44.9.2,67.4-.5Z"/>
  <path class="st45" d="M333.3,413.7c11.7-.3,23.5-.6,35.2-.7,6.2,0,16.1.8,21.6-.2-4.5-4.6-15.2-.2-19.3-2,19.5-5,37.6-.1,57,.1,7.2,0,15.8-1.5,23.6-1.5,61.6.3,123.6,1.2,185.2,1.3l395.3,1.4,245.4-.8c27.2,0,50.8-3.3,77.4,3.4-6.7,3.9-65.1,2.4-75.8,2.4h-168.1c0,0-562.3.4-562.3.4l-135.6-.5c-22.5,0-45.5.9-68,.6-4.7,0-7.8-1.3-11.6-4.1Z"/>
  <path class="st36" d="M370.3,356.8c18.6-.9,38.6-.3,57.3-.3,32.6,0,64.2.5,96.7,3.6-14.4,2.5-32.9,3.2-47.4,3.4-22.4.7-44.9.9-67.4.5-14-.1-33.1-1.1-46.7,1.4-11.6,2.1-10.2,13.1-13.9,19.7l-1.6-.8c-2.6-5.7.4-15.7,3.6-20.6,3.4-5.3,13.6-6.3,19.4-6.9ZM465.3,361.8c8.2-.2,18.7-.2,26.6-1.4-8.7-2.8-110.2-3.1-122.9-1.8-9.3,1.4-18.2,2.3-20.3,14.3l.7,1.4c4.2-4.8,7.2-10.6,14.6-11.1,33.1-2.1,68.2-.5,101.2-1.4Z"/>
  <path class="st12" d="M369,358.6c12.7-1.3,114.2-.9,122.9,1.8-7.9,1.2-18.4,1.2-26.6,1.4-33.1.8-68.1-.8-101.2,1.4-7.4.5-10.4,6.3-14.6,11.1l-.7-1.4c2.1-12,11-12.9,20.3-14.3Z"/>
  <path class="st49" d="M1334.5,150.5c34.1,1.6,67.9,16.5,99.7,28.5,13,4.9,33.9,12.8,46,19.2,6.1,2.6,8.4,3.8,14,7.4,12.4,8.4,18.7,19.8,30.8,27.1,9.7,5.6,14,14.4,16.8,25.2,2.1,8.1,3,16.5,2.8,24.8-.4,17.3-8.2,59.4-13.9,75.2-8.7,24.2-19.1,35.6-23,63.4-8.1,57.4-42.7,111.4-60.5,164.7-2.8,8.5-5.2,17.2-7.2,25.9-1.9,8.5-7.1,45.8-12.9,50.4-8.9,6.9-14.1,8.4-21.6,19.6.2,3.4,1.8,14.7-1,16.5-30.7,21.1-44.8,9.3-58-19.5,2.6-9.1,7.2-24,8.8-33,2.9-16.3,4.2-35.9,5.7-52.7,1.8-19.9,3.8-41.2,4-61.1,0-10.3-3.3-23.3-5.6-33.4-8.2-34.9-7-53.9,6.6-86.6,11.2-27.1,27.6-48.8,44.9-72.1,2-2.7,3.2-3.9,2.3-6.5-10.5-4.7-99.6,27.2-112.1,12.5-2.2-9.3,3.1-46.9,4.3-59.5,21.1,2.8,51.2,2.8,72.2-1.4,10.2-2,20.6-6.2,30.3-8.1-7.5-1.3-22.6,1.1-30.5,1.6-16.2,1.1-65.1,2.9-78.7-2.4-4.6-1.6-11.2-4.4-11.7-9.7,3.4-5.7,13.5-7.8,20.3-11.2l1-.5c2.3-10.5,3-23.5,5-33.8,3.7-19.6,12.3-53.4,21.4-70.7ZM1477.4,254.6c.3-1.2.7-2.4,1-3.5,2.8-10.6,3.1-17-2.3-26.6l-.6-4.4c-1-2.7-14.4-12.6-17.7-14.9-18.6-8.6-32.6-14.2-52.7-18.7-12-4.1-36.1-7.4-48.7-7.4,5.2,2.1,49.3,14.8,53.2,14.5,19.7,6,45,15.5,58.8,32.1,6.1,11.9,6.5,15.4,9,29.1ZM1473.2,388.1c-7.3,21.8-14.9,43.4-20.6,65.7-4.9,19.3-12.2,37.9-16.8,57.2-1,3.2-2.9,8.4-3.6,11.5-3,6.3-11.1,27.7-10.8,34.3l1.1-.3c1.9-4.3,10.5-23.7,11-27,1.7-3.6,3-6.8,4.5-10.5,15.3-37.8,32.8-90.6,35.2-130.9ZM1445.3,353.6c7.6-13.6-4.1-28.9,1.4-33.4l4.4,1.5c2.2-3.1-.9-7.2-3.6-8.7-12.6-7.1-33.8-9.5-47.7-7.3l-17.8,2.8c8.8,1.2,45.8,5.1,52.2,11.4,4.9,4.8,5.2,26.7,11.2,33.7ZM1428.5,434.2c-4.7,9.9-8.2,20.4-13.9,29.7-10.1,16.5-42,53.6-35.8,75.4,1.8-2.3,6-16.2,9.1-22.1,7.4-14,17.6-25.8,25.2-38.3,5.4-8.8,14.2-30.7,18.4-40.9,3.7-9.4,5.1-12.3,6.3-22.6l-.7-.6c-3,4.4-7.6,14-8.6,19.2ZM1488.1,299.8c4.6,7.9,11.3,12.9,14.7,22.6,1.5,4.4,3.5,17,5.5,19h1.2c1.3-18.4,0-22.5-8.1-38.6-3.8-.9-9.6-2.5-13.3-3ZM1366.4,684.2l2.6-8.1c.4-6.8,7.2-25.2,9.3-33.1,2.4-9,4.2-16.9,6.1-26.1-5.4,11.3-24.1,57.1-17.9,67.3Z"/>
  <path class="st7" d="M1409.6,193.5c-2.8-2.5-13.7-5.9-17.7-6.9,3.1-.7,9.7-.2,13.2-.2,20.1,4.5,34.1,10.1,52.7,18.7,3.3,2.3,16.7,12.2,17.7,14.9l.6,4.4v1.9c.4,4.6,1.4,5.8,1,10.6-2.7-4.4-4.7-8.4-8.8-11.4-13.7-16.6-39-26.1-58.8-32.1Z"/>
  <path class="st43" d="M1356.4,179c12.6,0,36.6,3.3,48.7,7.4-3.5,0-10.1-.5-13.2.2,4,1,14.8,4.4,17.7,6.9-3.8.3-47.9-12.4-53.2-14.5Z"/>
  <path class="st17" d="M1476.1,224.5c5.3,9.6,5.1,16,2.3,26.6-.3,1.2-.6,2.4-1,3.5-2.6-13.7-2.9-17.2-9-29.1,4.1,3,6.1,7,8.8,11.4.4-4.8-.6-6-.9-10.6v-1.9Z"/>
  <path class="st45" d="M1457.8,205.1c2.9-1.6,2-.4,3.3-3.1-2.3-1.8-2.7-1.6-3.7-3.9,8.4-7.4,13.9,5.1,22.7,0,6.1,2.6,8.4,3.8,14,7.4l-3,1.7c-.2,2.8,3.3,5.3,5.4,7.1-2.9,3.1-4.9,1.7-7.5,3.8l.8,3.4-1-.9c1.2,1.1,1.9,1.7,3.3,2.5l-1.1,1.3-15.5-4.4c-1-2.7-14.4-12.6-17.7-14.9Z"/>
  <path class="st45" d="M1298.5,276.5c9.4-.8,21.4.4,29.3-.7l.4-.9-1-1.5c6.2-3.4,29.7-3.2,36.8.8,1.8,1,4.9-.3,6.9-.1,6.5,1.7,33.1,0,37.8,1.9v1c-.1,0-.9.3-.9.3-7.5-1.3-22.6,1.1-30.5,1.6-16.2,1.1-65.1,2.9-78.7-2.4Z"/>
  <path class="st32" d="M1494.2,205.6c12.4,8.4,18.7,19.8,30.8,27.1-1,1.8-.8,1.3-2.4,2.7-10.4,1.7-12.1-7.2-18.5-11.8-1.1-.8-7.4.9-12-.4-1.4-.8-2.1-1.4-3.3-2.5l1,.9-.8-3.4c2.6-2.2,4.7-.8,7.5-3.8-2-1.8-5.6-4.3-5.4-7.1l3-1.7Z"/>
  <path class="st16" d="M1435.8,511c4.6-19.3,11.8-37.9,16.8-57.2,5.7-22.3,13.4-43.9,20.6-65.7-2.4,40.3-19.9,93.1-35.2,130.9h-1.1c-1.6-2.4-1-4.4-1-8Z"/>
  <path class="st31" d="M1399.8,305.7c14-2.2,35.1.2,47.7,7.3,2.7,1.5,5.8,5.6,3.6,8.7l-4.4-1.5c-5.5,4.5,6.2,19.8-1.4,33.4-6-7-6.3-29-11.2-33.7-6.4-6.3-43.4-10.2-52.2-11.4l17.8-2.8ZM1445.1,347.1c.3-2.6.6-4.8.4-7.3-.5-5.5-4-20.9-3.8-22.4,2.2-.8,3.6-.2,5.9.4l.4-.6c-2.2-3.9-6.3-4.8-10.5-5.9-10.4-3-21.1-4.1-31.9-3.4,5.6,6.2,27,2.1,31.5,12.8,3.7,8.8,4.5,17.1,8,26.5Z"/>
  <path class="st20" d="M1405.7,307.8c10.7-.7,21.5.5,31.9,3.4,4.2,1.2,8.3,2,10.5,5.9l-.4.6c-2.3-.6-3.7-1.2-5.9-.4-.1,1.6,3.3,17,3.8,22.4.2,2.6-.1,4.8-.4,7.3-3.5-9.4-4.2-17.7-8-26.5-4.5-10.6-25.8-6.6-31.5-12.8Z"/>
  <path class="st2" d="M1428.5,434.2c2.1,1.6,2.3,1.4,3,3.9-4.2,10.3-13.1,32.1-18.4,40.9-7.7,12.5-17.8,24.3-25.2,38.3-3.1,5.9-7.4,19.8-9.1,22.1-6.1-21.8,25.7-58.9,35.8-75.4,5.7-9.3,9.3-19.8,13.9-29.7Z"/>
  <path class="st18" d="M1488.1,299.8c3.7.5,9.5,2,13.3,3,8.1,16.1,9.4,20.2,8.1,38.7h-1.2c-2.1-2-4-14.6-5.5-19-3.4-9.7-10.1-14.6-14.7-22.6Z"/>
  <path class="st19" d="M1366.4,684.2c-6.1-10.2,12.5-56,17.9-67.3-1.9,9.2-3.7,17.1-6.1,26.1-2.1,7.9-8.9,26.3-9.3,33.1l-2.6,8.1Z"/>
  <path class="st44" d="M1433.5,529.5c-.5,3.3-9.1,22.7-11,27l-1.1.3c-.3-6.5,7.8-28,10.8-34.3-.4,2.8-.7,3.6-.5,6.5l1.8.5Z"/>
  <path class="st32" d="M1368.9,676.1c1,6.1,2.8,19.4,2.4,25.2l-1,1c-4.2-4-6.9-13-4-18.2l2.6-8.1Z"/>
  <path class="st41" d="M1428.5,434.2c1.1-5.3,5.6-14.8,8.6-19.2l.7.6c-1.1,10.2-2.5,13.2-6.3,22.6-.8-2.5-.9-2.3-3-3.9Z"/>
  <path class="st30" d="M1435.8,511c0,3.5-.6,5.6,1,7.9h1.1c-1.5,3.8-2.8,6.9-4.5,10.5l-1.8-.5c-.2-2.8,0-3.7.5-6.5.7-3,2.6-8.3,3.6-11.5Z"/>
  <path class="st49" d="M410.9,425.7l632.1.3,190.9.2c24-.1,48.1-.1,72.1,0,11.9,0,30.4-.3,41.8,1,2,4.7-1.5,27.6-2.1,34.2-12,1.7-38.7,1-51.5.9l-84.4.2-317.4.3-217.2-.5c-48.6,0-98.6.5-147.1-.7,0,18.6-.9,161.1,1.6,166.1.7,1.4,1.3,2.3,2.7,2.7,10.9,3.4,31.5-2.5,44.1,2.1.9,1.3,2.4,3.6,2.5,5.2,2.4,25.7,8.4,58.8-22.7,66.3-17.4,23.4-35.5,48.5-53.7,71.5-1.5,1.9-4,18.6-8.7,25.9-9.7,15.3-12.1,18.6-31.5,17.5-10.7-1.3-46.5,2.1-54-3.1-2.6-6.2-1.3-49.5-1.1-58.8,4-6,10.4-11.8,15.2-17,12.4-13.7,30.6-29.4,41.5-43.4.7-8.3.1-21.7.1-30.6v-55.6c.2-46.1,1.5-102.8,0-148.5-16.2-.6-34.8,2.1-50.5-1.5-6.1-1.4-5.2-30.2-2.9-34.8Z"/>
  <path class="st32" d="M510,498.5c1.6,9.7,1.3,19.7,1.9,29.5,1.8,27.1.6,54.3,1,81.3.5,25.8,2.2,51,.5,76.9-.4,5.3-.7,10.3-2.8,15.3-4.9,4.7-34.7,2.1-38.4-1.3l.4-1.5.4,1.5.7-1.9,2.7-.6c8.3-.9,23.2,1.6,29.2-2.2,1.9-8.1.2-37.1,0-47,0-37.1.6-74.1,1.7-111.1.3-8.5.9-31.2,2.4-38.9Z"/>
  <path class="st49" d="M1058.4,117.4c2-2,2.8-3.5,5.7-3.4,10.1.3,20.4,7.4,29.9,10.2,30.5-8.4,40.7-4.4,71,7.5,4.5,1.8,11,6.3,15.4,6.4,13.4.5,32.4-1.9,45.2-2.2,20.7-.4,83.4,3,100.3,8.5l1.5,1.8c-1.1,7.6-7.4,18-10.3,25.3-10.1,24.8-11.6,52.5-16.1,78.6-7.6,2.3-22.8,6.3-27.6,12.2-1.1,8.4,17.3,19.1,23.9,23.4-4.3,33-5,46.8-4.8,79.6-35.5-5.9-67.1-19.5-103.8-18.2-11.9.4-26.1,6.3-35.3,6.4-15.6,4.2-52,2.3-68.3-.4-16.4-2.7-44.6-9.3-58-20.6-4.3-3.6-10.9-13.3-15.8-17.5-5-4.2-11.8-6.9-15.5-12.1-1.2-4.5,1.1-15.1,1.9-20.1,10.9-46.8,25.4-91.6,47-134.3,3.4-7.3,12.4-24.4,13.7-31.2Z"/>
  <path class="st49" d="M1438.3,668c13.6.2,10.3,16.1,15.7,24.3,13.5,20.5,39,35.8,58.7,48.7,18.8,12.3,42.5,17.6,63.9,23.8,27.7,8.1,25,33.7,2.2,45.3-38.9,19.7-98.8,19.7-140.3,7-7.2-1.3-17.3-5.4-24.5-5-25.4,1.3-55.5,4.9-79.8-2.5-29.2-8.8-35.8-15.8-21.8-43,2.7-5.2,3.9-38.1,9.1-46.8,2.6-7.6,2.9-22.3,8.5-28,13.3-13.6,20.6,13.4,30.5,24.1,17.7,5.6,37.4-.5,51.3-13.9,2.5-2.4.8-9.8.4-13.3l.5-1c7-13.3,12.2-15.6,25.4-19.7Z"/>
  <path class="st49" d="M71.5,22.1c26.8-7.5,90.6-8.7,118.4,1,9.4,3.3,5.8,13.5,2.5,20.4,14.1,1.8,35.8,1.7,35.3,21.9,0,2.7-2.4,6.1-2.5,9,.6,7.4,3.7,6.9.5,14.8-1.1,2.2-1.2,2.4-1.8,4.8,1.9,6.2,11.1,3.2,16.2,2.4-5.6,3.1-13.2,6.1-14.4,13.2-18.3,10.4-35.2,16.4-53.9,27.3-15.8-.7-24-1.1-39.9,3.1-15.8,4.1-19.7,13.6-35.7,11.9-16.4-.8-34.9,1.9-50.5-3.2-16.6-5.3-11.1-15.2-11.3-26.8-.2-12.5-3.1-9.8,1.8-22.7-3.8-11.4-5.1-13.6,0-24.5-3.5-9-3.9-13.2-.4-22.2.1,0,.3,0,.4-.1,21.3-10.4,60.2-7.1,84.8-11.4-18-2.1-37.4,0-55.1-1.4-6.2-5.8.8-13.2,5.5-17.4Z"/>
  <path class="st49" d="M1309.4,472.7c7-.4,30.7-1.8,35,1.8.1.4,10.6,53.2,10.6,52.2.4,47-4.4,103.3-15.5,148.7-32,10.7-15.2,33.9-32.7,41.8-15.9-.8-36.6-4.4-45.8-19.2-.1-5,.7-11,2.2-15.8,8.1-25.5,10.3-53.5,18.7-78.6.8-2.5,10.3-2.1,12.5-2.1,10.9-23.9,13.7-69.4,14.5-96.7.3-8.9-1.1-24,.6-32.1Z"/>
  <path class="st49" d="M346.4,37c15.6-5.2,29.6-3.2,45.1-5.4,26.8-3.9,37.4-16.3,63.2.6,16.2,10.6,39.6,17,57.8,23.3,25.8,9.7,56,24.9,74,46.8,3,3.8,15.8,20.3,14.7,24.9-.5,2.2-.9,2.9-2,4.8-7.3,7.5-16.1,10.6-25.7,13.8-13.2-10.4-26.7-25.9-39.8-34.5-18.7-11.8-38.2-16.3-58.5-24.3-24.8-9.7-51.2-22.3-75.4-33.1-4.9-2.2-24.6,7.1-30,7.1-19.7-.3-35.5,1.5-54.9,5.6-5.4-.3-17-.2-20.7-3.2,2.6-2.8,7.6-2.5,9-3.7,8.8-7.4,39.1-13.9,43.3-22.8Z"/>
  <path class="st47" d="M314.8,66.8c19.3-4.2,35.2-5.9,54.9-5.6,5.4,0,25.1-9.3,30-7.1,24.3,10.8,50.6,23.3,75.4,33.1,20.3,8,39.8,12.5,58.5,24.3,13.1,8.6,26.6,24.1,39.8,34.5,9.6-3.2,18.3-6.3,25.7-13.8l2.1,3.1c2.1,0,3.2-.2,5,1.2-10.9,14.9-30.6,12.5-17.1,30.9,42.2-6.5,43.1,1.1,80.8,8.6,29.1-9.9,77.2-44.3,93-72,5.8-10.2,8.3-27.2,15.5-39,3,12.5-11.3,44.7-18,56.1-5.4,9.3-9.3,12.7-17.3,19.5-2.6.3-21.2,16.2-25.1,19.6-5.5,4.7-30,18.3-28.9,25.2,4.1,2.8,18.7,4.8,24.8,6.4,7.5,2,14.7,4.9,21.6,8.6-36.2-8.4-53.9-7.5-89.9-2.9,5.4-2.1,17.2-6,21.1-9.9l.2-2.1c-3.4-3.3-37.6-13.3-43.5-14.4-5.4-1-10.8-1.4-16.3-1.2-4.8.2-10.4.9-14.9,2.9-.6,3.2-.5,4.3-.2,7.5l-1.1.7c-1.8-1.2-2.6-1.7-4.2-3.1-2-2.2-5.4-6.7-7-9-20.4-30.1-57.4-62.2-93.1-70.2-28.3-6.3-44.8-21.2-70.4-29.7l7.2,17.6c-32-27.9-9.6-35.2-61.2-14.4-15.5-4.7-20.4-2.7-35.7-.6-26.9,3.7-49,17.1-72.3,30.5-8.9,5.2-17.6,11.7-26.8,16.5-20.4,9.4-36.7,14.1-56.6,25.7-26.9-5.1-40.1.5-65.1,11.7-4.1-2.1-4.1.3-9.6-4.2,15.9,1.7,19.8-7.8,35.7-11.9,15.9-4.1,24.1-3.8,39.9-3.1,18.6-10.9,35.5-16.9,53.9-27.3,17.4-8.2,33.6-18.4,50.6-27.3,12.6-6.6,25-10.9,38.4-15.4Z"/>
  <path class="st49" d="M1457.3,674c-6.8-15.5-8.1-7.6-15.6-17.3-1.3-4.7-1.3-7.6.5-12.2.7-.4,1.3-.8,2-1.3,12.4,4,24.6,10.1,37.2,13.3,12.2,2.1,29.3,3.3,37.3,14.1,14.8,19.8-19.2,42.8-35.5,38.7-14-3.6-22-22.7-25.9-35.3Z"/>
  <path class="st42" d="M362.5,72.1c51.6-20.8,29.2-13.5,61.2,14.4l-7.2-17.6c25.6,8.5,42.1,23.4,70.4,29.7,35.7,7.9,72.7,40.1,93.1,70.2,1.7,2.4,5,6.8,7,9,2.4,5.1,22.6,32,25.9,32.4v-.4c-.1,0-.2,1.5-.2,1.5l.4.3v-.9c.1,0-.5.3-.5.3.5-5.4-17.7-28.3-19.9-37,12.6-5.1,38.9-3.3,50.1,4.7-7-1.4-44.4-12.6-46.8-1.7,4.5,10.1,26.1,43.3,33.2,54.4-16-13.2-36.9-42.7-49.9-60.7-22.6-31.2-45.2-51.4-80.4-66.2-12.1-5.1-28.2-7.7-41.3-13.7-13-6-24.3-13.9-37.3-18.6,2.8,7.1,4.2,11.1,6.1,18.5-11-7.9-18.2-19.1-25.6-26.9-4.6-4.9-29.4,7.1-37.2,9.6l-.9.3c-36.1-10.2-78.5,12.4-108.8,30.9-11.1,6.7-22.4,15.1-34.2,20l-1.7.7c-13.2,4.6-32.1,11.7-43.5,19.5-5.5,2.7-20.1-2.1-27.2-.9-13.5,2.3-26.7,6.9-39.1,12.8-7.1,3.4-19.3,8.6-14.2,18.3.4.8.8,1.6,1.3,2.3-1.7,6.8-11.7,7.1-6.7,17.9,3,2.9,6.6,2.6,10.9,2.9l1.4,1.2-.2,1.7c-6.4,4.1-17.3,2.7-12.5,17,1.8,5.3,12.8,4.9,17.9,5.9-4.6,2-14,5.8-15,10.9-3,15.2,22.2,12.1,28.4,11.2l.6,1.2,5.5.6c-3.2,1-8.1,2.5-11,3.8,0,6.5,1.6,26.1-1.5,30.6-14,9.1-68.1-5-77.5,16-1.7,3.7,2,11.4,1.5,15.2-1.6,11.3-3,13.1.3,24.3-5.3,16-1.9,8.7,0,22.6,1.4,10-6.3,9.9.9,24.4-12-8.9,1.7-17.9-3.8-28-3.1-5.7-.2-15.1-.5-21.4-.5-9.1-.7-13,2-21.8-1.5-4.8-5.1-17.1-.2-20.5,17.4-12.2,56.8-10.1,77.3-11,.2-10.5-.5-21.8-.4-32.8-10.7,0-25.8.6-23.2-15.7.7-4.1,4.7-6.1,7.8-7.9l-1-1.2c-10.4-2.2-12.9-5.6-10.2-17.2.7-3.2,4.7-4.5,7.4-5.6l1.1-.4-.6-.8c-3.2-1.1-4.6-1.3-7.2-3.5-6.2-12.8,4.5-12.5,5.6-20.3-4.2-13.9,2.4-15.2,13.5-20.6,25-11.2,38.3-16.8,65.1-11.7,19.9-11.6,36.2-16.3,56.6-25.7,9.2-4.8,17.8-11.4,26.8-16.5,23.3-13.4,45.4-26.9,72.3-30.5,15.3-2.1,20.2-4.1,35.7.6Z"/>
  <path class="st47" d="M389.7,168.2c9.9,12.4,19.9,26.2,32.2,36.1,8.1,6.5,45.4,33.5,55.1,27.1,1-3.2.9-3.6,1-6.9,12.8,8.2,16.2,32.8,23.8,45.8,5.7,9.8,10.3,14.3,18.1,22.4-4,.8-3.5,0-5.2,2.5v5.4c-19.8-22.2-23.4-32-35.8-58.3-40.8-13.1-64.6-28-89.6-64.2-14.9,6.4-26.7,10.1-42.2,14.7-6,1.8-7.1,4.7-9.5,10.2-.7-8.4-.4-7.5,4.4-14.5-1-1.7-7.9,0-13.1-4.2,22.4.3,33.6-3.7,54.7-12.8,2.7-1,3.8-1.8,6.3-3.2Z"/>
  <path class="st20" d="M1052.1,116.2c2.5.6,3.7,1.2,6.3,1.1-1.3,6.8-10.3,23.9-13.7,31.2-21.6,42.7-36.1,87.5-47,134.3-.9-7.3,2.9-13.4-3.3-16,1.9-13.8,9.8-34.7,13.4-48.7.9-2.1,3.5-9.3,4.1-11.5,1.7-6,11.8-24.7,9.6-29.8-6.5-1.8-25.1,12-30.2,16.6-4.8,3.1-13.4,14.3-21.5,19.9,15.8-25.6,31.3-37.1,58-49.9,3.4-6.4,6.3-12.1,9.3-18.7,6.6-10.4,10.9-16.9,14.8-28.5Z"/>
  <path class="st45" d="M346.4,37c-4.1,8.8-34.5,15.4-43.3,22.8-1.4,1.2-6.4,1-9,3.7,3.7,3,15.4,2.9,20.7,3.2-13.4,4.5-25.8,8.8-38.4,15.4-17.1,8.9-33.2,19.1-50.6,27.3,1.2-7.1,8.7-10.1,14.4-13.2-5.1.8-14.3,3.8-16.2-2.4.6-2.4.7-2.6,1.8-4.8.7,2.4.3,1.6,1.8,3.5,5.8-.5,46.9-24.7,55.9-29,19.8-9.4,41.3-21,62.9-26.5Z"/>
  <path class="st6" d="M735.7,200.3c-6.9-3.7-14.1-6.6-21.6-8.6-6.1-1.7-20.6-3.6-24.8-6.4-1.1-6.8,23.4-20.4,28.9-25.2,3.9-3.4,22.5-19.3,25.1-19.6-6.1,8.9-28.1,23.1-36.5,30.6-4.4,2.8-13.6,8.1-16.4,12.2,1.6,2.2,3.9,2.4,7,2.8l1.5.2c15.1,2.3,41.5,11,53.6,20.7-32-6.5-59.1-15.7-92.4-9.4-5,.9-16.9,3.4-21.2,1.5.9-2.8,21.4-9.6,26.5-12.5-8.1-3.2-14.3-5.4-22.7-7.8-11.2-7.9-37.5-9.8-50.1-4.7v-1.4c4.3-2,9.9-2.6,14.7-2.9,5.4-.2,10.9.2,16.3,1.2,5.9,1.1,40.1,11.2,43.5,14.4l-.2,2.1c-4,3.9-15.7,7.8-21.1,9.9,36.1-4.6,53.8-5.6,89.9,2.9Z"/>
  <path class="st22" d="M35.9,52.4v-.8c4.5-8.1,24.7-5.4,30.7-8.2-5.7-9.2-7.9-17.4,4.9-21.3-4.6,4.2-11.6,11.6-5.5,17.4,17.7,1.4,37.1-.7,55.1,1.4-24.7,4.3-63.6,1-84.8,11.4-.1,0-.3,0-.4.1Z"/>
  <path class="st15" d="M587,177.7c1.7,1.4,2.4,1.9,4.2,3.1l1.1-.7c-.3-3.2-.4-4.3.2-7.5v1.4c2.4,8.7,20.6,31.6,20.1,37l.6-.3v.9c-.1,0-.5-.3-.5-.3v-1.5s.2.4.2.4c-3.3-.4-23.5-27.4-25.9-32.4Z"/>
  <path class="st38" d="M119.5,246c6.6-2.1,20.2-7,26.5-5.6l.2,1.5c-5.8,5.6-13,2.4-20.6,5.9l-5.5-.6-.6-1.2Z"/>
</svg>