<?xml version="1.0" encoding="UTF-8"?>
<svg id="fixed_id_0"  xmlns="http://www.w3.org/2000/svg" version="1.1" xmlns:xlink="http://www.w3.org/1999/xlink" viewBox="0 0 814.2 443.4">
  <!-- Generator: Adobe Illustrator 29.3.1, SVG Export Plug-In . SVG Version: 2.1.0 Build 151)  -->
  <defs>
    
  </defs>
  <path fill="#96cf03" d="M454.3,69c-.4-8.8-.9-21,1.7-29.3,14.8-47,84.5-44.9,100.4.4,3.3,9.3,1.7,30.8,1.9,41.1,0,1.8-4.2,7.2-4.4,10.5-.4,4.3.6,10.4-.6,14.3-3,9.4-7.9,16.7-12.7,25.6-3.7,6.8-9,24-15.9,27.7-4.5,2.4-18.3,1.8-23.3-.5-10.2-4.2-21.5-16.6-28.5-25-2.1-2.6-4.3-7.5-7.4-11.1-.8,1-.9,2.2-.7,3.5,1.9,12.9,36.4,31.7,37.2,38.2,0,.6-.4,1.4-.7,1.9-3.9,5.9-9.2,10.1-12.4,16.6,6.7-5,13.1-12.6,18.6-16.4.7,1.6,1,3.1,2.3,4.1.8-1.3.7-3.4.8-5,7.2-.4,15.5.1,20.3-5.6,7.1-8.4,11.6-23.1,17-31.9l3.6,3.2c3.5,4.7,8.6,13.5,12.5,16.7h.7c-.3-3.9-2.9-7.2-4.5-10.9,19.4,6.4,30.4,9.9,40.8,29.7,6.8,12.9,7.7,28.4,3.6,42.4-.8,2.7-3.9,12.2-3.9,14.6,3.4-.2,6-9.5,7.5-12.5,7.3,11.1,10.1,22.7,8.7,35.5-1.9,16.9,8.8,20.6,12.6,34,2.7,9.6.9,27.9-.6,37.9-1.8,9.5-5.9,18.2-7.2,27.7v.8c-.1.2-.2.3-.2.5,3.5-6,6.2-12.4,8-19.1.9-3.3,1.4-7.4,2.8-10.4,4.5,2.7-2.2,49.8-2.2,57.6,0,7.1.3,13.7,1.1,20.8l.6.5c5.5,4.3,23.9,10.8,30.8,11.4,9.7.8,13.9,7.2,21.9,8.7,11.9,2.3,117,2.8,120.1,8.5-8.6,2.6-28.9,3.2-38.1,3.9-24.3,1.8-48.6,2.4-73,3.4-83.6,3.5-167.2,5-250.9,4.8-116.1,1.1-232.2-1-348.2-6.3-21.4-.9-42.5-.9-63.9-3.6-8.3-1-12.2.3-21-2.3,8.6-3.3,14-2.6,22.9-3.1l35.7-1.7c17.6-.8,35.8-2.1,53.4-2.6,3.5,0,7.1-.2,10.6-.3-3.5-6.5-5-10.1-5-17.5,0-10.6,4.9-16.5,7.3-26.4,2.1-9.9-1.8-21.5,4.8-30.2,3.2-4.2,16.1-10.9,20.6-6.9-.9,3.9-8.8,4.5-7.3,10.3.8.4,8.5-5.7,10.3-6.7,11.7-6.4,19.1-22.5,32.6-25.3,7.5-1.5,17.8,0,24.3,4.3-2,3.5-4.1,6.5-6.4,9.8,3.5-2.2,5.3-3.3,9.1-4.9.6,4.8.9,11.3,1.6,15.8,1.8,10.7,4.3,22.6,7.1,33.1-13.2.4-11.5-3.8-20.1-6.1-10.8-.5-22-1-32.8-1s-10.9,3.8-10.8,3.8c1.3,1.1,5.8-.4,8.2,1.7,1,3.8-5.7,12.5-6.6,19.5-1.4,11.7,2.6,14.1,2.5,25,16.3-.1,40.6-.9,57.6-.6,3.2,0,.8,7.3,2.2,10.3h.7c1.5-3,1.6-6.3,3.5-8.8,4.9-6.3,1.8-12.5,1.5-19.8-.3-5.9.7-13.9-.4-19.8-2.7-15.3-7.4-31.3-8.3-47-.6-9.4-.3-22.2.2-31.7.2-3,3.3-10,3.2-12.6-.6-16.4,4.3-20.8,12.8-33.8,6.5-9.9,11.3-20,19.5-29.6-.8,3.3-4.5,13-3.7,15.2,5.2-2.5,7.9-28.3,10.3-34.4,4-10.3,19.5-24.4,29.2-28.8-.9,8.3.9,20.7,2.6,28.8.2-13.2.6-25,5-37.7,11.4-32.6,36.7-44.5,69.7-43.4-3.2,3.9-5.8,6.5-8.8,10.9,10.1-7.6,15.5-15.1,25.9-21,13.5-7.7,39.3-6.4,53.6-2.2-3.9,3.5-5.2,4.7-8,9.1,3.5-2.3,7.1-4.5,10.7-6.6-2.1,9.4-4.2,15.2-4.5,24.9,5.7-11,6.8-19.9,10.8-31.1-1.2-3.5-3.1-5.7-4.9-8.8-5.7-9.5-8.9-22.4,2.5-28.8ZM344.5,414.9c11.6-.5,25-.2,36.7-.1h61.1c0,.1,68.8.5,68.8.5,18.8,0,38.5-.3,57.3.3l28.8.2c1.2-1.9,3.1-5,4.4-6.7,2.4-30.4-16-51.3-22.1-79.7-2.9-13.6,1.9-25.2-3.5-39.7,5.7,1,7.3,1.2,13.2.9-4.1-2.4-8.4-3-12.6-5.3-11.7-6.5-16.7-20.8-20.7-32.7-2.1-6.5-2.6-11.9-2.1-18.6,7-10.5,8.4-9.7,20.4-9.4-4.7-2.9-7-2.8-11.2-4.9-8.9,5.1-16.9,11.4-25.1,16.1,5.2-1.4,8.1-2.8,12.9-5.2-11.6,18.2-25.4,36.1-47.6,41.5-10.3,2.5-35.4,1.9-38.8-11.7-1.5-5.9,4.2-13.7,6.1-19.1,1.1-3.3,5-17.2,3.2-19.7-.6,1.2-.6,1.5-1,2.8-8.9,32.7-26.3,53-63,44.3-20.7-4.9-34-20-40-40.5-.7-2.2-.8-4.8-1.5-7,3.9,1.4,11,4.2,14.9,4-.3-.9-3.1-2.1-4.2-2.6-2.9-1.4-6-2.5-9.1-3.4,2.3-1.8,13.1-10,13.5-12.1l-.3-.3c-23.4,15.9-38.2,2.8-62.7,12,10.2-1.1,22.9-.7,32.9,1.7-3.8,7.5-7.9,17.4-12.9,24.5-8.4,12.1-23.7,29.6-37.7,34.5-9.1,3.2-11.4,1.1-18.1,10.2-2.4-5.1-4.1-10.4-5.9-15.8-.5,7.7,2.5,20.3,3.4,28.1.7,6.1.5,10.1.6,16,.4,11.6-5.2,21.9-7.9,32.9-2.8,11.3-2.2,24.4-1.5,36,.5,7.2-.4,14,7.7,17.2,4.8,1.9,9.8,2.9,14.6,4.8,2.7,1,11.3,5.5,13.3,5.5l.7-.7c-.2-2.5-2.8-9.1-2.7-9.8,1.5-9.2,3.4-14.1,3-23.7,5.6-2.6,11.4-5.1,17.1-7.6,5.4-2.3,12.3-5.9,17.8-7.7,4.2,4.1,8.9,8.9,12.2,13.7-6.5.2-10.4-.2-16.8-1-.4,3.6-1.5,11.8-.6,15.1,3,11,5.3,10,5.1,22.1ZM253.7,311.9l.7.6c1.1-4.6-4.5-17.5-6.2-22.7-2-6.2-2.2-11.3-2.7-15.8-1.3-11.3,7.8-15.4,8-18.9l-.6-.5c-6.6,6.6-10.9,10.9-11.4,21.1-.5,8.8,8,28.4,12.2,36.3ZM409.1,181.8c-.2-3.8,0-7.9-2.6-10.9-1.8,5.1-3.1,9.5-6,14.1-1.7,2.7-5.5,5.7-6.2,7.6.8,0,.5.2,1.1,0,6.2-3.9,8.7-5.2,13.7-10.8ZM327.2,225.7c-2.5,2.6-5.4,7.5-7.6,10.6-2.6,3.7-4.6,6.1-7.6,9.5-3.4,3.8-6.9,7.4-10.6,10.8-1.8,1.7-7.6,6.7-8.5,8.1v.7c4.1-2.3,9.4-5.4,13-8,6-4.3,22.9-24.3,21.2-31.8ZM608.8,384.1c1.9-4.9,1.7-21.2.6-26.3l-.6-.7c-.4,4.9-2.5,23.3,0,27ZM535.1,169.2c-6.3,3.6-12.2,8.9-18,12-10.3,5.6-21,6-29.9,15.1-1.3,1.3-3,2.4-3.5,4.2.2,0,.5,0,.7,0,4.5-2.9,11.5-7.7,16.1-9.5,12.2-4.9,21.2-4.1,30.3-15.1,1.3-1.6,4.3-4.3,5-6.2-.2-.2-.4-.4-.7-.5ZM586.7,187.6c-.6-12.7-6.3-23.4-20-25.2,4.3,5.3,10.6,9.4,14.4,15.6,1.5,2.5,3.5,8.4,5.5,9.6ZM401.2,155.6c-1.8-5.7-11.6-8.9-17.3-8.7,2.6,2.9,12.7,6.2,17.3,8.7ZM240,335.7l.5.2c.7-4.5-1.1-14.5-1-19.7,0-2.7-.2-22.3-.9-23.7-2.5,7.1-2.9,34,.7,41.1.1.3.6,1.8.7,2.1ZM610.2,245.1c0-4.1-2.5-15-6.1-17.1.8,2.9,4.5,15.2,6.1,17.1ZM463.1,77.1c-.6-3.1-2.2-6.1-5.1-7.6,1,1.7,3.6,6.7,5.1,7.6ZM469.2,202c-.8-2.3-2.5-4.9-4.9-5.7,1.3,2.5,2.3,4.5,4.9,5.7ZM256,339.3c2.6,11,6.3,22,8.2,33.3.1.7.9,1.8,1.5,2.3,1-11.7-2.2-24.8-8.6-34.8-.2-.4-.7-.6-1.1-.8ZM458.6,189.5c-.5-.7-2.9-4.3-3.5-4.6-5.1-2.8-10.8-4.5-15.9-7.3-3.1-1.7-6.1-3.6-9-5.5-5.1-3.3-9.9-7.9-15.7-9.7,3.1,5.6,15.3,15.1,21.2,17.7,5.5,2.4,17.4,8.3,22.9,9.4ZM581.8,231.5c-.4,16.6,8,26.1,14.9,40.9l1.1.3c-.9-7.7-5.3-15.2-8.2-22.4-1.7-4.1-4.7-16.4-7.8-18.8ZM607,276.5c-.5,3.1-4.2,11.4-5.8,14-5.7,9.1-7.6,18.4-6.5,29,.3,3.2,1.2,7,1.5,10.1l.9-.6c.7-8.4.8-15.4,2.3-23.9,1.1-6.5,11.4-23.8,7.6-28.6Z"/>
  <path fill="#96cf03" d="M338.1,268.9c4.1-3.7.8-10.4,2.5-14.9,1.6-4.1,5.8-8.7,8-12.7,2.9-4.1,7.4-16.8,11.9-17.8,1.7,1.2,3.8,8.9,4.6,11.2,11.1,34.3,54.4,49.1,85.4,32.9,2.5-1.3,5-3.4,7.6-4.8,5.2,8.5,10.6,10.1,20,13,4.6,1.4,11.6.6,16,1.8-.6,4.2-16.3,14.2-20,17.8-10.7,10.1-21.4,21.1-35.4,26.5-3.8,1.5-7.5,3.6-11.4,4.9-2.3.8-5.6.6-7.5,1.8l.2.7c13.7.9,27-9.5,37.7-15.5.2,10-1.7,21.3-8.4,29.2-3.1,3.6-10.3,7.4-13.8,11-12,12.4-29.3,31.6-48,31.7-11.3,0-20.5-4-28.7-12.2-3.4-3.5-6.5-7.3-9.1-11.5,10.6.9,18.2,2.3,27.7-2.6-5.8.8-11.7,1-17.6.6-3.7-.2-13-3.1-14.8-2.1-17,9.6-36,18.7-55.4,22.3-3.6.7-8.8,0-12.6-.3.8-6.8.5-16.5,1.9-22.6,2.4-10.7,6.3-18.9,8.4-30.3,2.2-12-2.1-29.7,5.8-39.7,1.2-1.5,12.5-4,15.9-5.8,8.2-4.2,11.9-7.5,18.7-13.4.8,5.1,1,9.9,1.8,14.8,2.1,12.9,11,23.9,21.5,31.3,8,5.7,22.4,13.4,32.2,14.8-5-3.1-10.1-5.5-15.3-8.3-3.8-2-7.4-5.1-11-7.4-16.1-10.4-24.9-24-22.9-43.6.3-2.1.5-4.6,1.7-6.3,1.4.9,1.9,3.6,2.6,5.4ZM399.5,291.4c11.4,3.5,32.2,7.8,41.9-1.9.6-1.9.8-1.2.2-2.4-1.8.2-5.4,2.6-8.5,3.5-9.7,3.1-26.1,1.2-34.3-4.6-2.3-1.6-5-5.3-7.3-5.6.3,3.1,5.6,8.5,8,11ZM417.5,310.6v-.8c-2.2-.6-8.3-.2-11.6-.6-7.1-.7-9.7-3.2-15.4-5.3,3.1,7.5,20.2,9.7,27,6.7ZM362.6,270.6c0-3.3-5.1-11.9-8.4-12.8,2.2,5.3,3,8.4,7.1,12.6l1.3.2Z"/>
  <path fill="#95c10b" d="M333.8,269.8c.3-2.1.5-4.6,1.7-6.3,1.4.9,1.9,3.6,2.6,5.4l-4.3.9Z"/>
  <path fill="#dcf968" d="M614,411.2c6,.8,11.8,4.9,10.8,11.6-.7.2-1.5.4-2.2.6-1.3-1.3-.5-2.9-1.2-4.2-1.4-2.6-5.2-6-7.4-8.1Z"/>
  <path fill="#dcf968" d="M258.7,399.2c1.4,0,1.7,0,3.2.1-1.4,1-5.3,2-7.2,2.5-1.6.4-1.7.6-3.4.4,1.4-1.7,5.2-2.6,7.4-3.1Z"/>
  <path fill-opacity="1" d="M458,69.5c2.9,1.5,4.5,4.5,5.1,7.6-1.5-.9-4.2-5.8-5.1-7.6Z"/>
  <path fill-opacity="0" d="M464.2,196.4c2.5.7,4.1,3.4,4.9,5.7-2.7-1.1-3.6-3.2-4.9-5.7Z"/>
  <path fill="#5b6234" fill-opacity="0" d="M553.4,106c1.5-.1,1.4,0,2.9.3,1.4,2.6-1.7,9-3.4,11.2l-1.6.2c-.3,4.4.7,6.5,3.5,9.8.9,1,1.8,2,2.7,2.9l-.5.6c-1.8.2-3,.3-4.9-.1l-.7.4-3.6-3.2c-5.4,8.8-9.9,23.4-17,31.9-4.8,5.7-13.1,5.2-20.3,5.6,0,1.6,0,3.7-.8,5-1.3-.9-1.6-2.4-2.3-4.1-5.5,3.8-11.9,11.4-18.6,16.4,3.2-6.6,8.6-10.7,12.4-16.6.3-.5.8-1.3.7-1.9-.8-6.5-35.3-25.3-37.2-38.2-.2-1.3,0-2.4.7-3.5,3,3.6,5.2,8.5,7.4,11.1,7,8.5,18.3,20.9,28.5,25,5,2.2,18.8,2.9,23.3.5,6.9-3.7,12.2-20.9,15.9-27.7,4.8-8.8,9.7-16.2,12.7-25.6Z"/>
</svg>