<?xml version="1.0" encoding="UTF-8"?>
<svg id="fixed_id_0"  xmlns="http://www.w3.org/2000/svg" version="1.1" xmlns:xlink="http://www.w3.org/1999/xlink" viewBox="0 0 1024 1024">
  <!-- Generator: Adobe Illustrator 29.3.1, SVG Export Plug-In . SVG Version: 2.1.0 Build 151)  -->
  <defs>
    
    <linearGradient id="fixed_id_1"  x1="886.9" y1="648.7" x2="846.3" y2="661" gradientTransform="translate(0 1024) scale(1 -1)" gradientUnits="userSpaceOnUse">
      <stop offset="0" stop-color="#f0fb94"/>
      <stop offset="1" stop-color="#ffffd2"/>
    </linearGradient>
    <linearGradient id="fixed_id_2"  x1="396.2" y1="697.3" x2="392" y2="699.2" gradientTransform="translate(0 1024) scale(1 -1)" gradientUnits="userSpaceOnUse">
      <stop offset="0" stop-color="#ffffba" stop-opacity="0"/>
      <stop offset="1" stop-color="#ffffab" stop-opacity="0"/>
    </linearGradient>
  </defs>
  <path fill="#9ec704" d="M361.1,1.5c5.3-.3,11.6,0,17,0-.1,25.1,0,50.1.2,75.2,2.4,1,6.5,2.2,8.3,4.2,4,4.3,2,54.5,2.5,63.9,8.8,4.5,18,8.5,27.1,12.5,9-7.9,10.9-8.6,23-5.9,9.3,2.1,16.6,1.3,24.4,7.8,15,1.5,13.3,10.7,15.1,24.1,26.9,12.3,52.1,22.8,78.7,34.7l101.5,45.5c24.4,10.7,51.3,23.7,75.6,33.5,10.8-19.4,14.6-6.1,29.6-6.5h1.3c10.4,8.7,22.5,10.5,30.2,20.4,1.7,2.2,5.6,10.1,7.3,13.2,9.7,3.7,14.1,6.3,23.3,11.1,13.5-24.8,24-46.7,49.2-62.1,20.7-12.7,37-12.2,59.1-3.8,22.8,8.2,39.7,15.8,50.1,39.7,7,16.1,12.1,54.4,6,70.8-.9,7.4-1.3,10.2-3.9,17.3l.8.4c9.6,5,30.5,11.3,36.6,19.3,2.4,3.1,3.1,5.5,2.6,9.3-2.4,19-13.8,22.2-29.2,14.4-2.7-1.4-6.5-2.5-9.1-4.2l-10.9-4.2c-3.5,5.5-13.7,22.9-17.3,26.4-1.8,4.4-6.5,9.1-9.5,12.6-9.5,11.1-19.2,19.5-32.6,25-24.4,10.1-45.8,0-67.4-11.6-15.6-8.4-26.4-14.1-32.8-32.4-8.1-21.5-8.3-45.8-5.1-68.5,1.1-7.6,3.5-16.6,4.2-23.9-6.7-4.6-13.2-7.3-20.5-10.6-3.8,7.6-8.1,12.7-11.7,19.4-.2,13.7,1.6,34.6,3.3,48.5,3.4,26.6,8.8,53.6,3.7,80.6-2.1,10.4-6.6,19.9-10.6,29.6-2.9,7.2-3.1,17.3-8.9,22.8-5.8,5.6-18.6,6.7-26.4,8.4-16.1,3.5-29.4,12.2-45.2,16.4-7.2,1.9-20.9,3.5-28.3,2.9-18.5-1.4-27.4-3-43.9-11.5-29,25.7-48.3,32.8-85.9,37.1-6.7.8-20.3,1.2-26.1,3.2-2,.7-3.9,1.7-5.7,2.9-2.4,1.6-30.6,24.1-30.7,24.6-4.9,27-5.2,53.2-28.2,72.3-5.8,4.8-13,8.8-19.5,12.8-10,6.7-20.8,18.5-33.5,18.4-6.4,0-9.7-6.3-12-11.5-.2,3.2-.6,5.4.3,8.5,4.1,3.9,9,13.2,12,18.3,16,26.8,13.3,49.2,9.3,78.7-2.4,16.6-4.4,33.3-6.1,50-1.1,10.1-1.9,18.5-2,28.9-.1,7.9,4.9,14.5,7,21.7,1.9,6.7,2.2,15,3.9,21.9,1.5,6.1,2.5,11.6,2.9,17.9.9,12.2-8.9,14.1-15.6,21.2-3.9,4.2-6.9,9.8-11,13.9-10.9,11.5-31.9,16.6-46.9,17-9,.2-24.2-1.5-30.8-8.4-4.5-4.7-3.7-11.9-3.5-18,11.4-19.2,23.4-26.5,33-46.4,3.9-6.3,4.7-15.3,7.2-21.8,5.5-14.2,7-24.8,3-39.9-1.7-6.5-2.9-14.7-5.9-21.2-9.6-21.5-23.2-41.1-29.6-64.2-4.5-16.3.4-36.5-1.7-52.5-.9-7.1-8.9-18.9-11.7-28.6-4.8-16.8-5-36.2,2.7-52.1,4.3-8.7,12-16.9,19.5-22.7,2-1.5,7.3-4,8.9-5.5,13-12,20.8-18.2,37.7-23.8-17.6.3-26,8.5-39.3,17.4-16.2,10.8-28.3,17.4-35.6,37.3-1.3,3.5-5.3,24.6-6.2,24.8-24.7,7.5-51.7,7.3-76.9,1.7-16.4-4.3-21.3-7.1-34.1-6.9,1.1,14.6,5.3,25.5,4.7,40.4-1.2,30-10.7,41.2-25.4,64.3-4.5,7.1-9.8,38.5-12.5,48.5-3.4,20.7,11.3,38.4,8.9,59.7-3,27.9-33.5,15-52,18.5-24.5,4.7-48.8,12.2-74.5,8.9-7.8-1-19.5-2.9-24.6-9.9-2.1-2.9-3-6.5-2.4-10.1,1.7-9.5,12.3-12.8,20-15.9,10.9-4.4,22.2-7.4,31.9-14.4,13.1-9.6,29.4-20,36.4-35.5,1.8-4,3-8.3,3.7-12.7,2-13.9.6-29.6.5-43.7-.2-27.7-1.9-56,.5-83.7.6-7,4.2-16.4,4.2-23.1-.7-14.9,0-25.5,2.2-40.2,3.8-24.4,22.3-28.9,41.2-39.5,25.3-14.2,52.1-26,80.9-30.9,13.2-2.3,28.7-2.5,42.2-2.5,22.1-.4,49.5,6.5,69.8-3.7,4.1-2.4,24.8-16,26.2-20,2.2-11.2,19.2-19,22.6-26.7,9.8-22.3,11.5-35.5,33.7-50.6,5.1.6,24.5.4,29.1-1.6-4-1.3-9-2.1-13.3-2.8-16.7-5.4-6.1-24.2,1.9-32.9,1.5-2.2,9.3-8.5,11.6-10.5l6.5-4.1c.6-1.1.2-.6,1.6-1.3-3.1.9-5.5,1.7-8.6,2.8-11,4-20.9,13.2-25,24.8-1.9,5.3-2.1,14.2-5.7,18.2-15.1,4.3-50.5-35.6-53.5-50.9-1.3-6.6-4.8-17.6-7.3-23.5-3.5-8.1-12.7-16.1-14.9-25.3-2.6-6.7,2.5-16.5,2.3-22.6-.9-26.7,1.5-45.1,16.5-68,7.3-11.2,15.7-24.7,23.1-36.8,6.4-10.6,12.3-21.4,17.7-32.6-1.4-12.5-.5-16.4,8.2-24.9-5.8-2.5-11.6-5-17.5-7.5-.1,8.8-.2,17.7-.8,26.5-3.4,2.1-6,2.9-9.7,4.3,0,9.7.2,18.8-4.7,27.5-2.2,3.9-7.8,14.6-11.5,15.7-3-3.9-1.2-37.1-1-43.9-4.5-1.1-6.6-1.8-10.6-4.2-.2-14.2-.2-28.5-.1-42.7-2.6-1.3-5.3-2.5-7.9-3.7,0,15.2-.3,30.8.4,46,.2,4.8,3.4,6.6,3.3,10.4-1.2,2.3-2.2,3.5-4.4,5-16,11.4-31.8,20.3-51.9,17.4-8.6-1.2-14.3-4.6-21.9-8.1-15-6.9-30.3-12.3-40.2-26.7-12.3-17.7-15.2-43.9-13.4-65.1.7-8.6,2.7-18.9,4.1-27.5-15.5-8.8-35.2-14.5-49.8-23.2-5.4-3.2-2.5-31.3,17.5-23.1,13.6,4.6,26.4,13.1,40,17.1,4,1.2,9.3-12.6,11.1-15.9,6.7-12,15.4-22.7,25.5-31.7,27.7-24.8,56.5-21.7,88.9-.7,2,1.3,1.4,41.1.3,46-4.2,2.7-6.5,4.2-10.2,7.5-.2,14.8.1,30.7.4,45.5,3.3,2.5,4.4,3.2,8.1,5.1,1.1-14.9-.7-31.2.6-46.2,4.6-2.9,5.6-3.1,10.7-4.8-.4-25.4-.6-50.7-.6-76.1ZM457.3,389.2c.8,2.6,1.4,5.4,2,8,.7-14.2,4.5-11.6,17.2-10,15.8,2,34.6,12.5,39.9,28.8,1.9,5.9,10,9,15,10.9,9-3.6,12.2-6.5,19.4-12.9-11.8-24.2-6.8-28.5,8.6-46.7,4.4-5.2,6.3-12.8,13.8-16,5.1-3,9.2-9.1,13.9-12.4,8.7-6,22.6-11.7,33-12.9,35.3-4.1,67.7,43.3,59.6,76.8-3.5,14.2-11.8,27.9-23.7,36.1-8,5.5-20,6.4-29.1,8.2-1.8,1.9-3.7,4-5.7,5.7-11-.9-11.6.3-21.5,1.7-4.1-.3-8.9-3.3-12.6-5.3-10.3-5.4-23.3-9.2-35-7.9,9.1,2.9,19.8,4.2,29.3,7.7,4.4,1.7,12.6,5.6,16.2,6.6,8.1,2.4,9-.2,16.3-.2,16,0,34.9,6.2,46.2,18.1-5.9,2.3-8.1,3.6-13.1,8-1.8,1.8-5.2,4.8-6,7l.3.7c.5-.7,1.1-1.3,1.7-2,5.6-6.2,14.9-9.7,22.5-12.3,15.1-5.1,35.3-3.4,47.2,8.5l.8.8.7-.2c1.1-3.7,1.2-6.6,1.5-10.5.5-17.3,10.4-32.5,16.8-47.3,7-18.4,7.9-39.1,7.9-58.8,0-11.4-17.2-17.8-20-28.7-1.8-7.1-1.2-12.7-1.8-19.8-8.3-6.9-44-20.7-56.1-26.3-62.4-28.9-125.9-55.6-188-85.1-5.8,3.8-7.9,6.3-14.6,9.3-5.8,2.6-23,4.3-25.4,8.8-5.7,11-11.6,36.6-13.3,49.2-.4,3,1.8,18.5,2.2,21.6,1.8,14.8,2.3,34.8-7,47.2,2.8,2.1,9.5,4.9,12.9,6.3,16.9,7,27.4,20.2,28.5,39.3ZM244.8,188.2h.6c-.6-4.1-2.3-7.8-3.1-11.9-7.3-39.6,5-84.4,28-116.7,5.1-7.2,10.9-13.8,17.2-19.8,2-1.9,17.2-13.8,17.4-14.4l-.9-.2c-49.2,19.4-81.9,103.2-63.4,152.9,1.3,3.4,2.6,6.7,4,10ZM593.7,500.8l3.2-3.2c-4.5,2.5-9,3.3-13.6,5.2-17.7,7-39.3,8.4-57.6,2.8-10.3-3-26.3-13.6-33.6-15.6,23.5,24.1,54.9,35.9,86.9,22.1,5.1-2.2,11.4-6.8,14.7-11.3ZM320,140.8c-5.8-4.5-8-13.2-3.5-19.7,4.4-6.4,12.3-3.5,18.3-1.7-3.8-9.1-4.6-11.8-14.8-11.3-19.8,9.7-16.1,47.9,2.8,36.1l.4-1.3c-1.4-1.4-1.5-1.3-3.2-2.1ZM480.3,532.7c-.5-12.6-3.6-29.9-16.9-34.4,7.1,7.7,10,13.3,13.3,23.6,1,3,2.2,8.1,3.6,10.8ZM425.2,490.3c8.1,0,11.4-1.4,20,0-9.3-4.1-12.8-4.9-22.7-2.4l-2.1,2.6.3.7c1.7-.3,2.8-.5,4.4-1ZM398.6,310.2c-2.9,9.6-6.1,21.6-10,30.5l.6.6c6.2-8.1,11.7-17.4,10.3-28.1-.3-2.3.2-1.5-.9-2.9ZM512.2,442.6c-22.6,1-25,11.3-39.1,24.9,1.2,1.9,2.7,4,3.3,6.2l.7-.3c5.7-18.1,19.7-24.4,35.8-29.9v-.7s-.7-.2-.7-.2ZM623.1,525.2c-1.3-1.9-18.4-4.6-21.4-4.4,5.4,4.5,10,6.1,17,5.2,1.5-.2,3-.5,4.4-.8ZM526.1,562c2.4,1.2,5.2,2.7,7.7,3.7,4.7-.2,6.4-.1,10.1-3.1l-.2-.9c-2.5-.5-2.6-.4-5.1-.2-4.2.2-8.4.4-12.5.5ZM554.3,548c-1.1-1.2-22.1-8.3-25.2-9,4.2,5.1,5.3,6.6,11.1,9.9,5.4,0,8.8.4,14.1-.9ZM420.2,523l-.7,4.5c2.1-1.1,3.9-2.1,6.2-2.6,2.7-.6,4.3,1.4,5.9-.7l-1.4-2.1c-1.6-4.9,1.5-10.8,3.4-15.5-3.4,2.8-5.2,4-6.6,8.4-1.3,4.5-1.5,3.9-6.1,5.6l-.6,1.3v1.1ZM333.6,789.1c.4,6,1.8,17.7,4.8,22.8h.6c1-5.1-2.4-18.3-5.4-22.8ZM393.2,389.5c6.5,14.9,11.7,16.2,25.4,23.4-8.4-10.4-14.7-16.5-23.1-28.1l-6.8-10.3c1.4,5.5,2.5,9.8,4.5,15.1ZM125.4,768.3c0-1.8-1.8-35.9-1.6-35.1-3.5,9.5-1.5,25.4,1.6,35.1ZM693.7,523.6l1.9-1.7-.3-.6c-15.6,4.4-34.3,1.5-50.4-1.2,9.9,7.5,20.1,11,32.5,9,5.7-.9,11.3-2.8,16.4-5.6Z"/>
  <path fill="#9ec704" d="M988.2,436.4s0,0,0-.1c0-.4.2-.8,0-1.1-1-3.7-65.6-23.5-70.8-33.5-1.7-3.3-1.3-7.6-.3-11.1,1.2-4.4,4.3-10.8,8.6-12.7,1.6-.7,3.3-.3,4.9.2,14.1,4.2,28.2,11.5,41.8,17.2,17.1,7.2,34.7,13.5,51.5,21.5,2.4,3.1,3.1,5.5,2.6,9.3-2.4,19-13.8,22.2-29.2,14.4-2.7-1.4-6.5-2.5-9.1-4.2Z"/>
  <path fill="#fbfebd" d="M972.1,434.9c-16.7-8.6-38.2-15.2-55.6-23.2-10.9-5-8.1-21.9-3.6-30.6,4.1-7.9,6.6-10.1,14.4-12.9,7.3,2.5,15.3,6.4,22.6,9.5l36,15.3c1.5-3.6,3-9.1,4.5-13.1-.9,7.4-1.3,10.2-3.9,17.3l.8.4c9.6,5,30.5,11.3,36.6,19.3-16.8-8-34.4-14.3-51.5-21.5-13.6-5.7-27.7-13-41.8-17.2-1.6-.5-3.3-.9-4.9-.2-4.4,1.9-7.4,8.3-8.6,12.7-1,3.4-1.4,7.8.3,11.1,5.2,10,69.8,29.8,70.8,33.5.1.4,0,.7,0,1.1,0,0,0,0,0,.1l-10.9-4.2c-3.5,5.5-13.7,22.9-17.3,26.4.4-1.8,10-19.1,12-23.7Z"/>
  <path fill="#f2fd94" d="M433.8,432.9c-1.4,6.2-12.1,17.8-7.5,26.1,3.6,6.5,20.8,7.2,27.9,9.1-2.6.6-6.3,1.7-8.7,1.3l-.3-.8c-4-1.3-9-2.1-13.3-2.8-16.7-5.4-6.1-24.2,1.9-32.9Z"/>
  <path fill="#f2fd94" d="M385.5,716.8c.6,2.5,1.9,6.8,1.6,9.1-.2,3.2-.6,5.4.3,8.5-5.4-3.8-3-12.1-1.9-17.6Z"/>
  <path fill="#9ec704" d="M442.9,231.3l1.6.4c1.2,1.4,1.8,1.9,1.8,4.1.2,12.4.1,25.2.1,37.6v76c-3.8-1.6-6.4-2.8-10.1-4.8-2.2-1.6-3.9-3.3-5.9-5.2-.3-17.7,5.7-32,.8-50.9-4.1-16.1,1.8-44.2,11.5-57.3Z"/>
  <path fill="url(#fixed_id_1)" d="M838.6,433.4c-9.5-50.6,22.3-135,72.6-152.4l4.2.3.5,1.2c-31.1,15.2-52,51.9-62.9,84.1-6.7,19.9-9,35.9-10.1,56.8.2,17.1,1.9,27,7.1,43.4-5.4-9.9-10.7-21.9-11.5-33.4Z"/>
  <path fill="#f2fd94" d="M838.6,433.4c1.6-7.1-.6-5.6-.3-10.2,1.3-2,.4-1.4,2.5-1.9,1.5,1.7.9,6.2,1,9.2.4-2.4.8-4.7,1.2-7.1.2,17.1,1.9,27,7.1,43.4-5.4-9.9-10.7-21.9-11.5-33.4Z"/>
  <path fill="#f2fd94" d="M459.3,496.1c21.4-.2,23.9,28,21.3,44.4l-.7.8c-1.2-.4-2-5.4-2.4-7.2-4.1-17.4-6-25.1-18.3-38ZM480.3,532.7c-.5-12.6-3.6-29.9-16.9-34.4,7.1,7.7,10,13.3,13.3,23.6,1,3,2.2,8.1,3.6,10.8Z"/>
  <path fill="#f2fd94" d="M129.3,718.2c-1.4,13.7-3.6,25.4-2.5,39.6.4,5.2,4,18.6,3.1,21.6l-1.2-1.1c-11.5-24.3-10.4-36.3.7-60.1ZM125.4,768.3c0-1.8-1.8-35.9-1.6-35.1-3.5,9.5-1.5,25.4,1.6,35.1Z"/>
  <path fill-opacity=".2" d="M123.9,733.2c-.3-.8,1.5,33.3,1.6,35.1-3-9.7-5-25.6-1.6-35.1Z"/>
  <path fill="#f2fd94" d="M641,489.1c.5-.7,1.1-1.3,1.7-2,5.6-6.2,14.9-9.7,22.5-12.3,15.1-5.1,35.3-3.4,47.2,8.5l.8.8.7-.2c1.1-3.7,1.2-6.6,1.5-10.5.9,7.1.2,17.3.5,24.9-2.7-3.9-2.9-8.5-4.4-11.1-10.8-18.6-41.6-14.1-57.4-5.6-5,2.7-8.7,5.3-13.1,7.4Z"/>
  <path fill="#f2fd94" d="M457.3,389.2c-8.3-25.1-17-38.8-44.7-42.9-3.8-.6-7.5-.6-11.3-1.3l-.4-.8c3.5-1.8,11.2-1.9,14.9-.6,2.8,2.1,9.5,4.9,12.9,6.3,16.9,7,27.4,20.2,28.5,39.3Z"/>
  <path fill="#f2fd94" d="M431.6,524.2l2,.5h-.6s1.3.9,1.3.9c-3.3,1.1-10.5,1.5-12.5,3.2-5.2,4.4-9.4,10.8-14.4,15.8,1.9-9,5.8-15.6,12.8-21.5l-.7,4.5c2.1-1.1,3.9-2.1,6.2-2.6,2.7-.6,4.3,1.4,5.9-.7Z"/>
  <path fill="#fbfebd" d="M597.3,455.5c-3.6-1-11.8-4.9-16.2-6.6-9.5-3.6-20.2-4.9-29.3-7.7,11.6-1.3,24.6,2.5,35,7.9,3.8,2,8.5,4.9,12.6,5.3l-2.1,1.2Z"/>
  <path fill-opacity="0" d="M529.1,539c3,.7,24.1,7.8,25.2,9-5.2,1.2-8.7.9-14.1.9-5.9-3.3-6.9-4.8-11.1-9.9Z"/>
  <path fill="url(#fixed_id_1_2)" d="M398.6,310.2c1.1,1.5.7.7.9,2.9,1.3,10.7-4.1,20-10.3,28.1l-.6-.6c3.9-8.9,7.1-20.9,10-30.5Z"/>
  <path fill="#f2fd94" d="M400,518.5c9.7-1,18.7,1.9,26.9-3.4-1.3,4.5-1.5,3.9-6.1,5.6l-.6,1.3c-6.8-.7-13.8-1.1-20.2-3.4Z"/>
  <path fill-opacity="0" d="M601.7,520.8c3.1-.2,20.2,2.4,21.4,4.4-1.4.4-2.9.7-4.4.8-7,.8-11.7-.8-17-5.2Z"/>
  <path fill-opacity="0" d="M422.6,488c9.9-2.5,13.3-1.7,22.7,2.4-8.6-1.5-11.9,0-20,0-1.7.5-2.8.7-4.4,1l-.3-.7,2.1-2.6Z"/>
  <path fill-opacity="0" d="M333.6,789.1c3,4.5,6.4,17.7,5.4,22.9h-.6c-3-5.3-4.4-17-4.8-22.9Z"/>
  <path fill="#f2fd94" d="M410.4,499.4c3.1-4.4,7-10.2,12.2-11.4l-2.1,2.6.3.7c1.7-.3,2.8-.5,4.4-1,2.1.5,1.5-.4,3,.7l-.8.8c-7.3.9-10.7,3.8-17.1,7.5Z"/>
  <path fill="#f2fd94" d="M433.6,506.7c2.1-2.1,4-3.4,6.3-5.1-4.5,7.6-7.5,11.9-9.7,20.6-1.6-4.9,1.5-10.8,3.4-15.5Z"/>
  <path fill="#f2fd94" d="M630.9,497.4c3.8-5.9,9.3-13.1,15.8-15.9-1.8,1.8-5.2,4.8-6,7l.3.7c-1,1.8-8.1,6.8-10.1,8.2Z"/>
  <path fill="#f2fd94" d="M911.3,281c6-2.5,10.5-2.5,17-2.9-3.2,1.2-9.2,3.6-12.3,4.4l-.5-1.2-4.2-.3Z"/>
  <path fill="#9ec704" d="M845.8,491.9c2.2,1.5,14.3,7,17.8,8.8,1.2,8.6.8,24.1.8,33.2l-.3,58.3v134.2c.2,26-.7,51.2.3,77.4,12.3,4.4,9.6,8.5,9.6,20.9,0,3.6-.1,7.5-.2,11.1,4.3-1.8,7-3.2,11.1-5.5-2-92.6.5-185.9-.5-278.5-.1-14-.1-28.2,0-42.1,21.9,1.1,28.4-1.4,48.6-9.9-1,13.1,0,38,.1,52v86.5c.1,0,0,105.7,0,105.7,0,15.6-.8,40.8.3,55.4,9.5-7.9,33.6-24,44.1-30.8,6.6-4.3,30.6,4.4,35.1,9.5,3.4,3.8,3.7,25.6,3.5,31.6-13.1,11.8-31.7,17.5-46.1,27.1-5,3.3-10.2,6.5-15.3,9.8l-54.2,35.8c-32.4,21.5-66.2,41.6-98.4,63.3-13.5,9.1-23.2,21.3-39.4,28.6-.5-.1-1.1-.3-1.6-.4-6.6-1.8-28.4-8.1-31.2-13.8-3-6.2,1.4-26.6,3.6-33.1,5.3-5.4,15.4-10.8,22.2-15l36.4-22.8c14.5-9.2,28-19.4,42.8-28.4.9-15.1,0-35.6.3-51.5,5.8-3,10.5-3.3,10.5-11.2,0-11.7,0-23.3-.1-35v-76.4c0-64.3,1.3-131,.1-195Z"/>
  <path fill="#9ec704" d="M629.8,574.5c26,12.5,44.6,16.6,72.8,8.5,2.1-.1,14.6-5.7,16.1-4.7,4,2.7,1.2,16.9-3.1,20.3-7.6,6.1-14.5,9.5-22.4,14.1-8.5,4.9-16.9,10-25.1,15.4,1.1,8.2,5.4,27.4,7.1,36.6,2.4,12.6,6.4,43,10.1,53.8,4.7,1,16.2,5.3,21.1,7l36,11.8c15,5,11.5,6.8,12.6,20.6,1.3,17.2-6.9,18.2-19.6,24.5-14.3-.6-18.8-3.7-30.5-11.2-2.7-1.7-15.5-5.9-19-7l-36-11.5c-13.3-4.3-27.2-9.4-40.7-12.8-3.1-.8-6.9.5-9.9,1.5-8.4-2.3-17.3-4.6-24.5-9.7-.8-6.4-.6-23.2.4-29.6,16.3-12.7,26-9.5,43.9-3.2,6.1,2.1,13,4.2,19.3,6-1-3.5-1.6-6.5-2.3-10.2-1-4.4-1.8-10.3-2.6-15.1-1.6-8.7-4.5-19.8-5.1-28.4-3.9,1.6-8.3,4.1-11.8,6.4-31,20.1-64,36.6-95.4,55.8-22.1,13.7-44.4,27-66.9,40.1-10.5,6.2-26.3,16.2-37.1,20.3-2.6-5.7-10-21.9-10.3-27.5,1.6-3.7,20.7-14.1,25.1-16.9,27.8-18,44-30.2,50-64.9,1.2-6.8,3.4-18.9,5-25.8,3.4-3.5,29.5-23.6,32.5-24,47.9-6.4,71.5-6.3,110.2-39.9ZM516.9,679c-3.2,2.8-12.6,9.7-14.6,11.7,8.7-3,119.6-67.4,125.1-72.5-4.5,1.6-8.5,3.9-12.8,6-28.2,14.2-55.2,30.6-82.6,46.3-2.7,1.5-5.7,3.2-8.4,4.6-1.2.8-5.6,3.5-6.7,3.9Z"/>
  <path fill="#f2fd94" d="M523.6,675.2c3-5.6,114.2-67.3,128.4-72.8l.3.4c-5.4,3.6-19.6,13.7-25,15.5-4.5,1.6-8.5,3.9-12.8,6-28.2,14.2-55.2,30.6-82.6,46.3-2.7,1.5-5.7,3.2-8.4,4.6Z"/>
  <path fill="#f2fd94" d="M484.1,701.4c4.2-4.3,27.2-20.4,32.8-22.4-3.2,2.8-12.6,9.7-14.6,11.7-1.9,3-14.6,9-18.2,10.7Z"/>
  <path fill="#9ec704" d="M197.8,725.7c5.7-4.2,21.3-13.6,27.9-14.8,3.8-.7,17.9,1.4,23.7,1.7,12.5.6,29.5-3.6,40.8-3,3.3,17.1,8.3,27.6,14.7,43.3,3.2,7.7.2,25.1,1,33.7.2,7.4,4.1,17.6-.2,23.6-4,5.6-8.8,10.8-11.9,17.1-6,14.4-10.7,32.3-15.2,47.3-3.3,10.8-13.6,39.6-14.7,49.2,3.5,8.6,35.5,8.7,40.2,17.7,2.2,4.2,1,21.7,1.3,27.7.2,2.3.5,3.1-.5,5.2-2,1.9-26.2,6.9-30.6,6.9-13.7.2-8.8-7.2-16.6-10.1-13.9-5.2-27.7-9.8-41.8-14.2-4.2-1.3-17.7-6.9-21.4-7.1-8.4-.3-24.1-1.7-30.7-8.2-2.7-4.4-2.3-25.7-.8-29.6,7-18.6,41.8-5.2,52.4-1.6,4.4-13.1,8.3-29.8,12.5-43.2,2.2-7.1,3.6-15.1,6.5-22,2.2-7.6,4.6-15.2,7.2-22.7,4.2-15.6,9.5-22.7,18.4-35.6-7.3-3.2-15.2-4.6-22.8-7-6.6-2.1-13.4-4.6-19.9-7-8.2-1.9-15.3-4.3-21.1-10.9-2.1-9.8-2.4-26.8,1.3-36.1Z"/>
  <path fill="#fbfebd" d="M234.6,844.9c2.6.3,1.4.6,3.7-1-6.3,19.8-12.8,39.6-18.2,59.6-.9,3.2-1.7,6.3-2.8,9.4-14.2-3.8-32-12.7-46.6-5.7-2.1,1-4.6,3.6-4.9,6-1.1,7.2-2.1,20,.3,26.6,5.4,6.5,23.4,6.2,31.1,8,7.9,1.8,15.8,5.7,23.6,7.8,11.9,4.3,32.3,9.6,43,15,.7,2.5,1.2,5.3,3.6,6.5,7.6,3.6,28.5-1.4,36.5-3.7,1.2-1.5,1.2-2.5,1.6-4.4.2,2.3.5,3.1-.5,5.2-2,1.9-26.2,6.9-30.6,6.9-13.7.2-8.8-7.2-16.6-10.1-13.9-5.2-27.7-9.8-41.8-14.2-4.2-1.3-17.7-6.9-21.4-7.1-8.4-.3-24.1-1.7-30.7-8.2-2.7-4.4-2.3-25.7-.8-29.6,7-18.6,41.8-5.2,52.4-1.6,4.4-13.1,8.3-29.8,12.5-43.2,2.2-7.1,3.6-15.1,6.5-22Z"/>
  <path fill="#fbfebd" d="M217.6,772.7c5.2-.8,40.4,10.8,46.4,13.3-12.6,19.1-13.7,21.1-21.2,42.6-.4-2.8.7-3.8-.9-6.3,4.2-15.6,9.5-22.7,18.4-35.6-7.3-3.2-15.2-4.6-22.8-7-6.6-2.1-13.4-4.6-19.9-7Z"/>
  <path fill="#fbfebd" d="M241.9,822.3c1.6,2.5.5,3.6.9,6.3-.8,4.7-2.9,10.7-4.4,15.4-2.4,1.5-1.1,1.3-3.7,1,2.2-7.6,4.6-15.2,7.2-22.7Z"/>
  <path fill="#f2fd94" d="M243.8,748.5c-12.2,3.2-12.9-1.9-21.9-7.7-3-2-7.4-2.9-11.2-5.5,5.1.7,11.7,1.9,16.5,3.7,13.2,3.6,50.5,14.3,62.1,20.7-13-1.9-33.1-6-45.4-11.1Z"/>
  <path fill="#c6e342" d="M243.8,748.5c-12.2,3.2-12.9-1.9-21.9-7.7-3-2-7.4-2.9-11.2-5.5,5.1.7,11.7,1.9,16.5,3.7h-2.9s-.6.8-.6.8c2.1,3.2,15.9,7.4,20.1,8.8Z"/>
  <path fill="#9ec704" d="M885.4.7c11.3-.8,35.4-.3,47.1.1,1.8,25.6.8,63,.8,89.4v169.2c-2-.5-4.3-1.3-6.1-2-16.2-5-25.3-5.4-41.8-.7-.9-8.6-.6-25.2-.6-34.4l-.2-65.4V48c0-7.5-.5-42.9.8-47.3Z"/>
  <path fill="#9ec704" d="M399.7,0c10.7,1,34.9.5,46.9.7v99c0,7,.4,36.5-.4,40.9-2.1,1-2.7.5-5.4.3-14-1.1-14.8-1.5-26.9,5-4.3-1.6-14-3.9-14.5-9.4-.4-4.6-.8-13.2-.5-17.4,1-14.7-2.4-114.4.9-119.1Z"/>
  <path fill="#9ec704" d="M856.8.3c2,0,4.8.8,6.9,1.3,1,77,0,155.6.2,232.8,11.2,3.1,13,4.7,12.1,17.6-.2,3.3-.4,6.9-.7,10.2-12,8.1-19.8,15.5-29.7,25.9-3.1,4.1-7.1,8.4-10.6,12.1-.8-6.6-1.2-54.7,0-60.3,2.7-3.5,6.4-3.3,10.7-3.9-.3-49.1-.4-98.1-.2-147.2.4-29.5.4-58.9.1-88.4,3.6,0,7.4,0,11.1-.2Z"/>
  <path fill="#9ec704" d="M732.9,673c2.2-2.4,14.3-10.1,17.7-13.1,10.3-9.1,20.2-19.1,30-28.7,17.8-17.6,31-39.2,43.7-60.9,4.4-7.5,8.8-17,13.5-24.1l.5-.7c-1,7.6-1.5,21.3-3.4,27.4-9.9,31.3-29.1,59.5-53.5,80.7-2.3,2-7.7,6.5-9.9,7.8-21.6,18.8-46.6,27.5-72.6,36.7,2.7-3.3,30.2-23.3,34-25.1Z"/>
  <path fill="#abaf70" d="M732.9,673c-.8,2.5-12.4,12.6-15.3,14.4l.2,1.3h-1.8c0,.1.6-.6.6-.6l-.5.7c1.8-.4,4.1.2,4.8,0,10.8-3.9,21.3-9.6,31.2-15.6,5.7-3.4,13.3-10.3,19.4-11.8-21.6,18.8-46.6,27.5-72.6,36.7,2.7-3.3,30.2-23.3,34-25.1Z"/>
  <path fill="#9ec704" d="M302,482.2c-19.2-25.7-31.1-57.8-35.9-89.8-4.5-29.9-1.6-77.8,16.1-102.4-10.4,48.2-4.9,104.6,10.3,151.1,3.5,10.6,9.2,24.2,13.4,34.7l-3.8,6.3Z"/>
  <path fill="#9ec704" d="M821.6,496.6c.6.6.8,1.1,1.3,1.9,1.3,14.9-2.9,37-7.8,51-14.3,40.9-38.4,64.6-75.6,82.9l-.9-.5c.3-4.8,23.9-25.8,28.6-31.1,19.3-21.6,34.1-48,44.5-75.2,2.9-7.7,6.4-22.9,10-28.9Z"/>
  <path fill="#9ec704" d="M360.8,432.9c2.5,2,15.4,17.2,17.3,20.1,1.7,16.1-.5,37.1.4,53.8.4,6.8-2.5,9.5-7.1,13.6-2.5,2.2-8,8.4-11,7.4-1.8-8.8-1.4-86.9.3-94.9Z"/>
  <path fill="#9ec704" d="M303.7,294.4c3.5-9.1,8.6-21.2,15.2-28.2-1.4,9.2-6.4,23.5-8.6,34.7-6.2,38-6.2,61.9,1.7,100,2.4,10.7,6.7,22.8,8.6,32.3-4.1-6.6-11.9-19.3-14.2-26.3-8.4-13.2-12.7-46.5-12.7-62,0-14,3.8-37.9,10-50.5Z"/>
  <path fill="#abaf70" d="M303.7,294.4c3.5-9.1,8.6-21.2,15.2-28.2-1.4,9.2-6.4,23.5-8.6,34.7-1.5-7.3,3.3-16.9,2.1-19.7-3.7.5-4.9,10.6-8.7,13.2Z"/>
  <path fill="#abaf70" d="M312,400.9c2.4,10.7,6.7,22.8,8.6,32.3-4.1-6.6-11.9-19.3-14.2-26.3l.5-.2c1.9,1.6,2,2.3,2.8,4.5l1.2.5,1.7-.9c.8-3.3-.7.5-1.8-3.6.7-2.7.8-3.5,1.1-6.3Z"/>
  <path fill="#abaf70" d="M305.8,475.9c3,7.3,6.4,15.5,9.1,22.9-6.2-6-8.2-9.2-12.9-16.6l3.8-6.3Z"/>
  <path fill-opacity="0" d="M445,419.9c3.1-1.1,5.4-1.9,8.6-2.8-1.5.7-1.1.2-1.6,1.3l-6.5,4.1-.5-2.6Z"/>
</svg>