<?xml version="1.0" encoding="UTF-8"?>
<svg id="_레이어_1" data-name="레이어_1" xmlns="http://www.w3.org/2000/svg" version="1.1" xmlns:xlink="http://www.w3.org/1999/xlink" viewBox="0 0 1651.7 1060.2">
  <!-- Generator: Adobe Illustrator 29.3.1, SVG Export Plug-In . SVG Version: 2.1.0 Build 151)  -->
  <defs>
    <style>
      .st0 {
        fill-opacity: 0;
      }

      .st0, .st1 {
        fill: #aff750;
      }

      .st2 {
        fill: #aff849;
      }

      .st3 {
        fill: #74d40d;
      }
    </style>
  </defs>
  <path class="st3" d="M500.3,423.7c26.5-5.4,44.4-2,70.3,2.1.2.1.5.2.7.4,6.4,1.5,11.6,2.5,18.1,3.5,33.3,4.1,43.4,11.2,70.4,30.4,31.2,22.1,59.2,46.6,87.3,72.5,3,2.7,20.3,17.9,21.5,20.4,5.5,4.5,15.7,14.2,20,17.3,15.3,6.8,25.7,21.7,36.7,34,16.3,18.1,31.8,37.2,46.8,56.3,4.7,6.1,24.6,35.5,29.2,38.2,3.6-2.3,7-4.9,10.5-7.4.9,2.5.7,4.1.6,6.7,5.6,3.9,11.3,7.3,17.4,10.6,19.4,10.5,38.9,24.1,56.6,37.3,11.7,8.7,23.7,20.7,34.9,30.2,35.4-4,47.2.6,80,11.4,9.5,3.1,21.5,5.8,30.7,9.3-29.7-.6-45.5-10.7-73.6-16.3-7.8-1.6-20.6,0-29.5-.5-.3,1.4-.8,1.7,0,2.8,20.1,25.6,41.1,50.3,54.7,80.2,2.3,5.1,9.9,24.7,12.7,27.9l3.5-.5c-3.1,7.4-3.2,10.9-7,18.7-4.2,6.5-16.7,17.1-19,21.9-8.7,18.4-17,33.8-31,49.3-2.3,2.5-9,9.7-9.7,12.2l.7,1.5c6.9,1.4,30.4.8,38.6.8h73.8c0,0,305.1-.2,305.1-.2,49.1,0,98.2,0,147.4,0,4.2,0,16-.5,19.1,1.6,3.4,7.6,2.8,30.7,1.8,39.4-4.8,5.1-83.3,3.3-94.6,3.3h-149.5l-421.9.2H432.3c-129.1.7-258.2.7-387.3,0-3.2,0-6.1,0-8.7-1.7-5.4-7.3-3.4-15.9-3.6-24.5-.2-6-1.7-14.8,3.1-19.2,5.5-2,41.5-1.3,49.9-1.4l6.2-6.8c.2-5.6,0-7-3.9-11.1-3.3-5.2-5.7-9.8-8.6-15.2-6.5-5.2-19.4-14.7-15.2-23.7,7.7-16.1,49.8-14.7,64.8-18.2,9.6-4.8,24.2-8.5,32.8-14.7,29-20.6,65.1-39,93.5-59.3,14.8-10.6,28-31.7,37.4-45.5,37.2-54.8,55.5-118.5,81.3-178.8,13-30.1,32.6-58.7,47.6-87.8,3.7-7.1,5.8-18.2,8.5-26.3,8.4-25.1,30.6-47.5,48.2-67,4-4.3,17-11.5,21.9-14.2ZM397.1,901c-.2,18.5,1.8,35.3,2.4,53.6.2,7.6.2,15.1.4,22.7-2.8,4.5-5.8,9.4-6.2,14.7l5.8,1.9c95.3,2.8,192.1-.8,287.5.6,27.9.4,57.7.5,85.6-.3-9.7-9.6-22.5-15.3-33-25.6-42.8-42.1-79.9-89.6-122.6-131.9-10.3-10.2-21.8-21.3-30.4-32.6,2.8-16.3,9.8-24.9,11.6-42.3-8.5-14.4-18.9-40.1-24.9-56.1l-4.2-6c-9.5,7.2-17,24.6-26.8,34.3-13.2,13-28.3,22.9-41.5,35.3-13.5,12.8-25.7,28.3-37.8,42.4-23.5,27.6-46.9,58.3-65.8,89.4Z"/>
  <path class="st3" d="M500.3,423.7c26.5-5.4,44.4-2,70.3,2.1.2.1.5.2.7.4-14.5.5-20,2.1-32.8,8.4-14.8,11.5-17.9,19.4-29.1,31.7-26,27.5-33.7,58-46.9,92-3.7,9.6-14.4,26.1-19.9,35.6-37.7,64.6-59.3,137.7-98.1,201.5-15.8,26.1-40.4,53.1-62.3,74.3-19.8,18.3-52.5,28.2-74.8,43.8-4.3,2.8-29.6,18.7-33.3,20.3-22.1,9.7-55.9,17.1-80.1,21.2-8,1.3-5,4.6-14.6,4.2-6.5-5.2-19.4-14.7-15.2-23.7,7.7-16.1,49.8-14.7,64.8-18.2,9.6-4.8,24.2-8.5,32.8-14.7,29-20.6,65.1-39,93.5-59.3,14.8-10.6,28-31.7,37.4-45.5,37.2-54.8,55.5-118.5,81.3-178.8,13-30.1,32.6-58.7,47.6-87.8,3.7-7.1,5.8-18.2,8.5-26.3,8.4-25.1,30.6-47.5,48.2-67,4-4.3,17-11.5,21.9-14.2Z"/>
  <path class="st2" d="M571.3,426.2c6.4,1.5,11.6,2.5,18.1,3.5l-.6,1.5c-53,2.1-57.9,20.4-88,61.1-20.8,28.2-21.3,58.6-39.9,87.3-43.2,70.2-67.1,150.9-109.6,221.2-16.3,25-36.6,47.4-56.6,69.5-16.6,17.9-40.7,26.4-61.6,38.5-23.7,13.7-47.3,28.9-72.6,39.4-11.9,5-28.7,5.6-41.1,10.2-13.1,4.9-24.6,2.8-31.3,16.1-3.3-5.2-5.7-9.8-8.6-15.2,9.6.4,6.6-2.8,14.6-4.2,24.2-4,57.9-11.5,80.1-21.2,3.6-1.6,29-17.4,33.3-20.3,22.3-15.7,55-25.6,74.8-43.8,22-21.2,46.5-48.2,62.3-74.3,38.8-63.9,60.3-136.9,98.1-201.5,5.5-9.5,16.2-26,19.9-35.6,13.3-34,21-64.6,46.9-92,11.2-12.3,14.3-20.2,29.1-31.7,12.8-6.4,18.4-7.9,32.8-8.4Z"/>
  <path class="st2" d="M911.8,691.3c.9,2.5.7,4.1.6,6.7,5.6,3.9,11.3,7.3,17.4,10.6,19.4,10.5,38.9,24.1,56.6,37.3,11.7,8.7,23.7,20.7,34.9,30.2,35.4-4,47.2.6,80,11.4,9.5,3.1,21.5,5.8,30.7,9.3-29.7-.6-45.5-10.7-73.6-16.3-7.8-1.6-20.6,0-29.5-.5-.3,1.4-.8,1.7,0,2.8,20.1,25.6,41.1,50.3,54.7,80.2,2.3,5.1,9.9,24.7,12.7,27.9l3.5-.5c-3.1,7.4-3.2,10.9-7,18.7-1.6-2.8-2.1-7.6-3.1-10.8-26.1-82.3-92.1-140.5-164.1-182.2-4.8-3.1-6.8-4.4-12.2-6.9,4.8,6.6,8.9,12.2,13.2,19.2,4.4,7,5.4,12.3,10.7,18.1,22.7,22.3,35.9,74,39.8,105.3-13.2-36.7-19.5-64-41.9-98,.5,16.6,3.1,33.7,3.8,50.9,1,23.5-1.8,40.7-4.7,63.7-2-1.8,1.1-27.6.7-34.5-1.8-31.7-5.6-68.9-15.7-98.9-3.4-10-14.3-25.6-19.3-34.7l1.3-1.4c3.6-2.3,7-4.9,10.5-7.4Z"/>
  <path class="st2" d="M584.7,563.7c12.8,11.1,29.1,30.5,38.1,45,3.4,5.5,7.6,16.9,11.3,23.2l.9,1.5-1.5,1.7c-8.5-16-23.6-36-36.8-48.6,2.4,25.5,3.2,34.2-1.4,59.2,11.4,25.8,20.7,55.4,31.9,82.1,4.3,10,8.8,19.9,13.6,29.7.9,1.8,6.9,13.2,7.1,13.9,3.1,4.6,5.4,10.1,8.9,13.6,14.2-2,59.2-65.3,74.1-76.2-13.7,30.7-47.4,68.6-74,89.2-5.4,4.2-16.7,10.7-17.7,15.7,2.2,2.6,4.4,5.2,6.5,7.8,1.7,3.7,2.6,4,2.1,7.4-3.6-.2-6.3-2.3-9.9-3.4-4.8-3.9-7.2-7.2-10.2-12.5,2.9-8.2,5.4-16.8,10.5-23.8l3.6-9.7c-22.6-42.6-31.1-75-49.3-116.7-4.3,11.5-12.1,33.8-19.3,42.8l-4.2-6c-1.7-1-1.1-1.3-.5-2.6,5.1-10.7,9.5-21.8,13.3-33.1,10.8-33.8,12.9-66.2,3-100.3Z"/>
  <path class="st1" d="M638.2,789.3c3-2.9,4.1-4.7,6.3-8.2h1.5c20.1,21.3-5.2,19.4-9.6,29.2,1,3.2,0,2.1,2.8,3.7,2.2,2.6,4.4,5.2,6.5,7.8,1.7,3.7,2.6,4,2.1,7.4-3.6-.2-6.3-2.3-9.9-3.4-4.8-3.9-7.2-7.2-10.2-12.5,2.9-8.2,5.4-16.8,10.5-23.8Z"/>
  <path class="st1" d="M91.9,985.5c3.9,2.2,6.7,4.1,11.3,2.6l2.8.7c.9,2.7.8,2.9.9,5.7,3.8,3.5,4.7,3.5,9.8,5.4,3.3,1,8.3.9,13.3,2.2,5.7,2.1,7.8,3,14.1,3.1,10.8.8,10.9,10.7,22.5,8.4,12.4-2.5,26.5-2.7,38.6-4.7,30.4,1.7,56.1-8.1,86.5-10.5,32.3-2.5,66.2,12.5,96.6-4.6,2.5-1.4,2.3-1.8,5.4-1.8l5.8,1.9c-.8,3.1-6.6,8-9.3,9.5-31.2,17.3-65.7,1.7-98.4,3.4-23.2,1.2-46.7,10.7-70,12.7-12.4,1.1-23.8-2.8-36.1-3.5-5.5-.3-17.4,4.3-21.7,3.3-18.3-4.1-37.8-7.2-55.4-13.7-5.3-2-11.8-8.6-18.8-10-13.9-2.8-41.3,1.2-54-1.7,5.5-2,41.5-1.3,49.9-1.4l6.2-6.8Z"/>
  <path class="st2" d="M780.7,568.2c-1.4-1.9-9.7-10.2-12.3-13.3l.3-1.9c5.5,4.5,15.7,14.2,20,17.3,0,4.9-2.3,15-3.5,20.2-7.7,35.6-24.1,69.8-42.9,101-4.6-7,8.3-27.8,11.3-35.5,11.2-28.3,22.7-57.5,27.1-87.8Z"/>
  <path class="st2" d="M645.7,821.7c9.4,9.1,18.4,20.2,27.5,29.7,18.3,19.2,33,35.5,48.5,57.3,2.5,8.4,11.9,14.9,12.1,20.3l-1,.4c-2.9-5.1-17.1-20-21.7-25.1-23.8-26.5-48.8-52.6-73.2-78.7,3.5,1.1,6.2,3.3,9.9,3.4.5-3.4-.4-3.6-2.1-7.4Z"/>
  <path class="st2" d="M144.1,1005.3c2.3-2.4,2.5-3,4.2-5.8,7.1-11.5,18-20.4,32.2-17.7-1.9,4.4-26.7,8.4-27.8,22.8,4.4,8.4,19.5,5.3,27.4,4.1,9.6-1.4,15.6-1.5,25.1.3-12.1,2-26.2,2.2-38.6,4.7-11.7,2.3-11.7-7.6-22.5-8.4Z"/>
  <path class="st2" d="M103.3,988.1c2.5-9.8,5.8-12.7,14.8-18.1,6.3-3.8,20.3-10.7,27.5-8.9l1.3,1.3c-6.4,6-37.4,8.2-39.8,32.2-.1-2.9,0-3.1-.9-5.7l-2.8-.7Z"/>
  <path class="st2" d="M116.8,1000c9-1.8,6.8-5.1,10.7-12.3,3.3-6.1,23.3-17.8,29.4-15.2-8.1,6.9-30.6,15.7-26.8,29.7-5-1.3-10-1.2-13.3-2.2Z"/>
  <path class="st1" d="M721.7,908.8c6.3,6.2,21.8,29.8,24.6,37.8-4.2-2.4-11.3-12.7-13.6-17.1l1-.4c-.1-5.4-9.5-11.9-12.1-20.3Z"/>
  <path class="st1" d="M635,633.5c3.1,5.9,4,8.1,6.2,14.4-3.5-4.8-4.9-7.5-7.7-12.7l1.5-1.7Z"/>
  <path class="st2" d="M529.1,592.5l1.1.6c-1.5,4.1-7.3,10.8-9.7,15.2-15.7,27.7-29.7,56.3-41,86.1-2.4,6.3-4.8,13.5-8.1,19.3h0c.4-4.1,3.2-14.2,4.4-18.8,10.4-40.7,27-70.5,53.4-102.4Z"/>
  <path class="st2" d="M393.6,853l1.3,1c-3.2,5.3-5,11.1-7.8,16.4-12.9,24-7.8,59.5-43.7,59.7l-1.8-1.7c2.6-4,14.5-1.3,22.1-13.2,7.9-12.2,7.8-22.4,13.1-35.2,3.3-8.1,11.7-19.7,16.7-26.9Z"/>
  <path class="st1" d="M1034.4,854c9.6,5.9,23.8,40.7,26.2,51.3-2.5-2.6-4.1-6.4-5.5-9.7-6.2-14.4-13.2-27.8-20.7-41.6Z"/>
  <path class="st2" d="M548.4,514.4c3,0,4.6-.8,6.3.7-3.6,3.8-17.9,7.6-23.7,9.4-1.9.7-2.3.8-4.3,1.3l-.3-1.3c5.2-6.3,14.3-8.9,22-10.1Z"/>
  <path class="st1" d="M965.6,774.2c7.9,1.6,24.4,20.9,28.6,28.1l-.5.2c-6.2-5-21.9-21.7-28.1-28.3Z"/>
  <path class="st3" d="M1109.1,65.9c41.3-58.1,166.9-70.8,195.2,24.4,0,.3,0,.6-.1.9,2.5,4.5,3.4,7.2,8,9.5,8.3.4,9.6,1.5,15.7,8,5.4,5.7,9.2,11,15.2,16.5,11.2,11.2,17.3,22.2,28.5,31.9,3.7,3.2,13.9,5.8,18.8,9.2,13.2,9,25.5,21.4,39.3,29.3,56.6,32.5,110.4,55,154.5,105.6,14,16.1,29,29.9,29,53.8,0,33.9-28.7,58.7-50.2,81.3-8.4,8.9-16.3,18.7-25,27.2-20.8,19.9-46.4,34-74.3,40.9-20.7,5.3-46.2,5.4-61.6,20.9-10.7,10.7-17.4,33.9-23.7,48.1-22,50-63.6,80.1-99.1,119.3-11.7,13-22.6,32.3-33.9,45.9-30.6,40.4-63.4,77-102.1,109.7-13.9,11.7-35.8,24.7-43.6,42l-3.5.5c-2.8-3.2-10.4-22.7-12.7-27.9-13.6-29.9-34.6-54.6-54.7-80.2-.8-1-.3-1.4,0-2.8,8.9.5,21.7-1.1,29.5.5,28.1,5.7,44,15.7,73.6,16.3-9.2-3.4-21.2-6.2-30.7-9.3-32.8-10.8-44.6-15.4-80-11.4-11.2-9.5-23.2-21.5-34.9-30.2-17.7-13.2-37.2-26.8-56.6-37.3-6.1-3.3-11.8-6.6-17.4-10.6.1-2.6.3-4.2-.6-6.7,1.9-4.8,14.2-18.6,19.9-21.7,3.8-3.1,7.4-3.4,9.8-7.5,5.2-14.6,9.9-28.2,20.6-39.6,3.3-4,3.9-4.4,5.4-9.2,3.6-25.4,15.7-52.2,26.8-74.9,2.9-5.9-.4-16.4,2.6-22.2l.6-1.4c0-9.8-3.6-20-3.7-27.6-.2-24.7-1.7-54.8.2-79.1-.8-3.7-1.2-3.7-3.6-6.4-8.8-4.1-18.3-12.7-27.8-15.8-7.9-2.6-17-4.6-25.1-6.8-11.8-3-23.3-7.2-34.2-12.6-16-7.8-30.9-16.1-45-27.1-25.3-19.6-97.6-93-107.2-121.4-4.5-13.2-8-32.2-1.3-45,7.3-14,28.8-18,42.9-23.2,13.4-5,26.3-11.3,39.7-16.4,16.7-6.4,35.3-11.4,52.9-14.5,40.4-7.2,83.3-5.4,122.9-12,11.6-1.9,23-4.8,34.6-6.9,7.5-1.4,15.3-1.5,22.7-3.6,8.4-2.4,15.7-8,24-10.6,4.3-2.1,5.7-2.4,10.5-3.6,1-4.4,6.3-12.6,8.8-16.4ZM1285.3,255l-5.1,3.3c0,1.3,0,4-.2,5.1,3.2,8.1,3.6,21,6.8,30.6,7.5,22.1,32.5,32,45.8,47.3,4.3,3.1,4.1,2.9,9.3,3.4,22.5-.9,45.2.6,67.3,4.7,4.7.9,29.4-11.8,40.5-6,1.1.6,4.7.7,5.8.6-.4-5.6-30.8-52.1-37.3-59.7-13.9-16.4-38.3-38.6-56-51.8-2.5-1.8-12.7-1.4-16.2-1.3-20.4,15.9-36.5,20-60.8,23.8ZM1103.9,271.6c.5-11-16.4-51.8-16.4-62.2-.4-8.6-.8-13.1-7.4-18.9-24.8-23.2-24.2-24.3-57.2-18.6-35.7,6.2-69,13.7-99.6,34.4-4.9,3.3-10.6,4.8-14.4,8.6l-.7,2.5,2.5,2.8c5.2,1.8,11.1,1.7,16.7,3,13.5,3.2,27.9,7.9,39,16.7,1.9,1.5,8.7,7.4,9.8,9.1,2.7,2,9.9,7.1,11.8,9.3,9.8,1.5,20.5.6,30.4,1.3,30.2,2.1,49.7,8.6,72.8,28.2,3.8,3.6,11.6,11.4,15.4,14.2l3.8-5.2c0-3.1-5.4-20.8-6.6-25.2Z"/>
  <path class="st0" d="M1103.9,271.6c1.1,4.4,6.5,22.1,6.6,25.2l-3.8,5.2c-3.8-2.8-11.6-10.6-15.4-14.2,5.3-.9,6.2-.5,11,1.9l1.1-.5c.2-5.9.4-11.8.6-17.7Z"/>
  <path class="st2" d="M1118.2,433.5c5-.9,6.8-1.7,11.9-.7-2.6,1.3-14.8,7.2-16.4,9.2-16.3,20.1-36.3,59.7-25.7,85.7,6,14.8,33.8,23.7,47.2,28.1,30.9,10.1,54,9.5,82.7-5.7,27.2-14.5,42.2-31.9,63.1-53,10.8-10.9,27.2-20.4,35.7-35.2,16.5-28.6,14.2-39.1,40.4-62.3-10.6,17.9-18.5,34.5-26,53.9-2.1,5.4-6.6,11.6-9.5,16.7-7.3,11.7-18.9,19.7-28.6,29.3-28.3,28.2-56.8,60-97,70-32.2,8-68.5-5.4-96.6-20.8-13.7-7.5-22.5-18.1-22.9-34-25.7,10.8-53.7,22.6-79.4,3.7v-2.2c-.1,0,.5-1.4.5-1.4.7-2.5.9-5.2,1.2-7.8,1.2,1.4,7.6,8.9,8.8,9.5,9.7,4.9,28.1,4.2,38.1,2.3,28.3-5.3,33.6-30.2,44.4-52,3.8-7.7,11.9-18.9,17-26,3.3-2.9,2.7-5.4,7.2-8.5,4.4-8.9,20.5-25.8,30.5-26.3l-1.2.7c-11.3,7-18.7,15.4-25.4,26.8Z"/>
  <path class="st2" d="M1244.8,233.2c-7.5,51.9-29.9,49.3-72.3,71-5.7,2.9-13.1,4.9-18.1,8.8,5.6,22.7,6.9,23.9,4.8,47.3-3.8-13.1-7.4-25.1-9.2-38.7-.5-3.8-.2-4.7-2.2-7.2-3.2-.8-4.1-1-7.4-1.3-5.3,2.5-8.7,4.7-14.6,5.1-1,9.1,2.5,13.5.4,19.9-.5,7.9,25.1,24.3,18.4,37.2-1.4-.8-5.6-8.8-7.1-11.2-13.8-21.7-38-24.2-56-38.3,6.3,2.9,35.2,12.8,41.2,11-3.6-6.5-4.6-16.4-9.8-25.6-2.7-1-6.1-5.1-7.6-7.8l1.3-1.3,3.8-5.2c12.2,9.6,16,9.1,31.5,8.5,23.3-3.5,73-25,88.7-44,5.2-6.3,10.8-20.2,14.1-28.2Z"/>
  <path class="st1" d="M1110.5,296.9c12.2,9.6,16,9.1,31.5,8.5,4.5.3,5-.4,8,1.8-1.3,3.6-23.5,9.3-27.9,9.3-3.8-.7-6-2.9-9.1-5.2-2.7-1-6.1-5.1-7.6-7.8l1.3-1.3,3.8-5.2Z"/>
  <path class="st2" d="M1279.9,263.4c-4.7-11.5-.5-41.6,4.1-52.3,14.3-33.4,28.4-65.6,22-102.9-1-5.8-2.4-10.1-3.1-16.4l1.2-.7c2.5,4.5,3.4,7.2,8,9.5,5.2,19.2,3.7,24.9,1.6,43.7-4.1,25.8-10.9,41.8-20,65.8-.3.8,2.4,4.3,2.9,5,6.2,12.3,3.9,14.8-8,20.3-1,.4-1.9.9-2.9,1.3-1.6,9.8,0,10.9-.6,18.2l-5.1,3.3c0,1.3,0,4-.2,5.1Z"/>
  <path class="st1" d="M1285.8,212.6c.7-2.5,1.8-4.6,4.3-5.3,2.3,2.6,1.6,1.7,2,5.9l4.5,2c6.2,12.3,3.9,14.8-8,20.3-1,.4-1.9.9-2.9,1.3-1.6,9.8,0,10.9-.6,18.2l-5.1,3.3c-2.4-5.5,3.9-40.3,5.7-45.7Z"/>
  <path class="st2" d="M1100.3,82.3c.7,2.7-2.6,11.3-3.7,14.9-4.5,15.8-5.6,36.3-10.8,51.4,3.6,11,6.3,16.1,7.4,27.8-.7,6-4.2,27-5.7,33.1-.4-8.6-.8-13.1-7.4-18.9,14.4-20.8-7.5-32.6.6-52.4,6.2-15,5.2-36.9,10.9-51.1l-1.9-1.3c4.3-2.1,5.7-2.4,10.5-3.6Z"/>
  <path class="st2" d="M1163.6,387.9c29.2-16.8,50.9-18.9,84.1-18.3,13.8.2,23.4,0,37.6,1.5v2.3c-27.6,6.3-49.5,2.7-76.4,5.4-11.1,1.1-33.1,6.7-45.3,9.1Z"/>
  <path class="st2" d="M990.5,401.7c-.5-15,8.6-38.8,13.1-53.3,2.5-8.2,3.3-14.8,5.2-22.7,3.2,29.2-2.4,34.5-8.4,62.2-2.2,10.1-4.3,33.7-5.5,44.4-1.6-8.7.7-16.6-.9-24.2-.8-3.7-1.2-3.7-3.6-6.4Z"/>
  <path class="st2" d="M910.8,220.3c-6.7,4.4-20,8.5-27.8,10.7-8.6,2.4-39.1,5.8-45,0,4.7-2.1,32-3.1,39.7-5.8,5.9-1.1,11.4-2.8,17-4.6,5.3-1.7,8.6-6,13.6-3.1l2.5,2.8Z"/>
  <path class="st2" d="M1332.6,341.4c4.3,3.1,4.1,2.9,9.3,3.4,1.3.2,6,.9,6.7,1.4-20.9,4.3-26.2,6.4-45.5,16.6-1.8-3.6-1.4-2-.3-6.7,12.5-9.2,16.5-8.4,29.8-14.7Z"/>
  <path class="st2" d="M1455.5,344.1l1.7-1.1c8,4.8,21.5,16.9,32.1,23.6l1,2.3c-11.1-.4-34.1-12-36.5-23l1.7-1.9Z"/>
  <path class="st2" d="M998.7,300c-4.1-14.4-14.4-35.4-22.4-48l-.7-1.1.6-1.9c2.7,2,9.9,7.1,11.8,9.3,8,15.4,9.7,24.4,10.7,41.6Z"/>
  <path class="st2" d="M967.5,613.3l1.5,2.7c7.8.7,13.2-.8,18.4,4.3-1.2.9-20.7,2.7-23.8,3.1l-1.5-.8c3.3-4,3.9-4.4,5.4-9.2Z"/>
  <path class="st2" d="M941.4,662.1c9.2-1.1,11.1-.2,19.3,4.4-4.6,0-29,3.1-29.1,3.1,3.8-3.1,7.4-3.4,9.8-7.5Z"/>
  <path class="st1" d="M1285.3,371c9.9-1.5,8-8.7,17.6-15-1.1,4.7-1.5,3.1.3,6.7-4.9,3.6-12.4,8.4-17.9,10.6v-2.3Z"/>
  <path class="st1" d="M1107.1,440.8c4.7-10-1.2-15.4-6.6-24,5.4,5.1,8.9,9.9,13.8,15.5-4.4,3.1-3.9,5.6-7.2,8.5Z"/>
  <path class="st2" d="M1050.8,548.5l1.8,2.1c-.3,2.6-1.2,3.6-1.6,5.7-3.6,8.7-5.1,12-6.5,21.5,20.5,2,27.1,3.1,41.1,20.5,3.7,4.6,9.1,10,10.5,15.7l-1,.9c-14.1-4.6-20.2-26.2-40.8-29.7-25.1-4.2-40.5,25.7-39.6,47,11.4,4.2,23.9,7.8,33.2,15.8,4.7,4,8.9,8.9,14,12.5-1.4,2.5-.6,1.8-3,3.3-11.5-4.3-18.4-15.1-29.7-19.9-6.9-3-14-4.9-21.5-6-6.1,3.8-17.4,12-21.2,17.9-3.3,5-4.4,9.1-8.9,13.8l-1.4-.2c-.4-3,.3-4.5,1.1-7.3,4.7-16.5,14.8-23,29.2-30.5,0-1.5.1-3,.3-4.5,2.1-25.4,16.4-33.1,33.4-47.6,0-1.4.1-2.8.2-4.1.7-11.6,1.4-18.8,10.4-26.8Z"/>
  <path class="st2" d="M1191.6,659.9l1.1.5c-.7,2.3-.7,1.1,0,3.3,11.4,6.5,26.6,8.3,39.4,10.1-17.2,6.1-27.8,1.1-44.2-5.3-11.6,8.4-27.1,14.9-40.9,18.5-12.3,3.6-32.9,7.3-44.7,1.3,4.3-3.6,19.4-3.1,25.7-4.3,15.6-3,30.9-8.4,45.3-15,6.3-2.9,11.8-6.8,18.3-9.3Z"/>
  <path class="st2" d="M1185.9,618.6c1,0,.3,0,2.1.4-1.1,2.6-7.3,6.6-9.9,8.5,27.8,10,33.9,7.6,62.6,6.6-3.7,2.8-7.7,5.1-12,6.7-14.7,5.6-29.7,1.2-43.7-4.7-4.6-2.3-7.4-3.8-12.4-5.4-20.3,9-31,11.4-53,9.6,7.3-2.9,20.4-4.6,28.6-7.2,12.7-4,25.6-9.1,37.7-14.5Z"/>
  <path class="st2" d="M884,289.8l3.8-3.5c24.2,27.4,49,28.5,78.1,40.2-29-.5-66.7-9-82-36.7Z"/>
  <path class="st2" d="M1089.2,714.4c5.2-.4,9.5,0,14.7.4-36.8,9.7-48.6,12.5-82,31.5-4.9,2.9-8.3,4.4-13.5,6.7,27.3-23.2,42.5-35,80.8-38.6Z"/>
  <path class="st2" d="M1466.3,393.2c-15.4,33.4-28,45.8-67.4,45.8-.2-1.5-.1-.6,0-2.8,1.9-.9,3.6-2,5.4-3.2,35-5.9,39.5-13.1,61.9-39.9Z"/>
  <path class="st2" d="M1400.7,350.5c4.1,0,8.2,0,12.4.2-16.8,10.5-23.7,18.8-35.8,34.2-2.2,3.4-6,7.7-8.6,10.9,8.5-20.4,12.9-33.7,32.1-45.3Z"/>
  <path class="st2" d="M1171,588.9c11.9,2.6,24.1,6,36.3,8.7,11.2,1.5,17.9,1.9,29.2,1.1-16.4,7.6-35.7,9.2-51.9-.4-3.8-1.3-10.2-6.7-13.6-9.4Z"/>
  <path class="st1" d="M1171,588.9c11.9,2.6,24.1,6,36.3,8.7-10.8,2.9-16.9-5.3-22.7.7-3.8-1.3-10.2-6.7-13.6-9.4Z"/>
  <path class="st2" d="M1217.8,309.9l.7.7c0,3.4-1.6,6.2-2.9,9.4-6.6,16.4-16.8,31.2-30,43.1l-.4-.4c-.2-5.1,28.1-47.3,32.4-52.8Z"/>
  <path class="st2" d="M1390.4,457.5l.3.8c-21.6,20.2-26.8,17.1-53.8,19.7l-.6-.6c.5-.5,47.6-17.2,54.2-19.9Z"/>
  <path class="st2" d="M1080.2,663.8c14.8-4.5,16.9-18.7,18.5-31.9l.5.4-.3-1.3-.4,2.2,1,1.3c1.4,8.3,1.7,11.2,1.7,19.6-7.2,12.4-13.9,15.8-28,12.3,2-1.1,4.7-1.9,7-2.7Z"/>
  <path class="st2" d="M1174.9,518.9c11.4-1.5,19.2,5.3,8,14.4-12.1.9-20.2-5.8-8-14.4Z"/>
  <path class="st1" d="M986.6,685.8c7.3.5,39.5,16.7,45.8,22.5-15.2-1.1-34.5-12.3-45.8-22.5Z"/>
  <path class="st2" d="M1004.4,564.3c13.3-1.3,17.4-2.5,25.4,9.1-5.8-2.1-10.6-4.1-16.7-4.8-12.1-.2-17.1,2.2-27.9,7,7.2-5.6,10.7-8.2,19.2-11.3Z"/>
  <path class="st1" d="M1229.6,730.3h1v1.5c-12.2,10.7-32.6,23.2-47.4,29.7h-.9c1-2.1,42.1-28.4,47.3-31.2Z"/>
  <path class="st2" d="M1315.8,151c.2-3.9-.2-10.7,3.3-12.8.8,9.4,8.2,41.7,7.5,46l-1.1-.2c-2.3-9.2-6.9-22.3-9.8-33Z"/>
  <path class="st1" d="M948.9,343.9c11.3,3.4,34,16.9,41,27-12.2-3.6-30.5-18.9-41-27Z"/>
  <path class="st2" d="M1563.4,359.1c7.4,11.4-13.6,30-21.9,35.9-.3-.5-.5-1-.8-1.5,12.6-13.2,14.7-17.9,22.7-34.4Z"/>
  <path class="st1" d="M1269.7,299.5c.9,1.1,7.6,38.2,8.3,43.1-11.8-12.5-9.2-27.4-8.3-43.1Z"/>
  <path class="st1" d="M999.2,471.5c2.6.1,3.2.2,5.7.7,5.4,4.2,3.7,8.2,1.1,13.4l-4.7-.8c-5.1-3.6-4.2-8.2-2.1-13.3Z"/>
  <path class="st2" d="M959.7,678.8c4.6.9,13.9,4.8,10.8,10.8-2.6,1.6-4.5.9-7.6.5-2.6-1.1-7.3-2.5-9-4.5,3.9-.6,4.6-.7,8.3-2.2l.4-1.4-2.9-3.3Z"/>
  <path class="st1" d="M1127.8,606.8c4.2-.7,4.5-1.5,7.9-.2-11.4,9.7-17.8,8.9-31.7,8.3,9-2,15.4-4.6,23.8-8.1Z"/>
  <path class="st2" d="M1318.5,188.6l2.3.3.6,1.3c-3.5,5.4-10.3,10.5-14.7,16.7l-1,1.5-.7-.8c.6-.5.2-.2.9-1.1l-.6-1.5c2.2-8.4,6.4-12.2,13.2-16.5Z"/>
  <path class="st1" d="M1039.7,132.7c2,0,1.9,0,3.7-.6l.9.8c-5.8,3.5-23.7,5.8-30.8,6.3-2.3.3-3.5.3-5.8.2l.5-.7c10.2-2.7,21.1-4.4,31.5-6Z"/>
  <path class="st1" d="M1357.3,183.1l1,1.3-1.1,2.5c3,4.6,20.9,12.1,24,18.6-5.2-2.1-25.4-13.8-27.2-18.5l3.3-3.9Z"/>
  <path class="st1" d="M1367.4,433.4c17.2.6,18.4,2.3,37-.4-1.7,1.2-3.5,2.3-5.4,3.2-.2,2.2-.2,1.3,0,2.8-8.7.3-22.7-3.5-31.5-5.6Z"/>
  <path class="st1" d="M884,289.8c-2.6-2.6-10.6-16.5-9.5-20,2.6,1.7,10.1,12.7,13.3,16.5l-3.8,3.5Z"/>
  <path class="st1" d="M1037.4,145.2c3.9-.7,3.7-.6,7.7,0-2.9,3.4-11.6,4-16.2,4.7-3.7.8-5,1.4-7.8-.2v-.2c4.5-3.3,10.8-3.7,16.4-4.3Z"/>
  <path class="st1" d="M1349.1,205.1c7.3,1.1,22.1,12.1,28.7,16.8-7.6-.8-23-11.2-28.7-16.8Z"/>
  <path class="st1" d="M1050.8,548.5c5-4.6,11.1-7,17.3-9.7-3,2.8-16.4,17-17,17.5.4-2.1,1.2-3.1,1.6-5.7l-1.8-2.1Z"/>
  <path class="st1" d="M1380,492.6c5.2,6.2,5,19.5,4.2,27.3l-.9-.2c-1.4-5.3-3-21.4-3.3-27.1Z"/>
  <path class="st1" d="M1080.8,682.1c-.6,7.8-6.8,13.6-12.3,18.5l-.2-1.5c1.7-4.4,9.1-12.9,12.5-17.1Z"/>
  <path class="st1" d="M1061.9,660.4c6.6,4.7,10.2,3.7,18.3,3.4-2.2.8-5,1.6-7,2.7-4.4.2-10-1.6-14.3-2.8,2.4-1.5,1.6-.8,3-3.3Z"/>
  <path class="st1" d="M1053,116.5c.6.4,1.7,1.3,2.3,1.8,1.3,5.2.7,10,.4,15.4-3.1-3.6-2.7-12.3-2.7-17.2Z"/>
  <path class="st1" d="M1006,536.7c2.8,6.6.2,11.3-3.3,17-.6-3.5,2.2-12.9,3.3-17Z"/>
  <path class="st1" d="M1127.8,606.8c4.4-2.3,9.4-5.2,14.1-6.2l.4.2c-2.9,3.1-3.2,3.3-6.6,5.8-3.4-1.3-3.7-.5-7.9.2Z"/>
</svg>