<?xml version="1.0" encoding="UTF-8"?>
<svg id="fixed_id_0"  xmlns="http://www.w3.org/2000/svg" version="1.1" xmlns:xlink="http://www.w3.org/1999/xlink" viewBox="0 0 1408.5 1544.1">
  <!-- Generator: Adobe Illustrator 29.3.1, SVG Export Plug-In . SVG Version: 2.1.0 Build 151)  -->
  <defs>
    
  </defs>
  <path fill="#9fda0f" d="M137.1,108c1.5-12.5,5.2-48.6,13.9-55.3,8.7-6.6,23.9,4.1,28-19.3,2.4-14.1,39.3-11.7,50.5-10.8,30.8,23.7,21.1,98.8,30.6,109.4,7.8,1.8,29.1,1.3,38.4,1.3l65.8.2c12.2-23.8,47.5-19.7,72.1-21.6,4.6-.4,15.8,16,19.5,21.3,40.8,1.4,85.9.4,127.1.4l231-.3h82.9c14.4.2,39-.5,52.5,1.8l2.6.6c4.4-4.5,12.9-20.3,15.5-21.4,12.9-5.5,60.3-.9,68.6,9.3,1.5,2,2.5,3.1,3.2,5.5,2.2,2.2,3,3.8,6,4.1,9.8,1.2,21.2.9,31.1,1l57.9.3c8.5,0,13.1.8,19-4.8-3.4-20.5,6.7-88.2,21.5-101.9,4.4-4.2,7.2-4.8,13.1-5,16.8-.6,37.6,0,43,19.1v1.2c8.6,14.8,23.7-5.3,33.3,23.4,4,9.3,6,39.7,6.4,50.7,5.1,4.5,6,5.5,9.9,10.8,20.5.3,40.9.4,61.4.4,12,0,24.8-.9,36.8.5,3.2.4,7.9.7,10.2,3.3,3.6,4,3.4,9.8,2.7,14.7-.7,4.9-2.2,10.8-6.6,13.7-5.5,3.7-89.8,1.3-103.8,1.6-4.1,5.2-6.1,9.3-11.4,12.9-1.4,16.2-.5,58.1-17.6,64.7-6.2.7-12.9,1.3-18.8,2.8-1.4,4-2.9,8.5-4.5,12.3-1.9,5-4.7,6.2-9.4,9-7.3-.2-9.4-.2-16.6,1l-12.2.7c-1.1.3-2.2.5-3.3.8-28.7,5.4-31.3-60.6-33.7-79.9-1.1-8.7.4-31.6-11-30.2-21.2,2.7-78.2-4.1-96.2,1.6-1.3,3.4.1,5.3.9,8.9,2,8.6-1,18.2-1.4,27-1.8,42.5,14.8,83.5,16.8,125.6.8,16.1-1,35.1-3.5,51.2-1.3,8.6-1.2,24.1-4.8,30.9-6.1,11.7-28.6,21.1-38.9,29.7-28.4,20.5-63,52.3-98.7,56.8-9.5.8-33.3,1.2-38.7,8.1-7.1,9.1-7.9,29.1-12.3,41.2-8.1,22-17.1,44.2-26.9,65.5-5.9,13-13.4,23.5-18.3,37.3-9.6,26.7.4,48.1-.8,74.7-.6,12.7-9.3,25.9-5.6,38.8,7.6,15.4,4.9,16.7,9.5,31.7,3.6,10.2,9.2,19.9,12.1,30.4,15.5,55.7,24.3,113.4,33.8,170.4,2.4,14.3,8.8,31.9,6.4,46.5-.7,4.5-8.1,10.9-11.5,14.2-2.6,14.7-3.6,20.2-9,34.2-6.4,17.9-7.5,22.4-7.2,41.1l.4,8.5c3.5,26.7,10.5,44.5,19.1,69.5,10.9,31.8,4.3,64.9.3,97.1-.8,6.8-1.6,23.3-2.9,28.9-1.5,23-4.8,53.9-3.9,76.2l7.7,11.4c2.5,3.1,2.6,3.5,4.3,7.1,2.5,10.2,3.3,20.3,8.2,29,12.2,21.8,36.3,31.1,39,58.4.4,3.8,1.6,7.7-.3,11.2-2.4,4.4-11.7,7.7-16.4,8.1-18.4,1.5-52,6-67.6-4.8-4.7-3.3-7.1-7-8.8-11.9-9.4-19.9-38.3-7.5-25.9-42.8.7-12.5-.3-25.7,2-37.7,1.1-5.9,6.8-14,7.4-20.1,3-31.5-4.5-58.4-12.5-87.9-7.3-20.2-20.7-44.5-25.2-62.8-4.9-19.7,5.5-53.9,5-74.5-.4-17.6-15.6-35-20.2-50.2-6.8-22.3-7.4-48.5-18.2-70.2-2.2-4.3-9.7-5.6-15-7.3-3.4-7.8-6.1-27.1-8-36.9l-12.2-58.4c-5,17.4-8.3,36.5-11.9,54.3-1.8,8.9-4.2,35.1-7.3,41.5-4,3.1-9.9,2-13.9,3.7-4.8,2-8.1,16.9-9.6,22-4.6,16.3-6.1,34.7-11,50.7-5,16.5-18.3,29.4-20.2,46.9-2.9,26,9.7,51.7,4.3,77.8-2,9.5-6.2,17.5-10.5,26.1-14.9,35.1-26.6,71.1-27.9,109.7,0,4.6-.3,17.6,2,21.1,10.1,15.5,6.8,28.2,8.2,44.6,1.5,17.5,13.9,31.5-11.2,39.1-9.6,2.9-8.8,1.7-13.7,10.2-1.9,5.6-2.9,7.4-5.6,12.5-13.6,8.3-32.3,7.1-47.6,4.7-12.2-.6-30.8-.3-38.8-9.2-.5-2.1-.7-2.9-.8-5-.5-9.3,2.6-18.4,8.7-25.5,9.2-12.7,22.8-21.9,30.5-35.2,8.5-14.6,4.9-29.8,17-43,1.6-1.7,4.7-4.6,6.4-6.4-3.3-54.1-12.6-107.6-14.5-161.4-.7-19.5,7.2-49.7,13.7-68.7,15.9-46.5,7-78.5-3-124.1-2.3-3.1-8.1-7.5-11.4-11.1-3.8-3.8-2.9-15-2-20.3,10.1-59.5,20.1-119.3,32-178.4,2.1-10.5,6.1-22.2,9.2-32.5,2.4-7.9,7.4-16.1,9.8-24.1,2.3-7.4,1.3-21,6.1-27.1,10.1-11.8-3.4-25.1-3.4-37.5-.5-23.6,9.5-62.9-2.7-84.9-19.8-35.7-35.5-69.5-46.2-109.3-4-14.6-1.3-31.2-20.7-33.4-14.2-1.6-29.9-3-43.8-6.8-31.9-11.6-58.6-37.9-84.9-57-31.1-22.5-37.2-14.1-40.2-54.6-1.9-25.1-7.7-48.3-1.8-74.6,4.3-34.2,19.4-74.8,15.9-110.3-1-10.2-7.7-12-2.3-24.5l.6-1.4-.9-2.1c-5.4-1.4-32.1-.9-39.3-.9l-63.9-.2c-3.8,30.8-2.1,62.8-14,92.7-8.2,20.8-17.1,17.7-35,16.4-26-1.8-26.8.7-35.3-24.7l-12.4-1.7c-21.9.8-21.2-46.8-24.1-62.8-5.6-6-6.2-7.1-9.6-14.3-32.3-1.3-68.6-.5-101.3-.7-5.5-3.6-8.8-5.8-9.1-12.9-.4-9.5-1.6-21.1,11.4-21.6,32.2-1.1,64.5.1,96.8-.8,4.8-7.4,10.8-10.5,12.2-19.1ZM460.1,155.6l-.8,1.7c-.9,1.8-1.1,2.8-1.7,4.6-4.1,11.5-16.4,19.7-27,24.2-8,5.5-16,6.9-16.7,17.6-1.4,22.8-4.1,52.9,2.2,74.9,4.6,16,9.7,28.6,12.6,45,1.7,9.6-1.6,30.4,2.5,36.1,5.1,1.3,17.1,1.5,23.1,1.5,14.9,0,40.8,9.7,51.7,19.7,3.8,2.1,8.6,5.3,12.4,7.7,17.4-6.9,52.7-6.5,70.2,1.3,4.7,2.1,18.9,9.1,22.3,9.9,8.6,2.2,35.6-14.8,44-19.7,2.2-14.5,1.1-23.2-1.1-37.6l-2.6-9.9c-6-23.4-20.5-9.5-17.7-51.9,2.1-3.3,3.7-5.7,6.2-8.7-6.1-48.5,4.1-80.7,58.7-87.2,19.3-2.3,50.1,7.6,62.4,22.3v1.5c1.2,11.8,5.5,13.2,7.5,23.7,2.2,12.5.9,25.3,1.2,37.9.1,5.1,3.5,8,4.1,11.9,2.8,18.3-3.2,33.3-17.9,43.3-2,11.3-3.6,19.7-4.2,31.2-.1,2.8,0,18.1,0,18.6.2.8,1,4.1,1.4,4.5,6.5,7.5,28.3,14.6,37,19.2,8.5,4.5,19.4-7.4,26.5-10.5,19.6-8.4,54.4-7.8,74-1.2,20.6-20.1,37.8-24.8,67-27.9,6.1-.6,12.8,1.4,18.5-1,3.3-4.1,3-31.8,5.9-44.1,1-5.5,4.1-17.3,5.8-22.5,8.5-23.3,7.8-72.3,2.4-97-4.7-4.8-22.9-14.8-30.2-19.9-7.8-9.2-3.4-10.9-7.8-19.6-11.6,1.8-58.8.7-73,.6h-151.9c0-.1-187.3,0-187.3,0h-52.7c-6.4,0-21.5.4-27.1-.4Z"/>
  <path fill="#b5eb34" d="M137.1,108c1.5-12.5,5.2-48.6,13.9-55.3,8.7-6.6,23.9,4.1,28-19.3,2.4-14.1,39.3-11.7,50.5-10.8,30.8,23.7,21.1,98.8,30.6,109.4,7.8,1.8,29.1,1.3,38.4,1.3l65.8.2c12.2-23.8,47.5-19.7,72.1-21.6,4.6-.4,15.8,16,19.5,21.3,40.8,1.4,85.9.4,127.1.4l231-.3h82.9c14.4.2,39-.5,52.5,1.8l2.6.6c-5,1.7-2.9,13.3-2.4,18.2l2.6,1.5c-11.6,1.8-58.8.7-73,.6h-151.9c0-.1-187.3,0-187.3,0h-52.7c-6.4,0-21.5.4-27.1-.4l-.8,1.7c-.9,1.8-1.1,2.8-1.7,4.6-4.1,11.5-16.4,19.7-27,24.2l-1-2.1c8.2-8.6,17.9-4.8,21.6-22.4,3.5-17,2-27.1-15.3-34.8-4.5-1.9-8.7-4.9-13.1-1.4-2.7,13.2,17.1,16.5,9.1,26.5-4.2,1.4-8.1,1.2-12.6,2.2-8.8,2-15.3,6.5-23,10.7-3.6,2-4.5,3.4-7.4,2,1.4-2,2.6-3.6,4-5.5l-.6-1.1c-3.4-.7-20.9-1.2-23.5.6-6.7,4.9-4,20.7-.2,26.8,2.4,3.9,13.7,1.8,14.7,4.2-3.3,1.7-8.5,1.1-12.2.6-1.8,1.3-2.3,2.7-2.3,5-.2,11.7-3.5,25.2-3.7,36.6-.2,17.2-5.7,26.2-11,41.9-1.8,5.5-1.3,17.7-6.5,20.8,4.3-34.2,19.4-74.8,15.9-110.3-1-10.2-7.7-12-2.3-24.5l.6-1.4-.9-2.1c-5.4-1.4-32.1-.9-39.3-.9l-63.9-.2c-3.8,30.8-2.1,62.8-14,92.7-8.2,20.8-17.1,17.7-35,16.4-26-1.8-26.8.7-35.3-24.7l-12.4-1.7c-21.9.8-21.2-46.8-24.1-62.8-5.6-6-6.2-7.1-9.6-14.3-32.3-1.3-68.6-.5-101.3-.7-5.5-3.6-8.8-5.8-9.1-12.9-.4-9.5-1.6-21.1,11.4-21.6,32.2-1.1,64.5.1,96.8-.8,4.8-7.4,10.8-10.5,12.2-19.1Z"/>
  <path fill="#9fda0f" d="M949.3,135.1l2.6.6c-5,1.7-2.9,13.3-2.4,18.2l2.6,1.5c-11.6,1.8-58.8.7-73,.6h-151.9c0-.1-187.3,0-187.3,0h-52.7c-6.4,0-21.5.4-27.1-.4-1.3-4.7-.8-13.3-.8-18.5,41.5-1.2,85-.1,126.8-.2h292.1c18.5,0,48.9.2,68.5-.2.9-.6,1.7-1.1,2.6-1.7Z"/>
  <path fill="#9fda0f" d="M137.1,108c9.6-8,2.2-45.9,22.1-51.7,3.9-1.1,6.7-3.9,11.3-2.1,1.3,10.5-3.5,32.6-4.7,43.6-4.9,43.9-2.1,87.7,5.4,131.1.4,2.1.2,4.7-.8,6.6-2.4,1.1-4.3.6-6.9.3-2.7,1.9-1.7.6-2.5,4.3-21.9.8-21.2-46.8-24.1-62.8-5.6-6-6.2-7.1-9.6-14.3-32.3-1.3-68.6-.5-101.3-.7-5.5-3.6-8.8-5.8-9.1-12.9-.4-9.5-1.6-21.1,11.4-21.6,32.2-1.1,64.5.1,96.8-.8,4.8-7.4,10.8-10.5,12.2-19.1Z"/>
  <path fill="#9fda0f" d="M223.5,27.3c28.7-1.3,23.8,90.4,31.3,107.4,11.7,9.8,118.6-11.2,116.3,16.8l-3.7.3c2.4.2,3.5.1,5.7,1.1-2.8,1.4-18.4.4-22.6.5-30.3.4-60.6,0-90.9-.4-2.5,0-4.3,1.1-6.1,2.6-.5,13.6-6.8,84.1-11.6,91.4-3,4.6-7.4,12.9-12.6,14.9-2.2.9-5.8,1-8-.1-4.2-2.2-6.9-8.4-8.5-12.6-14.3-38.6-17.3-175.2,1.4-213.1,2.4-4.9,4.3-7.1,9.4-8.8Z"/>
  <path fill="#b5eb34" d="M239.2,123.4l1.1.8c1.3,2.5.4,36.1-.4,40.1h-1.4c-3.3-11.2-2.5-30,.7-41Z"/>
  <path fill="#9fda0f" d="M212.1,25.9c.9-.1.2,0,2,.6.4,3.3-9.6,25.9-10.8,34.2-7.8,56.1-9.8,112.4.8,168.3,2.7,14.1,3.8,18,9.9,30.9-2.9,2.7-18.6,2.3-23.6,2.4-1.5-.4-2.6-.8-3.9-1.8-12.3-9.3-17.9-71.9-18.6-88.7-1-27.6-1.2-120,17-138.2,6.8-6.8,17.9-7.4,27-7.7Z"/>
  <path fill="#9fda0f" d="M393.7,117.2c3.3,1.6,5.8,1.9,8.1,4.7-.8,6.3-1.6,12.8-2.2,19.1-.6,6.8,2.2,10.2-2.6,15.8-11.1-1.2-13.5-7.3-13-17.6.6-11.8,1.5-14.5,9.7-22.1Z"/>
  <path fill="#9fda0f" d="M408.2,116.7l3.2,1.6c3-.2,6.8-.5,9.2.9-.5,7.9-4.2,23.6-5.8,32.2l-11.3,3c-1.7-15-3.2-23.7,4.6-37.6Z"/>
  <path fill="#9fda0f" d="M378.1,125.5c2.5-.1,1.3-.3,3.6.9,2.5,5.6,1.3,12.1-.1,17.9-.8,3.4-1.8,3.1-4.7,4.6-9.6-7.8-7.8-16,1.2-23.4Z"/>
  <path fill="#9fda0f" d="M421.2,134.3c1.5,1.4,8.9,11.1,9,13.9l-1.9,1.7c-4,.9-6.6,2.3-9.8-.5-1.3-4,1.4-10.7,2.7-15.1Z"/>
  <path fill="#9fda0f" d="M1174.8,27.8c4.4-4.2,7.2-4.8,13.1-5,16.8-.6,37.6,0,43,19.1v1.2c8.6,14.8,23.7-5.3,33.3,23.4,4,9.3,6,39.7,6.4,50.7,5.1,4.5,6,5.5,9.9,10.8,20.5.3,40.9.4,61.4.4,12,0,24.8-.9,36.8.5,3.2.4,7.9.7,10.2,3.3,3.6,4,3.4,9.8,2.7,14.7-.7,4.9-2.2,10.8-6.6,13.7-5.5,3.7-89.8,1.3-103.8,1.6-4.1,5.2-6.1,9.3-11.4,12.9-1.4,16.2-.5,58.1-17.6,64.7-6.2.7-12.9,1.3-18.8,2.8-1.4,4-2.9,8.5-4.5,12.3-1.9,5-4.7,6.2-9.4,9-7.3-.2-9.4-.2-16.6,1l-12.2.7c-1.1.3-2.2.5-3.3.8-28.7,5.4-31.3-60.6-33.7-79.9,1.6-8,.9-15.6.9-23.7,0-13.4-11.5-8.1-21.2-9.1-11.9-1.2-90.5,2.8-96.7-2.4,1.2-4.1,4-9.8,6.6-13,3.6-4.4,87.2-.7,100.4-1.5,4.2-.2,7-.5,9.9-3.7l-.2-3.4c-3.4-20.5,6.7-88.2,21.5-101.9Z"/>
  <path fill="#9fda0f" d="M1231,43.2c8.5,14.8,23.7-5.3,33.3,23.4,4,9.3,6,39.7,6.4,50.7,5.1,4.5,6,5.5,9.9,10.8,20.5.3,40.9.4,61.4.4,12,0,24.8-.9,36.8.5,3.2.4,7.9.7,10.2,3.3,3.6,4,3.4,9.8,2.7,14.7-.7,4.9-2.2,10.8-6.6,13.7-5.5,3.7-89.8,1.3-103.8,1.6-4.1,5.2-6.1,9.3-11.4,12.9-1.4,16.2-.5,58.1-17.6,64.7-6.2.7-12.9,1.3-18.8,2.8-1.4,4-2.9,8.5-4.5,12.3-1.2-10.1,2.8-18.1,4.7-28.5,9.5-50.2,9-107.5,1.1-158-1.3-8-6.2-18.1-3.8-25.3Z"/>
  <path fill="#b5eb34" d="M1231,43.2c8.5,14.8,23.7-5.3,33.3,23.4-6.2-2.1-4.6-5.4-9.5-8.5-5.4-3.4-12.1-1.1-17.2-5.4l-1.2.5c.5,6.5,2.6,16.3,3.6,23.1,5.8,41.7,7,82.4,1.7,124.3-1.5,11.8-3.5,24-4.2,36.1,5.2,1.8,9.4,2.3,14.7,3.1-6.2.7-12.9,1.3-18.8,2.8-1.4,4-2.9,8.5-4.5,12.3-1.2-10.1,2.8-18.1,4.7-28.5,9.5-50.2,9-107.5,1.1-158-1.3-8-6.2-18.1-3.8-25.3Z"/>
  <path fill="#9fda0f" d="M1174.8,27.8c4.4-4.2,7.2-4.8,13.1-5,16.8-.6,37.6,0,43,19.1v1.2c-2.4,7.2,2.5,17.3,3.8,25.3,7.9,50.5,8.4,107.8-1.1,158-2,10.5-5.9,18.4-4.7,28.5-1.9,5-4.7,6.2-9.4,9-7.3-.2-9.4-.2-16.6,1l-12.2.7c-3.2,0-3.8,0-6.9-.8,12.5-8,8.6-7.7,12.7-19.6,5.3-15.6,5.9-24.8,7.4-41.3,3.3-33.4,3.9-66.9,1.8-100.4-1-16.1-2.8-77-24.5-74.6l-3.2.4-1.6.2-1.6-1.6Z"/>
  <path fill="#b5eb34" d="M1174.8,27.8c4.4-4.2,7.2-4.8,13.1-5,16.8-.6,37.6,0,43,19.1l-1.8.7-5-5.5c-6-6.7-20.9-15-29.4-8.8-.6,1.4,7,20.6,8.1,25.9,11.1,54.5,12,112.5,2.6,167.3-1,6.1-10,38.3-9.9,39.2,6.1,1.5,4.8-1.4,8.8,1.6l-1.5,2.7-12.2.7c-3.2,0-3.8,0-6.9-.8,12.5-8,8.6-7.7,12.7-19.6,5.3-15.6,5.9-24.8,7.4-41.3,3.3-33.4,3.9-66.9,1.8-100.4-1-16.1-2.8-77-24.5-74.6l-3.2.4-1.6.2-1.6-1.6Z"/>
  <path fill="#b5eb34" d="M1167.2,126.5c7.3,4.6,4.3,32.7,1.7,39.8-2.3-3.2-2.1-34.5-1.7-39.8Z"/>
  <path fill="#9fda0f" d="M801.5,1468.2c8.4-6,1.1-29.2,10.3-41l1.1.5,1.4,5.4c5.8,0,12.4-1.2,17.8-3.2l-1.3-9.3c4.7-13.9,16.3-15.6,29.3-10.7,4.1,1.6,2.9,4,8.8,4,2.5,3.1,2.6,3.5,4.3,7.1,2.5,10.2,3.3,20.3,8.2,29,12.2,21.8,36.3,31.1,39,58.4.4,3.8,1.6,7.7-.3,11.2-2.4,4.4-11.7,7.7-16.4,8.1-18.4,1.5-52,6-67.6-4.8-4.7-3.3-7.1-7-8.8-11.9-9.4-19.9-38.3-7.5-25.9-42.8Z"/>
  <path fill="#b5eb34" d="M873.3,1421c2.5,10.2,3.3,20.3,8.2,29,12.2,21.8,36.3,31.1,39,58.4.4,3.8,1.6,7.7-.3,11.2-2.4,4.4-11.7,7.7-16.4,8.1-18.4,1.5-52,6-67.6-4.8-4.7-3.3-7.1-7-8.8-11.9,2.7,1.1,2,.4,3.8,2.3l1.2-.2-.6-2.2,1-.5c3.6,3.6,1.8,7.4,5.8,10,2.6-1.3,5.9-2.2,9-3.8v-1c0,0-3.9-1.4-3.9-1.4l.7-.9c-5.5-3-6.7-3.3-9.8-8.5l.4-1.4c4.3-1.1,14.3,1,17,4.5l-2.8,1.6.8.9c16.2,5,21.3-5.8,36-8.8,2.4-.5,18.1.4,22.3.5l1.4,1.7,1.2-.2c12.7-13.3-22.4-33.2-28.1-41.7-7.7-11.4-11.4-27.6-9.6-41.1Z"/>
  <path fill="#9fda0f" d="M844.4,1513.5c3.8.5,13.4,1.9,16.6,1.4,17.5-2.6,15.6-10.8,34.6-8.8l1,.9c11,9.3,13.7,3.5,19.6,8.8-2.1,12.7-68.5,13.5-77.6,4.7,2.6-1.3,5.9-2.2,9-3.8v-1c0,0-3.9-1.4-3.9-1.4l.7-.9Z"/>
  <path fill="#9fda0f" d="M545,1409.1c6,1.3,16.6-4.5,23.4.2-1.2,2.1-.6,1.4-2.7,2.7,3.1,2.9,7.6,6,8.3,9.6v-1.9c.2,3.1.7,6.2,1.2,9.3,4.4,3,5.9,4.7,9.4,8.8l2.4-.3c-.6-2.1-.3-1.5-.8-2.3l.3-1.4c6.3.3,5.5,4.6,11.6,5.9l.4,1,.9-.5c-1.7-2-2.3-2.2-2.9-4.4.9-3.1.2-2.2,2.2-4.5l2-.4c1.2,6.7-1.1,31.5-3,38.5-4.5,4.4-9.1,8.1-10.4,14.3l.5,1.1c6.6-.3,5.6-4.4,13.6-6.1l.8,1.9c-2.4,4.3-3.5,5.7-6.7,9.5l2.7.5c.2,3.8-2.2,4.5-2.7,8.9-9.6,2.9-8.8,1.7-13.7,10.2-1.9,5.6-2.9,7.4-5.6,12.5-13.6,8.3-32.3,7.1-47.6,4.7-12.2-.6-30.8-.3-38.8-9.2-.5-2.1-.7-2.9-.8-5-.5-9.3,2.6-18.4,8.7-25.5,9.2-12.7,22.8-21.9,30.5-35.2,8.5-14.6,4.9-29.8,17-43Z"/>
  <path fill="#9fda0f" d="M497.5,1487.4c2.4,8.8-3,9.4-1.5,16.4,2.4,3.5,2.9,3.8,6.2,6.5l8.4-9c6.5.3,13.2.6,19.7.8,21.3,22.7,30,1,44,2.7l.2,1c.3,1.5.6,2.6,1,4.1l1.8,1.2,4.5-1.1c-1.9,5.6-2.9,7.4-5.6,12.5-13.6,8.3-32.3,7.1-47.6,4.7-12.2-.6-30.8-.3-38.8-9.2-.5-2.1-.7-2.9-.8-5-.5-9.3,2.6-18.4,8.7-25.5Z"/>
  <path fill="#b5eb34" d="M497.5,1487.4c2.4,8.8-3,9.4-1.5,16.4,2.4,3.5,2.9,3.8,6.2,6.5l8.4-9c6.5.3,13.2.6,19.7.8,21.3,22.7,30,1,44,2.7l.2,1c.3,1.5.6,2.6,1,4.1l1.8,1.2,4.5-1.1c-1.9,5.6-2.9,7.4-5.6,12.5-13.6,8.3-32.3,7.1-47.6,4.7,9.4-4.5,36.1,3.9,40.1-9.8-5.3-10.9-20.4,6.2-41.2-11l-1.1-.9c-14.5.5-16.5,3.3-29.7,8.2-4.5,1.6-2.1.4-5.9,3.5l-1.1.8c-.5-2.1-.7-2.9-.8-5-.5-9.3,2.6-18.4,8.7-25.5Z"/>
  <path fill="#b5eb34" d="M951.9,135.7c4.4-4.5,12.9-20.3,15.5-21.4,12.9-5.5,60.3-.9,68.6,9.3,1.5,2,2.5,3.1,3.2,5.5,2.2,2.2,3,3.8,6,4.1,9.8,1.2,21.2.9,31.1,1l57.9.3c8.5,0,13.1.8,19-4.8l.2,3.4c-2.9,3.2-5.7,3.4-9.9,3.7-13.2.7-96.8-2.9-100.4,1.5-2.7,3.3-5.4,9-6.6,13,6.2,5.1,84.8,1.2,96.7,2.4,9.6.9,21.2-4.4,21.2,9.1,0,8.1.7,15.8-.9,23.7-1.1-8.7.4-31.6-11-30.2-21.2,2.7-78.2-4.1-96.2,1.6-1.3,3.4.1,5.3.9,8.9,2,8.6-1,18.2-1.4,27-1.8,42.5,14.8,83.5,16.8,125.6.8,16.1-1,35.1-3.5,51.2-1.3,8.6-1.2,24.1-4.8,30.9-6.1,11.7-28.6,21.1-38.9,29.7-28.4,20.5-63,52.3-98.7,56.8,3.7-4.1,8.4-3.3,15.5-6.8,14.9-7.5,29.4-15.8,43.3-25,9.2-6.2,15.8-15.3,22.7-23.4,1.2-1.4,13.4-8.5,16.1-10.2v-.8c-4-1.2-16,4.4-19.1,2.1,10.2-8.5,41.2-7.9,52.7-25.7,5.6-8.7,3-16.7,1.7-26.9l-1.3-.4c-2.6,2.7-4.6,4.6-7.4,7,.2-9.3,15.8-25.5,15.6-38.6-.4-22.3-1.4-46.7-5.4-68.6-1.8-10-6-20.9-7.8-31.1-.7-2.2.4-8.6-.3-10.3-5.1-11.6-3.5-22.9-4.7-35.5-2.7-1.4-5,.1-9.8-.6l-.8-1.5c3.2-2.4,5.8,0,9.7-1.8,3.5-5.2,9.2-25,0-28.9-3.3-1.4-19.6-2.3-22.3.5l3.3,5.7-.6.7c-8.8-2.6-15-8.4-23.2-11.7-5.5-2.2-15-1.1-19.5-5.9-1.4-7.6,6.2-11.7,9.7-20.4l-1.1-1.8c-2.6-.3-23.7,8.7-25,10.4-1.9,5.8.1,29.5,1,36.4-7.8-9.2-3.4-10.9-7.8-19.6l-2.6-1.5c-.5-5-2.5-16.5,2.4-18.2Z"/>
  <path fill="#9fda0f" d="M1036,123.6c1.5,2,2.5,3.1,3.2,5.5-2.8,4.9.8,12.4-7.3,21.2-2.5-.4-3,.2-4.1-1.8-2.8-5-3-19.9-1.7-25.1l1.4-.5c2.2,1.3,3,2,4.9,3.6l1.9-.4,1.6-2.5Z"/>
  <path fill="#9fda0f" d="M1013.4,118.6c2.7-.2,5.4.7,6.7,3.3,4.2,7.9,3.1,18.8,2.1,27.4-.4,3.4-3.4,5.3-6,6.8-14.3-2.4-5.2-14.1-8-23.6-1.2-3.9-2.4-8.4-2-12.4,2.5-1.7,3.7-1.2,7.2-1.5Z"/>
  <path fill="#9fda0f" d="M991.7,118.5c3.7.3,7.2.2,9.8,2.9,6.4,6.8,3.8,22.7,3.2,31.8-12.9-.6-12.2-3.3-14.1-15.8-1.2-7.5-2.6-12.1,1.2-19Z"/>
  <path fill="#9fda0f" d="M986,135.1l1.4.9c1.5,3.8,5.3,12.2,1.9,15.3l-3.3-.6c-4.5-.6-5.4.1-8-2.4.3-3.4,6-7.5,7.9-13.3Z"/>
  <path fill="#b5eb34" d="M547.5,1048.5c5.9,3.1,19.3,5.8,26.4,7.4,3.9.6,12.2,1.5,15.6,2.6-4.7,1-26.9-1.3-29.7-3.6-6.8,5.9,3.9,39.2,5.8,48.3l1.4,1c3-.7,3.8-1.7,6.2-3.8,1.6,4.5-3.1,26.8-5.9,31.4-8.8,14.1-5.5,30.5-8.9,46.7-2,9.7-6.4,21.2-6.7,30.3l-1.3,1.4c-1.1,1.2-5.3,5.6-5.4,6.8-1.1,12.1-4.9,30-3.9,41.8,2.1,23.3,8.1,46.2,8.1,69.8,0,12.9,4.6,24.4,5,37.1.6,9.2-1.5,25.5,2.3,32.1,6.1,3.7,18.4-.4,23.4,3.4-.9,1.9-.7,1.1-.8,2.5l-2.8.9,1,.8c2.9,2.5,3.8,2.9,5.4,6.2-.5,5.9-1.9,5.7,0,10.9,3.1-.3,1.7-1.1,4.7-1.8l.6.8c1.7,2.4,2.1,3.3,4.7,4.6l1.3-.6c-.1-3.5-.7-4.1-2.3-7.1-5.3-2.7-.4-36.1-.7-42.9.5-9.3,6.6-17.6,2.2-26.4-.7-1.4,8.1-17.8,8.8-20.4,4.9-16.8,8-28.7,19.2-42.6l3.3-1.2c-14.9,35.1-26.6,71.1-27.9,109.7,0,4.6-.3,17.6,2,21.1,10.1,15.5,6.8,28.2,8.2,44.6,1.5,17.5,13.9,31.5-11.2,39.1.5-4.5,2.9-5.2,2.7-8.9l-2.7-.5c3.2-3.8,4.3-5.2,6.7-9.5l-.8-1.9c-8,1.7-7,5.9-13.6,6.1l-.5-1.1c1.3-6.2,5.9-9.9,10.4-14.3,1.9-7,4.2-31.9,3-38.5l-2,.4c-2,2.3-1.3,1.3-2.2,4.5.6,2.3,1.2,2.4,2.9,4.4l-.9.5-.4-1c-6.1-1.3-5.2-5.6-11.6-5.9l-.3,1.4c.5.8.2.2.8,2.3l-2.4.3c-3.4-4.1-5-5.8-9.4-8.8-.5-3.1-1-6.2-1.2-9.3v1.9c-.7-3.6-5.2-6.7-8.3-9.6,2-1.3,1.5-.6,2.7-2.7-6.8-4.7-17.4,1.1-23.4-.2,1.6-1.7,4.7-4.6,6.4-6.4-3.3-54.1-12.6-107.6-14.5-161.4-.7-19.5,7.2-49.7,13.7-68.7,15.9-46.5,7-78.5-3-124.1Z"/>
  <path fill="#b5eb34" d="M814.2,753.7c7.6,15.4,4.9,16.7,9.5,31.7,3.6,10.2,9.2,19.9,12.1,30.4,15.5,55.7,24.3,113.4,33.8,170.4,2.4,14.3,8.8,31.9,6.4,46.5-.7,4.5-8.1,10.9-11.5,14.2-2.6,14.7-3.6,20.2-9,34.2-5.7-9.4,4.7-21.4,1.8-28.2-11.7.2-34.6,5.9-52,6.7,9.9-3.9,27.9-2.8,32.8-8.3l-.2-1.6c-7.9.8-21.5,7.2-31,7.1-5.6-.1-21.1,2.4-25.7.2,8.8-.4,14.2,0,22.7-2.7-2.2-2-8.5-1.9-11.8-2.2l1-1c7.9.5,15.2-.8,22.6-3.5,6.8-2.9,15.7.5,22.4-1.2,9.4-2.4,33.2-8,31.1-20.7-9.6-57.8-20.1-115.4-29.9-173.3-2.1-12.2-7.5-27.7-10.5-40-7.9-19.7-14-37.1-14.8-58.8Z"/>
  <path fill="#b5eb34" d="M981.8,314.4c1-5.5,4.1-17.3,5.8-22.5v1.5c.9,12.2-1.9,25-.1,36.2,2.8.5,4.7.9,7.5,1.6.9-2.9,0-2.1,2-3.3.2,1,.2,37.1.1,37.2-8.5-2.3-9.9,2.4-17.1,3.4-4.6.7-22.3-2.6-26.3-1-9.6,3.8-24,5.4-33,8.4-2.9,1-5.7,2.2-8.3,3.7-10,5.6-12.3,11-20.5,18.3-.6.5-5.2,0-6.4-.1-6.6,5-11.9,11-17.9,15.5l.9-1.4c5-7.6,12.3-14,15.4-19.5-2.2-3-6.4-3.7-10.4-4.1-13.2-1.6-30.8-1.8-43.7,1.2-7,1.7-31.3,17.6-37.3,16-4.8-1.3-27.5-15.6-34.5-17.4-2.7-.7-5.2-2.2-6.9-4.4-1.3-3.7-.7-4.6.4-8.3.2.8,1,4.1,1.4,4.5,6.5,7.5,28.3,14.6,37,19.2,8.5,4.5,19.4-7.4,26.5-10.5,19.6-8.4,54.4-7.8,74-1.2,20.6-20.1,37.8-24.8,67-27.9,6.1-.6,12.8,1.4,18.5-1,3.3-4.1,3-31.8,5.9-44.1Z"/>
  <path fill="#9fda0f" d="M981.8,314.4c1-5.5,4.1-17.3,5.8-22.5v1.5c.9,12.2-1.9,25-.1,36.2,2.8.5,4.7.9,7.5,1.6-1.1,9-.8,21.4-1,30.7l-1.6.9c-3.2-1.5-4.3-.5-7.4-1.4l-.2-5.2-1.5,1.2-1.3-.2c-3.4-5.5,1.6-32.5-.2-42.7Z"/>
  <path fill="#b5eb34" d="M798.3,1322.4c9.8,4.4,10,19.9,12.9,28.6,3.8,11.4,5,66.4,13.1,73.1l1.2-.7c1.4-19.4,4.8-22.3,25.4-23.5,8.9-7.4,5.1-67.1,14.3-73.6-1.5,23-4.8,53.9-3.9,76.2l7.7,11.4c-6,0-4.7-2.4-8.8-4-13-4.9-24.6-3.3-29.3,10.7l1.3,9.3c-5.5,2-12,3.2-17.8,3.2l-1.4-5.4-1.1-.5c-9.2,11.9-1.9,35-10.3,41,.7-12.5-.3-25.7,2-37.7,1.1-5.9,6.8-14,7.4-20.1,3-31.5-4.5-58.4-12.5-87.9Z"/>
  <path fill="#b5eb34" d="M653.8,342.7h2c4.1,8.3,4.5,49.6-2,56.6h-1.3c-6.6-7.9-9.2-1.6-18.5,1.8-1.2.4-10,9.6-10.1,9.5-13.4-2.4-25.5-11.3-38.8-13.6l-1.1-.9c-14.4-12.5-24-7.2-42.9-7.4-3.7,0-9.4.7-12.7,2.3l-.9,1.6c.9,2.1.2,1.5,1.7,2.4l-5.1-.9c2.9,5.4,11.1,9.7,12.2,15.9-2.6-.3-26.5-22.3-30-25.9l-.5-2.9c3.8,2.1,8.6,5.3,12.4,7.7,17.4-6.9,52.7-6.5,70.2,1.3,4.7,2.1,18.9,9.1,22.3,9.9,8.6,2.2,35.6-14.8,44-19.7,2.2-14.5,1.1-23.2-1.1-37.6Z"/>
  <path fill="#b5eb34" d="M536.1,1037.4c3,.4,37,10.7,40.6,12.2,17.7,4.9,29.9,7.7,48.4,8.3,1.8,0,7.9,0,8.9,1.2-12.7,4.5-31.4,0-44.5-.5-3.4-1.1-11.7-2-15.6-2.6-7.1-1.6-20.5-4.3-26.4-7.4-2.3-3.1-8.1-7.5-11.4-11.1Z"/>
  <path fill="#b5eb34" d="M848.7,1130.7l-1.9-1.2-1.6.9-1.7,1c-8.3-.5-6.5-19.7-6-26,3.1,8.3,3.6,10.5,8.7,18l.6-.7.4-1.7,1.1,1.3.4,8.5Z"/>
  <path fill="#b5eb34" d="M551.2,438.5c1.5,0,5.8,14.7,6.6,16.8,2.8,8.6,5.5,22.3,12.4,28.6,3.1,2.9,6.9,5.1,10.1,8,3.3,2.9,4.2,5,4.4,9.4.4,10,13,37.7,20.1,44.9,4,4.1,6.1,4.9,11.6,4.8,13.6,11.5,33.8-1.4,44.4,6.8l1.4,1.1c3.7,0,8.8-2.2,12.5-3.5,4.9,1.5,21.7-5.2,23.2-8.7,6.8-16.1,5-51.6,5.7-68.4l.8-.2c2.3,18.9-1.1,49.7,5.5,66.5,8.9,22.6,66.9,20,83.3,9.7,11.8-7.4,27.7-41.6,31.1-55.7,2.7-11,4.4-7.8,11.6-15.3l-.7-5.1c2.4-1.8,2.1-1.1,5.9-1,5.8-4.1,9.1-26.4,14.6-35.5,3.5,3.2-5.9,17.4-2.6,23.9h3.9c9.4-2.4,17.4-6.9,27.3-9.2l.9.6c-5.2,4.1-8.9,6-14.9,8.7-3.2,1.9-16.5,2.8-18,6.2-4,9.3-14.5,19.4-18.1,28.2-8.9,21.9-12.4,45-34,58.6-16.4,10.3-39.4,10.5-57.7,5.9-20.9-5.2-26.4-6.1-38.1-24.5-21.5,38-94.9,37.7-114.9-2.3-5.6-11.3-19.1-52-28.8-54.8l-2.5,1.6c-11.5-18.1-8.3-9.1-26.3-17.6v-3.4c-2.2-3.8-7.6-3.1-12.9-8.1,4.3-1.9,26.7,12.2,35,9.9,3-3.7-2-18.1-2.7-27Z"/>
  <path fill="#b5eb34" d="M640.6,774.6c42,6.4,90,6.5,132.5.3,2.2-.3,21.4-5.4,22.1-4.6-49.9,18.8-115,25.1-165.3,5.5,3.3-2.2,6.7-1.4,10.8-1.2Z"/>
  <path fill="#b5eb34" d="M440.9,401.1c4.9.8,13.1,11.1,17.9,13.9,13.1,7.4,28.8,11.6,43.3,15,5.4,1.3,14.4.8,19,2.5-2.2,6.1,1,1.8-.9,6.1-3.4,0-5.3.2-8.7.5-6-.5-9.3.2-16.4-.7l6.3-.4.5-1.1c-6.1-.8-19.7-.3-24.6-1.9-7.6-13.5-25.2-8.2-29.8-19.7,2.1-6.9-2-8.1-6.5-14.3Z"/>
  <path fill="#b5eb34" d="M606.1,1212.8c2.7,5.8-12.7,62.2-13.8,73.2-1.5,14.7-5.2,34.6-5,49.5-4.9-7.4,5.6-78.6,7.7-91.5,1.1-.4,2.3-.8,3.4-1.1,2.5-7.9,7.6-22.2,7.8-30.1Z"/>
  <path fill="#b5eb34" d="M644.6,645.9c10.6,8.5,35.6-.4,43.9,2.7l-.5,1.5c-2.5,2.4-5.6,3.5-9,4.4-3.4.3-3.3-.3-5.5,1.5l1.1,1.1h1.7c-5.5,3-26.3.8-32.8-.4-1.2-3.5.2-7.1,1.2-10.8Z"/>
  <path fill="#b5eb34" d="M964.8,401.1l1.5,1.3c-17.1,26.5-47.3,33.2-76.7,31.3l-2-.7c2.5-1.5,12.4-2.2,15.8-2.6,25.9-2.8,43.3-11,61.5-29.3Z"/>
  <path fill="#b5eb34" d="M610.3,413c3.6,1.2,6.5,3.2,10.4,4.2,19.7,5,60.2,9.6,71.6,28.4-11.2-6.6-18.6-10.6-30.9-14.9-14.5-5-40.2-6.8-51.6-16.5l.6-1.2Z"/>
  <path fill="#b5eb34" d="M798.7,413.5h.4c-13.6,10.6-39.8,12.2-55.9,18.3-9.9,3.7-18.4,10.5-27.5,14.2h-.1c9.3-18.9,63.8-26.3,83.2-32.5Z"/>
  <path fill="#b5eb34" d="M719.3,595.1c9.9.3,27.1,6.1,28.8,5.5v-3.4s1.9-.4,1.9-.4c5.3,2.9,6.9,6,10,11.3l-.7-.5v1.4c0,0,1.7.4,1.7.4,0,4.5.7,5.8-3.7,7.3-2-13.5-34.9-16.2-38-21.6Z"/>
  <path fill="#b5eb34" d="M816.4,1262.4c2.1,7.8,8.4,69.1,6,74.8-2.9-8.8-5-38.8-6-48.7-.3-3.1-3-15.1-3-16.4,3.3-1.3,2.7-6.2,3-9.7Z"/>
  <path fill="#b5eb34" d="M637.7,708.5c1.4,1,5.6,6.2,7,7.8h.4c6.4,10.3-1,18.5,6.3,34.8l.5,1.7-.8.7c-7.5-6.4-13.1-35.1-13.3-44.9Z"/>
  <path fill="#b5eb34" d="M809.3,1250.2c-2.6-6.6-6.1-23-7.9-30.8l1.3.4c2.7,6.4,10.8,25.6,11.8,31.7.6,3,1.8,8,1.9,10.8-.3,3.5.3,8.4-3,9.7-1.8-6.1-3.4-15.5-4.1-21.9Z"/>
  <path fill="#b5eb34" d="M809.3,1250.2c-2.6-6.6-6.1-23-7.9-30.8l1.3.4c2.7,6.4,10.8,25.6,11.8,31.7-1-1.9-2.1-3.8-3.2-5.6l-1.2.5c-.3,2.5,0,1.2-.7,3.8Z"/>
  <path fill="#b5eb34" d="M591.1,1088.7c.8,1.3,2.6,7.6,3.7,10,7,15.7,9.9,19.7,22.7,30.1-3-.4-5.9-.8-8.9-1.3-14.1-10.3-18.1-21.6-17.6-38.8Z"/>
  <path fill="#b5eb34" d="M816.9,1090.8l.9,2c-1.5,14.8-5.8,22.7-15.7,33.5l-9.7,3h-.5c0,.1-.5-1-.5-1,12.2-10.1,17-15.2,22.9-30.8l2.5-6.6Z"/>
  <path fill="#b5eb34" d="M718.2,647.9c9.1-.2,18.3,2,27.9,1.7,4.9-.2,14-2.5,16.8-1.4l-.3,2.3-9.6,6.2c-10.6-1.7-22.6-5-33.8-6.9l-1-1.8Z"/>
  <path fill="#b5eb34" d="M760.5,688.6c2.2,3.7-1.5,8.2-4.9,9.8-11.2,5.5-22.2,4.2-33.7,1l-1.5-1.3c5.9-3.8,20.4,7.8,40.1-9.6Z"/>
  <path fill="#b5eb34" d="M557.1,1198.2c3.6,5.8-4.2,42.5-2.6,51.2.6,3.2-.8,14.1-2.2,17.7-1.2-17.6.7-52,4.9-68.9Z"/>
  <path fill="#b5eb34" d="M681.7,595c1,0,4.8.9,6,1.2l-.3.6c-12.5,2.8-22.5,8-33.3,14.6-2,1.3-1.2.9-3.6,1.3v-1.4c8.1-10.7,18.8-14,31.2-16.2Z"/>
  <path fill="#b5eb34" d="M769.5,707.4c4,9.8-7.1,39.1-12.5,47.7-1-2.4,10.7-42.9,12.5-47.7Z"/>
  <path fill="#b5eb34" d="M646.7,689.2c1.2.3,1.7.5,2.7,1.4,13.9,13.5,25.3,5.4,38.1,7.2l-.6.9c-10.6,4-38.8,6.2-40.2-9.6Z"/>
  <path fill="#b5eb34" d="M702.4,712c4.9.2,9.8,1.1,9.6,6.9-2.7,3-2.2,2.1-6.8,3.2-4.3.7-7.6-.2-8.7-4.6,1.7-3.8,1.6-2.8,5.9-5.5Z"/>
  <path fill="#b5eb34" d="M677,391.5c2.4,2.3,15.3,37.2,16.3,41.6-5.1-3.2-18.1-35.9-16.3-41.6Z"/>
  <path fill="#b5eb34" d="M851.7,1196.2c2,7.6,8.2,37.3,4.8,43.9-.3-9.7-1.7-18.4-2.5-28-.2-.5-.7-.9-1-1.3-1.6,5.3,2,20.2,1,26.9-1.6-9.8-5.4-32.6-2.3-41.6Z"/>
  <path fill="#b5eb34" d="M382.8,202.9l1.9,2.1c2.1,9,.3,23.9-.6,33.5l-1.3-1.1c-2.2-5.6-1.2-28.1,0-34.5Z"/>
  <path fill="#b5eb34" d="M1023.4,203.5l1.8,1.3c2.3,6.3,1.4,28.7,0,35.7-2.7-12.1-3.3-24.7-1.8-37Z"/>
  <path fill="#b5eb34" d="M730.1,393.4l.7.8c.8,4.9-11.1,31-13.9,36.5l-.7-.2c-1-4.5,11.1-32,13.9-37.1Z"/>
  <path fill="#b5eb34" d="M410.5,328l.7.8c3.2,11.3,3,22.1,1.2,33.6-2.6-3.4-1.9-28.7-1.9-34.4Z"/>
  <path fill="#b5eb34" d="M393,417.2c5.4.4,19.4,4,23,8.2-6.6.4-19.5-2.2-23-8.2Z"/>
  <path fill="#b5eb34" d="M629.8,775.8c-3.4-.5-16.1-5.2-18.5-8,2.4.1,22.8,5.6,29.3,6.8-4-.2-7.5-.9-10.8,1.2Z"/>
  <path fill="#b5eb34" d="M568.5,1158l1.7,1.3c1.1,6,2,23.4,1.6,29.4l-1.2-1.3c-.8-6.2-3.2-24-2.1-29.4Z"/>
  <path fill="#b5eb34" d="M821,574.6c-1.1,9.2-13.9,13.2-21.9,12.8l-.5-.9c12.7-3,12.1-3.4,22.5-12Z"/>
  <path fill="#b5eb34" d="M586.9,573c2.9,1.7,13.7,11.6,18.4,14.8-8.9.5-15.3-7.4-18.4-14.8Z"/>
  <path fill="#b5eb34" d="M357.4,360.1c5,3.5,8.8,13.2,10.3,19-6.3-3.8-7.7-11.7-10.3-19Z"/>
  <path fill="#b5eb34" d="M840,1155.2c3,4.8,1.3,8.4,0,13.5-3.6-3.4-2.6-9.6,0-13.5Z"/>
  <path fill="#b5eb34" d="M587.5,598.5c4,2.5,9.8,4.4,11.3,7.6-6.1.2-10.6-.7-11.3-7.6Z"/>
  <path fill="#b5eb34" d="M619,748.1c3.2,5.4,8.9,8.4,8.9,13.8-4.8-2.3-9.3-8.2-8.9-13.8Z"/>
  <path fill="#b5eb34" d="M821.2,598.9c1.5,5.2-5.1,6.9-9.3,8.2-.9-1.3-.7-.6-.5-2.2,3.3-2,6.5-3.9,9.7-6Z"/>
  <path fill="#b5eb34" d="M392,211.7l.6.6c1.3,3.7.7,8.9-.6,12.6l-1.5-1.3c-1.5-4.6-.4-7.6,1.4-11.9Z"/>
</svg>