<?xml version="1.0" encoding="UTF-8"?>
<svg id="_레이어_1" data-name="레이어_1" xmlns="http://www.w3.org/2000/svg" version="1.1" xmlns:xlink="http://www.w3.org/1999/xlink" viewBox="0 0 1665.4 1387.3">
  <!-- Generator: Adobe Illustrator 29.3.1, SVG Export Plug-In . SVG Version: 2.1.0 Build 151)  -->
  <defs>
    <style>
      .st0 {
        fill: #abed41;
      }

      .st1 {
        fill-opacity: .6;
      }

      .st1, .st2, .st3 {
        fill: #c8f764;
      }

      .st4 {
        fill: #7fd208;
      }

      .st3 {
        fill-opacity: .4;
      }

      .st5 {
        fill: #b4f04e;
      }

      .st6 {
        fill: #7fc517;
      }
    </style>
  </defs>
  <path class="st4" d="M486.6,168.2c7.7-14.8,12.4-34.7,28.7-25.6,2.6,1.4,6.5-3.9,8.9-5.2,5.9-3.2,7.9,1,13.1,2.3,7.4-1.3,17.1-9.9,21.4,2.8,7.1.8,20.2-5.9,22.5,8,.5,8.8,3.7,10.5,9.3,17.5,11.7,1.3,23.3,1,35,1.3,74.3,1.5,148.4-1.9,222.7-1.5,8.6,0,18.4.7,26.9.2,13.6.4,27.4,1.6,40.8,1.7,54.8.6,109.8.6,164.6.6.8-4.5,1.4-9.6,2-14.2,1.9-23.7,15.5-3.3,24.9-19.4,10.7-1.3,12.2,6.9,19.4,2.2,8.3-5.4,15,4.3,20.7,3.4,3.2-1.9,4.7-3.6,8.7-2.5,10.7,3.1,14.7,18.6,18.7,27.9,50,1.1,103.9.7,154,.4,1.2-6.1,1.9-19.4,7.4-22.1h1.1c5.4.7,22.9-.4,25,3.5,8.3,15,6.2,49.7.2,64.7-4.6.1-19.3-.2-22.3,1.8-11,.3-9.1-14.7-10.2-23.3-45.5-.4-91.1.4-136.7.2-5,0-10.7,0-15.7.3-.4,9.2-1,16,1.6,25,8.8,35.4,28.4,60.1,44.5,90.7,19.8,28,29.9,70.7,32.1,104.8,1.2,18.5,7.1,23.3,1.7,43.7-6.4,5.9-23.5,19.2-31.8,22.7-30.3,12.8-66,25.8-98,32.8-8.2,1.8-21.8,1.8-30.3,1.7-7.4-.1-19.4-4-26.6-5.7-6.6-1.5-31.2-14.8-35.5-11.3-5.6,4.6-9.7,27.3-12.8,35-2.2,5.6-4.9,11.6-7.4,16.9-11.7,24.9-28.9,47.6-43.2,71.1-.5.9-9.3,16.1-8.7,15.4-1,3.1-2.4,7.2-3.1,10.4-.8,38.1,5.3,67.5-5.7,103.6,8.5,9.5,13.2,16.3,20.8,26.5,8-2.9,14.4-6.1,22.8-7.1,16.1-3,29.6-4.2,46.2-3.2,7.1.5,13.1,1.6,20.3,1.7h1.2c8.7,2.5,16.7,6.8,25.1,10.3l-3.6,1.8c1,3.4,5.7,9.6,7.5,13.7,7.7,17.3,10.4,38.5,6.6,57.2-3.5,12.8-6.9,21.4-12.6,33.4l-.3.7c.6,4.3.3,5.2,3,8.3,4.9,2.6,7.1.9,11.6,2.6l-7.1,5.3c-4.5,2-16,8.6-17.1,13.6-2.2-2.1-5.8-2.8-8.8-3.7-1.1,1.9-2.6,4.6-3.8,6.3-2.1,7-25.3,38.7-32.4,41.9-17,7.6-46.2-7.1-63.8-10.2-1.4-.3-.8,0-2.2-.7-2-1.8-4.3-2.9-6.7-4.1-6.5,1.3-21,3.5-26.4,6.5,2.6.9,4.7,1.8,7.4,2.2l.4,1c-22.8,3-52.8,2.4-75.7.2-10.2-1-23.8-9.6-35.1-8.6-20.5,1.9-34.1,9.4-55.4,10.2-18.2.4-53.3-3.3-68.8.8l-1.6-1.3c-2.2-4.1-4.2-3.8-8.6-5.5l-7.1,1c-9.3,4.3-46.3,10.4-57.6,11.5-7-4.3-13.4-9.1-18.9-15.5,0-.9.2-2.6-.4-3.4-8.8-14.5-17.7-27.9-24.7-43.5-4.6-9.4-9.1-18.7-13.5-28.2-2.1-5-3.7-9.2-5.5-14.4-1.8-.2-.9-.3-2.7.2l-2.9,5.1-1.1-.2c-.3-5.3-1.8-10.1-3.1-15.3-.3-1.7-.6-3.4-.9-5.2-3.2-22.8,5-48,18-66.2l11.1-3.2c14.4-8.1,57.8-8.2,73.8-3.4,13,.9,14.7,1.3,26.4,7.8,7.3-2,15.1-16.9,19.6-24-1.6-8.6-4.6-23.8-5-32-1.2-22,.2-46.3,1-68.4v-7.2c-1.7-11.1-40.8-64-50.1-82.2-16.2-31.8-16.5-41.3-27.3-72.8-28.4,17.9-47.2,26.7-81.5,24.4-23.4-2.1-45.9-12.4-68-19.5-24.2-7.8-54.7-17.6-71.8-38.1-6.8-12.7,1-29,2.3-43.2v-1.6c2.2-51.9,15.9-88.1,45-130.5,11.7-20.1,18.3-30.1,27.4-52,5.6-16.7,5.8-19.2,2.3-36.9l-95.1.2c-14.5,0-37.8-.7-51.4.6-2.7,2-1.6.7-2.9,4.5-.3,7.4,0,10.3-5.4,15.5-8.2,7.7-7.7,5.6-8.5,16.7-2.4-3.6-1-4.8-2.4-8.9-5.3-1.1-16.1-.9-21.9-.9-6.8-16.8-9.4-63.7.1-78.6,3.9-2.2,16-1.4,22.1-2.5l1.2-.2,1.4,2.4c2.6,2.9,3.9,2.5,6.6,4.3,5,8.1,3.4,10.9,6.9,20,4.5,2.7,136.3,1.6,153.5,1.5ZM900.1,195.5c0,5.9-.8,13.5.9,18.7,3.2,2.5,6.9,3.5,7.6,7.9,1.3,8-.9,18.1-2.1,26.1-1.7,8.3-2.2,10.8-6.7,18.1-3.1,1.1-6.2,2.3-9.3,3.2-1.7,9.7-3.2,38.9-6.2,43.6-2.1,6.5-2.5,7.3.8,13.2l.8,1.4c.2.3.4.6.5.9,13.8,12.6,48.4,23,57.9,33.1,8.2-2.2,14.5-6.9,22.2-9.1,41.2-11.8,76.1,1.9,109.2,27.8,11.2-7.9,25-10.9,38.2-8.2.3,0,.7.2,1,.2,17,1.9,28.9,8.3,43.2,17.5-13.9-38.8-10.4-37-7.9-73.9.8-11.3-19.7-64.4-24.7-77.9-6.9-5.8-10-8.5-18.3-12.5-8.2-3.9-19.4-5.3-26.1-11.1-6.8-5.9-6.3-12.9-6.8-21.4-43.3-.9-87,.5-130.4.2-13.2-.1-29.1-.5-42,1l-1.7,1.2ZM591.3,193.9c-4,38.7-37,19.6-53.3,47.3-5.1,8.7-8.3,21.6-11.6,30.5-10.3,27.5-18,44.5-11.1,74.4,1.4,6.1-7.5,31.8-5.4,37.5,23.1-11,54.4-21.1,77.2-3.3,34-28.1,65.7-39.9,109.2-27.2,6.9,2,12.9,5.4,19.5,8.4,5.1-4.7,26.5-14.2,33.8-16.8,8.9-4.8,30.8-15.3,31.9-26.5-1.3-4.6-4.6-9.1-6.3-15.5-1.7-4.5-.7-31.3-3.9-32.9-17.4-8.9-22.3-32-17.8-52.6,3.6-1.9,5.5-2.3,9.4-3.5l.9-15.8-.6-1.6c-4.4-3.4-37.8-2.3-45.3-2.3-13,.7-29.9.1-43.2,0-27.9-.2-55.7-.3-83.6-.3Z"/>
  <path class="st5" d="M871.2,768.1c14.5-5.1,9.1-31.9,31.3-43.3l.6.7c-9,11.4-15.7,26.8-24.2,39.6,8.2-1,16.8-2.1,24.9-3.4,10.1-1.6,44.3-14.8,50.8-11.3,8.5,9.5,13.2,16.3,20.8,26.5,8-2.9,14.4-6.1,22.8-7.1l4.3.7c-3.9,2-9.8,2.5-14.6,4.2,8.8,9.2,14.4,14.3,18.2,27h-.8c-7.1-7.7-15.4-20.8-24.6-21.6-.8,2.5,3.5,11.9,4.3,16.1,4,19.9,2.6,36.4-4.6,55.5,2.8-32.8,3-48.9-15.9-76.2-4-5.8-3.6-9.2-10.2-15-2.4,0-19.6,4.7-24.7,5.7-8.6,1.6-21.5,8.4-30.9,9.9-15.2,2.2-30.6,4-45.7,6.5-20.1,3.2-62.7-2.1-82-7l1.3-.6c-3.5-6.2-52.2-12.2-62.9-21.1l-.4-1.8c5.4-4.1,25.6,2,31.4,4.6,14,6.2,27.6,6.5,41.9,9.4-4-8.8-19.2-35.7-20.3-39.8,4.7,1.6,13,13.2,15.5,18,2.7,5.2,3.4,17.5,8.2,20.8,6.4-.3,36.9-2.7,38.5,5.9,15.7.7,31.5-.3,47.1-2.8Z"/>
  <path class="st2" d="M871.2,768.1c6.7-.3,23.7-3.6,27.5-.7-2.1,7.3-17.6,6.9-23.2,7.8-31.6,5.5-58.9,3.6-90.3-1.1l5.5-.4c-3.7-1.9-3-1.4-4.3-5.8,5.8,2.9,31.1,3.8,37.8,2.9,15.7.7,31.5-.3,47.1-2.8Z"/>
  <path class="st5" d="M558.7,142.5c7.1.8,20.2-5.9,22.5,8,.5,8.8,3.7,10.5,9.3,17.5,11.7,1.3,23.3,1,35,1.3,74.3,1.5,148.4-1.9,222.7-1.5,8.6,0,18.4.7,26.9.2,13.6.4,27.4,1.6,40.8,1.7,54.8.6,109.8.6,164.6.6.8-4.5,1.4-9.6,2-14.2,2.4,4.7,3.4,17.9,2.6,23.5l-.9.4c-2-3.6-3.4-8.1-8.1-7-6.9,1.6-14.9-1.2-21.6-.7-16.6,1.1-32.9.6-49.5.5l-161.3-1.9c-18.1-.1-36.3-.3-54.4.1-9.6.3-19.2,2.3-28.8,2.3-56,.3-111.8-2.6-167.9-1.8-4.5,0-8.9-3-11.8-2.3-1.9,2.8-3,10.1-4.2,14.2l-1.1.5c-3.1-7.7,6.9-19.8,2.1-30.2-8.1-17.6-14.9-5.8-18.9-6.6-1.2-2.8-.9-1.3-.2-4.7Z"/>
  <path class="st2" d="M693.2,940.5c24.8,10.4,69.3,12.1,95.9,6.8,12.8-2.5,26.7-9.8,41.2-9.8,16.7,0,33.2,8.5,49.4,10.7,11.1,1.6,25.8,1.1,37.2,1.3,5.1,0,12.9-1,17.5-.4l.6,1.8c2.6.9,4.7,1.8,7.4,2.2l.4,1c-22.8,3-52.8,2.4-75.7.2-10.2-1-23.8-9.6-35.1-8.6-20.5,1.9-34.1,9.4-55.4,10.2-18.2.4-53.3-3.3-68.8.8l-1.6-1.3c-2.2-4.1-4.2-3.8-8.6-5.5-3.7-1.3-6.6-4.5-6.7-8.6l2.4-1.1Z"/>
  <path class="st5" d="M662.2,769.6c13,.9,14.7,1.3,26.4,7.8.8.3.2,0,1.9,1.3-1.2,7-3.9,10.6-5.8,16.9-3.1,10-3.7,22.4-4,32.8-.1,3.9.8,15.6-1,18-11.9-10.7.6-46.5-6.9-54.2-8.3,1.1-15.4,16.8-21.2,17.3l-1-1.3c1.2-6,19.5-28.8,24.1-34.1-4.6-1.3-8.5-1.6-13-3.6l.6-1Z"/>
  <path class="st2" d="M1097.2,837.9l2.1-1.4c1.4,2.6,1.6,10.9,2.3,14.8-3.5,12.8-6.9,21.4-12.6,33.4l-.3.7c.6,4.3.3,5.2,3,8.3,4.9,2.6,7.1.9,11.6,2.6l-7.1,5.3c-4.5,2-16,8.6-17.1,13.6-2.2-2.1-5.8-2.8-8.8-3.7-1.1,1.9-2.6,4.6-3.8,6.3-.6-4.9,16.2-37.4,19.6-43.5,6.2-13.6,9.6-21.6,11.1-36.4Z"/>
  <path class="st6" d="M1088.8,885.4c.6,4.3.3,5.2,3,8.3,4.9,2.6,7.1.9,11.6,2.6l-7.1,5.3c-4.5,2-16,8.6-17.1,13.6-2.2-2.1-5.8-2.8-8.8-3.7.9,0,4.3-.2,4.9-.7,4.1-3.8,8.6-14.8,11-19.6l2.6-5.7Z"/>
  <path class="st5" d="M294.8,221.2c-6.8-16.8-9.4-63.7.1-78.6,3.9-2.2,16-1.4,22.1-2.5l1.2-.2,1.4,2.4c2.6,2.9,3.9,2.5,6.6,4.3-8.9.4-18.9,0-27.3.6-8.4,21.2-7.2,46-.4,67.5,10.2,0,19.4.5,29.4-1.7l.4-1.3c1-3.7,2.6-15.4,3.6-16.3,1.4,1.9.8.8,1.2,3.5-.3,7.4,0,10.3-5.4,15.5-8.2,7.7-7.7,5.6-8.5,16.7-2.4-3.6-1-4.8-2.4-8.9-5.3-1.1-16.1-.9-21.9-.9Z"/>
  <path class="st5" d="M1179.4,218.4c8.8,35.4,28.4,60.1,44.5,90.7-10.5,0-25.5-43.8-33.8-42.7l-2.2,3.5h-1.3c-3.7-6-8.6-20.8-10.9-27.8,1.2.5,2.3,1,3.6,1.5l-.4-2.6.8,1.5-1-1.3c1.6-.3.7,0,2.6-1.1-1.1-10.8-2.6-10.1-1.9-21.7Z"/>
  <path class="st5" d="M577.3,776.2l11.1-3.2,1.3,1.3c-17.6,19.6-24.5,33.8-25,62.3-.1,6.4,1.9,15.6,5.3,21.1-1.8-.2-.9-.3-2.7.2l-2.9,5.1-1.1-.2c-.3-5.3-1.8-10.1-3.1-15.3-.3-1.7-.6-3.4-.9-5.2-3.2-22.8,5-48,18-66.2Z"/>
  <path class="st5" d="M1065.9,768.3c8.7,2.5,16.7,6.8,25.1,10.3l-3.6,1.8c1,3.4,5.7,9.6,7.5,13.7,7.7,17.3,10.4,38.5,6.6,57.2-.6-3.9-.9-12.2-2.3-14.8l-2.1,1.4c1.7-18.5-8.1-50.5-25-63-2.4-1.7-11,1.2-13.1-3.5l1.7-.5c1.5-2.2,1.8-1.6,5-2.6Z"/>
  <path class="st0" d="M480.1,230.3c.2,4.4,0,8.9,1.9,12.6l1.6.8c1.1-1.8,2.2-4.4,3.7-5,.5,3.9-9.7,27.8-12.1,32h-1c0-.1-1.2-3.7-1.2-3.7-10.2-.8-5.9,13.1-20.3,15.2,11.7-20.1,18.3-30.1,27.4-52Z"/>
  <path class="st0" d="M961.4,944.6l-2.1-1.1c2.1-2.2,8.6-3.1,12.4-4.8,11.2-5.1,22.2-13.2,30.1-23.1,1.9,8.3-26.5,29.6-33.7,33.1-2-1.8-4.3-2.9-6.7-4.1Z"/>
  <path class="st0" d="M935.5,690.9c2.6-10.1,19.4-51.6,27.8-54.6-1,3.1-2.4,7.2-3.1,10.4-1.1,4-21.5,39.4-24.8,44.2Z"/>
  <path class="st0" d="M655.5,913.3c7.1,5.5,12.6,11.1,20.5,16.5,5.8,3.9,11.9,7,17.2,10.7l-2.4,1.1c.1,4.1,3,7.3,6.7,8.6l-7.1,1c-.4-1.3-.1-1,.5-2.9-.9-2.2-17.2-13.7-21-17.5-6.7-6.7-8.8-9.5-14.4-17.4Z"/>
  <path class="st0" d="M704,645.8l1-1.5c4.7,2.6,19.7,34.8,18.9,41.3-2.5-4.1-4.7-8.8-7.2-13.1-2.6-4.5-11-15.3-12.6-19.4v-7.2Z"/>
  <path class="st0" d="M944.2,361.7c8.2-2.2,14.5-6.9,22.2-9.1,41.2-11.8,76.1,1.9,109.2,27.8,11.2-7.9,25-10.9,38.2-8.2.3,0,.7.2,1,.2-6.6,2.7-30.2,2.9-33.4,8,1.1,6.1,12.7,21.4,17,28.1-9.1-8-35.3-37.5-49.7-39.4-12.8-1.7-4.7-.2-14-7.2-2-1.5-20.9-2.7-24.1-2.7v-.7c6-.1,5.7.2,10.3-3.8l-.4-1c-6.3,0-8.8,3.3-13.5,3.2-17.6-.3-32.9-5.8-48.3,7.2-.4,3,5.2,12.3,7,15.7-7.2-5-15.3-10.6-21.8-16.6l.2-1.5Z"/>
  <path class="st0" d="M587.2,380.4c34-28.1,65.7-39.9,109.2-27.2,6.9,2,12.9,5.4,19.5,8.4l.8,1.6c-1.7,1.2-1,.8-3.2,1.3l-2.1,3.3c-2.5.5-1.2.6-3.7-1l-.2-3.7-1.1-.9-7.7,3.9c-6.6-2.9-6.6-12.7-17.7-12.9-13.2-.2-22.1-4.5-35.2-1.2-29.3,7.4-45.7,21.1-66.9,42.1-2.2,2.2-8.9,8.9-11.8,7.9,3.6-7,15.1-17,14.6-22.6-1.1-.8-21.8-6.2-24.5-6.4-3.2-.3-28.1,4.9-30.9,6.4-8.3,4.5-16.1,11.4-24.9,15.5-3.4,1.7-6.3,7.1-10.8,8.6l-1-.8c1-2.7,14.9-18.3,17.7-21.6,3.2,1.7-1,2,2.6,2.5,23.1-11,54.4-21.1,77.2-3.3Z"/>
  <path class="st2" d="M718.1,194.2c-2.7-1.9-63.3-1.3-71-1.3,20.9-1.9,252.5-.8,254.8.4v1.1c0,0-1.7,1.2-1.7,1.2l-1.2,4.5c-4.5,1.4.2,0-3-.1-43.5-1.3-87.4.7-131-.7-.3-.4-.6-.8-1-1.2l-.6-1.6c-4.4-3.4-37.8-2.3-45.3-2.3Z"/>
  <path class="st5" d="M906.2,449.7c-5.6-1.9-16.1-5.3-20.5-8.8l.4-1.1c4.3-.9,9,0,13.5.7,20.8,3,39.2-12.3,54.5-25.2-4.7,10.8-7,16-16.7,22.9-5.7,3.3-20.1,10.8-24,14.7-4.6,5.2-7.7,7.7-9.8,14.9-5.1,17.2,1.3,36.1,6,52.6.1.4,1.2,2.8,1.5,3.5h-.5c-5.5-5.2-12.7-22.7-14-30.7-3-18.7-.1-28.4,9.6-43.4Z"/>
  <path class="st2" d="M913.4,452.8c-2.8.3-2.7.5-5.4,1.4-.5-4.4-2.7-7-1.8-10.1,3.8-2.5,8.7-1.8,13.1-3.3,5-1.7,12.1-7.7,17.3-7.2,1.7,2.3,1.2.9.8,4.5-5.7,3.3-20.1,10.8-24,14.7Z"/>
  <path class="st5" d="M708.3,415c22.4,23.3,38.1,28.2,69.2,23.8-6.6,5.3-18.5,9.7-20.2,12,9.2,17.3,13.5,31.7,5.8,51.1-1.9,1.3-.9.8-3,1.4-.9-3.1.4-8.9.2-14.1v-1.1c1.6-14.6-.4-22.5-9.6-33.7-2.4-2.1-6.3-4.7-9-6.9-17.9-7.6-25.6-14.3-33.3-32.4Z"/>
  <path class="st2" d="M741.7,447.4c-1.8-2.5-3.5-4.7-5-7.4,6.3-2.7,10.9,4.1,19,4.7.3,2.1-.6,4.3-1.5,6.2.3,1.6.5,2.4.7,4l-4.2-.6c-2.4-2.1-6.3-4.7-9-6.9Z"/>
  <path class="st5" d="M831.9,431c4.8,34,6,58.2,3.1,92.7-1,11.9-1,24-3.9,35.9-1.5-12.9-1.7-27.6-2.2-40.7-2.3-12.3-.5-49.6,0-63.8.4-8.4,1.1-15.9,3-24.1Z"/>
  <path class="st0" d="M831.9,431c4.8,34,6,58.2,3.1,92.7-1,11.9-1,24-3.9,35.9-1.5-12.9-1.7-27.6-2.2-40.7,1.4,2.3,1.8,3,2.2,5.7,2.8-10.9,8.1-70-.7-74.3l-1.5,4.8c.4-8.4,1.1-15.9,3-24.1Z"/>
  <path class="st5" d="M1069.6,442.1l.3.5c-1.1,3.6-5.9,7.2-8.5,9.8-18.9,18.9-41,28.7-67.4,23.3-9.1-1.9-16.7-7.5-24.6-12.7-1.9-2.2-1.9-2-2.9-4.7,5.2,0,18.3,7.2,24.3,9.1,26.8,8.4,59.7-5.8,78.8-25.3Z"/>
  <path class="st0" d="M592.3,441.8c21.4,21,54.3,34.2,83,24.6,5.8-1.9,15.3-8.5,21-8.8l-2.6,3.5c-9,7-15.5,13.1-27,14.9-20.4,3.2-39.8-2.6-56.2-15.5-5.4-4.2-17.4-12.6-18.2-18.7Z"/>
  <path class="st5" d="M831.3,621.8l.7.9c1.2,19.2,3.4,40.1,4.9,58.7.8,10.4-2,54.4-4.8,64.2-5.4-14.5-2.1-50.2-3-67.1-.9-18.6,3-37.7,2.1-56.7Z"/>
  <path class="st5" d="M1180.5,334.9c17,3.7,61.2,87.2,28.3,103.2l-3.3-.6.2-1.4,6-4.6c15.2-28.9-17.1-72.6-31.2-96.7Z"/>
  <path class="st0" d="M981.5,557.9c1.5,0,3.2,0,4.7.1l.5,1.1c-5.3,4-11.2,5-17,8.7l.4,4-.9,1.1c-5.1,1.4-7.6,1.2-12.7,1.3l.9-.4c-13.1-1.2-19-.8-31.7-1.1l-1.6-1.8c.1-5.9-1.3-6.6-5.4-10.2l-1-.9.3-.7c20.4,6.6,43.6,6.6,63.7-1.3Z"/>
  <path class="st0" d="M442.8,424.7c-2.3-12-.4-23.9,3-35.6,4.9-16.8,25.7-50.8,40.6-58.7-2.5,3.4-4.9,6.8-7.4,10.2-16.1,22.6-36,53.8-31.8,83.3-2.2.8-2.2,1.1-4.5.8Z"/>
  <path class="st0" d="M821.5,321.2c5.6,12.7-11.8,57.7-26.6,43.4.5-2.4,1.4-3.5,2.7-5.5,6-3,8.6-6.3,5.5-13.3,13.4-7,15.5-9.5,18.4-24.6Z"/>
  <path class="st2" d="M674.5,555.9c3.3.5,6.6,2.2,9.9,3,13.5,3.3,27.3,7,41.3,5,3.5-.5,13.4-2.8,16-1.8v.9c-21.9,14.7-47.5,7.7-67.2-7.1Z"/>
  <path class="st0" d="M1066.6,469c13.8.5,26.9,10.6,40.5,14.6,4.4,1.3,23.1,4.1,25,5.2-3.5.2-7,1.1-10.8,1.2-17.4.4-42.3-8.3-54.7-21Z"/>
  <path class="st5" d="M852.9,646c4.9,3.3,15,18.6,22.6,23.9,7,4.9,22.1,9.4,25.5,14.2-24.5,3-39.3-17.5-48.1-38.1Z"/>
  <path class="st0" d="M592,468.9l2.1.5v1.7c-3.6,3.7-7.1,4.7-11.4,7.2-15.1,8.7-28.9,11.7-46,11.1-1.2-.3-.5,0-1.9-1,5.2-2.7,17.1-3.4,23.3-5.8,11.3-4.3,22.6-9.1,33.8-13.7Z"/>
  <path class="st0" d="M1109.9,423.1c8.2-3.8,14.6-5.4,23.6-5.2,4.6,0,6,.3,10.6,1.2,6.1,1.2,12.3,5,17.8,8.2l-21.1-2.6-4-.2-8.3.2c-3.6.6-23.6,2.4-27,2.5,3.5-2.7,4.1-2.5,8.4-4.1Z"/>
  <path class="st5" d="M1133.6,417.9c4.6,0,6,.3,10.6,1.2,6.1,1.2,12.3,5,17.8,8.2l-21.1-2.6-4-.2-6.1-1.2-.3-3.3-1.6-.8h2.3c1.4-1.4.6-1,2.3-1.4Z"/>
  <path class="st0" d="M1144.1,419.1c6.1,1.2,12.3,5,17.8,8.2l-21.1-2.6c2.2-.3,4.5-.5,6.7-.7l.2-1.1-3.6-3.7Z"/>
  <path class="st5" d="M1128.6,424.7c-3.6.6-23.6,2.4-27,2.5,3.5-2.7,4.1-2.5,8.4-4.1,3.6,1.8,13.8,1.4,18.6,1.6Z"/>
  <path class="st5" d="M774.1,538.4c13.9,9,29.9,36.8,33.6,53.7-4.4-3.9-31.6-46.1-33.6-53.7Z"/>
  <path class="st5" d="M885.8,539.4l1.2.9c-2.2,10-24,39.7-31.4,51l-.9.3-.3-1.5c8.2-24,15.6-31.7,31.4-50.7Z"/>
  <path class="st5" d="M517.7,418.9c10-1.4,16.8-2.2,26.9,1,6,1.9,8.2,3,13.8,5.8-8.5-.7-17-1.1-25.5-1.3h-.7c-12.3.6-21.3,1.2-33.5,2.7,6.3-3.3,12.1-6.2,18.9-8.2Z"/>
  <path class="st0" d="M498.7,427.1c6.3-3.3,12.1-6.2,18.9-8.2l-1.6,2.5.7,1.6c6,1.9,10.8,0,15.5,1.4-12.3.6-21.3,1.3-33.5,2.7Z"/>
  <path class="st0" d="M544.6,420c6,1.9,8.2,3,13.8,5.8-8.5-.7-17-1.1-25.5-1.3,4.4-1.4,6.9.6,10.9-1.6l.8-2.9Z"/>
  <path class="st5" d="M807.3,647.9l.6.6c0,5.5-7.5,16.7-11.3,20.9-9.9,10.9-19.5,15-33.5,15.5l-1-1c1-1.9,15.3-5.9,20.7-9.8,11-7.8,16.3-15.7,24.5-26.2Z"/>
  <path class="st5" d="M982.8,501.9c.9,6.1-9.2,19.7-13.5,24.3-6.3,6.8-11.9,12-20.9,14.2-1.2-1.8-.8-.8-1.1-3.1,7.8-6.3,15.7-13.2,22.4-20.6,4.6-5.1,8-10.1,13.1-14.8Z"/>
  <path class="st5" d="M678.3,501.1c5.5,2.9,15.6,18.3,21.6,23.2,4.2,3.4,12.8,10.4,14.3,15.2-12.8.3-28.8-20.6-33.3-31.9l-2.6-6.5Z"/>
  <path class="st0" d="M781.6,318.3c-.7-3.3,7.2-27.4,9-29.7,6.4,11.5-12.1,48-25.2,51.3-5.5,1.4-9.1,6.3-15.7,4.8,8.9-4.8,30.8-15.3,31.9-26.5Z"/>
  <path class="st0" d="M1010.3,365.8c14.7-.4,23.3,1.3,36.2,8.7-7.8-1.2-15.6-2.2-23.4-3.1-12.7-.6-25.5,1.5-38.2,3,10.6-5.6,13.7-7,25.4-8.5Z"/>
  <path class="st0" d="M643.2,365.9c14.3-1.9,22,2.5,34.1,9.1-8-1.2-17.8-3.6-25.7-3.7-14.3.1-22.6.9-36.8,2.4,10.5-4.9,17-6.7,28.3-7.8Z"/>
  <path class="st0" d="M1202.3,316.8c10.8,6,26.3,50.7,28,64.4-1.4-1.3-25.6-58.1-28-64.4Z"/>
  <path class="st0" d="M458.7,316.1l.8,1.4c-1.5,4.4-3.7,9.1-5.8,13.3-8,15.9-13.4,33-20.7,49.2h-.5c-2.4-12.3,19.3-53.3,26.2-63.9Z"/>
  <path class="st5" d="M843.1,331.8c4,11.3,20.5,32,20.9,34.5-16.2,0-23.2-20.2-20.9-34.5Z"/>
  <path class="st5" d="M980.3,404.4c14.4,0,27,7.7,39.1,15.3-9.6-.1-34.6-5.7-39.1-15.3Z"/>
  <path class="st2" d="M674.9,404.5c2.5,0,3-.3,5,.9l-.9,2c-6.1,4.9-20.1,11-27.5,12.2-2.8.6-3.6,1-6.3.4l.2-1.1c6.9-6,20.7-12,29.5-14.3Z"/>
  <path class="st0" d="M1338.6,154.9l2.5,1.3c6.9,14.6,4.5,34.2,1,49.5l-1.7.7c-1.3-3.6.8-18.5.7-24.3-.2-9.7-1.3-17.7-2.4-27.2Z"/>
  <path class="st5" d="M320.5,156.1c2,3.8-.5,25.8.1,32.6.3,2.9,1.3,15.4,1.3,18.2h-1.2c-7.2-17.6-5.2-33.1-.2-50.8Z"/>
  <path class="st0" d="M801.2,262.1c11.4,2.4,22.4,9.4,34.4,8.5,5.7-.4,19.9-8.6,24.3-6-19.5,10.8-40.6,12.4-58.7-2.4Z"/>
  <path class="st5" d="M886.3,328.6c-10.9-1.2-14.4-32.7-15.6-41.7,2.7,7,7,18.7,11.5,24.5l.9-.7,1.1,2.4c-2.1,6.5-2.5,7.3.8,13.2l.8,1.4c.2.3.4.6.5.9Z"/>
  <path class="st0" d="M1239.3,421.7c5,5.8,3.3,14.5,0,21-4.2,8.1-7.5,10.5-15.8,13.1l-2.6-.9v-1.1c13.9-7.1,18.5-16.6,18.4-32.1Z"/>
  <path class="st0" d="M420.5,420.5c3.3,4.3,3.1,19.8,8.5,25.2,4.7,4.6,10.1,6,14.4,10.5-9.2-.3-12.5-2.9-19.2-9.4-3.4-11-5.7-14.7-3.7-26.2Z"/>
  <path class="st0" d="M477.2,458.9c21.4-1.5,30.2,5.4,48.8,17.8-14.8,1.4-20.3-10.9-32.7-15.8-5-2-10.1.2-16.1-2Z"/>
  <path class="st0" d="M851.8,382.7l1.1.3.5,1.1-15.3,24.6-.8-.2c-3.8-9.4,7.7-21,14.5-25.8Z"/>
  <path class="st0" d="M1169.1,458.8c4.7-.2,6.2-.3,10.7.6-23.1,4.2-13.2,4.7-31.3,14.2-4.9,2-10.4,3.1-15.5,4.2,8.1-4.9,28.6-17,36.1-19Z"/>
  <path class="st0" d="M749.7,526.9c4.8-13.8,7.6-24.7,10.5-38.8v1.1c.3,5.2-1.1,11-.1,14.1,2.1-.5,1.1,0,3-1.4-3,9.6-8.1,16.7-13.4,25Z"/>
  <path class="st0" d="M447.3,423.9c2.6,5.8,6.4,12.3,13,12.7v1.2c-11.1.6-13.9-2-17.5-13,2.3.3,2.3,0,4.5-.8Z"/>
  <path class="st0" d="M808.9,381.7c8.6,2.3,15.1,16,16.2,24.7-.4-.3-14.3-22-16.2-24.7Z"/>
  <path class="st5" d="M990.3,388c2.2.3,1.4-.3,2.6,1.3-3.1,2.3-4.4,2.3-8.2,3.3-1.2.7-.4.4-2.4.1l-.5-.8c2.3-2.7,5-2.9,8.5-3.9Z"/>
  <path class="st4" d="M776.6,956.1c21.3-.7,34.9-8.3,55.4-10.2,11.3-1,24.9,7.5,35.1,8.6,22.9,2.3,52.9,2.8,75.7-.2l-.4-1c5.5.2,10.6,2.5,14.4,6.7,7.3,8.1,8.6,20.8,8,31.4-.4,6.5-1.5,14-6.2,18.7-9.7,9.5-80.5-1.4-91.1,5.4-1.7,1.1-1.8,4.8-2,6.7-1,10.7-.2,22-.1,32.8l.4,54.6c.4,62,.5,124.1.2,186.1,41.6,1.8,86-1.2,127.8.5,10-.3,19.6-.2,29.7,0,10.6,6.7,11.8,22.8,13.9,35,1.8,7.4,7,25,4.3,31.5-4.9,3.4-55.8,1.5-64.4,1.1-.7-.6-1.3-1.2-2-1.8-1.2-4.1-2.2-10.1-7.4-10.3-6.3-.2-12.7,0-19.1,0l-46.1.2-155.3.2c-8.6,0-54.9-1.2-58.2,1.3-1.9,3-2,6.5-2.4,10.1-12.3.1-52.7,1.3-63.7-.1-4.7-6.1,6.2-58.2,11.6-65.9,5.5-3.5,144.3-1.3,162.5-1.8,1.1-14.4.4-37.6.4-52.6l-.3-105.1c0-35.3.9-83.4-.2-119.8-.3-2.1-3.5-3.9-5.2-4.2-22.1-3.7-71.4,4.8-90.4-3.2-6.5-9.9-7.5-28.2-4-39.4,2-8,3.3-9.8,8.5-15.8l1.6,1.3c15.5-4.2,50.6-.4,68.8-.8Z"/>
  <path class="st0" d="M993.8,1296.2c10-.3,19.6-.2,29.7,0,10.6,6.7,11.8,22.8,13.9,35-9.1-4.9-6.5-22.8-11.8-25.3-2.5,2.2-2.3,5.3-4.4,8.3-19.9,1.5-31,.3-50.7-.7-19.7-1-39.8-.6-59.6-2l-.4-.9c3.4-.3,4.7-.6,8-1.5l.8-.2c9.8,1.1,90.4-.3,98.5-2.9,2.8-.9,2.7-1.5,4-4.1-4.2-6-23.9-2.8-27.9-5.5Z"/>
  <path class="st6" d="M706.2,955.6l1.6,1.3c15.5-4.2,50.6-.4,68.8-.8-6.2,4.1-57.5.9-67.7,4.7-3.7,1.3-6,7.3-11.2,10.7,2-8,3.3-9.8,8.5-15.8Z"/>
  <path class="st5" d="M910.9,1311.4c-2.8,1.7-14.7.8-18.3,0,5.2-3.1,20.6-3.2,26.7-2.6l-.8.2c-3.3.9-4.6,1.2-8,1.5l.4.9Z"/>
  <path class="st0" d="M810.9,1058.2c4.7,5.4,4.5,226.2,0,233.8l-1.1-.9c-2.5-77.3-2.1-154.7,1.1-232v-.9Z"/>
  <path class="st0" d="M784.6,968.7c39.1,0,94.6-2.3,131.9,1.5-10.7,3.9-41.1,3.9-53.8,4-18.4.4-129.2,1.6-138.4-2.9,5.1-2.4,51.4-2.4,60.4-2.6Z"/>
  <path class="st5" d="M644.9,1308.2c17.2-1.3,46.7,0,65,.2,14.4.1,57.4-.4,69.8,2.3-1.1,1.2-17.6,2-20.2,2.2-36.5,1.1-73.7,2.8-110,1.6-8.6-.3-4.6,12.4-8.4,15.2-1.2-5.5.2-16.8,3.9-21.4Z"/>
  <path class="st0" d="M721.4,976.5l1.5,1.1c2.4,4.5.4,16.6-.2,21.9-4.3-3.8-2.1-17.5-1.2-22.9Z"/>
  <path class="st4" d="M1343.5,142.4c.3-22.1,6.6-96.5,22.5-113.9,5.4-6,33.4-4,42.8-3.8h9.7c7.8-.2,21-.7,28.4.2,14.9,1.9,14.5,25.8,20,38.1l4.5,1.7c7.4-.2,16.8,0,24.1,1.5,11,17.4,15.3,58.9,16.5,80.1,17.5-1.7,15.2-1.5,20.2,14.5,21.9.3,43.9.7,65.8,1.3,9.4.2,20.3-1.2,29.5.6,1.9.4,2.8,1,4.2,2.4,4.7,4.9,4.7,13.6,4.4,20.1-.2,4.2-.7,11.1-4.4,13.9-6.1,4.5-64,2.2-75.4,2.1-6.3,0-17.3-1.6-22.9.9-1.7.8-2.4,3-2.9,4.7-.8,2.5-1.8,7.2-3.6,9-8.5,5.1-12.8-1.5-14.3,9-.7,21.3-4.9,56.4-18.3,72.8-6.9,0-15.1.3-21.9-.5-3.9,3.2-3.6,3.6-5.8,8.3l-2,4.3c-6.3,32.6-17.9,27.7-44.7,27-7.7.6-51.2,2.6-54.8-2.4-15.2-21.1-15.9-57.2-19.9-82.7-1.1-7.2-3.1-22.4-2.8-28.7-.6-2.4-1.3-4.4-2.1-6.8,3-2,17.7-1.7,22.3-1.8,6-15,8.1-49.7-.2-64.7-2.1-3.9-19.7-2.8-25-3.3h-1.1c4.9-1.6,4.2-.5,7.2-3.9Z"/>
  <path class="st4" d="M1471.4,64.7c7.4-.2,16.8,0,24.1,1.5,11,17.4,15.3,58.9,16.5,80.1,17.5-1.7,15.2-1.5,20.2,14.5,21.9.3,43.9.7,65.8,1.3,9.4.2,20.3-1.2,29.5.6,1.9.4,2.8,1,4.2,2.4,4.7,4.9,4.7,13.6,4.4,20.1-.2,4.2-.7,11.1-4.4,13.9-6.1,4.5-64,2.2-75.4,2.1-6.3,0-17.3-1.6-22.9.9-1.7.8-2.4,3-2.9,4.7-.8,2.5-1.8,7.2-3.6,9-8.5,5.1-12.8-1.5-14.3,9-.7,21.3-4.9,56.4-18.3,72.8-6.9,0-15.1.3-21.9-.5,0-.2,3.6-22.4,3.8-23.6,9.9-64.7,11.5-145.3-4.8-208.9Z"/>
  <path class="st5" d="M1512.6,224.9h-.3c-1.5-1.6-.3-15.3-.1-18.9,1-19.8.9-38.8-.5-58.6l1.5-.6,2.1,1c6.5,10.4.4,53.8,2,65.9l1.5,1.1c3.3-.1,5.3-.6,8.2,1.2-8.5,5.1-12.8-1.5-14.3,9Z"/>
  <path class="st4" d="M1418.5,24.6c7.8,0,21-.6,28.4.3,14.9,1.9,14.5,25.8,20,38.1l4.5,1.7c16.4,63.6,14.7,144.2,4.8,208.9-.2,1.3-3.7,23.4-3.8,23.6-3.9,3.2-3.6,3.6-5.8,8.3l-2,4.3c-6.3,32.6-17.9,27.7-44.7,27,2.8-6.9,10.3-26,11.7-33.4,14-74.9,14.5-153.9,2.9-229.2-1.2-7.8-11.1-45.5-16.1-49.7Z"/>
  <path class="st2" d="M1464.7,309.8c-1-5.7,6.9-42.1,7.7-52.5,1.9-27.1,4.9-54,4.5-81.4-.6-26-2.4-52-5.5-77.9-.9-6.6-5.5-30.6-4.5-34.9l4.5,1.7c16.4,63.6,14.7,144.2,4.8,208.9-.2,1.3-3.7,23.4-3.8,23.6-3.9,3.2-3.6,3.6-5.8,8.3l-2,4.3Z"/>
  <path class="st2" d="M1408.8,24.7h9.7c5,4.1,14.9,41.8,16.1,49.6,11.6,75.3,11,154.3-2.9,229.2-1.4,7.3-8.9,26.5-11.7,33.4-3.3-.3-6.5-.6-9.8-.8l.3-1.7c14.8-14.4,19.4-57.4,21.5-78.8,6-56.8,5.1-114.1-2.8-170.6-3.5-24.5-5.1-40.7-20.5-60.3Z"/>
  <path class="st2" d="M1343.5,142.4c4.5-2.8,9.5-.9,14.8-1.2,4.4-.3,8.7.1,10.4,5.2,4.8,13.3,6.7,63.7-1.6,73.5-9.5,2-17.3,0-24.6,3.1,0,0-.1,0-.2,0-.6-2.4-1.3-4.4-2.1-6.8,3-2,17.7-1.7,22.3-1.8,6-15,8.1-49.7-.2-64.7-2.1-3.9-19.7-2.8-25-3.3h-1.1c4.9-1.6,4.2-.5,7.2-3.9Z"/>
  <path class="st5" d="M1379.4,38.4c14,16.9,20.4,95.8,21.1,120.3,1.2,46.5-.6,119.6-18.7,161.9-.3.5-1.2,1.6-1.6,2.1-.8-2.6,2.1-12.2,2.9-15.5,7.8-30.6,9.9-62.3,11.3-93.9,1.7-42.5-.1-85.1-5.3-127.3-1.1-8.6-2.6-17.1-4.5-25.5-1.2-5.5-5.3-17.9-5.2-22Z"/>
  <path class="st4" d="M232,23.1c14.5-.2,39.7-1.2,53.4.1,28.2-.1,31.6,95.9,34.2,119.1l-1.4-2.4-1.2.2c-6.1,1.1-18.2.3-22.1,2.5-9.6,14.9-6.9,61.8-.1,78.6,5.8,0,16.6-.2,21.9.9,1.5,4,0,5.3,2.4,8.9-1.8,23.6-7.2,93-25.3,105.8-15.4,1.6-70.1,2.6-84.8-.8-3.3-4.6-11.4-19.3-11.7-24.3-1.9-4.9-3.6-10.5-5.2-15.5-6.5,1.1-12.8,1.5-19.1,1.4-24.8-.4-18.7-71.6-26.2-81.1l-1.9-1.3c-1.5-13-2-26.1-1.4-39.2.3-7.6,1.7-20.6,1-27.6-1.8-1.7-4.8-1.8-7.6-2.4,3.5-.5,5.2-.3,9.2-1.2,2.8-2.8,2.1-2.7,3.5-7.1.2-4.5,1.9-16.7,2.6-21.4,2.9-18.1,2.7-37.3,14.7-51.7,5.9-.7,17.3-1.1,23-.3,4.1-2.1,4.7-5.3,6.2-9.7,2.2-12.8,4-23,14.6-30.4,6-1,14.9-.9,21.2-1.1Z"/>
  <path class="st4" d="M196.1,54.7c1.6,4.8-1.4,13.7-2.3,19.3-11.5,68.3-11.5,138-1.2,206.5,1,6.4,6.1,26.8,4.6,31.3-1.9-4.9-3.6-10.5-5.2-15.5-6.5,1.1-12.8,1.5-19.1,1.4-24.8-.4-18.7-71.6-26.2-81.1l-1.9-1.3c-1.5-13-2-26.1-1.4-39.2.3-7.6,1.7-20.6,1-27.6-1.8-1.7-4.8-1.8-7.6-2.4,3.5-.5,5.2-.3,9.2-1.2,2.8-2.8,2.1-2.7,3.5-7.1.2-4.5,1.9-16.7,2.6-21.4,2.9-18.1,2.7-37.3,14.7-51.7,5.9-.7,17.3-1.1,23-.3,4.1-2.1,4.7-5.3,6.2-9.7Z"/>
  <path class="st5" d="M196.1,54.7c1.6,4.8-1.4,13.7-2.3,19.3-11.5,68.3-11.5,138-1.2,206.5,1,6.4,6.1,26.8,4.6,31.3-1.9-4.9-3.6-10.5-5.2-15.5-6.5,1.1-12.8,1.5-19.1,1.4-24.8-.4-18.7-71.6-26.2-81.1l-1.9-1.3c-1.5-13-2-26.1-1.4-39.2.3-7.6,1.7-20.6,1-27.6-1.8-1.7-4.8-1.8-7.6-2.4,3.5-.5,5.2-.3,9.2-1.2,2.8-2.8,2.1-2.7,3.5-7.1,1.8,6.2.3,18.5,0,25.8-1,28.6-2.4,47.6,7,75.1l-1.5,2.4c1.8,8.4,2.9,16.6,4.1,25.2,1.1,7.2,5.1,14.6,8,21.4,5,4.5,12.1,3.2,16.3-1.8.9-3.9.9-2.9-.8-7.4-1.8-5,1.7.8,1-5.3l-1,.5-4.3-4.6c-.5-3.4,2-9.6,2.5-13.9.5-4.9-2.9-15-2.5-18.2,1.9-14.8.2-32.2-.1-47.2-.5-27.2.8-54.5,4.1-81.5.9-8,7.1-37.1,5.9-42.7l1.7-1c4.1-2.1,4.7-5.3,6.2-9.7Z"/>
  <path class="st5" d="M232,23.1c14.5-.2,39.7-1.2,53.4.1-3.7,2.7-26.4,2-32.2,2.2-22,16-26.9,110.9-27.4,138.8-.3,21.1.2,42.2,1.4,63.2,1.2,21.2,3.5,42.6,7.2,63.4,3.4,18.7,5.7,33,19.8,46-4.2.2-8.7,1-12.2-1-12.7-16.9-18.9-76.4-21-99.4-1-10.5-.8-23.9-3.7-33.8-2.8-9.5-.3-58.2-.5-71.4,0-5.9,1.9-9.2,2.9-14.7,1.3-6.7.8-14.4,1.8-21.4,1.9-12.7,8.9-40.7,13-52.4,1.8-5.1,6-10.7,5.3-16.3-2.2-2.2-4.7-1.2-9.2-2.1l1.2-1.4Z"/>
  <path class="st5" d="M282.1,38.5c.9,1.7-1.9,9-2.7,11.9-4.9,18.1-6.8,34.3-8.5,52.8-4.6,46.4-5.1,93.2-1.7,139.7,1.4,19.2,3.9,38.1,7,57.1.9,5.6,5.5,19.4,4.9,23.1h-.8c-5.4-12.6-7.1-20.4-10.3-33.8-12-51.6-14.6-207.8,12.2-250.8Z"/>
  <path class="st4" d="M526.2,1176.9c7.1-25.1-20.5-121.4-27.1-151.3-3.1-13.7-5.4-27.5-6.8-41.4-2.8-26.6-.1-48.2,5.2-74.1,3.8-18.6,5.4-30.2,2.6-48.6-1.2-7.6,3.4-33.5,7.5-40,11.8-18.6,49.9-39.3,69.7-45.2-13,18.2-21.2,43.4-18,66.2.2,1.7.5,3.4.9,5.2,1.3,5.2,2.8,10,3.1,15.3l1.1.2,2.9-5.1c1.9-.5,1-.4,2.7-.2,1.8,5.1,3.5,9.4,5.5,14.4,4.4,9.4,9,18.8,13.5,28.2,6.9,15.6,15.9,29,24.7,43.5.5.9.4,2.5.4,3.4-8-6.8-12.6-13.1-19.6-19.6,2.7,16.1,6.9,37.6,8.5,53.5,1.8,9.6,1.1,20.1.4,29.8-1.4,20.6-18.2,40.7-20.4,59.8-3.3,28.7-6.6,57.8-8.2,86.6-.4,8.2,3.3,17.7,3.3,26,2.6,8.5,2.9,9,9.4,15-7.9-.4-5.9,2.9-12.8,2.6-5.4-.2-8.9-1.5-14.3-.1l-2.2.2c-1.5,1.4-3.3,3.2-4.9,4.4-8.9,9-10.4,15.9-23.6,11.4-.3-.9-7.2-6.9-8.5-8.2-1.9-11.2-.8-18.4-.3-29.6l5.4-2Z"/>
  <path class="st0" d="M560.1,847.5c1.3,5.2,2.8,10,3.1,15.3l1.1.2,2.9-5.1c1.9-.5,1-.4,2.7-.2,1.8,5.1,3.5,9.4,5.5,14.4,4.4,9.4,9,18.8,13.5,28.2,6.9,15.6,15.9,29,24.7,43.5.5.9.4,2.5.4,3.4-8-6.8-12.6-13.1-19.6-19.6,2.7,16.1,6.9,37.6,8.5,53.5-8.5-10.3-11.5-26.7-13.9-39.5-.3-1.6-2.3-5.9-2.3-6.7-.1-4.1.5-4.6,0-8.9-4.1-3.7-9.3-6.8-13.9-9.8-4.4-2.9-6.7-5.6-12.1-3.7-2.4.9-3.2-.2-4.9-1.5-3.8-12.8-6.8-7.8-13.2-16.9-5.5-3.3-9.4-5.7-14.5-9.5,15.2,4.3,21.8,7.6,35.7,14.8,8.2,1.4,8.2,4.5,14.9,6.8l.8-1.4c-.6-4.9-.9-6.3-5.4-8.2l-.4-1.9c1,.4.6.2,1.6.7l.8.4c-.3-6.3-1.7-.5-3.2-3.7-1.9-4.2-2.4-9.9-5.7-13.1-7.7-.2-16-3.3-23.7-4.7-3.9-.7-7.5-.9-11.2-1.7l-.3-1.5c9.4-3,20.4,3.2,29.5,2.8,6.4-.3-5.1-17.8-1.5-26.4Z"/>
  <path class="st5" d="M528.1,884.5c15.2,4.3,21.8,7.6,35.7,14.8,6.5,4.3,13.2,10.1,20.2,13.8,1.5.8,2,3.3,1.9,5.3l-2,.8c-10.9-1.9-29.4-19.8-41.3-25.2-5.5-3.3-9.4-5.7-14.5-9.5Z"/>
  <path class="st2" d="M575.5,872.1c4.4,9.4,9,18.8,13.5,28.2-.4,3.4-.6,3.6-3.4,4.6-4.9-3.3-11.3-20.1-14.6-26.2l.7-.3,2.1,1.2c1.8-2.6,1.3-3.9,1.6-7.6Z"/>
  <path class="st0" d="M551.9,1197.5c9.7-11.6.9-37.3,2.5-53.5h.5s-.8,1.6-.8,1.6l1.3.3c2.7,12.4,5.3,32.3,7.2,45.2,3.8.8,6.6,1.7,10.4.9,3.3-2.6,2.2-2.2,3.4-7.9l1.5-.8c2.6,8.5,2.9,9,9.4,15-7.9-.4-5.9,2.9-12.8,2.6-5.4-.2-8.9-1.5-14.3-.1l-2.2.2c-1.5,1.4-3.3,3.2-4.9,4.4l-2.5-1.1-.6-1.8c1-1.8,1.6-2.8,1.9-4.9Z"/>
  <path class="st2" d="M558,1200.8h-2.8c0,0-.7-1.3-.7-1.3,1.1-4.5.2-3.5,3-6.2,3.7-.2,4.1,0,7.8.9l.9,1.4c-1.8,2.8-3.6,2.3-6,5l-2.2.2Z"/>
  <path class="st5" d="M526.2,1176.9c1.9,4.6-1.3,14.5-2.1,20.4,4.2,8.1,5,9.7,12.1,15.6,5.5-4.3,13-14.5,15.6-15.4-.3,2.1-.9,3.1-1.9,4.9l.6,1.8,2.5,1.1c-8.9,9-10.4,15.9-23.6,11.4-.3-.9-7.2-6.9-8.5-8.2-1.9-11.2-.8-18.4-.3-29.6l5.4-2Z"/>
  <path class="st5" d="M511.6,933.4l.6.9c-.3,6.7.6,21.3,1.4,28.3,3.8,34,9.4,53.2,34.7,74.9l-1.4,2c-32.8-8.4-46.9-77.4-35.3-106.1Z"/>
  <path class="st0" d="M520.4,1043.1l2.1,1.1c3.1,6.6,12.1,33.7,11.4,40.2-3.1-3-12.4-34.9-13.5-41.3Z"/>
  <path class="st4" d="M1091,778.5c4.4,1.6,31.1,11.5,32.8,13.9,15.9,12.5,36.3,24.1,37.5,47.3,1.6,28.6-2.2,49.9,6.2,78.3,3.3,11.2,5.6,50.6,3.4,61.1.1,9.8-5.2,34.9-7.6,44.9-6,25.5-12.1,51-18.4,76.4-5.6,22.8-14.6,51.6-10,74.7,1.5,1.2,3.4,2.9,5,3.8,3,10.6,4.3,19.5-.2,30.1-14.7,14.7-18.7,12.3-30.3-4.3-9-12.8-21.1,4.3-30.4-7.9l1.9-1.9c11.1-19.6,1.3-111.4-4-136-3.2-14.8-15.7-29.8-16.9-51-1.5-26.2,3.9-47.3,12.1-72.1,1.2-3.7,3.3-10.8,5.3-13.3l1.5-7.5c1.1-5,12.5-11.6,17.1-13.6l7.1-5.3c-4.5-1.7-6.7,0-11.6-2.6-2.6-3.1-2.4-4-3-8.3l.3-.7c5.7-12,9.1-20.5,12.6-33.4,3.8-18.7,1-39.8-6.6-57.2-1.8-4.1-6.6-10.4-7.5-13.7l3.6-1.8Z"/>
  <path class="st0" d="M1081,1195c2.3.3,9.8-1.4,11.4-2.1,15.1-6.6,8.9-35.7,17.4-51.8.3,6.2-2.8,20.8-3.6,27.7-1.1,9.5-.9,15-.5,24.6,7.3,5.1,14.3,16.3,19.2,17.6,4-.7,6.6-3.1,9-6.4,6.3-8.5,2-18.9,1.1-27.6l-.2-1.8c1.5,1.2,3.4,2.9,5,3.8,3,10.6,4.3,19.5-.2,30.1-14.7,14.7-18.7,12.3-30.3-4.3-9-12.8-21.1,4.3-30.4-7.9l1.9-1.9Z"/>
  <path class="st2" d="M1104.4,896.1c5,.2,5.6-.4,10.4-2.4,1.1.6,1.6.8,2.6,1.6-4.5,3.2-37.7,27-39.7,27.4l1.5-7.5c1.1-5,12.5-11.6,17.1-13.6l7.1-5.3h1.1Z"/>
  <path class="st5" d="M1104.4,896.1c12.1-7.4,15.6-7.9,29.7-10.9-2.8,1.8-14.7,9.5-16.7,10.1-1-.8-1.5-1-2.6-1.6-4.8,2.1-5.4,2.7-10.4,2.4Z"/>
  <path class="st5" d="M1142.8,996c3.7-16.8,7-33.2,6.7-50.5,0-3.7-.2-9.1.7-12.6h1.2c1.7,5.6,1.5,10.4,2.1,16.3,2,19,.5,34.5-6.9,52.2-1.3-.5-2.2-.8-3.5-1.3l-.3-4Z"/>
  <path class="st2" d="M1142.8,996l.3,4c1.3.5,2.2.9,3.5,1.3-5.5,16.5-16,39.4-35.7,37.1l-.4-1c21.3-11.4,22.6-19.2,32.3-41.4Z"/>
  <path class="st0" d="M1139.9,1041.6l1.4,2.1c-.4,13.4-9.3,31.1-13.8,43.8l-1.3-1.6c.4-3,3.1-9.9,4.3-13,4-10.2,6.1-21.1,9.4-31.3Z"/>
  <path class="st0" d="M1118.7,870.8c4.8,0,6.5-.1,11.1.7l.4,1c-5,2-10.1,2.1-15.5,2.5-3.6,1.1-7.6,3-11,1.8,3.2-4.2,10-4.9,15-5.9Z"/>
  <path class="st4" d="M491.2,1221.1c20.1-14.6,15.8-24.7,26.6-42.6,1.3-2.2,5.8-1.7,8.4-1.6l-5.4,2c-.6,11.2-1.6,18.5.3,29.6,1.3,1.3,8.1,7.2,8.5,8.2,13.2,4.5,14.6-2.5,23.6-11.4,1.5-1.2,3.4-3.1,4.9-4.4l2.2-.2c5.4-1.4,8.9,0,14.3.1,6.9.3,5-3,12.8-2.6,9.1,12.3,6.6,38.1,9.1,53.3,1.4,8.6,5.8,23.3,5.3,30.9-2.4,4.7-7.4,7.4-12.3,8.5-16.9,3.7-46.9,9.1-62.5-.8-5-3.2-13-9.2-17.7-11-17.6-6.3-29.4,0-44.1-15.6-4.1-12-3.9-19.1.5-31.1,8.7-7.8,14.6-8.3,25.5-11.3Z"/>
  <path class="st6" d="M491.2,1221.1c20.1-14.6,15.8-24.7,26.6-42.6,1.3-2.2,5.8-1.7,8.4-1.6l-5.4,2c-.6,11.2-1.6,18.5.3,29.6,1.3,1.3,8.1,7.2,8.5,8.2-14.3-.6-11.3-18.1-13.6-20.3-1.7,7.4-3.2,17.7-9.9,21.9-5.1,3.3-9.3,4.6-15,2.9Z"/>
  <path class="st4" d="M1140,1179c2.9,1,5.3,1.1,6.8,4.2,5.4,10.8,5.4,17.9,12.7,27.9,2.7,2.5,6.5,6,9.6,7.7,9.8,5.2,23.8,6.4,28.7,18.1,3.6,8.7,1.7,18.6-1.7,26.9-14.7,13.1-30.1,9.8-47,17.5-7.2,3.4-13,10.6-21,12.3-13.9,3-28.7,1-42.6-.8-7-.9-20.2-2.1-24.4-8.3-4.1-5.9,4.7-21.4,5.3-28.2,2-18.7,3-36.9,6.2-55.4l6.4-4c9.4,12.2,21.4-4.9,30.4,7.9,11.6,16.5,15.6,19,30.3,4.3,4.5-10.6,3.2-19.5.2-30.1Z"/>
  <path class="st6" d="M1140,1179c2.9,1,5.3,1.1,6.8,4.2,5.4,10.8,5.4,17.9,12.7,27.9l-4.4-.6c-13.2-9.7-4.1-4.4-7.9-11.9-4,.8,0,5-7.4,10.5,4.5-10.6,3.2-19.5.2-30.1Z"/>
  <path class="st4" d="M128.5,160.4c2.1-6.6,2.1-11.6,8.4-14.4,2.9.6,5.9.7,7.6,2.4.7,7-.7,20-1,27.6-.5,13.1,0,26.2,1.4,39.2l1.9,1.3c-12.6.4-15.7.7-17.2-14-27.9-3-68.8-.8-98.2-1.6-5.9-8.6-11.5-32.5,1.7-38.3,6.1-1.5,15.1-.2,21-.6,21-1.5,53.3,3.6,73-1.1l1.4-.4Z"/>
  <path class="st4" d="M803.1,124.1c24.8-9.9,53.5-6.7,74.9,9.8,5.5,8.6,20.1,15.8,15.4,29.7-9-.8-26.3.1-35.9,0-29.8-.4-61.2,1.3-90.8,0,7.1-17.9,11.3-23.7,28-33.8,2.6-1.6,6.6-3.6,8.4-5.8Z"/>
  <path class="st1" d="M591.2,166.4c10,1.5,27.5,1.3,38.1,1.3h62c0,.1,44.3.1,44.3.1,2.5,0,27,.2,29.6-1.2,0,0,1.8-9.5,2.6-11.3,2.2-4.4,4.3-7.5,7.2-11.4,2.3-3,5.7-6.6,8.6-8.9,4.7-3.9,13.6-10.2,19.4-10.9-1.8,2.2-5.8,4.2-8.4,5.8-16.6,10.1-20.9,15.9-28,33.8,29.6,1.3,61.1-.4,90.8,0,9.6.1,26.9-.8,35.9,0-12.8,2.8-34.3-.3-44.9,2.7,8.6,1.3,19.4-.9,26.5,1.7-8.5.5-18.3-.2-26.9-.2-74.3-.4-148.4,3-222.7,1.5-11.7-.2-23.4,0-35-1.3-5.6-7.1-8.8-8.7-9.3-17.5,3.3,7.6,4.9,9.4,10.1,15.8Z"/>
  <path class="st3" d="M878,133.9c7.3,2.1,24.2,22.9,15.7,31.7l.5,1.2c7.3,1.8,47.3,1.3,57.2,1.4l127.9.5c1.4-10.1,1-29.9,15.7-27.4,3.1.5,4.1,1.4,7.1.1,2-2.1,2.9-3.5,5.4-4.6-9.4,16.1-23-4.3-24.9,19.4-.6,4.6-1.2,9.7-2,14.2-54.9,0-109.8,0-164.6-.6-13.4-.1-27.2-1.3-40.8-1.7-7.2-2.6-17.9-.4-26.5-1.7,10.5-3,32.1.1,44.9-2.7,4.6-13.9-9.9-21.1-15.4-29.7Z"/>
</svg>