<?xml version="1.0" encoding="UTF-8"?>
<svg id="fixed_id_0"  xmlns="http://www.w3.org/2000/svg" version="1.1" xmlns:xlink="http://www.w3.org/1999/xlink" viewBox="0 0 1013.4 1442.6">
  <!-- Generator: Adobe Illustrator 29.3.1, SVG Export Plug-In . SVG Version: 2.1.0 Build 151)  -->
  <defs>
    
  </defs>
  <path fill="#97d807" d="M892.4,70.7c0-10.8,8.6-32.4,16.5-39.9,5.7-5.5,11.7-3.1,18.9-4.1l2.7.7,21.5-.2c5.2,3.6,12.3,14.3,13.2,14.8,1.7.9,11.3,1.6,15.8,3.3,19.5,26,18.5,67.7,14.1,98.5-.3,2.3-3.7,15.4-4.8,17.2-7.4,18.5-14.7,12.9-25.3,22.6-15.6,18.6-25.9,11.6-48.9,12.3-5.8.2-22.1-24.5-19.8-30.2-3-6.4-4.1-16.1-9.2-19.9-3.5.4-1.8-.2-4.7,3.2-1.2,2.2-4.6,8.4-4.7,10.7-1.9,51.3,28.7,98.3,28.2,149-.2,16.6.4,22.4-4.3,38.8-.3,8.6,1.7,27-2.4,34.3-3.5,6.2-34.2,19.6-41.4,20.6-23.5,3.2-45-.4-68.3,9.5-4.5,1.9-19.2.7-24.5,1.1-29.7,2.8-51.1-12-77.1-22.7-4.9-2-8.6,27.9-10.3,31.4-12.4,36-37,65.5-53.4,99.3-2.1,4.2-2.2,9.7-3.5,14.2,4.3,18.5,3.9,57.8-6.7,74.2-.2,11.5,3.9,16.5,8.5,26.9,2.3,5.2,1.9,17.2,3.7,20.7,17.6,33.1,22.1,64.8,29,101.7l21.2,119.4c1.7,9.3,5.9,23.6,6.8,33.5-.5.9-1,1.7-1.5,2.5-8.2,5.4-12.2,1.8-15.5,9.5-.3,25-5.6,33.3-11,55.9-1.6,6.7-.4,42.2.1,50.9,9.7,27.6,21.6,59.1,23.3,88.4,1.1,18.4-.5,37.9-2.5,56.3-2.5,22.7-19.1,106.2-10,122.2,3.3,5.9,10,9.9,12.7,16,5.3,11.6,4.1,24.1,11.6,35.5,7.5,11.3,19.6,20.4,28.2,31,3.3,4,9.1,11.8,6.8,17.3-.6,1.5-1.6,2.5-2.7,3.5l4.4,5.8c0,7.6-3,12.2-10.7,13.2-19.1,2.4-57.7,3.4-75-3.4l-.9-1.2c-5.3-5.8-6.5-11.7-9-19.1-5-2.1-10-6.3-16.4-7.4-3.9-.7-9.3-4.6-10.6-8.6-2.5-7.7,3.1-15.4,4.2-22.9,1-9.8-.8-20.9.9-30.6.5-2.9,4.3-11,5.8-13.8,4.7-8.5,3.8-16.6,3.8-26.3.3-32.2-6.1-64.1-18.9-93.7-5.3-12.5-18.8-33.8-20.5-46.8-2.5-18.8,1.3-44,3.9-62.9,0-3,2.5-14.3,1.9-16.3-5.7-19.1-15.8-36.2-21.4-55.7-6.9-21.9-9.9-44.7-16.7-66.6-4.1-13.2-17.9-4.4-21.1-16.6-2.5-9.2-2.3-19.8-4.1-29.3-3.2-17.6-6.3-35.2-9.8-52.7-.7-3.7-2.7-9.8-6.1-11.8l-1.7.6c-6.9,10.2-16.7,83.1-18.1,98.4-7,4-9,3.9-16.2,6.1-5.8,1.9-7.6,16.2-9.5,22.7-5.4,19-8.5,41.2-15.3,59.6-4.8,13-16.2,26.2-17.7,40.7-1.6,16.3,1.8,28.2,4.1,43.4,1.4,9.3,1.3,32.4-.2,41.2-3,17.5-14.6,34.8-21.3,51.7-11.8,28-17.9,54.6-16.7,85.1.7,17.7-1.4,18.8,7.7,35,3.7,6.6.7,30.2,1.7,39,1,9.1,7.9,15.7,3.6,24.1-4.1,9-15.4,9.1-24.3,12.7l-1,.4c-2.2,5.8-4.1,13.4-7.1,18.2-6.2,5-12.7,9-21.1,7.7-7,.7-55.1-1.8-63.9-5.6-2.1-.9-2.2-5.5-2.6-8.3l1.5-8.9c-4.2-12,17.8-30,25-37.9,4.1-4.6,7.7-9.5,10.7-14.8,10.2-17.8,3.4-34.2,19.4-45,3.5-6.1,2.2-31.4,2.3-40.4-.3-11.1-5.1-62-8.3-70.9.6-4.2-1.6-24-1.7-30.3-.1.8-1.6-26.4-1.7-27.3-1.8-26.2.3-36.8,10.4-60.4,9.1-25.8,17.5-62.7,14.2-90.7-1.2-10.2-8.5-24.6-10.2-36.3-1.8-4.9-3.1-9.7-2.6-15l-.8-6.8c-2.4-2.8-15-8.1-14.7-10.1,10.8-67.4,24.3-134.6,36.8-201.8,5.8-31.3,21.7-42.9,21-77.5,15.6-20.1,3.6-25.2,1.6-44.2-1.9-18.1,2.9-42.9-.1-61.3-4.5-16.7-17-34.2-26.4-48.6-17.8-27.1-27-53.5-36.1-84.1-.3-1.1-2.6-3.8-3.8-3.3-25.8,9.4-49.9,26.5-78.7,22.8-31-6.2-66.6-9.1-97.4-16-6.9-1.5-32.7-11.7-36.4-17.1-4-8.7.5-30.1-1-38-3.4-18.8-5.3-37.6-2.2-56.7,7-42.7,25.5-84.9,30.3-127.8,0-.6-7.9-12.8-8.8-14-2.2-3.3-1.6-3.7-4.5-4.5-4.3,2.8-7.1,19.7-8.5,25.8-.7-10.5.4-25.7,3.6-36,4.4-14.2,19.6-2.6,31.5-8,3.5-6.3-7.8-8-11.6-10.7-5.2-3.5-5.7-8.7-7.3-14.4,1.9-3.3,5.9-11.1,8.4-13,3-2.3,9.5-.8,13.8-2.7l3.3-4.3c5.2-2.7,7.3-2.1,13.1-.6l1.3.7c9.7-2.7,7-10,20.9-3.5,5.3.2,14-.3,18.1,1.3,5.1,6.6,3.4,18,14.6,21.3.5,1.8.9,25.3.6,27.7l-1.2.6c-11.3,28.8-25.8,23.8-40.2,42.6-2.6,37.6-11.2,66.3,3.4,102.9,3,7.5,7.8,30.8,8.8,38.6l3.7,5.7c3.1-1.5,10-6.4,13.5-8.4,26.6-15.3,35.7-11.6,62.9-8.3,3.1-2.2,6.2-5.9,9.2-8.4,7.3-6.2,16.5-11.2,25.5-14.3,38.1-13.1,50.1-15.4,86.5,1.5l5.9-3.8c4.2-8.9,38.6-19.3,46.1-26.1,14.8-13.6,6.2-33.9,2.3-49.9-.9-3.7,1.5-13.8-1.1-16.9-3.8-4.6-7.9-4.4-12.2-10-3.1-18.9-10-23.5,2.7-39.8,0-36.6-10.7-70.1,34.3-87.6,32.6-12.7,37.4-5.2,67.9,2.6,37.4,37.5,22.2,46,26.8,88.1,11,9.5,6.8,15.6,4.7,28-2.7,15.7-10.1,12-17.6,23,0,1.2-.3,11.5-.2,12.6,1,9.9-5.6,9.7-5.2,18.2.4,7,.3,14.7,2.7,21.4.7,1.9.9,2.2,1.4,4.4,9.1,14.9,23.5,12.5,33.8,19.5,29.1,19.8,21.7,17.2,53.2,5,15.4-6,55.8,7.6,70.8,16.4,6.1,2.8,18.7,14.6,21.7,14.6,12.8-.2,30.1-3.1,43.3.9,9.4,2.8,18.4,8.6,26.6,13.9,2.2,1.5,7,5.3,9,6.2l1.7-1.7c2.9-4.5.4-24.7,1.8-32.7,1.9-11.5,11.8-28.1,11.3-38.6-1.6-23.5,5.7-65.8-9.6-84.4-5.3-6.4-21.6-14.7-29.8-24.1-1.6-3.8-1.9-5.8-5.9-7.3-3.6,1.5-2.6,1.3-5.3,5.2-.8-3.2-1.2-3.7-.4-6.9,8.7-9.2,15.5-24,.8-31.1l-.5-2c6.1-.1,6.3,0,12.2-2.2,3.1-5.1,4.6-9,9.4-12.8,7.2-5.7,23.5-7.3,32.2-5.7,1.5.6,4.3,1.6,4.9,2.9,3.4.2,7.9-.8,10-.4,8.5,1.6,20.4,6.6,27.3,11.9,2.2,4.9,3.8,11.4,10.4,9.1,4.9-5.6,5.5-17.3,6.8-25.2Z"/>
  <path fill="#97d807" d="M892.4,70.7c0-10.8,8.6-32.4,16.5-39.9,5.7-5.5,11.7-3.1,18.9-4.1l2.7.7,21.5-.2c5.2,3.6,12.3,14.3,13.2,14.8,1.7.9,11.3,1.6,15.8,3.3,19.5,26,18.5,67.7,14.1,98.5-.3,2.3-3.7,15.4-4.8,17.2-7.4,18.5-14.7,12.9-25.3,22.6-15.6,18.6-25.9,11.6-48.9,12.3-5.8.2-22.1-24.5-19.8-30.2.7-3.3,0-9.6-1.2-11.9-3.2-6.5-.2-20.6-2.6-25.1-5.2-9.6-26-3.5-35.8-6.3l-.7-1.4.7-1.9c4-3.1,13.1-6.5,17.5-3.9,3-1.9,3.2-7.5,6.2-11.5,1.8-3.5,9.2-6.4,11.1-9,2.9-4,1.3-19.6.9-24Z"/>
  <path fill="#c7f24e" d="M964.9,183.5c-.4-.7-.7-1.5-1.1-2.2,2.8-7,8.3-30.4,9.4-36.3,4.8-25.7,4.2-52-1.8-77.4-1-4.2-6.2-20.9-6-23.5,3.5-1,1.8-1,5.4,0,1.4,5.6,4.8,12.4,5.8,17.5,3.3,17,3.8,35,4.2,52.2.2,7.9-4,28.7-2,34.6,2.4-1.5-1-5.9,3-9.8,2,8.3-4.8,16.5,2.3,22,2.8-.1,3.5-.4,6.2.4-7.4,18.5-14.7,12.9-25.3,22.6Z"/>
  <path fill="#c7f24e" d="M927.8,26.6l2.7.7c3.2.7,3.4.3,5.7,2.3-1.1,1.1-.9.4.8,2.8,4.6,6.7,7.2,14.3,9.6,22.1,6.9,23.3,9.4,47.6,7.3,71.8-.9,10.3-8.6,50.3-15.6,56.3l-1.4-1.1c0-1.6,0-2.6,1-3.8,4.7-5.5,7.2-20.8,8-28.3,3.5-33.2,5.3-91.2-15.4-118.2-2.6-1-2-.6-4.2-2.2l1.5-2.2Z"/>
  <path fill="#c7f24e" d="M909.4,90.2c18.5,1.2,12.1,25.6,6.5,36.4l-3.5,3.1h-1.9c0-.1-.6-1.5-.6-1.5,5-9.8,1.7-27.4-.4-38Z"/>
  <path fill="#b8eb40" d="M791.3,90.9c3.1-5.1,4.6-9,9.4-12.8,7.2-5.7,23.5-7.3,32.2-5.7,1.5.6,4.3,1.6,4.9,2.9,3.4.2,7.9-.8,10-.4,8.5,1.6,20.4,6.6,27.3,11.9,2.2,4.9,3.8,11.4,10.4,9.1,4.9-5.6,5.5-17.3,6.8-25.2.4,4.4,2,20-.9,24-1.9,2.6-9.2,5.5-11.1,9-3.1,3.9-3.2,9.6-6.2,11.5-4.4-2.6-13.5.8-17.5,3.9l-.7,1.9.7,1.4c9.7,2.8,30.6-3.4,35.8,6.3,2.4,4.4-.6,18.6,2.6,25.1,1.1,2.3,1.9,8.6,1.2,11.9-3-6.4-4.1-16.1-9.2-19.9-3.5.4-1.8-.2-4.7,3.2-1.6-2.6-1.6-13.6-2.6-19-6.7-1.3-21.7-2.8-28.4-1.6-1.2,4.3,1.9,4,1.9,9.4-.5.2-1.1.4-1.6.6-1.8-2.4-10.9-11.5-13.1-12.4-6.2-2.7-19.1-4.8-25.5-6-2.5-11.8-2.1-11.1,5.4-19.7,3.1-3.6,5.7-8.2,5.1-13.1-1.4-2.6-1.6-2.4-4.4-3.8-13,9.6-18.2,8.2-27.4,14.6-2.1,14.7-.8,23-1.3,37.3-1.6-3.8-1.9-5.8-5.9-7.3-3.6,1.5-2.6,1.3-5.3,5.2-.8-3.2-1.2-3.7-.4-6.9,8.7-9.2,15.5-24,.8-31.1l-.5-2c6.1-.1,6.3,0,12.2-2.2Z"/>
  <path fill="#96dc15" d="M832.9,72.4c1.5.6,4.3,1.6,4.9,2.9-1.9,2.6,1.8,8.9,2.3,13,.9,8,2.3,16.5.2,24.4-2.2,2.4-2.7,3.3-5.9,4.1-11-5.1-3.9-27.7-11.3-37.5-1.4-1.8-1-.3-1-2.8l2.2-1.8c3.9-.4,5.4-.3,8.7-2.5Z"/>
  <path fill="#96dc15" d="M846.1,78.2c3.4.9,9.5,2.6,11.6,5.4,4.4,5.9,3.2,27.4-2.1,32.4-2.7,1.5-4.5,2.1-7.3,1.3-5.1-6.2-.2-19.6-2.5-27.4-.9-3.1-1.1-6.5-1.3-9.7l1.7-1.9Z"/>
  <path fill="#b8eb40" d="M172,77.1c9.7-2.7,7-10,20.9-3.5,5.3.2,14-.3,18.1,1.3,5.1,6.6,3.4,18,14.6,21.3.5,1.8.9,25.3.6,27.7l-1.2.6-2-1.5c-.3-6.8-.6-17.8-1.5-24.5-2.6-1.8-28.2-15.4-29.5-15.5-13.5,15.5,15.1,19.5,8.9,33.9-1.8,4.3-14.2,5.6-18.6,6.6-11.2,2.5-15.7,8.7-21.7,17.5l-1.5-.2c-1.3-4.3,2.4-6.3,1.2-11.2-5-1.1-20.4-2.8-25-.1-4.2,5-3.4,11-6.5,15.2-2.2-3.3-1.6-3.7-4.5-4.5-4.3,2.8-7.1,19.7-8.5,25.8-.7-10.5.4-25.7,3.6-36,4.4-14.2,19.6-2.6,31.5-8,3.5-6.3-7.8-8-11.6-10.7-5.2-3.5-5.7-8.7-7.3-14.4,1.9-3.3,5.9-11.1,8.4-13,3-2.3,9.5-.8,13.8-2.7l3.3-4.3c5.2-2.7,7.3-2.1,13.1-.6l1.3.7Z"/>
  <path fill="#96dc15" d="M172,77.1c9.7-2.7,7-10,20.9-3.5-1.1,2.4-7.2,13.3-7.3,14-2,10,4.3,22.6-8,28.5-2,1-3.3-.2-4.8-1.2-5.5-8.7.2-26.5,1.7-36.1.1-.7-1.5-1.4-2.4-1.7Z"/>
  <path fill="#96dc15" d="M154.4,81.2l3.3-4.3c5.2-2.7,7.3-2.1,13.1-.6l-2.1.7c-1.9,9.7-2.6,16.7-1.9,26.6.3,4.8.8,10-2.3,14-6,1-11-6.4-11.2-11.9-.2-7.7.6-15.7,2.2-23.3l-1-1.3Z"/>
  <path fill="#b8eb40" d="M556.7,240.4c9.1,14.9,23.5,12.5,33.8,19.5,29.1,19.8,21.7,17.2,53.2,5,15.4-6,55.8,7.6,70.8,16.4-19.6-1.3-34.7-12.1-55.9-10.7-20.3,1.3-36,9-55.2,14-1.8.5-4.7-1.2-7.8,1.1l.9,1.4c3.6,1.1,2.1.8,5.1.8,6.5-.2,21.4,5,28.5,7.3-27.3,3.2-53.6,4-80.8,7.7-4.2.6-9.6,7.3-15.3,7.7-6.1.4-13.8,11.1-20.5,12.7-2.1-6.1.7-17.9-1.8-22.4,2.3-3.8,6.8-12.1,7.5-16.3-3.8-9.5,1.7-4.5,2-6.7,1.2-7.1-.4-11.4,4.9-17.2l1.4.5-1.9-.3c2.6,1.7,2.1.7,3,2.9h0c3.7-4.1.5-9.5,7-10.7,2.7,7-9.2,40.8-7.6,45.5,7.2-.1,19.4-9.1,27.7-7.4,6.4,1.3,7-4.7,12.7-6.2,5.5,1,5.4.8,10.9,0,8.7,5.2,21.1-2.4,21-10.5-4-5.4-27.3-21.6-33.6-16.8-1.4,2.9-.8,8.3-.7,11.7-3.2-.8-6.7-10.2-8.1-13.3-2.5-5.2-1.6-9.8-1.1-15.3Z"/>
  <path fill="#97d807" d="M578.7,293.2c3.5-.3,12-1.2,14.9,0l-.5,1.5c-1.9,1.1-2.6,1.3-4.7,2.1-4.8,1.3-12.7.7-17-1.6,2.3-1.8,3.9-1.5,7.2-2Z"/>
  <path fill="#b8eb40" d="M298.1,1403.8c18.4-19.3,25-5.1,45.4,1.4,13.6,4.3,22-14.5,30.7-12.3l1.4,2.4h1.3s.8-1.7.8-1.7l3.5,1.4c-2.2,5.8-4.1,13.4-7.1,18.2-6.2,5-12.7,9-21.1,7.7-7,.7-55.1-1.8-63.9-5.6-2.1-.9-2.2-5.5-2.6-8.3l1.5-8.9c2.7.7,7.4,4,9.9,5.5Z"/>
  <path fill="#97d807" d="M286.6,1407.1c15.7,8.5,15.2-10.5,35.7-7.1,1.1,2.1,1.1,2.2,2.7,4.1,1.2,4.7-1.9,7.1,1.5,8.9,9.9,5.1,24.4,4.1,34,4.8-2.4,1.1-4.9,2.2-7.4,3.3-7,.7-55.1-1.8-63.9-5.6-2.1-.9-2.2-5.5-2.6-8.3Z"/>
  <path fill="#96dc15" d="M322.4,1400c6.5,2.6,8.5,6,14,9.9,10,.6,24.8-2.3,31.7,1.6l-.7,2.9-6.9,3.3c-9.5-.7-24.1.4-34-4.8-3.4-1.8-.3-4.1-1.5-8.9-1.5-1.8-1.6-1.9-2.7-4.1Z"/>
  <path fill="#c7f24e" d="M572.3,938.3c11.9-1.5,23.8-1.6,35.7-3.4,19.6-3,37.3-7.6,56.2-13.5l1.8,2.2c-.3,25-5.6,33.3-11,55.9-1.6,6.7-.4,42.2.1,50.9l-2.2-4.3c-1.7-.8-2.9-1.4-4.6-2.3-3.8-5.5-6.1-36.9-7.3-46.2,2.8-1.5,3.7,3.9,8.7,4.1l.4-1.6c-2.4-2.3-1.9-1.3-3.1-4.2l2.7-.2c4.6-8.4,10.8-29.3,8.4-38.4-6.3-3.3-29.6,5.7-37.2,6.8-19.7,2.8-30.6-4.9-48.6-6Z"/>
  <path fill="#96dc15" d="M678.8,1409.5c.2-.2.4-.5.6-.7l1-1.2c11.1-13.6,21.5-9.5,32.3,1.5,4.1-.4,8.8-.6,12.9-.8l1.4-1.7c0,7.6-3,12.2-10.7,13.2-19.1,2.4-57.7,3.4-75-3.4l-.9-1.2,2.6-1.4c-.7-1.9-.5-1-.6-2.6,8.3-3.8,22.9,0,35.1-1.4h1.3Z"/>
  <path fill="#96dc15" d="M348.3,944.3c2,.3,2.6,0,3.4,1.4,5.9,11.9,8.4,29.7,12.4,42.2l1.3-.2c1.9-3.1,3.4-5.6,5.7-8.5,1.8,2.4-1.8,17.1-2.7,21.2-3,13.2-1.4,28.9-8,40.7l-.5-3.8c-2.4,2.8-5.4,28.7-15.5,34,9.1-25.8,17.5-62.7,14.2-90.7-1.2-10.2-8.5-24.6-10.2-36.3Z"/>
  <path fill="#b8eb40" d="M675.9,1405.7c4.9-5.4,10.7-10.2,18.2-11.6,8.7-1.6,17.9,11.1,25.4,7.1.7-.4,2.2-.7,3.1-.5l4.4,5.8-1.4,1.7c-4.1.3-8.9.4-12.9.8-10.8-10.9-21.2-15-32.3-1.5l-1,1.2c-.2.3-.4.5-.6.7h-1.3c-12.2,1.5-26.8-2.3-35.1,1.5,0,1.7,0,.8.6,2.6l-2.6,1.4c-5.3-5.8-6.5-11.7-9-19.1l3.4-.8c4.4,2.9.8,4.2,4.4,6.6l1.3-.9-1.2-3.9,1.1-1.9,1.2,1.8c8.4-2.3,12.5,5,20.7,7.3,4.5,1.3,9.2,1.4,13.7,1.5Z"/>
  <path fill="#c7f24e" d="M344.9,922.5l1.6-1.6c5.6.7,10.2,3.3,15.6,4.6,15,3.6,31.1,7.7,46.3,9.9,10.9,1.6,22.7,1.5,33.7,2.7-33.9,4.4-63.6.6-96.4-8.8l-.8-6.8Z"/>
  <path fill="#c7f24e" d="M345.6,1260.2l1.4.7c2.2,10.7-.2,27.6,1.3,32.7,11.3,6.8,29.6-11.8,32.4,20.6,4.8,3.6,7.1,5,10.7,10.1l-.3,1c-9.1-3.7-7.1-5-17.1-2.8l-1.2-.9c.3-5.4,3.3-13.6-.7-17.7-6.6-6.7-20.1-6.7-28.2-3.1l-.7-.3c3.5-6.1,2.2-31.4,2.3-40.4Z"/>
  <path fill="#96dc15" d="M613.9,609.3c-2.3-14,1.1-31.5,3.6-45.3,1.1-5.8.1-25.4,3.1-28.9,4.3,18.5,3.9,57.8-6.7,74.2Z"/>
  <path fill="#c7f24e" d="M200.8,314.3c-5.2,5-9.4,10-14.9,14.9-.5-3,9.5-14.8,11.2-20.6l3.7,5.7Z"/>
  <path fill="#b8eb40" d="M404.2,272.5c5.8,5,11.4,9.2,15.9,15.4-2.5-1.1-19.9-10.2-21.8-11.6l5.9-3.8Z"/>
  <path fill="#c7f24e" d="M816.8,315c4.7,1.8,10.3,8.7,11,13.9l-.9,1c-3.1-1.5-10.1-10.2-11.7-13.2l1.7-1.7Z"/>
  <path fill="#c7f24e" d="M568,436.5c45.4,1.2,62.6-23.7,82-60,4.4-8.3,12.4-17.2,17.2-25.6,6.6-11.1,7.3-20.9,20.4-27.8-1.6,4.6-7.9,10.9-8.7,13.7-2.4,8.7-4.4,14.7-7.9,23.1,5.1.2,30.8,2.3,33.7,4.9-10.3,4-24.5-.4-34.4-4.2-7,7.3-13.6,19-18.1,28.2-22.1,45.1-53.3,61.9-103.5,51.9-23.3-4-32.5-12-42.4-32.8-8.6,24.5-21.5,29.8-45.8,33.2-16,2.3-43.1,5.1-57-5.1-4.4-1.1-11.6-6.6-15.3-9.5-15.8-15.2-31.1-42.6-42.2-62,0-1.9.2-3.7.3-5.7l1.4-.6,4.3,2.1c10.8,17.9,26.2,45,40.5,58.5,6.4,5.1,9,7.2,16.1,11.1,22.8,11.9,75,8.3,90.1-15.2,7-10.8,3.1-56.3,6.7-60.4,2.5,3.8,2.4,9.9,3,14.2,3.8,29.4-3.4,57.4,34.1,64.1,8.2,1.5,16.8,3.3,25.4,3.8Z"/>
  <path fill="#c7f24e" d="M594.9,615.6c1.2.5,1,.7,2,1.8.2,9-5.5,9.9-6.4,16.6-1.9,1.8-1.7,1.5-3.2,3.7l1.2,1.3-1.6.9.4,1.4c6.9-1.3,13.6-2.7,20.6-3.1l.5,1.1c-5.1,2.8-24.1,7.5-30.4,9.3-54.9,15.3-87.2,13.5-141.6.1-5.9-1.3-21.1-5.2-25.9-8.2,11.1-.4,43.6,6.9,57.1,8.3,19.6,2,35.3,3.2,55.4,1.5,7.8-.6,15.2,1.5,22.8-2.2,5.1-2.6,20.6-.2,28.1-5.4,5.2-3.6,2.8-6.9,4.7-14.1l1.5,3.2c2.4-1,4.4-6.9,7.1-9.6,2.7-2.7,3.6-3.5,6.6-5.8l1.2-.9Z"/>
  <path fill="#c7f24e" d="M478.8,262.4c4.2,2.4,3.4,6.8,6.3,8.2l-.7-5.5.6-.5c.5.7,1.1,1.4,1.6,2.2,8.6,12.5,10.1,23.7,11,38.1.3,4.7,3.4,8.5,2.4,14.5-2.6,3.2-2.8,2.1-6.4.6-5.8-2.3-13.1-9.9-18.4-12.1-14.3-5.9-30.1-9.7-45.7-10.1-4.4-.1-4.8-1.7-9.6-.4-4.7-2.3-19.6,2.4-28.7.4-1.4-2-1.2-1.6-3.4-2.6l1.3-2.5c9-1.8,13.4-1.6,21.7-2.9l1.7-2.6c19.1,2.8,38.7,2.3,57.1,9.8,5.6,2.3,13.9,7.5,18.2,1.5,1.3-8.2-6.2-25.6-8.6-35.1l-.2-.9Z"/>
  <path fill="#b8eb40" d="M618,1157.6c-4-18.5-6.2-39-11.8-56.1l.5-.3c11.6,16.7,22.3,55.9,24.7,77.9.2,1.4-2.8,12-3.4,14.2.6,10.5.3,25.2-.2,35.6-2.2-3.9-3-39.4-4.6-47.7-1-5-4.6-19.6-5.1-23.6Z"/>
  <path fill="#c7f24e" d="M618,1157.6c.6,1.4,1,2.3,2,3.5.6-2.3-1.9-3.7-.3-7.5l1.9-.8c2.4,4.6-.6,7,2.1,8.4.7-3.3.5-4.3.4-7.5.3.5,3.6,36.2,3.9,39.7.6,10.5.3,25.2-.2,35.6-2.2-3.9-3-39.4-4.6-47.7-1-5-4.6-19.6-5.1-23.6Z"/>
  <path fill="#b8eb40" d="M401.1,1124c.6-3.4.8-3.5,2.2-6.5l1.5.7c-.8,6.6-4.5,37.3-8.1,44.2,0,.1-2.5,1.1-2.7,1.1-5.2,15.3-7.2,48.2-8.3,66-.3.4-.6.7-.9,1.1-2.3-8.8,1-63.1,3.6-71.5,2.9-15.4,2.7-22.9,7.9-38.8,1.8,1.3,2.1,1.6,4.3,1.6l.5,2.1Z"/>
  <path fill="#c7f24e" d="M396.2,1120.3c1.8,1.3,2.1,1.6,4.3,1.6l.5,2.1c-1.6,6.4-7.4,36.6-11,38.8-1.4-2-1-1.3-1.7-3.8,2.9-15.4,2.7-22.9,7.9-38.8Z"/>
  <path fill="#96dc15" d="M622.9,967.1l-.3-2.2,1.3-.2c4,7.8,3.7,20.1,1.4,28.5-2.7,9.7-9.3,7.1-10,14.1-2.5,1-5.1,1.1-7.8,1.5-5.9,2.6-9.5,3.8-16.1,3l-.2-1.2,2.9-1.1c1.3-3.6,21.2-28.2,24.1-29.9l4.7-12.5Z"/>
  <path fill="#96dc15" d="M594,1009.5c1.3-3.6,21.2-28.2,24.1-29.9-3.3,8.1-6.9,15.2-11.9,22.4,2.2,3.5.8,2.3,4.1,4.1l-2.9,2.8c-5.9,2.6-9.5,3.8-16.1,3l-.2-1.2,2.9-1.1Z"/>
  <path fill="#c7f24e" d="M594,1009.5c5.7-2.6,7.4-3.7,12.1-7.6,2.2,3.5.8,2.3,4.1,4.1l-2.9,2.8c-5.9,2.6-9.5,3.8-16.1,3l-.2-1.2,2.9-1.1Z"/>
  <path fill="#c7f24e" d="M622.9,967.1c1.4,14.4-2.1,28.5-12.5,38.9-3.3-1.8-1.9-.6-4.1-4.1,5.1-7.1,8.6-14.3,11.9-22.4l4.7-12.5Z"/>
  <path fill="#c7f24e" d="M703.6,342.5c6.9,0,11.6,4.3,19,6.6,35.1,10.7,49,7.9,82.8-.6l.4.7-4.3,4c-6.7,3.4-5.6,4.8-15.1,7.2-35.5,8.6-53,0-82.8-17.8Z"/>
  <path fill="#c7f24e" d="M248.7,376.7c6.8-.3,8.8,1.3,16.7-.1-4.3,4.2-26.2,18.6-31.6,16.8-4.3.6-15.5,2.3-17.7-1.7,2.7-9,15.7-7.7,21.8-13.9-.3.3,8.4,1.1,10.9.6l-.2-1.6Z"/>
  <path fill="#c7f24e" d="M275.4,360.6c-21.6,2.9-51.1,6.1-67.7-11.7,18.9,5.6,31.4,7.5,51,6.9,5.7.6,13.6-.8,17.8.2l.8,1.4-1.9,3.2Z"/>
  <path fill="#c7f24e" d="M322.1,320.4c19.8,14.3,16.9,20.6,29.9,40l-4.3-2.1-1.4.6c-.1,1.9-.3,3.7-.3,5.7-1.3-1.1-2.1-1.7-3.5-2.7-7.3,0-25.6,10-35,3,4.1-3.6,26.7-5.1,33.4-5.9-7.7-22.3-3.1-19.4-18.8-38.5Z"/>
  <path fill="#96dc15" d="M475.5,571.9c4.8-.6,8.5-3.6,13.4-.4l-.2,1.2c-2.3.9-7.7,3.3-9.9,3.6l-3.8.5-1.8.2,7.6,1.5-2.7.3-.2-1-.6,1c-7.5,0-25,.2-31.1-4.1v-1.2s3.2-.2,3.2-.2l.3-.9c-4.6-4.3-6.2-6.9-5.3-13.2l1.3-.5.9,1.8c9.2,8.6,16.1,10.9,28.9,11.3Z"/>
  <path fill="#c7f24e" d="M446.5,560.6c9.2,8.6,16.1,10.9,28.9,11.3-.3,1.3-.5,1.3-1.3,2.5-5.6,1-11.2.3-17,0l-2-1.1c-5-2.8-10.2-6-8.7-12.6Z"/>
  <path fill="#b8eb40" d="M152.9,176.6l.8-.4c.9,2.2,2.6,3.8,3,4.8,1.9,4.8,0,12.3-.8,17.3v-1.9c-1.4,5.9-3.4,13.5-5.8,18.9l-1.6.5c-5.2-6.8-2.8-28.9-.8-37.3,2.8-.1,3-.2,5.3-1.9Z"/>
  <path fill="#c7f24e" d="M649,1294c8.8-.2,12.9.5,21,3-7.4,1.7-17.5,1.8-23.9,4.5-15,6.3-5.4,15.2-7.7,20.5h-4.3c-5.9,1.1-11.7,4.6-17.1,7.4,3.4-5.1,8.5-10.9,14-13.8,3.4-13.3,4.4-17,18.1-21.6Z"/>
  <path fill="#b8eb40" d="M657.5,1081.3c9.2,12.4,9.6,71.6,4,85.5,2.7-13.2-4-65.9-4-85.5Z"/>
  <path fill="#c7f24e" d="M355.4,1074.7c.6,16-2.4,41.3-4,57.8.4,4.8.4,25.6-1,29.4-3.7-4.4-3.3-44.2-1.2-49.9.5-13.1,3-24.6,6.2-37.2Z"/>
  <path fill="#b8eb40" d="M351.4,1132.5c.4,4.8.4,25.6-1,29.4-3.7-4.4-3.3-44.2-1.2-49.9,1.1,6.7-1.9,16.8.6,23.1,1.4-1.4.9-.6,1.5-2.6Z"/>
  <path fill="#c7f24e" d="M389.5,966.3c4.2,6.5,5.7,23,13.1,31.6,5.1,5.9,15.3,10.9,17,14.5-27.3,0-30-24.5-30.1-46.1Z"/>
  <path fill="#c7f24e" d="M527.1,520.8c13.9-1.2,28,3.9,42.6,2l.6,1.1c-1.8,2.6-3.4,2.9-6.4,4.6-6,1.7-36.6-.8-41.9-5.3l.3-1.3,4.7-1.1Z"/>
  <path fill="#c7f24e" d="M472.8,520.9c7.1-1.1,11.5.2,18.5,1.6-13.5,4.7-15.9,4.9-30.7,6-5.8,0-13,.8-17.1-4.1,1.7-2.3,22.9-2.4,29.4-3.4Z"/>
  <path fill="#c7f24e" d="M520.3,467.8c14.8-2.9,41.2,5.1,47.2,19.8-3.1-.6-14.9-8.5-19.7-10.7-7.4-3.4-21.6-6.4-27.5-9.1Z"/>
  <path fill="#c7f24e" d="M442.4,582.1c1.3,1.2,14.2,48.2,15.3,53.1-9.1-9.3-18.7-40.2-15.3-53.1Z"/>
  <path fill="#c7f24e" d="M566.3,561.4c.7,1.3.2,4.2-.4,5.5-4.6,10.7-30.6,8.9-38,6.1-1.2-.3-.5,0-1.7-1.1,7.8-3.7,27.5,2.6,40.2-10.5Z"/>
  <path fill="#c7f24e" d="M478.5,467.5c6.2-.6,9.2-1,15,1.1-15.3,3.4-23.1,4.6-37.1,11.6-2.1,1-10.3,6.9-13.9,8.9,12.9-15.4,17.1-17.1,36-21.6Z"/>
  <path fill="#c7f24e" d="M568.9,586.2c8.3,9.7-7.3,39-13.1,48.2h-1c.1,2.3,13.2-44.4,14.1-48.2Z"/>
  <path fill="#c7f24e" d="M749.8,379c12.4-.6,34.5,6,44,13.5-13.7-.3-32.4-6.6-44-13.5Z"/>
  <path fill="#c7f24e" d="M842.1,277.1c.7,7.7-3.1,24.1-2.8,33.6.2,7.1,2.8,11.9,2.8,17.4l-1.3.4c-7.8-19.2-8.2-32.3,1.4-51.4Z"/>
  <path fill="#c7f24e" d="M171.1,280.9c1.9,1.5,2.2,2.3,2.9,4.6,4.8,14.3,5,28-1.4,41.6h-1c-.9-5.5,1.5-13.2,1.3-18.9-.3-9-1-18.3-1.8-27.3Z"/>
  <path fill="#c7f24e" d="M888.6,298.6c1.2,1.3,1.9,3.8,2.1,5.6,2.2,16.7-5.2,30.9-14.6,43.7h-.9c-.4-3.7,5.6-13.2,7.2-17.6,3.9-10.7,5.1-20.5,6.1-31.7Z"/>
  <path fill="#c7f24e" d="M308.6,340.6c-8.7,9.7-21.4,15.1-33.2,20l1.9-3.2-.8-1.4c-4.2-1-12.1.4-17.8-.2,28.9-4.6,24.6-4.6,49.9-15.2Z"/>
  <path fill="#c7f24e" d="M122.7,299.4c2.3,2.7,2.2,9.6,3,13.9,2.3,12.2,5.6,20.9,10.5,32.2-11.2-5.6-17-34.2-13.5-46.1Z"/>
  <path fill="#c7f24e" d="M407.6,528c8.7,2.1,20.6,20.8,21.5,29.7-3.2-2.1-20.3-25-21.5-29.7Z"/>
  <path fill="#c7f24e" d="M136.1,377.5c3.5-.1,28.5,1.2,31.1,2l.3,1.3c-10.5,3.6-23.2,6.3-31.4-3.2Z"/>
  <path fill="#c7f24e" d="M871.3,377.6c.8-.2,2.6-.1,3.5-.1v1c-6,5.4-13.3,6-21,4.9-3.2-1.1-3.8-1.3-6.7-2.8v-1.2c3.6-1.1,19.2-1.5,24.2-1.8Z"/>
  <path fill="#c7f24e" d="M603.2,528.3l.6.8c-.8,4.2-15.4,23.9-18.7,28.7l-.6-.3c-2-9,12.6-23.6,18.7-29.2Z"/>
  <path fill="#b8eb40" d="M162.7,185.8l1.4,1.5c1.6,8-2.1,31.3-3.3,40.7l-.8-.2c-1.4-14.8-.2-27.5,2.7-42Z"/>
  <path fill="#c7f24e" d="M633.8,445.7c.8.8.3.2,1.1,2.1-3.2,9.5-11.8,14.7-21.5,15l-.7-1.2c1.9-1.9,17.6-13,21.2-15.8Z"/>
  <path fill="#c7f24e" d="M378.7,446.2c3.6,1.4,20.1,13.7,21.5,17-13.2.3-17.9-5.4-21.5-17Z"/>
  <path fill="#c7f24e" d="M848.7,183.2c3.7,4.7,6,34.3,3.7,40.4l-.3.8c-2.5-9.9-5-31.1-3.4-41.2Z"/>
  <path fill="#c7f24e" d="M406.5,489.4c3.7,2,16.8,16.2,20.2,20.2,1.5,1.7.8,1.7.4,4.4-9-2.4-16.7-17-20.6-24.6Z"/>
  <path fill="#c7f24e" d="M411.4,1030.3l.7,1c-.5,2.3-12.9,24-15,28.2-3.5-7.5,8.5-24.4,14.3-29.2Z"/>
  <path fill="#b8eb40" d="M859.2,175.3c4,3.3,3.8,30.7,3.2,36.7-2.7-7.2-6.1-29.1-3.2-36.7Z"/>
  <path fill="#c7f24e" d="M406.9,402.2c7.9.4,10.9,3.8,11,11.5-5.3-.1-8.3.2-11.7-4.5-.8-3.8-.7-3.6.7-7.1Z"/>
  <path fill="#c7f24e" d="M600.6,1031.9c6.6,2.8,14.6,19.4,16.9,26.1-6.4-2.6-14.2-19.5-16.9-26.1Z"/>
  <path fill="#c7f24e" d="M603.5,491.4l1,1.2c-.5,5.7-13.5,17-17.9,20.6l-1.7-1c1.3-3.1,15.2-17.3,18.5-20.9Z"/>
  <path fill="#c7f24e" d="M407.1,1097.5c-1.4,6.6-2.7,13.3-3.9,20-1.4,3-1.5,3.1-2.2,6.5l-.5-2.1c-2.2,0-2.5-.3-4.3-1.6,2.9-8.4,6.5-15.1,10.9-22.8Z"/>
  <path fill="#c7f24e" d="M646.5,1041.8l.9,1.3c-.7,7.7-1.8,23.9-3.7,30.7-1.8-8.5-2.6-25,2.8-32Z"/>
  <path fill="#c7f24e" d="M379,468c3.2,1.8,13,14.7,15,17.9-10.6-3.5-13.6-6.1-15-17.9Z"/>
  <path fill="#c7f24e" d="M365.1,1040.8c5.9,5.1,5.2,22.1,5.4,29.9l-.7.7c-2.6-2.9-3.5-23.7-4.5-29.5l-.2-1.1Z"/>
  <path fill="#b8eb40" d="M415.9,464.1c6.4,2.3,14.1,14.7,15.7,21.1-5.8-2.8-12.2-15.1-15.7-21.1Z"/>
  <path fill="#c7f24e" d="M632.5,468.8l1.2,1.3c-.4,6.9-6.5,13.3-12.5,16.2l-.5-.6c-.2-1.8,9.7-13.9,11.8-16.8Z"/>
  <path fill="#b8eb40" d="M596,464.3l.7.4c.5,5.8-9.6,16.6-13.8,20.7l-.7-.6c.7-3.7,11.1-17.3,13.9-20.5Z"/>
  <path fill="#b8eb40" d="M419.2,621.1c.9.4,1.7,1,2.5,1.6,4.8,3.9,10,12.1,10.9,18.4-5.4-2.9-11.2-14.2-13.3-19.9Z"/>
  <path fill="#b8eb40" d="M458.7,258.2c5.1,4.1,0,15.9-2.6,20.7l-.9-.5c-.8-4.7,2.1-15.2,3.5-20.1Z"/>
  <path fill="#96dc15" d="M614.3,1367.3c7.6,1,14.5,7.7,18.4,14-3.6-.5-16.7-10.2-18.4-14Z"/>
  <path fill="#b8eb40" d="M476,343.3c9.3-.1,16.5,3.5,20.9,11.9-4.9-2-15.6-8.9-20.9-11.9Z"/>
  <path fill="#b8eb40" d="M528.9,344.1c2.8,0,2.8-.3,5.4.7-1.4,1.7-9.6,5.6-12.8,8.2-.4.4-1.8,1.6-2.3,2l-.5-1.1c3.4-5.6,4.5-6.7,10.3-9.8Z"/>
  <path fill="#96dc15" d="M393.7,1368.1l1.1.5.4,1.3c-1.7,2.9-10.6,8.5-14.1,11.1l-1-.3-.3-1.3c3.3-3.6,9.8-8.2,14-11.3Z"/>
  <path fill="#97d807" d="M708.2,195.2c1.4,1.1-26.5-27.3-25.3-25.3-12.2-20.5-10.1-52.1-10.1-75.5,0-13,2.3-33.3,11-43.7,7.1-7.2,16.1-14.3,22.7-22.5,4.3-5.4,13.9-4.8,20.5-4.6h11.3c8.5-.2,16.4.2,23.4,6.1,13.2,11.2,12.7,50.9,17.4,63.4l.5,2c14.7,7.1,7.9,22-.8,31.1-.8,3.2-.4,3.7.4,6.9,0,3-.4,3.2-.9,5.7-2.8,14.2-3.9,27-9.8,40.4-7,15.9-9.6,15.8-26.1,16.4-9.8.1-25,1.4-34.1-.4Z"/>
  <path fill="#97d807" d="M738.4,23.7c8.5-.3,16.4,0,23.4,6,13.2,11.2,12.7,50.9,17.4,63.4l.5,2c14.7,7.1,7.9,22-.8,31.1-.8,3.2-.4,3.7.4,6.9,0,3-.4,3.2-.9,5.7-2.8,14.2-3.9,27-9.8,40.4-7,15.9-9.6,15.8-26.1,16.4.4-1,.2-.5,1-1.7l.7-1-1.5-1c-2.7,0-2.7.2-5.3-.5-.5-3,6.2-16.3,7.8-22,12.3-42.5,12-79,.9-121.8-1.4-5.4-7-12.3-9.3-19.2,2.6-1,5.1-1.8,7.3-3.5l-5.8-1.2Z"/>
  <path fill="#c7f24e" d="M727.1,23.6h11.3c0,.1,5.8,1.3,5.8,1.3-2.2,1.7-4.7,2.5-7.3,3.5,2.3,6.9,7.9,13.8,9.3,19.2,11,42.8,11.4,79.3-.9,121.8-1.6,5.7-8.3,18.9-7.8,22,2.6.7,2.6.6,5.3.5l1.5,1-.7,1c-.9,1.2-.6.7-1,1.7-9.8.1-25,1.4-34.1-.4,4.9-1.3,11.2-1.3,16.4-1.8,4.3-.4,7.2-2,9.7-6.1,17.9-28.7,14.8-81.5,12.1-114.9-.8-9.6-7.9-32.2-12.2-41.2-.5-1-6.5-5.5-7.6-6.3l.4-1.3Z"/>
  <path fill="#c7f24e" d="M706.4,37.7c27,3.2,25.8,124.3,4.3,145.2-.9-.5-1.3-.8-2.2-1.5,19.9-38.7,17.3-105.4-2.1-143.7Z"/>
  <path fill="#c7f24e" d="M690.2,93.4l2.1,1.4c2.7,6.6,4.7,26.1-2.5,29.8-1.4-7.1-1.2-24.1.5-31.2Z"/>
  <path fill="#97d807" d="M225.7,96.1c3.5-1,5.7-1.3,8.2-3.9,1.9-4.4,2-15,2.7-20.3,7.1-55.3,19.2-46.1,65.3-46.7,12.5,7.4,8.8,14,21.3,19.7,6.4,3,9.7,15,11.1,21.6,6.7,31.5,7.9,71.3-4,101.5.3-.7-24.6,26.3-24.5,26.3-10.3,2.6-46.7,3.5-54.9-3.5-15.6-11.4-13-48.6-17.7-64.1-.8-2.6-4.2-2.4-6.8-2.8.3-2.5-.1-25.9-.6-27.7Z"/>
  <path fill="#c7f24e" d="M250.8,190.8c7.1,1.6,13.9,1.7,20.9-.2l1.3-1.4c-2.1-3.5-10.9-18.1-11.3-21.9-1.1-9.6-1.3-21.3-4-31-1.5-6.1.4-12.8.5-19,.5-29,2.1-59.8,15.5-86.1,1.4-2.7,5.3-6.2,8.5-4.6-17.6,29.5-18.7,58.8-17.5,92.5.8,23.3,1.2,58.1,18.9,75,6.8,0,15.5-.2,22.1.2-10.3,2.6-46.7,3.5-54.9-3.5Z"/>
  <path fill="#c7f24e" d="M304.6,37.9c0,2-4.3,10.6-5.2,13.5-11.1,34.8-11.6,75.1-3,110.5,2,8.4,6.3,14.2,9.6,21-24.9-4.8-22.6-105.7-14.1-127.1,3.5-8.8,4.5-13.1,12.8-17.9Z"/>
  <path fill="#c7f24e" d="M319.8,93.6l1.9,1c3.1,5.3,2.1,22.7,2,29.4-2.6.2-1.4.4-3.6-1.1-3.4-7.6-1.5-21-.2-29.2Z"/>
  <path fill="#97d807" d="M57.6,26.7c4.7-.2,9.8,0,14.5,0,17.8,0,41.1-3.2,41.7,21.9,5.4,5.3,6.8,28.7,6.9,36.5,0,2.4,0,4.8,0,7.2,5.1,4.6,4.9,5.2,11.6,4.7,1.5,5.6,2.1,10.8,7.3,14.4,3.8,2.6,15.1,4.3,11.6,10.7-11.9,5.4-27.2-6.2-31.5,8-3.2,10.3-4.3,25.5-3.6,36-.5,5.6-6.1,18.1-10.2,22.3-2,1.7-5.1,4.6-7.1,6.1-6.5,0-33.7.9-38-1.1-7.4-2.7-8.7-2.8-12.5-9.5-2.7-2.9-5-3.5-8.8-5.1-27.9-11.3-23.5-67.5-23.1-92.5.2-15.7,7.4-32.9,18.5-44,3.7-.2,7.9-.1,11.6-.1l.7-.6c-.7.6,8.9-12.8,10.6-14.8Z"/>
  <path fill="#97d807" d="M57.6,26.7c4.7-.2,9.8,0,14.5,0l3.4,1.3c1.3,4.4-6.9,17.3-8.8,22.7-12.1,34.6-11.6,76.1-.7,111,.3.8-1.8,4.4-2.4,5.1,4.2,9.8,9.3,19.1,17.4,26.3-4.1,0-17-.2-20.3.3-7.4-2.7-8.7-2.8-12.5-9.5-2.7-2.9-5-3.5-8.8-5.1-27.9-11.3-23.5-67.5-23.1-92.5.2-15.7,7.4-32.9,18.5-44,3.7-.2,7.9-.1,11.6-.1l.7-.6c-.7.6,8.9-12.8,10.6-14.8Z"/>
  <path fill="#97d807" d="M34.7,42.2c3.7-.2,7.9-.1,11.6-.1l-4.3,1.6c.5-1-9.3,27.4-9.2,26.5-2.3,16.5-5.8,37.3-3.5,54.2.2,1.3,2.4,3.4,3.3,4.2,1.3,6.3.9,13.7,1.9,20.2.9,6.4,7.8,21.4,7.2,26.8l-2.5,3.1c-27.9-11.3-23.5-67.5-23.1-92.5.2-15.7,7.4-32.9,18.5-44Z"/>
  <path fill="#c7f24e" d="M46.3,42.1l.7-.6c1.7,7.8-6.4,27.2-8.2,36.3-5.6,27.7-2.2,76,9.8,102,.4.8.7,1.6,1.1,2.5-.5.5-1,1.1-1.7,1.5-2.7-2.9-5-3.5-8.8-5.1l2.5-3.1c.5-5.4-6.3-20.4-7.2-26.8-.9-6.5-.6-13.9-1.9-20.2-.8-.9-3.1-2.9-3.3-4.2-2.3-16.8,1.2-37.6,3.5-54.2-.1.9,9.6-27.5,9.2-26.5l4.3-1.6Z"/>
  <path fill="#c7f24e" d="M72.1,26.7c17.8,0,41.1-3.2,41.7,21.9-5.7-6-7.1-17-16.9-17.6-6-.4-10.7.9-15.2,4.8-2.7,5.6-2.9,11.2-4.7,16.9-4.4,13.8-10.8,38.8-9.6,53.2,1.9,23.4-.7,61.7,15.1,79.6l-5.5-.8-.8,1.1c5.2,8.1,21.9,4.9,29.6,2.8-2,1.7-5.1,4.6-7.1,6.1-6.5,0-33.7.9-38-1.1,3.3-.5,16.3-.3,20.3-.3-8.1-7.2-13.2-16.5-17.4-26.3.5-.8,2.6-4.3,2.4-5.1-10.9-34.9-11.4-76.4.7-111,1.9-5.4,10.1-18.3,8.8-22.7l-3.4-1.3Z"/>
  <path fill="#c7f24e" d="M100.2,89.8l1.5.6c1.2,3-1.8,9-2.1,14.3-.6,9.8,2.5,16.9,2.7,26-10.6-6.1-7.6-31.7-2-40.9Z"/>
  <path fill="#eaf7a7" fill-opacity="0" d="M337.3,1189.3l-2.8-1.6c-3.6-5.7-3.9-23.9,1.2-28.7,0,6.3,2.3,26.1,1.7,30.3Z"/>
</svg>