<?xml version="1.0" encoding="UTF-8"?>
<svg id="_레이어_1" data-name="레이어_1" xmlns="http://www.w3.org/2000/svg" version="1.1" xmlns:xlink="http://www.w3.org/1999/xlink" viewBox="0 0 901.9 1631.1">
  <!-- Generator: Adobe Illustrator 29.3.1, SVG Export Plug-In . SVG Version: 2.1.0 Build 151)  -->
  <defs>
    <style>
      .st0 {
        fill: #c2fa66;
      }

      .st1 {
        fill: #7dc81b;
      }

      .st2 {
        fill: #79d307;
      }

      .st3 {
        fill: #b1f64b;
      }
    </style>
  </defs>
  <path class="st2" d="M70.2,276.6c6.6-14.7,45.2-19.5,53.6-33.5,15.6-26.1,14.8-58.2,4.2-86.1-19.7-52,1.1-110.3,59.3-117.5,50.4-6.3,93.7,20.4,97.8,75.4,1.1,14.4,5.7,23-3.9,35.8.7,9.9,1.7,19.5,1.8,29.5,0,9.3-5.3,10.7-6.6,15.9-3.4,13.6-4.6,44.4-14.5,53.9-6.3,6.1-16.6,5.5-24.8,4.9-4.2,1.8-5.9,20.1-3.1,23.7,7.7,2.8,15.8,5.8,22.5,10.5,6.2,4.1,7.7,6.1,15.2,5.1,13.6-8.2,49.3-5.8,64.1-.9,22.7,7.4,42,4.9,65.1,2.4,2.6-3.4,3.6-7.3,5.1-11.4,5.4-24,31-59.6,57.4-56.8,9,.9,18.3.4,27.5,1.2,16.1,2.5,26.1,9.6,34.2,24.3,2.5,4,11.5,20.5,13.8,22.6l3.5-5.3,2.6-4.6c12.9-19.6,21.9-30.1,46.9-28.8,15.3.8,30.7,0,44.7,8,5.9,3.4,10.4,11.5,16.5,13.7,20.2-16.4,32.9-11.2,57.4-10.4,13.3.4,24.9,10.1,32.5,20.4,3.1,4.3,7.2,12.6,10.8,14.4-2.1,1-1,.5-3,1.6,5,17.9,8.6,31,7.4,49.8-.6,8.9-2.2,17.7-4.8,26.2-1.9,6.1-9.1,19.8-8.4,22.6l-.7.7c-7.4,7.4-12.6,16.6-21.7,22.2-18.4,11.3-66.9,7.5-79.7-10.9l-3.2-4.6c-6.7,2.1-11.7,8.1-17.6,9.9-14.4,4.4-32.7-.8-46.7,1.4l-5.7,2.8c-17.5,12.2-49.1,22.4-69.7,17.5-20.9-5-18.5,1.9-37.3,4.9-7.3,1.2-21.4-4-30.6-1.1-17.4,5.6-29.5,13.6-48.2,15-20.5,1.6-33.1-8.1-52.7-9.8-9.4,10,.7,23.3-6.3,31.9-5,5.9-9.5,12.3-13.4,19.1-.3,24,1.9,48.7,1.5,72.7-.2,10.8-9.1,21.9-8.7,34.6.8,21.8,10.5,42.1,11.5,63.3.7,14.3-7.6,24.3-3.2,40.4l2.7,3.3c-2.9,4.6-4.6,5.4-9.6,7.8-8.7,2.5-15.3,4.5-24.4,5.2-19.2,6.6-81.6-6.9-104.5-10.4-16.6-2.5-33.2-5.1-49.7-7.9-9.7-1.6-24.5-3.6-33.5-6.8,1.6-2.4,2.2-4,3.4-6.6,1-6,4.5-15.9,6.5-22.1-5.6-21.6-5.5-43.5-15.4-63.3-8.2-16.5-15.8-33.7-24.7-49.8-9.5-17.1-19.5-33.3-24.8-52.5-3.7-26.1-19.1-45.3-22.2-71-1.3-10.7,3.9-32.5,2.3-39.7-10.2-44.7.2-74.8,41.2-94.6,4.5-2.7,6.9-3.8,10-8.1Z"/>
  <path class="st0" d="M406.1,284.1c5.4-24,31-59.6,57.4-56.8,9,.9,18.3.4,27.5,1.2,16.1,2.5,26.1,9.6,34.2,24.3,2.5,4,11.5,20.5,13.8,22.6l3.5-5.3,2.6-4.6c12.9-19.6,21.9-30.1,46.9-28.8,15.3.8,30.7,0,44.7,8,5.9,3.4,10.4,11.5,16.5,13.7,20.2-16.4,32.9-11.2,57.4-10.4,13.3.4,24.9,10.1,32.5,20.4,3.1,4.3,7.2,12.6,10.8,14.4-2.1,1-1,.5-3,1.6,5,17.9,8.6,31,7.4,49.8-.6,8.9-2.2,17.7-4.8,26.2-1.9,6.1-9.1,19.8-8.4,22.6l-.7.7c-7.4,7.4-12.6,16.6-21.7,22.2-18.4,11.3-66.9,7.5-79.7-10.9l-3.2-4.6c-6.7,2.1-11.7,8.1-17.6,9.9-14.4,4.4-32.7-.8-46.7,1.4l-5.7,2.8c-17.5,12.2-49.1,22.4-69.7,17.5-20.9-5-18.5,1.9-37.3,4.9-7.3,1.2-21.4-4-30.6-1.1-17.4,5.6-29.5,13.6-48.2,15-20.5,1.6-33.1-8.1-52.7-9.8-9.4,10,.7,23.3-6.3,31.9-2.6-12.8,5.2-53.1.5-61.8-4.4-.9-15.8,1.7-21.7,1.4-14.8-.7-30-2.8-44.8-2.6.5,7.4,4.2,16.3,4.4,20.5.8,24,1.6,42.1,27.6,50.6,4.7,1.6,11.5,3.1,15.9,6.5l.2,1.3c-12.6,5.1-41.4-12.5-43.4-26.8-.3-1.9-.9-2.9-1.7-4.6-2.2,5.3-5,12.2-9.3,16-28.9,25.4-88,19-111-11.8-4.9-3.8-15.9-22.1-18.5-28.7-13.1-4-21.3-5.1-34.6-10.9-8.8,5.3-15.1,10.8-24.6,15.9,6.9-8.3,11.8-11.4,20.6-17.5-11.6-3.2-15.3-3.5-27.5-3.5,6.1-2.8,13.5-5.7,19.7-8.3,15.1,4.8,28.9,12.1,44.3,15.3,26.3,5.5,41.2-1,65.4-9.2,4.7-1.6,18.9-2.4,24.9-3.7,7.7-1.6,15-3.6,22.9-4.4-8.3-3.3-14.8-7.1-23.5-10l-1.3-.4-.3-1.3c4.7-4.5,21.5,5.7,29,6.3,6.9.6,18.5-1.6,23.9-.6,42.8,7.4,78.3,3.5,115.6-21.2,6.7-4.4,18.2-12.5,26.3-14.9-2.7-12.6-11.1-49.1-3-59,2.6-3.4,3.6-7.3,5.1-11.4Z"/>
  <path class="st2" d="M545.1,265.4c12.9-19.6,21.9-30.1,46.9-28.8,15.3.8,30.7,0,44.7,8,5.9,3.4,10.4,11.5,16.5,13.7,20.2-16.4,32.9-11.2,57.4-10.4,13.3.4,24.9,10.1,32.5,20.4,3.1,4.3,7.2,12.6,10.8,14.4-2.1,1-1,.5-3,1.6,5,17.9,8.6,31,7.4,49.8-.6,8.9-2.2,17.7-4.8,26.2-1.9,6.1-9.1,19.8-8.4,22.6l-.7.7c-7.4,7.4-12.6,16.6-21.7,22.2-18.4,11.3-66.9,7.5-79.7-10.9l-3.2-4.6c-6.7,2.1-11.7,8.1-17.6,9.9-14.4,4.4-32.7-.8-46.7,1.4l-.3-1.8c-22.3-7.4-31.5-17.5-39-40,3.1-9.8,6.3-12.1,15.9-6.8,2,0,3.9,0,5.9,0,2.2-1.7,2.3-1.5,3.2-4-5.1-9-12.8,1.8-19.9-5.7-2.1-6.1,1.4-11.8,3.9-17.9,0,7.2-1.2,10.7-3.1,17.5,2.2-2.7,13.7-14.3,13.9-15.2,2.3-7.5-3-45.4-4.6-52.2-2.7-2-1.7-1.4-5.7-1.4-1.1-2.6-1-2.4-3.2-4.2l2.6-4.6Z"/>
  <path class="st2" d="M653.2,258.2c20.2-16.4,32.9-11.2,57.4-10.4,13.3.4,24.9,10.1,32.5,20.4,3.1,4.3,7.2,12.6,10.8,14.4-2.1,1-1,.5-3,1.6,5,17.9,8.6,31,7.4,49.8-.6,8.9-2.2,17.7-4.8,26.2-1.9,6.1-9.1,19.8-8.4,22.6l-.7.7c-7.4,7.4-12.6,16.6-21.7,22.2-18.4,11.3-66.9,7.5-79.7-10.9l-3.2-4.6-.8-.9c.4-1.8.1-1.7,1.2-2.9,23.6-27.6,29.8-63.8,21.9-99.2-1.5-6.8-10.6-23.2-10.9-28.4l2.2-.8Z"/>
  <path class="st0" d="M653.2,258.2c3.1.7,3,.4,4.7,3.6,18.9,34.8,17.5,79-1.6,113.4-3.6,6.5-11.6,13-13.3,19.8l-3.2-4.6-.8-.9c.4-1.8.1-1.7,1.2-2.9,23.6-27.6,29.8-63.8,21.9-99.2-1.5-6.8-10.6-23.2-10.9-28.4l2.2-.8Z"/>
  <path class="st3" d="M700.6,256.2c5.8,1.5,13.3,9.9,16.7,14.9,26.7,39.3,18.5,97.6-17.3,127.1-2.2.7-1.3.9-2.9,0,33.1-29.4,38.2-89.3,16.1-126.7-3.1-5.2-8.6-10.5-12.4-15.2Z"/>
  <path class="st3" d="M545.1,265.4c18.4-.8,33.9,10.6,39.4,28.7,18.2,13.9,13.6,25.9,3.9,43.7-10.4,19.1-12.7,28.9-36.4,15.4,2,0,3.9,0,5.9,0,2.2-1.7,2.3-1.5,3.2-4-5.1-9-12.8,1.8-19.9-5.7-2.1-6.1,1.4-11.8,3.9-17.9,0,7.2-1.2,10.7-3.1,17.5,2.2-2.7,13.7-14.3,13.9-15.2,2.3-7.5-3-45.4-4.6-52.2-2.7-2-1.7-1.4-5.7-1.4-1.1-2.6-1-2.4-3.2-4.2l2.6-4.6Z"/>
  <path class="st2" d="M568.2,284.6c-.7-.3-.2-.1-1.6.5,2.8,13.7,15.2,46.6-5.3,49l-.5-.8c3.7-16.1-10-49.3-4.9-57.2,4.3-.5,7,5,12.2,5.1,1.6,0,2.4.1,3.9.3l2.4,3.3c1.8,1.4,8.7,21.1,10,24.8,2.8,7.8,3.9,20.7-5.8,23.8-2.4-1.5-1.9-.5-2.4-2.6,2.9-6.9,4.2-5.5,1.3-11.1-5.1-10-5.2-24-9.3-35.1Z"/>
  <path class="st3" d="M609.5,246.6c5.4,1.8,12.3,9.9,15.6,14.7,22.8,33,17.2,100.1-14.8,124.6l-2.7,1c0,.9,12.8-19.4,14.1-22.1,7.4-15.4,11.2-32.4,11.3-49.5.1-24.5-6.9-50.2-23.9-68l.5-.7Z"/>
  <path class="st2" d="M406.1,284.1c5.4-24,31-59.6,57.4-56.8,9,.9,18.3.4,27.5,1.2,16.1,2.5,26.1,9.6,34.2,24.3,2.5,4,11.5,20.5,13.8,22.6l3.5-5.3c2.2,1.8,2.1,1.6,3.2,4.2,4,0,3-.6,5.7,1.4,1.6,6.8,6.9,44.8,4.6,52.2-.3.9-11.7,12.4-13.9,15.2,1.9-6.8,3.1-10.3,3.1-17.5,1.8-9.3.6-37.5-3.9-47.4-.8-1.7-2.4-1.6-4.6-2.3-.2.5-.3,1.1-.5,1.6,5.7,33.5,4.3,70.3-17.5,97.7-17.5,22.1-37.6,18-61.9,17.7-10.7-.1-19-3.8-27.2-11-18.1-16.4-24-42.5-25.1-66.4-.4-6.8,3.1-27.5,1.5-31.3Z"/>
  <path class="st1" d="M491,228.5c16.1,2.5,26.1,9.6,34.2,24.3-5.8-.9-11.5-9.2-17.4-11.6.5.2-7.7.3-7.6.3-2.8-1.7-2.1-.5-2.9-3.2l1.8-3.4-.7-1.4c-4.2-1.5-5.1-1.4-7.4-5Z"/>
  <path class="st3" d="M480.1,236.3c11.7,3.2,23.2,23.4,27,35.1,8.2,25,7.5,57-3.5,81-5.7,12.5-17.5,28.9-30.4,33.6,1.9-1.9,3.8-3.9,5.8-5.8,20.5-17.9,22.2-49.6,25.3-75.1.7-5.5-5.3-40.4-7.7-43.1l-1.7,1.4c-2.9-3.2-.7-6.7-1.5-8.5-2.8-6.5-9-12.6-12.5-17.4l-.9-1.2Z"/>
  <path class="st2" d="M331.1,399.2c11.4-3.9,20.6-6.9,31.3-12.5,13.8-7.3,30.4-19.8,44.1-25.6,7.8,11.6,11,19.7,22.9,29.7,15.4,13.1,43.9,10.6,62.9,9.8,15.2-.7,30.6-17.5,39.3-29.9,8.5,14.5,20.3,31.5,38.2,33.9-17.5,12.2-49.1,22.4-69.7,17.5-20.9-5-18.5,1.9-37.3,4.9-7.3,1.2-21.4-4-30.6-1.1-17.4,5.6-29.5,13.6-48.2,15-20.5,1.6-33.1-8.1-52.7-9.8.5-5.1-.1-25.9-.2-31.9Z"/>
  <path class="st3" d="M350.9,401.3c14.4-.8,34.7,4.3,50,3.9,7.3-.2,23.2-4.6,28.1-3.6l-1.2,1.1c-3,1.8-5.1,2.9-8.4,4-22.6,7.5-47.2,5.6-68.5-5.4Z"/>
  <path class="st3" d="M337.5,411.7c8.6,1.1,17.1,3.4,24.9,7.3-9.3-.9-16.9-2.2-24.9-7.3Z"/>
  <path class="st3" d="M530.1,361.2l1.6-1.3c3.1,1.7,1.7.5,3.8,4.1,0,5,.6,4.4-3.8,6.6l-4.9,2-1.3-.9c.1-3.1,3.1-7.6,4.7-10.6Z"/>
  <path class="st2" d="M156.2,454.7c-5.8-4.8-20.7-18.2-16.6-26.5,7-.7,18.2-.2,22.7-3.8,15.8-12.7,37.2-12.9,55.8-16.6,13.2-2.6,22.1-7.3,36.7-8.3,2.2,10.9,7.7,40.4-1.1,48.9-1.4-1.1-.8-.4-1.2-3-3.5,5.2.9,4.9-2.6,10.6l-.9-.4-.4-2.5c-2,1.3-10.9,11.9-11,13.8-3.9,2.7-13.6,4.4-18.4,4.9-22.2,2.1-45.4-2.2-63-17Z"/>
  <path class="st2" d="M70.2,276.6c6.6-14.7,45.2-19.5,53.6-33.5,15.6-26.1,14.8-58.2,4.2-86.1-19.7-52,1.1-110.3,59.3-117.5,50.4-6.3,93.7,20.4,97.8,75.4,1.1,14.4,5.7,23-3.9,35.8.7,9.9,1.7,19.5,1.8,29.5,0,9.3-5.3,10.7-6.6,15.9-3.4,13.6-4.6,44.4-14.5,53.9-6.3,6.1-16.6,5.5-24.8,4.9-4.2,1.8-5.9,20.1-3.1,23.7,7.7,2.8,15.8,5.8,22.5,10.5,6.2,4.1,7.7,6.1,15.2,5.1h1.8c-.7,1.3-25.8,11.9-29.7,13.7-3,.1-5.5.6-8.2-.7-8.7-16.4-20.5-1.9-34.7-14.1v3.3c-6.2,1.9-22.3,1.7-29,1.2h-1.2c-2.9.4-3.4.1-6.2-.4-2.7-5.1-9.8-9.6-14.3-13.1-37.4-29.2-58,.2-80.2-7.4Z"/>
  <path class="st3" d="M200.1,295.5c-3-10.1-10.1-21.5-14.2-31.3-2.3-5.5-4-11.9-5.7-17.6l.7,2c2.9,1.6,18.1,40.4,24,44.7,6.1,4.5,17.4,4.7,24.1,5.4.2-12.1.4-24.3.4-36.4-3.6,8.4-6.8,15.5-10.8,23.7,1.3-8.3,9.3-29.1,7-34.8,3.8-.3,13.5,1.1,17.3,2.1-2.3,1.4-2.9,1.1-5.8,1.5-4.2,1.8-5.9,20.1-3.1,23.7,7.7,2.8,15.8,5.8,22.5,10.5,6.2,4.1,7.7,6.1,15.2,5.1h1.8c-.7,1.3-25.8,11.9-29.7,13.7-3,.1-5.5.6-8.2-.7-8.7-16.4-20.5-1.9-34.7-14.1v3.3c-6.2,1.9-22.3,1.7-29,1.2h-1.2c6.7-1.6,21.8-1.7,29.3-2Z"/>
  <path class="st2" d="M234.2,278.4c7.7,2.8,15.8,5.8,22.5,10.5l.5,3c-3.7,4.8-21.2,11.1-26.3,6.5,2-5.4,5-14.3,3.3-20Z"/>
  <path class="st3" d="M140.8,222.9c2.7,2.8,4.8,20.1,5.4,24.9.9,7.9.9,11.5-3.1,18.4l-4.1,1.7c-.9-2,2.2-8.3,2.3-12,.3-11.4-1.3-21.4-.5-33Z"/>
  <path class="st3" d="M165.4,198.8c4.6,3.3,5.6,16.9,10.3,21.5,7.3,7.2,16,10.9,23.4,18.1-4.8-.8-18.8-9.5-22.5-13.3-7.8-7.8-10.8-15.3-11.2-26.4Z"/>
  <path class="st3" d="M126.1,652.8c26.8,17.8,54.2,16.3,71.4,44.2,31.6,6.1,77.6,13.7,110.4-.6.8-.3,1.7-4,2-5.1,2,.2,1,0,3,1.8l2.7,3.3c-2.9,4.6-4.6,5.4-9.6,7.8-8.7,2.5-15.3,4.5-24.4,5.2-19.2,6.6-81.6-6.9-104.5-10.4-16.6-2.5-33.2-5.1-49.7-7.9-9.7-1.6-24.5-3.6-33.5-6.8,1.6-2.4,2.2-4,3.4-6.6l1.6.7c.8,1.5.8,2.9,2.4,3.2,22.7,3.2,45.5,6.1,68.3,7.8,4.3.3,9,3.5,12.9,1.2l-.2-1.6c-5.6-2-7.7-8-11.1-9.4-20.3-8.1-30.4-8-45.1-26.8Z"/>
  <path class="st0" d="M70.2,276.6c22.2,7.5,42.7-21.8,80.2,7.4,4.5,3.5,11.5,8,14.3,13.1,2.8.5,3.3.8,6.2.3h1.2c6.7.6,22.8.8,28.9-1.1v-3.3c14.3,12.2,26-2.3,34.7,14.1,2.7,1.3,5.1.8,8.2.7-5.2,2.4-14.1,7.1-19.5,7,2.5-1.9,4.7-3.2,6.2-5.9-7.6-6.9-47.1-5.9-57.3-5.2-10.5-1-8.2,9.8-22.4-1,2.1-.4,2.2-.6,4.1-1.6l1.2-.2v-1.4c-12.4-20.7-44-23.8-65.1-21,4.9,2.6,9.7,5.7,14.4,8.6-10.8-1.5-23.2-4.4-33.9-3-4.6.6-7.6,2.2-11.4.5,4.5-2.7,6.9-3.8,10-8.1Z"/>
  <path class="st3" d="M173.4,303.7c-.3.2-1.2,1.4-1.5,1.7,1.8,1,1.5.3,2.2,1.7-2.5.4-2.5.3-4.7,1.3l-.6,1.9,1.7,2.1c-13.6,4.4-23-.4-41.7,9.2-29.7,15.2-28.2,37.5-62,42.8l-.2-.7c3.5-1.8,11.9-6.3,14.9-8.6,18-13.6,30.4-36.8,54.6-40.9,5.2-.9,13.8-.4,17.4-5.1-.5-3.6-1.2-3.3-4.1-6.7l.9-1.1,5-.4c-1.9,1-2,1.2-4.1,1.6,14.2,10.7,11.9,0,22.4,1Z"/>
  <path class="st3" d="M269.4,519.8c11.5,12.7,2,36.4,1,50.2-1,14.2,9.9,33.6-4.7,46.2-1.2-1.6,1.2-20.8,1-25.1-.3-6.9-.2-9.9-1.8-16.8-.6-.6-1.3-1.2-1.9-1.9-3.7-3.7-3.8-4,0-8.5,8.2-9.8,6.6-30.5,6.4-44.1Z"/>
  <path class="st0" d="M109.8,470.3c.5-8.3,1.8-14.7,3.3-22.9l.8-.4c2.4,7.5,4.1,38.4,0,44.3-.7,4.5-3.7,19.2-5.3,22.8-2.2,2.3-2.7,4.5-5.4,5.7-1.5-2.1-1.3-5.7-1.5-8.6,2.5-13.8,5.8-27.2,8.2-41.1Z"/>
  <path class="st3" d="M109.8,470.3c.5-8.3,1.8-14.7,3.3-22.9l.8-.4c2.4,7.5,4.1,38.4,0,44.3-1.1-4.4,3-23.8-.6-29.3-2.1,1.6-2.5,5.1-3.5,8.2Z"/>
  <path class="st3" d="M184,336.7c.8,0,1.6,0,2.4-.1,5.8-.2,14.7-.3,19.2,4-6.4,2.3-11.9-.8-20.6,1.7-18.1,5.2-20.3,19.3-31.9,29.6-8.6,5.3-11,4.9-20.7,5.2,2.2-1.1,9.5-4.7,11-6,17.5-16.2,14.6-26.6,40.7-34.4Z"/>
  <path class="st0" d="M212,661.2c-4-13.8-7.7-26.7-14.3-39.5-3.2-6.2-6.9-9.8-9.8-16.3l.5-1.3c1,0,1.8.2,2.6.9,13.9,11.8,20,23.4,23.1,40.7,1.4,4.5,4.1,26.4,3.5,30.8-2-2.4-5.3-12.2-5.6-15.3Z"/>
  <path class="st3" d="M214.1,645.8c1.4,4.5,4.1,26.4,3.5,30.8-2-2.4-5.3-12.2-5.6-15.3l1.6.4c1.4-3.1.3-11,.5-15.8Z"/>
  <path class="st3" d="M309.2,301.3h1c0,.1.5,1.1.5,1.1-7.7,3.9-10.6,4.9-18.3,9.6-17.6,10.7-32.5,27.3-53.3,28.5-1.7-.7-.9-.1-2.3-1.8,2.1-2.1,10.8-3.3,16.1-6.7,20.2-12.8,32-26.9,56.3-30.7Z"/>
  <path class="st3" d="M299.8,619.1c-.1,3.8,1.5,9.5,2.2,13.5,2.5,13.8,2.2,27.8-.2,41.6-.7,4.2-3.4,17.1-6,19.5.5-21.2,9-43.3-3.1-65.9,2.4-2.8,4.8-5.9,7.2-8.8Z"/>
  <path class="st0" d="M249.9,505.2c2.3-.2,1.4-.2,3.7.7.1,3.1-5.1,4.7-8,6.3-11.8,6.5-24.1,13.3-33.3,23.5-.2.3-1.3,1.2-1.6,1.4l-.4-1.2c6.2-18.4,22-26.9,39.6-30.7Z"/>
  <path class="st3" d="M387.8,329.8c2-.3,1-.4,3.1.2-5.2,6.3-56.5,18.7-66.4,21.3l-2.2-.6c3.7-4.5,56.6-18.7,65.5-20.9Z"/>
  <path class="st3" d="M142.9,538.1c4.8,2.2,16.2,15.7,21.8,20.2,9.6,7.9,13.5,9.6,25,14.6-16.8,1.8-41.2-18.8-46.7-34.8Z"/>
  <path class="st3" d="M341.1,308.3l1.5.9c-5.2,2.8-41.2,7.1-53.1,12.2l-.6.2-1.1-.7c6.3-9.1,42.5-12.3,53.3-12.6Z"/>
  <path class="st3" d="M112.2,509.7c6.1.6,32.2,6.8,35.3,11.6-16.9,2.4-22.8.2-35.3-11.6Z"/>
  <path class="st3" d="M101.7,511.4c.2,2.9,0,6.4,1.5,8.6,2.7-1.3,3.2-3.4,5.4-5.7-1.3,5.7-9.2,25.8-11.7,33.2.2-14.4,1.3-22.1,4.7-36Z"/>
  <path class="st3" d="M126.8,489.7c6.8.5,21.8,3.3,29,4.6,1.5.3,1.3.8,2,2.6-12.2,3-21.3.2-31-7.2Z"/>
  <path class="st3" d="M249.4,567.3c.6,0,2.6,0,3.3,0l.5,1c-3.6,3-25.2,6.4-31.3,7.5l-2.3.3-.2-.9c5.4-4.9,22.6-7.5,30-7.9Z"/>
  <path class="st3" d="M278.8,507c10.5-.7,23.3,10.1,22.1,21-3.8-8.1-14.9-14.6-22.3-19.2l.2-1.9Z"/>
  <path class="st3" d="M147.8,505.3c1.2.5,29.9,27,30.8,28.3-13.3-4.7-24.5-15.3-30.8-28.3Z"/>
  <path class="st3" d="M268.4,630.8c4.5-.7,7.4,1.2,7.3,5.9-8.2,2.6-3,2.3-2.7,5.7l-2.6,1.4c-2.4-1.4-3.4-2.2-5.6-3.9,0-2.5,0-2.4-.7-4.8l-3.5-1.5c1.9-1.7,5.1-2.2,7.7-2.8Z"/>
  <path class="st3" d="M265,477.8c8.9,6.1,7.8,14.1,4.8,23.2l-1.1,1.4c-.8-1.5-1.9-18.1-3.6-24.5Z"/>
  <path class="st3" d="M299.1,364.2l.4.5-.7,1.3c-7.7,3.9-15.1,5.9-23.4,7.8l-1-.9.8-1.3c8-4.1,15.1-5.8,23.9-7.3Z"/>
  <path class="st3" d="M222.8,620.6c8.1,1,22.9,0,29.3,3.9-6.9,1.1-24.4,1.7-29.3-3.9Z"/>
  <path class="st3" d="M157.7,483.4c5.2,1.4,15.3,11.7,19.9,16-7.1-1-16.7-9.5-19.9-16Z"/>
  <path class="st3" d="M151.7,384.2c6.6,1,20.6,3.5,25.5,8.1-11.5-.2-15.2-2.8-25.5-8.1Z"/>
  <path class="st3" d="M116.9,532.3c2.4.6,4.7,1.4,6.9,2.6,4.8,2.5,8.3,5,10.1,10.3-5.7-2-13-8.3-17-12.8Z"/>
  <path class="st3" d="M279.9,572.2c7.5-1.3,8.2-1.2,15.1,1.9l.3,1.2c-2.8.6-4.4-.2-7.1-1-3.4.2-3.9.3-7.4-.5l-.9-1.7Z"/>
  <path class="st3" d="M197.1,581.8c2.8,2.2,3.4,12.2,4,16.4-4.7-1.5-3.9-12.1-4-16.4Z"/>
  <path class="st2" d="M93.9,684.3c9.1,3.1,23.9,5.2,33.5,6.8,16.6,2.8,33.1,5.4,49.7,7.9,22.8,3.5,85.2,17,104.5,10.4,9-.7,15.7-2.7,24.4-5.2,4.9-2.4,6.7-3.2,9.6-7.8,5.5,6.3,4.4,19.9,7.3,26.9,4.1,10.2,10.5,19.1,13.9,30.1,5.5,17.7,7.4,35.2,10.9,53.3,4.4,22.8,10.8,45.8,14.2,68.8,4.5,30.3,6.6,61.6,9.4,92.1,1.3,14.3,5.2,36,5,49.5-8,6.9-9.9,6.9-20,9.9-2.9,6.2-10.3,21.4-11,27.3-1.6,13.4,4.7,27.4,3.3,41.7-2,21.1-11,40.6-14.9,60.7-1.2,6.1,1.5,26.1,2,33.4.8,13,.8,26,0,39.1-3.5,57.8-20.8,116.3-14,174.2.1,1.2,2.3,4.1,3.3,4.2,18,1.6,13.1,12.6,21.3,24.1,16.6,22.9,43.8,42.5,69,52.9,11.1,4.6,35.7,7.7,37.6,20.2,6.1,38.5-83.7,32.5-103.3,24.2-13.9-5.9-16.2-6.1-29.6-9.1-25.1-1.7-55.2,4.8-79-4.8-17-6.9-6.7-26.4-4.7-39.9,1.9-12.9,3-43.1,14.5-51.5,2.3-1.4,4.8-3.5,5.1-6.5,3.8-32.4-3-85.9-9.5-117.6-4.1-19.8-18.9-36.2-20.4-61.6-1.9-31.4,3.5-44.9,10.6-73.4,3.9-18.6,5.1-28.5,14-45.3-4.7-16.1-17.2-49-20-62.6-1.1-4.8-1.9-8.4-4.9-12.2-6.6,1.3-11.5-1-16.6,3.6l-.3.7c-7,14.5-8.6,29-15.4,43.4-3.5,7.5-10.7,13.5-14.2,19.9l-3,5.2c-5.3,29.6-19.9,46.3-29.9,73-4.2,11.3-.1,34.1-.9,46.4,0,9.8-.4,17.6-2.2,27-11,57.2-40.2,111.4-28.4,171.7,1.5,7.7,9.5,15.4,10.8,20.8,7.6,30.7,19.2,52,42.3,73.5,12.9,12,33.4,24.6,29.3,45.4-.5,3.5-2.9,7.6-6.2,9.1-25.3,11.1-74,9.8-100.8,4.6-10.8-2.1-19.8-16.4-27.6-21.4-11.9-7.7-24.1-5.5-32-18.2-1.8-11.4,2.6-22.3,4-33.9,1.6-13.1,1.7-37.2,7.3-48.8,3.7-7.8,8.9-7.2,12-15.1-.2-2,1.1-9.6,1.3-12.1.8-8.7,2-16.5,1-25.2-3.7-33.2-8.1-66.3-13.1-99.4-2.6-19.6-7.4-39.2-8.4-59-1.8-37.4,15.6-74.7,30.4-108,13-29.2,17.9-44.9,15.7-77.7-.7-10.3-1.2-29.3,2.7-39l3.7-9.5-5,4.1c-6.9,5.8-18.1,10.9-25.2,2.8-3.7-12.7,7.4-80.1,8.1-98,1.1-29,5.9-46.6-.6-76.8-2.7-12.9-2.6-48.8-1.5-62,2.5-28.7,9.7-60.2,23.1-85.6,2.5-4.8,3.8-18.4,7.8-21.8Z"/>
  <path class="st3" d="M236.5,1164.5c0,16.8,2.4,12.3-2.4,29.4l.4-.8c-5.8,22-7.2,29.5-2.6,52,1.7,8.5,1.8,12.3,5.9,20.9,2.4,5,10.1,17.4,11.4,22,3,10.4,6.4,45.9,10.6,53.9-.9,2.4-.4,1.2-1.5,3.4,1.5,8.2,2.8,15.3,3.9,24.6,1.5,12.9-3.5,58.3,5.4,66,5.7,4.9,24.6,0,32.6-1.9,2.3-.6,4.7-1.3,6.9-2.2-9.3,7.5-21.1,18.1-33.7,17.3-9.8-.6-19.5-16.7-22.7-25.4,2.3-1.4,4.8-3.5,5.1-6.5,3.8-32.4-3-85.9-9.5-117.6-4.1-19.8-18.9-36.2-20.4-61.6-1.9-31.4,3.5-44.9,10.6-73.4Z"/>
  <path class="st0" d="M246,939.8l1.3.9c0,2.9-.3,3.8,1,6.4v-3.7c1.7,4.3.7,6.1.9,10.5-5,27.7-8.6,54.5-12.2,82.3-1.1,8.1-5.2,15.6-5.3,20.1l-1.2.4c-1.1-4.8-1.9-8.4-4.9-12.2-.1-1.2,0,.2.5-2.3,7.7-33.4,10.1-69.3,19.9-102.4Z"/>
  <path class="st0" d="M97.8,1014.3c1.7,6,2.3,10.6,3.3,16.7,18.1,5,49.1,13.5,67.6,14,2.8.8,4.7,1,6.4,3.4-3.5,3.3-13.3,1.1-17.8,1.8-19.1-1.1-43.9-4.9-61.1-13-1.5-4.3-2.5-8.9-3.6-13.3,2.1,2.1,1.9,3.5,5.1,5,1.1-1.6,0-9.7.2-13.5v-1.1Z"/>
  <path class="st3" d="M246,939.8c2.2-11.9,14.1-46.6,21.1-55.9l.8.6c-7.7,14.4-13.3,52.4-18.7,69.4-.2-4.4.8-6.2-.8-10.5v3.7c-1.5-2.6-1.2-3.5-1.1-6.4l-1.3-.9Z"/>
  <path class="st0" d="M53.7,1451.3c3.5,6.2-3.4,24.5,4.6,27,.9.3,6.5,0,7.9-.2-1.6,4-8,6.8-12.2,6.4-7-4.9-3.1-13.5-6.7-20.5h-.9c0-.1-2.8,3.6-2.8,3.6h-1.1c0,.1-.7-1.3-.7-1.3,3.7-7.8,8.9-7.2,12-15.1Z"/>
  <path class="st0" d="M92.5,1023.9l-1.1-2c-3.1.2-.6,2.6-4.4,4.2-8.3-3.4,4.7-22.3,8.2-26.8,1.3,5.9,2.1,9,2.6,15v1.1c-.2,3.9.8,11.9-.2,13.5-3.2-1.5-3-2.9-5.1-5Z"/>
  <path class="st3" d="M168.7,1045c11.8.7,27.4,1.6,39,1,1.2,1.5.9.8,1.2,2l-.3.7c-5.9-.1-8,1.1-12.4,1.6-6.9.8-33.3,2.2-39.1,0,4.5-.7,14.4,1.5,17.8-1.8-1.7-2.4-3.5-2.5-6.4-3.4Z"/>
  <path class="st3" d="M169.4,1083.3c7.8,12.1,4,15.5,9.7,28.7l-3,5.2c-1.8-2.7-6-29.2-6.7-33.9Z"/>
  <path class="st3" d="M282.4,1187.3c13.9,20.8,12.8,36.6,12.4,60.5l-1.1,4.7c-1.9.8-1.3.6-3.5,1l-.4,2.2c-2.9,7.7-12.1,24.9-18.6,29.5.2-1.9,7.5-15.7,8.9-19.3,11.8-31.8,9.6-47.7,2.3-78.6Z"/>
  <path class="st0" d="M246.2,1030.4c19.8-3.3,51,4.8,72.4,1,3.3-.6,19.6-1,21.8.6l-1.6,1c-25.4,8.3-67,7.4-92.5-2.5Z"/>
  <path class="st3" d="M81,1202.3c1,1.7,1.4,4.3.9,6.2-7.8,29.7-7.6,63.4-13.2,92.8-9.5-13.6,6.5-81.2,12.3-99Z"/>
  <path class="st3" d="M133.1,1233.5c3.8,11-10.8,71.1-15.3,84.5.1-19.6,9.4-65.8,15.3-84.5Z"/>
  <path class="st3" d="M150.1,1059.5c1,.3.4,0,1.6,1.2-4.5,7-23.5,17.3-30.8,21.1-.6,7.7-1,18.5-2.9,25.7h-.7c-1.4-3.2.3-24,.6-29.3,9.8-4.6,18.7-12.5,32.2-18.6Z"/>
  <path class="st3" d="M115.1,1136.3l1.6,1.4c3,11,8,30.9,7,42.4-6.3-10.2-11.1-31.9-8.6-43.7Z"/>
  <path class="st3" d="M331.6,1071.1l.5,1c-2.6,14.9-17,25-30.7,27.5l-.7-.9c1.1-2.5,10.1-6.1,14.4-10,6.6-6,10.7-10.8,16.4-17.6Z"/>
  <path class="st3" d="M96.2,1446.5c7.5-.4,11.2,1.2,18.1,3.8-9.2.4-23.4,1.6-31.1,6.9-2,2.3-3.9,5.4-6.3,5.7.3-7.3,13.5-14.3,19.3-16.4Z"/>
  <path class="st3" d="M289.8,1255.7l.4-2.2c2.2-.3,1.6-.1,3.5-1l1.1-4.7c0,17.1-1.8,34.2-5.4,50.9l-.6.4c-.5-9.4,4.4-38.4,1.1-43.4Z"/>
  <path class="st3" d="M119.4,715.9c13-.7,38.4,5.6,50.2,10.8-7.6.4-41.9-8.1-50.2-10.8Z"/>
  <path class="st3" d="M276.6,1390.8c.9,4.1,1.7,27.1.2,31.1-4.2-5-1.7-24.7-.2-31.1Z"/>
  <path class="st3" d="M309.8,1121.2c0,8.5,3.6,14,2.1,25-4.6-7-4-17.1-2.1-25Z"/>
  <path class="st3" d="M80.5,1565.1c4.7,1.4,10.5,5,14.9,7.4l-.4,1.4c-1,.2-1.9.4-3,.7-5.6-2-8.3-4.4-11.5-9.5Z"/>
  <path class="st2" d="M765.5,269.6c15.7-16.3,33-12.9,52.9-11.8,13.1.7,23.5,2.7,33.1,12.9,42.5,42.3,26.1,151.8-44.6,147.6-19-1.1-36.8-2.9-50.5-18.4-1.9-2.2-6-7.3-7-9.8l-4.3-7.1c-.7-2.8,6.5-16.5,8.4-22.6,2.6-8.5,4.2-17.3,4.8-26.2,1.2-18.9-2.4-31.9-7.4-49.8,2-1.2,1-.6,3-1.6,4.2-5.4,6.5-8.7,11.7-13.2Z"/>
  <path class="st3" d="M765.5,269.6c-.1,5.3-5.8,8.4-7.7,15.4,2.9.8,5,1.3,7.7,2.6,18.9,11.2,22.2,16.8,34.8,34.2,7.5,5.9,6.2,22.7.3,29.4-6.3,3.7-9.8,5.7-14.7,11.1-15.7,5.5-13.6,1-28.9,10.7-2.9,5.8-6.6,11-7.6,17.1l-4.3-7.1c-.7-2.8,6.5-16.5,8.4-22.6,2.6-8.5,4.2-17.3,4.8-26.2,1.2-18.9-2.4-31.9-7.4-49.8,2-1.2,1-.6,3-1.6,4.2-5.4,6.5-8.7,11.7-13.2Z"/>
  <path class="st0" d="M800.5,351.1c-.6-.6-1.9-1.4-2.7-1.9-.9-1.9-.3-7.4.1-9.1,2.2-8.2-2.8-14.1-3-21.3,1.8,1,3.5,2,5.2,2.9,7.5,5.9,6.2,22.7.3,29.4Z"/>
  <path class="st0" d="M757.7,285c2.9.8,5,1.3,7.7,2.6,3.7,5.9,7.8,5.7,9.5,10.2-2.1,2.4-.8,1.4-4.2,2.6-3.4-1.2-6-5.6-9.6-8.7l-1.2.5h0s-.5.8-.5.8v-1.4c1.6-1.9.9-.8,1.8-3.2l-2.9-1.1-.5-2.3Z"/>
  <path class="st2" d="M765.6,301.8c3.5,1.1,4.7,2.8,5.3,6.6,2,11.1,4,25.5,1.8,36.6-.6,3.1-7.2,13.4-9,16.3-1,1.5-.3.8-2.2,1.7,1-6.8,3.4-15.4,3.7-22.1.6-13-1.2-26.1.4-39.1Z"/>
  <path class="st3" d="M818.3,267.7c8.6,3.7,12,11.1,17.5,14.4,2-1.7,1.9-1.8,4.3-2.8l1.3,1.5c1,7.4,4.2,13.5,4.8,18.7,4.7,38.1,4.2,77.1-26.5,103.7-2.7,2.1-3.9,3.3-7.2,4.1,2.9-2.9,5.8-5.8,8.6-8.7,7.7-7.9,8-12.2,12.6-21.4,16.8-33.8,11.8-81.5-15.4-109.5Z"/>
</svg>