<?xml version="1.0" encoding="UTF-8"?>
<svg id="fixed_id_0"  xmlns="http://www.w3.org/2000/svg" version="1.1" xmlns:xlink="http://www.w3.org/1999/xlink" viewBox="0 0 1182.5 1452">
  <!-- Generator: Adobe Illustrator 29.3.1, SVG Export Plug-In . SVG Version: 2.1.0 Build 151)  -->
  <defs>
    
  </defs>
  <path fill="#99d70d" d="M858.6,34c4.6-6.3,7.6-12.2,16.3-13.3,22.1-2.8,51.7,3.8,71.3,14.1,2.4,1.2,8,9,9.7,11.3,17.5,3,31.7,1.4,41.8,14.7l26.2,3.2c3.3-7.5,7.6-18.3,15.6-20.6,22-6.3,39.7,4.2,34.7,28-6.6,31.7-13,59.9-20.1,91.2-2.5,11.5-5.2,25.1-8.8,36.1,26.8,3.6,50,11.3,70.3,30.2,46.3,43.2,38.2,110.4,38.4,169,.3,56.6.3,113.3,0,169.9l-1.2,483.5-.2,138.2c-.1,24.3-1.2,55.4-.1,79.1,3.2,1,9.8,2.5,11.8,4.7,16.2,15-15.6,21.8-24.4,25.6-19.1,8-29.1,7.3-48.7,5.2-16.9-1.9-45.5-10.1-14.2-24.6.2-10.2.4-21.5-1.3-31.6-28.7-5.4-59-8.9-88.1-12.8-9-1.2-34.5-5.1-42.5-4.2-12.1,1.4-46.1,13.5-57.3,16.4-23.2,6-224.6,64.4-229.6,63.7-7.9,6.6-4.5,27.1-2.1,35.9,2.9,7.8,6.8,16.2,3,23.9-2.9,5.9-9.3,12-11.4,17.5-3.8,10.4-1.7,20.9-5.4,31.8-11,25.4-87.9,18.5-109.8,12.9-4.2-1.1-7.4-9-8.5-12.6-1.3-6.1-.7-12.5-.6-18.7-12.2-3.6-40.1-6.1-54.7-8.9-8.1,0-36.5-4.8-46.4-6.3l-98.5-15.6c-16.9-2.7-33.8-5.6-50.9-7.5-18.9-2.1-19.5,5.6-31.9,9.5-19.1,4.2-39.7-.2-58.8-3.1-5.7-.9-15.3-6.1-10.8-12.9,3.5-5.3,15.5-8,21.5-9.8-.3-5.3-.7-10.1-.5-15.4-.5-4-.4-4.6-2.3-8-17.3-.1-29.3-1.5-45.2,6.9-27,14.1-106.1,12.7-126-10.9-10.3-11.8-3.7-29,11.2-32.5,5.7-2.7,24.2-6.3,31.8-8.9,23.8-8.3,53.2-28.1,70.5-46.5,3-3.6,8.2-8.8,10.2-13,7-14.3,1.8-24.5,22.9-22.7-.1-12.6,2.9-25,2.1-37.8-3.5-53.4-15-106.2-17.4-159.8-.6-13.8,0-27.9,1.4-41.7.9-8.9,2.5-17.9,2.6-26.9.4-23.4-1.1-72.1,12.7-91.8,11.1-15.9,104.4-64.7,125.1-73.6,12.5-5.4,26.7-10.1,40.1-12.7,10.1-5.3,64.4-12.8,78.4-17.1,7.7-2.3,9.2-7.4,14.1-9.6,3.9-1.7,13.1-4,18.3-6.1,2.4-4.3,3.8-7.1,7-10.9,1-12.6-1.6-30.1.1-41.8,4.2-28.3,7.2-54.6,6-83.2-.3-8.1.1-15-1.3-23.3-4.2-24.6-13.9-47.7-18.3-72.3-1.7-6.6-3.4-38.2-10.2-41-17.8-7.2-49.4-8.8-67.7-17-30.2-13.5-48.3-33.5-71.3-55.6-12.6-12.2-30.7-17.1-41.1-31.8-7.2-10.2-5.2-23.5-6.5-35.9-1.6-14.6-4.8-29.9-4.8-44.5,0-31.8,10.2-64.1,15.8-95.9-7.2-3.1-22.2-12.4-29.8-16.5-25.1-13.4-49.6-28.6-73.6-43.8-5.4-3.4-10.3-7.9-11.2-14.4-.8-6,1-13.1,5.1-17.8,15.3-17.6,30.5,2.5,46.9,5.3,4.4.8,11.3-.2,15.8-.7,18.1-17.3,29.7-9.4,51.2-19.8,1.1-2.6,4.7-11.5,7.2-13.1,17.5-11.3,46.6-15.6,67.2-15.5,6.8,0,12.6,8.7,15.8,13.1,14.7-1.6,35.2-10.2,48.7-2.3,9,6,9.4,20.6,2.8,28.4-8.2,9.7-29.6,9.3-41.9,10.6-6,31.1-21.4,23.7-33.9,45.7-2.6,4.5-2,25.6-3.3,34l-.2,1.5c19,15.2,60,42.4,81.8,48.9,21,6.2,47.3,12.1,69.5,18.2,18.3,5,50,15.5,67.5,18.2.5-9.3,3.3-15.5,4.1-23.9.6-6.1-1.6-13.3-.4-20.3,1.5-8.5,7.5-19.8,9.1-27.6,2.5-12.1-1.8-24.2,6.3-36.3,5-7.6,12-13.2,20.9-15.6,24-.2,41.9-3.1,65,6.4,1.8.7,7.9,2.9,9.1,3.9,20.8,6.9,25.3,12,39.7,27.5,15.8-1.8,32.4-1.4,48.4-1.8,41.4-.9,92.4-11.1,101.2,44.4,17.6-1.8,35.6-.9,53.3-2.5.9-30.5-3.2-46.8-5.5-75-21.4-22.6-40.7-14.9-45.7-47.1-20.5-2-51.1-.3-47.4-28.5.8-5.8,2.1-10.4,6.8-14.1,8.6-7.5,45-2.7,56.3-1l1.2.2ZM841.7,77.3c5,32.2,24.2,24.5,45.7,47.1,2.3,28.1,6.4,44.5,5.5,75-17.7,1.6-35.7.7-53.3,2.5-8.9-55.5-59.8-45.3-101.2-44.4-16,.4-32.6,0-48.4,1.8-14.4-15.4-18.9-20.6-39.7-27.5-1.2-1-7.3-3.2-9.1-3.9-23.1-9.5-41-6.5-65-6.4-8.9,2.3-15.9,8-20.9,15.6-8.1,12.2-3.8,24.2-6.3,36.3-1.6,7.7-7.7,19-9.1,27.6-1.2,7,.9,14.3.4,20.3-.8,8.5-3.6,14.6-4.1,23.9-17.4-2.7-49.2-13.2-67.5-18.2-22.1-6.1-48.5-12-69.5-18.2-21.8-6.5-62.8-33.7-81.8-48.9l.2-1.5c1.3-8.4.8-29.5,3.3-34,12.6-22,27.9-14.6,33.9-45.7,12.3-1.3,33.7-.9,41.9-10.6,6.6-7.8,6.3-22.4-2.8-28.4-13.5-7.9-34,.7-48.7,2.3-3.2-4.4-9-13.1-15.8-13.1-20.7,0-49.7,4.2-67.2,15.5-2.5,1.6-6,10.5-7.2,13.1-21.5,10.4-33.1,2.5-51.2,19.8-4.4.5-11.4,1.5-15.8.7-16.4-2.8-31.6-22.9-46.9-5.3-4.1,4.7-5.9,11.8-5.1,17.8.9,6.5,5.8,11,11.2,14.4,24,15.3,48.5,30.4,73.6,43.8,7.7,4.1,22.6,13.4,29.8,16.5-5.6,31.8-15.8,64.1-15.8,95.9,0,14.5,3.2,29.9,4.8,44.5,1.3,12.3-.7,25.6,6.5,35.9,10.4,14.7,28.5,19.6,41.1,31.8,22.9,22.1,41.1,42.1,71.3,55.6,18.3,8.2,49.8,9.8,67.7,17,6.8,2.8,8.5,34.4,10.2,41,4.5,24.6,14.1,47.6,18.3,72.3,1.4,8.3,1,15.1,1.3,23.3,1.2,28.7-1.8,55-6,83.2-1.7,11.7.9,29.2-.1,41.8,3.1-.3,1.9.4,4.1-1.5.9-3.3-.7-25.2,0-33.6.8-12.6,3.8-26.6,5.3-38.9,6.5-52.9-3-96.5-17.7-146.8-1.9-6.4-4-41.1-8.9-43.9-18.5-10.8-48.1-5.7-68.3-15.6-32.9-16.1-58-38.2-82-65.3-2.4-2.7-18.3-8.1-24-14-13.8-14.2-11.2-18.4-11.3-36.8-2.5-16.3-8.3-35.8-7.3-53.5,1.2-17,5.7-29.8,8.9-46.7,5.1-27.1,12.7-57,15.6-84.4.3-3.2-5.6-28.9-7.2-30.4-10-.9-23.2,1.9-32.6,4.9-2.6.8-6.7-3.2-9.9-5.1-4.9.1-30.6,4.4-33.3,7.1l1.1,1.3c4.2,1.6,16.8-.9,22.4-1.6,7.1,3.2,47.8,26.8,52,31.3.6,3.6-2.6,21.1-3.5,25.5l-1.2.8c-3.7-.5-4.2-.5-7.2-2.6-11.5-8.5-24.8-14.3-36.9-21.9-20.6-12.9-42.5-24.2-62.4-38-2-1.4-5.2-4.1-5-6.9,1-11,2.4-12.5,10-19.9,12.6-1,19.4,5.8,30.6,12.8,6.4-.1,26.5-2.4,31.3-5.9.3-.6,2-3.6,2.3-4.1.9-1.4,8.4-3.3,10.5-3.6,3.5-.4,30.2-7.2,30.7-4.3,2.7,16.9,11.7,8.3,16.9,11.6,1,2.9.8,3,3,5.1,5.4,2.1,11.8-2.3,16,1.1-1,5.9-10.2,7.4-10.5,16.5,1.2-.5,11.5-12.2,15.8-15,7.5-4.9,19.9-6,24-12.4,0-3.9.4-2-2.1-5.6-9.4-3.8-13.8-7.5-10.6-18.3,1-1,1.7-2.1,2.8-1.9,5.5.8,21.3,7.2,25.2,10.6l-.7,3.9.9,1,1.9-2.1c1.4.6,2.6,1.5,2.5,2.8-.6,4,4.6,23.4,3.3,24.9-9.6,11.3-26.2,18.9-34,31.9-1.6,2.7,1.4,16.8-.6,20-4.6,7.3-5,10.7-4.3,19.1l1.6-.3c.4.3,1.1,28.9,1,32.9.5-3.2,1-5.4,1.7-8.5,2.6,12-.3,31.2,3.9,40.6,3.9,8.8,5.5,23.2,7,32.8l1-1.2c2.6,1.9,2.5,1.8,4.4,4.5.4,12.5,5.6,23.2,5.1,35.9-8.2,1.9-16.7,1.8-24.6,4.4l-.6,1.3c.4-.1.9-.3,1.3-.4,19.7-3.1,46.3-1.6,65.5,3.7,7.7,2.2,14.5,6.2,21.5,10,4.8,2.6,4.9,4.1,7.2,9.1,17.5,9.7,15.1,13,26.2,27.8l2.1-.4,1.7,3.3c.2-2.3-11.1-18.1-13.1-21,16.4-2.9,45.1-5.5,60.8-2,15.4,3.5,34,17.8,48.2,25,7.4-1.5,29.4-11.2,35.5-15.9,3-5.7,3.9-20.3,1.1-26.3-1-2.2-11.6-10-12.6-14.3-4.6-19-8.1-45.4-8.2-64.8,0-6,7.1-12.5,2.5-26.2-1-2.8-.6-5.5.7-8.1,4.9-9.8,5.3-22.2,12.5-30.7,1.8-2.1-3-12.3-.5-18.9,2.9-7.5,15.6-17.1,23.1-19,25.3-6.4,49.9-.4,72.8,11,14.9,7.4,19.6,9.9,24.9,25.4,1.8-1.4,1.2-1,3.4-2,1.8,2.8,1.1,1.3.9,5.6,1.8.9.9.3,2.4,2l-.5,5.5c2,5.6,6.3,4.1,6.9,11.3,1.7,20.8-9.8,37.8-10.6,58.7,0-.7-15.8,32.8-16.5,33.9l-1.4-.4c-2.2-4.2,1.7-3,.9-7.3-1.3.9-2.8,7.7-4.3,10.3.3,5.3.8,19,.5,25.2.9.7,1.8,1.3,2.7,2-.3,4.2-1.8,11.7-.6,15.7.7,2.5,3.6.9,5.2,3.5l-.9,2.7c1.5,6,14.1,13.7,19.7,18l1.4-1.8c2.9,2.6,2.1,3.1,3.2,7.8,2.6,2.9,1.7,2.8,5,3.9,2.9-1.4,3.7-4.1,5.2-7.2,3.2-.7,7.3-2.8,10.2-4.5,9.4,1.6,32.5-7.7,42.7-9.1,8-1.1,18.9.4,27,.7,2.9.1.8,8.7,8.5-.7l.9.4c-.3,5.8-11.8,17.3-16.6,27,17.8-19,43.8-40.7,68.4-51.1.4-.2,34.1-5.6,37.6-5.8.2,0,9.3,0,10.8,0,2.8,4.3,1.7,8.2,5,13.1.8-1.2-2.3-39-3.1-41.6-1.1.8-1.4,1.2-2.8,1.6-2.5-31.5,5.7-50,9.5-80.3,2.4-18.8,0-44.3-3.7-62.9-2.4-11.9,1-19.8-10.5-29.8-13.2-11.4-33.1-14.7-34.5-34.8-.4-5.1-.5-18.8.8-22.9.8-2.6,15.5-10.7,18.1-12.5,3.3-2.3,11.1-3.3,14.6-.1.2,5.3-5.2,10.8-8.7,14.6-7.1,7.8-6.3,6.2-3.8,16.2,17.6-.8,36.9,10.6,47.3-4.9.4-.6,6.1-1.6,6.7-1.8,7.8,0,10.2-9.2,13.1-16.7l-1.2-1.2c-7.3,8.4-2.8,18.2-19.2,16.6l-1.1-1.2c1.6-9.2,1.5-19.7,9.6-26,12-9.4,19.1,13.4,25.9,15.8,8.1,2.9,21.1,1.2,29.8,3.5,4.3,0,8.5,8.6,10.7,9.1,7.4,1.9,14.1,1.8,21.7,3.9,6.1,1.7,11.2-3.1,15.4,7.4-1.3,4.4-4.1,3.9-8.3,4.2l-.4-.2.5-.2-32.6-.5-.6,1.1c-13.1,22-40.6-18.7-45.5,30.2-2.8,28.3,10,52.9,14.9,80.4-.1-.7,7.6,27.8,5.9,25l.8-2.7c-1.2-2.4,6.1,20.2,6.5,15.9-2.5,26.7,7.8,55.3,1,82-2.6,10.5,2.9,22.5-2.2,33-8.6,11.5-23.8,17.4-35.2,25.7-2.6,1.9-4,7.5-6.1,9.7-25.3,25.4-49.9,51.3-85,62.2-6.3,2-50.9,13.5-55.3,11.6-2.8,9.3-7.5,18.4-11.5,27.2-2,4.3-2.1,14.5-4,17.8-11.2,19.6-22.4,39.4-34.4,58.6-2.5,3.9-3.1,8.4-6.5,10.5h-1.8c-8.4,6.3-1.9,13.8-12.7,14.7l-1.4,2.4,2.9-.9.5.4c-7.5,7.5-12.9,12.7-18.5,21.9-7.4,12.2-5.4,10.1-4.2,23-.6-.7-1.1-1.4-1.7-2.1-2.9,3.7-4.6,27-4.7,33.4-.3,10.4-.2,20.1-5,30-3.5,7.2,2.6,32.4,5.2,39l2.6.5c-.5,2.6-.2,1.7-1.6,4.1,1.6,6,10.9,9.5,6.3,15.3l.7,1.2c3.7,6.6,9.7,24.8,14.1,26.2l.7-2.7,1,1.3-1.5,1.3,2-.4,2.4,5.4-.8.5-3.2-1.8-.4.6c1.8,3.2,1.9,3.1,4.8,5.1,1.1,3.2,1.1,1.7,0,4.8l-2.1.7-1.1-.8.6-3.4-1.6-.9-1,.4c8,15.4,8,50.7,8.1,68,7-15.8,1-53.9-1.4-71.7-.3-2.4-4.5-12.2-5.5-15.7l-.4-1.6c-8.4-10.8-13.3-25.1-17.6-38-2.4-7.2-9.4-23.6-7.1-31,8.8-28,2.6-57.7,15.4-84.7,6.5-13.6,16-23.9,25.2-35.7,15.3-20,32.3-45,41.8-68.4,0-.4.2-.7.3-1.1,5.7-8.3,9.1-26.5,12.4-30.6v4.6s1.6.8,1.6.8c4.6-2.8,2.6-5.9,8.3-10.3-5.3,13.1-13.6,37.1-19.2,48.3-7.9,18.7-31.9,52.9-44.9,69.1-22.1,21.2-27.3,54-28.9,82.8-.5,8.6-3.6,17.8-3.5,26.6-.2,23.6,7.2,35.7,17.5,55.9l3.7,7.7c11.6,27.1,17.9,79,5,106.3-.5,1.3-1.1,2.4-1.4,3.7v1.4c-.1,0-1.9,2.8-1.9,2.8,1.7,3.6,12.8,6.6,15.1,9.5,9.7,12,11.2,48.1-2.9,56.7-9.9,6.1-58,6.5-63.7,12.3-.5,2.7-.8,2.1-.2,4.5,5.4,11.4,10.2,26.5,13.4,38.8,1.9,7.5,3,17,5,24.1,0,8.1,0,17.1,0,25.3,0,26.5-8,54.2-13.7,79.7-3.8,16.9-31.5,116.2-25.6,125.7l4.6,1,.6,1.2c-2.7,2.7-3.4,3.3-6.5,5.6,1.5,13.9,3.9,37,11.3,48.6,5,.8,206.3-57.7,229.6-63.7,11.2-2.9,45.1-15,57.3-16.4,8-.9,33.5,3,42.5,4.2,29.1,3.9,59.4,7.4,88.1,12.8,1.7,10.1,1.5,21.4,1.3,31.6-31.3,14.5-2.7,22.7,14.2,24.6,19.6,2.2,29.6,2.9,48.7-5.2,8.9-3.7,40.6-10.5,24.4-25.6-2.1-2.2-8.6-3.7-11.8-4.7-1.1-23.7,0-54.8.1-79.1l.2-138.2,1.2-483.5c.4-56.6.4-113.3,0-169.9-.2-58.6,7.8-125.7-38.4-169-20.3-19-43.4-26.6-70.3-30.2,3.6-11.1,6.3-24.6,8.8-36.1,7.1-31.3,13.5-59.5,20.1-91.2,5-23.8-12.7-34.3-34.7-28-8,2.3-12.3,13-15.6,20.6l-26.2-3.2c-10.1-13.3-24.3-11.8-41.8-14.7-1.7-2.3-7.4-10.1-9.7-11.3-19.6-10.3-49.2-16.9-71.3-14.1-8.6,1.1-11.7,7-16.3,13.3l-1.2-.2c-11.3-1.8-47.7-6.6-56.3,1-4.7,3.7-6.1,8.3-6.8,14.1-3.7,28.1,27,26.5,47.4,28.5ZM192.2,1331.5c-.2,5.3.2,10.2.5,15.4-6,1.8-18.1,4.5-21.5,9.8-4.5,6.8,5.1,12,10.8,12.9,19,2.9,39.7,7.4,58.8,3.1,12.5-3.9,13.1-11.6,31.9-9.5,17.1,1.9,34,4.8,50.9,7.5l98.5,15.6c9.9,1.5,38.2,6.2,46.4,6.3,14.6,2.8,42.5,5.2,54.7,8.9-.2,6.2-.7,12.6.6,18.7,7.4-5.8,6,.1,15.6.6,6.9-3.4,4.9-10.6,17.8-12.1,14.4-1.8,18.7,8.8,28.3,15.8,23.2,1.3,25.4.6,46.1-12.6,3.2-2,3.8-2.6,4.5-6-8.4,8.2-26.2,14.9-37.9,15.9-12.9,1-19.6-7.4-29.1-14.1-8.7,0-21.9-.6-27.3,7.3-1.4,2.1-2.3,2.9-4.7,3.8-9.9-2-8.2-14.8-6.1-21.9,7.8-27.1,29.7-46.8,29.8-76.9,0-6,1.8-30.4,5.9-34.3l.3,4.9,1-.3c4.2-6.9,1.1-9.7,8.9-19.6l.8-1c-6-5.2,2.9-26.3,4.5-36,7.9-48.8-8.2-97.5-21-144-1.3-4.6,1.5-21.8,0-24.7-7.1-13.3.7-35.1,4.1-49.6,7.5-32.7,2.9-49.2-10.1-79.9-3.2-7.5,1.3-23.6-5.9-31.4,1.3-2.2,1.6-2.3,1.9-4.7l-1-1.2-1.4.9c-3-4.4-5.7-31.6-4.8-38.3.4-3.1,6.2-10.4,8.1-13.1-.2-2.5-.4-4.6-.6-6.3,28.4-43.1,70.6-46.9,112.8-20.1l1.2.8c3.8,2.7,11.1,10,13,10.8,1.1-2.5.7-1.2-.5-4.9-10.7-11.3-17.8-18.6-32.5-24-29.4-10.9-60.9-5.5-83.4,16.7-5.5,5.4-11.6,14.9-17.6,18.4l-.3,3.7-1.8-.5.5,2.1-1.5.3c-.1-1.7,0-1.9-.8-3.3-1.2,4.4.5,9.7-.8,10.8-8.7,8.3-7.7,1.7-6.6,13.4.9,10.2-2.4,13.9.7,27l-.6,1.1-2.6-1.3c.3,3.8.8,6.5.9,10.5l3.1-.3c2.1,2.5,7.8,22.7,8.6,26.9,2,10.7,8.6,13.1,7.3,24.6-8.7,8.4-71.7,2.2-85.7.3-24.4-3.2-57.4-.6-80.2-10.9-6.9-3.7-4.4-44.1,4.4-47.5,16.4-9.9,43.6-8.7,62.5-11.7,14-2.1,27.2-3.9,40.5-4.2-31.1-3.4-90.3-5.3-113.8,18.6-1.6,7.2-3.1,30.4-5.1,32.6-8.7,3.2-27.9-7.3-34-13.7-16.4-1.5-70.5-9.8-77.2,9.7.5,12.1,4.1,18.3,6.4,29.7,6,29.1,8.4,55.4.6,84.4-3.5,13-9.9,24-15.5,36-2.1,5-5.7,7.5-6.8,13-6,30.4-11.3,64.2-11.7,95.3-.3,25.4,8.6,21.2-2.7,48.6l1,1.2c4.1-4.2,3.5-13.2,12.2-15.1,6.9,5.1,15.3,53.7,11.4,59.6-6.8,1.4-14.6.5-19.1,1.4-13.8,2.8-33.9,6.1-44.8,14.6-4.1,8.8-5.6,18-2.9,27.5,1.9,3.4,1.8,4,2.3,8Z"/>
  <path fill="#bbf03b" d="M858.6,34c4.6-6.3,7.6-12.2,16.3-13.3,22.1-2.8,51.7,3.8,71.3,14.1,2.4,1.2,8,9,9.7,11.3,17.5,3,31.7,1.4,41.8,14.7l26.2,3.2c3.3-7.5,7.6-18.3,15.6-20.6,22-6.3,39.7,4.2,34.7,28-6.6,31.7-13,59.9-20.1,91.2-2.5,11.5-5.2,25.1-8.8,36.1,26.8,3.6,50,11.3,70.3,30.2,46.3,43.2,38.2,110.4,38.4,169,.3,56.6.3,113.3,0,169.9l-1.2,483.5-.2,138.2c-.1,24.3-1.2,55.4-.1,79.1,3.2,1,9.8,2.5,11.8,4.7,16.2,15-15.6,21.8-24.4,25.6-19.1,8-29.1,7.3-48.7,5.2-16.9-1.9-45.5-10.1-14.2-24.6.2-10.2.4-21.5-1.3-31.6-28.7-5.4-59-8.9-88.1-12.8-9-1.2-34.5-5.1-42.5-4.2-12.1,1.4-46.1,13.5-57.3,16.4-23.2,6-224.6,64.4-229.6,63.7-7.4-11.6-9.8-34.7-11.3-48.6,3.1-2.3,3.8-2.9,6.5-5.6l-.6-1.2-4.6-1c-6-9.5,21.8-108.8,25.6-125.7,5.7-25.5,13.7-53.1,13.7-79.7,0-8.3,0-17.3,0-25.3-2-7.2-3-16.7-5-24.1-3.1-12.3-8-27.4-13.4-38.8-.6-2.4-.3-1.7.2-4.5,5.7-5.8,53.9-6.2,63.7-12.3,14-8.7,12.6-44.8,2.9-56.7-2.4-2.9-13.4-5.9-15.1-9.5l1.8-2.8v-1.4c.4-1.3,1-2.5,1.5-3.7,13-27.3,6.6-79.2-5-106.3l-3.7-7.7c-10.3-20.2-17.7-32.2-17.5-55.9-.1-8.8,3-18,3.5-26.6,1.6-28.9,6.8-61.6,28.9-82.8,12.9-16.2,37-50.4,44.9-69.1,5.5-11.2,13.9-35.2,19.2-48.3-5.7,4.4-3.7,7.5-8.3,10.3l-1.5-.8v-4.6c-3.3,4-6.7,22.3-12.4,30.6-.1.4-.2.7-.3,1.1-9.5,23.4-26.5,48.4-41.8,68.4-9.2,11.8-18.8,22.1-25.2,35.7-12.8,27.1-6.6,56.7-15.4,84.7-2.3,7.4,4.7,23.8,7.1,31,4.2,12.9,9.1,27.2,17.6,38l.4,1.6c1,3.5,5.2,13.2,5.5,15.7,2.4,17.8,8.4,55.9,1.4,71.7,0-17.3-.1-52.6-8.1-68l1-.4,1.6.9-.6,3.4,1.1.8,2.1-.7c1.1-3.1,1.1-1.5,0-4.8-2.9-2-3-1.9-4.8-5.1l.4-.6,3.2,1.8.8-.5-2.4-5.4-2,.4,1.5-1.3-1-1.3-.7,2.7c-4.4-1.4-10.4-19.6-14.1-26.2l-.7-1.2c4.7-5.8-4.6-9.2-6.3-15.3,1.3-2.4,1.1-1.5,1.6-4.1l-2.6-.5c-2.6-6.7-8.8-31.8-5.2-39,4.9-9.9,4.8-19.6,5-30,.2-6.4,1.9-29.7,4.7-33.4.6.7,1.1,1.4,1.7,2.1-1.2-12.9-3.1-10.9,4.2-23,5.6-9.2,11-14.4,18.5-21.9l-.5-.4-2.9.9,1.4-2.4c10.7-1,4.3-8.4,12.7-14.8h1.8c3.4-2,4.1-6.5,6.5-10.4,12-19.1,23.2-38.9,34.4-58.6,1.9-3.3,2-13.5,4-17.8,4-8.8,8.8-18,11.5-27.2,4.4,2,48.9-9.6,55.3-11.6,35.1-10.8,59.6-36.8,85-62.2,2.2-2.2,3.6-7.8,6.1-9.7,11.4-8.3,26.7-14.2,35.2-25.7,5.2-10.5-.4-22.5,2.2-33,6.8-26.8-3.5-55.3-1-82-.4,4.3-7.7-18.3-6.5-15.9l-.8,2.7c1.7,2.8-6-25.7-5.9-25-5-27.5-17.8-52.1-14.9-80.4,4.9-48.9,32.4-8.2,45.5-30.2l.6-1.1,32.6.5-.5.2.4.2c4.2-.3,7,.1,8.3-4.2-4.2-10.5-9.3-5.7-15.4-7.4-7.6-2.1-14.4-2-21.7-3.9-2.2-.5-6.4-9.2-10.7-9.1-8.7-2.3-21.7-.6-29.8-3.5-6.8-2.4-13.9-25.2-25.9-15.8-8.1,6.4-8,16.8-9.6,26l1.1,1.2c16.4,1.6,11.9-8.2,19.2-16.6l1.2,1.2c-2.9,7.6-5.3,16.6-13.1,16.7-.7.2-6.3,1.2-6.7,1.8-10.4,15.5-29.7,4.1-47.3,4.9-2.5-10-3.3-8.4,3.8-16.2,3.5-3.8,8.9-9.3,8.7-14.6-3.5-3.1-11.3-2.2-14.6.1-2.6,1.8-17.3,10-18.1,12.5-1.3,4.1-1.2,17.7-.8,22.9,1.4,20.1,21.3,23.4,34.5,34.8,11.6,10,8.1,17.9,10.5,29.8,3.8,18.6,6,44.1,3.7,62.9-3.8,30.3-12,48.8-9.5,80.3,1.4-.4,1.7-.7,2.8-1.6.8,2.6,3.9,40.4,3.1,41.6-3.3-4.9-2.2-8.8-5-13.1-1.4,0-10.6,0-10.8,0-3.5.2-37.3,5.6-37.6,5.8-24.6,10.4-50.5,32.1-68.4,51.1,4.7-9.7,16.3-21.2,16.6-27l-.9-.4c-7.7,9.4-5.6.8-8.5.7-8.1-.3-19-1.9-27-.7-10.2,1.5-33.3,10.8-42.7,9.1-2.9,1.6-6.9,3.7-10.2,4.5-2.2,1.3-3.2,2.1-5.7,2.7l2.2-5.3c-18.4-14.4-28.3-11.1-32.4-37.2-5-31.7,9-43.6,22.3-69.5,1.6-3.5-.4-13.9.6-16.6,9.5-26.5,6.7-60.6-15.3-80.1-17.3-15.4-53.9-25.6-77-23.5-5.2.5-17.8,5.2-20.9,2.4.2-3,.4-4.5.8-7.4,24-.2,41.9-3.1,65,6.4,1.8.7,7.9,2.9,9.1,3.9,20.8,6.9,25.3,12,39.7,27.5,15.8-1.8,32.4-1.4,48.4-1.8,41.4-.9,92.4-11.1,101.2,44.4,17.6-1.8,35.6-.9,53.3-2.5.9-30.5-3.2-46.8-5.5-75-21.4-22.6-40.7-14.9-45.7-47.1-20.5-2-51.1-.3-47.4-28.5.8-5.8,2.1-10.4,6.8-14.1,8.6-7.5,45-2.7,56.3-1l1.2.2ZM960.3,809.7c7.2,2,33.8,6.3,37.9-.3,0-7-.5-21.2,1.1-27.1,2.2-1.6,2.8-1.8,5.3-3,1.6-4.5.5-62.6.5-73.5v-278.9c0,0-52.1-.2-52.1-.2-1.5,12-.7,51.7-.7,65.2v139s-.5,95.6-.5,95.6c0,8.4-1,38.1,0,45.1,1.9,2.2,2.8,2.5,5.3,3.9,2.5,5.6.7,22,2.7,31.9l.3,1.4c0,.3.1.6.2.8ZM811.5,464.5c-10.8,115.9-22.8,231.7-36.2,347.3-2.6,21.1-5,37.5-12.9,57.4-1.4,3.5-2.6,16.8-2.9,21.3-6,76-1.3,153.1-2.2,229.4,0,4.2,0,14.9,1.4,18.4,2.1,1.9,2,1.7,4.9,2.1,11.5.9,23,2,34.5,1.9l1.9-213.4.3-77.7c0-11.5-.6-28.5.2-39.6,13.6-3.8,36.4-4.1,51.3-5.3.2-6.5-1.3-31.8,2.4-36.2.2-.3,3.4-1.9,4.1-2.3,2.1-3.7,1.3-21.7,1.3-27v-78.9s0-135.3,0-135.3c0-21.9,1.3-54.7,0-75.3l-1-1.6h-.6c-19,9.1-25.3,10.6-46.3,15ZM884.1,246c-15.1.4-32.2.9-47.2.3-2.4,5.5-3.1,18.1-3.8,24.6,15.5-.1,32.8.7,48.4,1.6,1.6-7.4,1.7-18.4,2.7-26.6ZM1073.7,372.9c0-37.6,4.8-77.7-23.4-107.3-4.3-4.5-11.8-9.9-17.7-11.9-2.6,6.5-2.6,12.1-2.6,19.1,3.8,4.2,11.2,11.7,13,16.9,6.9,19.2,4.3,41.2,4.7,61.2.4,19-12.1,11.8-18.9,19.1l.2,1.9c5.8,1.7,18.5,1.1,24.9,1h19.8ZM977.2,198.7c7.3.1,15.5.4,22.7.3l12.3-61.4c2-9.9,8.2-34.8,7.7-43.3-5.1-2.7-20.8-3.5-27.6-4.6l-5.6,6.4c-10.4.4-19.9-1.5-28.6-.9-1.9,5.1-6.3,16.7-5.7,21.7,1.3,10.2,15.5,77.6,20.5,81.6l4.2.3ZM919.1,808.1c4.2-.3,3.7.4,6.6-1.6,3.6-8.6,1.5-18.3,2.2-28.1l6.3-6v-230.8c-.1-35.2,1.3-79.9-.2-114-11.1-.2-22.3-.4-33.4-.7-6.6,3.7-11.3,6.4-17.5,10.8,2.4,108.6.2,221,.5,329.9,2,1.6,4,3.2,6.1,4.7,0,8-2.1,28.1,1.4,32.6,5.2,3.1,20.5,2.6,27.9,3.3ZM998.2,374.5c4.6-.2,2.8.7,5.8-2.2l-.6-1.8c-6.2-2.8-23.1-1.6-30.9-1.8-2.5-1.5-6.3-4.1-8.8-5.1-3.5,3.4-6.1,5.4-8.2,9.7l.5,1.3c11.6.9,30.1-.1,42.2-.2ZM1073.6,427.9c-15.4,0-30.8,0-46.2-.1-.8,9.9-.3,23.3-.3,33.5l.4,55.8.6,178.2c0,10-.6,79.7,1.1,83,3.6,2.9,4.1,2.4,4.6,7.5,1,10,.6,20.3,1,30.3,11.9,1.3,27.4,2.4,38.9,4.2,1.4-41.7-.1-92.3,0-134.5v-257.9Z"/>
  <path fill="#99d70d" d="M1030.1,243c4.9-7.9,7-15.9,10.4-24.5h1.8c0-.1.6.4.6.4,3,2.6,34.6,26.2,35.2,26.4l-.4-1.4,2.7,1.5,1.6-.8c20.9,20.9,27.8,67.6,27.8,96.1l-2.4,635.1c0,11.4-1,128.8.7,132.4.8-22.7.3-47.7.3-70.6v-149c0-25.6-.7-53.7.2-79.1l1.1-.4c.3.6.4,24.2.4,26.8l.3,60.9c0,92,1.4,188.1-.1,279.8h.5c.5-24.9,0-50.4.2-75.4,1-66,1.3-132,1-197.9l.9-298.4-1.8-180.1-.3-60.8c0-43.9,1.3-93.9-32.4-127.9-11.3-11.4-19-17.5-34.6-22.4-1.8-2.7-1.4-1.3-1.1-4.6,8.1-6.4,37.8,8.5,48.4,10.5,7.5,1.4,24.6,17.7,29.7,24.2,14.2,18.4,22.9,40.4,24.9,63.5,2.5,27.4,2.1,52.2,1.8,79.7l-.4,108.4v524c0,0,.3,163.6.3,163.6,0,26.8,0,54.3.5,81.2,0,3,1.9,6.7,4.5,8.6,2.9,2.1,6.8,1.7,10.3,1.7l1.5-.9c16.2,15-15.6,21.8-24.4,25.6-19.1,8-29.1,7.3-48.7,5.2-16.9-1.9-45.5-10.1-14.2-24.6.2-10.2.4-21.5-1.3-31.6-28.7-5.4-59-8.9-88.1-12.8-9-1.2-34.5-5.1-42.5-4.2-12.1,1.4-46.1,13.5-57.3,16.4-23.2,6-224.6,64.4-229.6,63.7-7.4-11.6-9.8-34.7-11.3-48.6,3.1-2.3,3.8-2.9,6.5-5.6l-.6-1.2-4.6-1c-6-9.5,21.8-108.8,25.6-125.7,5.7-25.5,13.7-53.1,13.7-79.7,0-8.3,0-17.3,0-25.3-2-7.2-3-16.7-5-24.1-3.1-12.3-8-27.4-13.4-38.8-.6-2.4-.3-1.7.2-4.5,5.7-5.8,53.9-6.2,63.7-12.3,14-8.7,12.6-44.8,2.9-56.7-2.4-2.9-13.4-5.9-15.1-9.5l1.8-2.8v-1.4c2,.6,3.1.9,4.7,2,9.4.6,21.8-3,31.2-5.3-8.2,55.8-5.6,118.4-5.8,175.3,0,25.6-1.1,75,.9,98.8,10.2,1.1,93.2,10.9,96.9,8.5,1.8-1.2,2.5-1.8,2.8-3.9-4.9-5.1-23.2-5.3-30.1-5.8-16-1.1-18.4.1-18.4-17.2,0-3.2.1-4.2,2.2-7.1,7.5-4.4,181.3,19.2,204.4,19.4,2.7,0,9.4,1.9,12.5,1.8,13.9,1.5,37.1-8.5,48.4-6.8,1.9,3.6,2.5,21.5-3,23.6-8.8,3.3-35.9,2.2-34.4,16,1.4.9,38.1,5.5,41.5,5.2,5.5-5.1,3-54,3-63.5-.4-31-.5-62-.4-93l.2-86.8c0-7.7,1.1-44.3,0-49.2v-8.3c.9-11.1-.4-29.3-.3-41.3l.8-123.2v-175.1c0-38.9,0-77.8-.4-116.8-18.3.1-36.6.2-54.9.1-.4,39.5-3.6,349.9.6,359,.6,1.3,4.1,2.2,5.4,2.8,4.1,7.2,0,25.9,2.1,33,3.1,10,26,3.9,37.8,9.3,3.6,3.6,3.3,22.2,1.2,25.9-9.8,5.5-61.8,2.9-75.1,2.1-5.4,2.3-27.3,1-32.6-.5,1.8-1.6,1.9-1.7,3-3.8l.8-1.6c-12.3-1.5-17.8,3.4-31.6,1.2-16.2-2.6-34.6,0-51-2-26.8-2.5-53-2.7-79.6-6.9,0-4.4-1.5-18.5,2.2-21.1,11.7-8.1,37.3-2.8,48.9-10.9,5.3-3.8-2-25.5,2.9-32.2,2.3-1.3,5.2-2.3,5.4-4.8.8-14.9.4-33.5.5-48.2l.6-197.2c0-16.7-.1-33.4-.3-50.1,0-5.6-2.1-24.3,1.7-28,1.4-1.4,7.9-5,10-6.2l1.9.3c2.4,4.5.2,16.4.2,22l.3,65.8v188.1c0,16.6,0,38.4-.6,55.5,0,.1,5,8.3,5.5,10.9,1,5.7-4.1,26.1,3,27.5,2.3.4,3.5.8,6,1.1l.4,1.2c-1.9.2-3.2.3-5,.8,10.4,2.7,31.7,4.5,42.4,1.3,1.6-.5,1.5-4.7,4.2-7.3l-1.2-3.6,1-1.6c-4.6-9,4.9-26.7,4.8-36.9l-.4-249.8c0-12.9,2-88.5-1.5-94.4-7.7-3.1-25.1.3-27.1-4.5,5.5-8.6,32-35.1,43.8-37.1,11.5-2,47.8,1.1,54.2-3.5,1.4-2.7,1.1-2.8.8-5.9-7.1-10.3-30.3-3-35.8-9.4-.4-2.2-.4-.8.5-3,8.5-18.9,13.2-36.1,12.4-57.1-.2-5.1-.5-15,.7-19.8,1.3-5.3,12.7-5.6,16.6-8.8l-1.8-1.4c.6-.9,18.8-14.4,19.4-14.5,2.5,3.1.5,13.9,3.4,18.1,10.9,15.7,19.7,25.1,17.7,46.2-.7,6.9,1.6,32.4-1.8,37.8-7.6,5.1-16,4.2-18.8,11,0,4,.2,3.8,2.2,7.4,2.1,1.5,48.7,1.5,54.7,1.3.9-12.2.3-22.8.6-34.7.8-30.9-.9-55.3-21.1-80.3-10.3-12.8-23.1-15.4-28.3-20.8ZM960.3,809.7c7.2,2,33.8,6.3,37.9-.3,0-7-.5-21.2,1.1-27.1,2.2-1.6,2.8-1.8,5.3-3,1.6-4.5.5-62.6.5-73.5v-278.9c0,0-52.1-.2-52.1-.2-1.5,12-.7,51.7-.7,65.2v139s-.5,95.6-.5,95.6c0,8.4-1,38.1,0,45.1,1.9,2.2,2.8,2.5,5.3,3.9,2.5,5.6.7,22,2.7,31.9l.3,1.4c0,.3.1.6.2.8Z"/>
  <path fill="#c2f44b" d="M726.5,985.9c-.5-5.6,1.5-26.6,4.9-30.5,3.4,7.7-6.1,97-7.9,111.6-.8,6.1.1,17.8-.2,23.4-2.6,2.6-3.6,1.7-6,4.5-1.4,20.4-5.4,40.6-7.7,60.8-3.4,30.2-7.2,59.4-11.9,89.4-6.5,2.9-31.6,10.3-38,10.5l-.8-1.2c3.8-4.2,32.3-9.6,34.1-12.3,3.7-5.3,6.6-49.9,7.4-57.1l14.6-125c2-17.1,6.8-57.9,11.4-74.2Z"/>
  <path fill="#bbf03b" d="M726.5,985.9c-.5-5.6,1.5-26.6,4.9-30.5,3.4,7.7-6.1,97-7.9,111.6-.8,6.1.1,17.8-.2,23.4-2.6,2.6-3.6,1.7-6,4.5,2.2-14.5,14.1-106.1,10.8-113.9l-1.7,5Z"/>
  <path fill="#bbf03b" d="M746.4,1156.4c15.2,2.7,130.1,14.6,132.5,16.6-4,3-27.7,7.9-33.3,9.6-33,9.9-66.3,18.7-99.8,26.4-3.9.8-10.6,2.8-14.1,1.7-1.6-3.8-1.7-2.1-.8-5.3,4.1-2.5,6.4-.8,10.6-1.8l83.3-21c7-1.7,30.4-6.1,35.7-8.5-1.9-1.9-3.6-2.1-6.6-2.5l-74.6-8.9c-7.5-.9-30.3-2.6-36.1-4.8l3.3-1.5Z"/>
  <path fill="#bbf03b" d="M931,1182.1c1.1,0,.5-.1,1.7.7-25.6,10.6-67,19.2-94,26.5l-65.9,17.8c-10.5,2.8-31.7,8.5-42,9.7-.6,0-1.6-.6-2.2-.9l.6-1.6c10.4-7.1,179-46.8,201.8-52.2Z"/>
  <path fill="#dffc86" d="M888.5,1151.3c17.6,0,42.5,3.6,60.3,5.5,11.9,1.2,36.6,3.6,47,6.4,1.8,2.2,1.6,3.7,2.2,6.8-12.4.2-97.8-9-108.1-12.1-1.8-2.7-1.2-2.7-1.4-6.6Z"/>
  <path fill="#bbf03b" d="M950.2,1191.6c5.4,2.5,2.7,22.5,1.1,27.6-2.8-5.9-2.5-21.2-1.1-27.6Z"/>
  <path fill="#99d70d" d="M794.1,473.3c2.3-5.3,2.6-6.4,8.6-9.1,4.4.9,4.1,6.9,3.7,10.6-10.5,92-18.3,184.3-30.3,276.1-4.6,34.9-4.1,72.2-14.6,105.9-3.9,12.7-25.1,17.5-36.5,15.1l-1-1.9c13-27.3,6.6-79.2-5-106.3l-3.7-7.7c-10.3-20.2-17.7-32.2-17.5-55.9-.1-8.8,3-18,3.5-26.6,1.6-28.9,6.8-61.6,28.9-82.8,12.9-16.2,37-50.4,44.9-69.1,5.5-11.2,13.9-35.2,19.2-48.3Z"/>
  <path fill="#c2f44b" d="M767.4,556.7c2.2,19.5-2.8,38.6-4.2,58-2.6,37.8-8,74.7-11.5,112.5-2.2,24.1-6.8,48.9-8.9,73.3,0,5.1-.8,8-1.9,12.9-2.1-2.8-1.8-5.4-2-9.1,1.9-10.8,2.1-27.5,4.1-40,1.5-34.4,5.7-70.3,10.1-104.5,4.3-33.3,5.4-70.6,14.3-103.1Z"/>
  <path fill="#bbf03b" d="M743,764.3c.7,9.6-3.3,31.3-.2,36.2,0,5.1-.8,8-1.9,12.9-2.1-2.8-1.8-5.4-2-9.1,1.9-10.8,2.1-27.5,4.1-40Z"/>
  <path fill="#c2f44b" d="M738.9,804.4c.2,3.6-.1,6.2,2,9.1,0,5.5.6,15.9-3.5,19.8-1.7-4.6.6-23.3,1.4-28.8Z"/>
  <path fill="#99d70d" d="M1071.6,934.3c-36.1,8.8-38.5,7.9-74.9,4.5l-59.8-5.4c-40.6-3.8-81.3-7-121.9-9.8-4-.3-6.9-.6-9.2-3.5-1.1-5.6-.7-12.4.5-18,9.3-5.6,148.1,10.5,166.8,10.6,16.6.1,49.2,6.2,66.9,3.7,12.2-1.7,20.8-6.1,31.7-5.1,2.4,3.3,2,19.3,0,22.9Z"/>
  <path fill="#99d70d" d="M1064.4,880.9c-5.5-.2-22.2,5.3-24.4,5.2-12-.8-102-5.7-107-9.1-.4-3.6-.8-7.2-1.3-11-.5-4,1.6-4.6,3.8-7.8,0,0,2-1.7,2.4-1.7,9.5.3,22.7.7,32,1.1,21.6,1.4,43.3,4.4,64.9,4.6,5.4,0,15-2.8,20.5-3.9,6.5-1.3,10.4-1.7,17.1-1.8.1,8,.2,14.3-.4,22.3l-7.8,2.2Z"/>
  <path fill="#c2f44b" d="M576.2,121.6c24-.2,41.9-3.1,65,6.4,1.8.7,7.9,2.9,9.1,3.9,1.1,4.3,6.6,6.6,13,8.8,11.4,3.9,17.5,20.2,26.4,25.1,4-1.5,4.7-1.5,10.7-.9-4.2,1.1-4.3-.5-7.6,1.7-.5,2.8,2.7,7.8,3.8,11.4,1.5,5,2.5,10.1,2.9,15.2,1.3,14.9-1.5,24.6-4.3,39-.5,2.8.2,10-.1,13-.3,2.5-3,8-4.2,10.1-10.4,18.4-22.7,33.7-19.1,56.3.4,2.6.2,11.6,1.9,13.8,6.2,8,19,18.1,28.1,21.8,1.4.6,18.9-7.7,21.1-8.4,12-4.8,23.7-6.5,36.5-7.7,6.7-.6,9.1-1.4,15.6.5,4.7,1.4,16.7,2.2,22,2.7,4.7-3.1,20.4-13.6,23.9-17.6.7-4.2,1.7-14.7,1.7-18.6,2.7,7-3.4,16.8,3.4,20.3,7.5.3,12.6-4.6,19-4-3.5,2.2-6.6,2.5-10.5,3.6-14.2,3.9-27.6,20.9-39.8,26.4-10-12.3-70.1-3.9-83,7.4-2.9,1.6-6.9,3.7-10.2,4.5-2.2,1.3-3.2,2.1-5.7,2.7l2.2-5.3c-18.4-14.4-28.3-11.1-32.4-37.2-5-31.7,9-43.6,22.3-69.5,1.6-3.5-.4-13.9.6-16.6,9.5-26.5,6.7-60.6-15.3-80.1-17.3-15.4-53.9-25.6-77-23.5-5.2.5-17.8,5.2-20.9,2.4.2-3,.4-4.5.8-7.4Z"/>
  <path fill="#c2f44b" d="M1064.4,880.9l7.8-2.2,2.8,2.8h1c1.1-2.1,1.2-2.3,2.8-3.8v8.3c-3.8,6.4,1.1,70.1-2.3,74.8h-1.2c-2.8-12.6,3.4-12.8-5.2-24.1l1.5-2.3c2-3.6,2.4-19.6,0-22.9l-3.1-2c3.1-2.8,5.4-4.1,5.3-7.7,0-5.6.8-13.9-2.6-18.3-2.8-.7-4.1-1.1-6.7-2.5Z"/>
  <path fill="#99d70d" d="M740.9,166.3c10.2-1.1,46.1-1,54.8,1.1,45.5,10.8,29.4,61.8,25.9,94-.6,5.1,1.5,12,1.8,16.8-5,6.5-3.8,9-4.3,16.9-.1,2.1-1.5,18.1-2.5,18.8-7.9,5.6-15.5,10.6-23.6,16.1-2.2,1.5-12.5-3.3-15.7-2.5-12.8-.3-22.4,2.6-34.7,3.3l-.4-.2c-8.3,1.9-24.3,3.4-31.1,8.5-1.2.9-3.5,3.2-5.2,2.7-29.4-8.7-33.5-20.4-32.3-49.1l1.2,1.9,1.3-.2c3.5-6.1,4.1-13.7,6.9-20.1,2.3-5.3,10.5-14.6,12.3-19.9,6.4-19.2,6-41.9,7.1-62.1.6-10.4-5.1-13.2-5.3-19.6,9-10.2,33.4,1.9,43.6-6.5Z"/>
  <path fill="#bbf03b" d="M801.3,181.7l2.5,1.4c4.8,10.7,1.3,30.3.2,42.4-2.3,22.9-5,45.8-8,68.6-1.1,7.5-3.4,16.8-3.8,24l-1.3.7c-.8-2.9,1-14.9.9-18.6-.3-21.2,13.9-104.5,9.5-118.4Z"/>
  <path fill="#99d70d" d="M805.8,845.9h1.6c12.2-1.1,99.8,6.2,104.9,10.1-1.8,2-1.4.8-1.8,3.2,1.4,4.5,2.7,9.1,4.4,13.7,1.7,4.7,2.9,13.9,10.3,10.6,5.3-2.4,10.4-1.5,15.7-1,29.1,2.5,58.2,5,87.4,7,7.9.5,19.3-2.5,28.5-2.4-3.3-3.7,5.2,5.7,1.6,2.1,2.6,2.6,8-.4,12.3,3.3,1.1,8.7-3.5,7.8-8.7,10.9,1.1,2.1.7,1,1.1,3.4-8.6,11.4-70.9,3.6-84.7,2.6-38.1-3.9-76.3-6.5-114.5-9.7-10.3-.3-23-6.1-32.5-7.3-10.8-1.3-13.4,4.5-26.4,1.2v-19.8c22.1-3.3,81.5,7.3,90.2,2.7-3.8-5.4-82.3-2-89.3-13.1-1.9-3-1.2-13.9-.2-17.5Z"/>
  <path fill="#99d70d" d="M1049.3,49.8c1.5-.4,1.1-.4,2.4-.2,5.6.7,10.6,3.8,13.8,8.5,3.8,5.7.8,16.1-.3,22.6-2.9,16.8-31.8,148.6-35.7,155.5-7.5,13.2-23.3,25.5-35.9,33.4-2,1.3-3,1.5-5.3.9-2.5-2.8-1.7-2.9-2.3-7.6-1.3-5.9-2.1-13.8-3-19.9,5.8-5.8,16.8-13.3,19.9-20.8,3.5-8.5,4.5-21.7,6.6-30.8,4.8-20.8,8.7-41.6,12.6-62.6,1.7-9.5,7.9-19.7,10.8-29,1.6-6.2-.3-17.2,1.5-24.5,6.4.8,13.2,4.9,18.7,2.2l-.4-.9c-8.2-.5-22.7-.5-17.5-14.4,2.8-7.3,7.1-9.7,14.1-12.4Z"/>
  <path fill="#99d70d" d="M805.7,927.8c10.3-1,53.3,3.3,66.5,4.3l84.2,7.3c25.1,2.1,54.9,5.4,80.3,5.4,6.2,0,29.7-6.6,34.3-5.2,2.1,3.8,2.7,19.1.3,22.5l-3.3.5c-22.3,10.9-76.5,3.6-101.7,1.3l-94.7-8.1c-20.7-1.7-41.4-2.8-62-5.1-6.4-.7-4.6-18.7-3.8-23Z"/>
  <path fill="#99d70d" d="M806.4,1063.6c10.1-.5,40.8,3.1,53,4.2l113.4,11.6c17.2,1.7,34.4,3.6,51.7,5.1,17.6,1.6,25.7-5.3,42.5-7,2.9-.3,4.1.7,5.8,2.3.6,4.8.7,15-.6,19.6l-2.2.8c-28.4,12.5-52.4,7.2-81.6,4.3-30.9-2.8-61.7-5.9-92.5-9.2-28.9-3.1-58.4-4.2-86.9-10.1-5.8-1.2-3.9-17.2-2.5-21.6Z"/>
  <path fill="#99d70d" d="M815,954.4c11.4.8,26.6,2.9,38.6,4l89.5,7.8c26.9,2.5,56.1,3.6,82.7,7.4,15.2,2.2,33.9-10.2,45-5.5,2.8,4.4,1.7,12,1.3,17.1-.3,3.1-2.9,4.4-5.3,6.2-28.6,8.3-41,6-70.2,3.1l-50.9-4.6c-42.9-3.8-98-6.5-139.6-13.2-.6-6.6-2.2-13.9.3-19.7,3.6-2.8,3.1-2,8.5-2.6Z"/>
  <path fill="#99d70d" d="M806.4,1092.2c12.2-1.3,113.2,7.1,119.2,11.8,1.1.9.8.7.8,2.1-2.5,1.1-1.3.8-3.8.4l.6.8c9.2,3.8,12.6-4,20.5-3.2,30.1,3.1,60.4,6.3,90.6,8.7,7.4.6,30.6-11.8,37.6-6.6,1.9,3,1.3,7,1.2,10.7,0,3.7.8,9.2-2.9,10.6-8,3.1-29.3,9.7-37.4,9.3-15.8-.8-32-3.1-47.5-4.7-34.4-3.3-68.7-7-103-11.2-22.2-2.5-56.2-3.8-76.4-8.3,0-5.9-.5-15,.6-20.5Z"/>
  <path fill="#99d70d" d="M822.6,983.4c7.3-.6,39.9,3,49.4,3.9,35.7,3.7,71.5,7,107.3,9.9,16.4,1.4,33,3.6,49.4,3.8,14.7.2,26.2-5.3,41.3-6.9l1.7-.2c2.9,23.5,4.6,22.6-17.2,28.3-10,1.4-20.4,4.8-30.7,2.7-27-5.7-202.2-14.3-213.6-22.3,1.7-2.2,3.4-1.5,6.6-3-5.5-.2-5.7.4-8.8-4.2-.1-8.7,9.2-8.9,14.6-12.2Z"/>
  <path fill="#99d70d" d="M809.4,1036.1c14.4-1.4,31.9,2.8,46.4,4.3,21.8,2.3,173.8,18.4,182.1,16.2,8.3-2.1,24.5-7.2,32.4-6.5.9,0,1,0,1.5.8,1.8,3.1,1.7,16.5.4,19.6-.6,1.5-.7,1.1-2.4,1.7-35.7,14.5-52.4,7.6-89.1,3.9l-114.5-11.3c-2.3-.2-8-.6-10.1-1.1-4.2-1.1-6.6-3.8-11.7-3.9-16.6-.3-21.5,2.2-35.1-7.8-1.3-4.2-.2-11.3,0-16Z"/>
  <path fill="#99d70d" d="M807.6,1009c15.2.8,31.1,2.4,46.3,3.9,11.3,1.1,31.3,2.1,41.9,4.8,1.1,1.8.7.8.5,3.3,7.4,4.6,9.7-2.7,14.4-2.4,30.8,2.2,61.9,6.2,92.8,8.3,16.1,1.1,26.3,5,42.8.3,4.8-1.4,21.1-4.6,25.7-3.4,1.2,3.2,1.7,16.3,0,19.5-.7,1.4-2.1,1.4-3.9,2.1-4.8,2-29.9,8.1-34,7.8-15.5-1.3-68.2-3.2-80.8-10.5-2.2,1.1-4.1,1.6-7.1,1.3-12.7-1.2-25.6-2.7-38.3-3.7-1.1-1.2-2.1-2.2-2.8-3-1.7-.2-3.1-.4-4.4.7-6.6,5.1-15.3-4.1-21.3-4.4-8.1-.3-18.5,0-26.8-.3-7.3-.2-14.5-1.1-22-1.3-7.1-.2-16.4.3-23.2-.9-3.1-3.4-2.4-18.5.3-22Z"/>
  <path fill="#99d70d" d="M808,37c7.9-.4,46.1,1.1,49.3,8.2-1.6,2.2-6.4,4.2-9,5.6-.8,7.7-1.1,12.3-1,20-1.7.4-17.2-2.1-20.6-2.7-10.9-1.9-19.3-.2-26-9.7.2-9.6-.7-15,7.4-21.4Z"/>
  <path fill="#99d70d" d="M853.9,211.2c1.5-.9,29.7-1.1,31.6-.3,4.7,5.8.8,19.3-2.7,25.1-1.3,2.1-4.9,1.6-7.1,1.7-9.2,1-30,4.8-35-4.9,0-.5,3.8-19.4,4.1-20,2.8-2.1,5-1.4,9.2-1.6Z"/>
  <path fill="#99d70d" d="M912.9,30.3c6-.4,16.2,2.7,11.4,7.9-9.8,10.8-5.8,23.9-11.9,34.4-17.6,9.4-13.1-17.2-10.7-25.9,2.6-9.2,3-11.6,11.2-16.4Z"/>
  <path fill="#99d70d" d="M892.5,29.7h1.3c4.1-.2,8.4-.8,11.3,1.8-1,2.1-4.3,9.2-4.7,11.2-1.7,8.2-1.4,22.9-4.7,30.2-3.5.2-5.4-.2-8.8-.6-9.8-7.1.4-34.5,5.6-42.6Z"/>
  <path fill="#f9fecd" d="M1064.1,1161.3c4-1.3,5.7-1.2,9.3.8,5.9,10.8-7.7,14.8-17.1,11.4-4.4,0-12.2,0-13.5-4.8,4.2-5.5,14.7-7,21.2-7.4Z"/>
  <path fill-opacity="0" d="M963.7,363.7c2.6,1,6.3,3.6,8.8,5.1,7.7.2,24.7-1,30.9,1.8l.6,1.8c-3,2.9-1.2,2-5.8,2.2-12.2,0-30.6,1.1-42.2.2l-.5-1.3c2.2-4.3,4.8-6.4,8.2-9.7Z"/>
  <path fill="#c2f44b" d="M912.2,857.7c3.9-.2,9.3,1.2,13.3,2.1,4.6,8.7,7.4,12,2.5,21.5-2.3,1.3-1.5.8-4.5,1-6.9-4.4-3.8-14.1-7.9-20.5.4.6-3.8-4.4-3.5-4Z"/>
  <path fill="#c2f44b" d="M847.6,279.8c7.8,3,30.2-2.8,32.5,5.7-2.1,4.4-.6,2.6-4.8,5.4-.7-.2-4.3-1.3-4.8-1.7-6.7-4.4-22.9-2.7-28.1-4.8v-1.5c1.2-1.6,3.3-2.2,5.2-3.2Z"/>
  <path fill="#99d70d" d="M978.1,209.3c6.2,2.2,16.5-1.8,17.3,6.7-1.7,4.5-1.9,4.6-5.7,7.8-1.4,2.3-1.3,2.2-3.5,3.9-8.1-.2-8.4-12.6-8.1-18.4Z"/>
  <path fill="#99d70d" d="M878.2,60.5c1.7,0,.8-.2,2.6.7.9,3.8,1.4,6.8-1,10.2l-2.9.3c-2.9-2.4-3.6-2.7-4.2-5.8,1.1-2.8,2.9-3.6,5.5-5.4Z"/>
  <path fill="#dffc86" d="M881.4,299.7c3.5-.5,2-.8,4.9.7.4,3.1.6,1.6-1.2,4.6-3.7,2.2-1.8,1.7-5.9,1.7-2.6-1.2-3.6-1.5-5.6-3.5l.3-1.4c2.8-1.5,4.3-1.6,7.5-2.1Z"/>
  <path fill="#bbf03b" d="M378.1,898.6c23.5-23.8,82.6-22,113.8-18.6-13.3.4-26.5,2.1-40.5,4.2-18.9,3-46.1,1.8-62.5,11.7-8.8,3.4-11.3,43.8-4.4,47.5,22.8,10.4,55.8,7.7,80.2,10.9,14.1,1.9,77,8,85.7-.3,1.3-11.5-5.3-13.8-7.3-24.6-.8-4.2-6.5-24.4-8.6-26.9l-3.1.3c0-4-.6-6.7-.9-10.5l2.6,1.3.6-1.1c-3.1-13.1.2-16.8-.7-27-1.1-11.7-2-5.1,6.6-13.4,1.2-1.2-.4-6.4.8-10.8.9,1.4.7,1.7.8,3.3l1.5-.3-.5-2.1,1.8.5.3-3.7c6-3.5,12.2-13,17.6-18.4,22.5-22.3,54-27.6,83.4-16.7,14.8,5.5,21.8,12.8,32.5,24,1.2,3.7,1.6,2.4.5,4.9-1.8-.9-9.2-8.1-13-10.8l-1.2-.8c-42.3-26.8-84.4-23.1-112.8,20.1.2,1.7.3,3.8.6,6.3-1.8,2.7-7.7,10-8.1,13.1-.8,6.7,1.9,33.9,4.8,38.3l1.4-.9,1,1.2c-.3,2.4-.6,2.6-1.9,4.7,7.2,7.8,2.7,23.8,5.9,31.4,13,30.6,17.6,47.2,10.1,79.9-3.3,14.5-11.2,36.3-4.1,49.6,1.5,2.9-1.2,20.1,0,24.7,12.8,46.5,29,95.3,21,144-1.6,9.6-10.5,30.7-4.5,36l-.8,1c-7.8,9.9-4.7,12.7-8.9,19.6l-1,.3-.3-4.9c-4.1,3.9-5.9,28.4-5.9,34.3-.1,30.1-22.1,49.8-29.8,76.9-2,7.1-3.7,19.9,6.1,21.9,2.4-.9,3.3-1.7,4.7-3.8,5.4-8,18.6-7.4,27.3-7.3,9.5,6.7,16.2,15.1,29.1,14.1,11.7-.9,29.5-7.6,37.9-15.9-.8,3.4-1.3,4-4.5,6-20.7,13.2-23,13.9-46.1,12.6-9.5-7-13.8-17.5-28.3-15.8-12.9,1.6-10.9,8.8-17.8,12.1-9.6-.4-8.3-6.4-15.6-.6-1.3-6.1-.7-12.5-.6-18.7-12.2-3.6-40.1-6.1-54.7-8.9-8.1,0-36.5-4.8-46.4-6.3l-98.5-15.6c-16.9-2.7-33.8-5.6-50.9-7.5-18.9-2.1-19.5,5.6-31.9,9.5-19.1,4.2-39.7-.2-58.8-3.1-5.7-.9-15.3-6.1-10.8-12.9,3.5-5.3,15.5-8,21.5-9.8-.3-5.3-.7-10.1-.5-15.4-.5-4-.4-4.6-2.3-8-2.7-9.5-1.2-18.6,2.9-27.5,10.9-8.4,31.1-11.8,44.8-14.6,4.6-.9,12.3,0,19.1-1.4,3.8-5.9-4.6-54.5-11.4-59.6-8.6,1.9-8.1,10.9-12.2,15.1l-1-1.2c11.3-27.4,2.4-23.2,2.7-48.6.4-31.1,5.7-64.8,11.7-95.3,1.1-5.5,4.6-8,6.8-13,5.7-12,12-23,15.5-36,7.8-29,5.4-55.3-.6-84.4-2.3-11.4-5.9-17.6-6.4-29.7,6.7-19.5,60.8-11.3,77.2-9.7,6.1,6.3,25.3,16.9,34,13.7,1.9-2.1,3.5-25.4,5.1-32.6ZM423.6,1288.8c3.5-12.2,5.6-34.7,7.2-47.8,4.2-33.2,8.8-66.3,13.7-99.3,1.6-11.3,6.8-45.3,6.8-55.9-9-7.8-11.9,1.7-16.8,5.1-34.8,23.9-37.8-44.9-11.5-49.8,10.6-2,18.1,12.8,25.8,17,8.4-5,3.4-20.1,11-25.2,1.3-.9,4.2-2.2,5.7-2.9,3.5-4.4,10.6-60.3,12-69.4l-1.2-.2c-27.4-4.3-64.7-1.2-90.5-11.4-5.6-2.2-9.4-6.8-13-11.4-19.4-4.1-22.6-6.7-39.9-14.7-6.8-3.1-33.1-4.3-40.7-3.5-37.3,2.4-23.2,15.2-16.9,43.7,5.2,23.9,4.2,42.9,2,66.7-2.8,29.5-27.3,50.1-28.5,78.4-1.4,31.3-14.2,75.6-4.5,105.1,3.4,2.9,6.7,5.8,10,8.8,5.6,21.3,7.9,40.6,9.7,62.6,30.6,7.4,78.5,12.2,110.8,15.4,5.5.5,42.1-9.2,48.9-11.4ZM532.3,1035.5c6,6.6,8.1,9.5,7.2,19.3-1.2,13.1-5.3,25.7-5.8,39l13.2,1.6c3.3.2,6.7,1,9.3-.6,1.3-5-2.8-25.7-3.1-33.8-.9-27.1,11.5-73.3,3.6-97.4-4.9-.2-10.9-.6-15.7-.4-1.7,6.3-2.8,23.3-3.5,31-1.4,13.8-3.1,27.7-5.2,41.4ZM526.9,1146.9c-3.4,12.2-6.1,35.2-7.6,48.5-2.6,21.6-6.2,46.6-7.5,68.2,12.5-2.4,29.4-6.1,41.5-9.9,5.9-1.4,13.1-4.2,18.7-6.7,8.9-30.3,4.2-65.1-1-96-13.9-1.4-30.2-3.3-44-4Z"/>
  <path fill="#99d70d" d="M481.1,963.8c9.9.4,47.3.7,54.7,2.5.3,12.4-9.4,71.5-7.6,75,1.9,1.5,6.4,4.4,6.2,6.8-.8,8.7-2.7,25.5-4.9,33.4-7,25.9,15.1,13.7,24.6,20.1,4.6,3.1,12.3,36,14.3,44.3-16.9,1.8-29.6-2.4-45-2-4.4,17.8-17.1,106.8-16.3,125,20.3-3.9,40.5-8.7,60.4-14.3.4,5.8-1.2,15.9-2.1,22-15,3-49.9,11.3-62.9,17.8,16.5-1.6,38.7-6.8,55.4-10.4.5.3,1,.6,1.5.8-.3,7.5-4.5,26.7-5.6,37.9-9.2.4-31.9-3.5-42.1-4.9l-58-7.8c5.7-1.9,9.9-2.9,14.9-6.3v-.6c-6.3.4-22.4,3.4-26.7,7.8l.2,1.8c6.2,4.9,20.7,5,28.8,5.5l.3,3.5c3.2,1.9,49.9,9.3,55.2,8.7-4-2.6-15.3-1.1-19.5-3.8,2.9-1.5,5.6-1.7,9.6-.4,8,2.6,15.5-.4,23.4,4.3,1,.6,8.5-1,10.8,2.5l-1.2.9-2.5-.6c-.2,3.8.4,4.6,1.7,8-2,4.7-5.8,13.1-9,17-.2-.9-.3-1.7-.9-2.5-2.5,6.8,4.4,1-2.8,7.7h-1.5c0,.1-1-1.6-1-1.6-2.9,4.4-5.8,8.8-8.7,13.2l1.6,5.8c-2.7,3.9-7.9,13.1-11.6,13.3-16.4.7-29.1-2-46.5-1.5-8.1,0-36.5-4.8-46.4-6.3l-98.5-15.6c-16.9-2.7-33.8-5.6-50.9-7.5-18.9-2.1-19.5,5.6-31.9,9.5-19.1,4.2-39.7-.2-58.8-3.1-5.7-.9-15.3-6.1-10.8-12.9,3.5-5.3,15.5-8,21.5-9.8-.3-5.3-.7-10.1-.5-15.4,7.6-11.7-5.1-32.8,16.8-37.4,11.6-2.4,28.6-8.2,40.9-6.7,12.6,3.7,14.6,4.7,28.5,6,31.8,3,64.5,12.3,96.9,12.6,8.7,0,19-5.1,27.6-6.3,6.9-.6,25.1-3.3,27.4-11.3,6.3-22.9,6-47.8,9.9-71.8,4.7-29.1,9.7-61.1,14.8-90.1,1.9-11,7-44.9,0-51.2-14.2-5.6-24.8,18.2-37.1,14.8-8.9-2.5-5.9-26.9-3.5-33.6,1.8-5,11.3-11.8,16.4-8.2,7.9,5.5,10.1,20.9,23.6,18.2,8.8-1.8,3.7-27.7,12.9-31.4,10.2-4,34.6,5.6,43.3,0,1.1-1.9.5-11.1,1-14.9,1.3-10,6.1-36.9,4.9-46.4-4,9.8-7.1,47-8.6,59.8-10.7-.7-24.9-1.2-35.2-3.2,3.4-22.6,3.9-43.1,8.6-66.8Z"/>
  <path fill="#bbf03b" d="M221.2,1297c5.5,3,46.2,6.1,56.2,7.6l216.5,31.2c8.6,1.3,16.9.7,25.7-.2,1.9,1,3.6,1.9,4.9,2.6h-.4c3.1,2.8,3.8,3.5,7.9,4.5l8.2,2h.8c-5.7.9-19.9-1.6-26.3-2.1-35.1-2.9-69.8-9.5-104.8-13.2-8.5-.9-18.1,4.3-26.6-.5-15.3-8.6-37.2-9.4-54.4-11.7-23.6-3.1-47.1-6.6-70.6-10.5-8.2-1.3-29.6-4.9-36.9-7.3l-.2-2.3Z"/>
  <path fill="#bbf03b" d="M508,1048.5l1.2,1.3c1.6,7.5-3.8,39.4-5,49.2-7.4,63.7-16.5,127.1-27.4,190.3l-.7.3-1-1.9c4.2-36.9,9-73.6,14.4-110.3,5.1-36.9,9.7-74,15.6-110.8,1-6.5.5-11.7,3-18.1Z"/>
  <path fill="#bbf03b" d="M255.1,57.6c1.1-2.6,4.7-11.5,7.2-13.1,17.5-11.3,46.6-15.6,67.2-15.5,6.8,0,12.6,8.7,15.8,13.1,14.7-1.6,35.2-10.2,48.7-2.3,9,6,9.4,20.6,2.8,28.4-8.2,9.7-29.6,9.3-41.9,10.6-6,31.1-21.4,23.7-33.9,45.7-2.6,4.5-2,25.6-3.3,34l-.2,1.5c19,15.2,60,42.4,81.8,48.9,21,6.2,47.3,12.1,69.5,18.2,18.3,5,50,15.5,67.5,18.2.5-9.3,3.3-15.5,4.1-23.9.6-6.1-1.6-13.3-.4-20.3,1.5-8.5,7.5-19.8,9.1-27.6,2.5-12.1-1.8-24.2,6.3-36.3,5-7.6,12-13.2,20.9-15.6-.5,2.9-.7,4.5-.8,7.4,3.1,2.9,15.8-1.9,20.9-2.4,23.1-2.1,59.7,8.2,77,23.5,22,19.5,24.9,53.6,15.3,80.1-1,2.7,1,13.1-.6,16.6-13.3,25.9-27.3,37.8-22.3,69.5,4.1,26.1,13.9,22.8,32.4,37.2l-2.2,5.3c2.5-.6,3.5-1.4,5.7-2.7-1.5,3-2.3,5.7-5.2,7.2-3.2-1.1-2.4-1-5-3.9-1.1-4.7-.3-5.2-3.2-7.8l-1.4,1.8c-5.6-4.2-18.2-12-19.7-18l.9-2.7c-1.6-2.6-4.4-1-5.2-3.5-1.1-3.9.4-11.5.6-15.7-.9-.7-1.8-1.3-2.7-2,.4-6.2-.2-19.9-.5-25.2,1.4-2.6,3-9.4,4.3-10.3.8,4.3-3.2,3.2-.9,7.3l1.4.4c.8-1,16.6-34.6,16.5-33.9.8-20.9,12.4-37.9,10.6-58.7-.6-7.2-4.9-5.7-6.9-11.3l.5-5.5c-1.5-1.7-.6-1.1-2.4-2,.2-4.3.9-2.8-.9-5.6-2.3,1-1.7.6-3.4,2-5.3-15.5-9.9-18-24.9-25.4-22.9-11.4-47.5-17.4-72.8-11-7.5,1.9-20.3,11.5-23.1,19-2.6,6.7,2.3,16.8.5,18.9-7.2,8.5-7.6,20.9-12.5,30.7-1.3,2.6-1.7,5.3-.7,8.1,4.6,13.6-2.5,20.1-2.5,26.2,0,19.4,3.6,45.8,8.2,64.8,1,4.3,11.6,12.2,12.6,14.3,2.7,6,1.9,20.6-1.1,26.3-6.1,4.8-28.1,14.4-35.5,15.9-14.3-7.2-32.8-21.5-48.2-25-15.7-3.6-44.4-1-60.8,2,2,3,13.3,18.8,13.1,21l-1.7-3.3-2.1.4c-11.1-14.9-8.7-18.1-26.2-27.8-2.3-5-2.3-6.5-7.2-9.1-7-3.8-13.7-7.7-21.5-10-19.1-5.3-45.8-6.8-65.5-3.7-.4.1-.9.3-1.3.4l.6-1.3c7.9-2.6,16.4-2.5,24.6-4.4.5-12.7-4.7-23.4-5.1-35.9-1.9-2.7-1.7-2.6-4.4-4.5l-1,1.2c-1.5-9.6-3.1-24-7-32.8-4.1-9.4-1.3-28.6-3.9-40.6-.8,3.1-1.2,5.3-1.7,8.5.1-4-.6-32.6-1-32.9l-1.6.3c-.7-8.4-.3-11.8,4.3-19.1,2-3.2-1-17.3.6-20,7.8-13,24.4-20.6,34-31.9,1.3-1.5-3.9-20.9-3.3-24.9.2-1.3-1.1-2.2-2.5-2.8l-1.9,2.1-.9-1,.7-3.9c-3.9-3.4-19.6-9.8-25.2-10.6-1.1-.2-1.8,1-2.8,1.9-3.2,10.7,1.2,14.5,10.6,18.3,2.6,3.6,2.1,1.7,2.1,5.6-4.1,6.4-16.5,7.6-24,12.4-4.3,2.8-14.6,14.5-15.8,15,.3-9.1,9.4-10.6,10.5-16.5-4.2-3.4-10.5,1-16-1.1-2.2-2.1-1.9-2.2-3-5.1-5.2-3.3-14.2,5.3-16.9-11.6-.5-2.9-27.2,3.9-30.7,4.3-2.1.3-9.7,2.2-10.5,3.6-.3.5-2,3.5-2.3,4.1-4.9,3.5-25,5.8-31.3,5.9-11.1-7-18-13.8-30.6-12.8-7.6,7.4-9.1,8.9-10,19.9-.3,2.8,3,5.5,5,6.9,19.9,13.8,41.8,25.1,62.4,38,12.1,7.6,25.3,13.3,36.9,21.9,2.9,2.1,3.5,2.1,7.2,2.6l1.2-.8c.9-4.4,4.1-21.9,3.5-25.5-4.2-4.5-44.9-28.2-52-31.3-5.6.7-18.2,3.3-22.4,1.6l-1.1-1.3c2.7-2.7,28.4-7,33.3-7.1,3.2,1.9,7.3,5.9,9.9,5.1,9.4-3,22.6-5.9,32.6-4.9,1.6,1.5,7.6,27.2,7.2,30.4-2.9,27.4-10.5,57.2-15.6,84.4-3.2,16.9-7.7,29.7-8.9,46.7-1,17.7,4.8,37.2,7.3,53.5,0,18.4-2.5,22.6,11.3,36.8,5.7,5.9,21.6,11.3,24,14,24,27.1,49.1,49.2,82,65.3,20.2,9.8,49.8,4.8,68.3,15.6,4.9,2.8,7,37.5,8.9,43.9,14.6,50.3,24.1,93.9,17.7,146.8-1.5,12.4-4.5,26.3-5.3,38.9-.6,8.4,1,30.3,0,33.6-2.2,1.9-1,1.2-4.1,1.5,1-12.6-1.6-30.1.1-41.8,4.2-28.3,7.2-54.6,6-83.2-.3-8.1.1-15-1.3-23.3-4.2-24.6-13.9-47.7-18.3-72.3-1.7-6.6-3.4-38.2-10.2-41-17.8-7.2-49.4-8.8-67.7-17-30.2-13.5-48.3-33.5-71.3-55.6-12.6-12.2-30.7-17.1-41.1-31.8-7.2-10.2-5.2-23.5-6.5-35.9-1.6-14.6-4.8-29.9-4.8-44.5,0-31.8,10.2-64.1,15.8-95.9-7.2-3.1-22.2-12.4-29.8-16.5-25.1-13.4-49.6-28.6-73.6-43.8-5.4-3.4-10.3-7.9-11.2-14.4-.8-6,1-13.1,5.1-17.8,15.3-17.6,30.5,2.5,46.9,5.3,4.4.8,11.3-.2,15.8-.7,18.1-17.3,29.7-9.4,51.2-19.8ZM340.5,291.9c33.3,6.4,51.2,13.9,77.5,34.6,38.7-3.7,71.3-5.4,103.3,21.2,1.1.9,2.1,1.8,3.1,2.7,8.3-3,18.6-6.3,26.7-9.7,18.5-10.9.8-27.6-6-38-1.4-2.2-4.1-13.8-4.9-16.9-19.2-3.5-45.8-12.7-65.8-17.6-33.3-8.2-68-17.3-100.3-28.8-15.1-5.4-41-25.2-53.3-28.4,3.4,25.7,15.6,49.4,19.7,80.8ZM227.5,107.3c4,4.7,10,9.1,15.2,12.6l14,6.2c-.5-7-.1-18.1-4.8-22.9-2.7-.6-1.8-.5-4.6-.4-7.9,1.2-12.2,2.3-19.9,4.5Z"/>
  <path fill="#99d70d" d="M319.1,170.9c2.1,1.7,23.9,14.3,27.9,16.6,14.1,7.9,31.5,19.3,45.9,25.5,6.9,3,26.7,7.7,34.7,9.8l63.3,16.6c8.9,2.4,36.5,8.8,43.3,12,4.7,5,5.5,21.7,5.3,28.6-4.6-.3-21.8-5.3-27.2-6.8l-57.6-15.8c-21.3-5.8-53.4-13.1-73.4-20-6-2.1-54.4-29.8-59.4-34-3.2-7-3.6-25-2.8-32.7Z"/>
  <path fill="#c2f44b" d="M323,33.9l1.5.3c10.3,2.5,12,2,16.3,11.1.2.4,2.1,2.5,2.3,2.5,13.3-1.3,28.8-7.9,42.3-4.6,13.5,3.3,7.1,15.5,5.2,22.9-4.1,2.6-11.6,2.8-16.3,2.1-1.8,1-28.6,8.4-28.6,8.4-1.1-7.8-1.5-11.7-4.4-19l-.6-1.5c-6.9-3.2-20.9-6.3-24.7-12.3l-.3.6c-2.5,1.3-1.3.7-4.8.2l-.4-1.2c2.7-3.9,8.3-7,12.5-9.5Z"/>
  <path fill="#c2f44b" d="M292.5,43.8c-11,12.1-.1,31.9-6.5,37.7-14.8,3.1-11.4-13.8-13.5-24.4l-.9-.3c-1.4,4.3-.8,9.8-.3,14.4l.2,1.9c-4.3,6.1-14.6.7-11.3-7.7,2.6-6.4,5-13.1,10-18.2.4-.4,8.2.9,8.7-.5,4.3-2.7,3.2-4.1,7.7-6.6,4-.5,4.5-.1,8.4,1.4l-2.5,2.5Z"/>
  <path fill="#99d70d" d="M294.9,41.3c3.3-4.4,8.9-6.6,14.3-5.3,3.8,4.7-2.7,10.4-4,15.3-1.8,7.4-.2,19.3.6,26.8-3.3,1.6-7.8,4.3-11.2,4.4-8.1-6.5-4.9-29.6-2.1-38.7l2.5-2.5Z"/>
  <path fill="#99d70d" d="M305.8,60.8c5.6,7.2,13.1,5.7,11.7,14.5-4.6,1.4-4.7,2.1-8.2.7-3.2-3.9-3-9.9-3.5-15.2Z"/>
  <path fill="#c2f44b" d="M771.9,508.8c5.7-8.3,9.1-26.5,12.4-30.6v4.6s1.6.8,1.6.8c4.6-2.8,2.6-5.9,8.3-10.3-5.3,13.1-13.6,37.1-19.2,48.3-7.9,18.7-31.9,52.9-44.9,69.1-22.1,21.2-27.3,54-28.9,82.8-.5,8.6-3.6,17.8-3.5,26.6-.2,23.6,7.2,35.7,17.5,55.9l3.7,7.7c11.6,27.1,17.9,79,5,106.3-.5,1.3-1.1,2.4-1.4,3.7v1.4c-.1,0-1.9,2.8-1.9,2.8,1.7,3.6,12.8,6.6,15.1,9.5,9.7,12,11.2,48.1-2.9,56.7-9.9,6.1-58,6.5-63.7,12.3-.5,2.7-.8,2.1-.2,4.5,5.4,11.4,10.2,26.5,13.4,38.8,1.9,7.5,3,17,5,24.1,0,8.1,0,17.1,0,25.3,0,26.5-8,54.2-13.7,79.7-3.8,16.9-31.5,116.2-25.6,125.7l4.6,1,.6,1.2c-2.7,2.7-3.4,3.3-6.5,5.6,1.5,13.9,3.9,37,11.3,48.6-7.9,6.6-4.5,27.1-2.1,35.9l-.8,1.5h-1.1c-4.9-11.5-1.2-30.1-3.7-40.9-2.7-11.8-11.4-32.4-10.6-45.3.6-10.2,3.5-26.8,4.7-37.5,3.6-33.1,14.2-66.5,22.8-98.7,1.5-5.6,1.9-13.6,3.5-19.4,3.3-12.1,6.6-24.8,8.6-37.3,5.3-32.2-2.8-70.1-13.7-100.9-2.2-3.5-7.3-15.9-5.9-19.9,4.1-2.7,11.4-.9,17.4-1.9l1.1-.2c14.3-1.7,32.4-4.2,46.5-6.6,16-2.7,12.9-29.6,10.9-41.9-3.1-4.2-4.9-5.2-8.9-8.4l-2.8-.5c-2.2-4-1.1-3.4-4.3-4.4-7.2,1.9-5.9,9.6-14.1,8,5.5-9.1,12.6-25.4,15.6-35.7,7-15.8,1-53.9-1.4-71.7-.3-2.4-4.5-12.2-5.5-15.7l-.4-1.6c-8.4-10.8-13.3-25.1-17.6-38-2.4-7.2-9.4-23.6-7.1-31,8.8-28,2.6-57.7,15.4-84.7,6.5-13.6,16-23.9,25.2-35.7,15.3-20,32.3-45,41.8-68.4,0-.4.2-.7.3-1.1Z"/>
  <path fill="#bbf03b" d="M165.4,1195.8c-.1-12.6,2.9-25,2.1-37.8-3.5-53.4-15-106.2-17.4-159.8-.6-13.8,0-27.9,1.4-41.7.9-8.9,2.5-17.9,2.6-26.9.4-23.4-1.1-72.1,12.7-91.8,11.1-15.9,104.4-64.7,125.1-73.6,12.5-5.4,26.7-10.1,40.1-12.7-7.3,8.2-34.8,17.4-37.7,20.9l.8,1.5c2.4.2,2.5,0,4.9-.8,6.5,5.2,15.5,9.4,20.6,14.7,5,5.2,10.8,14.2,14.9,20.7,6.7,10.3,21.7,22.5,21,35-.3,4.7,10.1,15.2,7.8,19.4-5.4-3.8-3.8-11.4-7.5-11.3l-2.1,1.4-3.2-2.2c-.7-5.8,4.6-2.7-1.8-8.5,2-2.7,1.5-5.8-.4-8.7-17.2-25.9-37.6-47.7-68.2-58.8-.3.2-.6.4-.9.7-9.4,6.3-21.2,9.8-31.5,14.8-12.3,6-69.2,37.7-77.1,46.8-4.2,4.8-6.2,11.6-7.5,17.7-3.9,17.8-5.7,39-5.6,57.2,0,7.8,2.2,15.1,1,22.9-3.3,22.3-5.7,46.4-4.7,68.9.7,13.2,1.8,26.3,3.3,39.5,2.6,21.7,22.4,145.3,7.2,152.7Z"/>
  <path fill="#bbf03b" d="M642.2,1419.9c-1.7-11.1-2.1-29.2,4.5-39.3,4.3-6.7,8.1-12.8,6.5-20.9-1-5.3-4.5-7.1-4.1-12.5l2.4.8.6-1.4c-1.5-2.3-.5-1.3-4.2-2.3-3.3-5.4.2-38.9-6.7-45.1-1.7,2.2-.8,1.7-3.4,2.7-2.2-1.9-5-4.2-8.1-6.8-1.2-8.6-2.6-13.2-8.2-20.3-6.8-8.7-20.7-10.8-31.2-10.4-4,.2-6.6,2.1-12,1.7l.2-2.4,1.5-1.2c8.4,1.1,9.3-1.8,16.7-.5,12.9,2.4,32.1,4,34.5,20.2.4,3,1.5,9.1,3.3,11.4,2.3,1.2,3,1.5,5,3.1l1.4,1.1c3.4-4.4-2.1-24.7-2.2-30v-1.1c-1.1,3.2-1.7,6.7-2.3,10l-.8-.7.3,1.2.9-2.3-1.4-.6c-.5-5.4,1.1-4.5,1.4-8.6.9-11,1.2-22.1,1.6-33.1l.2.2.4,1.5,1.1.3c2.7-4.8.9-12.2,1-18.1.2-6.7,1.3-11.5,2.3-17.9.6-3.8-.6-7.4.3-11.9,2.1-.7,1.6-.5,3.5-1.6,0-6.8,12.2-50.9,15.6-59.8,2.2-5.6-2.1-.5-.7-4.6.4-1.2,1.9-5.5,2.3-6.8l3.3-1.1.5-1.3c-2.5.3-1.7.7-3.2-.3-.2-3.5,8.8-38.2,9.8-47.3,4.1-37.6-5.4-59.2-12.3-93.3l-2.2,1.6-1.2-1.7c.4-2.8,1-4.2,1.8-6.9-6.5-10.1-5.9-28.2-.6-38.4,2.8,2.9,2.1,16.5,2.1,20.8,5.3,0,10.5,0,15.8.1l-1.1.2c-5.9,1-13.2-.8-17.4,1.9-1.5,4,3.6,16.4,5.9,19.9,10.8,30.8,18.9,68.7,13.7,100.9-2,12.4-5.2,25.2-8.6,37.3-1.6,5.9-2,13.8-3.5,19.4-8.6,32.2-19.2,65.6-22.8,98.7-1.2,10.7-4.1,27.3-4.7,37.5-.8,12.9,7.9,33.5,10.6,45.3,2.5,10.8-1.2,29.4,3.7,40.9h1.1s.8-1.5.8-1.5c2.9,7.8,6.8,16.2,3,23.9-2.9,5.9-9.3,12-11.4,17.5-3.8,10.4-1.7,20.9-5.4,31.8Z"/>
  <path fill="#bbf03b" d="M18.8,1319.4c-10.3-11.8-3.7-29,11.2-32.5l.2,2c-3.6,3.4-4.5,4-7.1,8,.3,1.9,2.5,4.6,4,5,5.6,1.3,12,11.7,15.7,12.9,25.9,9,54.9,8.4,81.5,2.8,3-.6,3.8.4,5.9,1.6l1.2-.5c-7.6,8-7.2,8-18.4,9.3-3.1.4-5.4,4.2-13,3.8-6.1-.4-27.6-1.1-31.4-5.6l1.2-2.6c-9.6-1.6-22.4-2.9-30.5-8.5-6.7-4.6-10.8-16.1-20.3-11.6-1.7,7.2,3.8,10.8-.2,15.9Z"/>
  <path fill="#bbf03b" d="M705.5,892.4c8.2,1.6,6.9-6.1,14.1-8,3.3,1,2.1.4,4.3,4.4l2.8.5c-26.5,8-14.4,15.2-32.1,31-6.9,6.1-12.7,10.4-19.3,17.6,5.8-11.1,13.4-22.9,20.5-33.3,3.2-4.7,6.5-7.1,9.6-12.2Z"/>
  <path fill="#c2f44b" d="M664.2,821.3l1.2.8c3.8,2.7,11.1,10,13,10.8,1.1-2.5.7-1.2-.5-4.9,3.8,2.8,8.8,14.1,8.8,19l-1.3,1c-2.1-2.4-2.2-3.4-3.5-6.3-2.9-.4-1.4-.4-4.4.7l-.5-.8,1.9-1.8-1.4-2.9c-2,1.4-2.1,1.6-4.3,2.5l-1.3-1.4c.2-2.8.5-4.2-.5-6.8-4.4-3.9-5.7-3.9-7.2-9.8Z"/>
  <path fill="#bbf03b" d="M440.3,373.6c1.7,5.1-.4,15,1.2,19.4,10.5,29.3,9.4,62.2,20.5,90.4,2.9,7.5,13.4,1.9,15.8,13.6,8.2,2.9,36.6,1.3,46.4.9,4.9-.2,15.1-7.5,19.8-9.9l.9.8c-1.5,6.2-20.7,13.3-26.7,14.7-62.8,13.3-62-11.2-69.9-65-1.2-8.2-3.2-17.2-5.1-25.3-13.5-.4-24.6-7.4-34.5-16.1,12.1,6.3,21.3,9.9,34.1,14.7-3.8-16.3-4.1-21.2-2.5-38.1Z"/>
  <path fill="#c2f44b" d="M708.3,454.2c2.6,3.7,1.7,3.5,5.2,5.1-35.4,58.8-63,63.3-128.8,46.8,2.2-1.6,8-.1,11.2.1,21,1.6,47.7,3.6,67.5-4.8,17.7-7.5,33.6-31.9,44.9-47.2Z"/>
  <path fill="#bbf03b" d="M464.1,709.6l.6-.2c31.5,10.5,62.2,8.2,93.7,11.3,18.8,1.9,105.2-4.5,112.9-1-2.5,1.6-1.5,1-5,1.2-2.8-1.3-3-.4-5.6-.3-38.6,1.8-77.6,8.9-116.3,6-21.8-1.7-44.3-3.2-64.9-10.6-4.1-1.5-12.2-4-15.4-6.5Z"/>
  <path fill="#bbf03b" d="M452.7,895.8c4.8,0,9.6,0,14.4.5,5,.5,41.8,12.2,43.8,14.6l.2-1.2,1.7.6-.4.6c-12.8.4-33.1-2.2-47.1-2.8-14-.7-52.2-6-66.3-8.1,5.2-.4,12-1.5,17.5-2,9.8-.9,28.2,1.7,36.1-2.3Z"/>
  <path fill="#bbf03b" d="M586,1027c5.7,10.9,8.6,103.8,2.7,111-3.3-16.9-1.3-50.9-1.7-69-.3-11.2-3-32.3-1-42.1Z"/>
  <path fill="#bbf03b" d="M398.9,381c-27.7-1.5-43.8-8.3-63.2-28.4-1.9-1.9-3.2-3.3-3.2-6.2,3.4,1.7,13.3,10.7,17.4,13.3,14,8.6,32.6,15,48.5,18l18.1.5c-5.8,1.7-11.4,3.7-17.5,2.9Z"/>
  <path fill="#bbf03b" d="M209.4,968.6c1.4,3.6-2.1,13.1-2.8,17.6-3.5,23.8-1,56.6,6.6,79.3l-1.8-.7c-16.7-36.7-14.6-60.2-1.9-96.2Z"/>
  <path fill="#bbf03b" d="M708.3,454.2c3.1-5.9,20.4-22.4,25-29.6,6.3-9.9,10.5-20.1,17.2-29.6l.7.2c-8.6,21.5-15.3,37.7-30.6,55.6-1.1,1.2-6.1,7.8-7.1,8.5-3.5-1.6-2.6-1.4-5.2-5.1Z"/>
  <path fill="#bbf03b" d="M676.4,364.4c1.9,0,.9-.2,3,.7-3.7,3.8-67.6,10.1-85.3,23.2l-1.5.8-.4-1.1c10.1-16.7,64.4-19.8,84.1-23.6Z"/>
  <path fill="#bbf03b" d="M572.8,410.1l.6.4c-1.9,4.4-6.8,12.5-7.9,16.8-4.9,18.6-12.3,40.2-6.6,59.4.2.6,6.7,9.5,7.6,10.8l-.6,1.3h-.4c-9.2-12.4-11.9-17-11.7-33.8.2-14.5,8.6-44.9,19.1-54.8Z"/>
  <path fill="#bbf03b" d="M858,369.1l.6.9c-11.8,18-49.3,25.3-69.4,23.6l-1.2-.5.3-.9c8.4-1.8,16-1.5,23.7-3.3,19-4.3,29.8-9.4,46.1-19.8Z"/>
  <path fill="#bbf03b" d="M509.3,358c9.6.7,42.2,12.6,50.8,18.7,5.2,3.6,6.7,5,7.9,10.9-11.3-12.9-41.3-21.6-58.7-29.6Z"/>
  <path fill="#bbf03b" d="M557.1,536.5c21,0,43.1,13.8,53.1,32.2-4.4-1.3-16-16.4-23.4-20.2-10.2-5.2-18.9-8.5-29.7-12Z"/>
  <path fill="#bbf03b" d="M547,649.7c1.6-.1,12.6.4,13.8.6,5.6,1.3,27.9-1.5,31.1.5-11.2,4.8-34.5,6.2-44.8-1.1Z"/>
  <path fill="#bbf03b" d="M550.8,595.9c2.6-.3,45.3,7.7,45.9,8.1-6.8,6-38.2-3.8-45.9-8.1Z"/>
  <path fill="#bbf03b" d="M592.3,865.3l2.7.8c0,2.1-2.1,2.5-4.8,4.1-10.4,6.2-13.6,10.3-19.3,20.7l-1.2,1.7c-1.8-12.6,11.6-23.9,22.6-27.3Z"/>
  <path fill="#bbf03b" d="M515.6,535.5l.4,1.2c-18.5,9.5-22,9-34.3,28.8l-1.1-2.1c1.6-12.9,23.2-26,35-28Z"/>
  <path fill="#bbf03b" d="M785,416.7l.5.3c-7.1,7.1-27.1,13.1-37.1,14.7-.7-.9-.3-.3-.9-2.2,11.7-7.4,30.5-7.8,37.5-12.8Z"/>
  <path fill="#bbf03b" d="M199.1,859.9c2.1,1.7,3.6,5.6,4.9,8.4-1.4,7.2-4.8,17.2-6.7,25.2l-1.7.3c-3-4.8,4.1-22.9,3.5-33.9Z"/>
  <path fill="#bbf03b" d="M622.5,660.8c.6,12.5-13.8,36.6-22.1,45.3-.3-5,13-24.2,15.5-30.4,1.8-4.3,4.7-10.2,6.6-14.9Z"/>
  <path fill="#bbf03b" d="M537.6,547.5c1.8,2.7,0,13.4-.3,17.3-.6,6.4.2,12.6-.4,18.7l-1.2.6c-3.9-12.7-4.4-24.3,1.9-36.5Z"/>
  <path fill="#bbf03b" d="M480.6,626.8c3.9,3.9,3.5,9,6,14.5,5.5,4,23.4,3.1,31.7,5.6-17.6,6-35.7,1-37.7-20.1Z"/>
  <path fill="#bbf03b" d="M475.9,654.7c.6.6,1.2,1.2,1.8,1.8,1.4,8,1.2,31.9,1.2,38.7-5.6-9.6-4-29.8-3-40.5Z"/>
  <path fill="#bbf03b" d="M917.2,126.7c4.1,5.3,6.6,32.1,6.1,39.5l-1-.9c-3.4-8.2-5.6-29.5-5-38.6Z"/>
  <path fill="#c2f44b" d="M900.6,278c2.3,3.2,5.4,28.2,5.3,33.1-6.7-3.1-7-26.4-5.3-33.1Z"/>
  <path fill="#bbf03b" d="M625.1,330.9h.8c-4.4,13.3-13.6,25.1-21.6,36.5l-1.3-2.3c4.5-8.2,19.5-27.9,22.1-34.2Z"/>
  <path fill="#bbf03b" d="M287.4,133.4c.6,5.4-.5,35.3-2.7,39.4-3.1-10.3-.6-29.5,2.7-39.4Z"/>
  <path fill="#bbf03b" d="M532.7,607.3c3,4.9-.1,23.8-1.2,30-4.6-7.4-2-22.1,1.2-30Z"/>
  <path fill="#bbf03b" d="M517.9,592.3c.5.2,1.1.4,1.6.7l-.4,1c-6,2.5-16.5,4.4-23.7,6.6l-1.4-.4-.2-1.3c5.3-5.1,16.9-6.2,24.1-6.6Z"/>
  <path fill="#bbf03b" d="M635.4,931.6l.7,1.9c-2.3,11.1-4.4,19-10.4,28.8l-1.3-1.3c3.2-8.3,6.7-24.2,11-29.5Z"/>
  <path fill="#bbf03b" d="M508.2,916.8c2.3,2.3,2.2,26.6-.5,29.8-2.9-7.9-2.5-22,.5-29.8Z"/>
  <path fill="#bbf03b" d="M279.3,130.5l1.3,1.7c0,9.4-1.4,18-3.4,27.2-2.1-6.8-1.8-22.8,2.1-28.9Z"/>
  <path fill="#bbf03b" d="M694.3,527.5l-.7,2c-8,6.3-16.5,5.8-26.2,5.2v-1.1c2.3-2.3,18.4-1.9,26.9-6Z"/>
  <path fill="#bbf03b" d="M699.1,553.2l.4.6c-8.4,6-15.7,5.5-25.6,5.7l-.5-.9.6-1.4c3.2-1.2,18.8-2.7,25.1-4Z"/>
  <path fill="#bbf03b" d="M574.4,342.1c1,9.1,8.5,16.4,5.8,28.4l-1.4-1.1c-2.9-6.3-4.7-20.5-4.3-27.3Z"/>
  <path fill="#bbf03b" d="M925.6,125.4c5,3.8,5.1,20.9,4.5,26.9-2.9-2.9-4.2-22.1-4.5-26.9Z"/>
  <path fill="#bbf03b" d="M655.6,1058.3c2.4,11.6,1.4,22.8-.7,34.2h-1.5c-.5-1.2,2-30.1,2.2-34.2Z"/>
  <path fill="#bbf03b" d="M620,599.1c6.1,3.1,8.2,14.7,7.5,21.1-3.8-2.9-6.1-15.7-7.5-21.1Z"/>
  <path fill="#bbf03b" d="M278.8,348.6c4.8.7,19.3,4.6,22.5,8.5-9.2,1.2-15.4-3.3-22.5-8.5Z"/>
  <path fill="#bbf03b" d="M930.6,366.5l.3.4-.7,1.3c-6.3,3.8-12.7,5.4-19.9,6.1-.3-.4,0,0-.5-1.7,6-2.7,14.2-4.5,20.8-6.1Z"/>
  <path fill="#bbf03b" d="M573.2,913.7l1.9,1c2.7,4.5,6.7,11.3,6.6,16.4l-1.8-.6c-4.1-5.5-6.1-9.9-6.7-16.8Z"/>
  <path fill="#bbf03b" d="M649.2,473.3c4,1.4,4.2,1.5,4.8,5.4-2,2.5-.7,1.5-4.2,2.5-2.7-1.1-4.1-1.4-5.8-3.7,1.3-2.6,2.2-2.4,5.2-4.2Z"/>
  <path fill="#bbf03b" d="M637.7,891.3c4,7.7,1.5,12.3-1.2,20.1-2.4-5.7-.3-14,1.2-20.1Z"/>
  <path fill="#bbf03b" d="M304,266.3l1.1,1c1.8,5.9,3.5,12.8,3.2,19l-2-1.4c-2.5-6.6-2.5-11.5-2.2-18.6Z"/>
  <path fill="#bbf03b" d="M163.3,80.7c3.1,6.7.4,10.7-4.1,16-.3-.7-.6-1.3-.8-2,2.8-6,3.3-7.7,4.9-14Z"/>
  <path fill="#bbf03b" d="M690.6,576.1l2,.7.2,1.3c-2.8,2-4.2,2-7.5,2.5-1.5-.7-.7-.2-2.3-1.7,1.8-2.1,4.7-2.3,7.7-2.9Z"/>
</svg>