<?xml version="1.0" encoding="UTF-8"?>
<svg id="fixed_id_0"  xmlns="http://www.w3.org/2000/svg" version="1.1" xmlns:xlink="http://www.w3.org/1999/xlink" viewBox="0 0 1298.1 1665.5">
  <!-- Generator: Adobe Illustrator 29.3.1, SVG Export Plug-In . SVG Version: 2.1.0 Build 151)  -->
  <defs>
    
    <linearGradient id="fixed_id_1"  x1="293.7" y1="1042.5" x2="314.1" y2="1044.2" gradientTransform="translate(0 1685) scale(1 -1)" gradientUnits="userSpaceOnUse">
      <stop offset="0" stop-color="#fcfedd"/>
      <stop offset="1" stop-color="#feffff"/>
    </linearGradient>
    <linearGradient id="fixed_id_2"  x1="460.5" y1="780.2" x2="466.6" y2="762.6" gradientTransform="translate(0 1685) scale(1 -1)" gradientUnits="userSpaceOnUse">
      <stop offset="0" stop-color="#f4fad0"/>
      <stop offset="1" stop-color="#fcfdef"/>
    </linearGradient>
    <linearGradient id="fixed_id_3"  x1="691.6" y1="216.6" x2="714.1" y2="209.1" gradientTransform="translate(0 1685) scale(1 -1)" gradientUnits="userSpaceOnUse">
      <stop offset="0" stop-color="#9cd217"/>
      <stop offset="1" stop-color="#88b036"/>
    </linearGradient>
  </defs>
  <path fill="#9ad104" d="M519.7,46.2c.2-.8.5-1.6.7-2.4.9-3,1.8-6.1,5-7.2,10.3-3.7,29.7-4.4,40-1.3,6.8,2,3.7,10.8,6.4,17.1,2.4,2.3,4.1,3.2,7.5,3.7,21.8,3.1,43.7,5.9,65.5,9.3l195.9,29.8,114.9,17.4c27.4,4.2,53.3,9,81,11.7,18.4,1.8,26.9-4.2,43.1-3.8,22.4.5,44.6,5.7,60.2,22.8,21.3,23.3,23.8,49.9,22.8,79.9,1.9,15.5,1.6,30.8,2.3,46.3.8,20.3.7,40.7,1.4,61,2.2,69.8,6.5,139.5,6.8,209.4,0,5,.3,10.1.2,15.1,1.3,19.9,1,42.1,1.6,62.3l3.4,114.8,2.1,61.5c.2,6.4,1,20.9.6,26.8,1.2,15.7,1.1,33.2,1.6,49.1l3.4,132.1,6.9,238.2c.5,30.1,1.2,60.2,2.1,90.3.3,11.3.2,26.4,1.2,37.2.8,30.3,1.9,60.5,3.1,90.8-.2,11.5.3,24.9,1.1,36.4,15,3.7,35.7,7.2,49.2,11.6,5.6,6.2,7.4,10,7.5,18.3.3,4.7,3,12.7,4.5,17.4l1.4.5c4.5,1.5,9.5,2.8,11.7,7.2-3.2,13.6-50.6,11-61.6,9.3-21-3.3-4.9-15.8-22.9-19.7-34.9-7.5-69.8-14.9-104.5-23.5-10.6-2.6-23-5.6-33.8-6.9-29.9,4-59.7,8.3-89.5,12.9-17.8,2.5-171.7,22.6-177.1,25.4l-1.1,1.5c5.3,12.2,61.6,20.2,74.2,26.2,11.2,5.3,8.8,21,.3,26.7-15.8,10.7-15.7,5.3-32.9,6.2-4.1.2-12.2,4.8-17.1,4.8-25.9.2-43.9-7.5-69.9-5.5-14.2.6-25.1,4.8-40.6,3.9-34.9-2-34.6-18.7-32.4-48.5-61.1,9.3-122.4,18-183.7,26.2,2.9,11.4,4,18,5.8,29.6,6,3,10.5,4.6,9.4,12.1-8.6,12.1-74.7,11.3-81.1-1.9.1-4.3,1.9-6.6,3.9-10.4-32.5-7.3-63.9-15.6-95.9-24.2-4.5-1.2-29.5,6.9-38.6,3.4-7.3-2.8-26.9-1.3-24.9-15,2.4-2.9,6.3-3.8,9.9-5.1,2.2-12.4,3-20,6-32.6,28.2-10.1,42.8-3.9,69.6,2,1.2-37.9,0-79.9.1-118.3v-87.4c0-11,.2-21.9.3-33,.1-8.2-3.9-19.8-3.1-27.7.4-3.4,7.8-6.4,11.1-8,0-28.3,0-56.7.4-85-12.9-.1-29.4,2.1-44.9.8-27.1-2.7-56.7-6.4-83.3-11.6-10.6-7.9-5.7-34.6-2-42.1,6.2-12.8,51.5-4.7,56.3-12.6-3.5-5.8-7-11.7-10.4-17.6-22.5-39.7-14.6-73.9-2.7-116,4.3-17,10.2-26.4,15.9-42.3,2.5-7,2.3-23,3.2-31.1,1.2-10.3,3.3-19.4,5.2-29.6-.4-6.8-.9-9-2.5-15.6-16.7-45.5-43.5-76.1-54.2-123.1-1.5-5.8-2.6-8.4-5.4-13.6-12.9-22-14.6-4.6-33,3-10.7,4.4-19.8,5.3-30.9,7.9-24,9.6-27.2,21.2-54.1,8.7-1.6,4.8-1.7,6.7-5.3,10.3l-10.9.2c-15.7-5-7.8-14.2-11.6-27.5-6.1-4.7-11.1-9.6-16.7-14.9-6-24.6-4.6-33.6,2.2-56.5,5.7-5.7,10.2-7.1,17.6-10.5,0-3.1.2-6.5-.3-9.5-1-5.2-5.5-20.4-9.6-23.4-8.2-6.1-40.8,5-51.2-3.1-1.9-1.5-2.8-3.6-3-5.9-.5-4.4.7-10.1,3.9-13.3,3.4-3.4,43.8-3.5,51.2-3.6,3.4-10.1,1.1-83.2.9-100-.6-43.6,1-89.9-.7-133.2l-8.6-6.6c-1.1-10-1.2-20.4-1.8-30.4-1.1-18.7,20.1-15.4,33-15.1,35.8-25.8,89.1-65.5,128.6-87.7,10.1-5.7,103-8.6,109.5-18.5,1.7-19.6-18-14.1-31.2-16.4-18.3-3.1-40.6-1.6-30.2-26.3-.2-.4-.3-.7-.5-1.1l-.8-1.7c-11.8-25.4,45.3-22.7,60.5-25.2.6-10.9-1.3-55,3.4-61.3,10.1-11,40.6.4,48-1.3,39-8.7,92.4-10.9,129.4-23.4l1.4-.5ZM382,189.9c-.2,6.9-1.6,53.7-.3,55.3,17.4,22-28.2,21.8-44,13.5-3.2-5.1.2-5.7-3.5-9.8-9.9-1.4-86.8,8.4-93.6,14.3-27,23.2-87.7,54.3-110.4,77.9-.4,25.5-12.1,17.3-12.5,24.1-.8,12.1,0,35.1,0,48.1,0,62.9,0,125.8,0,188.7,0,4.7.6,19.7-.9,23.5-18.1,5.2-3.8,20.6-16.3,31.5l-1.6-2.1c-3-1-3.6-.7-5.6-2.9l1-4.4c-2.3-6.6-.7-11.6-3-17.7-9.7-6.7-5-7.3-8.4-11.2-10-11.2-47.7,3.9-54.7-9.1-.1-3.5.5-4.2,2.1-7.3,7.9-6.6,34.5-2.6,45.1-4.7,2.2-.4,2.2-1.2,3.3-3.1-7.4.1-47.9.2-51.2,3.6-3.2,3.2-4.4,8.9-3.9,13.3.3,2.3,1.1,4.4,3,5.9,10.4,8.1,43-3.1,51.2,3.1,4.1,3,8.6,18.2,9.6,23.4.6,3,.3,6.4.3,9.5-7.4,3.3-11.9,4.7-17.6,10.5-6.8,22.9-8.2,31.9-2.2,56.5,5.5,5.2,10.6,10.2,16.7,14.9,3.8,13.3-4.1,22.5,11.6,27.5l10.9-.2c3.7-3.6,3.8-5.5,5.3-10.3,26.9,12.5,30.1.9,54.1-8.7,11.1-2.5,20.2-3.5,30.9-7.9,18.4-7.6,20.1-24.9,33-3,2.8,5.2,3.9,7.9,5.4,13.6,10.7,47,37.5,77.6,54.2,123.1,1.6,6.7,2.1,8.8,2.5,15.6-2,10.2-4,19.4-5.2,29.6-1,8.1-.7,24.1-3.2,31.1-5.7,15.9-11.6,25.3-15.9,42.3,7.9-2.1,9.9-26.1,16.3-31.1,5.1-4,11.3,2.3,15.9,3.2,6.4,1.2,16.1-1.6,22.4.2,5.6,2.1,11.6.6,17.4,1.1,24.5,2.2,46.6-2.8,70.3,5.1,4.7,1.6,25.4.6,32,1.2,11.6,1.1,18.2,6.1,28.7,8.7,2.1-1,2.3-1.9,3.3-3.9l2.8,1.7,2.1-1.9c2.6-5.2-.7-8.9.9-12.9,3.3-8.8,8.2-15.8,9.4-25.3,1.7-13.9-3.2-18.9-6.5-30.9-.2-3.5.9-14.8,2.3-17.4,5.5-10.2.4-13.6-.8-23.9-.4-3.7,6.2-8.4,8.9-11.4,2.4-8,2.3-20.2,3.8-28.8.8-4.7,2.9-7.9,3.1-11.5.1-1.4-2.1-14.1-1.6-15.4,1.2-3.6,7.2-10.4,5.9-14.2-6.4-18.9-16.3-18.9,3.5-34.9,3.4-2.8,3.6-5.4,4.3-9.9l.2-1.6c3.8-2.4,36.6.8,43.4,1.3,4.5,5,1,32.9,4.9,40.8,1.1,2.1,0,.9,3.3,2.3,28.5-2.7,73.3,3.9,101.6-3.9,9.7-2.7,14.6-15.8,18.7-24.7-.2-2.5-.4-3.7-1.2-6.1,5.5-2.2,43.4-11.4,48.1-11.4,5.1,3.9,3.9,13.8,3.9,19.8-6,21.2-17.6,44-37.5,54.7-20.9,11.2-27.2,9.4-48.1,11.9-2.9,11-4.9,27.1-6.6,38.7-3,20.1-5.9,40.2-8.6,60.3-4.9,35.7-11.5,72.2-16.8,108,2.9,4.4,10.6,6.8,15.4,9.4,22.9,12.6,43.1,32.3,61.2,50.8l8.8,9.3c7.1,7.6,13.9,14.7,21.7,21.2,23.7,19.9,42,31.4,46.9,63.9,2,13.1,3,16.7,2.9,30.6-.2,16.6-5.7,23.8-7.4,37.5-2.4,19.6,3.2,43.4,1.2,63.3-2.1,21.4-5.4,45.8-8.6,66.5-2.8,17.7-21.6,112.8-12.9,125.8,1.9.4,5.8,1.2,7.6,1,31.3-4.5,62.5-9.2,93.8-13.1,4.6-.6,9-1.3,13.4-2.7l.7-1.5c-5.3-5.1-18.7-.2-22.8-10.8,1-7,4.2-8.7,9.5-13.5,6.2-45.6,29.4-14.5,45.2-28.7-.9-43,.3-90.1.5-133.4,0-88.2,1-176.4,2.8-264.5.5-31.7.7-63.5.7-95.2,0-16.4-.6-39.8.7-55.6-.6-5.6.1-22.6.2-29.2l.9-62c1.4-68.5,2-136.9,1.7-205.4-20.3-.6-24.8-4.1-24.9,17.6-3.5,2.1-8.6,4.2-9.9,7.5-5.4,9.8,4,28.4-7.1,33.5-3.4,1.6-19.7.4-21-5.9,1.7-3.5,3.2-6.4,1.3-10.3-.9-4.6-.3-15.2,0-20.4-2.9-1.7-5.9-3.7-8.8-5.5l.5-321.7c-12.8-5.9-10.4-9.3-12.3-22.3-12.1-4.9-23.3-8.8-35.4-14.4-13.8-6.4-28.8-14.3-43-19l-.6,15.9c-.9,4-.6,32.2-.6,38.3v92.7c0,95-1.3,190-1.5,285,0,2.4.3,3.6.9,5.9,2.8,2.6,5,1.7,9.8,3-.8,4.9-20.5,4.2-20.8,3.9-8-6.6-32-11.2-39.7-15.1-.4-3.3,1.1-3,2.6-6.4.6-19.8,0-43.2,0-63.2l-.7-130.2-.4-249.4-10.6-5.6c-14.3,1.6-105.9,11.5-111.5,17.1-.7,6.5,4.8,6.6,2.1,13.2-6.9,6.1-63.4,12.2-45.6-10.8,1.2-1.5-.4-50.2-.7-57.2-23.4-1.9-51.3-2.1-70.6-15.9,4.4-14.4,3.6-15.6,1.5-30.7-8.4,1-22.9,3-30.9,4.7-6.4,1-32.9,3.8-36.1,7.1,3.3,3.6,20.7,4.3,26.3,4.8,10.3.9,21.4,2,31.1,5.3.1,8.4,2.5,31.7.2,37.5-9,8.7-49.9,9.5-63.7,11.5ZM577.3,1525.8c12-2.3,28.1-3.6,40.5-5,18.2-2.1,36.5-4,54.8-5.7,5.8-8.7,4.2-18.2,3.1-28.5-3.8-35.8-9.6-74.9-23.5-108.3l-1.5-2.4c-12.3-32.4-10.5-61.3.8-94,4.6-13.3,29.4-47.5,24.9-57.7-2.1-1.2-3.6-1.7-5.9-2.4-24.6-6.5-50.2-2.2-75.1-6.7-.7.4-1.5.8-2.2,1.2-4.7,6.9-6.7,34.2-8,44.4-7.2,44.7-12.1,90.3-19,135.2-3.9,25.2-7.6,50.5-11.2,75.8-1.6,11-4.8,28.1-5.2,38.7,11,6.9,15.1,2.7,27.6,15.3ZM549.4,950.3c-19.6,6.5-35.2,1.5-54.6,3.6-13.3,1.4-3.5,37-.5,44.3,9.3,3.7,32.1,4.6,43.5,6.5,7.9,1.3,25.2,5.1,32,5.5,2-1.7,1.8-2,2.5-4.6-.1-16.7,6.5-41.5,8.4-58.7,4.7-42.9,13.8-86.3,17.8-129.2-11.9-.4-22.9-.7-34.8-.6-1.3,25.6.9,52.7.5,78.4-.4,23.2,2.2,36.8-14.8,54.7ZM399,1271.5c6.2,4.4,12.5,7.2,8.9,16.1-1,5.2-3.1,10.2.2,14.6,3.6.6,1.9.7,5.4-.5,3.6-10.5,2.5-24.7,8.5-40.5,4.7-12.5,29.3-55.9,30.3-62.9l-3.9-.6c-5.3-1.4-13.8-1.8-20-3-10.4-2-18.8-4.4-28.9-7.3-1.7,22.2-.4,61.1-.3,84.1ZM949.1,1432.5c2.3-12.6,1-66.7,1.1-83,0-54.4-.2-109.8-.4-164.2,0-14.4-2.1-57.6.2-68.1,4.1-2.8,30.6-.9,39-1.7h1.3c-1.5-63.6-.2-131.3-.4-195.3-8.9-.2-33.6-1.6-40.6-.5-3,3-2.7,16.7-2.7,21.4l-2.2,163.7-2.9,248.3-.3,56.2c-.1,30.9-5.8,35.2,23.4,36.7,6.5.3,11.7,4.7,16.5-2.2l-.5-1.9c-6.2-5.1-21.5-5.7-31.4-9.3ZM885.6,228.9c8.6,15.9,5.9,30.9,2.2,47.6-3.5,3.3-7.5,6.1-11.4,9,.4,63.2.4,126.4,0,189.6,0,26.3-1,62.6.6,88.3,6.1.1,20.3,1.4,24.8-.8,3.5-1.7,2.3-35.5,2.3-40.6l2-191.2v-67c-.2-43.6-1.7-63,23.2-99.7,3.6-2.7,4.5-3.1,6.8-6.9,2.3-3.6,7.1-2.6,5.7-8.2-2.4-1.7-5-2.5-8-2.8-50.3-4-100.4-12.6-150.5-19-12.2-1.6-24.3-4.7-36.6-5.9-3.9-.4-4.9,1.4-7.4,3.7,1.4,11-2.4,50.2,1.5,55.3,6.2,3.6,25.1,11.5,33,14.6,22.1,8.9,49.6,20.7,72.1,27.5,9.6,2.9,24.2,1.7,39.5,6.2ZM1002.3,441c1.9,80.2.5,166.6.8,247.1v61.9c.1,9.1-.4,26.3.5,34.9,2.2,2.1,2.9,2.5,5.3,4.1,4.1,7-4.4,28.8,5.9,32.2,5,1.6,11.5.5,14.9-4.1,2.3-7.6-1.3-43.5,7.9-44.6,6.4,3.7,1.7,6.6,4.8,12,11.3,16.8-13,40.1,24.7,35.5.2-6.8-2-27.3.8-31.8,5.6-2.3,5.5-2.3,5.4-8.5-.4-28.9-1-57.7-1.1-86.6-.2-69.2,0-138.5.8-207.7-1.3-17.2-.4-51.6-.6-70.2l-.4-157.8v-46.8c0-4.4,0-10.7,0-15.8.1-34.3-7.9-28.1-35.8-27.9-1.5,0-.4,4.6-.1,5.7,3.5,13.6,8.2,26.1,3.3,40-5.6,5.4-3,9.6-9.1,14.2,0,.1-.1.2-.2.3-9.5,7.5-16.2,8-27.7,9.4v140.2c0,12.2,1.1,53.8,0,64.1ZM511.3,1341.9c-7.9,12-14.1,95-12.9,112.1.1,2,1.4,3.8,2.8,5.3,2.5-.5,1.4,0,3-2,2.5-14.4,20.6-108.6,16.7-114.4-2.9-1.8-6-1.1-9.5-1ZM950.1,731.2c.4,35.4-.8,72.1-.8,107.8,4.3.4,9.5.8,13.7,1.4,3.8-1.6,2.9-4.7,3.2-8.5-.6-2.9-.4-10.1-.4-13.4,6.1-.3,13-.1,19.2-.2,0-7.3-1.5-23.7,1.1-29.4,7.8-3.4,5.4-10.3,5.5-18.3.7-70.6-.1-141.1-.4-211.7l-.3-324.9c-5.1-5.2-6.2-6.4-10.1-12.5l-.5-1c-9.5-18.2-2.7-30.5-5.6-35.2-9.8,2.3-17.7,37.4-18.4,46.6-1,13.2-1,27-1.2,40.3l-1.1,83c-1.1,48.8-1.7,97.5-1.7,146.3,0,17.8-.5,38.1,0,55.7,13.1,8.3,12.4,10.9,9,25.7-3.2,1.9-7.6,4.2-10.5,6.3-1.4,46.7.7,94.9-.6,141.7ZM1046.6,937.3c-1.5,22.1.9,52.5.3,75.5-.2,8.6-.3,45.4.8,52.6-26,19.5-20.5-20.8-20.4-34.3v-64.9c0-7.3,1.7-38.7-3.2-42.6-7.7,1.3-10.4,5.4-19.5,6.6l-1.3.2.6,183.7c20.3,3.1,47.3,4.5,68.4,6.7l-.3-125.2c0-13.3.8-60.7-2-71.1-3.5-3.2-18.2-2.1-23.6-2-.1,4.9.1,9.9.3,14.7ZM1085.3,1121.7c7.5.8,34,2.9,38.6,7.6,1.5,9.2.8,50.4.8,61.2l.2,134.7c0,26.6,0,53.3.4,79.9.2,12.3,1.2,36.8,0,48.1-7.2,8.2-26.6.3-30.4,12.7,3.6,3.5,7.1,5.6,12,6.3,9.9,1.4,33.4,11.1,42.2,8.8,4.8-7.6-4.5-206.7-3.4-234.3v-.8c-1.4-12.3-.7-37.3-1.2-51.1l-3.7-110.4-9.3-328.3c-3.5-137.9-7.9-275.8-13.2-413.6l-3.7-105.8c-.9-23,3.4-55-14.5-71.7-3.3-3.1-6.9-6.1-11.3-3.1v1.8c-.5,6.2-2.2,7-5.9,11.9.6,46.6,1,93.2,1,139.8l.7,256.6c0,15.7-1.7,209.7,1,213.7,2.4,1.1,4.4,1.4,4.7,3.8,1.1,9.6,0,20.6.3,30.3,6.3.3,12.6.6,18.9,1.1,0,4.8,0,12.6-.4,17.1,4,3.7,10.6,2.1,16.5,4.1.1,10.3.4,74.8-1.7,79.6-9.4,3.8-27.8,1.4-39.4,2.8l.4,133.7c0,20.1-.5,43.6.1,63.6ZM630.9,113.2c.9,1.3,2.7,4.3,2.6,5.7-.6,6.9-1.2,26.2-2.2,32-.2,1.2-.5,2.3-.8,3.4-2,2.9-1.9,2.7-2.4,6.2.5,1.4.6,2.8,1.6,2.8,11.8.9,26.7-2.7,38.7-3.1,8.5-.3,14.5-.2,22.2,0,4.3-6.9,1.1-27.5.4-35.8.6-3.3,1-3.7,0-7-6.1-8.3-91.1-15.8-106.2-18.5-3.2-.6-9.6-1-12.5.6l.5,1.7c5.1,3.9,42.5,6.2,56.9,11.5l1.1.4ZM540.4,1223.5c.9-6.1,2.8-14.2.2-19.6l-2.4-2c-10.8,1.6-30.8,97.2-12.5,92.2,7.5-8.1,11.5-47.8,13-60.3.5-3.7,1-6.7,1.8-10.3ZM583.4,173.3c4-.4,6-.2,9-2.6v-1.7c-5.2-4.1-13.2-4.6-19.8-4.9-3.1,1.2-3.5,1-5.7,3.7,0,7.5,11.3,6.7,16.5,5.7ZM1060.8,1463.8c2.2-3.6,2-1.9,1.8-5.2-5.2-6.4-41.2-12.8-50.3-13-1.5,3.7-2,3.2-1.5,6.6,3.4,4.3,43,11.5,50,11.7ZM404.5,1354.7c1.4,3.9,1.1,24.1,1.2,29.2.5,34.9.7,69.7.5,104.6,0,9.7-1,50.4,1,57.1,1.2.9,2.7,1.8,4.4,1.9,6,.4,17-.7,21.7-4.4,1.7-1.3,3.5-6.1,4.2-7.9,7.4-19,1.6-30.2.7-48.8-.1-3.1,3.5-21,3.9-24.3,2-15.4-13.1-102.6-18.8-109.9-4.3-2.4-8.6-1.8-14-2.3l-4.9,4.7Z"/>
  <path fill="#767f4a" fill-opacity="0" d="M414.3,135.6c-5.5-.5-23-1.3-26.3-4.8,3.2-3.3,29.6-6.1,36.1-7.1,2.1,7.3-3.4,10.9-9.8,12Z"/>
  <path fill="#c4d955" d="M691.4,651.6c-1.5,3.4-2.9,3-2.6,6.4,7.6,3.9,31.7,8.4,39.7,15.1.3.3,20,.9,20.8-3.9-4.8-1.3-7-.4-9.8-3-.6-2.3-.9-3.5-.9-5.9.2-95.1,1.6-190,1.5-285v-92.7c0-6.1-.4-34.3.5-38.3l.2,276.6c0,46.6-.9,94.9-.4,141.3,20.2,3.4,39.9,2.2,60.2-.1,6.7-8.3,12.7-18.2,19.2-25.9,8.5-3.1,11.3-3.4,20.4-4.4,1.9,3.8.4,6.8-1.3,10.3,1.3,6.4,17.5,7.5,21,5.9,11.1-5.1,1.7-23.7,7.1-33.5l1.7,24.3,19.4,14.3c1.1,5.5,1,9.6,1.1,15.2,8.3,11.8,2.1,17.8,1.8,31.5l-6.9,5.3c.7,16-2.6,16.3-17.2,19.9.3,7.3,2.5,33-1.2,37.2-34.8,6.5-25.2-10.7-25.8-34.1-27-12.1-78-7-102.7,8.5-.4,5.3-.6,10.3-1.7,15.5,0-6,1.2-16-3.9-19.8-4.8,0-42.6,9.3-48.1,11.4.8,2.4,1,3.6,1.2,6.1-4.1-2.9-25.5,0-31.9-.4-8.5-.4-26,1.1-33.8-1.2-24.6-7.2-29.2-14-56.1-12.6-.3,9.5.2,33.7,1.5,42.8-3.3-1.4-2.2-.2-3.3-2.3-3.9-7.9-.4-35.8-4.9-40.8-6.8-.5-39.6-3.6-43.4-1.3l-.2,1.6c-.6,4.6-.9,7.2-4.3,9.9-19.8,16.1-9.9,16.1-3.5,34.9,1.3,3.9-4.6,10.6-5.9,14.2-.4,1.2,1.8,13.9,1.6,15.4-.3,3.5-2.3,6.7-3.1,11.5-1.5,8.7-1.5,20.8-3.8,28.8-2.7,3-9.3,7.7-8.9,11.4,1.2,10.3,6.3,13.8.8,23.9-1.4,2.6-2.4,13.9-2.3,17.4,3.3,12,8.2,17,6.5,30.9-1.2,9.5-6.1,16.5-9.4,25.3-1.5,4,1.7,7.8-.9,12.9l-2.1,1.9-2.8-1.7c-1.1,2-1.2,2.9-3.3,3.9-10.5-2.6-17.1-7.6-28.7-8.7-6.6-.6-27.3.3-32-1.2-23.8-7.9-45.9-2.9-70.3-5.1-5.8-.5-11.8,1-17.4-1.1-6.3-1.8-16.1,1.1-22.4-.2-4.6-.9-10.7-7.2-15.9-3.2-6.4,5-8.4,29-16.3,31.1,4.3-17,10.2-26.4,15.9-42.3,2.5-7,2.3-23,3.2-31.1,1.2-10.3,3.3-19.4,5.2-29.6-.4-6.8-.9-9-2.5-15.6-16.7-45.5-43.5-76.1-54.2-123.1-1.5-5.8-2.6-8.4-5.4-13.6-12.9-22-14.6-4.6-33,3-10.7,4.4-19.8,5.3-30.9,7.9-24,9.6-27.2,21.2-54.1,8.7-1.6,4.8-1.7,6.7-5.3,10.3l-10.9.2c-15.7-5-7.8-14.2-11.6-27.5-6.1-4.7-11.1-9.6-16.7-14.9-6-24.6-4.6-33.6,2.2-56.5,5.7-5.7,10.2-7.1,17.6-10.5,0-3.1.2-6.5-.3-9.5-1-5.2-5.5-20.4-9.6-23.4-8.2-6.1-40.8,5-51.2-3.1-1.9-1.5-2.8-3.6-3-5.9-.5-4.4.7-10.1,3.9-13.3,3.4-3.4,43.8-3.5,51.2-3.6-1.2,1.9-1.1,2.7-3.3,3.1-10.5,2.1-37.1-1.9-45.1,4.7-1.6,3.1-2.2,3.7-2.1,7.3,7,13,44.7-2.1,54.7,9.1,3.4,3.9-1.3,4.5,8.4,11.2,2.3,6.1.8,11.1,3,17.7l-1,4.4c2,2.1,2.6,1.9,5.6,2.9l1.6,2.1c12.5-10.9-1.8-26.3,16.3-31.5-12.2,16.8-7.5,18.4,10.5,21.8,2.8,3.7,6.4,10.2,8.9,14.5,9.7-10.3,14.7-13.9,27.9-18.9,4.1-1.6,9.3-3.3,13-5.6,2.3-10.2,2.9-15.4,8.5-24.2,2.1-3.8,6.5-8.5,9.5-11.8,10.1-10.6,21.8-21,36.4-24.6,10.9-2.7,23.7-2.8,33.6-8.9,6.2-3.8,11.5-11,17.3-15.4,14-10.8,32-18.7,41.5-34.2,7.5-12.6,9.1-33.9,5.5-48-14.3-35-26-59.5-5.5-96,22.3-39.7,74.1-47.6,111.6-25,27.1,16.4,29.4,40.5,36.2,68.7-5.5,18.6-3.8,23.4,3.3,41.4l-5.6,8.9c-1.2,11.9-4.4,45.5-7.8,55.7l-1.3.5c-14.9,5.8-38.6-3.8-27.7,28.4,1.2,3.5,4.3,6.7,7.1,9.2,55.3.4,82.2,6,108.9,58.5,16.5,4.2,38,13.4,53.5,20.9,6,2.9,12.8,8.1,18.2,10.6l.7.5c15,1,24.6-4.6,39.9-4.5,10,0,21.8,4.6,30.5,3.5ZM214,679c-1.9-8-1.8-11.3-8.2-16.4l-1.2-.4c-5.6,0-8.4-.1-12.7,3.6-5.5,4.7-16.9,11.8-18.3,19.2,3.6,6.1,4.8,3.7,8.4,12.4,14.9-5.5,18.1-11.5,32-18.4ZM138.5,697.6l-3.6,2.6c-9,8.4-15.9,18.7-24.8,27.3-1.8,1.8-.8,7.2,1,9.6,11.6,4.8,65.4-34.7,41-45-3.2-1.4-10.6,3.7-13.6,5.5ZM212.6,694c-16.1,5.5-32.7,2.8-26.5,25.3,9.4,1.4,30-14.5,28.5-24.2l-1.9-1.1ZM150.5,675.6c17,6.7,16.8-18.2,5.8-17.4-3.6,2.6-7.8,5.4-10.9,8.3-1.1,3.2-2.9,6.9-2.3,9.7,3.4.7,3.9-1,7.4-.6ZM91.1,709.7c2.3-3.1,6.4-7.3,6.7-10.3-2.1-1-2-.9-4.3-1-2.5,3-5.9,6.9-5.5,11.1l1.4.8,1.7-.6ZM119.1,654.6c-8.1.7-10.4,5.3-15.9,6.8-16.8,4.6-28.7-.8-28.9,22.3,0,5.5-3.3,13.2.2,18.5,1.2.4,1.8.8,3,.8,5.3-10.6,16-27.4,27.6-31.8,7.6-2.9,19.1-1.7,19.5-12.6-1.4-3.2-1.5-4.1-5.5-4Z"/>
  <path fill="#9ad104" d="M329.5,470.3c-14.3-35-26-59.5-5.5-96,22.3-39.7,74.1-47.6,111.6-25,27.1,16.4,29.4,40.5,36.2,68.7-5.5,18.6-3.8,23.4,3.3,41.4l-5.6,8.9c-8.3,8.5-2.7,43.4-12.1,53.1-2.9,2.9-22.8,2.7-26.9,4.6-1.1,2.1-1.9,3.7-3.2,5.8h-1.4c0,.1-.2-1-.2-1-.3-2.2-2.4-11.1-3.4-11.9-8.7-7-22.4-18-30.3-24.7-5.2-4.4-27-9.9-34.2-9.9l-1.2,1,.3,1.2-1.4,1.3c-8.7-.4-8-8.3-17.7.8l-1.8-.9c-2.1-7.2-.7-13.8-6.5-17.5Z"/>
  <path fill="#9ad104" d="M247.8,724.7l2.6.4c7.2-7-1.3-13.7.7-19.7l2.3-.4c2.1-5.4-1.8-8.4.8-12.2l1.4.4c9,17.8,10.7,41,24.1,59.1,5,6.8,28.4,44.7,27.7,49.6l-1.4.3c-6.1-6-8.1-13.5-12.2-20.9-3.4-6.1-14.4-14.1-17.7-19.4-12.6-20.1-9-18.3-33.2-21.4-5.8,2.5,1.2,3.1-7,5.7-1.5-5.8-2.6-8.4-5.4-13.6l3.4-.3c.8-2.4,0-2.9-.9-5.9l5.1-.6.6-.9c-3.1-3.4-4.6-5.2-6.8-9.2,2.5-4.8-1.8,0,.6-6.8,3.8,5.5,6,10.9,11.5,12.7l4,3.1Z"/>
  <path fill="#f3f50d" d="M194.4,624.7c.9-.8,1.2-1.5,1.9-2.5-.2-11.7,7.1-11.6,17.1-13,3.6,1.9,2.4.6,4.3,3.5-1,2.1-1.3,2.6-3,4.2l1.5-.3c2.3-.7,1.3-.9,3.3-.3,3.9-3.2,5.3-4.5,10.5-3.2l1.3,1.8c-1,5.2-5.5,6.1-10.4,7.4-3.2,2.4-4.1,1.8-3.9,5.7,3,1.8,5.2,1.8,8.7,2.2-3.4,5.5-8.5,0-7.2,8.5-3.5,7.5-14.2,9.1-21.6,8.2-3.8-1.4-6-1.8-7.7-4.9,1.1-2.8,2.2-5.5,3.2-8.3-1.1-1.8-1-1.4-2.9-2.8l1.3,2-2.1-.9,3.6.8-4,.8c1.4-3.7,3.6-5.8,6.2-8.8Z"/>
  <path fill="#99ca18" d="M195.2,601.3c2.8,2.5,1.9,1.7,3,6-2.7,6-7.9,11.7-8.5,16.3l1.2,1.4,3.5-.3c-2.5,3-4.7,5.2-6.2,8.8l4-.8-3.6-.8,2.1.9-1.3-2c1.8,1.4,1.7,1,2.9,2.8-1,2.8-2.1,5.6-3.2,8.3,1.7,3.1,3.9,3.5,7.7,4.9,2.6,3.3,4.4,1,8.8,5.5,1.7,4.5.4,4.1,1.3,7.9l-1.1,2.4-1.2-.4c-2-.3-2.5-.2-4-1.5-6.1-5.4-18.5-2.1-23.8-4.3v-1.4c1.5-1.5,3-3,4.6-4.4-3-.4-3.8-.7-6.6-1.6-1.9-3.7,6.6-4.8,6.7-13.2,0-6.6,4.7-15.2,4.3-22.5,2.1-3.8,6.5-8.5,9.5-11.8Z"/>
  <path fill="#99ca18" d="M289.9,869.3v-1.3c0-11.2-7.2-21.7-4.3-27.2,4.7,2.6,12.7,21.5,14.7,27.3,3.2,9.2,3.1,17.6-4.3,24.2-.9-2.6-2.3-4.9-3.6-7.3-.4-6.8-.9-9-2.5-15.6Z"/>
  <path fill="#99ca18" d="M96.1,762.7c-3.9-8.7-4.7-12.6-2-22.3.9-3.4,5.4-6.2,8.6-4.6,10.2,5.1,5.1,18.4,4.3,26.6l-10.9.2Z"/>
  <path fill="#99ca18" d="M231.7,715.7c-.9-1.3-1.3-1.7-2.3-2.8-1.1,4.5-.8,4.9-4.9,5.6-8-5.7-1.5-31.5-6.7-39.4-2.7-4.1-1.9-12.1,2-14.9,1.8,2.1,3.7,17.3,4.8,21.4,2.2,8.6,4.4,15,7.7,23.2-2.3,6.8,1.9,2-.6,6.8Z"/>
  <path fill="#e8ee17" d="M243.8,721.7c-6.9-9.5-15.6-31-12.4-42.8l1.2-.4c2.6,3.2,13.7,35.4,17.1,43.2-.8,2.3-.2,1.3-1.9,3l-4-3.1Z"/>
  <path fill="#99ca18" d="M620.3,652.1l.7.5c2.3,2,6,4.2,8.7,5.8l-.7,1.4c-5.2,3.3-22.7,6.2-28.1,3.1l.4-1.4c10.1-5.5,6.2-9.6,19-9.4Z"/>
  <path fill="#fbfcf5" d="M826.2,646.5c9.2-.8,14.6,5,22.4,7.4,3.7.9,21.2-1.8,23.2.3,10.9,11.4,4.8,42.6-1.2,55.4-1.8,3.9-12.9,4.4-16.5,5-15.5.6-32.8-3.2-47.4-7.9-5.2-1.7-5.8-23.6-5.1-28.7,3-4.7,5.3-5.1,9-8.3,8.8-7.5,5.1-13.1,15.7-23.3Z"/>
  <path fill="#f3f50d" d="M365.1,543.3c-1.8-5.7-3.7-11.4-2.8-17.5l.6-.8c4.1-4.9,2.7-8.2,5.8-11.7,2.6,1.4,15,19.5,21.3,21.1,1.3.3,8.5,5.8,9.6,6.9,1.1,1.1.4,3.1,0,4.5,3.8,2.8,9.8,6.6,10.9,11.2l-.5,1.6-1.9.9c-2-1-2.8-1.9-4.6-1.7,2.2,6.6,11.4,10.6,3.9,16.7-3.6-3.2-11.6-8.9-14.3-11.8-1-.3-2-.6-3-.9l1,.4-1.8,2.4c2.1,5.5,10.7,9.8,8.2,14.5h-3.7c0,0-1.2,2.4-1.2,2.4l-5.6,1.9.2,1.3c-2.6.7-7.3-.4-9.1-2.2-6.8-6.6-9.3-1.4-15.8-.5-5.6-3.7-1.6-9.9-5.2-17,3.3-2.3,3.3-3,4.6-6.8.7.8,1.5,1.6,2.2,2.3,0-3.3-.6-5.9,1-7.9l2.4,3c.6-1.4-1.6-10-2-12.2Z"/>
  <path fill="#e8ee17" d="M365.1,543.3c-1.8-5.7-3.7-11.4-2.8-17.5l.6-.8c4.1-4.9,2.7-8.2,5.8-11.7,2.6,1.4,15,19.5,21.3,21.1,1.3.3,8.5,5.8,9.6,6.9,1.1,1.1.4,3.1,0,4.5,3.8,2.8,9.8,6.6,10.9,11.2l-.5,1.6-1.9.9c-2-1-2.8-1.9-4.6-1.7,2.2,6.6,11.4,10.6,3.9,16.7-3.6-3.2-11.6-8.9-14.3-11.8-3.6-4-7.1-8.1-10.6-12.2l1.3-.8.2-.8c-5.3-1.8-8.2-2.9-11.9-7.1l-6-6.6c-.9,1.1-.8,6.2-.9,8.1Z"/>
  <path fill="#b8de31" d="M399.7,554.3c.8,2,.6.9.7,3.3h-1.6c-4.6-4.2-13.6-11.6-18.7-15.9-.2-2.2-.4-4.5-.6-6.7-2.5-2.3-4.9-5.1-6.9-7.7,3,.7,15.3,10.6,17.6,13.1,5.6,2.3,4.7,4.7,9.3,5.5,3.8,2.8,9.8,6.6,10.9,11.2l-.5,1.6-1.9.9c-2-1-2.8-1.9-4.6-1.7,0-.6-.5-1.9-.7-2.5l-3-.9Z"/>
  <path fill="#f3f50d" d="M390.2,540.3c5.6,2.3,4.7,4.7,9.3,5.5,3.8,2.8,9.8,6.6,10.9,11.2l-.5,1.6-1.9.9c-2-1-2.8-1.9-4.6-1.7,0-.6-.5-1.9-.7-2.5l-3-.9c-6-3.5-10.7-6.8-9.5-14Z"/>
  <path fill="#f3f50d" d="M401.3,706.8c.3-3.6.4-6.9.5-10.5,4.5-8.2,15.6-27.5,26.8-24.5,11,3,0,14.5,6.4,23.7l1.1.2.9-3.5,1.1.8c3.2-.6,2.8-8.7,8.2-11.6-.4,2.6-.6,4.5-1.3,7.1.6,1.1,1.2,2.3,2,3.3l1.4.3v1.4c.1,4.5-.2,5.6,2.1,9.4v2.5c.7,17.8-33,25.3-46.6,25.4-1.2,0-2.3,0-3.5-.1l-.7-1.2c2.5-1.3,3.1-1.8,5.4-2.4,2.8-.7,13.2-11.5,14.5-13.8-7.2,5-17.1,13.4-25.4,14.3l-1.9-.8.5-1.2c4.4-1.6,17.4-13.4,17.5-17.7-.9.7-1.9,1.2-2.5,2-6.7,7.1-11.8,12.9-21.8,15.2,2-3.7,9.6-11.9,12.8-15.6l2.5-2.8Z"/>
  <path fill="#b8de31" d="M446.9,691.8c-2,4-1.4,6-4.2,9.9l-.9-.3c-.1-4.7,1-8.6,3.1-12.9.6,1.1,1.2,2.3,2,3.3Z"/>
  <path fill="#b8de31" d="M427.5,719l.8,1c-2.5,4.3-6.6,5.6-11.2,6.6-.3-.4-.3-.9-.5-1.4l10.9-6.2Z"/>
  <path fill="#f3f50d" d="M430.6,618.7c-4.2-.5-21-5.9-23.2-9,.1-4.8,1.4-7.4,4.6-10.8,4.1-1.2,20.5,6.9,25.7,8.7l-.6-2.3c2.3-2.6,12.6-4.1,16.8-4.4,8.4-.6,16,13.3,24.4,14.7.4,0,2,1.4,2.4,1.8v1.5s-4.4.8-4.4.8l.7,1c5.2.9,8,.3,12.8.4.7,0,10.5,4,12,4.5l.3,1c-7.3,2-25.7-1.1-29.7,2.1l-.2,2.7c-5.9,4.3-23.4,11.1-29.8,9.8-10.6-2.2-22.8-20.7-35.1-22.9l-.3-1.4,1.8-1.3c6.1,2.7,11.8,8.8,19.2,5.5h-2.1c2.1-2,1.9-1.9,4.7-2.3Z"/>
  <path fill="#b8de31" d="M431.5,613.4c-7.2-2-13.4-3.5-20.1-7l-.3-.9c7.2.6,16.2,2.1,21.6,7.3l-1.1.6Z"/>
  <path fill="#f3f50d" d="M363.6,690.9c.4-15.4,2.4-40.7,13.8-52,3.3-3.2,7.7-5,12.2-4.9,1.3,0,1.2.2,2.7.7,2.1,3.9.1,5.8-1.8,9.7,2,1.3,1.2.9,3.6,1.5l1,4.4.9-.6c1.1-.8.6-.5,1.5-.9,1.2,6.1-7.2,41.3-9.8,48.4-1,3.2-1.6,5.9-3.5,8.7-1.2,4.9-3,12.8-7.8,15.1-2.6-3.2.9-3-2.1-6.7-1.9,1.5-.9,1-2.9,1.6-.5-2.2-.9-4.2-1.5-6.4l-1.1-.5-1.3,1.9-.7-.3c-.3-5.5.5-10,1.2-15.5-1.3,1.1-2.4,2.8-4,4.2-1.1-1.9-.5-5.6-.4-8.2Z"/>
  <path fill="#e8ee17" d="M368,694.9c.6-2.9.8-2.8.5-5.6l-.2,1,1.4-2.5c1.5,2.4,1.5,2.3,2.2,5.1l1.8-2.3,1,.3-.5,3.3.9,1.2.9-2.7c3.9.2,2-.2,5.8,2.2.9,3.3,1.2,8.5,2.4,10.9-1.2,4.9-3,12.8-7.8,15.1-2.6-3.2.9-3-2.1-6.7-1.9,1.5-.9,1-2.9,1.6-.5-2.2-.9-4.2-1.5-6.4l-1.1-.5-1.3,1.9-.7-.3c-.3-5.5.5-10,1.2-15.5Z"/>
  <path fill="#e8ee17" d="M389.9,658.9l.6,2c-1,5.4-2.4,7.4-5,12.1-.6-3.6,2.8-10.3,4.4-14.1Z"/>
  <path fill="#9ad104" d="M385.3,727.5c4.8,3.9,17,2.8,20.3,5.7l-1.6,2.7,1,1.3c2.5,0,3.1-.3,5.4.4-8.9,12.6-42.6-3.7-52.1-3.2l-1,1.2c4.6,5.2,9.4,17.4,7.5,24l-1.5.5-2.2-1.2c-2-3.3-1.8-4-2.2-8v-1.2c-.1,0-.7-.4-.7-.4-3.1,5.5-2.2,3.3-2.3,10.7-2.4,3.3-4.3,3.2-8.6,4.9-1.5-2.4-.9-2.1-.4-5.6-1.9,1-1.2.8-3.3,1.1-.9-6.8,6.1-27.8,7.1-35.2.7-4.9-1.7-15.4-1.4-22.6,2.6-.4,5.3-.4,7.4-1.9-1.4-1.3-.6-.7-2.4-1.9,2.8-6.4,6.5-1.1,7.1-12.7v-1.1s1-.6,1-.6c2,2.8,1.3,2.3,1.4,6.4-.1,2.6-.7,6.3.4,8.2,1.5-1.4,2.7-3,4-4.2-.7,5.4-1.5,10-1.2,15.5l.7.3,1.3-1.9,1.1.5c.6,2.2,1,4.2,1.5,6.4,2-.6,1-.1,2.9-1.6,3,3.8-.5,3.5,2.1,6.7,4.8,4.8,4.5-2,8.8,6.7Z"/>
  <path fill="#99ca18" d="M472.4,734l1.3-1.9c3.2,1.5,1.7.5,4.1,4.1.4,3.5-1.1,6.6-3.3,9.3v1.2s1.5,2.7,1.5,2.7c-5.2,11.3-6,14.4,6.5,22.4h1.6c.3-1.3.4-2,.6-3.2,3.1.3,1.9,0,4.8,2-.8-5.4-.3-5.8-5.3-9.4v-.6c4.6.5,9.6,4.9,10.9,9.4l3.3,1.6c.9,2.8,1,1.5.3,4l-1.4-.7c-6,2.2-8.6,5-7.4,11.3l1.5.6c.4-.4,1.6-1.5,1.8-1.8,1.2,2.1.8,1.3.8,4.1,1.9,1.2.9.8,3.2,1.1l-.3,1.5-1.7.4c-2.2.5-1.3.2-3.1.9,3.6,1.5,3.9,1.6,6,4.8l-.7.8-5.7-.9c6.5,3.4,5.6,6.9,5.4,13.6-1.6,1.4-.7,1-3,1.1-1.9,4-2.3,9.4-9.1,8.4-5-4.5-5.8-11-6.3-17.3l-2.8,1.9c-7.5.7-22.5-11.6-16.2-18.7,2.1-.2,3.4-.4,5.5-.7l.7-1.7c-.7-.6-4.1-3.1-4-4,2-14.2,3.7-33.6,10.3-46.2Z"/>
  <path fill="#c1d874" d="M478.8,803.4c10.9-6.6,16-3.3,15.4,8.8-1.9,4-2.3,9.4-9.1,8.4-5-4.5-5.8-11-6.3-17.3Z"/>
  <path fill="#c4d955" d="M470.1,772.3c2.7,1.8,6,4.8,8.3,7.2,4.4,4.5,2.5,8.7,3.3,13.9v.8c-3.9-1.1-9.5-6.6-11.6-10.3-2.8-4.8-1.6-6.6,0-11.6Z"/>
  <path fill="#f3f50d" d="M461.8,582.6c5-4.2,22-7.7,28.3-6.3,6.5,5.4,22.7,22.9,24.3,30.9l-.9.8c-4-1.7-4.8-2.5-8.2-5.2l-.6.6c4.4,7,11.6,9.8,14.1,17.6l-.5,1.5c-20.5-2.9-40-12.8-56.5-25-.8-2.8-.9-3.9-3.1-5.9l-2.9-.6v-.9s4.4-1,4.4-1l2.4-3.1-.8-3.2Z"/>
  <path fill="#f3f50d" d="M314,637.6c1.1-13.1,7.8-42.8,20.5-49.2.7,2.4-2.2,10.7-3,14.3,3.8,3.8,19.3,5.9,25,1.9,3.1-1.7,1,1.4,5.1-3,2.8-2,2.8-2.2,6.1-3.4l3,1.5h.3c-1.8,7.6-9.6,9.3-16.2,11.1-3,3.3-5.1,6.5-9.2,7.3-7.9,1.7-15.9,6.2-22.9,8.5,3.1.3,5.2,0,7.4,2.1,2,6.1-6,11-9.2,17.2,2.5-2,4.2-3.6,7.3-4.5l1.7,1v2.1c.1,0-.8,1.1-.8,1.1-5.7,6.4-7.4,8.8-5.9,17.4-3.8,6.3-9.1,11.1-9.4,17.4l-1-.5c-.2-2.9-.1-7.5-1.4-9.8,1.8-4.3,1.9-26.2,2.6-32.4Z"/>
  <path fill="#b8de31" d="M352.7,609.7c-.5,6.9-19.9,6.7-25.1,7-.5-1.1-.4-.5-.2-2,7.1-2.4,17.7-4.2,25.2-5Z"/>
  <path fill="#fbfcf5" d="M539.9,687.7c29.6-.5,39.7,13.1,65.7,23.7,11.2,4.6,33.1-.7,38,8.2-.1,3.3.3,1.7-2.3,4.8-4.5,2.2-23.1,3.1-26.9.9-22.5-12.9-47.1-16.4-71.1-25.2-3.1-1.2-6.8-4.1-7.8-7.2,1.2-3.4,1.1-2.5,4.5-5.2Z"/>
  <path fill="#9ad104" d="M413.2,643.2c-3.8-1.3-8.8-4.2-10.5-7.8,5.6-9.6,32.5,10.6,41,9.1,1.3-.2,5.7.1,6.9.9l-4.4.9.8,1.5c4.6,1.1,8.3-1.7,13.3-2.6,5.8-1,10.9.3,16.2,0,1.8,1.9,2.2,3,1.8,6-1.9-1.5-2.5-1.5-4.8-2-1.6,4.2-.9,4.5-4.5,6-4.2,1.7-11.2,2.5-13.4,6.6l2.7,3.4c-4,2.4-1.7-1.7-4.9,1.5,1,2.8,1.4,3.1,3.3,5.3v1.8s-2.2,2-2.2,2c2.2,5.2,5.1,4.4,6.2,8.6l-1.1,1.6-3.9-.2c-1.9,2.2-3.5,12-5.3,17.2-2.3-3.8-2-4.9-2.1-9.4v-1.4s-1.4-.3-1.4-.3c-.8-1-1.4-2.1-2-3.3.7-2.6.9-4.4,1.3-7.1-.9-.3-1.3-.8-2.1-1.4-1.1-3.7-.5-5.1.1-9.1l.2-1.4c-1.4,2.2-.5,1.7-2.4,2.3,0-2.6-.2-3.9-.5-6.5-2.1,1.4-3.8,2.8-5.8,4.4-2-3.2,5.1-5.5,6.1-9.8-1.8-2.4-1.9-2.8-2.4-5.7-3,.3-1.5.4-4.5-1.1l-.7-2.1c-3.1-.4-1.5-.5-4.7,1.6l-1.3-.3c-.9-2.2-.8-2.1-2.3-3.9-2.2,1.1-1.9,1.3-3.5,3.1l-2.4.2c1.1-2.3,1-2.2,1.1-4.8l-1.4-.7c-1,.6-6.1,5-5,4.5-.9-4.2,1.5-3.6.6-7.3l-2.2-.4Z"/>
  <path fill="#99ca18" d="M414.2,886.3c1.6,2.2,3.9,7.7,3.7,10.5-3.1-1.1-3.4-1.7-6.4-1.3.5,3.1,6.4,10.3,8.6,13.3l-.3.7c-3.1-1.8-1.6-1.6-4.7-1.6-.9,2.9-.4,2.3,1.6,6.1l-.6.2c-2.1-.9-2.4-1.1-4.7-1.5-1.3,4.8,2.7,3.3,2.1,7.7l-2.6-.6-1,1c.9,6.3,3.1,3.1,3.8,8l-1.4.3-4.4-4c-3.6,4.6,6,9.2,4,17.4l-.6,1.5c-3.1,3-26.4,7-32.2,6.9l-.2-.6c6.3-17.1,10.2-29.1,20.8-44.5,2.9-4.3,5-10.2,9.3-13.5,2.4-1.8,3.4-3.6,5-6.1Z"/>
  <path fill="#f3fac3" d="M463.4,663.6c11.8-.6,38.9,12.4,49.3,20.2-6.7.3-13.2.2-19.9.2,3.5,1.3,10.2,2.7,12.4,4.8-1.5,2.1-4.9,2.6-7.8,3.5l.9,1.9-.8,1.1c-14.3,1.7-21.8,5.1-23.4-12.4l1.3-.7c-1.5-3.5-14.4-6.9-17.1-11.9l1.5-.9c5.2.2,10.3,2,15.3,3.5-5.3-3-10-3.2-11.7-9.2Z"/>
  <path fill="#fbfcf5" d="M482.1,673.5c12.4,1.1,17.2,5.2,11.1,18-3.6.3-4.5.5-7.9-.8-5.1-4.8-9.1-11.4-3.3-17.3Z"/>
  <path fill="#9ad104" d="M851.5,722.4c.5-.2,1-.3,1.5-.5,16.1-6.3,13.9,30.1,9.7,37.3-2.8,1.1-8.6.7-11.9.7-10.5,0-8.8-11.1-7.2-18.4,2.1-9.2-3.2-11.4-1.7-18.1,2.6-1.8,5.9-1.1,9.6-1.2Z"/>
  <path fill="#fbfcf5" d="M321.2,842.9c.8.8,1.7,1.8,2.4,3.1,1.9,3.2,2.7,51.4,2.9,51.1-9.2,12.4-3.1,12.4-5.8,19.5-1.9,1.6-3,2.5-4.5,4.4l-1,1.2-1.2.6c-2.3-1.3-4.3-4.5-4-7,2.6-16.7,2.4-34.1,5.4-50.6,1.4-7.9,4.4-13.7,5.8-22.2Z"/>
  <path fill="#fbfcf5" d="M422.6,784.9c3.3,2.4,2,.9,3.7,5-.7,3.4-1.2,3.6-.3,6.7,2.5,1.4,3.7,1.7,5,4.2,0,6.3-10.8,32.1-16.1,35.9.2-4.2.9-7.1-1-10.8-2.6-2-5.3-3.7-5.9-6.9-1.5-8.4,3.5-19.3,7.6-26.3l.8-1.4c2.4-4,2.1-3.9,6.2-6.5Z"/>
  <path fill="url(#fixed_id_1)" d="M309.4,594.3c1.8.3,1.3.2,3,1-.6,4.5-2.8,12-4.5,16.1-10,24.2-6.1,48-6.2,73,0,2.5-2.4,3.5-4.3,4.7-8.1-10.9,0-49.3,1.6-62.1,2.6-20.1-9.5-17.1,10.4-32.6Z"/>
  <path fill="#fbfcf5" d="M531.6,650.9l2.8-.7c5.3,1.5,11.8,2.4,11.4,9.1-3.5,4.2-10.4,4.1-15.6,5.1l-.3,1.2c2.8,1.7,6.6,3.7,7.8,6.5-4,.9-9.1-4.7-13.7-2.6l.9,2.5,1.4.7c-4.7.3-26.6-8.8-24.7-15.7,9.1-7,24.2-3.4,30.1-6Z"/>
  <path fill="#fbfcf5" d="M352.7,814.9l.8,1.7c-1.1,2-.9,1.1-1,3.3,5.1-.1,9.8.3,13.5,4.1-1.4,3-2.3,5-3.4,8.1,1.9,1.4,2.2,1.5,4.4,2.4.6,8.8,2.4,18.4-8.3,21-2.7-5,0-6.9-2.9-12.4-2.1.8-1.4,3.4-3.1,7.1-.7-4.2-.2-5.5-2.5-8.2l-1.2.7-.4,4.1-.6.4c-1.2-13.2-4.9-21.8,4.6-32.3Z"/>
  <path fill="#e8ee17" d="M346.7,711.2c1.8,1.8,2.6,4.5,2.3,7-6.4,9.9-21.1,57.7-22.9,70-11.8-11.2,11.8-68.1,20.5-76.9Z"/>
  <path fill="#f3f50d" d="M342.4,669.1c2.7,13.3-16.6,37.5-16.2,43.6,1.3,21.5-.4,13.8-9,34.2-2.2-12.9.8-35.6,7.8-47.5l-.3,1.7c8-11.3,11.1-22.1,17.7-32Z"/>
  <path fill="#f3f50d" d="M413.2,643.2l2.2.4c.8,3.7-1.5,3.1-.6,7.3-1.1.4,4-3.9,5-4.5l1.4.7c0,2.6,0,2.5-1.1,4.8-1,6.4-2.5,6.5-2.3,14.5-5,5.4-13.5,18.1-17.4,19.9l-1.3-1c-.6-11.3,7.7-32.1,14.1-41.8Z"/>
  <path fill="#f3fac3" d="M354.8,788.9c4.5-2.1,8.4-4.3,13.2-4.8l1.3,1.1c-1,4.1-2.6,5-5.8,7.9l2.3.5c-.3,2.6-13.8,10.1-18.6,17,.7,3.4,1.1,4.5.6,8.1-2.2,1.8-1,1.3-3.8,1.3-.4-2.8-.6-3.5-1.4-6.2l-1.9,2.7-.9-.5c-4.9-14.2,5.6-20.5,15-27.2Z"/>
  <path fill="#eaf99c" d="M354.8,788.9c4.5-2.1,8.4-4.3,13.2-4.8l1.3,1.1c-1,4.1-2.6,5-5.8,7.9l-2.2.5-6.5-4.7Z"/>
  <path fill="url(#fixed_id_1_2)" d="M446.8,901.5c5,1.4,8.1,5,12.3,6.1-.3-1.9-.3-1.6-.2-3.6,2.1.2,7.8.5,9.1,1.6,3.9,3.4,9.3,9.5,10.3,14.6l-2.7-2-.9.3c1.2,2.9,2.4,5.6,3.7,8.4.2,1.9.3.9-.5,3l-1.6-.4c-2-1.9-3.6-3-4.5-5.7l-1.2.3,1.6,3.5-1,1c-7.1.3-22.7-20.7-24.4-27.2Z"/>
  <path fill="#fbfcf5" d="M433.2,742.1c7.6,2.5,9.9,14.3,1.3,19.5-4.9-.2-7.4-.3-12.3.7-2.8-3.9-3.9-4.7-7.5-7.9-1.2-3.7-1.3-1.9-.1-5.4,5.3-5.3,11.5-5,18.6-6.9Z"/>
  <path fill="#f3fac3" d="M692.9,687.7c12.1,0,35.4-.8,46.5.4-.4,2-.9,3.9-1.3,5.8l-3.1,1-1,.3c-10,3-36.3,1.9-45-4.6v-1.5s3.9-1.4,3.9-1.4Z"/>
  <path fill="#f3f50d" d="M300.7,548.1c2.2,1.4,2.5,1.6,4.9,2.3l1.8.5.6,2c-1,4.6-3.6,6.5-6.8,10.5,0,2.2,0,2.4-.5,4.5l-1.4.3-1.8-2.7c-5.5,2.9-8.1,3.2-15,7.2l-1.1-1.2c0,3.3.6,1.9-1.5,4.3l-1.5-.3c-2.9-7.1,2-4.2,3.4-9.1l-2.4-.8-.3-1.2c4.5-6.5,14.5-11.8,21.5-16.3Z"/>
  <path fill="#e8ee17" d="M343.2,649.6c-1.2,17.4-12.4,28.4-20.6,43-2.5,4.5-7.7,19.2-11.1,20.9-4.4-16.4,11.8-34,20.8-45.9,3.3-4.3,8.1-13.1,10.9-18Z"/>
  <path fill="#fbfcf5" d="M358,614.3c12.9,4.6-1.5,31.3-5.1,39.7l-1.5-.9c-7.9-10.5-1.3-30,6.6-38.9Z"/>
  <path fill="#fbfcf5" d="M361.3,925.7c.5.8,1.5,3.1,1.4,4-1.5,8.5,12,17.5,4.7,24.5-4.1,1.5-5.4.9-9.9.2-3.8-1.5-6.2-1-8.7-4-1.5-6.2,9.1-16.8,12.6-24.7Z"/>
  <path fill="#99ca18" d="M450.4,703c1.9-5.2,3.5-15.1,5.3-17.2l3.9.2c5.6,5.3,12.5,6.3,17.7,11.5-.5,1.6,0,.7-1.7,2.3,2.2,3.4,2.6,4.1,3.1,8.2l-1,2.2c-5.9,1.6-6.7-6-12.6-7.9l-4.5,2.9-1.9-.5c-.8-2.8-.4-4.4,0-7.2l-.9-.8c-2,3.1.3,3.4-1.6,6.9l-.9-.2-.8-4.8c-.8,2.2-1.6,4.3-2.3,6.5l-1.7.5v-2.5Z"/>
  <path fill="#fbfcf5" d="M350.7,881.2c14.7.2,14.1,21.5,9.9,30.9,0,.4-.2.8-.2,1.1-2.8-.1-5.5.4-7-1.7-6.4-9.1-3.9-20.9-2.7-30.3Z"/>
  <path fill="#f3f50d" d="M236.1,642.3c2.1,1.8,1.2.7,2,4,2.6-1.8,2.6-2,5.6-2.9.7,2.4-.9,22.4-.9,27.2.1,8.9,2.2,12.9.9,21.5-.8,3-.2,2-1.9,4.3l-1.3-1c-2.3-16.7-9.3-36.9-4.4-53.1Z"/>
  <path fill="#f3fac3" d="M275.2,790c7.4,1,22.1,11.7,27.1,17.7,4.5,5.4,6.3,9.6,5.9,16.6l-1-.7c-8.9-6.6-30.4-22.9-32-33.6Z"/>
  <path fill="#eaf99c" d="M396.4,786.4c1.6,1.1,3.5,3,4.9,4.3-3,6-32.7,16.7-38.4,24.5-1.1,1.4-1.7,1.8-3.2,2.8v-1.7c1.8-2.2,2.7-2.9,3.7-5.7l-1.2-2c-1.1,2.6-.2,1.7-2.3,3.3l-1.9.2c.9,3.5,1.6,3.6.6,6.4h-.9c-1.2-2.5-2.9-4-3.6-6.1,8-7.5,30.7-18.1,42.3-26Z"/>
  <path fill="#b8de31" d="M387.8,697.1l1.9.4,1.8-1.4c.4,3.7-.5,7,1.3,9.4l4.4-1,.7.9c-2.4,2.8-3.6,4.3-5.5,7.4,3.9-.9,2.7-2.5,6.5-3.1-3.2,3.7-10.8,11.9-12.8,15.6l-.7,2.4c-4.4-8.7-4-1.9-8.8-6.7,4.8-2.3,6.6-10.2,7.8-15.1,1.9-2.8,2.5-5.5,3.5-8.7Z"/>
  <path fill="#f3fac3" d="M404.7,823.3h1.2c2.3,5.2,6.4,12.3,9.1,17.8-1.7,4.3-11.8,12.5-15.5,15.5-.4.2-1.8.3-2.3.3-6.6-10.2,16.9-15.3,7.7-29.2.4-2.3.3-2.2,0-4.5Z"/>
  <path fill="#f3fac3" d="M251,606.7c9,2.8,10.9,28.8,5.6,35.7-1.1-.6-3-2-3-3.4-.4-9.1-6.4-24.6-2.5-32.3Z"/>
  <path fill="#e8ee17" d="M277.3,719.2l.8-2.1c1.6,1.4,3.2,2.9,4.9,4.4,2.1,1.1,6.4,9.4,8.4,11.5,2.2,2.2-.2-2.2,3.7.5,0,5.3-.3,15-2.5,19.6l-1.9-.2c-2.3-3.6.6-9.5-.7-12-3.2-6.3-13.3-14.2-12.5-21.7Z"/>
  <path fill="#f3fac3" d="M324.2,921.6c2.2,1,1.3.3,2.9,2-.5,13.3,3.8,19.8,0,30.3-3.9-.1-4.2,0-6.9-1.9-2.6-5.6,2.5-23.3,4-30.4Z"/>
  <path fill="#99ca18" d="M452.5,806l1.9,1.5c1.6,3.3.4,6.3.6,10.2,2.3,4.5,6.4,4.6,7.3,7.6-1.5,4.4-1.5,5.1-4.9,8-1.3-1.4-2.1-2.5-3.8-3.4-11-5.1-4.2-15.4-1.1-24Z"/>
  <path fill="#fbfcf5" d="M343,524.9l2.4,1.1c4.5,8.4-2,17.5-8.1,23.3-7.5-10.1-.8-15.5,5.7-24.4Z"/>
  <path fill="#f3fac3" d="M312.3,784.8c9.2,3.5,11.6,21.6,7.9,29.5-7-2.2-9.1-23.3-7.9-29.5Z"/>
  <path fill="#e8ee17" d="M345.3,685.8c3.7,8.3-5.5,30.4-8.9,38.4l-.7-.6c-1.9-.9-2.4-1.3-4.1-2.5,4.3-10.8,9.3-25.5,13.7-35.4Z"/>
  <path fill="#f3fac3" d="M293.2,818.8c9.3-.4,15.2,10.5,11.2,18.5l-3.3.2c-6.1-5.6-11.9-9.9-8-18.7Z"/>
  <path fill="#f3fac3" d="M635.8,688.6c8.1,1.2,23.2,1.6,24.1,11.3-8,1.6-20.9-3-25.7-9.7l1.5-1.6Z"/>
  <path fill="#e8ee17" d="M460.2,588.9c-9.9-4.9-19.2-6.7-25.2-9.7,2.3-3.2,4.6-3.3,8.7-4.9v.5c5.8,3.4,11.8,4.8,18.2,7.8l.8,3.2-2.4,3.1Z"/>
  <path fill="#99ca18" d="M128.6,665.3c3.1,2.6,5.5,3,8.2,5.4-.4,3.5-2.5,4.8-4.7,8.5l-.9,1.5-3.2,1.5c-5.4-1.4-5.1-7.7-4.4-12.1,2.2-2.8,2.4-2.8,5.1-4.8Z"/>
  <path fill="#99ca18" d="M429.2,859.8c2.4-.5,3.2-.8,5.6-.6,3.5,5.7,4.8,10.5,1.3,16.5-5.2-1.4-8.6-4.1-10.3-9.3.5-3.9.6-3,3.4-6.6Z"/>
  <path fill="#99ca18" d="M577.7,727.4c12.1-1.5,19-2.2,27.2,7.3-2.1,1.5-3,2.6-5.9,1.9-5.1-1.2-18.2-5.4-21.3-9.2Z"/>
  <path fill="#e8ee17" d="M277.3,719.2l-1.2,1.6c-5.4-1.4-9.7-14.9-9.1-20.2,1.7-.3,1.9-.3,3-1.7,1.6,2.1,11.7,19.8,13,22.5-1.6-1.5-3.2-2.9-4.9-4.4l-.8,2.1Z"/>
  <path fill="#9ad104" d="M140,733.4c5.8-.9,15.2-.5,18.2,5.3-.9,4.1-1.1,3.2-4.4,6.9-1.4-.5-1.4-.3-2.2-1.2-7.6-8.9-6.4-4-15.7-5.8l.6-1.8c2.3-1.3,1.9-1.3,3.5-3.4Z"/>
  <path fill="#f3fac3" d="M340.5,928.9c2.7,2.9-3,22.1-6,24.4-2-.3-3.6-.3-5.6-.4,1.3-4,6.6-21,8.6-23.3.5,2.7.1,1.9,1.4,4.1.6-.7,1.3-3.7,1.6-4.8Z"/>
  <path fill="#9ad104" d="M458.3,749.3c.7,1.7,1.7,1.9,1.7,3.6,0,4.9-4.5,20-7.5,23.2l-2.3-1.1,1.6.5-1.2-1.3-.5,2.1c-1.4,1.6-1.3,1.5-3.4,2-.1-5.9,8.4-20.9,11.1-27.9l.4-1.2Z"/>
  <path fill="#f3fac3" d="M489.5,701.1c5,.7,14.6,2.9,17.5,7.5-1.5,1.9-1.8,2.2-2.6,4.4l-.5,1.5c-5.1-3.7-14.7-6.1-16-11.6l1.7-1.8Z"/>
  <path fill="#eaf99c" d="M683.1,666.3c3.7-1.2,2.1-1.4,5.1-.4v2c-4.3,5.4-6.4,5-13.3,6.2-3.2-.2-5.6,0-7.5-2.1,3.2-3.5,11.1-5.1,15.6-5.7Z"/>
  <path fill="#f3fac3" d="M349.2,917.6c1.7,1.6,2,2,4,3.1l1.4.8c-2,5.5-3.8,10.8-6.2,16.2l-2-.9c-2.2.9-1.2.9-3.2.3l5.9-19.4Z"/>
  <path fill="#eaf99c" d="M395,887.4c3-3.5,2.3-3.8,5.9-4.6l1.6,1.2c.3,3.8,0,4.2-3,7.1-2.5,3.6-4.7,8.8-9.4,7.7-1-4.9,2-7.7,4.8-11.4Z"/>
  <path fill="#f3fac3" d="M395,887.4c3-3.5,2.3-3.8,5.9-4.6l1.6,1.2c.3,3.8,0,4.2-3,7.1-1.5-1-3.1-2.5-4.5-3.7Z"/>
  <path fill="#99ca18" d="M134.8,700.2c-3.1,0-4.2.9-7.6.6-.2-4.3,3.1-13,8.6-11.3,2.5,3.4,2.3,3.8,2.6,8.1l-3.6,2.6Z"/>
  <path fill="#99ca18" d="M194.5,725.3l.6,3.3c-2.1,6.1-9.2,7.4-14.8,5.6l-1.9-.2-.3-1.7c2.5-2.2,12.7-5.6,16.4-7Z"/>
  <path fill="#f3fac3" d="M340.3,859.8c8.1,1.5,9.3,8.7,5.2,14.9-6.2-1.5-6.1-10-5.2-14.9Z"/>
  <path fill="#e8ee17" d="M356.6,604.6c-6.6-3.5-11.4,1.4-17.9-4v-1.9c4.5-2.8,14.2,1.8,23,2.9-4.2,4.4-2,1.3-5.1,3Z"/>
  <path fill="#e8ee17" d="M228,598.8c3.7-1.1,6-1.2,9.5.7l.7,2.5c-4.2,4.3-2.5-.2-8.2.5-4.4,1.7-6.3,3.5-9.9.4l.7-2.1c3.4-2.3,2.6-1.6,7.3-2Z"/>
  <path fill="#fbfcf5" d="M404.6,860.2c3.7.2,2.2-.4,4.8,1.6l.4,2.8c-1.3,4.1-1.6,4.5-5,7.3-3.7-1.2-4.3-1.7-5.2-5.3,1.2-3.4,2.3-4,4.9-6.4Z"/>
  <path fill="#99ca18" d="M880.2,659.4l4.1.4c4,3.4,2.1,8.3,3.2,15.8l-2.3-1c-3.9-6.8-6.5-8-5-15.2Z"/>
  <path fill="#f3fac3" d="M511.5,715.3c5.5-.6,10-2.5,13.9,1.6-.7,2-.6,1-.3,3v1.8c-5.6.4-10.6-1.7-13.6-6.4Z"/>
  <path fill="#99ca18" d="M468.1,951.7c3.4.9,7,1.4,9.4,3.8,1.4,3.3.6,6.9.2,10.6-.2-.3-.3-.5-.5-.7-4.6-3.4-6.5-8.4-9.1-13.6Z"/>
  <path fill="#9ad104" d="M476.1,813.3c1.9,3.3,2.6,1.8,4.4,6.9-1.2,3.7,0,2.2-3.9,4.2-2.5-1-3.6-1.1-5.4-3.1v-1.7c2.2-2.5,3-3.6,4.9-6.3Z"/>
  <path fill-opacity=".1" d="M93.5,698.4c2.3,0,2.2,0,4.3,1-.3,3-4.4,7.3-6.7,10.3l-1.7.6-1.4-.8c-.4-4.2,2.9-8.1,5.5-11.1Z"/>
  <path fill="#99ca18" d="M550.4,712.2c3.4.4,11.7.9,14,3.1v2.6c-7.1,1.6-10.8,1.6-14-5.7Z"/>
  <path fill="#99ca18" d="M788.7,668.6c1.6-.4.6-.4,2.8.3-4.2,2.9-6.4,5-11.4,5-1.7-1.2-3.2-2.4-4.8-3.6l1-1.2c4.1-.2,8.3-.4,12.4-.5Z"/>
  <path fill="#99ca18" d="M443.3,872.5c6.3,2,6.8,2.3,8.9,8.6-3.9.3-4.5.4-7.7-1.6-2-3.9-1.6-2.2-1.2-7Z"/>
  <path fill="#c1d874" d="M494.3,998.2c9.3,3.7,32.1,4.6,43.5,6.5,7.9,1.3,25.2,5.1,32,5.5,2-1.7,1.8-2,2.5-4.6,0,3.3-.5,5.2.5,8.2,8.3,4.3,19.9,6.5,28.8,10,5.3,2.1,8.5,5.8,13.1,7l2.1-.6c.1-1.5.2-2.7.3-4.2l.8-.4c2.9,4.4,10.6,6.8,15.4,9.4,22.9,12.6,43.1,32.3,61.2,50.8l8.8,9.3c7.1,7.6,13.9,14.7,21.7,21.2,23.7,19.9,42,31.4,46.9,63.9,2,13.1,3,16.7,2.9,30.6-.2,16.6-5.7,23.8-7.4,37.5-2.4,19.6,3.2,43.4,1.2,63.3-2.1,21.4-5.4,45.8-8.6,66.5-2.8,17.7-21.6,112.8-12.9,125.8-9.3-1.4-27.4,6.3-41.6,3l-9-.3c-19-8-15.6,7.7-23.8,8.5,5.8-8.7,4.2-18.2,3.1-28.5-3.8-35.8-9.6-74.9-23.5-108.3l-1.5-2.4c-12.3-32.4-10.5-61.3.8-94,4.6-13.3,29.4-47.5,24.9-57.7-2.1-1.2-3.6-1.7-5.9-2.4-24.6-6.5-50.2-2.2-75.1-6.7-.7.4-1.5.8-2.2,1.2-4.7,6.9-6.7,34.2-8,44.4-.6-16.4.7-31.9,2.5-48.1-.3-.5-.5-.9-.8-1.4-7.8-5-13.2-3.8-20.3-6.3-8-2.9-11.8-5.5-20.9-7.6-3.1,6.3,2.6,18.7-5.2,26,.9-6.1,2.8-14.2.2-19.6l-2.4-2c-10.8,1.6-30.8,97.2-12.5,92.2,7.5-8.1,11.5-47.8,13-60.3.2,13.7-1.1,50.5-8.4,61.7-6.8,4.2-31.5,3.8-40.8,5.8-11.1,2.4-24.5.2-35.8,3.5l-1.8-.6-3.4-1.1c-5.8-1.8-4.4.1-7.9,1.2-9.1,2.6-24.2,2.2-33.9,2.4-4.4-3.9-3.7-14.9,1.4-19.1-1,5.2-3.1,10.2.2,14.6,3.6.6,1.9.7,5.4-.5,3.6-10.5,2.5-24.7,8.5-40.5,4.7-12.5,29.3-55.9,30.3-62.9l-3.9-.6c-5.3-1.4-13.8-1.8-20-3-10.4-2-18.8-4.4-28.9-7.3,6.4-2.5,19.1,2.9,22.9,0l-2.5-2.7,1.5-1.8c7.3-.7,15.7-3.4,22.6-3.6,18.7-.5,38.8-4.2,57.2-5.2,2.2,2.8,2.4,3.2,5.3,5.5,3.4,0,1.9.5,4.7-1.8-.3-2.8,0-1.4-2.8-4l-1.9.5c-3.8-1.1-12-12.5-15.1-16.6,1.6-3.8,2.1-4.4,1.3-8.4l3,.2.4-1.3c-5.7-4.1-13.6-.4-15.6-6.9,6.6-20.9,31.2-14.5,35.1-16.9-1.8-2.6-5-1.2-7.4-4.4l3.8-.9c-2.5-3.1-9.3-1.1-10.8-6.8,5.6-9.3,2.3-9.4,7.7-17.9,6.3-9.9,15.3-20.1,21.4-29.7,2.8-8.1,1.4-15,8.1-21.5,4.9-4.8,6.9-.5,10.8-3.5-2.6-1.8-6-3.5-7-6.3,1.9-6.4,4.4-3.6,7.2-8.5,2.1-3.7-1.2-7.4,2.1-10.9-4.7-6.8-53.8-3.1-57.1-15.7Z"/>
  <path fill="#99ca18" d="M708.5,1118.3c-1.6-1.3-14.3-9.2-17.5-11.5-3.4-13.1-10.3-6.2-12.9-12.3,2.3-.8,1.4-.2,3-1.8-2.8-2.7-5.5-5.2-7.8-8.3l.9-1.3c4.1-.4,8.9,3.7,12.3,3.3,2.7-.3,5.2-.4,8.1-.5l8.8,9.3c.4,7.9,11.6,18.2,17.4,23.2l2.6,2.2c-6.6,3-8.4-1.8-14.7-2.1Z"/>
  <path fill="url(#fixed_id_1_3)" d="M696.3,1506.6c4-3.9,7.8-5.4,7.5-9.8-.8-12.9-3-26.4-3.9-39.3-.3-4.5,1.9-15.9,2.4-21.6l1-.3c.6.8,4.8,15.7,4.9,17.2.9,17.7,2.9,37-2.9,54l-9-.3Z"/>
  <path fill="#99ca18" d="M650.6,1375.9c-.3-4.9-1.5-11.3-.3-15.5l1.3-.7,4,2.5c1.3-2,1.1-1.9,2-4.1,5.6,2.9,5.8,23.7,3.3,29.1l-1.6.9c-1.3-2.6-.9-2-1.4-4.9-2.2-2.7-2.5-3.3-5.6-4.9l-1.5-2.4Z"/>
  <path fill="#99ca18" d="M448.3,1197.6c.7-1.8.7-3.2,1.9-3.5,6.9-1.6,13-2.8,19.6-.2l1.3,1.8c-1.5,3.5-10.2,8.5-13.9,8.1-1.6-2-1.9-2.6-3.1-4.9l-1.9-.8-3.9-.6Z"/>
  <path fill="#9ad104" d="M708.5,1118.3c6.3.3,8.1,5.1,14.7,2.1h.5c3.3,2.6,2.2,1,3.7,4.4-2,1.9-2.3,1.3-5.9,1.5,1,1.8,2,3.4,3,5.1l-.4,1.5-3.6,1.7-11.8-16.3Z"/>
  <path fill="#fbfcf5" d="M583.1,1100.2c2.1-1.1,3.2-1.5,4.8-3.3.7-7.2-6-7.6-8.9-14.6l.8-1.2c5.4.5,20.4,14.6,22.4,19.2,5,9.8,15.4,7.5,16.8,14.5-2.7.9-8.5-1.2-11.7-2,1.9,5.1,12.8,5.6,13.1,14.1l-1.8.8c-11.9-1.3-29.6-14.9-42.2-18.6-5.9-1.8-16.8-.9-22.8-3.9-4.4-2.2,2.7,1-3.2-1.4-4.1-.3-3.9-4.2-3.6-4.1-4.4-1.5-4-8.6-2-12.2,1-1.8,2.3-2.1,4.9-2.7,1.5.7,2.1.9,3.8,1.3,9.5,2.3,21.4,9.1,29.5,14.1Z"/>
  <path fill="#f3fac3" d="M583.1,1100.2c2.1-1.1,3.2-1.5,4.8-3.3.7-7.2-6-7.6-8.9-14.6l.8-1.2c5.4.5,20.4,14.6,22.4,19.2-2.6-1.9-3.8-3-7-3.8-5.3.8-5.6,2.8-10.5,4.8l-1.8-1.1Z"/>
  <path fill="#fbfcf5" d="M710.3,1224.7h2.8c2.8,2.2,2.8,2,4.3,5.4.4,12.3-9.2,23.7-6.8,36.9,1.5,8.1-1.3,38.4-8.9,40.8-2.6-1.9-2.8-2.1-6-2.3l-1.3-3-2.4-.3c-2.3-3.9,0-8.5-1.9-12.2-7.2-14.5,3.5-28.3,9.3-41.1,3.6-7.8,4.5-17.6,10.8-24.1Z"/>
  <path fill="#fbfcf5" d="M484.2,1227.9c3.6,0,2.2-.7,4.7,1.6,3.3,8.5,1.3,52.8,1.1,65.2l-1.7,1.4c-4.4.6-3.4,1.1-6.9-.4.4-2.9,1.3-6.2.6-8.8l-3.4,2.8-1.4-.2c-4.2-8.5-2-24.4-1-33.5-1.4-1.8-1.5-1.9-2.7-3.9.4-7.8,5.8-18.4,10.7-24.2Z"/>
  <path fill="#f3fac3" d="M726.5,1373.9l.8,1.2c3,1.1,1.4.9,5.4-.8,3.8,13.6-9.3,64.4-13,79.5-1.3,2.4-1.2,2.6-3.4,4.2l-1.2-.7c-2-9.6,3.9-39.3,3.2-51.2.6-.9,1.2-1.8,1.8-2.6,1.6,0,1.3.3,3.1,1.5,1.3-4.4,2.4-24.3,3.4-31.1Z"/>
  <path fill="#fbfcf5" d="M742.6,1199.6c-.7.6-.2.3-1.9.6-3.7-3.2-13.5-9.6-15-12.6,5-2.2,13.1,1.8,21.7-1.2,4.3-5.1-1.5-17.4,5.5-23.1,6.2,2.1,7.5,13.3,6,19.3.5,4.8,1.7,11.3-.2,15.5-2.9,2.5-3.1,2.7-7.7,2.4h-1.7c-1.3,5,.1,9.1-1.9,12.9-1.3-2-4.3-11.3-4.8-13.8Z"/>
  <path fill="#f3fac3" d="M758.9,1182.5c.5,4.8,1.7,11.3-.2,15.5-2.9,2.5-3.1,2.7-7.7,2.4h-1.7c-1.3,5,.1,9.1-1.9,12.9-1.3-2-4.3-11.3-4.8-13.8,9.9-7.9,14-3.9,16.3-17.1Z"/>
  <path fill="#f3fac3" d="M532.1,1121.1c8.4-1.4,21.8,4.1,30.4,6.1,7.9,1.8,34.5,6.2,39,11.6l-1,2.2c1.7,2.3,6.3,3.7,9.9,6-8,1.8-23.5-4.7-31.8-7.1-6.1-1.7-37.9-9-40.5-12.6l1.7-1.6c-3.1-1.6-4.9-2.8-7.8-4.7Z"/>
  <path fill="#99ca18" d="M647.9,1182c-11.5-1.5-28.2-16.8-40.4-19-3.5-.6-7.2-1.8-9.1-4.9,3.9-2.3,31.2,3.4,34.8,8.1,6.6,5.9,20.4,3.7,28.1,11.7l-.3,1.2c-5.7,1.6-7.6-.4-10.7,1.6-2.2,1.4-1,.8-2.4,1.2Z"/>
  <path fill="#99ca18" d="M647.9,1182c-3.9-7.2-8.1-4.8-15.4-13.6l.6-2.1c6.6,5.9,20.4,3.7,28.1,11.7l-.3,1.2c-5.7,1.6-7.6-.4-10.7,1.6-2.2,1.4-1,.8-2.4,1.2Z"/>
  <path fill="#fbfcf5" d="M558.3,1161.4c7.8-.8,29-2.3,30.8,8.2-1.8,3.8-1.9,4.2-5,6.8-10.8.3-25.3-1.2-30.5-12.6,1.2-2,1.7-1.5,4.7-2.5Z"/>
  <path fill="#f3fac3" d="M496,1128.1c5.1-1.6,31.5,8.8,36.7,11.7l-1,.7c-2.6-.8-5.3-1.5-7.9-2.2h0c0,.1,1.4.6,1.4.6l.2,1.3,1.5.8.5.4c-5.5,2-37.4,1.1-40.9-4.9,2-3.5,6.2-4,9.5-8.5Z"/>
  <path fill="#99ca18" d="M647.4,1206.2c5.9-1.5,20-.4,20.6,7.2-5.8,4.1-17.1,0-24.7,2.5-2.3,0-4.6,0-6.9,0-3.8,0-11.9-.4-14.5-3,3.3-8.6,16.9-7.1,24.7-6.1l.6-.7Z"/>
  <path fill="#99ca18" d="M553.1,1042.7c6.6-.4,18.8,8.2,23.7,12.9,5.2,5-.4,3.7-.8,10.3-5.6-1.7-27.9-15.6-29.4-21.5,2.2-.4,4.3-1,6.5-1.7Z"/>
  <path fill="#f3fac3" d="M511.3,1153.2c4.2-1,47,2.5,53.5,3-7,.4-12.6,2.5-19.3,2.3-2.2.2-3,1.1-4.1,2.7,1.1,1.8,2.3,3.4,3.7,5-1.4,0-5.2-1-6.1-1.7-5.8-4.5-31.5-5-33.5-10.1l1.4-1.2,3.4,1,1-1.1Z"/>
  <path fill="#f3fac3" d="M683.5,1403.6l2.4,1.1c1.6,5-1.2,44.4-2.6,50.2l-1-.8c-10.8-2.9-.8-42.2,1.1-50.5Z"/>
  <path fill="#99ca18" d="M472.6,1206.2c4.5,2.3.6,3.6,3,7.2l7.3-2.1,1.1.8c.6,5.4-9.1,17-12.9,20.9-1.8,2.8-2.4,5-6,4.2l-.9-2.2c.6-7.8,4.3-22.2,8.4-28.8Z"/>
  <path fill="#99ca18" d="M731.1,1430.6c7.2,4.5,0,37.8-4.8,42.3-6.7-10.6,2.1-28.7,4.8-42.3Z"/>
  <path fill="#9ad104" d="M676.3,1369.5c4.9,1,6,.8,10.7-.6,4.3,4.1-2.3,2.2,2.8,5.2l2.8-1.9c3.7,2.6,4,8.3,2.1,12.2-5.3,2.2-9.9.3-13.4-4-4-1-5.7-5.9-6.9-9.7l1.8-1.2Z"/>
  <path fill="#99ca18" d="M681.4,1380.5c-4-1-5.7-5.9-6.9-9.7l1.8-1.2c2.9,2.2,6.2,3.9,7.3,7.3-.9,2.5-.4,1.7-2.2,3.7Z"/>
  <path fill="#f3fac3" d="M596.6,1175.1c7.8,1.8,37.3,13.4,42,19.4-2.4,1-1.2.6-4.7-.4-6.1-2.1-39.6-11.6-40.8-16.3l2.1-1.9,1.1,1.4.3-2.3Z"/>
  <path fill="#eaf99c" d="M451.9,1219.5l.3.4c.7,4.8-13.3,33.7-15.9,42.9l-.4,1.4-1,.5.5-3.3-.5-2.1c-2.8,0-2,.4-4.2-.7,1-8.4,16-31.7,21.3-39.1Z"/>
  <path fill="#fbfcf5" d="M656.2,1093.7c13.3-.4,22.1,7.6,25.8,20-9.2-3.9-16.8-5.4-22.9-13.4-.4-2.9-1.4-3.9-2.8-6.6Z"/>
  <path fill="#f3fac3" d="M652.5,1191.9c4.2,0,30,7.9,32.9,10.2v2.3c-10.3.2-27.8,0-33.9-9.6l1-2.9Z"/>
  <path fill="#fbfcf5" d="M621.1,1073.6c7.8-.5,26.4,3.2,27,13.1-9.6.5-24.9-1.7-27-13.1Z"/>
  <path fill="#99ca18" d="M729.6,1247.6l1.7,1.2c1.1,8,3.7,26.3-1.1,32.9-2.6,1.3-1.3,1.3-3.9.8-2.1-5.2.9-29.6,3.4-34.9Z"/>
  <path fill="#fbfcf5" d="M721.9,1153.2c6.4,1.5,17.6,9.4,14.2,17.5-8.9-1.4-18.7-7.3-14.2-17.5Z"/>
  <path fill="#f3fac3" d="M706.4,1376l1.4,1c.7,8,.4,23.8-9.6,25.7l-.9.9-.8-.6c1.7-9.6,3.9-19,9.8-27Z"/>
  <path fill="#f3fac3" d="M587.5,1050.7c9.3.5,29,9.7,31,18.7-6.9-3-28.5-12.3-31-18.7Z"/>
  <path fill="#f3fac3" d="M731.9,1479.4c.7,11.3,4.2,5.6,7.6,13.4-.2,4.1,0,4.8-1.7,8.5-1.1,0-4.2.4-5.1.3-7.8-.9-1.8-17.5-.8-22.2Z"/>
  <path fill="#99ca18" d="M692.4,1450.7h1.1c2.3,3.4.3,15.8-1.3,19.8h-1.7c-4.5-8.4-5.5-13.9,1.9-19.8Z"/>
  <path fill="#99ca18" d="M685,1223.6l3.8,1c4.1,4.1-.8,8.6-4.1,12l-2.4-.4c-3.6-4.1-1.2-9.5,2.7-12.5Z"/>
  <path fill="#99ca18" d="M711.4,1374.6l3.2.4c4.3,5,4,17.7,1,23.1,0-4.3-2.9-19.1-4.2-23.5Z"/>
  <path fill="#fbfcf5" d="M733.2,1221.2c2.8.6,3,.9,5.6,2.2,2.5,2.8,2.3,5.1,2.7,8.9-7.5,0-7.4-4.7-8.3-11.2Z"/>
  <path fill="#99ca18" d="M1180.8,820.2c1.2,15.7,1.1,33.2,1.6,49.1l3.4,132.1,6.9,238.2c.5,30.1,1.2,60.2,2.1,90.3.3,11.3.2,26.4,1.2,37.2.8,30.3,1.9,60.5,3.1,90.8-.2,11.5.3,24.9,1.1,36.4,15,3.7,35.7,7.2,49.2,11.6,5.6,6.2,7.4,10,7.5,18.3-5.7-4-7.3-13.5-17.2-15.5-8.8-1.8-18.2-3.7-27.5-4.6-22-2.1-15.8-19.4-16.8-34.9-.7-11.2-4.3-5-.9-18.5-1.7-5.8-2.3-11.7-3.2-17.6l2,1.4,1-1c0-9-3.1-16.4-3.4-25.7l-2.6-131.6c-5.1-6.8,1.7-8.7.2-16.9,0-.2-2.6-3.1-3.3-5.8,1.4.5.7.5,2.1,0,1-7.8-.7-14.7-1.1-21.8-.7-14.6-1.9-28.9-2.7-43.5-1.4-24.4,1.6-46.9.5-71.2-.1,3.3,0,6.8-1.1,10-.7-2.1-1.6-15.3-1.9-18.6l-1,8.9c-1.1-1.9-.8-38.2-.8-42.5l.8-162v-58.9c0-9.8-.5-24.4.6-33.7Z"/>
  <path fill="#99ca18" d="M899.1,885.7c1.6,13.4.7,48.8.6,64.2v131.2c0,25.7,5.2,51.5,2.7,77.6-2.5,25.4.1,51.5-2.4,77.3-.9,9,2.8,22.6,2.2,32.1.2,44.4-.3,88.8-.6,133.2,0,3.1-4.7,30.2-5.8,32.2l-1.4.9c-.9-43,.3-90.1.5-133.4,0-88.2,1-176.4,2.8-264.5.5-31.7.7-63.5.7-95.2,0-16.4-.6-39.8.7-55.6Z"/>
  <path fill="#99ca18" d="M1162.4,223.1c1.9,15.5,1.6,30.8,2.3,46.3.8,20.3.7,40.7,1.4,61,2.2,69.8,6.5,139.5,6.8,209.4,0,5,.3,10.1.2,15.1-1.7-4.8-2.6-6.9-2.5-12.1-.3,4.6-.5,9-.9,13.6-1.7-3.2-1.9-12-2-16.2-2.4-84.4-2.9-168.7-5.6-253.1-.6-17.8-1.4-46.7.4-64Z"/>
  <path fill="#99ca18" d="M738.8,1606.8c10.5-10.7,99.1-3,120-5.4-15.8,10.7-15.7,5.3-32.9,6.2-4.1.2-12.2,4.8-17.1,4.8-25.9.2-43.9-7.5-69.9-5.5Z"/>
  <path fill="#99ca18" d="M962.5,1521.5c.3-.6.7-1.2,1.1-1.9,2.8-4.7,6.8-4.6,12.5-5.9v-1.8c1.9-1.4,1.3-.5,2.2-2.5l-3.4-1.3c.3-.2,72.5,0,77.1.4-29.9,4-59.7,8.3-89.5,12.9Z"/>
  <path fill="#c1d874" d="M409.4,1350c11.2-8.4,16.3,2.3,21.9,3.3,1.2-1.3,2.1-2.4,3.3-3.7,3.2-.8,14.7-2.1,16.4,0,18.8,23.1,28.3,36.7,52.4,8.8,2.7-3.2,2.6-6.3.5-10.3l-1.4-.2c-6,5-8.3,12.7-13.9,13.1l-.6-2.6c-5,.8-3.4,3.6-8.6,4.8-4.9-.3-7.5-3.9-12.4-6.7l-.6-1.6c-.8-2.2-1.5-3.7-2.6-5.8,0-1.1-.1-2.8.8-3.4,7.4-4.9,20.4-6.2,29.2-6.6,2.1,0,8.5,3,11.3,2.2,6.2-1.8,14.3-8.9,19.6-2,1.8,2.3,3.6,12.9,2.6,14.6-3.2,5.3-1.5,15.2-2.5,18.3-2.8,8.9-4.6,14.2-6.3,23.9-2.8,16.9-4.7,33.9-6.8,50.9-.9,7-5.4,9.1-4.5,17,.4,3.4,0,5.8-1.7,8.8l-1.6,1.2c-5.9-2-5.8-8.6-10.9-10.8-4.5,2.5-8.9,4.9-13.6,7.1-8.8,4.1-16.7-.2-26.2,2.3-1.9-.9-4.2-2.3-6.2-2.7-8.1,22.2,3,33.9-1.7,55.1-1.5,6.7-2.6,13.3-3.2,20.1-3.7,4.5-17.7,5.4-23,8.3-3.2,1.7-15.4-2.1-16.5-6.6-2.1-4.6-.5-7.4.7-12.3,2.7-11,.2-29.8.9-40.2,1.1-15.4-2.6-135.2.3-139.3,1.4,3.9,1.1,24.1,1.2,29.2.5,34.9.7,69.7.5,104.6,0,9.7-1,50.4,1,57.1,1.2.9,2.7,1.8,4.4,1.9,6,.4,17-.7,21.7-4.4,1.7-1.3,3.5-6.1,4.2-7.9,7.4-19,1.6-30.2.7-48.8-.1-3.1,3.5-21,3.9-24.3,2-15.4-13.1-102.6-18.8-109.9-4.3-2.4-8.6-1.8-14-2.3ZM504.2,1457.2c2.5-14.4,20.6-108.6,16.7-114.4-2.9-1.8-6-1.1-9.5-1-7.9,12-14.1,95-12.9,112.1.1,2,1.4,3.8,2.8,5.3,2.5-.5,1.4,0,3-2Z"/>
  <path fill="#fbfcf5" d="M456.5,1387l1.2-.5c1.3.7,4.3,2.8,4.8,4,4.6,9.7,3,40.1-5.1,46.7-1.8-3.2-9.9-42.5-8.3-48,.6-2,.4-1.3,2.2-2.4,2.1.5,3,.6,5.2.3Z"/>
  <path fill="#9ad104" d="M481.9,1408.1l4.5-.3c4.1,4.6.6,11.1-2.4,15.4l-1.8.7c-3.3-1.4-3-.7-5-3.1-.5-6.5.9-7.5,4.8-12.8Z"/>
  <path fill="#99ca18" d="M474.4,1427.3l.7,1.2c-.3,8.9,1.4,15.7-6.6,21.2-3.7-8.4-.5-16.4,6-22.4Z"/>
  <path fill="#eaf99c" d="M479.4,1346.3c1.5.3,2.6.6,4.1,1.1,1.1,3.7-.2,5.3-1.5,9.5-1.1.8-.4.5-2.1.3-1.1-3.3-.6-7.2-.5-10.9Z"/>
  <path fill="#99ca18" d="M1035.3,160.5c8,0,36-2.2,38.2,2,2.8,5.4.7,46.4.7,53.4v124c0,45.5,1.5,99.5-.1,144.2l-1.1,1.6c-1.3-17.2-.4-51.6-.6-70.2l-.4-157.8v-46.8c0-4.4,0-10.7,0-15.8.1-34.3-7.9-28.1-35.8-27.9-1.5,0-.4,4.6-.1,5.7,3.5,13.6,8.2,26.1,3.3,40-5.6,5.4-3,9.6-9.1,14.2,0,.1-.1.2-.2.3-9.5,7.5-16.2,8-27.7,9.4v140.2c0,12.2,1.1,53.8,0,64.1l-1.2-1.5c-.3-11.3-1.8-22.3-2.9-33.5-.4-4,.7-12.5-1-15.3l-1.2,1.5c2,3.3.4,93.7.3,102.8-.4,93.2.2,186.4,0,279.7,0,6.3-1.4,13.5-4.2,19.1-4.7,8.8,5.1,25.1-6.9,30.2-5,2.2-9.5,1.5-13.8,5.2.2,2.5.7,3.3,1.6,5.6,2.9,1.8,4.2,1.8,7.5,2.5l.9,1.5c-3.3,2.7-10.7,2.9-14.5,1.4-.3-2.8-.6-5.6-.8-8.5-.6-2.9-.4-10.1-.4-13.4,6.1-.3,13-.1,19.2-.2,0-7.3-1.5-23.7,1.1-29.4,7.8-3.4,5.4-10.3,5.5-18.3.7-70.6-.1-141.1-.4-211.7l-.3-324.9c-5.1-5.2-6.2-6.4-10.1-12.5,6.7.4,9.9,3.3,14.6,7.9,3.3,3.1,1.9,5.1,2.5,8.9,7.1-13.8,20.3-2.5,30.9-18.2,13.6-20.2-6.6-42.3,6.6-59.7Z"/>
  <path fill-opacity=".9" d="M1030,227.2c0-.1.1-.2.2-.3,6.1-4.6,3.4-8.8,9.1-14.2-3.5,10.9-1.6,63.2-1.4,78.8l.8,99.6.5,238c0,42.2,0,84.4.5,126.5,0,5.5.9,13.3,2.4,18.6,1.2,4.5,1,5.6.4,10.3-3.2-5.4,1.6-8.3-4.8-12-9.2,1-5.6,37-7.9,44.6-1-5.7-.6-38.1.2-44,2-1.4,2.1-1.4,3.8-3.2.8-8,.2-19.6.2-27.8v-45.2c0,0-.1-153.3-.1-153.3l-.2-231.7-.2-54.1c0-6.5,1.9-27.1-3.2-30.6Z"/>
  <path fill="#99ca18" d="M1131.6,756.1c6.9,9.5,10.1,105.9,8.5,122-.3,3.2,2.7,11.7,2.5,15.6-1.6,21.9-1.4,40.5.4,62.2,2.4-2.3,1.7-1.1,1.1-4-1.5-7,.3-18,.9-25.1l.6-.5c1.2,25.3.4,50.7.5,75.9l1,96.6.4-3.4c1,17.8-1.1,36.5-1.2,54.9v63.1c0,7.8.5,25.7-.6,32.4-1.4-12.3-.8-37.3-1.2-51.1l-3.7-110.4-9.3-328.3Z"/>
  <path fill="#b8de31" d="M944.3,1104.7c-1.3,3.5-.2,2.9-2.5,4.1-2.4-5.8.3-58,.1-68.1-1-62,3.4-124,3.7-185.9,0-19-2.7-36.8-2.4-56.7.3-10.2.8-20.4,1.6-30.5.4-4.7,2.8-24.3,1.6-27.4-3-7.5,2-21.1,1.6-22.7,0,4.2.8,9.6,2,13.6.4,35.4-.8,72.1-.8,107.8,4.3.4,9.5.8,13.7,1.4l1.4,1.1c-4.2,2.1-12.4-.7-12,7,3.2,3.7,3.2,2.7,4,6.9-6.3,13.8,1.6,10.4.9,18.8-1.9,2.5-3.3,3.6-3.3,6.8,1.2,2.4,2.1,4.2,3.4,6.6,0,5.2-4.2,5.9-3.6,7.9,1.8,7.1,9.1,6.1,1.2,13.4v2.3c7,6.8,31.4.9,35,8.9-8.9-.2-33.6-1.6-40.6-.5-3,3-2.7,16.7-2.7,21.4l-2.2,163.7Z"/>
  <path fill="#99ca18" d="M1123.9,1129.3c1.5,9.2.8,50.4.8,61.2l.2,134.7c0,26.6,0,53.3.4,79.9.2,12.3,1.2,36.8,0,48.1-7.2,8.2-26.6.3-30.4,12.7-6.1-5,4.4-13.8,8.7-16,1.4.2,6,1,7.1.5-.9-1.9-1.1-2-2.6-3.5l.6-1.3c2.7-.4,5.5-.7,8.2-1l.8-1.9c-2.7-7.9,0-20.8.2-31.2l.2.6c-2.6,5.6.8-119.8.7-120.3-6.5-30.6,2.5-56.4,3.5-85.1.5-14.8.8-29.6.9-44.4,0-10.1-.5-23.2.5-33Z"/>
  <path fill="#f3fac3" d="M739.5,125.2c2.5-2.3,3.5-4.1,7.4-3.7,12.2,1.1,24.4,4.3,36.6,5.9,50.1,6.4,100.1,15,150.5,19,3,.2,5.6,1,8,2.8,1.4,5.6-3.4,4.6-5.7,8.2-9.1.2-28-2.9-37.4-4.2l-61.9-9.1c-23.1-3-46.2-6.2-69.2-9.6-7.5-1.1-16.3-2.4-23.7-4.1-2.8-.6-3.1-2.6-4.5-5.2Z"/>
  <path fill="#c1d874" d="M741,180.5c-3.9-5.1-.1-44.3-1.5-55.3,1.4,2.6,1.7,4.6,4.5,5.2,7.5,1.6,16.3,2.9,23.7,4.1,23,3.4,46.1,6.6,69.2,9.6l61.9,9.1c9.5,1.4,28.3,4.4,37.4,4.2-2.3,3.8-3.2,4.1-6.8,6.9-12.6-4.6-34.4-5.9-48.1-8.3-45.5-8-94.3-11.7-139.5-20.1-.9,11.1.8,37-1,44.7Z"/>
  <path fill-opacity="0" d="M630.9,113.2l-1.1-.4c-14.4-5.3-51.8-7.6-56.9-11.5l-.5-1.7c2.9-1.6,9.3-1.1,12.5-.6,15.1,2.6,100.1,10.2,106.2,18.5.9,3.3.6,3.6,0,7-15.1-4.3-51.4-6.5-60.1-11.3Z"/>
  <path fill-opacity="1" d="M630.9,113.2c8.7,4.8,45,7,60.1,11.3.6,8.3,3.9,28.8-.4,35.8-.8-8.1-.4-21.1-.4-29.6-9.1-3-44.3-10.2-52.1-5.7-7.3,9.2,3.9,20.3-7.7,29.4.3-1.1.5-2.3.8-3.4,1-5.8,1.6-25.1,2.2-32,.1-1.4-1.7-4.4-2.6-5.7Z"/>
  <path fill-opacity="0" d="M1012.3,1445.5c9.1.3,45.1,6.6,50.3,13,.2,3.4.4,1.6-1.8,5.2-6.9-.2-46.6-7.4-50-11.7-.5-3.4,0-2.9,1.5-6.6Z"/>
  <path fill-opacity="0" d="M1046.6,937.3c5.9,6.5,2.5,108.8,3.3,124.5.1,2-.9,2.6-2.2,3.6-1.1-7.2-1.1-44-.8-52.6.6-22.9-1.7-53.4-.3-75.5Z"/>
  <path fill-opacity="0" d="M572.6,163.9c6.6.4,14.6.8,19.9,4.9v1.7c-3,2.5-5,2.2-9.1,2.6-5.2,1.1-16.4,1.8-16.5-5.7,2.2-2.6,2.5-2.5,5.7-3.7Z"/>
  <path fill="#b8de31" d="M1125.8,842l-2,1.6c-7.7,1.5-24.8-.2-31.6-3.3l.6-.9c5-.8,12.1-3.3,16.4-1.5,4,3.7,10.6,2.1,16.5,4.1Z"/>
  <path fill="#eaf99c" d="M1196.1,1367.2c.4.5,4.3,6.3,4.3,6.5-1.4,14.9,3.1,73.3-1.2,84.3-1.2-30.3-2.3-60.5-3.1-90.8Z"/>
</svg>