<?xml version="1.0" encoding="UTF-8"?>
<svg id="fixed_id_0"  xmlns="http://www.w3.org/2000/svg" version="1.1" xmlns:xlink="http://www.w3.org/1999/xlink" viewBox="0 0 1209.7 1648.4">
  <!-- Generator: Adobe Illustrator 29.3.1, SVG Export Plug-In . SVG Version: 2.1.0 Build 151)  -->
  <defs>
    
    <linearGradient id="fixed_id_1"  x1="109.6" y1="240.8" x2="118.6" y2="237.6" gradientTransform="translate(0 1662.3) scale(1 -1)" gradientUnits="userSpaceOnUse">
      <stop offset="0" stop-color="#8fc014"/>
      <stop offset="1" stop-color="#bfe25a"/>
    </linearGradient>
    <linearGradient id="fixed_id_2"  x1="218.7" y1="592.1" x2="236" y2="599" gradientTransform="translate(0 1662.3) scale(1 -1)" gradientUnits="userSpaceOnUse">
      <stop offset="0" stop-color="#f8fdde"/>
      <stop offset="1" stop-color="#fdfdf9"/>
    </linearGradient>
    <linearGradient id="fixed_id_3"  x1="261.1" y1="588.8" x2="269.6" y2="590.4" gradientTransform="translate(0 1662.3) scale(1 -1)" gradientUnits="userSpaceOnUse">
      <stop offset="0" stop-color="#ecf8b2"/>
      <stop offset="1" stop-color="#f7fddd"/>
    </linearGradient>
  </defs>
  <path fill="#99cf06" d="M468.5,26c11.1,1,20,2.7,30.7,4,1,3.6,1.3,6.6,4.1,8.8,8,2.8,31.5,4.9,40.8,6,14.1,1.8,28.1,4,42,6.4,119.8,19.9,241.4,35.3,361.5,54.2,21.3,3.3,37-4.1,57.8-2.7,25.1,1.3,49.1,11,62.2,33.7,6,8.8,12.1,23,13.1,33.7,2.1,23.4,2.1,47.5,3.1,70.9,2.8,60.8,4.7,121.7,5.9,182.5.4,21.1,1.4,42.4,1.5,63.6,0,5.6.6,21.4,0,26.3,1.6,14.6,1.7,32.1,2.1,46.8l2.1,86.1,7.1,228.8,8.5,292.6c4,104,7,208,9,312.1,1.8,1.7,4,4.2,5.8,6,12,1.8,33.2,7.3,45.6,10.2,8.2,13.8,5.2,18.7,8.9,33l.3,1.2c5.6,2.9,11.5,4.7,10.4,11.9-9.9,12.7-56.1,7.4-70.1,3.4-.6-4.7-.8-10.5-4.2-13.7-20.8-7.2-50.4-11.9-72.8-17.2-22.9-5.4-50.4-12.8-73.5-16-1.8-.2-23.4,2.8-27.1,3.2-24.3,3.1-48.6,7.4-72.8,11.1l-185.7,27.4c-17.5,2.6-35.1,5.1-52.6,7.4-6.3.8-23.2,2.7-28.3,4.3-3.5,3.6-1.5,14-8.9,15.3-21.8,3.9-47.9,2.6-68.7-5.1-4.6-1.7-9-10.5-2.2-12.6,17.6-4.9,7.8-36.6,27.3-39.8,14.6-2.4,29.8-3.5,44.6-5.6,37.9-5.6,75.9-11,113.8-16,19.7-2.6,51.8-5.3,69.8-9.6v-1.6c-6-4-15.2-2.7-22.5-8-6.8-11.2,5.5-8.4,9.2-15,2.8-5.9,1.4-13.7,3.6-19.7,3.9-10.5,22.9-4.9,31.5-6.5,2.2,0,8.6-2,8.7-4.8,2.2-44.1,1.5-93.7,2.1-137.6l8.7-805.4,1.9-181c.2-27.8,0-56.2.7-84,.7-23,10-51.4,24.4-69.5,3-1.9,3.7-3.2,5.8-6,1.3-2.1,7.1-5.8,9.5-7.4-61.5-10.4-128.8-17.5-190.9-26.1l-128.5-19c-8.2-1.2-30.8-6.7-37.5-3.7-2.1,3.3-1.4,2.2-1.1,7,4.6,5.8,1.4,4.4,2.7,9.6,8.5,38.3.3,66.2-44.7,58.3-40.1-7-11-64.9-18.3-76.8-8.6-13.4-25.7-4.5-28.7-13.2-13.4-39.8,22-40.6,44.6-36.8l7.7-5.3ZM1002.5,157.7c-.9,17.8.8,47.7.9,67.2v156.9c.1,0-.4,223.6-.4,223.6-.2,49.1-.6,98.2,0,147.2,0,6.8-1.4,14.9,4.5,19.6,5.5,4.4,3.3,27.1,3.9,34.3,6.9,0,10.8-.4,17.4,1.6,2.6,5.8,1.7,10.9,1.3,17.4,4.1,0,9.5-.3,13.2,1.1l1.4,2.1c.5,3,.8,15.4.4,18.3-2.2,13.8,2.8,49.8-1.6,60.2-8.7,8.2-29.8-.5-38.6,5.3-2.2,3.8-1.3,37.8-1.3,44.9v75.9c.1,11.6-1.2,66,1.4,74.7,6.9,3.7,28,5.2,38.1,7.7,1.9,64,.4,132.7.7,197.2l.7,85.5c0,8.5,2.5,37.3-2.3,43.1-6.2,7.3-25.1.9-28.3,13,2,5.1,48.1,17.6,52.6,16.9,3.8-3.5,3.8-7,4-12.2,1.7-53.7-4.7-110.1-3.6-163.4-1.1-5.9-1.7-30.8-2-38.1l-3.2-88.4c-3.3-75.4-4.1-149.8-5.9-225.1l-5.9-198.2c-1.6-19.6-1.5-39-2.2-58.6-1.7-49.8-2.8-99.7-3.4-149.5-1.5-72.1-5.3-145.6-7.5-217.7l-3.4-96c-.6-18.5,0-38-2.9-56.3-1.2-7.4-5.7-14-11.5-18.8-1.8-1.5-3.6-2.9-5.4-4.3-3.8,5.3-6.6,8.3-11.1,13ZM922.1,1102.6c18.1,3.2,47.9,4.3,67.9,6.7.7-22.2,1.8-190-2.5-197.8-6.3-3.5-15-2.4-22.4-2.2-.1,33.1,0,66.2.5,99.3,0,10.2,2.4,40.2-2.5,47.2-22.7,14.2-16.5-22.3-17.3-30.2-1.5-16.2,2.7-106-2.8-114.5-2.8.1-16.2,4.8-20.8,6,1.8,27.1.2,70.6.2,98.8v56c.1,9,.5,22.2-.2,30.8ZM870.1,558.5c-1.2,51.9-1.8,103.9-1.9,155.9,0,23.7-.8,52.8.1,76.1-.3,8.1-2.1,26.8,2.8,32.9.9,1.2,3.2,2.4,4.8,1.9,13.6-3.8,3.4-12.7,11-20.2,4.1-1.5,11.2-.7,15.8-.6.1-7.2-1.6-25.1,1-30.5,1.2-.6,2.7-1.3,3.8-2.1.2-.1,1.2-1.4,1.2-1.9,0-13,0-27.5.1-40.4v-106.9c0,0,.1-404.6.1-404.6-13.7-18.1-19.2-26.2-16.5-49.5l-.7.8c-13.8,16.4-16.6,38-18.3,58.6-.9,6.2-1,32.6-1,40.3-.1,36-.9,72.5-.9,108.5.1,44.5-1.3,87.5-1.5,131.8,0,9.5-.9,41.8,0,49.9ZM950.1,782c.2-3.3.5-5.3,1.1-8.5-.4-5.1-1.6-16.3,4.6-18.2,5.1,4.4,3.4,7.3,5.4,12.4l.6,1.6,1.3,2.3c2.5,10-1.7,22,3,30.8,2.4,4.5,13.6,3.9,17.5,1.4,3.1-6.1,0-17.6,1.5-24.9,1.2-5.8,5.7-9.1,5.5-15.2-2.1-70.4,2.4-594.1-3.7-605-2.8-5.1-7.1-7.9-12.7-9.3-4.5-1.1-15-1-19,1.3h-1.1c-2,17.5,9.9,33.4-.8,52.1-2.3,4.1-4.9,7.2-6.8,10.5-7,6.1-16.8,6.4-25.7,7.2.6,54.1.9,108.2.8,162.3l.5,223.1c0,53.6-.2,107.3,0,160.9,0,5.1,0,4.5,3.9,7.8,1.9,6.8-1.1,20.3,2.2,31.8,6.1-.1,16.1,1.6,19.8-2.9,1.9-4.1,1.8-16.4,2-21.6ZM979.5,1453c1.3-4,1.6-3,.8-6.6-5.7-5.3-42.7-13.1-50.4-12.3-.9,3.5-1.7,5.1-.6,8.5,3.7,3.9,43.7,11,50.2,10.3ZM907.1,909.5c-5.6-2-16.4-2.3-22.8-2.7l-18.1.5c-3.6,82.8-1.4,166.8-5.4,249.8-1.8,38.4,1.3,78.8-1.3,117.3,2.3,22.6-4.9,143.3,1.1,154.5,1.8,3.4,4.8,5.1,8.4,6.1,5.8,1.6,22.7,4.2,27.7,1.4,1.6-3,1.6-1.6.8-4.4-5.1-5.3-19.9-6.1-29.7-10.1,0-29.5-1.6-310,1.3-316.7,10.4-5,27.9,1.7,39.8-3.2-1.1-15.6-.7-34.5-.7-50.5l-.2-90.2c0-13.8.7-39.1-.9-51.7Z"/>
  <path fill="#95c51a" d="M1067.6,136.3c6,8.8,12.1,23,13.1,33.7,2.1,23.4,2.1,47.5,3.1,70.9,2.8,60.8,4.7,121.7,5.9,182.5.4,21.1,1.4,42.4,1.5,63.6,0,5.6.6,21.4,0,26.3-.7-.5-1-1.3-1.5-2.1,0,8.3-2.1,23.3-1,32.4-.3.4-.6.8-.9,1.2l-.9-.7c.8-11.8,0-35.1,0-48-.5,8.5-.5,16-.5,24.5l-.9.5c-2.9-18.5-.4-40.1-.6-59-.2-17.9-.1-35.3-1.4-53.3-.8-10.6.9-22.8.1-33.5-5.9-43.6-6.1-87-5.8-131,0-8.8-3.9-19.5-3.7-28.2l1.6,2c.7-2.7.3-12.5,0-15.7-.2-1.6-1.1-1.6-3-2.9-.1-12-.4-21.3-1.4-33.3-.7-8.2-4.5-23.7-3.6-30Z"/>
  <path fill="#95c51a" d="M1049.8,745.9l.9-3.1,1.1.2c5.1,19.9,2.4,40.6,6.2,60.3,2.6,13.4-2.4,32-.8,44,6.1,45.2,8.4,90.5,7,136.2-.3,9.2-.5,49.6,1.2,55.8v-1.8c-.5-14.1,1.1-28.7,1.3-43.1v-48.9c0-5.5-.4-19.4.6-24.1,1.6,9.1.7,53.9.6,64.9,0,50.1-.2,100.1-.7,150.2v108.4c-.1,9.8.6,42.6-.6,50.7-1.1-5.9-1.7-30.8-2-38.1l-3.2-88.4c-3.3-75.4-4.1-149.8-5.9-225.1l-5.9-198.2Z"/>
  <path fill-opacity="1" d="M954.2,150.8h1.1c-.3,15.3,6.3,16.8,6.6,31.3.1,7.2-5,17.7-4.9,24,.8,42.7.6,85.6.7,128.3l.2,419.8c5.9,6.5,6.3,6.8,4,15.1l-.6-1.6c-2-5.2-.2-8-5.4-12.4-6.2,1.9-5,13.1-4.6,18.2-.6,3.3-.9,5.2-1.1,8.5-.2,5.2,0,17.4-2,21.6-1.3-14.3.4-29.2-1.3-45.2l5.8-5.4.4-436.2c0-13.1.9-99.7-.5-103.6-.7-1.9-.2-1.3-2.2-2.1l-3.8,2.2c1.9-3.3,4.5-6.5,6.8-10.5,10.7-18.7-1.2-34.6.8-52Z"/>
  <path fill="#95c51a" d="M907.1,909.5l1.1.6c2,1.2,5.6,3,5.7,5.4,1.7,29.3,1.1,60.4,1.7,89.6.4,19.5-4.1,43.3-1,61.8,1.2.7.6.4,2,.7l1.3,2.4c3.2-8.7,2.1-28.4,2.2-38.5v-74.2c-.2-8.2-1.4-34.8,2.2-40.3,1.8,27.1.2,70.6.2,98.8v56c.1,9,.5,22.2-.2,30.8-2.7-3-1.7-5.6-5.8-6.7-3.1,2.3-4.6,3.3-7.3,6-1.1-15.6-.7-34.5-.7-50.5l-.2-90.2c0-13.8.7-39.1-.9-51.7Z"/>
  <path fill="#f1fac0" d="M870.1,558.5c3.2,8.1,1.9,219.4-1.8,232-.9-23.3-.1-52.4-.1-76.1.1-52,.7-103.9,1.9-155.9Z"/>
  <path fill="#c2da54" d="M1044.6,828.7l-1.1,1.3c-9.8.3-17-2.1-26.3-1.6-3.9.2-3.1.5-7.1-.3v-1.8c4.2-3.1,11.1-1,15.4-4,2.5-4.4-.3-7.8.6-13.1l2.7-1.1c2.6,5.8,1.7,10.9,1.3,17.4,4.1,0,9.5-.3,13.2,1.1l1.4,2.1Z"/>
  <path fill="#95c51a" d="M951.2,773.5c-.4-5.1-1.6-16.3,4.6-18.2,5.1,4.4,3.4,7.3,5.4,12.4l.6,1.6,1.3,2.3-1.1.4c-3.8,3.4-2.8,2.9-7.6.5l-3.2.9Z"/>
  <path fill="#95c51a" d="M859.6,99.2c3.6-.2,5.5-.6,8.8.8v1.3c-3.5,2-5.4,1.5-9.7,1.4-3.8,0-7.5.4-10.7-1.3,3.6-2.3,7.4-2.1,11.6-2.3Z"/>
  <path fill="#c2da54" d="M269.4,434.1c-5.8-35-7.6-71.2,27.8-91.8,16.9-9.8,36.9-12.5,55.7-7.7,24.7,6.5,42.7,22.9,55.3,44.5,1.5,14.3,3.9,31.1,1.8,45.3-.6,3.8-6.8,10.8-6.9,14.9-.3,10.8,2.6,18.4,1.9,29.6-11.3,6.5-11.2,9.1-15,21.7-2,6.9-3.7,13.9-5.7,20.7-16.3,13.1-32.9.3-37,7.6.6,3.8,3.3,5.9,6,8.7,17.4,18.1,39.5,14.8,54.9,37.4,0-1,8,20.5,8.8,22.1,9.2,19.1,4.2,35.1,6.2,54.6-.7,3.5-1.4,7.3-2.7,10.6-.7,4.2-.7,4.5-2.5,8.4-2.7,12.1,8.9,33.5,10.9,46.8,1.3,8.6,5.3,19.1,6.6,28,3.1,14.2,3.9,26.1,12.4,38.4,7.2,11.1,15,22.9,19.1,35.4,6.2,19,5.1,41.3,8.2,60.6,4.5,28.6,9,57.8,22.1,83.8,2.7,5.4,1.8,18.4,6.2,24.2,6.5,11.4,14.1,21.2,19.8,33.2,31.8,5.8,45.6,19.3,71.3,37.8,9.1,6.5,36.2,18,34.8,30.5-.9,8.1-12.6,13.5-19.9,9.1-17.4-10.3-34.4-24.4-51.2-35.8-7.1-4.8-13.1-10.2-20.4-14.5-5-3.1-13.7-3.1-18.8-5.2-16.9,15-22.6,19.5-47,19.3-9.2-6.5-11.2-9.3-22.2-4.5-12.3-1.5-2.4-18.6-20-21.1-14.3-2-26.1.4-40.5.4-14.2.1-39.6-10.9-53.4-5.2-3.5,1.5-4.1,11.7-13.2,13-6.2,2.1-20.2,1.8-27.6,2,4.7,32.6,7.2,65,4.4,98.3-1,12-8.6,32.8-9.2,43.3-.9,16.7,5.9,37.6,2.7,56.1-1.9,10.8-3.9,20.8-7.6,31.2-2.4,7.3-7.3,15.7-8.7,23.2-2.4,13-1.3,26.6-1.8,39.8-1.8,41.9-12.7,82.6-19.6,123.7-3.8,22.6-18.5,81,5.7,95.4,25.2,15,57.4,29.7,86.6,33.9,4.3.6,15.3,1.2,17.2,5,5.1,9.9,4.8,18.9-4.3,25.2-25.1,7.3-51.4,10.2-77.5,8.4-25.1-1.5-42.3-4.3-67.2,1.6-12.2,2.9-32.1.6-42.5-7-9.2-18.5-3.9-28.8,1.5-47.7-22.5.6-41.8-1-62.6,9-18,8.7-29.7,8.8-49.3,6.9l-6-4.5c-12.7-18.4,4.2-44,5-65.1,1.3-13.3,4.5-24.8,4.2-38.3-1-51.9-25.8-108.3-21.8-159.4,2.1-26.3,26.2-63.3,37.1-87.3,8.6-18.7,6.4-28-1.8-46.5-16.6-40.5-31.9-81.3-34.4-125.5-.8-14.5-.3-25.5-4.1-39.6-5.3-11.2-19.3-46.5-20.2-57.8-8.2-32.5,6.4-79.6,27.1-105.1,12.6-15.5,31.7-28.5,42.1-46,5.3-8.2,8.1-22.9,12.3-30.8,16.9-31.6,6.3-54.5,4-87.4-1.1-15.9,2.3-34.1,2.1-51.2-.6-18.7,2.1-27.2,5.6-45.8,0-18.6,13.5-38.8,29-48.8,8.7-5.6,19.9-8.8,29.6-12.3,11.1-14.9,22.2-24.4,39.3-32.3,13.5-6.3,26.3-9.2,36.9-20.5,13.7-14.5,20.3-25.1,20.4-45.2ZM123.1,1451.9c-2.6,24.6-3.8,53.9,19,69.2,8.9,2.9,26,8.6,34.3,12.6,1.5-.9,2.7-2,3.5-3.5,7-12.6-5.2-93.5-8.8-110-4.1-18.5-11.6-36.8-14-55.5-1.2-9.2-.4-19.5,1-28.7,2.4-16,7-33.4,13.4-48.2,4.8-11.1,14.3-23.7,16-35.7,1.9-13.4-3.1-29.1-7.2-41.7-4.6,9.2-9.8,21.5-14.2,31-4.3,11.7-14.5,27.7-16.8,39.8-5.9,30.9-9.2,62.8-15.2,93.8-2.8,14.4-3.1,29.8-5.9,44.2l-.2,1.1c-.5,6.8-3.2,25.1-4.9,31.7ZM389.5,945.4c-4.7,10.3-8.7,21.6,1.6,29.5,7.5-7.1,5-23.6-1.6-29.5ZM410.2,905.5c-5.8,8.4-4.6,16.8-10.9,26.2-.3,11.7,2.2,22.3,2.6,33.9.4,15.5-11.4,37.9,14.5,37.9,6.4,0,13.2,1,19.6-.1,4.4-5.1,5-9.2,8.1-14.9,2.7-4.9,5.2-8,8.7-12.3-2.9-24.9-22.1-50.1-38.8-68.4-.9-.9-2.6-1.7-3.7-2.3ZM317.7,772.3c-1.6,5.4-23.9,38.5-28.9,45.9l-.2.7c-.9,5.5-3.8,12.4-4.5,18.7-.9,8.3.3,15.4.7,23.2,1.3,27.7,8.6,47.4,19.6,72.2,3.7,6.6,6.8,22.9,11.3,28.3,11.5,13.8,18.5,20,26.9,36.5,9.1,1.4,23.6,4.6,31.4-.3,5-17.3,2.1-19.8,3.8-37,1-9.7,6.4-25.7,6.2-36.2-.1-6.9-3.1-17.1-4.7-24.2,20.5-21,11.3-19.5.2-44.8-3.2-7.3-6.1-15-9-22.7-5.6-14.9-2.4-31.5-7.4-46.4-7.3-10.1-20-33.9-28.8-40.4l-2,.3c-7.7,5-8.4,19.2-14.5,26.4Z"/>
  <path fill="#c2da54" d="M123.7,1045.4c.4-1.3,0-2.8-.1-4.3l-.2-1.5c3.1-1.5,6.2.3,7.9-.4,23.2-9.2,45.1-9.4,69.5-11.4,1.3-1.2,2.5-2.2,3.8-3.3,11.1-1.4,27.6-6.3,38.4-5.6,4.8.3,19.8-9.2,30.3-9.8,25.6,10.4-7.8,28.4,49.2,25.9-6.2,2.1-20.2,1.8-27.6,2,4.7,32.6,7.2,65,4.4,98.3-1,12-8.6,32.8-9.2,43.3-.9,16.7,5.9,37.6,2.7,56.1-1.9,10.8-3.9,20.8-7.6,31.2-2.4,7.3-7.3,15.7-8.7,23.2-2.4,13-1.3,26.6-1.8,39.8-1.8,41.9-12.7,82.6-19.6,123.7-3.8,22.6-18.5,81,5.7,95.4,25.2,15,57.4,29.7,86.6,33.9,4.3.6,15.3,1.2,17.2,5,5.1,9.9,4.8,18.9-4.3,25.2-25.1,7.3-51.4,10.2-77.5,8.4-25.1-1.5-42.3-4.3-67.2,1.6-12.2,2.9-32.1.6-42.5-7-9.2-18.5-3.9-28.8,1.5-47.7-22.5.6-41.8-1-62.6,9-18,8.7-29.7,8.8-49.3,6.9l-6-4.5c-12.7-18.4,4.2-44,5-65.1,1.3-13.3,4.5-24.8,4.2-38.3-1-51.9-25.8-108.3-21.8-159.4,2.1-26.3,26.2-63.3,37.1-87.3,8.6-18.7,6.4-28-1.8-46.5-16.6-40.5-31.9-81.3-34.4-125.5-.8-14.5-.3-25.5-4.1-39.6,13.4,13.4,5.1,26.4,10.3,30.6,3.2-2.6,1.3-12.9,4.9-17.3l-.8.3.9-.2c1.2,2.1.9,1.2,1,3.7l1.3.9c1.1-1.6,1.4-2.1,2.9-3.4,2.5.7,2.9,1.8,4.6,3.8,10.7-.4,21.6,0,32,.2,23.8.6,14.6,12.7,20.8,20,1.5,3.6,2.7,11.7,3.9,14.2,3.4,7.2,5.3,41.5,8.2,45,3.3,1.3,1.8,1.4,4.6.3.3-2-15.1-52.6-11.6-61.6.6-1.6-.2-6.5-.5-8.5ZM123.1,1451.9c-2.6,24.6-3.8,53.9,19,69.2,8.9,2.9,26,8.6,34.3,12.6,1.5-.9,2.7-2,3.5-3.5,7-12.6-5.2-93.5-8.8-110-4.1-18.5-11.6-36.8-14-55.5-1.2-9.2-.4-19.5,1-28.7,2.4-16,7-33.4,13.4-48.2,4.8-11.1,14.3-23.7,16-35.7,1.9-13.4-3.1-29.1-7.2-41.7-4.6,9.2-9.8,21.5-14.2,31-4.3,11.7-14.5,27.7-16.8,39.8-5.9,30.9-9.2,62.8-15.2,93.8-2.8,14.4-3.1,29.8-5.9,44.2l-.2,1.1c-.5,6.8-3.2,25.1-4.9,31.7Z"/>
  <path fill="#99cf06" d="M56.9,1579c.5-4.8-3.1-11.9-2.3-17.3,1.9-13.1,8.4-26.9,11.9-39.3.9-3.1-1.7-23.1,1.7-27,4.4-5,19.9-1.9,26.7-3.4,5.7-1.2,17.6-1.5,23.2-1.3,8,8.5,2.9,26.4,22.8,30.1l1.2.2c8.9,2.9,26,8.6,34.3,12.6.4,0,.8.1,1.1.2,2,.2,4.4,0,5.9-1.4,1.9-1.9,2-3.7,2.3-6.3.2-2,.6-3.4,2.1-4.9,4.1-4,42.3-1.4,51.4-1.7,8.8,5,8.8,23.7,16.3,28.4,21.4,13.6,49.8,27.8,74.1,35.2,20.7,6.3,42.3-5.5,30.9,28.9-25.1,7.3-51.4,10.2-77.5,8.4-25.1-1.5-42.3-4.3-67.2,1.6-12.2,2.9-32.1.6-42.5-7-9.2-18.5-3.9-28.8,1.5-47.7-22.5.6-41.8-1-62.6,9-18,8.7-29.7,8.8-49.3,6.9l-6-4.5Z"/>
  <path fill="#95c51a" d="M123.7,1045.4c8.9,9.2,5.1,25.4,8.1,37,5.7,22.6,12.8,48.8,25.1,68.8,10,16.1,18.1,30.1,25.2,48,1.1,2.7,1.1,1.6,1.6,4.9-1.3,3.8-1.9,3.9-6.3,3.6l-2.9,2.2c-5.9-1.5-1.4-4.7-6.5-3.3-2.7,2.6-5.4,5.2-8.2,7.7h-.8c-.1-3-.3-7.7-.2-10.6,0-2.5,6.9-11.8,6.2-14.5-.9-3.6-4.1-10-5.4-13.8-2.2.8-1.2.9-3.2.5-.5-1.9-.9-3.9-1.4-5.8-3.9-.3-2.4.5-4.8-2.1-3.5-14.5-9.5-34.6-17.6-47-2.3-.4-1.1-.5-3.3.4-1.2-1.7-10.7-62.9-10.2-65.4,1.5,3.6,2.7,11.7,3.9,14.2,3.4,7.2,5.3,41.5,8.2,45,3.3,1.3,1.8,1.4,4.6.3.3-2-15.1-52.6-11.6-61.6.6-1.6-.2-6.5-.5-8.5Z"/>
  <path fill="#95c51a" d="M121,1415.8c0,3.6-.7,5.8,1,8.2,3.9-1.4,3.1-2,6-3.7-.5,6.8-3.2,25.1-4.9,31.7-2.7,3.1-2.7,3.5-3,7.7l-1.6,1c-7.9-3.1-3-9.9-4.7-15.2.5-6.1,5.4-22.6,7.1-29.5Z"/>
  <path fill="url(#fixed_id_1)" d="M113.9,1445.3c-1.1-4-2.5-4.5-.8-8.9,1.5-3.8,1.8-8.2,2.1-12.3-2,5.9-4.8,18.8-9.3,21.5l-1.7-1.1c-1.7-8,12.4-25,13.1-34.2.2-2.8,2.5-7.3,3.8-10,.5.9-.7,10.5-.2,14.7v.9c-1.6,6.9-6.5,23.4-7,29.5Z"/>
  <path fill="#fafce9" d="M108.3,1240.5l.8.3c2.4-.7,2.2-.7,4.7-.5,4,4.1,4.1,22.9,1.7,26.9l-1.3-2.7-1.1-.2c-3.7,6.1-2.3,25.3-3.8,35.7-1.6,11.2-7,23.9-7.4,31.7,1.6,3.2,2.3,3.3,5.3,5,.3,5.1.7,6.7,2,11.7-3.3-1.6-6.5-3.6-9.7-5.4-3.3-7.1-1.3-16.9-.5-24.9l-1.2,4.1c.1-5.3,3.5-23.8,2.2-26.9-5.5-12.6-2-24.5,2.2-36.9,2.1-6.3,2.6-12.5,6.3-18Z"/>
  <path fill="url(#fixed_id_1_2)" d="M211.3,1028.9h2.7c10,6,7.8,22.5,12.5,29.2,3.4,1.9,5.3.9,9.7,1,2.5,5.4-1.5,13.7-3.6,18.8-1.7,4.1,3.1,17.9,2.7,23-.1,1.7-.2,2.5,0,4.2v1.8s-1.7,1.5-1.7,1.5l-1.5-.4c-4.1-17.1-12.3-36.3-17.7-53.4-1.4-4.3-6.2-12.7-8.4-18.7,1-3.5,2.4-4,5.4-7Z"/>
  <path fill="#f1fac0" d="M234.9,1381c.2,7-.1,15.5,0,22.8,1.9-2.8,1-4,2.4-7.3l.9.6c.3,12.3-13,67.5-16.6,80-1,3.5-1.4,7.2-4.1,9l-1.7-1.5c-5.9-13.8,3.4-16.3,3.7-24.7.5-15-.1-22.3,4.7-37.9,3.7-11.9,4.4-27.5,10.3-39.3.1-.6.3-1.2.4-1.8Z"/>
  <path fill="#99cf06" d="M132.5,1343.3c3.5,1,3.5,1.8,3.7,4.9-3.5,5.2-3.6,8.2-2.9,14.3,2.9,25.4-35.6,36.8-51,19.5-.5-3.7-1.2-4.7-1.1-8.8l1.2-.9c3.8.6,8.5,3.9,12,6,2.4-.7,4.3-.7,6.8-1.1,1.5-2,2.1-2.9,3.8-4.7l1.5.3.8,4.1c13.4,2.7,23.1-24,25.3-33.6Z"/>
  <path fill="#fafce9" d="M221.4,1259.1c8.9,5.4-.8,55.8-10.3,64.5-16.3-13.7.5-50.5,10.3-64.5Z"/>
  <path fill="#99cf06" d="M194.5,1096.3c5.9,3.2,35.1,68.6,35.3,77.2l-1.9.5c-6.8,3.4-6.9-.8-10.4-6.1-10.1-15.4-11.3-31.9-14.7-49.2-1.2-6.3-6.5-12.4-8.3-22.2Z"/>
  <path fill="#95c51a" d="M253.6,1162.6l1.5.7c2.2,5.4,8.3,20.2,13.9,21.8,15.4-5.8,10.1-14,16.7-18.7l1.3.8c2.7,4.8.6,15-2.8,18.6h-1.3c0-.1-.7,1.3-.7,1.3-1,4.5-.9,10.1-2.2,13.1-4-.2-3.8-2-8.2-4.1-6.2,2.8-6.3,2.7-12.2-.6-1.1,1.7-.6,4.9-.6,7.5l-1.3-.2c-.2-5.8-4-9.7-4.1-14.9-.3-10.2,2.7-13,.5-23.7l-.3-1.5Z"/>
  <path fill="#99cf06" d="M175.7,1357.6c.6.2,1.7.9,2.2,1.2,1.5,5.2,3.8,9.7,5.5,14.6,2.8,7.9,4.1,7.7,9.3,13.7l.8-.3c.8-3.2,1.1-4.6,2.4-7.8l1-.4c.4,4.1.2,7.1,2.8,10.1h1.7c1.6-2,2.9-4,4.4-6.2l1.2.3c.3,2.5-.7,9-1.1,11.9l.5,1.2c-.7,3-.5,3.5-2.7,5.6-13.4,5.6-21.3-16.4-29.5-19.4l-1,1.4h-.7c-3.2-6.4-1.6-20.3,3.1-26Z"/>
  <path fill="url(#fixed_id_1_3)" d="M251.3,1020.2c0,.2.2.3.3.5,5.3,15.3,14.1,30.3,18.6,45.9,2.3,7.9,2.1,18.4,3.3,26.8.9,6.6,7.2,26.4,4,32.1h-2.2c-3-2.1-3-1.4-4-4.2-.4-4.7-1.8-5.7-.7-9l2.8,1.1.8-.6c-2-14.9-13.6-34.9-14.6-44.6l2.5,3.3c.4-1-1-4.5-1.4-5.9.7-.4,1.3-.8,2-1.2-2.8-14.4-11.8-27.1-11.2-44.2Z"/>
  <path fill="#fafce9" d="M249.2,1259.9c7.1-11,1.7-29.7,7.1-34.9,4.3,3.3,4,6,9.1,5,8-1.5,7.1-9.1,12.7-13.8h1.6c6.5,8.3-5.2,21.9-11.4,27.3-3.9-1.8-4.3-3.1-7.1-2.1-3.9,8.5-4.8,18.6-10,27.5l-6.4,2-1.5-4.3.2-4.5c1.6-2.2,1.8-1.5,5.5-2.1Z"/>
  <path fill="#fafce9" d="M158.9,1072.8c-.6-4.4-.8-5.3-3.6-8.8l.2-2.2c3.7.3,12.2,10.5,15.3,13.9,9.7,10.5,18.6,24.4,6.5,36.7l-3.4-.3c-6.6-6.3-6.8-17.4-8.3-26.2-1.8-4.7-3.3-9.8-6.8-13.2Z"/>
  <path fill="#fafce9" d="M72.1,1408.6c18.8-.9,4.4,13.9,14.7,21.2,1.7,1.2-4,20.4-4.7,23.1-.9,2.8-1,2.9-2.5,5.3l-1.9.3c-6.5-5.5-5.3-40.4-5.6-50.1Z"/>
  <path fill="#f1fac0" d="M107.8,1082.6l2.5,1.1c.9,2.2.8,2.1,2.6,3.6.9-.6,1.8-1.3,2.7-2,5.6,4.3,6.4,42,2.5,48l-1.3-.9c-1.5-4.6-.7-4.7-.2-9.6-.4-4.4-1.6-18-3.6-21.5-.7,6.5,1.9,9.7,1.4,12.9l-1.4.4c-9.6-3.5-6.2-24.4-5.1-32.1Z"/>
  <path fill="#f1fac0" d="M256.4,1327.2l1.2,1v4.4c2,1,1,.9,3.2.2.3-2.9.4-3.8,1.1-6.7l1.9-.5c7.1,10-.8,43.2-2.9,55.1-.5,3.2-.7,7.2-2.2,9.8-1.5-5.4-1.4-51.7-2.3-63.3Z"/>
  <path fill="#f1fac0" d="M165.7,1086c1.6,8.7,1.7,19.9,8.3,26.2l3.4.3c0,3.3.2,3.1,1.7,6.1l.3-.3c7.5,15.8,12.1,33.8,11.9,51.3-9.3-20.6-16.9-47.8-25.9-69.4-.3-6.1-.4-8.1.3-14.2Z"/>
  <path fill="#f1fac0" d="M186.3,1048.7c6.9,3.7,18.3,24.3,21.2,32.2,2.4,6.6,3.2,11,.3,17.5-4.8-2.9-18-33.5-21.2-40.3-.5-1-.4-7.8-.3-9.4Z"/>
  <path fill="#95c51a" d="M67.2,1360.7c-1.1,9.5-4.8,7.7-5.7,15.7-1.2-3.8-1.3-15.5-2-20-.5-3.9,5.7-7.4,5.9-8.9,1-5.3-.2-12.2,3.8-16.5,2.6,1.7,3.1,16.6,4.3,21.2l-1.8,1.7c3.4,3.7,3.3,2.5,4.1,6.7l-1,2.2c-3.4,1-5,.4-7.7-2.2Z"/>
  <path fill="#99cf06" d="M67.2,1360.7c.2-3.3,1.8-.3,4.5-6.8,3.4,3.7,3.3,2.5,4.1,6.7l-1,2.2c-3.4,1-5,.4-7.7-2.2Z"/>
  <path fill="#f1fac0" d="M243.5,1266.5c-1.1-1.4-4.2-10-5-12.3-2.3-6.6-11.8-22.2-8.3-28.3l2.9,2.3c1.2-1.7.5-.9,1.9-2.6,3.1.7,4.8,14.3,6.4,18.2,2.6,6.6,2.7,10.6,7.8,16.1-3.7.6-3.8,0-5.5,2.1l-.2,4.5Z"/>
  <path fill="#f1fac0" d="M132.6,1133.4c6.7,4,6.1,37.4,3.6,41.4l-1,.5c-7.8-3.6-6.1-35.6-2.6-41.8Z"/>
  <path fill="#fafce9" d="M188.2,1417.4h2.3c2.9,7,1.5,26-2.2,32.9-6.1-7.5-8.3-21.5-5.1-30.7.4-1,3.8-1.8,5-2.2Z"/>
  <path fill="#95c51a" d="M77.6,1148.2c2.1-3,6.1-2.1,8.8-.6,3.1,6,9.1,16.7,11,22.7l-1.1.2-1.6-1.7c-3,3.7-1.6,3-5.7,4.7-3.9-2.8-9.5-19.8-11.5-25.3Z"/>
  <path fill="#95c51a" d="M226.6,1472.9c4.2-12.1,3.4-16.2,5.2-28.5.8-5.4,4.2-9.4,6-15.5l1.2-.3,1.5,1.8c-1.6,10.6-6,31.9-6.8,41.5l-1.6-1.1c-1.4,1.4-.9,1.1-2.2,2.1-1.2.9-1.9.3-3.3,0Z"/>
  <path fill="#f1fac0" d="M168.8,1316.5c1.6.8,4.3,3.4,5.4,4.7.8,3.4-2.7,23.2-3.5,28.1l-.7-.9-1.8-3.4c-.5,2.3-.5,2.2-2.1,4l-1.3-.2c-2.8-5.6,2.5-25.3,4.1-32.3Z"/>
  <path fill="#95c51a" d="M187.2,1181c1.2,0,3.2-.3,4,.6,3.6,3.9,14,20.1,11,24.9l-2.1-1.2c-2.8-1.6-2.6-1.7-5.7-2.2-.6,2.3-.3,1.3.5,4.2h-.8c-3.1-5.6-9.7-20.2-6.7-26.3Z"/>
  <path fill="#99cf06" d="M226.6,1472.9c1.4.2,2.1.8,3.3,0,1.3-.9.9-.6,2.2-2.1l1.6,1.1c-.7,7.5-.8,20.7-5.4,25.7l-2.1-.4c-4.8-7-2.1-17.1.4-24.3Z"/>
  <path fill="#95c51a" d="M194.8,1237.2c1.5.5,1.9.8,3.4,1.6,2.9,7.7,4.5,15.8-1.4,22.3l-1.2-1.2c-2.7-5.1-2-.4-5.8-2.8,1.2-9.3,0-13.7,5-20Z"/>
  <path fill="#f1fac0" d="M89.9,1308.6c3.6,5,2.1,32.9,2,40.4l-.2-1.1c-6.2-4.1-2.6-6.4-4.5-11.8-4.4-12.3-1.6-16.1,2.7-27.6Z"/>
  <path fill="#99cf06" d="M209.4,1426l2.8,1.9,3.2-1.1c0,5.7-3.6,18.7-5,24.7l-2.3,1.8c-7.9-5.2-1.1-19.5,1.3-27.3Z"/>
  <path fill="#99cf06" d="M166.8,1369.7c4.4,2.7-.4,13.4,5,20.3l2.6-1.2-1.8,1.1,1.4-1.6c.9,2.4,1,13.1,0,16.3h-1.9c-3.7-5.3-4.5-10.3-6.2-16.4-2.3-8.6-1.5-10.4.9-18.5Z"/>
  <path fill="#95c51a" d="M185.3,1286.3c.6.3,1.7,1.3,2.3,1.7,1.1,12.1-3.3,20.3-6.7,32.3-1.7,1.4-.8,1.1-2.8.9-1.8-4,5.4-29.8,7.2-35Z"/>
  <path fill="#95c51a" d="M212.6,1470.2c-.8,14.4,2.5,28.9-4.8,40.3-4.5-13.8.7-26.8,4.8-40.3Z"/>
  <path fill="#f1fac0" d="M165.3,1100.2c-.8-3.2-.8-2.5-2.7-5-4.2-5.2-8.6-18.4-7.6-24.9l.8-.3,3,3.8v-1c3.6,3.4,5,8.5,6.8,13.2-.7,6.2-.7,8.1-.3,14.2Z"/>
  <path fill="#fafce9" d="M267.3,1125.9c.7,0,2.9.3,3.5.5,7.2,2.2,7.4,20.6,5.9,26.2-4.5-3.9-8.9-20.5-9.4-26.7Z"/>
  <path fill="#95c51a" d="M90.3,1077.3c6.1,5.1,7.5,16.1,8.1,23.8-10.2-4.8-11.7-13.6-8.1-23.8Z"/>
  <path fill="#99cf06" d="M77.6,1148.2c-.8-3.4-4.8-17.2-4.2-19.3,2.4,2,1.4,1.7,4.2,2.6l1-2.2c2.1,2.6,6.4,14.7,7.8,18.4-2.7-1.6-6.7-2.5-8.8.6Z"/>
  <path fill="#fafce9" d="M251.4,1268.8h.9c2.3-3.5,4.8-9,7.5-10,2.9,4.6,1.5,9.9-1.8,13.8-3.7,1.6-6.5,2.8-10.6,1.8-2.4-2-1.6-.8-2.5-3.7l6.4-2Z"/>
  <path fill="#a1b95c" d="M144.9,1072.9c1.5,2.8,3.9,7,4.2,10.1-1.9-2.1-2.2-2.4-4.4-4.1-.7,5,2.7,12.2,4.7,17.3l-.8,1.6c-.5.9-1.3,4.6-1.6,5.8l-.6-.8c-.7-6.6-3.4-10.4-4.8-16.9-1.5-7.1-.1-7.1,3.4-13.1Z"/>
  <path fill="#99cf06" d="M130.9,1042.3c3,3.4,2.1,2,2.7,7.2,3.9,3.6,3.2-.5,6.9,2,.2,3.7-1.4,5.9-2.7,9.4l-.8,2.6-1.5.5c-4-3.4-6.6-16.7-4.7-21.7Z"/>
  <path fill="#95c51a" d="M200.5,1261.4c1.7-3,2.9-6,5.8-7.4l1.1.6c1.7.9,1,.6,2.9,1.4l4.1-2.8c-.6,2.7-3.5,4.7-5.7,7.8-3,4.7-3.1,6.5-8.9,7.3l-1.5-1.4c.2-3.8-.3-2,2.1-5.5Z"/>
  <path fill="#99cf06" d="M208.7,1261.1c-3,4.7-3.1,6.5-8.9,7.3l-1.5-1.4c.2-3.8-.3-2,2.1-5.5,3.6,1.8,3.2,1,8.2-.3Z"/>
  <path fill="#95c51a" d="M89,1455.2l1.7.3c1.3,8.3,2.5,12.2-3.9,19.2-1.4-2.1-2-4.1-2.4-6.6-.5-2.9,1-8.6,2.9-10.8.3-.2.5-.5.8-.7.3-.4.6-.9.9-1.4Z"/>
  <path fill="#95c51a" d="M87.8,1245.5c7.7,5.9,4.2,16.3-.7,22.9-4.3-5.3-.1-11.7.6-21.5v-1.4Z"/>
  <path fill="#f1fac0" d="M199,1360.6c2.4,5.3-2.4,13-7.8,14.8,0-4,0-8,.1-12,2.8-4.6,1,.9,7.6-2.8Z"/>
  <path fill="#95c51a" d="M107.9,1221.2c3.5.4,2.1-.3,4.7,1.6.3,3.8-2.4,8.2-4.1,11.9-4.2-1-2.9.2-5-2.6.3-3.5,3.2-6,4.3-10.9Z"/>
  <path fill="#f1fac0" d="M111,1471.4l2,1.5c1.8,6.9,1,9.7-4.8,13.4l-1.5-2.7c.2-5,1.4-8.1,4.3-12.2Z"/>
  <path fill="#f1fac0" d="M244.7,1409.8c3.8,5,3.1,6.3,2,12.4-1.6.4-.7.4-2.7-.5-1-3,.2-8.5.6-11.9Z"/>
  <path fill="#a1b95c" d="M113.5,1301.2c1.6,5.2,2.3,12.4-.2,17.5l-.6-.6c-1-3.6.3-12.6.8-16.8Z"/>
  <path fill="#99cf06" d="M21,959.5c-.2-24.9.3-59.3,18.1-79,3.8-4.2,4.5-5.3,5.7-10.8,4.2-18.2,14.8-20.5,27.5-30.6,2-1.6,10.1-13.7,15.7-17.8,6.8,1.1,11.4,7,16.1,7.3,17.3,1.3,41.1-1.3,58,.8,10,1.2,43,17,53.6,22,2.8,1.3,19.7,14.3,22,16.5,1,3.1,0,2.2,2.1,3.9,3.7.2,6.1.7,9.2-1.1,1-2.2,1.2-2.6,1.6-5l.9-.4c1.4,3.2,2.8,6.4,4.2,9.5l3.6-.4,1.5,1.2c-.2,12.1-3.5,14.1-3.5,16.9-.2,8.3-2.6,34.3,1.2,41.2,2.6,4.7,6.3,15.4,10.2,17.6,11.4,2.1,18.9-5.8,28.9-8.6,1.9.6,5.7,5.1,6.3,6.3,7.3,14.2,10.2,22,23.6,31.7,0,0,5.1,11.9,8.8,15.9l-2.6,1.2c8.6,4.2,11.3,4.2,20,6.6,10.8,2.9,14.8-1.1,21.1-.7,2.6-5,9.5-9.8,8.5-13.8,2.8-.1,5.7,2.2,7.4,4.1,16.8,17.5,22.8,13.1,43.9,16.3,9.1-4,16.5-15,17.8-24.8.7-5.6,5.2-9.7,3.8-15.3-.6-2.4,1-6.6,2.7-8.7,7.9-3.9,9.6-2,17.9-1.7,3.8.2,8.5-2.4,12.7-1.6,6.3,14.3,15.1,32.8,23.7,46,1.5,2.3,1.7,3,2.6,5.5,6.2,5.1,35.1,13.8,43.9,20.3,1.3.9,3.4,5.2,4.2,6.8,12.3,7.4,14.2,2.7,26.5,16.9,11.1,6.8,22.1,14,33.1,20.9,2.6,1.6,1.3,6.3-1,8.7-8.7,9.1-20.9-6.3-28.9-12.1-8-5.8-18.5-13.3-27.6-18.4-16.8-12.1-23.8-22.3-46.5-20.4l-.9,1c-16.9,15-22.6,19.5-47,19.3-9.2-6.5-11.2-9.3-22.2-4.5-12.3-1.5-2.4-18.6-20-21.1-14.3-2-26.1.4-40.5.4-14.2.1-39.6-10.9-53.4-5.2-3.5,1.5-4.1,11.7-13.2,13-57,2.5-23.6-15.6-49.2-25.9-10.6.5-25.5,10.1-30.3,9.8-10.8-.7-27.3,4.2-38.4,5.6-1.3,1.1-2.5,2.1-3.8,3.3-24.4,2-46.3,2.2-69.5,11.4-1.8.7-4.9-1.1-7.9.4l.2,1.5c.2,1.5.5,3,.1,4.3.3,2,1.2,6.8.5,8.5-3.5,9,11.9,59.6,11.6,61.6-2.8,1.1-1.3.9-4.6-.3-2.9-3.5-4.8-37.8-8.2-45-1.2-2.5-2.3-10.6-3.9-14.2-6.3-7.3,2.9-19.4-20.8-20-10.4-.3-21.3-.6-32-.2-1.7-2-2.2-3.1-4.6-3.8-1.5,1.4-1.8,1.8-2.9,3.4l-1.3-.9c0-2.5.3-1.6-1-3.7l-.9.2.8-.3c-3.7,4.4-1.8,14.7-4.9,17.3-5.2-4.2,3.1-17.2-10.3-30.6-5.3-11.2-19.3-46.5-20.2-57.8Z"/>
  <path fill="#99cf06" d="M269.4,434.1c-5.8-35-7.6-71.2,27.8-91.8,16.9-9.8,36.9-12.5,55.7-7.7,24.7,6.5,42.7,22.9,55.3,44.5,1.5,14.3,3.9,31.1,1.8,45.3-.6,3.8-6.8,10.8-6.9,14.9-.3,10.8,2.6,18.4,1.9,29.6-11.3,6.5-11.2,9.1-15,21.7-2,6.9-3.7,13.9-5.7,20.7-16.3,13.1-32.9.3-37,7.6.6,3.8,3.3,5.9,6,8.7-3,.9-9.3,2.2-12.3,1.2-3-3.9-11.8-15.9-12.7-20,3.6-.3,4.6,3,9.2,3,6.3-3.8,3.6-15.3.7-20.5-8-14.5-15.3-37.3-33.7-40.6-7.5-1.4-15.2-.9-22.3-4.4-2.2-1-6,.5-8.6,1.2-3.2-4.9-.5-7.8-4.4-13.5Z"/>
  <path fill="#99cf06" d="M365.4,567c2.4,7.7,6.5,11.5,8.9,18.3,3.8,13.4,7.6,27.1,12.5,40.1h.6c-.8-6.7-2.4-13.1-3.1-19.4l1.9-1c.8,2.3,1.9,4.9,2.1,7.2,2.7,11.3,6,20,10,30.8,1.7,4.6,1.9,8.6,3.2,12.6,1.4-.8,1.7-1.2,3.3-1.4l1,3.6c11.2-6.8,2.1-32,5.8-39h1.4c3,5.1.4,9.4,2.9,13.1,1.2-3,1.2-3.7,1.8-6.8,4.4,5.7,2.9,19.4,2.8,27.4-.7,4.2-.7,4.5-2.5,8.4-8.6,7.5,2.1,18.7-1.8,27.5-1.1-.8-2.2-1.6-3.3-2.4,1.3,12,8.1,50.4,14,59.1,2.5,1.5,3.1,1.1,5.9,1,2.6,3,2.9,6.1,2.5,10.1-.5,5.9,4.6,12.3,3.9,16.5-4.8.4-10-8.9-14-12.7,1-1,.5-.5,1.7-1.5-2-3.6-2.6-4-5.5-7.1-1.8-.5-5-.8-5.3-2.1-3.5-14,1.9-31.4-5.5-45.6-2.1-12.2-13.1-43.4-25.8-47.4,1,1.5,1.9,2.7,2.7,4.4l-1.5.4-2.4-3.3-1,.6c.4,3.6.7,5,1.6,8.5-2.1-4.2-4.5-10.6-8.2-12.9-2.5.1-2.4,0-4.6,1.2l-.9-1.2c-1.2-1.5-.7-.9-2-2.2-1.7,6.9,5.1,28.6,6,36.6.7,6.1.3,11.2,0,17.3-.2,3.2,3.8,7,3.7,11.4l-2.9-3.5c-2.7-4.5-6.4-5.1-8.1-8.7.2-.1,2.4-1.7,2.5-1.9,3.9-8.1-9.6-57.7-13.2-60.8l-1.4,2.8c-3.3-1.3-1.5-5.7-5.8-9.4-1.5,1.1-1.3,2.4-1.9,4.7-2.7-1.9-2.7-6.9-5.7-8.7l-4.1,2.1-1.3-.6c-.8-4.6-.9-5-3.9-7.6-2.3,3.2,3,9.2,1.5,13.4-2.6-1.3-1.4-1.4-3.6-.8-2.1,7.3-2.8,22.3-1.5,30.3.7,4.3,3.5,15.2,2.9,18.3-1.6-2.3-2.5-4.5-3.7-7-1.7,4.9,3.4,20.9,7.1,24.9l-1.4,2.6-1.7-3.9-1.4.5c-.4,9,5.7,15.4,2.3,26.7-4-4.8-2.5-4.6-7.4-5.8l-3.1-.7c-7.8-5.9-3.6-19.6-8.6-22.1-1.8,3.3.8,3.2-.6,8.4h-1.1c0,0-2.1-2.9-2.1-2.9l-1.2.2c-.9,3.9-.8,1.9.5,6.1l-.9,1.3c-2.3,0-2.1-.3-4.3.4l-.7-1.9-1.2.3c-1.1,2.3-1.6,3.1-3,5.2-7.1-.3-5.9,4.6-11,9.6l-.6-1.2c1.2-7.5,20.3-24.2,19.9-27.9-1.4-14.3,5.7-15,8-28,1.2-7,1.7-9-2.4-14.3l-2.2,1.2c-4.1-1.3-30.6,2.8-33.7,8.2l.5,1.2c-10.9,6.4-48.2,2.5-60.2.6-3.5-.5-14.6,2.5-20,2.7-.5,3.9-4.4,6.4-7,11.1-.1.2-.3.4-.4.5-1.8,6.7-9.7,15.3-11.8,22-.9,2.7.8,4.5-2.3,7.8-2.5-.8-1.3-.3-3.3-2.6-3-14.9,28.2-55.8,37.5-68.9,5.9-8.2,14.3-17,17.1-26.8l-3,2.7-.8-.4c1.9-11,6.3-9.3,6.9-19.1l-1.3-.4-.4-1.4c1.5-2.9,1.5-3.6,4.3-5.1.9,5-2.8,10.2-1.3,14l1.3-.3,1.5-2.6,1.3-.4c6.5,2.6-.5,10,4.2,17.5l.9-2c1.1,2.9-.5,6.6-1.5,10l1.1.8c1-1.1,1.9-2.2,2.9-3.3l1.2,1c0,2.5-.2,3.1.2,5.5l1.5-.4c1.3-6.3,10.9-10.3,14.5-14.5l9.4-7.8,1.3,2.7-1.4,1,.3,1c8.5-3.3,4.8-2.5,14.7-5.2,13.5-3.7,21.4,4.1,32.7-2.5,0-4.6-1.3-2.1-2.2-5.1l-3.4-.8,1.2-1.7c4.6,1.1,3.1,1.5,6.8-.1,4,2.7,10,11.3,13.5,15.1,5.4,5.7,22.5,17.3,29.4,20.1l-2.9-4.3.3-1.1h1.6c4.4,2.9,5.9,4.1,8.8,8.4,1-2.4.6-1.8,2.1-3.7,4.1,1.9,5.7,7.7,10.7,11.7l1.2-.4c-1.8-2.9-2.4-3.4-2-6.8l1.3-.3c-2.9-15.5-13.7-46.6-22.2-60,1.9-2.5,2.8-6.3,3.8-9.4Z"/>
  <path fill="#e3ed1a" d="M294.8,657.9l-1.1-1.9c-3.7-.3-5.1-.6-8.8-1.4l1.3-.3c-1.2-.5-9.5-1.5-11.4-1.8l1.4-1.8c-3.4-1.9-10.5-3.4-14.8-4.9l-.2-1.4,2.5-2.1c-1.3-2.2-4.7-2.9-7.6-4.1h.5c-2.7-1.2-3.5-1.2-5.3-3.6,11.3-13.7,52-30.4,68.5-20.5-4.5,4.7-11.6,3.9-13.4,10.4,5.3,6.7,2.5,6.5,3.7,13.4,2.7.7,1.4.7,3.9-.2l1.5,1.9c-.5,8.1-6.7,5.7-5.5,12.5,2.8,2.8,1.2,2.1,4.9,2.5l.2.8c-4,.5-17.7,3-20.2,2.5Z"/>
  <path fill="#f8f712" d="M300.1,613.8h3.1c1.1,5.1,1.2,10.4.5,15.6-.7,4.7-1.9,11.3-5.9,14.3l-2.3-.4c-.5-2,0-1.4,1.6-4.3-1.7-.9-3.3-1.6-5.1-2.4-1.7-2.1-1.5-2-3.9-3.1-2.5.4-4.1.9-6.2-.3.2-3.7-.7-3.6-1.5-6.7-2.8-10,12.8-11.9,19.8-12.6Z"/>
  <path fill="#c2da54" d="M221.3,637.8c7.9-1.9,7.6,1,13.6,6,8,6.9,29.1,13.6,39.8,14.1,1.3,0,1,0,2.1.6,6.8.9,11.2.1,17.9-.7,2.4.5,16.2-2.1,20.2-2.5l-2.1,2-2.2,1.2c-4.1-1.3-30.6,2.8-33.7,8.2l.5,1.2c-10.9,6.4-48.2,2.5-60.2.6-3.5-.5-14.6,2.5-20,2.7,1.9-5.4,6.7-8,11.7-11l1-.6-.8-3c5.9-10,3.9-7.1,13.9-9.1l.5-1.6c-3.8-3.8-3.2-3.6-2.1-8.2Z"/>
  <path fill="#e3ed1a" d="M294.8,657.9c2.4.5,16.2-2.1,20.2-2.5l-2.1,2-2.2,1.2c-4.1-1.3-30.6,2.8-33.7,8.2-23.7.6-24,2.8-49.6-.7l-.3-1.1c9.7-6,34.4,2.4,48.6-3.1,1-1.5.9-1.5,1.2-3.2,6.8.9,11.2.1,17.9-.7Z"/>
  <path fill="#e3ed1a" d="M221.3,637.8c7.9-1.9,7.6,1,13.6,6-3.8.8-2.2,0-4.9,2.6l1.3.2c-4.3,1-2.4,1.3-5.9-.2-3.1-3.5-3.4-4-4.1-8.6Z"/>
  <path fill="#fafce9" d="M381.2,774.9c-2.7-12.1-22.1-53-11.6-62.2,3.5-1.1,1.7-1,5.6.7l2.9,3.5c3.3,4,8.9,9.7,10.9,14.2,9,19.8,10.4,41.4,12,62.8.2,2.2.9,3.1,2.6,4.3,5-1.1,6.4-6.5,9.8-6.5,2.8,9.7-8.4,16.6-10.4,32.3l-1.5,1.9c-5.7-.1-13.1-8.4-13.7-14.8l.9-2.3-1.4-.6c-2.2-7.6-3.5-22.4-6.3-33.4Z"/>
  <path fill="#99cf06" d="M121.4,585.1c9.7-7.1,18.7-15.4,29.4-20.5l1.1,1.8c-.6,1.5-1.1,3-1.4,4.6-12.2,10.1-7.2,6.2-13.8,17.8,0-3.2.4-2.6-.5-5.3-3.2,3.4-3.8,7.8-6,11.2-1,7.5-2.3,30.8,7.2,33,7.5-3.5,4.8-8.4,8.5-15.2,2.1,2.6,1.3,3.1.7,6.3-.9,4.9,1.3,10.6,1,15.7-.7,10.8,4.3,12.7-6.3,17.4-1.7-4.5,5.4-12.4,2.1-16.6-6.4.9-18,10.1-23.6,14.1l-1.5,3.8-1.1,1.9c-4-2.9-1.5-6.5-2.7-12.8-1.4,1.6-.7,1-2.1,2.1-1.3-1.7-2.5-3.5-3.6-5.3-.6-18.7,2.1-27.2,5.6-45.8,3.1-2.1,4-5.5,6.3-8.9l.9.8Z"/>
  <path fill="#e3ed1a" d="M117.2,614c2.5-1.9,2.6-2.4,5.7-2.4,5.1,4.5,5,17.7,2.9,23.7l-1,.7c-1.7-2-1.9-4-2.5-6.6,0,2-.4,3.9-.8,5.8l-2.1-4.6h-1.3c0-.1-1.4,1.3-1.4,1.3-.6-2.3-.8-2.7-.9-5,0-5.5-.2-7.6,1.3-12.9Z"/>
  <path fill="#f8f712" d="M386.7,709.1c-2.8-1.9-14.3-36.6-11.1-40.9l2.4-.3c5.2,2.9,6.5,2.3,9.7,4.1,18.8,11.1,13.9,18.7,22.5,30.7l.6.9c-2.8,7.7,3.4,36.7-3.8,41.1-1.3-1.4-2-12.8-2.4-15.6-1.2-1.6-.9-1.6-2.7-2.2-4.8-1.7-2.4-8.2-5.6-13.8h-1.1c0,.1-2.1,4.5-2.1,4.5-3-4.3-2.6-11.4-5.6-16.4-1.2,2.9-.9,4.8-.9,7.9Z"/>
  <path fill="#f8f712" d="M374.3,585.2c0-4.2-.9-5,1.2-7.2l3.4-.2c.3-1.8.4-3,.5-4.9l2.8-1.5c.1.2.3.5.4.7,6.1,9.6,30.4,8.9,24.6,34.3-.4,1.6-.4,1.7-1,2.9l-2.7-5.3-.7,3.5-1.3.3c-1.3-1.6-2.6-3.3-3.8-5-1.6,7.4,3.6,8.8-5.2,12.7-2.5-.9-2.4-1.3-4.2-3.4-.3-2.3-1.3-4.9-2.1-7.2l-1.9,1c.8,6.3,2.3,12.7,3.1,19.5h-.6c-4.9-13.1-8.6-26.8-12.5-40.2Z"/>
  <path fill="#c2da54" d="M384.2,606c-1.3-4-2-5.2-1.8-9.3h1.1c1.9,3.5,1.9,4.2,2.6,8.3l-1.9,1Z"/>
  <path fill="#e3ed1a" d="M277.5,667.9c.4,2.7.4,4.6-.6,7.2-4.6-.9-16.9,1.4-23.4,1.3-12.8,0-27.4.4-40.2,0-10.2-.3-18.2,5.3-23,6,2.6-4.8,6.5-7.3,7-11.1,5.4-.2,16.5-3.2,20-2.7,12,1.8,49.3,5.8,60.2-.6Z"/>
  <path fill="#f8f712" d="M260.6,616.2l-2.1-.4-.8-1.4,3.4-5.7c-3.6,2.6-5.3,4.4-9.7,3.4-2.4-2.1-2.9-2.1-3.7-5.2.7-4.2,5.2-17.6,10.7-15.8-.3,1.5-.6,2.4-1.1,3.9l-.4,1.2c3.9-1.1,6.6-6.6,8.3-6.6,6.3,0,5.9,2.4,12.9-.5l.5,2.4c-4.6,10.8,1,7.6-8.6,16.9l-9.4,7.8Z"/>
  <path fill="#99cf06" d="M387.5,808.3l-1,1c-.4,4.2-.5,7,.3,11.1-4.3-5.1-9.6-14.1-14.1-20.2-.3,1.8-.6,2.6-1.1,4.3l-1.3-.5c-4-7.4-.6-7.8.2-15.1.4-4.2-5.4-6.7-6.4-9.5,3.1-3.3,1.3-2.5,5.3-3.2,2.8,1.1,3.3,1.8,5.5,3.8l.7.7.8-.9-1.6-2.8c1.3-1.4,4-1.5,6.4-2,2.8,11,4.1,25.7,6.3,33.4Z"/>
  <path fill="#e3ed1a" d="M271.7,687.5c-7.4,1.5-5.7,3.9-7.3,4.1-20.1,3.3-40.5,7.1-60.5,11.2-3.1.6-4.5-.4-6.3-1.7v-2.2c8.1-8.6,60.4-11.2,77.7-15.1-1.2,1.3-2.2,2.8-3.6,3.6Z"/>
  <path fill="#f8f712" d="M276.9,666.7c3.1-5.3,29.7-9.5,33.7-8.2-3.6,2.7-14.5,9.4-16.1,11.6l-.2,1.9,2.1,1.1c0,2.3-12.2,17.2-16.7,13.8-1.2-.9-6.3.2-7.9.5,1.5-.8,2.5-2.3,3.6-3.6,2.2-.4,5.3-1.2,6.7-2.9-2.6-1.1-4.6-1.6-6.5-3.7l1.2-2.3c1.1-2.6,1.1-4.5.6-7.2l-.5-1.2Z"/>
  <path fill="#f8f712" d="M335,704.6c1-3.4.5-1.4.4-3.9-.2-4,2.7-7.9,3.7-12.6l2.4-.6c3.8,6.3,9.4,16.6,7.9,24l-1.5,1.3-3.3-1,.4,1c1.4,3.8,1.6,4.3,2,8.3l-1,2c-6.8.9-11.9-10.6-12.2-15.8l1.4-2.6Z"/>
  <path fill="#95c51a" d="M296.8,576.4l-.9.5c-2.1-1.3-12.9-7.4-13.5-8,5.6-2.9,48.5-2.1,36.3,12.8-2.2-.7-4.4-1.5-6.6-2.3l-.9,1c-1.6.4-2.4.1-4.2,0-4.6-4.3-4.1-5.1-10.1-3.9Z"/>
  <path fill="#e3ed1a" d="M150.4,571c-1.4,3.7-4.5,10.3-5.2,13.4-1.9,8.4.3,24.2-4.4,31.2l-2.2.9c-5.3-5-1-20.7-2-27.7,6.6-11.6,1.6-7.8,13.8-17.8Z"/>
  <path fill="#99cf06" d="M296.8,576.4c6-1.2,5.5-.3,10.1,3.9,1.8.1,2.6.4,4.2,0,3.1,2.9,6.7,7.5,9.6,10.9l-.6,1c-2.3-1-2.4-1-4.4-2.5v.8c-3.2,1.9-3.3,1.7-4.9,5.2l-2-.3c.8-1.4.5-.5.5-2.7l-1.8-1.4c-6.2-1-6,.7-12.3,2.9l-1.3-.7c.9-3.4,6.4-7,9.4-11.3-2.5-.4-3.7.6-6.5,1.6l-.7-1c1.5-2.2,2.2-2.3,4.6-3.5l.8-.4-1.2-1.2v1.3c-.1,0-.5-1.6-.5-1.6-.8-.2-2.2-.8-3.1-1.2Z"/>
  <path fill="#99cf06" d="M325.3,724.7c4.9,1.2,3.5,1,7.4,5.8,2,3.4,8.2,11,9.4,14l-1.2.7c-2-1.4-3.9-2.9-5.9-4.3-4-.2-5.4,2.1-10.3,4.1-3.9-3.5,2.2-8.7,1.9-12.7-.1-1.7-1-5.8-1.4-7.6Z"/>
  <path fill="#e3ed1a" d="M118.2,653.2c5.1.8,29,3.7,26.7,11.7-2.5,1.1-18.4-5-21.8-7.4l-1.6,1.2-.2,3.5c-2.4,0-1.4.3-3.2-1.4.5-4.5,1.2-2.7-1.1-5.7l1.1-1.9Z"/>
  <path fill="#95c51a" d="M361.6,576.4c-3.4-4.9-6.6-6.8-10.4-11-2.2-2.4.8-1.5,2.2-5.8l1.5-.3c4.8,2.3,6.5,4.2,10.5,7.7-1,3.1-1.9,6.9-3.8,9.4Z"/>
  <path fill="#95c51a" d="M315.7,590.4l4.2,7.2c-3.8,1.6-2.2,1.3-6.8.1l-2.2-2.1c1.6-3.6,1.6-3.4,4.8-5.2Z"/>
  <path fill="#f8f712" d="M257.1,700.7c4.6-4,19.9-5.6,26.7-6.8l2.2.8-.2,1.4-2.4,1.7c.5,2.3.4,1.9,1.4,4.1-1.8,2.4-9.3,7.3-12.1,9.3l.6.9c1.4-.4,8.9-2.7,9.5-2.6,2.4,8.8-22.5,14.1-16.6,23.8-6.1,6.4-14.5,7.2-17.4,12.6l1.2,2.6c-6.2,10.9-23.1,21.7-35.6,14.7-.1-6.1,17.8-13.6,21.3-21.3-1.1-1.6-.8-1.1-2.4-2.4.2-3.6.3-3.6,2-6.6,3-2.1,5.5-3.7,8.5-5.5.9-8.5,1.4-7.7,3.6-14.9-1-4-.8-5.5,1.2-9,3.5-2.4,4.1-2.3,8.5-2.8Z"/>
  <path fill="#99cf06" d="M262.5,752.2c3.3.5,6.3.4,8.4,2.4v5.2c-.1,0-.6-.1-.6-.1l-1-2.6c-3,1.1-3.5,2.7-5.8,4.1-10.6,6.8,3.2,14.4-2.2,25.7-3.8.3-9.4-7.8-13.6-9.9-1.4,3.2-.6,7.5.6,10.7-1.8-1.8-3.6-3.6-5.4-5.4-1.1,2.4-1.9,4.7-2.9,7.2l-1.1-.3c-.7-2.7-2.1-5.3-4.7-6.7l-1.3,1v2.8c-7.5,1.4-9.5,1.1-9.8,8.2-1.6-.6-2.1-.7-3.8-1.1-3.2,4,1.2.1-.6,6.1-5.4,2.8-.5-2.2-6.1-.4-.6,3.3,3.4,10.3,4.3,15.5h-1.3c-1.4-2.6-1.9-4.5-4.4-6.2-2.6,4,.3,10.6-2.2,16.7-6.8,1.5-21.3,2-26.7-2.6-2.4-7.8,6.2-12,9.8-17,10.9-15.2,26.1-24.4,41.2-34.9,7-4.8,15.3-10.6,23.1-13.9,3.5-1.5,3.7-1.1,6-4.3Z"/>
  <path fill="#f8f712" d="M323.5,580.4c5.1,3.1,13.9,6.8,19.8,7.9,3.1.6,5.1-2,7.4-3.9,2.4.9,5.8,3.7,8.1,5.4l.2-.8,5.1-.5c4.4,6.2,8.7,29.3,7.3,36h-1.6c0,0-1.6-2-1.6-2-2.3-2.7-7.2-6.9-8.7-9.4,1.2,3.8,3.1,7.8,2.4,11.5l-1.6.5c-2.7-1.9-22.5-14.4-22.8-16.2-1.5-12.4-8.5-17.4-14-28.5Z"/>
  <path fill="#fafce9" d="M168,740.1l1.6.3c.3,2.9,4.3,22.5,4.5,20.9-1.3,10.4,2.1,56-3.5,62-5.7,1.4-14.6-.5-20.6-1.5-.9-1.8-1-2.6-1.6-4.5,1-3.7,1.6-3,5.7-5.8-1.1-7,4.4-13.8,7.9-20.9-1.7.6-2.6.8-4.3,1.2l-.7-1.3c1.1-5.7,4.9-6.9,7.2-12.6-4.1-10.1,1.7-12.4,3.3-22.8.5-3.4.3-11.2.3-14.9Z"/>
  <path fill="#f8f712" d="M304.7,515.4l-1.8-.3,2.5,3.9-.7.7c-5.1-2.4-3-1-8.8-.4,0,0-7.5-3.7-8.1-4-2.7,1.7-10.5,4.9-10.7,5.1.3,10.9,3.3,5.1,5,10.1-5.2.2-24.5-4.5-27.1-9.6.4-4.8-.5-2.9,2.1-6.3,6.6-2.3,5.1-1.4,7.4-8l1.5-.6c.9,2.4.4,1.7,2.1,3.4,2.3-1.7,2.2-4,3.1-7.4l1.4-.3c.6,1.7.8,2.6,1,4.3.5-3.2.2-5.4,2.1-7.2,1.7,4.8,2.7,8.8,8.5,8.6-1.6-1.9-1-.9-2-2.9l4.8,1,.2-4.8,1.1-.6c1.2,1.2,1.9,1.9,3,3.2l1,1.2c3,0,2.3-.3,5.2-2.5-1.1-2.6-2.4-4.7-1.7-7.2,10.2-.6,12.5,15,17.9,17.5l-.7,1.2-2.6-1v1.2c-1.8.6-4.1,1.4-5.8,1.8Z"/>
  <path fill="#f8f712" d="M340.8,643.3l1.8-.2c3.1,2.3,3.1,6.3,3.8,6.7,12.2,8.9,13.6,10.6,15.3,25.2,2,17.2,0,8.9-5.9,13.6l.7,1.2c.4,2.6.6,1.4-.3,3.9-2.9-1.5-5.3-7.6-9.3-10.9-7.1-5.8-12.4-25.9-8.6-34.3.6-1.4,2-4.1,2.5-5.3Z"/>
  <path fill="#99cf06" d="M397.7,885c2.9-.8,5.5.4,8.5,1.6,1.1,1.3,2.1,2.3,2.5,4,2,7.6-9.5,31.7-13.1,38.1-1.8,2-.7,1.5-3.3,2-8.4-5-8-26.9-2.6-34.6,3.3-4.7,3-7,8-11Z"/>
  <path fill="#e3ed1a" d="M181.5,717.1c13.3-14.7,8.3-6,19.7-9.1,8.2-2.2,42.6-14.5,49.2-10v1.3s-3.3.7-3.3.7c3.6,0,6.4.2,10,.6-4.4.6-5,.4-8.5,2.8-2,3.5-2.2,5-1.2,9-9.8,1.8-8.7-.9-20.4,4.9l-1.3-.4,1.4-2.2-.8-1.2c2.7-1.4,2.1-1.1,5.1-1.8,2.4-2.3,2.3-2.5,3.8-5.4l4-1.5-.4-1c-9-.4-44.9,12.7-52,17.2-3.2-1.3-3.2-1.1-5.5-3.9Z"/>
  <path fill="#95c51a" d="M288.6,818.9c-11.3,2.4-6.8,31.4-12,39.2-3.2,1.7-1.7,1.6-4.8,1.1-3-5.8,6-45.4,9.6-48.7h1.5c2.6-2.3,0-4.6,2.2-10.3l2.9-.2c2.3-4.3-2.4-11.2,1-19.1l1.7-.6c10.3,5.3,6.8,20.3.8,27-2.7,3-2.6,6.9-2.6,11l-.2.7Z"/>
  <path fill="#f1fac0" d="M425.1,809.6c8.6,10.5,5.6,31.2,9.5,41.7,1.9,5.1,13.4,15.6,13.3,23.2-3-.5-2.3-.6-4.7-2.6l2.5,6c-7.4,6.6,1.4,2.1-5.4,8-2.4-1.7-1.7-.7-2.5-3.5-9.6-36.1-17.4-34.5-12.7-72.8Z"/>
  <path fill="#f1fac0" d="M322.1,550c3.2.5,8.3.9,10.6,3l-1.3,1c-6.6-1.2-17.7,3.8-22.6,7.7l.8,2.6c-6.8,3.8-28.4-1.5-25.9-9.5,5.7-4.9,25.8-8.3,34.7-10.9l3,1.7c.3,2.2.3,1.5,0,3.8l.7.7Z"/>
  <path fill="#fafce9" d="M314,547.7c1.7,1.3,1,.6,2.2,2.3l-.7,1.7c-2.5,1-4.1,1.6-6.5,2.8l-.5,1.5c2,1.3,1.6.7,2.8,2.5l-3.3,1.2c-3.1-.5-5.9-1.2-7.8-3.8l.5-1.7c4.4-3.4,8.3-3.9,13.3-6.4Z"/>
  <path fill="#e3ed1a" d="M219.5,678.4c5.4-.2,8.4-.5,13.8.4,1.9,3.5,4.8,3.2,6.8,6.3-3.4,1.2-6-1.1-7.9-.3-8.4,3.6-17.3,3.9-26.2,6.7l-1,.3c-5.2,1.4-13.7,6.1-18.1,4-.4-4.3,1.7-6.7,4.2-10.6,9-2.7,19.2-4.8,28.4-6.9Z"/>
  <path fill="#99cf06" d="M115.7,721.5l1.1.4c.3,7.1,6.7,20,8.9,27.3,2.2,7-3.2,16.1-6.3,22.3-2.4-1.3-3.8-3.6-5.6-5.9l-1.9,2.1-.7-.8c3.4-13.1,5.4-30.9,4.5-44.6v-.9Z"/>
  <path fill="#fafce9" d="M141.4,748.4c7.1,4.9-5.2,34.1-7.1,41.6-1,3.8-3.3,4.7-6.5,6.1l-1.8-4c.7-20.4,7.9-25.3,15-42.7l.4-1Z"/>
  <path fill="#f1fac0" d="M172,540.2c10.7,8.2-9.1,29.2-14,37.3l-.7,1.1-.4.8h-1c-1-5.4,7-26.8,9-32.7,2.4-2,4.8-4.4,7.1-6.5Z"/>
  <path fill="#f1fac0" d="M318.4,543.7c10-1.9,26.6-6,35.6-1.4,1.8,2.3,1.4,1,1.6,3.8-1.7.2-3.1.5-4.7,1.2l-.7,1.8c-4.6.8-4.5-1.6-7.7-.2l1.6,1.7c-2.8,3.2-13.6-3.2-22-.7l-.7-.7c.3-2.3.3-1.6,0-3.8l-3-1.7Z"/>
  <path fill="#e3ed1a" d="M115.3,673c7.5,0,22.3,12.5,28,17.7,3,2.7,1.4,11.3,1.3,15.6l-2-.3c-7.4-11.7-24.5-27.4-27.4-33Z"/>
  <path fill="#95c51a" d="M451.7,917.3c12.3,10.6,14.4,26.9,23.4,38.7l-.4.3c-1.1-.2-9.3-3.2-10.1-3.9l-.2-5.4c-7.3-7.4-15-18.9-12.8-29.6Z"/>
  <path fill="#f1fac0" d="M301.3,760.4c1.2,7,1.5,9.6,1.5,16.7l-1,.5-3.1-6.1.8,1.4-.5-1-.8,1.2c0,3.1.4,3.6-1,6.3l-1.5-.4c-3.5-5-12.4-23.5-3.4-26.1,3.9.9,4.8,2.1,8,4.8l1.2,2.6Z"/>
  <path fill="#fafce9" d="M208.7,538.1c3.5-3.4,6.3-6.8,10.7-8.4l2,.4c.8,3.4.3,4.1-1.8,7.3-1.1,1.7-2.3,3.5-3.4,5.2-.7,2.7-.3,1.8-2.1,4-9,1.9-4.8,12.4-14,13.5-1-5.5,6.6-15.8,8.7-21.9Z"/>
  <path fill="#fafce9" d="M208.7,538.1c3.5-3.4,6.3-6.8,10.7-8.4l2,.4c.8,3.4.3,4.1-1.8,7.3-1.1,1.7-2.3,3.5-3.4,5.2-2.7,1.1-3,1.2-5.8,1.7-1.7-2.2-1.2-2.8-1.6-6.1Z"/>
  <path fill="#f8f712" d="M210.6,565.6c4.7,0,7.2,1.2,11.4,3l.3,1.2c-6,4.4-9.5,6.6-13.2,13.3-1.3,2.3-1.1,2.3-3,3.3l-2.4-3.2c.2,4,.2,2.7,3.5,6.5l-1.1,1.4c-6.2,1-.7,0-4.5-2.7l-1.5.6c-.5-6.2,6.4-18.4,10.6-23.4Z"/>
  <path fill="#fafce9" d="M259.1,823.7c0-4-.8-7.3,1.1-10,7.3,0,6.9,25.3,2,28.2-3.8-1.2-5.3-4.6-6.4-8.1.2-2-.7-3.3-.7-6,1.5-1.8,2.2-2.5,3.9-4.1Z"/>
  <path fill="#99cf06" d="M399.7,829.8c6.2,1.7,14.9,12.5,17.9,18.3,1.5,2.8-.4,6.2-1.4,9-7,1.2-14.8-22.2-16.5-27.3Z"/>
  <path fill="#e3ed1a" d="M186.9,721.1c1.5.3,14-1.5,17-1.6v.4c-2.3,3.5-19.1,13.9-23.3,15.1l-.6-1.2c.6-4.2,3.2-8.3,5.1-12.2h-1.8c-1.8,2.5-1,2.2-3.4,3.3.5-2.7.3-5.5,1.5-7.7,2.2,2.8,2.3,2.6,5.5,3.9Z"/>
  <path fill="#fafce9" d="M266.8,486.2l1,.9c1.5,8.9-8.5,16.7-14.7,21.1l-1.1-1.3c-1.6-8.5,7-19,14.7-20.7Z"/>
  <path fill="#f1fac0" d="M255.9,833.8c-1,2.7-1,3.4-3.7,4.1-4.5-2.6-8-16.3-5.1-21.5l1.6-.4c6.5,2.9,2.1,5.3,5.7,7.8v-5.4c-.1,0,1-.5,1-.5,1.3,2.7,1.6,3.6,3.8,5.8-1.7,1.6-2.4,2.3-3.9,4.1,0,2.7.9,4,.7,6Z"/>
  <path fill="#99cf06" d="M307.9,759.9l1.1,1.8h1.3c1.3-2.1,1.6-2.5,2.4-4.9,1.9,4.1,2.7,6,5.1,9.8,0,1.9,0,3.8,0,5.7-3.4.2-4.5,3.4-10.4,5.6l-1.4-.9c1.8-6.2.7-9.8-2.4-15.4l4.3-1.7Z"/>
  <path fill="#95c51a" d="M419.6,849.5c3.6,4.9,8.8,15,6.9,21.2-2.6,1.7-2.9.9-6.8.6-2.5-2.1-4.9-5.9-6.2-9l.6-1.5c1,.2,2,.4,3,.6l.9.2c.3-5.2.5-7.1,1.7-12.1Z"/>
  <path fill="#e3ed1a" d="M342.1,725.5c4.2,1.6,12.7,13,15.5,17.3l-.7-.7c-10.4,2.7-21.4-5-14.8-16.6Z"/>
  <path fill="#fafce9" d="M260.5,549.9c2.4,0,1.8,0,4.2.5l.5,2c-1.8,7.2-5.9,10.6-11.4,14.9l-2.6.7c-4.6-4.5,5.8-15.3,9.3-18.2Z"/>
  <path fill="#95c51a" d="M300.1,757.9c-1.5-3.8-3.2-6.3-2.7-10,3.6-2,3.1-4.8,3.6-8.9v.7s1.7,0,1.7,0c1.3,3.2,4.8,16.9,5.1,20.2l-4.3,1.7-2.3-1.2-1.2-2.6Z"/>
  <path fill="#f1fac0" d="M414.1,873.5c5,1.5,8.5,6.4,10.8,10.9,2.2,4.4,1.2,6.4,0,10.9-3.5-4.9-7.5-9-10.8-13.9-2.2-3.3-1.1-4.4,0-7.9Z"/>
  <path fill="#f1fac0" d="M176.9,604.2c2.5,0,1.6-.2,3.8.8,2.8,6.2,0,14.2-4.8,18.6l-1.9-1c-.2-.7-.4-1.4-.5-2.1-1.4-5.9.2-11.3,3.4-16.3Z"/>
  <path fill="#e3ed1a" d="M212.3,750.3c1.6.4.9.3,2.4,1.8v1.9c-3.3,3.2-13.9,10.2-18.4,13.7l-1.9-.8v-1.7c5.2-6.2,11-10.8,17.9-14.8Z"/>
  <path fill="#f1fac0" d="M396.5,848.2c4.3,2.5,10.3,10.5,9.9,15.6l-2.2,1.3-2.3.3c-9.6-5-3.5-9.2-5.5-17.2Z"/>
  <path fill="#f1fac0" d="M172.4,624.4c4.8,4.7,1.9,17.1-1.9,22.5-.7-.5-2.2-1.9-2.9-2.5-2.9-8.8,4.4-10,4.7-19.9Z"/>
  <path fill="#f1fac0" d="M186.7,580.9l3.2,1c3.8,5.5,1,11.3-2.1,16.4-6.4-4.9-5.1-11.5-1.1-17.4Z"/>
  <path fill="#e3ed1a" d="M310.5,513.6c3.9,1.2,9.9,9.4,12.1,12.8l-.3,2c-6-2-13-8.6-17.6-12.9,1.7-.4,4-1.3,5.8-1.8Z"/>
  <path fill="#95c51a" d="M280.6,925.5l1.2.5c1.8,4.1,5.8,12.6,2,16.2l-2.1-.8c-2.6-4.8-6.4-9.5-5.1-14.2,2.5-.3,2.1-.3,4-1.8Z"/>
  <path fill="#95c51a" d="M248.4,851.8h.8c2.6,2,2.5,10.3.3,12.9h-1.6c0-.1-1.8-2.6-1.8-2.6-2-2.4-4.8-5.1-4.6-7.9,5.4-3,1.4.8,6.8-2.4Z"/>
  <path fill="#f1fac0" d="M271.5,868.5c2.8.4,2.6.4,4.8,2.1,2.3,4.9,1.3,7.6.1,12.9-6.1-4.2-5.5-8.3-4.9-15.1Z"/>
  <path fill="#e3ed1a" d="M154.4,631.1c4,5,3.4,9.7,2.1,15.5-4.3-4-5.8-10.6-2.1-15.5Z"/>
  <path fill="#95c51a" d="M416,758c2.4,1.9,2.5,2.2,4.3,4.7.1,3.8.5,2.1-1.3,5.4-2.4-.3-1.3,0-3.3-.6-1.6-3.1-.4-5.9.4-9.5Z"/>
  <path fill-opacity="1" d="M444.9,81.4c7.3,11.9-21.9,69.8,18.3,76.8,45,7.8,53.2-20,44.7-58.3,7,9,7.9,17,6.7,28.2-3.5,34.2-38.6,45-66.2,27.1l-22.9,296.6c-3,39.2-5.2,78.4-9.5,117.6-.7,6.6,5,17.6,6.7,24.3,4,11.1,3.7,37.3.5,48.2-2-19.5,3-35.5-6.2-54.6-.7-1.5-8.8-23-8.8-22.1,3-2.9,3.1-6.6,3.7-11.2,4.1-33,4.9-66.2,7.5-99.3l18.6-240.3c1.3-15.7,3.3-53.1,6.4-66.4-6.9-12.2-8.7-26.6-5.2-40.2,1.5-5.8,3.5-11.7,4.9-17.3.2-.9.5-6.8.8-9.1Z"/>
  <path fill-opacity="1" d="M505.2,90.3c88.8,13.5,177.8,26.2,266.8,38.1,16.9,2.2,33.8,4.7,50.6,7.3,7.3,1.1,24.5,4,31,3.9-2.1,2.8-2.8,4.1-5.8,6-9-4.6-64.8-10.2-79.1-12l-107.2-14.2c-16.9-2.3-147.7-23.7-153.7-19.6-1.2-5.2,2-3.8-2.7-9.6Z"/>
</svg>