<?xml version="1.0" encoding="UTF-8"?>
<svg id="fixed_id_0"  xmlns="http://www.w3.org/2000/svg" version="1.1" xmlns:xlink="http://www.w3.org/1999/xlink" viewBox="0 0 1176.9 1605.3">
  <!-- Generator: Adobe Illustrator 29.3.1, SVG Export Plug-In . SVG Version: 2.1.0 Build 151)  -->
  <defs>
    
  </defs>
  <path fill="#98ba2b" d="M230,120.6c19.7-21.5,23.3-11.9,49.1-17.9,81.5-19.3,163.8-34.7,245.8-51.2l88.2-18.6c34.7-7.5,52.5-18.8,81.5,9.4,35.4-4.9,59.7-15.7,50.6,39.1-.9,5.4-30,6.3-36.6,8l-1.3.4c-2.5,16-3.8,23.9-11.3,38,5.3,25.2,5.5,54.3,8.4,80,6.4,57.4,11,115,16.4,172.4,1.1,11.8,27.6,4.1,12.4,38.7,3,13.8-.8,13.8,1,23.8,2.1,12,8.3,26.6,8.9,39.6.4,6.4-4,13.5-2.2,19.9,3.2,11.2,12.4,10.2,6.4,23.1-1.1-12.5-14.7-19.5-13.7-30.9-4-5.2-11,1.3-17.6-1.3-1.3-2.5-1.9-3.1-4-4.9-1.3-6.8,1.4-40.5,4.9-48.6.3-.8,7.8-1,10.5-1.6,5.3-8,.2-17.1,2.9-23.2,4.6-10.4.6-24.9-12.8-26-3.2-.3-6.4.8-8.8,3-11.6,10.6,1.5,23.7.4,34.5-1.3,13,5.4,3.8,4.6,18.3-.9,16-6,33.1-1.8,48.8,3,10,6.4,10.4-.9,20.2l-3,.2c6.1-14.8-2.4-16-2.8-31.8-.3-11.4,3.9-28.7,3.2-39.2-.6-9-3.1-8.1-3-21.4-12.9-15.8-9.2-26.8,6.1-37.8-3.3-26.8-21-238.1-25.4-247.1-57.1,37.9-72.5-30-77.7-30-9.4,0-90.9,14.1-98.9,18.1-7.4,10.3-14,22.5-20.7,33.4-15.1,24.4-28.9,49.7-43.5,74.4l-53.8,89.9c-7.2,12-34.3,53.1-36.2,66.1-1.4,9.6,0,39.5,0,51.1v97.8c0,12.5.8,44-.5,55.4l-.9.6c-16.5,10.8-31.8,14-37.5,35.2,5.9,23.5,16,26.8,38.4,27.7,1,17.9.5,41.2.5,59.4v106.4c0,0,0,328.6,0,328.6,3.9.7,21.3,3.1,22.8,6,3.7,7.3,9.3,37.8,7,44.2-7.2,1.5-20.3-4.1-29.5-5.2-.5,14.7-1.6,128.7,1.6,131.9,8.9,8.9,75.6,16,83.6,22.1,4.3,3.3,7.4,14.9,7.8,20.4.4,4.9-.9,13.5-4.3,17.2-1.8,2-2.8,2.6-5.4,2.6-11.9,0-26.8-5.5-38.5-8.4-31.1-7.7-62.4-17.1-93.9-22.9-22.7-4.2-64.1,4.6-87.6,7.9-32.4,4.5-65.1,8.8-97.3,14.5l-.7,1.3c1.7,3.2,3.6,5.4,3.6,8.7-6.9,6.4-50.7,8.7-61.4,9.3-6.9.4-38.3-7.7-41.7-12.9,2-8.9,23.1-5.7,28.6-10.1l.3-821.5.5-282.1c.1-47.7,0-95.5.5-143.2.1-14.5,4.9-20.3,19.1-20.4,11.8-.1,24.2,1.3,35.9,2.3l79.2,7.5c16.6,1.5,28.3,3.5,44.8.7ZM620.1,41.6c-3.7-1.3-22.6,4.4-27.7,5.5-42.6,9-85.4,16.9-128.2,25.4-35.3,7.3-70.6,14.5-106,21.5-25.3,5-54.7,12.3-79.1,16.7-2.7.7-3.7,1-6.4,2.1l-.5,1.2c3.4.8,7.2.3,10.6-.3,55.4-9.9,110.8-19.7,166.2-29.1l104.6-18.1c20-3.4,41-6.2,60.7-10.8,1.5-4.5,3.9-9.6,5.7-14ZM727.5,488.5c5-8.4-.3-37.1-4.9-44.3l-2-1.1c-1.4,6.5-2.7,14.1-3.2,20.8-.8,9.6-4.6,23.4,8.4,24.5l1.7.2ZM110.9,1313.4c-.3-6.1-.5-11.1-.4-17.2v-152c0-17.1-1.3-62.4.5-76.6,4.2-3.4,28.6-4.6,36.3-5.5v-180.7c0-31.7-.7-67.6.2-99.2-12.3-.2-25.1-.1-37.3-1.4,0-9.1-1.6-67.4,1.6-70.4.9-.8,2.2-1.6,3.3-2.2,2.5-5.5-3.3-15.6,1.7-22.5,4.2-1.4,16.9-1,22.1-1.1,0-8-1.5-43.6,1.3-47.5h.9c2.4-.4,3.4-.3,5.5-1.6,2-3.6.9-54.7.9-62.4v-125.2c-.1,0,0-204.8,0-204.8,0-27.5.5-56.6,0-83.9-13.4-.4-37.2-.4-49.7-1.7-1.1,7.8-.6,24.3-.5,32.8.3,16.7.5,33.3.6,50v184.1s-.2,670.9-.2,670.9l.6,163.2c0,11.2-1,76.3,1.7,80.1,7.3,2.1,35.1,1.3,37.6-7.8,3.3-11.9-18.2-13.8-26.7-17.3ZM210,234.7c-3.9,8-2.5,97.5-2.5,111.8v190.8c.1,27.7-.2,75,.7,104.3,0,1.4,4.3,2.3,4.6,4,2,10.3-1.5,29.8,1.7,39.3,6.8-.4,15.7-.3,22.7-.3,1.1-14.5-.8-33,.8-46.6,2.1-2.8,3-2.4,7.1-3.9.4-131.3.1-262.6-.9-393.9-2.1.5-4.3,1-6.5,1.4-11.7,2.1-17.9,0-27.7-6.8ZM240,780.6l-25.8,1,.3,100.7c0,14.7.3,29.6-.2,44.2,0,1.7-1.9,5.2-3.2,6.2-7.5,6.2-15.8,1.3-16.3-7.5-.9-14.3-.5-28.2-.5-42.3l-.4-71.1c-.1-34.3,5.1-32.1-31.1-29.2v126.7c.4,49.8-.1,101.9,1.1,151.4,9.4-.7,75.9-4,79.1-7.4,1-10.1.6-24.7.5-35.2v-57.2s-.4-123.5-.4-123.5c0-7.7,1-53.1-1.2-56.8l-1.9-.3ZM260.3,1052.4c12.3,2.3,23.4,3.3,35.2,7.5l.4,168.3c0,11.1.9,66.8-.7,73.6-2.7,1.8-1.3,1.4-4.3,1.6-7.4.8-14.9.4-19.9,5.5-1.2,4.1-1.2,2.1-.3,6.2,6.4,6.1,28.6,1,35.7-2.6,3.6-8.6,2.1-69.5,2-81.6l.2-135.4-.4-641.4c.5-66.4.6-132.8.4-199.1,0-14.3.7-68.7-1.4-79-5.9-2.9-33.5-3.7-41.2-3.8v1.2c1.5,11.5,4.9,19.7,4.5,31.5-.6,14.3-11.3,22.4-11.2,35.9,0,26.7,0,53.6.1,80.3l.5,186.4-.3,88.4c0,10.7-.3,23.9.2,34.7.1,2.2,3.8,4.8,5.7,6.4,3.9,8.5-4.2,42.1,4.7,44.9,4.7,1.5,15.2,1.6,21,2.2-.2,5.8-2.2,20-1.7,23.1,2.2,1.8,3.1,1.8,5.9,2.5,2.1,3.2,4.3,64-2.4,68.8-8.1,1.9-23.5.4-33.1,1.3.2,90.7,1.3,182.2.6,272.8ZM169.3,684.5c7,0,18.8,0,25.4.6-.3-7.5-.8-33.5,1-39.8,1-.6,1.9-1.2,2.8-2,5-4.6.3-437.6.6-478.6-7.3-.5-26.5-2.2-32.8-3.9-1.3.7-2.9,1.2-3.3,2.6-1.3,4.4-2.4,462.9-.5,472.7,4.4,1.2,2.8,0,5.5,3,2.7,9.6.5,33.3,1.4,45.4ZM357.5,290.6c27.6-42.2,51-90.7,79-133.2,2.3-3.5,13.4-21.7,12.8-24.6-.7,0-2-.2-2.7,0-25.9,2.5-65.2,10.7-91.7,15,.8,32.2,0,64.7.3,96.9.1,13.7-.6,32.4.4,45.6,1.5.6.9.7,1.8.4ZM185.9,1331c10.2-3,38.6-3.2,43.6-10.4.4-3.9.4-2.5-1.5-6.5-2.5-1.7-1.2-1.2-4.1-1.5-7.1.6-39.8,3-43.5,6.3-1.4,6.3-1.9,11.2,5.5,12.1ZM233.1,710.2c3.5,0,3.4.5,5.9-1.2-2.5-2.3-8.7-2.2-12.1-2.1-2,0-3.9.2-5.9.3-2.7.3-5.2.3-7.4,1.8,3.7,1.9,15,1.3,19.5,1.2Z"/>
  <path fill="#f5fda2" fill-opacity="0" d="M279.1,110.6c24.4-4.4,53.9-11.6,79.1-16.7,35.4-7,70.7-14.1,106-21.5,42.7-8.5,85.5-16.4,128.2-25.4,5.1-1.1,24-6.8,27.7-5.5-1.9,4.4-4.2,9.5-5.7,14-19.8,4.6-40.7,7.4-60.7,10.8l-104.6,18.1c-55.4,9.4-110.8,19.2-166.2,29.1-3.4.6-7.2,1.1-10.6.3l.5-1.2c2.7-1.1,3.7-1.4,6.4-2.1Z"/>
  <path fill="#99bb2d" d="M230,120.6c19.7-21.5,23.3-11.9,49.1-17.9,81.5-19.3,163.8-34.7,245.8-51.2l88.2-18.6c34.7-7.5,52.5-18.8,81.5,9.4,35.4-4.9,59.7-15.7,50.6,39.1-.9,5.4-30,6.3-36.6,8l-1.3.4c-2.5,16-3.8,23.9-11.3,38,5.3,25.2,5.5,54.3,8.4,80,6.4,57.4,11,115,16.4,172.4,1.1,11.8,27.6,4.1,12.4,38.7,3,13.8-.8,13.8,1,23.8,2.1,12,8.3,26.6,8.9,39.6.4,6.4-4,13.5-2.2,19.9,3.2,11.2,12.4,10.2,6.4,23.1-1.1-12.5-14.7-19.5-13.7-30.9-4-5.2-11,1.3-17.6-1.3-1.3-2.5-1.9-3.1-4-4.9-1.3-6.8,1.4-40.5,4.9-48.6.3-.8,7.8-1,10.5-1.6,5.3-8,.2-17.1,2.9-23.2,4.6-10.4.6-24.9-12.8-26-3.2-.3-6.4.8-8.8,3-11.6,10.6,1.5,23.7.4,34.5-1.3,13,5.4,3.8,4.6,18.3-.9,16-6,33.1-1.8,48.8,3,10,6.4,10.4-.9,20.2l-3,.2c6.1-14.8-2.4-16-2.8-31.8-.3-11.4,3.9-28.7,3.2-39.2-.6-9-3.1-8.1-3-21.4-12.9-15.8-9.2-26.8,6.1-37.8-3.3-26.8-21-238.1-25.4-247.1,2.2,0,2.6,0,4.8-.5,4-14.6,9.7-29.3,11.1-43.9l.9-.9c10.6-10.5,20.4-9.3,34.4-10.7,4.7-6.6,7-21.7,3-28.7-9.2-16.1-36.4-1.6-51.4-6.6-12-15.8-33.7-17.7-51.4-11.6-6.5,2.3-15.1,1.4-17.5,8-3.7-1.3-22.6,4.4-27.7,5.5-42.6,9-85.4,16.9-128.2,25.4-35.3,7.3-70.6,14.5-106,21.5-25.3,5-54.7,12.3-79.1,16.7-8.1-6.5-37.5,3-44.1,10.7-4.8,5.6-12.9,5.5-19.5,5.9-32.3-.7-64.1-6.4-96.2-9.1-20.4-1.7-35.1-4-55.7-3.6-2.8,3-5.1,5.5-7.6,8.8-2.4,30.2-1.6,59.1-1.8,89.1v169.8c0,0,0,669,0,669v211.9s.1,74.4.1,74.4c0,5.9,1.9,34.8-.3,37.9-2,1.1-2,1.2-4.1,1.9l.3-821.5.5-282.1c.1-47.7,0-95.5.5-143.2.1-14.5,4.9-20.3,19.1-20.4,11.8-.1,24.2,1.3,35.9,2.3l79.2,7.5c16.6,1.5,28.3,3.5,44.8.7ZM727.5,488.5c5-8.4-.3-37.1-4.9-44.3l-2-1.1c-1.4,6.5-2.7,14.1-3.2,20.8-.8,9.6-4.6,23.4,8.4,24.5l1.7.2Z"/>
  <path fill="#99bb2d" d="M199,164.7c10.3,8.5.1,60.6,6,69.2,1.8.1,4-.1,5,.8-3.9,8-2.5,97.5-2.5,111.8v190.8c.1,27.7-.2,75,.7,104.3,0,1.4,4.3,2.3,4.6,4,2,10.3-1.5,29.8,1.7,39.3-2,0-1,.2-3-.9-3.8-9,.2-33.9-7.5-40.5l-1.4.7c-7.3,12.7.2,36.8-8,40.9-.3-7.5-.8-33.5,1-39.8,1-.6,1.9-1.2,2.8-2,5-4.6.3-437.6.6-478.6Z"/>
  <path fill="#99bb2d" d="M162.4,636.1c-3.2-.1-3.1,0-5.9-1.2l-.5-2.2c.6-1.2,2.1-4,2.1-5.4-1.2-39.2-.8-78.4-1.8-117.6-.1-5.2-1.3-27.4-.2-31.1l2,1.1.4-.9c-1.6-6.1-2.9-4.6-2.7-11.5h1.2c0,.1,1.1,3.7,1.1,3.7.1-9.1,0-18.8-.1-27.9-1.6,1.6,1,3.6-1.8,6.6-.4-4.5-.4-10.4-.5-15,.9.9,1.9,1.9,2.8,2.8,0-8.9-2.5-5.3-2.9-10.8-.3-4.3,4.8-15.2,2.7-21.2-1-2.7-.6,2-2.6-2.8l2.4,1.1c.7-5.1.5-7.8.2-12.8l-1.1-.2-1.2,3.5c-1.1-5.3-.9-31.5-.3-37.9l.9-.7,1.5,1.5.3-1.7-2.5-2.2c-.9-4.7.3-14.2,0-19.9-.6-18.9-.6-39.3.3-58.1.5-9.5-2.3-46.4.6-52.8l.5-1-1.7-1.1v-1.1c.1,0,2.4.6,2.4.6.5-4.9-3.4-5.6-2.4-10.4,1.4,1.5.6,1.1,2.4,1.4.6-3.7-2.7-3.6-2.9-8.6l2.6.5.4-1.5-2.5-2.2c-.7-3.5,1.2-9.1,1-13.6-.3-6.8-.8-21.6,4.8-25.8,2.7-.2,2.5-.3,4.8,1-1.3.7-2.9,1.2-3.3,2.6-1.3,4.4-2.4,462.9-.5,472.7Z"/>
  <path fill="#fffffa" fill-opacity="0" d="M223.9,1312.7c2.9.2,1.6-.2,4.1,1.5,1.8,3.9,1.8,2.6,1.5,6.5-5,7.2-33.3,7.5-43.6,10.4-7.4-.9-6.9-5.7-5.5-12.1,3.7-3.3,36.4-5.7,43.5-6.3Z"/>
  <path fill-opacity=".5" d="M221,707.3c2-.1,3.9-.2,5.9-.3,3.4-.1,9.6-.2,12.1,2.1-2.5,1.7-2.4,1.1-5.9,1.2-4.6.1-15.8.7-19.5-1.2,2.2-1.5,4.7-1.4,7.4-1.8Z"/>
  <path fill="#98ba2b" d="M707.9,513.8l3-.2c7.3-9.9,3.9-10.2.9-20.2-4.2-15.6,1-32.8,1.8-48.8.8-14.5-5.9-5.3-4.6-18.3,1.1-10.8-12.1-23.9-.4-34.5,2.4-2.2,5.6-3.3,8.8-3,13.5,1.1,17.4,15.6,12.8,26-2.7,6.1,2.4,15.2-2.9,23.2-2.8.5-10.2.8-10.5,1.6-3.5,8.1-6.3,41.8-4.9,48.6,2.1,1.9,2.7,2.4,4,4.9,6.6,2.5,13.6-3.9,17.6,1.3-.9,11.4,12.6,18.4,13.7,30.9-3,5.7-6.5,12.7-10,17.9-50.7.5-101.1-.8-151.9-.6-17.2,1.4-40.2-1.9-56.8,1.7-12.6,2.8-38.8,20.7-50.3,28-3.8,2.4,1.3,16.8.6,22.7-1.3,10.4-7.6,19.7-7.2,30.1,5.2,22.9,17.8,62.5,32.2,80.9,9.2,11.8,19.2,19,28.3,31.4,8,10.9,8.4,19.7,13.7,27.5l1.7.6c2.4-3.9,1.4-10.1,1-14.7,13.7-14.4,27.4-19.2,47.5-21.9,2.8-.4,5,.9,7.3,2.3,1.7,3.3.6,9.6.3,13.9,6.4-8.1,9.1-16.6,14.6-25.3,21.6-34.5,64-43.4,99.8-26.2,1.9.9,2.8,2.4,3.3,4.3-1.5,3.4-5.5,6-8.6,8.4l-4.3,10.7c15.8-10.6,29-17.4,47.3-23.1,1.9-.6,7.3-2.7,8.8-2.8,6.9-2.6,19.4-8.8,20.2-17.1l-1.6-.2c-1.8,1.5-3.5,3-5.3,4.4-5.8,4.8-10.2,4.2-18,5,.6-9.5,4.3-22.3,5.8-32.5-2.6,3.2-6.4,9-10.7,9-5.2,0-19.2-7.6-19.6-13.2-1.4-17.1.3-34.8,1.5-51.9,0-6.9,6.1-11.6,7.7-17.8,1.6-6.5,1.1-15.4,2.7-21.8,3.9-15.3,15.6-39.7,27.8-49.1,27.4-21.1,80.6-8.6,100.5,18.3,11.6,15.7,16.4,35.4,13.2,54.7-1.7,10.9-5.3,21.4-10.6,31.1-10,18-24.6,28.1-23.9,51.4.9,30.6,32.4,35.3,51.6,55.6l1.2-.6c-.2-11.4-13.6-20.6-21.8-26.5,21.3-6.2,34.2-3.5,53.8,7,19.4,10.3,26.6,22.3,36,41.4,1.7,4.6,4.6,14.3,9.2,16.1,3-5-1.8-16.6-4-21.8,17.1-5.4,36.3,19.8,47.9,25.7l.8-.9c-2.1-14.2-14.4-22.4-25.7-29.2,7-25.1,26.8-74.4,12.2-100.5-15.8-28.2-19-14.5-18.2-52.8-7-6.9-34.5-21.3-43.8-26.4-12-6.5-40.3-4.1-55.2-4.6-2.2-5.4-9.6-20.3-10.4-23.8,4.6-4.4,31.8-2.3,39.8-2.5,31.7-.9,63.3,19.7,88.8,38.1,17.3-18.1,15.5-7.9,38.3-.4,7.1,2.3,20.1,15.8,26.2,21.5,1,5.1,1.7,9,2.2,14.3,10.9,6.5,23.3,12.8,33.6,20.2,7,5,8.2,9.7,8.7,17.9-3.3,4.2-5.6,7.9-11.3,8.7-10.9,1.6-28.6-12.9-37.9-19.3-3.3,4.6-8.7,11.5-11.4,16.2-.7,19.4,3.5,53,8.2,71.4,9.5,37.2,7.1,60.7-1.4,97.4-2.3,9.9-1.8,23.3-10.7,30.5-15,12.6-31.7,7.7-48.9,8.8-8.3.5-13.2,5-25.9,3.7-16.3-1.7-35.1-8.5-47.9-19-5.1-4.2,2.7-17.7-2-20.6-5.2,7.3-6.1,21.4-9.1,30.1-3,8.8-7.1,17.3-11.5,25.4-7.9,14.7-20.8,24.2-31.3,36.7-4.4,5.3-36.1,65.1-37.2,70-2,9.7-1.6,34.6,0,44.9,2,13.3,10.6,25.9,15.6,38.3,12.8,31.7,16.3,77.6-4.5,106.9-10.8,15.2-27.4,22.3-45.3,25.1-11.3,1.8-22.8.7-34,2.4-8.4,1.3-16.7,3.9-25.1,5.7-14.7,3.1-30.6,4.3-45.7,3.9-23-.6-46.7-6.7-69.6-5.6-26.7,1.3-52,13.7-79,8.4-25.2-24.2-41.6-25.2-73.4-37.1-7.5-3.6-23.7-10.7-31.8-10.5l-1.2.8c3.9,3.3,13,5.5,18.2,8.1,5.3,2.7,9,4.7,14,8.1,23.7,20.8,35.5,61.4,31,92.1-1.7,11.8-6.8,21.5-5.9,33.8,2.4,33.8,10.3,66.4,15.1,100.1,5,4.2,8.9,7.7,13.6,12.3,1.3,8.5,3.2,17,5.4,25.3,3.4,12.2,14.5,35.7,2.4,44.5-24,17.6-57.7,5.6-83.8,1.5-12.5-.3-25.6-1.1-38.1-1-23.4.3-82.5-16.6-44.6-47,2.7-.4,8.8-.9,11.4-.8,23.7.9,43.6-11.1,59.6-27.6,3.5-3.6,10.4-13.4,10.2-18.9-2.4-46.8-38.1-94.1-52.7-138.3-9.2-22.9-7.7-42.8-13-66.5-5.8-25.7-20.7-69.7-1-93.3,10.6-12.8,42.5-24.2,58.5-29.2,34.4-10.8,71.3-17.9,107.5-19.1,22.9-1.2,56.1,2.5,79.2.2,1.9-.2,10.8-17.7,15.3-22.4-1.6-8.4-4.2-24.7-2.5-32.5,5.1-22.9,2.8-34.7-4.2-56.6-1.9-6,.9-22.7-1-29.5-4.3-15.5-8.9-24.6-9.7-41.1,5.3-3.7,8.7-5.1,14.7-7.6,5.4,30.4,12.1,59.3,33,83-2-9.7-6.4-19.5-9.9-29-6-16.5-9.3-30.4-10.2-47.8-1.9-20.8,0-24.1,13-41.6l-.3-1.4c-8.7-.3-19.4,14.8-25.5,20.5-2.8,2.6-6.4,5.2-9.4,7.5l-10.5,6.6c-8.7,4.1-25.2,12.8-35.1,14-27.3,3.1-54.9,1.3-82.5,7.5-3.8.8-11.6-.9-15-1.5-15.4-2.6-16.8-15-22.9-26.6-8.4-12.8-15.9-21.2-22.6-36-20.2-44.4-13.9-95.4-29.3-141.1-4.6-13.7-22.5-28.5-31.1-43.7-9.6,6-65.9,49.2-62.6,12.5.3-3.5,1.8-6.8,4.2-9.4,3.2-3.4,18.4-11.2,23.2-14.1,7.9-4.7,15.5-9.8,22.7-15.4,2.2-21.7,7.3-11.6,16.9-27.9,4.3-1.6,8.1-2.8,12.5-4.1,2.2-3.5,3.3-6,7.3-7.1,8.5-2.4,17.7-12.5,27-4.9,3.2,2.6,4.2,5,8.3,6.1,13.8-2.5,51.2-32.8,71.6-34.9,18.9-1.9,35.4-1.2,54.3-1.1h82.5c10.5.2,37.5,2.3,45.8-2.8ZM790.2,972.3c-1.1,9.8,1.8,27.9,4.2,37.7,2.6-10,2.2-31.3,2.3-42.5,1.8-9.5,3.1-20.7,5.8-29.7,9.7-31.4,26.6-61.7,35.1-93.4,5.8-21.6,8.7-52.7,6-74.9-1.7-13.5-4.3-25.7-14.3-35.5,12.9,44.8,9.5,92.8-9.6,135.4-17.5,39.3-32,54.8-29.5,103ZM832.5,1037.4l2.8-2.6-.2-1.1c-2.5-.4-21.6,4.2-27.6,4.7-15.2,1.3-30.9,3-46.3,2.5-16.8-.6-33.6-2.4-50.1-5.6-7.3-1.4-30.1-7.4-36.5-7.1,35.8,22.9,120.7,33,157.9,9.3ZM707.8,844.4c12.5,21.5,37.1,25.4,56.5,10.4l1.3-2.5-.7-1.4c-3.9.5-3.3.7-6.9,2.1-9.8,3.8-20.9,4.8-30.7.8-4.2-1.7-17-9.1-19.5-9.4ZM913.1,839.7c-3.2,2.7-6.8,5.3-10.1,7.7-3.2,2.4-17.9,9.1-18.6,10.8l.3,1.3c10.9.5,28.3-8.6,28.4-19.9ZM463.7,1278l1.3-1.8c-1.2-3.6-10-16.1-12.7-20.5-11.9-20-20.1-42.1-22-65.3l-1.3-1.7c-5.8,12.6-3.3,29.2,1.3,41.9,7.6,20.9,17.7,32.4,33.4,47.4ZM674.8,703.2c-5.5.9-16,2.9-18.5,8.7,2.9,2.3,11.2-.6,14.7-1.8,6.3-.5,18.3-.8,22.8-4.6-2.3-2.4-7.5-2.4-10.8-2.4-2.7,0-5.4,0-8.1.1ZM760.8,759.7c5.4,10,17.4,12,24.4,25.3,6.5,12.3,1.6,26.4,4.6,31.9,2.1-2.1,1.4-1.2,2.6-4,7.1-27.6,3.7-45.7-26.5-52.5-1.9-.4-3.2-.6-5.2-.6Z"/>
  <path fill-opacity="0" d="M674.6,1028.1c6.4-.2,29.2,5.7,36.5,7.1,16.5,3.2,33.3,5.1,50.1,5.6,15.3.5,31.1-1.1,46.3-2.5,6.1-.5,25.1-5.1,27.6-4.7l.2,1.1-2.8,2.6c-37.2,23.8-122.1,13.6-157.9-9.3Z"/>
  <path fill-opacity=".5" d="M429.1,1188.6l1.3,1.7c1.9,23.2,10.1,45.4,22,65.3,2.6,4.4,11.5,16.9,12.7,20.5l-1.3,1.8c-15.7-15-25.8-26.5-33.4-47.4-4.6-12.7-7.1-29.3-1.3-41.9ZM457.5,1268.9c-8.9-18.3-20.5-34.5-24.9-55-.7-3.3-2.9-14.7-4.6-16.5-2.8,25.2,10.2,55.2,29.5,71.4Z"/>
  <path fill-opacity="0" d="M428,1197.5c1.7,1.7,3.9,13.2,4.6,16.5,4.4,20.5,16,36.7,24.9,55-19.2-16.2-32.2-46.2-29.5-71.4Z"/>
  <path fill-opacity="0" d="M760.8,759.7c2,0,3.2.2,5.2.6,30.2,6.8,33.6,25,26.5,52.5-1.3,2.8-.6,1.9-2.6,4-2.9-5.5,1.9-19.6-4.6-31.9-7-13.3-19-15.3-24.4-25.3Z"/>
  <path fill-opacity="0" d="M707.8,844.4c2.5.3,15.3,7.7,19.5,9.4,9.8,4,20.9,3,30.7-.8,3.7-1.4,3-1.6,6.9-2.1l.7,1.4-1.3,2.5c-19.4,14.9-44,11.1-56.5-10.4Z"/>
  <path fill-opacity="0" d="M674.8,703.2c2.7-.1,5.4-.1,8.1-.1,3.4,0,8.5,0,10.8,2.4-4.5,3.9-16.5,4.1-22.8,4.6-3.5,1.2-11.7,4.1-14.7,1.8,2.5-5.8,13-7.8,18.5-8.7Z"/>
  <path fill-opacity=".1" d="M913.1,839.7c0,11.3-17.6,20.4-28.4,19.9l-.3-1.3c.7-1.8,15.5-8.5,18.6-10.8,3.2-2.4,6.8-5,10.1-7.7Z"/>
  <path fill-opacity=".1" d="M790.2,972.3c1.5,1.6,2.1,12.6,3.1,16.9.5-7.5,1-13.2,3.1-20.4l.4-1.2c0,11.2.3,32.5-2.3,42.5-2.4-9.8-5.3-27.9-4.2-37.7Z"/>
  <path fill="#98ba2b" d="M854.2,1178.4c5.8-.4,14.6,1.4,20.5,2.4,32.3,5.4,64.5,11.1,96.7,16.9,18,3.2,35.6,6.2,53.4,10.1,28.1,6.1,26.1,25.7,21.6,49.2-2.3,2.6-6.1,6.4-9.4,7.3-35,10-76.8,11.5-111.7,20.7,16.2,38.3,22.7,106.8,31.4,149.2,2.3,11.3,5.8,35,10.3,44.8,8.3,3.5,54.2-13,67.2-12.5,47.6,1.7,41.2,16.1,42.9,54.6-10,2.7-36.5,8.4-47.2,7.4-1.8-.2-13.8-5.7-15.8-5.6-14.4.6-139.6,25.1-144,28.3-2,3.4-2.1,7.9-2.5,11.9-11.8,2.4-29.6,5.4-40.7,8.7-9.5-3.2-22.7-4.5-31.1-9.5-3.3-1.9-5.3-4.7-6-8.4-1.6-7.4,1.1-33,5.3-38.8,4.5-6.2,63.5-14.9,74.3-17l.3-1c-6.6-3.6-22.7-7-30.5-9-23.9-6.1-48.1-11.6-72.2-17-17.2-3.8-36.6-10.1-53.7-13-11.7-2-29.5,1.3-42.3-2.5-7.3-2.1-12.2-8.7-18.9-10.7-32.2-9.5-65.3-17.7-97.8-25.9-4.6-17.1-4.5-18.4-17.9-30.8-.3-4.7-1.5-11.9.5-15.3,3.9,1.5,8.1,2.3,12.2,3.1,24.1,4.9,47.9,11.4,72.1,15.9,10.8-6.2,20.2-12.1,26.3-23.4,3.3-6,8.5-18.9,8.8-25.5,1.1-24.7-7.8-57.1-14.4-80.6,17.4,1.1,47.7,6.7,65,10.8,5,1.2,8,2.1,8.8,7.8,1.1,7.6-1.7,17.3-2.7,25-2.2,16.9-4.6,35.3-3.2,52.3.9,11.2,7.1,20,9.1,30.7,1.4,7.3.3,19.5,4.6,25.5,2.2,3,165.3,40.5,179.7,43.3-6.7-31.1-10.1-63.8-16.5-95.1-5.4-26.5-6.5-52.4-28.2-71.4l-91.8-17.2c-66.1-12.3-131.9-25.6-198-38.1-13.8-2.6-27.8-4.8-41.7-6.7-2.1-15.3-7.6-27.9-10.2-42.3l1-1c14.5-3.6,28.5,20.3,41.4,23.8,23.8,6.6,55.2-7.3,80.8-8,21.2-1,42.5,4.5,63.8,5.7,28.5,1.7,51.7-5.9,78.9-11.1,13.9-2.6,30.3,1.4,45.4-4,11.3-4,16.1-9.9,26-14ZM805.7,1229.5c-12.8-2.9-31.8-5.5-44.7-4.7h-1.7c-.3.1-.7.1-1,.2,9.9,2.7,27.7,7.3,37.8,7.8,3.8,1.4,26.2,5.2,32.3,6.6,13.9,3.1,34.5,8.1,48.2,8.6,17.6.7,39.9-5.9,57.7-9,20.2-3.5,40.6-7,61-9.7,7.8-.5,19.3-3,27.3-4.5-11.5-1-33.4.3-44.9,2.9-16.8,2.1-33.6,4.2-50.3,6.5-11.9,1.6-36.4,5.6-48.1,5.2-20.9-.8-52.9-5.4-73.6-9.7Z"/>
  <path fill-opacity="0" d="M977.6,1227.6c3.4.1,16,0,18,.7l-.4.9c-20.4,2.7-40.8,6.3-61,9.7-17.8,3-40.1,9.6-57.7,9-13.7-.5-34.3-5.5-48.2-8.6-6.1-1.4-28.5-5.1-32.3-6.6-2.1-.9-2.4-1.1-4.3-2.4,1.8-1.2,10.4-.7,13.8-.8,20.7,4.3,52.7,9,73.6,9.7,11.6.4,36.2-3.5,48.1-5.2,16.8-2.2,33.5-4.4,50.3-6.5Z"/>
  <path fill-opacity=".2" d="M758.3,1225c.3,0,.7,0,1,0h1.7c12.8-.9,31.9,1.7,44.7,4.6-3.5.2-12-.4-13.8.8,1.9,1.3,2.2,1.5,4.3,2.4-10.1-.5-27.9-5.1-37.8-7.8Z"/>
  <path fill-opacity=".3" d="M977.6,1227.6c11.5-2.6,33.5-3.9,44.9-2.9-8,1.5-19.4,4-27.3,4.5l.4-.9c-2.1-.8-14.6-.5-18-.7Z"/>
  <path fill="#98ba2b" d="M617.4,948.3c5.8-.1,19.5-1.3,23.8,1.8,3.1,10.7-.4,22.9-.7,34-.2,9.6.1,18.7.6,28.2-6.5,11.9-13.2,13.7-26.7,14.4-14.4,1.5-14.7-12.8-21.7-18.3-13.5-10.5-15.9,8.7-19,12.3-7.1,3.5-38.3,3.9-48,5.3-25,3.6-46.9,12-71.1,18.2-2,.5-6-.7-8-1.4-.3-.1-.7-.2-1-.4-9.3-4.2-15.8-13.1-19.1-22.5-4.4-12.8-4.3-29.5,1.7-41.7,3.1-6.2,7.6-12,14.3-14.2,14.5-4.8,103.2-14,115.3-7.2,7.5,4.2,12.2,15,14.7,22.9,6.1-.2,11.1-.7,17.2-1.3,4.8-16.8,7.5-28.5,27.7-30.2ZM447.6,1017.4c8.9-7.6,10.7-25.9-.8-31.5-10.7,8.1-11.7,24.4.8,31.5Z"/>
  <path fill="#99bb2d" d="M417.1,913.4c-13.5-13.2-24.2-35-32.4-51.8-17.1-35.2-19.1-63-12.8-101.1,4.2,19.3,5.5,39.2,10.9,58.3,7.7,27.4,19.2,52.8,33.5,77.3,2.3,4,5.1,8.3,7,12.4l.8,1.6c.2,3.4.3,4.3,1.5,7.5l-.2,1.2c-2.8-2-5.2-4.1-8.3-5.3Z"/>
  <path fill="#99bb2d" d="M1141.8,818.1c3.8-19.5,4.1-38.6,4.2-58.4,0-4.9.1-8.7,1.1-13.5,8.8,27.4,10.9,52.7,6.1,81.2-.7,4.1-1.7,11.3-3.5,14.8l-.5,2.6c-5.6,19.9-13,36.4-24.7,53.3-4.8-1.5-4.1-2.7-4.8-7.1,11.7-27.1,14.1-35.1,20.6-63.8.4-3,.9-6,1.4-9Z"/>
  <path fill="#99bb2d" d="M1113.2,707.5c4.4,3.2,6.5,12.4,7.6,17.6,11.6,55.7,7.9,96.4-22.6,144.1-1.5,2.2-1.4,2.8-3.8,3.7-.5-3,8-25.2,9.6-30.7,3.9-13.4,6.8-27.1,8.8-41,2.3-15.8,3.7-31.5,3.1-47.5-.5-15.1-3.3-31.3-2.8-46.2Z"/>
  <path fill="#99bb2d" d="M395.7,785.3c.9-7.1-1.3-32.9,3.4-36.1,1.5,2.4,2.7,4.1,4.4,6.3,1.6,18.1,5.1,36.8,10.2,54.3,2.8,9.7,6.6,18,9.6,27v1.2c.3,5.4,1,8.7,2.8,13.8l-.4,1.4.6-.8-1.9.3,1.8.8c-3.9-.5-3-2-6.9-3.4-8.7-13.9-24.2-48.5-23.5-64.9Z"/>
  <path fill-opacity="0" d="M632.9,844.2l10.5-6.6c1.8,1.4,3.5,2.9,5.1,4.5,2-.1,3.6-.2,5.5-.5,4.2,3.9,3.5,8.9,7.6,12,2.3-.3,2.2,0,4.1-1,.9,17.4,4.1,31.3,10.2,47.8,3.5,9.4,7.9,19.2,9.9,29-20.9-23.7-27.6-52.6-33-83-6,2.5-9.4,3.9-14.7,7.6-.8-4.5-2.4-6.2-5.1-9.7Z"/>
  <path fill-opacity="1" d="M401.3,713c0,16,.2,26.9,2.2,42.6-1.7-2.3-2.9-3.9-4.4-6.3-4.7,3.1-2.5,29-3.4,36.1-4.6-19.9-.8-52.6,5.6-72.3Z"/>
  <path fill-opacity=".9" d="M423.2,836.9c7.1,16.1,16.3,31.8,22.7,46.8-7.9-7.8-21.8-23.6-26.8-33.4,3.9,1.4,3,2.9,6.9,3.4l-1.8-.8,1.9-.3-.6.8.4-1.4c-1.8-5.1-2.4-8.5-2.7-13.8v-1.2Z"/>
  <path fill-opacity=".2" d="M485.5,1168.1c-5-3.4-8.7-5.4-14-8.1-5.2-2.6-14.3-4.7-18.2-8.1l1.2-.8c8.1-.2,24.3,6.8,31.8,10.5l-3.8.8c-.2,2.5,1.3,2.6,3,5.7Z"/>
  <path fill-opacity=".9" d="M1119.7,890.9c.7,4.4,0,5.6,4.8,7.1-6.1,9-9.3,13.9-18.1,20.2,4.6-9.1,9.1-18,13.3-27.3Z"/>
  <path fill-opacity="0" d="M975,738l3.2-.8c.5-2.4.7-3,2.1-5,2.1,5.2,6.9,16.9,4,21.8-4.6-1.7-7.5-11.4-9.2-16.1Z"/>
  <path fill="#f8febc" d="M424.1,910.1c4.5,5.3,11.4,15.5,15.1,21.6-9.4-4-16.3-9.8-22.1-18.3,3.1,1.2,5.6,3.3,8.3,5.3l.2-1.2c-1.2-3.2-1.3-4-1.5-7.5Z"/>
  <path fill="#dbe7b5" d="M759.9,682.9c7.8-.7,12.2-.1,18-5,1.8-1.5,3.6-2.9,5.3-4.4l1.6.2c-.8,8.3-13.3,14.5-20.2,17.1,2.1-2.1,4.1-3.2,4.6-6.3l.3.2-.8,1.7.3-2h.4c-3.5,0-6.5.5-9.6-1.5Z"/>
</svg>