<?xml version="1.0" encoding="UTF-8"?>
<svg id="fixed_id_0"  xmlns="http://www.w3.org/2000/svg" version="1.1" xmlns:xlink="http://www.w3.org/1999/xlink" viewBox="0 0 732.7 727.5">
  <!-- Generator: Adobe Illustrator 29.3.1, SVG Export Plug-In . SVG Version: 2.1.0 Build 151)  -->
  <defs>
    
  </defs>
  <path fill="#94d305" d="M61.1,5.8c6.6-.4,15.8,0,22.6,0h41.7s44.6,0,44.6,0c8.6,0,18.6-.2,27,.2.4,6.3.3,13,.3,19.4-3.2,0-6.4,0-9.6.2,19.8,12.5,12,28.5,13.4,47.2.5,5.8.3,11.8.8,17.7,1.1,11.2,1.4,27,2,38.7l3.6,58.1,9.9,173.4c.9,15,1.7,30,2.4,45,.2,3.9.2,20.6,1,22.9l.5,1.3c2.6-.6,6.3-4.2,8.8-5.4,14.3-6.7,31.5,1.1,35.1,16.8,2.4,10.2-1.4,12.6-3.1,20.6,2.9.2,24.8-3.9,28.7-4.6,21.8-4.1,43.6-8.1,65.5-12,8.2-1.5,18.3-4.2,26.2-5.2-.6,2.1-1.1,2.3-.4,3.9l.3.2c-5.4,2.2-24.7,4.9-31.6,6.2l-49.4,9c-13.3,2.4-25.6,4.9-39,6.8-8.1,1.4-10.8,4.7-18.4,6.4-2.7.6-8.8-.8-11.5-.3-12,2.1-24,4.5-36.1,6.5-.2,9.1-.2,18.2,0,27.3,35.8,12.2,36.7,19.2,55,51.7,2,5,9.3,11.8,10.7,16.6,3,10.2,3.5,19.7,9.1,29.2,5.4,9.1,13.2,15.2,19.6,23.2,4.4,5.6,7.1,14.1,12.2,19.6,3,3.4,9.9,7.3,11.5,9.2,0,3.1,0,3.8,1.6,6.7l319.2-.3c-1.2-6.1-4.9-17.4-6.6-24.1-4.6-17.8-9.4-35.6-14.5-53.2-11.1-.4-22.5-.4-33.7-.3-56.4.5-113-.9-169.3,0-12.9,8.4-30,22.2-40,33.8-.1,1.5-.3,3.8-.9,5.1-2.7,5.8-15.8,24.4-20.9,26.3-3.8-.2-6.2-3.4-8.9-5.6-6.3-5.3-.2-8.2,2.2-13.3,1.1-2.2,1.6-7.1,2.9-8.9,10.4-13.6,25.3-25.3,40-34.1,4.4-2.7,10.2-3.7,14.5-6.6,4.9-3.4,9-8,13.4-12,12.1,0,25-1,36.8-.4-1-4.9-1.6-10.2-.6-15.2.4-2.2,1.2-4.7,3.3-5.9,1.7-1,4.5-1.5,6.3-.9,4,1.2,5.2,7.4,7.1,10.7,1,1.7,2.4,2.8,4.3,3.3,3.1.7,42.5-7.9,49.9-8.7,15.9-1.8,31.7,1.6,47.6-.5,6.5-.9,12.9-2.4,18.6-5.8,9.7-5.7,15.4-14.5,18.2-25.2-2.8,4.4-3.9,7.8-7.4,12-16.8,20.1-43.2,16.1-66.3,14.9-13.7-.7-32.3,5.2-46.1,7.1-4.4.6-8.5,2.3-13.4,2.7-6.8-10.4-15-34-16.7-46-1.3-3.5-.6-30.9,2.8-32.5,11.2-5.2,47.5-5,58.3-4.8,1.6,8.2,4.3,13.2,8.6,20.3-1.2-3.9-6-15.9-4.5-19,3.2.3,10.1,11,14.5,14l.5-.3c-1.9-4.2-10.4-10.6-11.6-16.1,1.4-4.3,14.6,3,18.1,4.1-3.6-2.8-11.8-6.5-13.2-8.6,0-1.7-.2-1,.9-2.2l1.5.2.6-.6c20,5.2,41.2,11.5,61.9,13,7.6.5,16.4-1.7,23-5.5,3,1.1,3.7,8.8,4.3,11,2.6,11.5,4,25.3,1.1,36.8-2,8.2-9.9,17.6-16.6,22.4h49.8c8.7,0,17.7-.3,26.3.5,9.3.9,13.3,17.3,7.2,23.3-3.2,3.1-12.4,2-16.7,1.8v14.8c-9.7.6-23.4.3-33.3.3,1.3,7.7,3.7,15.1,5.8,22.5,7.6,26.7,14.4,53.5,22.4,80.1.6,2.1,1.1,4.3,1.8,6.3,7.3.7,7.3.3,9.3,7.5,9,.2,18.1.9,27,2.1,6,.6,14.7,1.5,20.3,3.3-6.6,2-13.4,3-20.3,3.2-2,.6-8.1.9-10.3,1.1-9.5.6-19.1,1.2-28.6,1.7-83.1,5-171.4,5.8-254.8,6-92.9.7-185.8-.3-278.6-3.1-27.8-.8-55.6-2.3-83.4-4.3-9.9-.7-32.8-1.7-41.6-4.4,10.7-3.4,33.6-3.7,45.6-4.9.1-2.6,0-4.9,1.9-6.8,1.9-.9,4-.6,6.2-.6V5.8ZM197.2,94.7c-.8,3.2-.6,18.2-.6,22.7v69.9c.1,0,0,250.2,0,250.2l.7-.2c5.6-1.5,17.3-1.3,19.8-4.9l.2-2.1c-.3-.4-2.8-48.1-3.2-53.4l-11.4-199.1-3.2-53.6c-.5-7.3-1.6-15.5-1.7-22.6,0-2.8,0-4.2-.6-6.9ZM85.4,661.2h16.3c-.2-2.8-.4-4.9-.1-7.7-11.4-1.2-11.5-1.5-10-13.4.5-1.4.6-2,.8-3.4-2-4.1-1.7-7.6-.9-11.8l1-3.1c-2.3-3-2-9.4-.3-12.6v-2.9c-1.3-3-1.6-9.2,0-12.2l.4-2.6c-1.1-4.3-2.3-8.9-.3-13.1l.7-2.4c-2.4-2.9-2.1-9.5-.8-12.9l.4-1.7c-1.6-5.3-2-8.1-.4-13.6l.8-2.7c-2-3-2.4-9.1-.8-12.3.6-1.3.5-1.8.8-3.1-2-3.1-2.5-9.8.2-12.7l.2-2.3c-2.9-2.3-2-9.3-1.9-12.9,4.2-.7,9.9.2,13.6-1.1,1.1-2.4.5-96.2.2-103.4-3.6-.4-9.6-.4-13.5-.6-.9-4.8-2.2-10.4,1.5-14.2v-.6c-3.5-2.7-2.5-7.6-2.3-11.7,4.4-.4,7.3-.5,11.6-.5,0-3.8-.5-18.2.8-20.5l2-.9c.5-1.6.3-16.8.3-19.3v-48s-.4-251.1-.4-251.1c-6.8-.2-13-.1-19.7,0v385s-.4,164.3-.4,164.3v49.5c0,10.3-.3,22.2.4,32.4ZM152.2,347.4l3.8,2.3c.3,6,.4,14.2.2,20.2,10.8-.4,13.2.7,10.2,12.1l-.2.7c.2.9.4,1.8.6,2.7.8,3.8.3,8-.2,11.8-4.6,0-9.4,0-13.9-.2-.1,23.1-.2,46.2,0,69.3,0,6.4-.5,29.8.7,34.7,3,0,11.1-.9,12.9,1.5,2.5,3.3,1.6,9.2-.9,12.4l.5,2.3c2.3,2.9,1.4,9.7-.3,12.7l.2,2.5c2.3,3,1.6,9.7,0,12.9l.3,2.3c1.8,4.7,2.4,8.7-.8,12.9l.5,2.2c2.8,3.3,1.8,9.5-.3,13l.7,2.9c1.5,4.3,1.7,8.3,0,12.6l-.7,2.4c3.4,4.2,2.1,8.7.5,13.4l.4,2.4c2.6,5.2.6,8.4-.2,13.3v2c1.4,3.9,2.2,8.6.2,12.5l.4,2.8c3.2,10.4,1.1,13.1-9,13.1v8.5c5.7-.2,10.5,0,16.1.2-1.1-82.3-.3-166.3-.3-248.8V78.5c-9.6-1.6-12.8-3.2-20.5-8.9-.5,18.3,0,37.7-.1,56.1l-.3,221.6ZM640.2,679.8l-57.8.3-346.3.7h-104.5c-15.2,0-31.1-.3-46.2,0-.1,3.3-.7,10.1,1.1,12.7,4,1.1,4.5-3,5.9,5.6,18-1.5,41.5-1.7,59.8-2,34.2-1.3,70.5-1.3,104.8-1.7,79.1-.8,158.2-.7,237.3.3l108.2,1.9c7.7,0,27.1,1.7,33.2,1,2.5-4.4,3.7-3.7,8.6-4.6-1.5-4.7-2.9-9.4-4.1-14.1ZM294.6,661.8c-2.2-4.2-4.1-7.6-6.5-11.6-4.8-6.5-9.3-16.1-14.3-21.2-4,3.4-8.1,7.7-13.6,7.2-9.5-.9-15-15.6-5.8-21.2,2.2-1.4,6.5-3.9,7.7-5.6.1-1.1.2-2.1-.4-3.1-14.2-22.6-27.7-45.7-42.9-67.7-5.6-8.1-13.4-10.7-22.3-13.9-.9,45.2-.2,92.1-.3,137.5h65.7c8.9,0,24.2.4,32.7-.4ZM127.1,30.3c-3.4-.7-10.1-.3-13.7-.1l.2,215.2c0,9.5-.9,99.2.6,103.1,1.2.8,2.3,1.1,2.4,2.6.6,6,0,13.1.2,19.1,2.7-.2,5.2-.3,7.9-.6-.1-5.7-1-11.2,2.7-15.6-.7-12.3-.3-29.2-.3-41.9l-.2-82.2c-.2-44.1-.2-88.3.2-132.4,0-21.8-.6-45.7,0-67.3ZM131.5,354.1c3.8,3.8,2.5,10.5,2.5,15.7h7.9c0-6.2-.1-12.8.5-18.9.3-3.1,2.8-1.4,2.8-4.5-.2-16.4-.1-32.9,0-49.3l.2-100.6-.2-99.6c0-16.3-.3-33.4.4-49.7.2-5.8,4.3-12.3,7.2-17.3-5.5,0-15.9-.4-21.1.2-.5,73-.7,146-.4,219v65.8c.1,11.2.8,28.5.2,39.3ZM172.2,45c-5.6,3.4-4.3,9.2,1.4,9.6.3,0,.5,0,.8,0,6.7-3.8,4.9-9.6-2.2-9.6ZM139.8,652.8c-7,0-14.6,0-21.5.3.5,2.7.2,5.2,0,8,7.1-.1,14.3-.1,21.4,0,.2-2.8.1-5.5,0-8.3ZM144.9,442.2c0-14.9-.2-30.2,0-44.9-2.5-.4-8.3-1.2-10.6.4-.9.6-1,3.5-1,4.7,0,17.3.5,34.7.3,52,0,1.7-.8,3.9-2,5.2-2,1-6.4.7-6.6-1.6-1.8-19.9.5-40.9-.7-60.8-2.8-.2-5.1-.4-8-.2-.9.4-2.4.8-2.5,1.8-.4,10.8-.2,23.9-.1,34.6v43.5c0,7.2-.2,17.5.4,24.5,10.3,0,20.7,0,31-.3,0-19.1.4-40.1-.4-58.9Z"/>
  <path fill-opacity="0" d="M196.6,437.6v-250.2c.1,0,0-69.9,0-69.9,0-4.5-.2-19.4.6-22.7.6,2.8.6,4.2.6,6.9.1,7.1,1.3,15.3,1.7,22.6l3.2,53.6,11.4,199.1c.4,5.3,2.9,53,3.2,53.4l-.2,2.1c-2.6,3.6-14.2,3.5-19.8,4.9l-.7.2Z"/>
  <path fill="#9dbd47" d="M201.8,90.5c1.1,11.2,1.4,27,2,38.7l3.6,58.1,9.9,173.4c.9,15,1.7,30,2.4,45,.2,3.9.2,20.6,1,22.9-1.3,1.1-1.2,1-2.9,1.3l-.4.4c-.3-.4-2.8-48.1-3.2-53.4l-11.4-199.1-3.2-53.6c-.5-7.3-1.6-15.5-1.7-22.6l.9,1.8c0,2.8.8,10.8,1.1,14.1.6,7.7,1.1,15.4,1.5,23.1l.7-.3.4.3c.3,2.7-.6,5.1-.4,7.9.8,20,2.5,40,3.3,60,0,1.2.3,2.5,1.2,3.3,1.9-2-.5-30.8-.8-35.8l-3.1-53.5-1.2-18.1c-.4-5.3-1.3-8.9.5-14.1Z"/>
  <path fill="#9dbd47" d="M261.8,461.8c2.9.2,24.8-3.9,28.7-4.6,21.8-4.1,43.6-8.1,65.5-12,8.2-1.5,18.3-4.2,26.2-5.2-.6,2.1-1.1,2.3-.4,3.9l.3.2c-5.4,2.2-24.7,4.9-31.6,6.2l-49.4,9c-13.3,2.4-25.6,4.9-39,6.8.6-.4,2-1.6,2.6-1.6,4.9-.5,10.2-1.4,15-2.2l45.6-7.9,38.6-7.3c5.3-1,10.7-2.5,16.1-3,.5-1.2.3-.6,0-2.2-2.3-.6-9.2,1.6-12.5,2.2-9.2,1.6-18.7,4-28.1,4.7-.9,0-2.9,2.5-3.7,2.6-2.2.2-4.4-.9-6.6-.5-6,2-12.1,2.4-18.3,3.6-8.8,1.7-17.6,3.4-26.4,5-6.6,1.2-13.3,1.8-19.8,3.3-1.8.4-.6.8-3.2.4l-.4-.8.6-.5Z"/>
  <path fill="#9dbd47" d="M704.9,702.9c6,.6,14.7,1.5,20.3,3.3-6.6,2-13.4,3-20.3,3.2,4.2-2.3,8.9-1.1,11.5-2.2v-.8c-3.1-3.5-8.2-.4-11.4-3.4Z"/>
  <path fill="#b1e733" d="M197.2,94.7l-.6-.7c-.2-2.7-.8-6.7.6-8.9,1,2.4,1.6,15.2,1.4,18.3l-.9-1.8c0-2.8,0-4.2-.6-6.9Z"/>
  <path fill="#94d305" d="M93.4,514.9c19.5-1,39.9.4,59.5-.2,3.8-.1,8.6-.1,12.4.2l.5,2.3c2.3,2.9,1.4,9.7-.3,12.7l.2,2.5c2.3,3,1.6,9.7,0,12.9l.3,2.3c1.8,4.7,2.4,8.7-.8,12.9l.5,2.2c2.8,3.3,1.8,9.5-.3,13l.7,2.9c1.5,4.3,1.7,8.3,0,12.6l-.7,2.4c3.4,4.2,2.1,8.7.5,13.4l.4,2.4c2.6,5.2.6,8.4-.2,13.3v2c1.4,3.9,2.2,8.6.2,12.5l.4,2.8c-5.7-.3-11.5-.1-17.2,0-19.2.3-38.4,0-57.7.4.5-1.4.6-2,.8-3.4-2-4.1-1.7-7.6-.9-11.8l1-3.1c-2.3-3-2-9.4-.3-12.6v-2.9c-1.3-3-1.6-9.2,0-12.2l.4-2.6c-1.1-4.3-2.3-8.9-.3-13.1l.7-2.4c-2.4-2.9-2.1-9.5-.8-12.9l.4-1.7c-1.6-5.3-2-8.1-.4-13.6l.8-2.7c-2-3-2.4-9.1-.8-12.3.6-1.3.5-1.8.8-3.1-2-3.1-2.5-9.8.2-12.7l.2-2.3Z"/>
  <path fill="#94d305" d="M93.4,514.9c19.5-1,39.9.4,59.5-.2,3.8-.1,8.6-.1,12.4.2l.5,2.3c2.3,2.9,1.4,9.7-.3,12.7l.2,2.5c2.3,3,1.6,9.7,0,12.9l.3,2.3c1.8,4.7,2.4,8.7-.8,12.9l.5,2.2c2.8,3.3,1.8,9.5-.3,13-16-.4-32.8,0-48.8.1-5.3,0-19-.3-23.5.2-2.4-2.9-2.1-9.5-.8-12.9l.4-1.7c-1.6-5.3-2-8.1-.4-13.6l.8-2.7c-2-3-2.4-9.1-.8-12.3.6-1.3.5-1.8.8-3.1-2-3.1-2.5-9.8.2-12.7l.2-2.3Z"/>
  <path fill="#94d305" d="M93.4,514.9c19.5-1,39.9.4,59.5-.2,3.8-.1,8.6-.1,12.4.2l.5,2.3c2.3,2.9,1.4,9.7-.3,12.7l.2,2.5c2.3,3,1.6,9.7,0,12.9-22.5-.3-50.4-.8-72.7,0-2-3-2.4-9.1-.8-12.3.6-1.3.5-1.8.8-3.1-2-3.1-2.5-9.8.2-12.7l.2-2.3Z"/>
  <path fill="#94d305" d="M93.4,514.9c19.5-1,39.9.4,59.5-.2,3.8-.1,8.6-.1,12.4.2l.5,2.3c2.3,2.9,1.4,9.7-.3,12.7-16.4-.8-34.3.5-50.9,0-6.5-.2-15.2-.4-21.6,0-2-3.1-2.5-9.8.2-12.7l.2-2.3Z"/>
  <path fill="#dafc72" d="M93.4,514.9c19.5-1,39.9.4,59.5-.2,3.8-.1,8.6-.1,12.4.2l.5,2.3c-24.2-.1-48.4-.1-72.6,0l.2-2.3Z"/>
  <path fill="#dafc72" d="M92.9,529.8c6.4-.4,15.1-.2,21.6,0,16.6.5,34.4-.8,50.9,0l.2,2.5h-46.9c-6.1,0-21.1-.2-26.6.6.6-1.3.5-1.8.8-3.1Z"/>
  <path fill="#94d305" d="M92.9,545.2c22.3-.8,50.2-.2,72.7,0l.3,2.3c1.8,4.7,2.4,8.7-.8,12.9-23-1-48.5.2-71.8-.2-.8.7-.6.3-.8,1.1-1.6-5.3-2-8.1-.4-13.6l.8-2.7Z"/>
  <path fill="#dafc72" d="M92.9,545.2c22.3-.8,50.2-.2,72.7,0l.3,2.3c-3.4-.2-7.7-.2-11.2,0-20.6.9-42.1-.7-62.5.3l.8-2.7Z"/>
  <path fill="#dafc72" d="M92.6,561.5c.2-.8,0-.4.8-1.1,23.2.4,48.8-.8,71.8.2l.5,2.2c-13.3.2-26.6.3-39.9.2-10.8,0-22.9-.4-33.6.2l.4-1.7Z"/>
  <path fill="#94d305" d="M92.6,621.9h43.4c4.9,0,28-.8,29.9.6v2c1.4,3.9,2.2,8.6.2,12.5l.4,2.8c-5.7-.3-11.5-.1-17.2,0-19.2.3-38.4,0-57.7.4.5-1.4.6-2,.8-3.4-2-4.1-1.7-7.6-.9-11.8l1-3.1Z"/>
  <path fill="#dafc72" d="M92.4,636.8c20,.2,39.8.1,59.8,0,2.8,0,11.7-.3,13.8.2l.4,2.8c-5.7-.3-11.5-.1-17.2,0-19.2.3-38.4,0-57.7.4.5-1.4.6-2,.8-3.4Z"/>
  <path fill="#dafc72" d="M92.6,621.9h43.4c4.9,0,28-.8,29.9.6v2c-10.7-.7-27.8,0-38.8,0-8.7,0-27.7-.4-35.6.5l1-3.1Z"/>
  <path fill="#94d305" d="M93,576c4.5-.5,18.2-.2,23.5-.2,16.1,0,32.8-.5,48.8-.1l.7,2.9c1.5,4.3,1.7,8.3,0,12.6l-.7,2.4c-5.7.4-13.5.2-19.4.3h-31.6c-6.6,0-15.7-.2-22.1.4l.4-2.6c-1.1-4.3-2.3-8.9-.3-13.1l.7-2.4Z"/>
  <path fill="#dafc72" d="M93,576c4.5-.5,18.2-.2,23.5-.2,16.1,0,32.8-.5,48.8-.1l.7,2.9c-5.2-.4-11.1-.3-16.4-.2-19.1.2-38.3-.3-57.3.2l.7-2.4Z"/>
  <path fill="#dafc72" d="M92.5,591.6c1.2-.7,66.7-.5,73.4-.5l-.7,2.4c-5.7.4-13.5.2-19.4.3h-31.6c-6.6,0-15.7-.2-22.1.4l.4-2.6Z"/>
  <path fill="#94d305" d="M165.2,593.5c3.4,4.2,2.1,8.7.5,13.4-2.2-1-66-.5-73.4-.5-1.4-3-1.7-9.2-.2-12.2,6.4-.7,15.5-.4,22.1-.4h31.6c5.9-.1,13.6,0,19.4-.4Z"/>
  <path fill="#dafc72" d="M92.3,606.3c7.4,0,71.2-.5,73.4.5l.4,2.4c-3.2-.2-6.4-.3-9.6-.2-21.4.4-42.9-.2-64.3.2v-2.9Z"/>
  <path fill-opacity="0" d="M633.7,692.8l.5.3c.6,1.5,1,2,.5,3.5l-1.3.3v-1c-.3-.4-.6-.9-.9-1.3l1.2-1.8Z"/>
  <path fill="#9dbd47" d="M127.1,30.3c2.1.4,2.4.2,4.6-.3-.5,73-.7,146-.4,219v65.8c.1,11.2.8,28.5.2,39.3-1.8-.3-2.2-.2-4,0-.7-12.3-.3-29.2-.3-41.9l-.2-82.2c-.2-44.1-.2-88.3.2-132.4,0-21.8-.6-45.7,0-67.3Z"/>
  <path fill="#dafc72" d="M237.2,449.5c-1.3-1.8-.9-4.3.9-5.7,1.8-1.4,4.3-1.2,5.8.5,1.5,1.7,1.4,4.2-.2,5.8v.2c-1.3,2.5-3,3.6-5.8,2.7-1-1.5-.7-1.2-.7-3.4Z"/>
  <path fill="#b1e733" d="M237.2,449.5c.7,1,1.8,1.7,3.1,1.8,1.3.1,2.5-.3,3.4-1.2v.2c-1.3,2.5-3,3.6-5.8,2.7-1-1.5-.7-1.2-.7-3.4Z"/>
  <path fill="#b1e733" d="M132.4,383l-.5-.6c1.8-.9,29.7-.5,34.5-.5l-.2.7-.7.8c-8,.2-23.5.4-31.1-.3l-2-.2Z"/>
  <path fill="#b1e733" d="M93.2,382.1c4.1,0,30.4-.4,31.7.4v.3c-3.7.8-10.1.9-14,.8-3.6-.1-15.4.7-17.8-.9v-.6Z"/>
  <path fill="#94d305" d="M451.9,479.2h0c.7,1.2-1.7,19.8-1.5,23.4,1,16.5,5.9,25,9.9,39.8-7.9-1.1-16.3-4.9-24.1-7.1-7.8-2.1-11.8-2.2-19.8-2.5,2.9,1,5.4.6,6.6,3.7,0,2.4-3.1,9.6-4.1,12.4-4.5,12.7-11.7,23.9-24.1,30-5.2,2.6-11.8,5.1-16.6,8.2-10.3,6.6-19.9,15.3-28.3,24.2-2.5,2.7-10.5,10.7-11.9,13.5.9,1.2,1,1.3,1.3,2.9-2.4,6.5-15.1,20.1-20,26-10.6-6.2-15.9-12.1-21.8-23.1-3-5.5-3.4-7.7-8-12-5.9-4.7-10.6-9.1-14.6-15.5-3.7-6-10.2-24.3-8.1-31,.4-1.2,1.3-2.2,2.5-2.7,9.4-4.1,11.6,7.6,15.9,11.4,5.7,4.9,20.8,10.7,27.8,13.5,2.8-1.8,6-5.3,9.3-4.8,1.3,2.2-.8,8.7-1.5,12.2,3.5-7.8,7.4-9.7,13.3-15.5,13.6-13.4,21.1-30.6,32.4-45.9,6.5-8.8,13.5-15.6,20.3-24.3,5.2-6.6,9.2-19.8,17.4-24,13.3-4.1,33.8-11.7,47.4-12.8ZM374.2,569.2c6.9-10.8,13.6-21.3,21.4-31.5.4-.5.8-1.2.8-1.9-5,5.3-23.1,27.3-22.2,33.4ZM445.2,524c-8.4-4-16.3-5.9-25.7-4.8,5.8,1.1,20.7,4.4,25.7,4.8ZM322.5,612.5c3.2,17.3,19.3-9,23.8-13.6v-.8c-4.9,4.4-14,16.2-17.8,17.2-3.7-.6-4.3-3.5-5.5-6.7-.5,1.6-.4,2.3-.4,3.9ZM402.4,507.9c2.8-2.3,5.2-4.6,7-7.8,0-.9.1-.6-.3-1-2.7,2.4-5.3,5-7,8.2l.3.7Z"/>
  <path fill-opacity="0" d="M346.3,598v.8c-4.5,4.7-20.6,31-23.8,13.6,0-1.6,0-2.3.4-3.9,1.2,3.2,1.8,6.1,5.5,6.7,3.9-1.1,12.9-12.8,17.9-17.2Z"/>
  <path fill-opacity="0" d="M396.4,535.8c0,.7-.4,1.4-.8,1.9-7.7,10.2-14.4,20.7-21.4,31.5-.9-6.1,17.2-28.1,22.2-33.4Z"/>
  <path fill-opacity="0" d="M409.1,499c.4.4.2.1.3,1-1.8,3.2-4.2,5.5-7,7.8l-.3-.7c1.7-3.2,4.3-5.8,7-8.2Z"/>
  <path fill="#94d305" d="M275.3,545.7c8.5,1.2,13.7,14.2,19.7,21.6l.4.5c16.4,0,32.7,0,49.1-.2-3.3,5.3-6.6,9.4-10.6,14.1-6.4,5.6-5.7,2.8-14.5,3-17.2,14.5-54.8-26.7-48.8-37.6,1.5-1.3,2.9-1.2,4.8-1.5Z"/>
  <path fill="#94d305" d="M427.9,537.2c4,.3,15.7,2.6,18.6,5.2,1.8,5-7.8,19.4-11.9,22.7-6.4.6-12.8.6-19.2.6,2.6-5.5,5.1-11,7.5-16.6,1.6-3.7,2.9-8.4,4.9-11.8Z"/>
  <path fill="#94d305" d="M260.6,549.5c6.7,0,10.1,10.4,12.8,15.8-3.7.7-5.1.8-8,3.1-1.2,1.1-1.2,1.2-2.7,1.9-2.3-1.5-8-12.8-8.8-15.8,2.8-2.7,3.4-3.1,6.7-5.1Z"/>
  <path fill="#94d305" d="M540.2,206.4c9.7-8.6,24.8-14,38.3-13.4,20.3.9,34.3,20.9,32.1,40.3-1.5,13.2-7.4,24.3-.7,37.7,4,9,5.8,13.9,15.2,19.3,11.7,6.7,13.3,13.6,16.2,25.9,1.9-1.4,2.3-.8,4.4.2-.6-2.8-5.1-4.2-4.7-8.3l.6-.5c7.6.5,14.8,10.3,17.7,16.8l.4.8c3.1,7,2.3,16.1,2.2,23.7,11.9,20.6,11.2,27.8,10.1,50.8-.5,10,2.2,18.6-1,29.5-1.8,1.9-2.5,2.6-4.6,4.2-14.2.4-23.7,7.1-37.9,5.5-9.2-1-10.3-.5-6.3-9.9,2.8-5.2,9.5-19.4,13.7-22.4,2.9-.2,6.3,3,8.8,4.9-2.4-3.9-4.2-5.7-7.5-8.9,9.9-21.4,22.1-34,17.4-60.5-.3,7.3-2.2,24.2-7.1,29.7-1.6.8-2.2.7-4.1.7h-.7c.5,1.6,2.1.7,3.4,3.5-2.1,10.7-12.6,26.1-18.2,35.7-3.4,5.9-6.6,12-9.4,18.3-4.9,15.1-5.6,20.6-4.1,36.8.3,3,1.4,5.1-1.3,6.2-18.2,7.7-53.5-1.6-70.8-7.6-1.2-.4-2.4-.8-3.6-1.3l-.3-.7c1.3-4.9,1.6-7.4,2.3-12.5,7.4-1.4,20.6-6.5,28.2-9,1.4-.4,4.4-4.2,5.3-5.5,5.5-7.9,5.5-16.3,7.4-25.2.6-2.7,4.8-9.6,6-13.5,6.5-21.2,3.3-31.7-.7-51.4,2.5-2.7,7.6-6.6,5.9-11.1-3.8,6.4-4.3,6.4-9.7,11.4,5.2,21.2,7.9,35.5-.8,57.3-.5,1.2-.9,2.2-1.9,2.5-.7-1.7-.7-5.3-.7-7.4-.5.2-.8,2.6-.8,3.3-2.8,21.9.6,35.5-24.8,41.5-16.2,3.8-25.7,6.1-42.5-.3-3.3-1.3-10-2.7-13.8-2.8-6.9.6-12.6,5.6-20.7,5.6-2.6,0-10-.3-11.6-3-3.8-6.6-6.4-20.3-5.9-28,.2-2.6,1.6-3.6,3.3-4.9,1.6-1.4,3.4-2.3,5.2-3.3,2.1,1.6,7.5.3,10.1-.1l3.3-1.7.6-1c4.6-.6,9.9,6.9,12.7,10.2,5.8,0,10.3,0,16-.8,4.7-.8,6.4-2.3,10.4-4.7,6.8-4.9,13.2-8.4,21.6-9.7-1.2-1.3-3.1-3.5-4.6-4-1,.7-1.5,1.1-2.7,1.5-.5-.7-.5-.5-.7-1.2-4.7-14.8-5-24.2,1.5-38.3,2.7,2.9,5.4,5.7,8.1,8.7l-.8-2.3c-1.9-5.8-6.5-11.3-8.9-17.7-3.8-10.1-3.9-20.1.7-30,5.8-12.5,11.6-11.4,21.1-15l.6-.2c1.4.1,2.9,0,4,.9-3.4,2.4-5.9,2.6-9.7,6.6-3,3.2-5.8,8.4-5.8,12.9,1.7-1.2,3.2-8.8,7.8-12.1,5.3-3.8,9.2-3.3,14.5-6.4.1-.8.5-3.7,1-4.3,4-4.7,10.2-6.9,14.4-11.4,1.6-1.8,3.1-6.1,2.2-8.3-1.6,5.6-2.2,7.4-7.6,10.3-2.5,1.4-5.7,3.9-8.5,4.7-2.2-3.4,1.6-24.1,2.4-29.6h-.3c-2.7,8.9-3.3,15.6-4,24.8-2,.5-3.9.9-5.9,1.3-20.6,4.2-12.1-7.4-20.1-21.7-2-3.5-2.6,0-5.6-2.1-2.5-3.7,1.5-11.3,2.2-14.9.9-4.5-1.4-7.1-3.9-10.4.1-4.6,1.5-11.1,1.1-15.4-1.1-12.3-5.2-11.1,5.1-19.3ZM599.8,446.1c-.1,7.7,1.3,12.8,3,20.2-1-13.9-.5-26.4,3.2-39.5,10-35,30.5-67.5,18.5-105.4-1.2-3.8-2.5-11.7-5.5-14.5,1.7,4.7,2.7,11.9,3.4,17,4.2,29.1-.4,58.7-13.2,85.1-4.4,9.3-13.6,19.8-21.1,26.9,8.1-3.2,8-6.6,14-10.8-1.8,7.8-2.7,12.9-2.5,21ZM607.4,362.2c5.2-6.9,5.3-12.4,4.5-20.8-.3-3.3-2.3-9.7-4.6-12,2.7,11.2,5.1,22.3-1.1,32.6l.2.4.9-.2ZM637.1,365.4c6-9.5,8.4-14.5,6.1-26.7-.2-1.2-.4-1.4-1.1-2-.1,8.2-.2,14.8-3.5,22.5-.5,1.2-2.5,5.6-2.2,6.5l.7-.3ZM554.1,366.3c-6.2,7.8-7.1,14.5-3.9,23.7.4-3-.5-5.7-.3-8.9.3-3.5,4.3-12,4.2-14.8ZM593.3,313.6c2.1,2.1,13.4,8.9,16.1,10.1-2.8-6-9.8-9.4-16.1-10.1ZM519.6,438.8c4.9.1,20.5,0,23.9-4.2h-.9c-7.7,2-15.8,2.9-23.8,3.3-.8,0-.4,0-1,.2l1.7.7ZM583.2,451.4c.8,2.4,4.1,12.3,5.4,14-.7-3.1-2.9-12.2-5.4-14ZM567.3,394.6c2.6-2.1,5.1-4.3,7.7-6.4.3-1.2,1.1-3.8.6-4.5-2.6,2.6-5.5,5.2-8.2,7.6-5.2,4.8-5.2,10.8-6.2,17.8,1.6-5.3,2.5-10.1,6.1-14.4ZM609.1,371.7c-6.7,4.2-7.1,2.6-12.4,4.9v1c4.3-.6,9.1-.9,12-4.4l.4-1.5ZM574.4,347.3c-2.3,1.3-13.6,8.5-15,10.1l.3.6c3-1.5,13.8-7.6,14.9-10.4l-.3-.3ZM667.2,379.9c-1.2,4.1-3.4,12-4,16.3h.2c2.4-4.6,5.9-11.1,3.8-16.3Z"/>
  <path fill="#dafc72" d="M481.3,405.2c-.1,1.1,0,1.9-.7,2.2-3.8,1.9-13.9,2.6-18,2.9,1.6-1.4,3.4-2.3,5.2-3.3,2.1,1.6,7.5.3,10.1-.1l3.3-1.7Z"/>
  <path fill="#b1e733" d="M510.7,413.6c4.7-.8,6.4-2.3,10.4-4.7.1,1.7.7,2.8-.6,4.1-2.3,2.3-7.3,3.3-9.8.6Z"/>
  <path fill-opacity="0" d="M607.3,329.3c2.3,2.4,4.3,8.7,4.6,12,.8,8.5.7,14-4.5,20.8l-.9.2-.2-.4c6.2-10.4,3.8-21.4,1.1-32.6Z"/>
  <path fill-opacity="0" d="M542.7,434.5h.9c-3.5,4.4-19,4.4-23.9,4.3l-1.7-.7c.5-.2.2-.1,1-.2,7.9-.4,16.1-1.3,23.8-3.5Z"/>
  <path fill="#dafc72" d="M574.4,347.3l.3.3c-1.1,2.8-11.9,8.9-14.9,10.4l-.3-.6c1.4-1.6,12.8-8.8,15-10.1Z"/>
  <path fill-opacity="0" d="M561.2,409c1-6.9,1-13,6.2-17.8,0,1.2.2,2.2,0,3.3-3.6,4.3-4.5,9.1-6.1,14.4Z"/>
  <path fill-opacity="0" d="M609.1,371.7l-.4,1.5c-2.9,3.5-7.8,3.8-12.1,4.4v-1c5.4-2.3,5.8-.7,12.5-4.9Z"/>
  <path fill-opacity="0" d="M583.2,451.4c2.5,1.8,4.8,10.9,5.4,14-1.3-1.7-4.6-11.6-5.4-14Z"/>
  <path fill="#b1e733" d="M541.9,371.6l.3.3c.3,1.3-2.3,6.8-3,8.8l-.7-.9c.4-3.5,1.5-5.3,3.4-8.3Z"/>
  <path fill="#94d305" d="M465.3,395c1.6-2.9,2.9-4.8,6.2-5.8,7.1.9,6.4,12.2,6.5,17.6-2.6.4-8,1.8-10.1.1l-.6-5.4c-4.4,1.3-18.2,4.6-19.7,8.4-1.9,4.5-4.7,17.9-2.6,22.4,2.2,4.7,6.1,15.8,9.6,19.1,4.7,1.5,14.8.8,20.4,1.4l.6-5.1c2.4-.3,5.6-.9,7.8-.3,3.8,3.2,4.3,13.6-1.8,14.6-2,.4-6.5-2.8-8.8-2.7-8.4-1.8-19.4,2.8-26.2-3.7-3.6-3.5-5.6-15.3-10.2-14.8-7.6.7-6,.6-12.1-3-4.6-2.7-13.2,5.3-17.5,7.7h-5.7c-6.9,5.7-10.7,5-17.6-.6-.6-.5-.6-.4-1.4-.8l-.3-.2c-.7-1.6-.2-1.8.4-3.9,2-1,2.6-3.8,3.4-6,1.6-1.1,4.3-2.9,6.3-2.8,7.6.4,13.4-1.7,19.5,3.4,4-1.1,8-2.1,12-2.9,4-6.6,4.2-6.1,11.9-8.1,2.1-5.7,2.6-13.1,5.3-18.3,3-5.5,18.1-8.7,24.6-10.4Z"/>
  <path fill="#94d305" d="M530.7,323.3c-1.7,16.3-1.3,15.6,4.1,32-3.1,5.6-4.3,8.5-6.2,14.6-1.6.4-1.9.3-3.1,1.4v1c-.6.3-1.9,1.3-2.2,1.5-3.7,1.7-6.7-8.5-7.1-10.6-2.9-14.1,7.2-28.7,14.6-39.9Z"/>
  <path fill="#dafc72" d="M557.1,300.8c.6-1.3.6-1.2,1.8-1.9,1.9.3,3,.9,4.8,1.3,1.9-1,4.4-4.2,4.1-6.5-3.2-4.5-13.9,1.6-19.1-1.1-3.8-2-5.9-4-3.9-8.3l.3-.6c-.7-1.7-.1-1-2.1-1.9l-.2-1,1-1c.1-1.3.2-.7-.6-1.8h-1.8c-.5-1.1-.5-.5-.2-1.6l1.5-.2c.4-1.8-3.2-2.3-3.7-7-2.2-.4-3.7-.5-5.5-1.7-.6-1.7-.2-1.7.2-3.7l-1.2-.5c-.2-1,1.2-7,1.7-8.1,1.8-4.6.2-4.1,0-7l.5-.4,1.6,1.4c1.2-2-3.1-4.4-3.8-6.5-1.5-4.6,1.5-9.6,1.6-14.2.5-3.2-2.3-6.6-2.4-9.4-.1-6,.9-13.6,8.5-12.5-10.4,8.2-6.2,7.1-5.1,19.3.4,4.3-1,10.8-1.1,15.4,2.5,3.3,4.7,5.9,3.9,10.4-.7,3.6-4.6,11.2-2.2,14.9,3.1,2,3.7-1.4,5.6,2.1,8.1,14.3-.5,25.9,20.1,21.7,2-.4,3.9-.8,5.9-1.3.7-9.3,1.3-15.9,4-24.8h.3c-.8,5.5-4.6,26.1-2.4,29.5,2.8-.9,5.9-3.4,8.5-4.7,5.4-2.9,6-4.7,7.6-10.3,1,2.2-.5,6.5-2.2,8.3-4.1,4.5-10.4,6.8-14.4,11.4-.5.5-.9,3.4-1,4.3-5.3,3.1-9.1,2.5-14.5,6.4-4.5,3.3-6.1,10.9-7.8,12.1,0-4.5,2.8-9.6,5.8-12.9,3.7-4,6.2-4.2,9.7-6.6-1.1-.8-2.5-.8-4-.9Z"/>
  <path fill-opacity="0" d="M654.6,342c4.7,26.5-7.5,39.2-17.4,60.5,3.2,3.2,5,5,7.5,8.9-2.5-1.9-5.9-5.2-8.8-4.9-4.2,3-10.9,17.2-13.7,22.4-1.1.9-1.3,1.1-2.6,1.7l-1.1-.8c2.9-6.2,6-12.3,9.4-18.3,5.6-9.6,16.1-25,18.2-35.7-1.3-2.8-2.9-1.9-3.4-3.5h.7c1.9,0,2.5.1,4.1-.7,4.9-5.5,6.8-22.4,7.1-29.7Z"/>
  <path fill="#94d305" d="M528.5,369.8c-.9,14.2-.8,14.7,4.7,28.1-1.9,1.3-3.8,2.8-5.9,3.9-2.1.8-2.4,1.3-4.3,0-1-1.6-1.1-4.4-1.4-6.4-.9-12.4.2-12.8,3.7-23.2v-1c1.3-1.1,1.6-1.1,3.2-1.4Z"/>
  <path fill="#94d305" d="M531,450.7c14.8-1.6,5.5,2.9,7.5,12.5l.3.7c-3.6,0-4.4-.2-7.2,1.9l-.6.6-1.5-.2c1.5-2.4.9-11.5,1.5-15.5Z"/>
</svg>