<?xml version="1.0" encoding="UTF-8"?>
<svg id="fixed_id_0"  xmlns="http://www.w3.org/2000/svg" version="1.1" xmlns:xlink="http://www.w3.org/1999/xlink" viewBox="0 0 729.9 691.5">
  <!-- Generator: Adobe Illustrator 29.3.1, SVG Export Plug-In . SVG Version: 2.1.0 Build 151)  -->
  <defs>
    
  </defs>
  <path fill="#98d707" d="M353.3,90.5c6-3.1,10-5.4,16.7-6.5,15.6-2.4,35.4,9.4,42.2-12.2,5.9-18.8-.9-37.8,14-53.7,14.9-16,31.1-16.5,50.5-10.1,16.2,5.4,21.2,16.2,35.7,22.2.6,2.6,1.3,5.1,1.9,7.7-2.1,4.7-8.3,12.4-9,14.1-4.8,13.3,3.3,16.6-9.2,27.6-.1,4.9,1.1,18-.3,21-2,1.2-4.6.9-7,.8-.1.2-.3.4-.4.6-5.7,5.9-8.2,23.7-16,25.5-6.4,1.5-16.3-7.3-20.8-5.7-.2,2.4-.2,3,.2,5.4,5.1,9.6,9.9,9.1,15.6,16.2,13,12.4,7.5,43.8-7.5,52.1h-.2c-3.7,1.9-5.8,3-3.6,7.4-5.4,9.8-8.5,18.5-16.9,26.6-6.9,6.7-19.5,5-22.9,12.2-1.9-.5-3.3,0-5.3.3-7.4,9.1-12.9,16.2-23.4,22-6.8,3.8-10.3,7.1-18.6,6.6,1.5,3.1,5.3,2,9,5.3-8.7-2.1-6.9-2.4-16.4-2.1,2.1,4.4,3.9,8.3,3.9,13.3l-1.5.2c-.1.4-.4,1.2-.5,1.7.2,3.5-.1,4.9-.7,8.3-4.9,2.7-7.6,4.7-13,6.2-2.5-1.2.2,1.5-4.5-1l-.4,1.2c-2.7,1.8-11.9,2.8-15.1,2.1-1.1-.2-1.3-.3-1.9-1.2-2.3-3.2-3.7-7.3-5.7-10.7-2.6-4.5-6.5-8.6-8.5-13.4-1.8-4.2-2.2-9.1-4.8-13-8.5-12.6-36-24.4-49.4-33.5-1.8-1.2-14.2-11.5-14.8-11.6-4.2-5.9-23.1-29.7-24.3-33.9-1.4-4.8,1.4-10.8,3.8-14.9,7.6-13.1,18.2-23,28.1-34.2,4.5-5.1,7.7-10.8,13.3-15,7.7-5.7,18.1-9.8,27.4-12.2,6.6-2.3,8-4.1,12.6-9.3.8-2,3.4-4.4,5.1-5.9,9.2-8.2,22.7-11.6,34.7-8,1.9.3,6.6,1.3,8.2,1.3Z"/>
  <path fill="#e0fd7a" d="M325.6,156.3c10.8,2.8,16.7,4.8,28,3,1.5.1,2.6,0,3.7,1-5.4,2.2-7.9,3.1-13.6,3.7,1.9,5.6,1.3,12.1,2.1,18,2.2,16.1,8.4,29.3,23.4,36.8,18.4,9.2,36,2.7,43.7-16.3,1.5-3.6,6.5-13.4,4.6-17l1.7-.8c3.4-3.2,1.9-13.5,3.4-18.7,1,5.8,1.4,13,0,18.8.4,1.3.3.9,1.1,2-4,5.2-7.3,16.8-11.1,23.6-4.4,5.8-6.2,10.3-13.2,13.4-13.9,6-28.6,1.8-40.1-7.1-17.7-13.7-16.8-33-20.3-52.4-11.8,14-23.8,24.8-43.2,26.5-.9,0-1.7.1-2.6.1,2.9,6.3,8.1,24,10.9,28.1,6.4,9.7,21.5,21.8,29.7,30.8,1.9,1.9,4.9,3.1,7,4,6.9,3.1,15.9,3.4,21.3,8.9.7.7.6.6,1.5.9h.2c6.4-2.7,20.7-12.4,22-19.5-.5-2,0-1.2-1.6-2.5-4.4-.8-24,.9-29.4,1.8-1.7.3-4,1.3-5.7,2.1l-.9-.7c2.9-1.8,5.2-3.3,8.2-4.9,9.5.5,22,.7,31.8,0,.6,0,2.6-1.2,3.2-1.6l1.1,1.3c-1.1,1.5-1.6,1.7-1.7,3.3,2.1.4,3.1-.2,4.4.7l-.3.9c-2.3.6-3.4.5-5.8.6-9.4,14.7-11.1,12.8-24.7,20.3.1,2.5-.2,1.9.9,3.8,1.6.8,1.9.8,3.6,1l.3.6c1.5,3.1,5.3,2,9,5.3-8.7-2.1-6.9-2.4-16.4-2.1,2.1,4.4,3.9,8.3,3.9,13.3l-1.5.2c-.1.4-.4,1.2-.5,1.7-2-9-5.8-12-8.1-18.7l.9-.7c.7-2.7,0-4.4-.6-7.1-3.6-1.2-19.8-5.7-22-7.5-4.7-3.8-32.2-30.6-33.7-34.6-4.9-12.7-6.9-26.5-16.2-37.1l-.4-.5c-1.7-2.2-7.3-8.1-7.6-9.7,9.7,5,7.7,6.7,14.1,13.5,16.9.4,30.9-6.8,41.4-19.9v-2c-1.3-2.4-2.2-3.3-2-6.1l-3.8-2.5Z"/>
  <path fill="#c3f344" d="M355.8,262.7c3,1.4,6.7,5.1,5.5,8.6-2,1.5-2.6.7-4.7-.3l-.7-.3-.4-.2.9-.7c.7-2.7,0-4.4-.6-7.1Z"/>
  <path fill="#c3f344" d="M329.4,158.8c1.7,1,3.7,2.1,5.3,3.3-1,1.5-2.2,3.5-3.3,4.8v-2c-1.3-2.4-2.2-3.3-2-6.1Z"/>
  <path fill="#e0fd7a" d="M413.5,232.9c14.1,4.7,26.9-8.2,33.3-19,9-15.1,9.8-25.9,11.3-42.7l.4,3c.6,4.5.5,19.4,1.2,21.4-3.7,1.8-5.8,2.8-3.6,7.3-5.4,9.8-8.5,18.5-16.9,26.6-6.9,6.7-19.5,5-22.9,12.2-1.9-.5-3.3,0-5.3.3.5-1.7,2.4-3.4,3.3-6.4-.2-1.2-.4-1.7-.8-2.8Z"/>
  <path fill="#e0fd7a" d="M345.1,89.2c1.9.3,6.6,1.3,8.2,1.3,8.5,4.6,10.7,10.2,18.8,15l.3,2c-2.4-1.1-4.2-1.4-6.7-1.9-2.8,8.8-4.9,11.7-12.4,17.1,16.1-19.4,10.3-24.3-12.7-22.3,8.1-4.9,11.4-2.5,15.5-4.1v-.8c-3.5-2.7-7.7-3.7-10.9-6.1Z"/>
  <path fill="#e0fd7a" d="M441.7,133.2c-2.9,1.7-4.6,3.4-7.6,5.1l-.2-.3c4.3-5.7,11.6-9.7,17.1-15.4l.7-.7c-.2,2.4-.2,3,.2,5.4l-.4.8c-2.8.5-5.3,4.5-6.9,6.8-1.2,1.7-2.3,3.4-3.4,5.1l-1.3-.9c.7-1.8,1.4-4.1,2-5.9Z"/>
  <path fill="#c3f344" d="M292.7,112.4c6.6-2.3,8-4.1,12.6-9.3-.8,4-4.5,10.7-6.1,14.9-1.8,4.6-3,8.6-4.4,13.3.9-8.8.1-10.5,3.7-19.3-1.7.2-4.2.5-5.9.4Z"/>
  <path fill="#c3f344" d="M424.5,186.3c-.6,3.3-.1,5.4-2.3,8.9-2,3.1-4.3,13.6-6.9,15.5.7-2.5,2.8-6.2,2.5-8-2.2,3.1-2.5,6.7-5.2,7.7,3.8-6.8,7.1-18.4,11.1-23.6l.8-.5Z"/>
  <path fill="#eef8a5" d="M451.8,127.2c5.1,9.6,9.9,9.1,15.6,16.2-4.1-1.7-4.7-4.6-10.7-6.7-.8.9-1.1,1.3-2.2,2-1.2-3.7-2.2-6.9-3.2-10.6l.4-.8Z"/>
  <path fill="#e0fd7a" d="M454.6,138.7c1.1-.7,1.3-1.1,2.2-2,.3,2.5,3.1,7.7,4.4,10.4-3.7-2.6-6.3-3.6-6.6-8.4Z"/>
  <path fill="#e0fd7a" d="M405.5,226.7c3.2,3.1,4.3,3.8,8,6.1.4,1.1.6,1.7.8,2.8-5-2.5-6.2-4.4-8.7-9Z"/>
  <path fill="#c3f344" d="M353.6,159.3c4.4-1.4,8.8-2.8,13.1-4.5-2.3,1.6-6.7,4.7-9.4,5.5-1-1-2.2-.9-3.7-1Z"/>
  <path fill="#c3f344" d="M417.4,185.5c-.5-.2-4.3-2.9-5.3-3.4l.2-1.3-.5,1.1v-1.2c.1,0-1-.2-1-.2,3.5.7,5.4,2.3,8.2,4.3l-1.7.8Z"/>
  <path fill="#c3f344" d="M422.6,184.8c3.2-.3,5.8-1.4,8.9-1.5-2.3,1.2-4.6,2-7,3l-.8.5c-.8-1.1-.7-.8-1.1-2Z"/>
  <path fill="#c3f344" d="M398.8,231.6c-2.1,3.5-3.3,5.1-6.3,7.9l-1.1-1.3c2.2-2.2,5-4.6,7.4-6.6Z"/>
  <path fill="#c3f344" d="M436.6,146c1-2.3,2-4.6,3.1-6.9l1.3.9c-1.3,2.2-2.8,4-4.4,6Z"/>
  <path fill="#c3f344" d="M372.1,105.5c2.5,2,3.7,3.1,5.9,5.4-1.4-.7-4.8-2.3-5.6-3.4l-.3-2Z"/>
  <path fill="#c3f344" d="M349.1,245.5c-1.3.8-3.3,2-4.8,1.9.8-1.3,2.4-1.9,3.9-2.6l.9.7Z"/>
  <path fill="#e0fd7a" d="M246.5,164.1c0,.8-2.1,5.8-2.6,8.6-2.6,12.4,12,14.6,19.8,20,1.3.9,3,1.3,3.9,2.7h-1c-5.4-2.2-10.8-3.6-16.2-6-11-4.9-14.3-17.6-3.9-25.4Z"/>
  <path fill="#e0fd7a" d="M389.9,123.1c5.1,1,14.3,10.5,18.5,14,3.6,3.1,6.5,7.9,8.1,12.3-1.3-1.1-3.9-4.2-5.7-5.8-7.8-6.7-14.6-12.3-20.9-20.6Z"/>
  <path fill="#c3f344" d="M283.3,136.7h1.9c-2.3,2-7.7,3.3-10.2,5.1-6.9,5.1-9,12.1-18.4,13.7-1.8.3-6.7,2.5-8.8,3.4-.9.4-.4.3-1.6.3,4.4-4,11.4-5,14.8-7.7,9.2-7.4,9.9-11.9,22.4-14.9Z"/>
  <path fill="#e0fd7a" d="M329.3,194.5c1,.8,2.1,3.2,2.9,4.4,6.1,9.5,6.9,16.3,9.7,27-2.5-2.1-5-11.8-7.1-15.2-3.1-5.2-5.3-10.2-5.4-16.2Z"/>
  <path fill="#e0fd7a" d="M247.3,191.6c.9.6,22.2,26,22.6,26.7-7.4-3.5-19.3-18.3-22.6-26.7Z"/>
  <path fill="#c3f344" d="M329.1,99.3l.2.4c-10.3,5.4-19,14.6-24.1,25.1h-.1c-1-2.8,6.3-13.2,8.3-15.7,4.4-5.3,9.4-7.6,15.7-9.8Z"/>
  <path fill="#c3f344" d="M274.6,208.9c4.9,1.9,15.3,10.9,18.8,15.2,1.3,1.6,3.8,5.4,5.3,7.5-2.5-1.3-21.4-19.6-24.1-22.7Z"/>
  <path fill="#c3f344" d="M424.5,118l.9,2c-1.3,10.6-1.6,20.8-3.7,31.4-1.5-12.8.5-21,2.8-33.3Z"/>
  <path fill="#e0fd7a" d="M356.8,134.1c.2,1.7-1.5,4.1-2.7,5.3-5.3,5.4-13.5,7.4-20.9,7.5.6-1.1,3.8-1.6,5.5-2.1,7.6-2.1,12.4-5.6,18.1-10.8Z"/>
  <path fill="#c3f344" d="M257.8,221.8c1.5.9,6.3,4.6,8.2,5.9,5.9,4.2,12.4,8.3,18,12.7-5.4-1.7-24.7-13.8-26.2-18.6Z"/>
  <path fill="#c3f344" d="M321.1,154.1c1.2,7.5-18.4,22-25.5,19.7l-.5-.6,2.3-.4c8.7-1.4,16.7-7.2,21.1-14.9,1-2.1,1-2.3,2.7-3.8Z"/>
  <path fill="#c3f344" d="M384,127c1,2.4.8,4.2.8,6.8-2.7,5.3-5.5,7.9-10.7,10.7l-.3-.3c6.2-7.5,6.9-7,10.3-17.2Z"/>
  <path fill="#c3f344" d="M445.3,148.6l.4.4c-2.3,2.6-11.4,6.2-15.6,8.6l-.3-.3c.7-5.1,11.1-8.1,15.5-8.7Z"/>
  <path fill="#c3f344" d="M405.7,97.9c-.7,1.3-1.4,2.3-1.9,3.7-5.2,6-8.3,6.7-15.6,8.9,4.8-4.1,12-8.3,17.5-12.6Z"/>
  <path fill="#e0fd7a" d="M315.4,201.4c6.5,4.8,8.7,5.2,10.3,13.5-.4,1.2-.2.9-1,1.8-2.1-5.5-6.5-9.8-9.3-15.3Z"/>
  <path fill="#e0fd7a" d="M298.8,151.3l.4.6c-1.4,4.1-7,9.9-10.3,12.7-.3-.3-.1,0-.2-1,2.4-4.8,5.9-9.1,10.2-12.4Z"/>
  <path fill="#c3f344" d="M412.7,90.7c.5,5.1-4.5,20.6-8,25.3,0-2.2,6.8-22.1,8-25.3Z"/>
  <path fill="#c3f344" d="M312.5,152.6l-1.9-.8v-.5c3.4.2,6.7,1,9.8,2.4-2.2.4-5.6-.6-7.9-1.1Z"/>
  <path fill="#c3f344" d="M449.6,151.7c2.5,1.7,3.7,5.8,4.5,8.6-2.2-1.5-4.2-6-4.5-8.6Z"/>
  <path fill="#c3f344" d="M325.7,214.9c.6,3.2,1.4,6.6,1.3,9.8-.7-2.3-2-5.6-2.3-7.9.7-.9.5-.7,1-1.8Z"/>
  <path fill="#c3f344" d="M229,178.3c.9,2.7,1.2,7.7,1.3,10.6-2-2.6-1.4-7.4-1.3-10.6Z"/>
  <path fill="#c3f344" d="M425.7,109.2c.5,3.6.3,7.2-.3,10.8l-.9-2c.4-2.9.8-5.9,1.2-8.8Z"/>
  <path fill="#c3f344" d="M278.2,162.1c1.8,1.4,2.6,5.8,3.2,8-1.8-1.4-2.8-5.8-3.2-8Z"/>
  <path fill="#98d707" d="M424,277.7c1.4-.6,1.4-.7,2.4-1.6,3.7-3.2,9.9-5.5,14.8-5.3,4.4.2,10.6,5.1,9.8,9.9-.5,3-2.3,5.7-4.2,8-3.7-.3-7.3.3-8.8-3.3h-.7c-2.1,3.7-2.2,18.6-1.5,23-.6,5.7-.2,11.7-.5,17.5-.4,7.3-1.6,15.4-1.8,22.6-.2,9.6,3.4,11.5,1,21.4,1.7,5.1,5.7,11.3,8,16.4,2.1,4.8,3.8,10,6,14.7,9.5,3.2,13.3,9.8,15.8,19.3,3.7,0,6.4.1,10,1.1,1.3,1.2,3.9,4.2,5.2,4.1,3.8-.4,12.8-2,15.6-4.3.5-4.2-2.1-12.1-2.4-16.6-1.4-16.4,1.5-44.6,13.1-56.9,10.9-13.6,23.7-12,39.1-16.3,8.2-2.3,11.6-7.7,22.1-5.9,12.5,2.2,21.2,6.6,28.9,16.8,8.4,7.1,20,26.6,22.9,37.2,17.8-5.2,35.5-10.5,53.2-16.1,11.5-3.7,22.6-7.3,34.3-10.4,16.3-4.4,19,12.8,17.1,24.9-5.4,3.9-21.2,8-28.2,10.1l-46.6,14.3c-6.1,1.8-16.8,4.4-22.1,6.4,2.1,25.3,3.8,62.2-22.5,77.4-5.3,3.1-13,3.8-18.8,5.6-15.7,4.8-30.9,11-46.3,1.8-19.6-11.7-30.3-31.4-38.7-51.9-5.8,1.7-10.9,2.8-16.3,5.6-.8,3.8-.8,4.8-2.8,8.2-5.6,2.6-11.1,4.5-17,6.3-8.3,2.6-16.9,5.3-22.3-3.7-5.3,1.3-10.1,3.5-15.2,4.9-3.4,1.3-12.9,4.3-14.1,7.6l-2.2,1.2c-15.8,4.4-31.3,9.9-47.2,14.1-3.4.9-6.8,1.8-10.1,2.8-1.6,4-2.1,6.2-3.2,10.4,0-3.3.6-7.9,1.5-11-4.4.5-10.6,2.4-14.9,3.6-.6-.3-1.3-.5-1.9-.8-2.3.6-3.2.8-5.5,1-8.1,2.3-17.3,5.6-25.3,7.4.3-6.6,1.5-13.3,5-18.9,4.1-1.6,15.6-3.5,17.4-6.5,7.7-2.2,15.4-5.1,23.2-7.3,4.7-1.3,9.7-1.6,11.2-6.5l.9-1.6.6.6c2.4,0,30.4-9,34.5-10.4,2-.6,3.9-1.3,5.9-1.8,3.9-1.2,12.7-4.1,16.4-4.7l-.2,1.6c1.9.7,5.3-.8,8.4-.8,4.6-1.6,9.2-1.5,10.2-7,.4-2.4,2.1-5.1,3.7-7-.8-2.5-2.4-6.7-2.8-9.1-2.7-15.9-8.8-30.8-16.1-45.1-2.2-1.1-5.5-2.5-6.7-4.5-3.9-6.7-6.7-14.2-10.6-20.9-6.9-11.9-14-23.7-20.7-35.8-2.1-3.8-8.2-13.7-9.4-17.5-1.5-1.9-3.6-4.8-6.1-5.2-2.8,1.1-2.6,3.7-5.6,6.6.6-3.4.9-4.8.7-8.3,0-.4.4-1.2.5-1.7l1.5-.2c0-5-1.7-9-3.9-13.3,9.4-.3,7.7,0,16.4,2.1l.4.3c11.5,7.8,36.1,61.6,40.4,61.9.8-3.7.6-9.6.8-13.3.7-10.1.9-39.3,4.4-47.2ZM451,424.6c1.2-.7,2.6-1.1,2.8-2.6.4-2.6-1.3-6.3-3.9-7.1-4.1,3.1-4.5,8.8,1.1,9.8Z"/>
  <path fill="#e0fd7a" d="M541.4,333.6c2.3-.9,2.7-1,5.2-1-17.7,14.4-20.1,45.3-18,66.3,2.1,20.9,10.5,47.9,23.3,64.8l-.9.7c-23.6-32.6-38.7-85.6-15.1-122.2,1.8-2.8,4.4-5.1,6.2-7.9l-.6-.7Z"/>
  <path fill="#e0fd7a" d="M329.1,491.9c29.7-9.9,60.6-17.8,90.4-27.7,2.4-.8,4.8-1.4,7.3-1.3-3.4,1.3-12.9,4.3-14.1,7.6l-2.2,1.2c-15.8,4.4-31.3,9.9-47.2,14.1-3.4.9-6.8,1.8-10.1,2.8-1.6,4-2.1,6.2-3.2,10.4,0-3.3.6-7.9,1.5-11-4.4.5-10.6,2.4-14.9,3.6-.6-.3-1.3-.5-1.9-.8-2.3.6-3.2.8-5.5,1Z"/>
  <path fill="#e0fd7a" d="M402.5,446.9c3.9-1.2,12.7-4.1,16.4-4.7l-.2,1.6c1.9.7,5.3-.8,8.4-.8-2,1.6-27.2,9.9-31.4,10.8-10.2,2.3-37.4,13.3-46.2,12.8,4.7-1.3,9.7-1.6,11.2-6.5l.9-1.6.6.6c2.4,0,30.4-9,34.5-10.4,2-.6,3.9-1.3,5.9-1.8Z"/>
  <path fill="#eef8a5" d="M505.9,347.6c10.9-13.6,23.7-12,39.1-16.3,8.2-2.3,11.6-7.7,22.1-5.9,12.5,2.2,21.2,6.6,28.9,16.8-3.6-1.8-5.2-3.8-8.4-6.2-13.5-10.4-26.2-11.3-41-3.3-2.5,0-2.9,0-5.2,1-9.1,2.5-20.8,3.9-28.3,9.3-2.7,2-4.2,5.6-7.2,4.7Z"/>
  <path fill="#eef8a5" d="M363.5,289.2c0-.4.4-1.2.5-1.7l1.5-.2c3.4,1.9,9.2,4.2,9,8.7-1.5-1.9-3.6-4.8-6.1-5.2-2.8,1.1-2.6,3.7-5.6,6.6.6-3.4.9-4.8.7-8.3Z"/>
  <path fill="#c3f344" d="M551.9,463.8c3.5,3.9,11.2,11.8,13.5,15.8-2.4-1.1-12.6-12.6-14.5-15l.9-.7Z"/>
  <path fill="#e0fd7a" d="M706.7,359.6c1.2,1,1,6.7.8,8.2h-.5s-1.4-2.5-1.4-2.5c-.3-.1-.7-.2-1-.4-7,2.6-17,5.6-23.8,7.7-34,10.5-68.2,20.8-102.4,30.8-2.2.4-1.7.7-3.3-.1-.7-1.8-.7-.9-.2-2.7,2.1-2.7,36.7-12.2,42.8-14.1l88.9-26.9Z"/>
  <path fill="#e0fd7a" d="M515.1,353.2l1.4-.6c.8,1.5-.1,1.2,0,3.5-11.2,31.2-6,59,5.2,89h-.6c-.9-1.8-1-4.2-3-4.7,0,1.3,0,1.2.6,2.6l.2.5-.5.7c-1.7-3.6-3.2-7.3-4.5-11-8.5-25.1-10.9-55.5,1.1-79.9Z"/>
  <path fill="#c3f344" d="M616.2,411.1c.8.5,1.3.5,1.5,1.4,4,19-.2,53.4-20.6,61.3l-1.2.2-.3-.3c29.6-18,15.6-54.5,20.6-62.6Z"/>
  <path fill="#e0fd7a" d="M569.4,378.8l.2.5c-13.1,10-8.3,37.1.5,48.4,2.3,3,4.2,4.6,6.9,7.2l-.5.4c-8.1-4.4-12-9.8-15.2-18.3-4-10.7-5.5-33.9,8.1-38.2Z"/>
  <path fill="#c3f344" d="M564.4,340.7c17.9,0,27.7,12.5,37.5,26,2.1,2.9,8.3,13.6,7.6,16.7l-1.5.7-.7-.3c-6.9-14.6-13.1-27.8-27.2-37.2-4.3-2.8-12.2-6.1-17.7-5.5-.3,0-.8.3-2.1.4.7-.7,2.6-.7,4-.9Z"/>
  <path fill="#c3f344" d="M518.6,444.1l.5-.7-.2-.5c-.6-1.4-.7-1.2-.6-2.6,2,.5,2.1,2.9,3,4.8h.6c1.7,2.5,5.2,10.5,7,13.7,5.6,10.1,11.4,18.3,20.9,25.2,2.4,1.8,4.8,2.9,7,4.6l-.4.4c-.6-.2-1.1-.5-1.7-.8-14.3-6.7-30.9-29.7-36.1-44.2Z"/>
  <path fill="#e0fd7a" d="M469,427.9c.9,1.1-1.1,3.8-1.4,5.3-1.1,5,.8,9.8,3.1,14.2,1.9.9,3.8,1.4,4.5,3l-1,1.5c-7.1-1.9-10.8-12.3-9.5-18.9.6-2.8,2-3.6,4.3-5Z"/>
  <path fill="#e0fd7a" d="M422,360.9c1-2,1.6-3.9,3.3-5.1.7-.1,1.2-.3,1.8-.2.8.6.8.4.8,1.2.2,3.9-1.8,3.9-4.5,4.7l-1.4-.6Z"/>
  <path fill="#c3f344" d="M515.1,353.2c2.4-4,5.2-7.1,8.4-10.4-2.5,4.3-4.8,8.7-7,13.2-.1-2.3.7-2,0-3.5l-1.4.6Z"/>
  <path fill="#c3f344" d="M423.4,361.5c-2.5.8-3,3-4.3,3.5l-.4-.9c.5-2.2,1.3-2.6,3.3-3.2l1.4.6Z"/>
  <path fill="#98d707" d="M244.6,222.6c.6.1,13.1,10.4,14.8,11.6,13.4,9.2,40.9,20.9,49.4,33.5,2.6,3.9,3,8.8,4.8,13,2,4.8,5.9,8.9,8.5,13.4,2,3.4,3.4,7.5,5.7,10.7.7.9.9.9,1.9,1.2,3.2.7,12.4-.3,15.1-2.1l.4-1.2c4.6,2.5,2-.2,4.5,1,0,2.4,2.6,5,4.1,7.4,1.7,2.4,3.9,6,5.9,8,11.3,11.5,20.3,24.7,28.9,38.3,1.2,1.8,4.8,7.3,5.3,9.1,6.7,9.8,7,16.6,10.9,27.7,2.2,6.4,4.6,10.3,8,16,7.2,7.1,9.8,23,6,32.1-3.7.6-12.5,3.5-16.4,4.7-2,.6-3.9,1.2-5.9,1.8-4.1,1.4-32.1,10.5-34.5,10.4l-.6-.6-.9,1.6c.4-10.3,3-13.8-3.3-22.7-.4-.2-7.1-6-7.9-6.7-9.2-6.3-14.5-10.5-23-17.7-.2,7.2-.5,12.6-2.3,19.7l-1-2c.5-7.7.2-12.2-1.5-19.6-1.4-6.2-5.4-18-7.9-23.7-20.6-4.6-41.8,2.1-60.1,11.2-2.1-2.2-4.3-4.7-6.4-7-.5,3.3-.7,7.3-1,10.6-2.1,1.7-4.5,3.4-6.7,4.9l-.9.2c0,4.3,2.4,6.8,5.2,10-5.9,2.9-12.4,3.4-18.8,2.5-3.9-8.7-4.5-16.1-7-25-5.8-20.4-9.1-39.5-20.4-57.9-10.4-16.8-14.5-39.9-8.7-59.1,7.1-23.2,17.6-33.7,38.5-45,4.1-2.7,7.9-3.8,11.3-6.2,1-1.2,1.7-1.4,3-2.3.9-.5,2.1-1.3,2.9-1.9Z"/>
  <path fill="#e0fd7a" d="M244.6,222.6c.6.1,13.1,10.4,14.8,11.6,13.4,9.2,40.9,20.9,49.4,33.5,2.6,3.9,3,8.8,4.8,13,2,4.8,5.9,8.9,8.5,13.4,2,3.4,3.4,7.5,5.7,10.7.7.9.9.9,1.9,1.2,3.2.7,12.4-.3,15.1-2.1l.4-1.2c4.6,2.5,2-.2,4.5,1,0,2.4,2.6,5,4.1,7.4-1.7-.7-4.8-2.7-6.5-3.7-3.5,1.8-13,2.8-17.2,2.4-4.5-.4-6.7-2.1-9.4-5.4-11.3,8.2-16.5.3-18.8-10.9,1-3.6,1.7-5,4.2-7.7,1.2-.6,2.9-1.4,4.1-1.9-.5-1.7-1-3.4-1.5-5.2-1.8-6.2-3.8-10.8-9.3-14.8-6.6-4.8-13.5-9.4-20.6-13.3-4.1-2.8-10-5.6-14.4-8.2-9.5-5.5-15.3-10.3-22.9-17.8.9-.5,2.1-1.3,2.9-1.9Z"/>
  <path fill="#c3f344" d="M310.8,288.2l1.2-.4c4.3,2.4,6.4,7.4,8.2,11.8.4,13.5-22.6-2-9.4-11.4Z"/>
  <path fill="#98d707" d="M310.8,288.2l1.2-.4c4.3,2.4,6.4,7.4,8.2,11.8-6.3-1.3-4.6-9-9.4-11.4Z"/>
  <path fill="#e0fd7a" d="M286.8,321.9c10.7,12.7,22.2,41.2,29.1,57.3,1.4,3.3,8.9,28.2,8.9,30.1-1.7.6-1.8.6-3.2,1.9-1.4-6.2-5.4-18-7.9-23.7-20.6-4.6-41.8,2.1-60.1,11.2-2.1-2.2-4.3-4.7-6.4-7-.5,3.3-.7,7.3-1,10.6-2.1,1.7-4.5,3.4-6.7,4.9l-.9.2c-1.5,1.3-9.5,5.7-11.5,6.6,5.3-7.2,8.6-8.7,16-13.4,0-6,.4-12.1,1.1-18.1,3.2,4,7.1,8.2,10.6,12,14.7-7.5,23.5-10.8,40.3-12.4,2.4-.6,6.2-1.1,8.7-1.4,1.8.8,2.7,1.3,4.6,1.3,3.6-3,.2-8.2-1.6-11.5v.5c-2.9-4.9-3.2-5-3.8-10.6-4.8-2.9-6.4-9.4-5.8-14.7-2.6-7.2-7.2-16.7-10.3-23.8Z"/>
  <path fill="#c3f344" d="M297.1,345.7c5.1,8.9,12.5,28.2,15.9,37.9-7.1-1.2-10.9-1.4-18-1.5,2.4-.6,6.2-1.1,8.7-1.4,1.8.8,2.7,1.3,4.6,1.3,3.6-3,.2-8.2-1.6-11.5v.5c-2.9-4.9-3.2-5-3.8-10.6-4.8-2.9-6.4-9.4-5.8-14.7Z"/>
  <path fill="#e0fd7a" d="M394,366.4c6.7,9.8,7,16.6,10.9,27.7,2.2,6.4,4.6,10.3,8,16-5.1-2.1-12.5-15.8-14-21h1.7c0,0,.5-.9.5-.9,0-4.2-2.1-7.3-4-11.1-24.3,0-36.4,10.3-57.6,18.4,2.9-2.3,7.1-4.7,10.4-6.6,16.2-9.7,27.9-14.3,46.6-15.6-1.1-2.6-1.8-4.2-2.4-7Z"/>
  <path fill="#e0fd7a" d="M238.6,226.8l-2.6,4.4c2.9,13.3,18.1,33.8,28.5,40.5l-.8.6c-11.4-9.4-23.1-18.5-28.9-32.5-1-2.4-2.1-4.7-3.1-7.1-1-.7-2.7,0-4.3.2,4.1-2.7,7.9-3.8,11.3-6.2Z"/>
  <path fill="#eef8a5" d="M321.6,411.2c1.4-1.3,1.5-1.2,3.2-1.9,2.3,4,23.2,16.3,25,20.5l-.4.9c-9.2-6.3-14.5-10.5-23-17.7-.2,7.2-.5,12.6-2.3,19.7l-1-2c.5-7.7.2-12.2-1.5-19.6Z"/>
  <path fill="#c3f344" d="M279,250.6c7.1,3.9,14.1,8.6,20.6,13.3,5.5,4,7.5,8.5,9.3,14.8.5,1.7,1,3.4,1.5,5.2-1.2.6-3,1.3-4.1,1.9v-.2c1-1.4,1.7-2.2,1.6-3.8-1.7-3-2.1-5.4-3.4-8.8-2-5.2-8.8-8.9-13.5-11.5-1-.5-.9,0-2.1-1.4l.3-.4c2.3.2,6.9,4.5,9.3,5.1-3.7-4.3-17.4-10.8-19.5-14.2Z"/>
  <path fill="#eef8a5" d="M357.3,437.4c4.9,2.5,8.9,9.4,11.2,14.2-1.4-1.5-3-3.1-4.3-4.7-1.4,4.4-1.8,7.3-2.8,11.6l-.9,1.6c.4-10.3,3-13.8-3.3-22.7Z"/>
  <path fill="#c3f344" d="M396.5,448.8c2.2-2.8,3.8-1.6,4.9-5.2.5-1.5,2.3-7.6,3-8.3-.6,4-1.2,7.8-2,11.7-2,.6-3.9,1.2-5.9,1.8Z"/>
  <path fill="#c3f344" d="M264.5,271.7c2.1,1.4,6.7,3.9,7.6,5.9-2-.2-6.8-3.8-8.4-5.3l.8-.6Z"/>
  <path fill="#c3f344" d="M215.6,289c8.9.3,21.3,2.5,30.5,3.7l-.5,1.4c-10.2.2-20.4-1.5-30-5.1Z"/>
  <path fill="#c3f344" d="M208.7,333.3c1.5.8,4.1,2.7,5.6,3.8,7.6,5.5,15.7,9.5,23.8,14.1-.9-.1-1.9-.3-2.8-.5-8.3-2-22.3-10.5-26.6-17.4Z"/>
  <path fill="#c3f344" d="M253.7,287.1c4.7,1.2,27.5,14.5,32.3,17.8-6.4-1.5-27-12.8-32.3-17.8Z"/>
  <path fill="#c3f344" d="M406.8,414.5c.9,7.1-6.4,15.9-13.1,17.2-2.8.6-4.2.6-7,.5v-.5c15.1-3.4,12.6-6.2,19.7-16.6l.5-.7Z"/>
  <path fill="#c3f344" d="M245.5,303.6c6.8-.4,14.6.8,20.9,3.6-5.9-.8-10.2-1.4-16.2-1.7-8.1-.2-13.1.8-20.8,2.6,5.7-3.1,9.8-4,16.1-4.6Z"/>
  <path fill="#c3f344" d="M356.9,393.7c1.5,1.1,10.3,22.1,11.9,25.5-5.7-4.2-11.1-18.3-11.9-25.5Z"/>
  <path fill="#c3f344" d="M335.8,321.5l1.1.3c-1.2,1.4-24.2,14.9-26.6,15.7h-.8s0-.6,0-.6c9.3-5,15.9-10.2,26.3-15.4Z"/>
  <path fill="#c3f344" d="M347.7,348.4l.8.3c-4.9,2.7-19.6,1.8-25.3,1.3l-1.3-.3c.9-1,22.6-1.2,25.8-1.3Z"/>
  <path fill="#c3f344" d="M327,356.7c4.1-.4,25.8,3.1,30,4.5-5,.6-25.4-2.5-30-4.5Z"/>
  <path fill="#c3f344" d="M223,277.9c6.7,0,20.7,7,26.3,10.7-2.3-.2-22.7-9.1-26.3-10.7Z"/>
  <path fill="#c3f344" d="M208,346.3h.8c2.9,2.6,19.7,17.5,20.2,19.9-4.6-3.2-16.6-14.9-21.3-19.2l.3-.7Z"/>
  <path fill="#c3f344" d="M231,256.6c2.2,1.4,11.8,12.1,14.8,15-5.2-1.5-12.8-10-14.8-15Z"/>
  <path fill="#c3f344" d="M283.5,258c3.6,2.1,2.9,11.9,2.7,15.5-1.4-1.4-2.5-13.1-2.7-15.5Z"/>
  <path fill="#c3f344" d="M329.1,333.5l.9.2c-2.1,1.7-7.9,3.3-10.6,4l-.6-.3v-.6c2.5-1.3,7.4-2.5,10.3-3.3Z"/>
  <path fill="#c3f344" d="M246.1,292.6c3.9.3,7.1,1.2,10.8,2.5-3.9-.3-7.4-.7-11.2-1.1l.5-1.4Z"/>
  <path fill="#98d707" d="M253.5,398.7c18.4-9.1,39.5-15.8,60.1-11.2,2.5,5.7,6.6,17.5,7.9,23.7,1.7,7.4,2.1,12,1.5,19.6l1,2c-2.6,5.2-2.7,4.6-2.9,10.7-.9,8.9-4.5,14.7-8.4,22.7-1.1,2.9-5.1,10-1.4,11.5,4.1-.5,10.2-2.8,14.8-3.7-1.8,3-13.3,4.9-17.4,6.5-3.6,5.7-4.7,12.3-5,18.9,8-1.8,17.2-5.1,25.3-7.4,2.3-.2,3.3-.4,5.5-1,.6.2,1.3.5,1.9.8-10.4,3.5-25.1,8.2-35.7,10-.6,17.1-2.7,22.6-9.3,38.6-6.4,17.3-13.2,32.1-14.6,51.3-.5,6.3,0,11.9,0,18.1,1.1,1.7,1,1.6,2.6,2.9,5.1,2.8,4.4,12,7,16.5,6.7,11.4,19.3,20.4,30.2,27.4,5.8,3.7,13,5.5,15.2,13,3,10.5-10.6,12.4-18.2,13.5-13.9,2.1-31.1,3.1-44.7-1.7-5.3-1.8-10.4-5.1-15.8-6.5-7.4-2-15.9-1.6-22.5-6-6.2-4.1-5-10.1-.9-15.3.9-9.6,1.7-21.6,4.5-30.8.9-2.8,3.1-3.6,5.8-4.1,3.7-2,2.6-10.4,2.6-14.3,0-6.9-.6-13.6-.6-20.5,0-13.1,0-26.8-.8-39.8-.4-6.9-2.7-15.5-3.3-22.7v-.6c-2,.4-2.7.6-4.6,1.2.8-6.5,0-12.8,1.4-20,3.3-1.6,3.9-4.4,5.5-7.9,5.5-19.4,14.3-26.3,24.6-42.1.4-2.3,0-5.4-.3-7.7-1.6-2.3-4-6.6-5.5-9.2-3.8-4.4-10.2-14.9-14.5-18.1l-1.1.2c-2.7-3.2-5.2-5.8-5.2-10l.9-.2c2.2-1.5,4.6-3.1,6.7-4.9.3-3.3.6-7.3,1-10.6,2.1,2.3,4.3,4.8,6.4,7Z"/>
  <path fill="#eef8a5" d="M298.9,493.5c2.2-6.3,9.3-22.3,13.9-27.3-1.1,2.9-5.1,10-1.4,11.5,4.1-.5,10.2-2.8,14.8-3.7-1.8,3-13.3,4.9-17.4,6.5-3.6,5.7-4.7,12.3-5,18.9,8-1.8,17.2-5.1,25.3-7.4,2.3-.2,3.3-.4,5.5-1,.6.2,1.3.5,1.9.8-10.4,3.5-25.1,8.2-35.7,10-.6,17.1-2.7,22.6-9.3,38.6-.3-2.1,5.1-19,5.8-23.2.9-5.7,1.3-8.2,1.6-14.6.6-3.1.3-5.9,0-9Z"/>
  <path fill="#e0fd7a" d="M242.8,604.4c.2-1.5.4-2.8.7-4.2h.5c3.1,6.5.8,12.5,0,19.6-2.4,18.4,8,6.1,12.8,5.5,1.3,3.6-5.3,6.1-8,7.1-9.4,3.7-8.6-8-8.4-13.7,3.7-2,2.6-10.4,2.6-14.3Z"/>
  <path fill="#e0fd7a" d="M240.4,494.2c.4,3.9-1.7,12.2-1.9,16.8,0,1.7-.3,8.8-.4,9.8-2,.4-2.7.6-4.6,1.2.8-6.5,0-12.8,1.4-20,3.3-1.6,3.9-4.4,5.5-7.9Z"/>
  <path fill="#c3f344" d="M298.8,502.5c0-1.2-.2-2.2-.3-3.4-.8,1.1-2.1,5.3-2.7,6.9-3.1,8.5-5.8,17.3-8.6,25.9-1.3,4-1.9,7.9-3.8,11.5.1-6.1,12.3-43.5,15.5-49.8.2,3.1.5,6,0,9Z"/>
  <path fill="#e0fd7a" d="M238.5,407.4l.9-.2c1.3.8,3.5,4.4,4.4,5.8,3.3,5,16,17,15.5,22.3-3.8-4.4-10.2-14.9-14.5-18.1l-1.1.2c-2.7-3.2-5.2-5.8-5.2-10Z"/>
  <path fill="#e0fd7a" d="M261.7,615.2c4.6-4,9-5.8,15.2-5.5,1.1,1.7,1,1.6,2.6,2.9-7-.2-9.5.7-16,3.7l-1.8-1Z"/>
  <path fill="#e0fd7a" d="M321.2,443.4c-.5-4-1.5-10.5-3.2-14.1-1.2-2.5-2.3-3.4-3.5-6.5h.3c2.8,3.1,4.7,6.3,6.9,8.8l1.3-.8,1,2c-2.6,5.2-2.7,4.6-2.9,10.7Z"/>
  <path fill="#e0fd7a" d="M264.8,444.4c2.6,2.3,5,8.4,3.6,11.7-.8-1.8-1.2-4-3.3-4,.4-2.3,0-5.4-.3-7.7Z"/>
  <path fill="#c3f344" d="M257.5,620c1.5-1.9,2.5-3,4.2-4.8l1.8,1c-1.8,1.2-4.2,2.6-6,3.8Z"/>
  <path fill="#e0fd7a" d="M274,491.5c-1.2,7.8-3.9,18.2-5.6,26-2.6,11.6-4.9,23.1-7.2,34.8l-1.1-1.7c2.1-19.4,5.3-41.3,13.9-59Z"/>
  <path fill="#c3f344" d="M296.2,678c-6.7-.4-14.2.7-21.2-1.7-3.4-1.2-20.8-10.1-21.9-12.2,2.5.5,9.6,4.4,12.4,5.8,10.1,4.8,21.8,6.4,32.8,6.6l.6.8c-1.3.6-1.3.5-2.7.7Z"/>
  <path fill="#e0fd7a" d="M291.9,444c6.8,4.3,5.2,15.8,3.8,22.6h0c0,.1-.4,0-.4,0-1.4-7.9-1.6-14.1-3.3-22.6Z"/>
  <path fill="#c3f344" d="M262.7,474.6c0,.9-11.3,26.6-12.9,31.2-1.4-9.1,7.9-24,12.9-31.2Z"/>
  <path fill="#e0fd7a" d="M256.4,415c.2.1.4.2.5.4,10,8.3,14.9,12.3,17.2,25.4-2.3-3.1-4.6-9.5-7.5-13.4-3.1-4.1-7.7-8.4-10.3-12.4Z"/>
  <path fill="#c3f344" d="M257.2,502.1c.3,1.6-8.2,38.9-9.3,42.4,0-.2,1-6.5,1.1-7,2.1-11.7,3.5-24.4,8.2-35.4Z"/>
  <path fill="#e0fd7a" d="M298.5,403.7c1.3,7.8-3.2,15.6-10.7,18.1,0-2.6,3.5-4,5.6-7.4,2.6-4,3.4-6.3,5.1-10.8Z"/>
  <path fill="#c3f344" d="M298.4,676.4c3.1.1,6.1.6,9.2,1-3.7.6-7.5.8-11.3.6,1.5-.3,1.4-.2,2.7-.7l-.6-.8Z"/>
  <path fill="#c3f344" d="M260.1,550.6l1.1,1.7c-.2,1.3-.6,5.9-1.5,6.6-.6-2.1,0-6,.4-8.4Z"/>
  <path fill="#98d707" d="M117.1,537.4c11-1.6,33.3-9.5,44.7-12.9,24.4-7.2,48.9-14.7,73.1-22.4-1.5,7.2-.6,13.5-1.4,20-21.1,5.4-42.7,13.3-63.9,19.1-10.8,2.9-21.7,6-32.4,9.3-3.6,1.1-10.4,2.9-13.6,4.4-.3,7.4-.4,14.8-.3,22.3,0,4.6.3,12.1,0,16.7l.8.7c1.6-.3,3.2-.6,4.9-.9,8.2-1.2,29.8-4,37.6.8,2.7,1.6,1.8,13.4,1.8,17.2,2,2.4,5,4.5,4.1,7.9-1.9,2-22.4,4.3-26.2,4.1-4.9-.2-13.4-3.5-18.4-2.6-25.6,4.4-50.9,9.9-76.4,14.5.5,1.9,1,4.7,1.3,6.6-5.2,1.1-16.4,3.9-21.1,3.3-6.1-.8-21.9-1-25.8-5.2-.8-3.5,1.6-4.7,4.4-6.2.2-3.5.2-7,.3-10.5.2-5.8-1-8.5,5.7-9.7,13.5-2.5,27.4-4.2,40.7-7.5.3-12.2-.2-24.9,0-36.8.3-14.8-3.9-33.1,16.5-35,7.8-.7,9.3-1.2,16,3.3,4.9-8.5,14.4-9.8,23.1-5.2,1.1.6,3.5,3.7,4.4,4.8ZM123.3,601.5l.6.4c1.4.3,18.6-2.8,20-3.6h.6c-2.1-.3-17.1,1.9-20.4,2.3l-.8.8ZM95,601.8c.4-.5.8-.9,1.2-1.4.5-8.5.1-17.3.2-25.8,0-1-.6-1.7-.4-1.3l-2.9-.2c-1.1.8-1.4.6-1.4,2.4,0,4-.7,23.7.7,25.7l2.7.7ZM69.9,561.6c5-2.5,5.4-11.5-.8-12.2-5.5,3.3-5.5,10,.8,12.2Z"/>
  <path fill="#e0fd7a" d="M124.1,600.6c3.2-.5,18.3-2.7,20.4-2.3h-.6c-1.3.8-18.5,3.9-20,3.6l-.6-.4.8-.8Z"/>
  <path fill="#e0fd7a" d="M123.3,601.5c-.4-2.3-.4-5.3,0-7.7l.8.7c.4,2.7.3,3.4,0,6.1l-.8.8Z"/>
  <path fill="#e0fd7a" d="M70.9,536.1c12.4,4,14.9,14.1,13.6,25.7-.9,7.8,1.5,44.4-.3,48.8l-1,.4c-7.3.2-23.4,3.3-31,4.9-1.2-.6-.8-.1-1.3-1.3,6.6-2.2,23.1-4.4,30.6-5.8l.7-1.2c-.2-15.4.2-30.9,0-46.3-.2-12.3-.4-17.9-11.3-25.1Z"/>
  <path fill="#e0fd7a" d="M104.4,538.5l2.3.2c1.1,1.7-4.7,6-3.4,11.6,1.6,7.2,5.7,6.5,8.2,10.5-10.1,1.7-16.3-14.7-7.1-22.3Z"/>
  <path fill="#c3f344" d="M52.2,615.8c-1.5.3-10.6,2-11.6,1.2,3.5-1,6.7-2.1,10.3-2.6.6,1.2.1.8,1.3,1.3Z"/>
  <path fill="#98d707" d="M410.5,471.8l2.2-1.2.2,3.4c0,41.3-16.6,71.1-19.7,111.4,0,1.7-.1,4.8,1,5.9-1.4,2.3-5.5,1.6-7.1,4.9-1.6,3.5,2,8.1-.9,9.5l-1.8-.3c-5.7,2-10.1,6.6-16.3,7.9-9,1.9-9.7-9.2-14.5-11.9,4-1.8,3.2-2.9,3.9-6.9,1.8-15.4,2.5-36.5.2-51.8-1.2-7.7-5.8-17.8-7.2-25.7-1-5.6-.6-12.3-.5-18,1-4.2,1.6-6.4,3.2-10.4,3.3-1,6.8-1.9,10.1-2.8,15.9-4.1,31.4-9.6,47.2-14.1Z"/>
  <path fill="#e0fd7a" d="M357.5,594.6c2.3,22.8,12.7,14.5,26.8,9.8l.2,1.1c-5.7,2-10.1,6.6-16.3,7.9-9,1.9-9.7-9.2-14.5-11.9,4-1.8,3.2-2.9,3.9-6.9Z"/>
  <path fill="#c3f344" d="M393.1,585.4c0,1.7-.1,4.8,1,5.9-1.4,2.3-5.5,1.6-7.1,4.9-1.6,3.5,2,8.1-.9,9.5l-1.8-.3-.2-1.1c.7-8.8,0-10.2,8.5-13.1,0-2.1.2-3.9.4-5.9Z"/>
  <path fill="#e0fd7a" d="M410.5,471.8l2.2-1.2.2,3.4c-1.2,1.2-4.3,9.2-6.8,12.6,1.4-4,3.9-10.7,4.4-14.8Z"/>
  <path fill="#e0fd7a" d="M377.2,523.3c2.5-5.9,4.7-11.7,6.8-17.8,2.5-7.2.9-12.6.9-19.8,1.2,5.1,3.1,12.2,3.1,17.3,0,11.1-2.6,28.4-6.9,38.8.4-3.6,1.6-8,2-11.7.7-5.4,1.5-11.8,1.7-17.3-1.2,2.1-5.6,9.2-6.4,11l-1.3-.6Z"/>
  <path fill="#c3f344" d="M367.7,583.2c1.6,4.5-2.4,18.5-2.3,26-2.1-4.9.9-20.9,2.3-26Z"/>
  <path fill="#c3f344" d="M377.2,523.3l1.3.6c-2.4,3.4-3.6,5.4-7.3,7.6,2.2-2.7,4-5.3,6-8.2Z"/>
  <path fill="#98d707" d="M394.2,591.3c8.6-1.8,6.1,11.2,9.3,14,7.2,6.3,16.1,14.5,24.2,19.5,3.8,2.4,7.9,4.3,12.2,5.7,7.3,2.3,20.4,3.3,21.4,12.6,1.3,12.1-26.2,13.7-33.4,13.9-13.3.7-24.8-4.3-37.7-6.3-13.5-2.1-32.9,3.1-44.6-5.7-3.6-2.7-1.8-9.1,1.6-12,.3-12.3.7-16.9,3.4-29.3.8-.6,2.1-1.6,3-2.1,4.9,2.7,5.5,13.7,14.5,11.9,6.2-1.3,10.6-5.9,16.3-7.9l1.8.3c3-1.4-.7-6,.9-9.5,1.5-3.4,5.7-2.6,7.1-4.9Z"/>
  <path fill="#c3f344" d="M389.4,640.7c5.8-.5,16.3,3,22,4.6,8.4,2.4,22.7,4.9,31.3,4.2-10.9,4.6-42.2-4.2-53.3-8.8Z"/>
  <path fill="#98d707" d="M416.3,241.8c3.4-7.2,16-5.6,22.9-12.2,8.5-8.1,11.6-16.8,16.9-26.6,2.9,8.8,2.3,14.7.3,23.6.5,4.3,1.7,7.4,2.2,11.5.3,2.7.8,9,1.6,11.2,4.8,13,13.7,20.7,18,34.7.5,8.9-9.8,15.6-16.6,19.8-13.5.4-13.8-2-25.2-6-.2,3.3-.3,7.2-.6,10.5-.7-4.4-.6-19.3,1.5-22.9h.7c1.5,3.5,5.1,2.8,8.8,3.2,1.9-2.3,3.8-5,4.2-8,.8-4.8-5.4-9.7-9.8-9.9-4.9-.2-11.1,2.1-14.8,5.3-1,.9-1,1-2.4,1.6,1.3-3.9,3.3-4.7,4.4-8,.6-1.7,1.5-4.5,2.6-5.8.3-2.7.4-3.8-.5-6.3-2.8-1.1-12.3-12.4-14.2-15.9Z"/>
  <path fill="#e0fd7a" d="M428.4,269.7c6.5,1,15.7-6.3,22.8,1.7,5.4,6.2,3.7,17.9-4.2,20.3-2.5-.5-4.7-1.1-7.3-1.3-.1,2.4-.4,4.6.3,6.8,3.4,3.6,16.3,4.6,21.3,5.2,6.8-4.4,15.1-10,17.1-18.4.5,8.9-9.8,15.6-16.6,19.8-13.5.4-13.8-2-25.2-6-.2,3.3-.3,7.2-.6,10.5-.7-4.4-.6-19.3,1.5-22.9h.7c1.5,3.5,5.1,2.8,8.8,3.2,1.9-2.3,3.8-5,4.2-8,.8-4.8-5.4-9.7-9.8-9.9-4.9-.2-11.1,2.1-14.8,5.3-1,.9-1,1-2.4,1.6,1.3-3.9,3.3-4.7,4.4-8Z"/>
  <path fill="#c3f344" d="M440.5,242.7c.4,5.2,0,8.6,0,13.7-3.1,2.2-6.7,4.5-9,7.5h-.5c.3-2.6.4-3.6-.5-6.1,1.2.4,1.6.6,2.7,1.3,2.6-.1,3-1.2,5.2-3.2.7-4.6,1-8.6,2.2-13.1Z"/>
  <path fill="#c3f344" d="M451.2,239.2c.8-3.8,2.7-9.7,4.7-12.9l.5.3c.5,4.3,1.7,7.4,2.2,11.5-1.7-2.5-2-4.8-2.8-7.6-1.1,2.5-3.3,6.2-4.7,8.7Z"/>
  <path fill="#c3f344" d="M465.4,286.7v.5c-1.5,3.6-7.6,8.6-10.7,11.1v-.9c3.1-3.6,7.3-7.4,10.7-10.8Z"/>
</svg>