<?xml version="1.0" encoding="UTF-8"?>
<svg id="fixed_id_0"  xmlns="http://www.w3.org/2000/svg" version="1.1" xmlns:xlink="http://www.w3.org/1999/xlink" viewBox="0 0 1222.5 1657.7">
  <!-- Generator: Adobe Illustrator 29.3.1, SVG Export Plug-In . SVG Version: 2.1.0 Build 151)  -->
  <defs>
    
  </defs>
  <path fill="#99ce04" d="M415.7,29.3c14-15.7,30.4-11.1,48.8-11.2,1.8,0,6.7-4,8.9-4.1,8.4,1.1,18.6,3.1,26.9,4.2,4.8,4.7,5.5,8.4,13.2,9.3,68.2,8.5,136,20.6,204.2,29.6,5.2.7,12.4,1.6,17.4,3,7.7.2,24,3.6,32.5,4.7,24.1,3.1,49.1,7.9,73,11.2,41.3,7.4,83.7,11,125.1,18.5,7,1.3,20.3-5.3,27.2-5.3,28.5.3,58.8,7.9,75.2,32.7,16.5,25,15.3,46.2,16.6,73.8l3,74.5,2.8,102.7c.3,14.7,1.8,36.5.6,50.8,1.4,6.5,1.6,21,1.8,28,.7,24.9.2,50.3,1.3,75.2,4.4,109.7,7.9,219.3,10.6,329l3.2,117.5c.2,13.2,1.5,39.3.5,50.8,1.7,11.7,6.6,157.2,5.4,160.9,2,7.7,2,35.3,2.4,45.1l5.4,171.2c.7,20.7.4,41.3,1.4,61.9.1,2.9.5,6.3,3.1,7.5,9.8,4.4,33.2,8.4,43.3,9.5,14.6,14.2,8.8,17.6,15.6,35.2,2,5.1,11,4.1,10.7,12.2-11.2,13.5-66,14.9-74.6,1-1.1-11.9-13.6-12.7-23.5-15.2l-1.2-.4c-39.4-8-78.8-16.5-118-25.2-15.5-3.5-156.4,20.1-185.3,23.7l-.8-.2c-8.8,2.6-40.4,6.3-51.1,7.8l-100.6,14.1c-7.2,1-30,3.7-35.1,6.3-4.2,4.2-1.4,10.7-7.3,13.2-7.1,2.4-14.7,3.3-22.8,2.8-14-.7-43,.9-52.4-11.5-4.3-5.8,10.2-10.2,11.2-12.3,4.3-10.3,2.7-18.2,8.8-28.6,4.2-9,43.6-11.1,54-12.6l108.7-15.1c9.4-1.3,53.8-5.3,57.3-10.3-.5-4.1-4.7-7.9-6.5-11.7-3.8-7.7,6.7-5.2,8.8-11,3.1-8.5,3.1-15.8,6.5-24.4,4.6-6.9,25.7-4.2,33.3-5.4,7.1-1.1,5.8-6.4,6-12.5,1.1-52.8,1.5-105.6,1.4-158.4l2-235.9,5.6-407.5,2-181.5c.3-20.1,1.8-41.2,2-61.5v-100c0-37.7-2.4-81.4,18.6-114.3,2.2-3.4,3.2-3.9,2.4-8.1-6.7-4.6-51.6-8.6-62.3-9.9l-89.5-12.3c-16.4-2.3-175.7-26.6-178.8-24.2-.2,5.2,3.6,11,3.7,17.9.7,34.2-22.1,54.7-55.9,44.3-3.7-1.1-8.3-4.6-12-4.8-5.1,7.9-7.1,55.5-9,68.1-4.3,28-6.6,57.9-10.1,86l-24.1,212.8c-7.3,62.4-14.8,124.9-21.8,187.4.4,8.9-7.4,54.2-3.8,59,26.2,34,24.8,62.7,29.3,102.4.7,2.6-.1,9.6.6,11.8,10.1,29.6,10.7,63.1,31,88.5,6.2,7.8,14.6,11.5,21.4,18.6,3.8,3.9,6.3,13.7,11.4,17,19.4,6.8,55.3,1.6,72,11.9.7.4,5.8,8.2,4.6,10.4-.3.6-2.6,9-4.6,9.7-14.7,5.4-36.8.3-51.4-1.3-22-2.4-27.9-3.1-43.9,12.1-6,5.7-34.4.2-42.7-1.8-7.2-1.7-16.1-9.7-20-16.2-4-7-10-6-17.7-5.6-14.4.9-29.6,2.1-44-.3-7.2-1.2-27-9.3-33.4-3.9-2.5,10,4.3,26.6,6.1,36.8.9,5,1.1,9.9,1.2,14.9.6,22.8,1.7,45.8-1.7,68.5-1,6.3-2.1,12.7-3.7,18.9-1.1,4.3-3.3,9.1-3.5,13.5-1,18.3,4.9,36.7,3.3,55.1-1.8,20.8-14,38.7-18.8,58.4-1.4,5.6-.6,12.8-.7,18.6-.2,14.6.2,30-1.4,44.6-3.3,31.1-32.3,152.8-23.5,174.3.8,2,1.5,3.9,2.2,5.9,1.5,4.1,3.4,9.1,6.7,12.1,9.3,8.3,51.9,28,64.3,31.3,13.1,3.4,29.1,3,41.2,8.5,2.1,2.5,5.6,8,5.7,11.4,1.2,23.9-33.1,22.4-50.1,25-26.1,3.4-51.2-1.8-77.6-1.1-20.2.6-51.9,11.5-68.8-5.3-12.3-12.2-2.2-29.4-1.3-42.7-1.5-1.7-1.9-2.1-4.3-2.4-6.1-.9-30-.2-36.1,1.3-22.1,5.4-38.6,20.6-63.9,14-6.1-1.6-11-4.9-14-10.5-7.4-13.7,3.9-38.1,6.3-52.7,1.2-7.4,1-14.8,2-22.1.7-5,2.2-9.9,3-14.9,2.5-14.7-.6-28-3-42.5-2.9-18.2-5.7-36.5-9.2-54.5-3.7-19.2-9.8-39.2-9.7-58.9,0-5.8,1.6-12.4,2.7-18.2,2.2-11.5,6-25,10.9-35.7,8.4-18.6,31.2-51.5,30.1-70.5-1-16.4-26-65.9-32.3-87.2-5.1-17.1-9.2-42.1-10.4-60-.7-10.3,0-21.7-1.9-31.8-5.5-29.9-27.1-57.1-24.6-88.9,2.8-34.6,12.8-66.6,36.7-92.6,8.9-9.7,19.4-19.3,25.1-31.5,4.3-9.2,3.5-20,6.6-29.7,3.1-9.8-8.7-58.2-11.7-70.7-2.7-11.2-7.3-23.9-7.6-35.4-.5-15.9,5.3-33.7,9.6-48.9,1.5-5.1,3.9-10.3,3.9-15.7.3-29.1,5.9-57.1,31.8-74.1,7.3-4.8,15.9-7.9,23-12.9,9.2-6.4,15.5-18,24.8-25.1,24.7-18.7,53.9-21.7,71.7-51.1,12.3-20.4-11.9-53.3,5.1-90.8,6.8-14.9,26.1-31.5,41.7-36.8,19-6.3,44.1-.9,61.3,8,12.6,6.4,34.1,27.9,37.5,41.7,1.1,4.6-1.2,9.7.5,14.4,3.5,10.1,1.8,24.9-1.7,34.9-1.1,3.3-3.7,7.4-3.5,10.9.4,6.9,4.7,18.7,1.7,24.9-2.2,4.6-8.1,7.4-10.3,12.2-5,10.7-6.5,23.6-12.1,34-7.4,13.8-28.8,0-39.1,5.3l-.2,3c8.5,15.5,25.7,18.4,38.2,29.5,25.7,22.8,30.1,61.1,20.6,92.5-2.5,8.2-10.6,25.4-9.9,33.1,0,.5.1,1,.2,1.5.6,5.2,8.7,46,10.3,47.6,3-.2,1.5.3,4.1-2.1,2-10.5,2-20.5,3.7-30.4,4.5-25.5,5.3-50.8,8.1-76.3l23.6-206.6,21.6-181c2.2-19.5,4.4-38.8,7.6-58.2,2.1-12.6-5.7-29.6-4.8-42.2.8-10.5,8.3-23.1,6.9-33.9-.6-2.5-3.5-8.9-6.4-10.5-4,.9-6.2,1.2-9.9-.9-17.4-3.2-13.3-16.8-12.5-31.2Z"/>
  <path fill="#bed864" d="M415.7,29.3c14-15.7,30.4-11.1,48.8-11.2,1.8,0,6.7-4,8.9-4.1,8.4,1.1,18.6,3.1,26.9,4.2,4.8,4.7,5.5,8.4,13.2,9.3,68.2,8.5,136,20.6,204.2,29.6,5.2.7,12.4,1.6,17.4,3-12.9,4.7-48.9-1.7-57.3,1.3l.4.8h5.8c1.6,4.4,2.7,9.9,4.8,15.6l-2,2.1c3.7,4.1,4.6,1.2,7.8,5.9-.9,2.4-.5,1.4-2.9,3.3-4.7,0-10.3-.4-14.7,1.1,20,1.6,38.9-1.9,58.6-4.2,6.7-.8,10.1,1.6,15.6.6-.5-4.5-2.7-3.1-1.9-6.5,2.7-1,3.8-.8,5.2-2.7l1.1,1.1c-.4,2.7-1.3,5.2-.6,7.7l1,.5c5.3,2.6,9.4,5.4,14.3,8.6,2.2-1.3,3.2-2.1,5.3-3.6,1.8,1.9.9,6.1,1.5,6.6,3.1,2.7,8,4.3,9.3,8.5l2.6,1.3c11.8,2,66.6,8.5,72.6,11.7-1.6,9.1-13.3,7-13.6,19.1-.2,9.2-13.3,17.7-15.7,31.3-4.6,25.9-4.5,49-4.6,75,0,15.7-1,30.8-.7,46.7-.4,47.5-1.8,96.9-1,144.2,0,5.6-1.3,72.8-1.1,73.1-1.1,6.9-.5,21.5-.7,29.4-.3,29.4-.4,58.8-.3,88.2,0,17-2.4,48.7-.6,63.9-1.7,16.3-.7,36.4-1.3,53.4-2.1,53.5.2,108.1-1.2,161.5-3.1,121.9-4.6,243.9-4.5,365.9,0,15.2-2.1,36.2-1,50.4,2.2,29.4-2.5,60.3-.9,88.6-9.6,11.4-25.5,7-39.6,7.2-1.8,4.4-3.5,8.7-5.2,13.2.2-4.3,1.5-8.2,2-12.7,4.6-6.9,25.7-4.2,33.3-5.4,7.1-1.1,5.8-6.4,6-12.5,1.1-52.8,1.5-105.6,1.4-158.4l2-235.9,5.6-407.5,2-181.5c.3-20.1,1.8-41.2,2-61.5v-100c0-37.7-2.4-81.4,18.6-114.3,2.2-3.4,3.2-3.9,2.4-8.1-6.7-4.6-51.6-8.6-62.3-9.9l-89.5-12.3c-16.4-2.3-175.7-26.6-178.8-24.2-.2,5.2,3.6,11,3.7,17.9.7,34.2-22.1,54.7-55.9,44.3-3.7-1.1-8.3-4.6-12-4.8-5.1,7.9-7.1,55.5-9,68.1-4.3,28-6.6,57.9-10.1,86l-24.1,212.8c-7.3,62.4-14.8,124.9-21.8,187.4.4,8.9-7.4,54.2-3.8,59,26.2,34,24.8,62.7,29.3,102.4.7,2.6-.1,9.6.6,11.8,10.1,29.6,10.7,63.1,31,88.5,6.2,7.8,14.6,11.5,21.4,18.6,3.8,3.9,6.3,13.7,11.4,17,19.4,6.8,55.3,1.6,72,11.9.7.4,5.8,8.2,4.6,10.4-.3.6-2.6,9-4.6,9.7-14.7,5.4-36.8.3-51.4-1.3-22-2.4-27.9-3.1-43.9,12.1-6,5.7-34.4.2-42.7-1.8-7.2-1.7-16.1-9.7-20-16.2-4-7-10-6-17.7-5.6-14.4.9-29.6,2.1-44-.3-7.2-1.2-27-9.3-33.4-3.9-2.5,10,4.3,26.6,6.1,36.8.9,5,1.1,9.9,1.2,14.9.6,22.8,1.7,45.8-1.7,68.5-1,6.3-2.1,12.7-3.7,18.9-1.1,4.3-3.3,9.1-3.5,13.5-1,18.3,4.9,36.7,3.3,55.1-1.8,20.8-14,38.7-18.8,58.4-1.4,5.6-.6,12.8-.7,18.6-.2,14.6.2,30-1.4,44.6-3.3,31.1-32.3,152.8-23.5,174.3.8,2,1.5,3.9,2.2,5.9,1.5,4.1,3.4,9.1,6.7,12.1,9.3,8.3,51.9,28,64.3,31.3,13.1,3.4,29.1,3,41.2,8.5,2.1,2.5,5.6,8,5.7,11.4,1.2,23.9-33.1,22.4-50.1,25-26.1,3.4-51.2-1.8-77.6-1.1-20.2.6-51.9,11.5-68.8-5.3-12.3-12.2-2.2-29.4-1.3-42.7-1.5-1.7-1.9-2.1-4.3-2.4-6.1-.9-30-.2-36.1,1.3-22.1,5.4-38.6,20.6-63.9,14-6.1-1.6-11-4.9-14-10.5-7.4-13.7,3.9-38.1,6.3-52.7,1.2-7.4,1-14.8,2-22.1.7-5,2.2-9.9,3-14.9,2.5-14.7-.6-28-3-42.5-2.9-18.2-5.7-36.5-9.2-54.5-3.7-19.2-9.8-39.2-9.7-58.9,0-5.8,1.6-12.4,2.7-18.2,2.2-11.5,6-25,10.9-35.7,8.4-18.6,31.2-51.5,30.1-70.5-1-16.4-26-65.9-32.3-87.2-5.1-17.1-9.2-42.1-10.4-60-.7-10.3,0-21.7-1.9-31.8-5.5-29.9-27.1-57.1-24.6-88.9,2.8-34.6,12.8-66.6,36.7-92.6,8.9-9.7,19.4-19.3,25.1-31.5,4.3-9.2,3.5-20,6.6-29.7,3.1-9.8-8.7-58.2-11.7-70.7-2.7-11.2-7.3-23.9-7.6-35.4-.5-15.9,5.3-33.7,9.6-48.9,1.5-5.1,3.9-10.3,3.9-15.7.3-29.1,5.9-57.1,31.8-74.1,7.3-4.8,15.9-7.9,23-12.9,9.2-6.4,15.5-18,24.8-25.1,24.7-18.7,53.9-21.7,71.7-51.1,12.3-20.4-11.9-53.3,5.1-90.8,6.8-14.9,26.1-31.5,41.7-36.8,19-6.3,44.1-.9,61.3,8,12.6,6.4,34.1,27.9,37.5,41.7,1.1,4.6-1.2,9.7.5,14.4,3.5,10.1,1.8,24.9-1.7,34.9-1.1,3.3-3.7,7.4-3.5,10.9.4,6.9,4.7,18.7,1.7,24.9-2.2,4.6-8.1,7.4-10.3,12.2-5,10.7-6.5,23.6-12.1,34-7.4,13.8-28.8,0-39.1,5.3l-.2,3c8.5,15.5,25.7,18.4,38.2,29.5,25.7,22.8,30.1,61.1,20.6,92.5-2.5,8.2-10.6,25.4-9.9,33.1,0,.5.1,1,.2,1.5.6,5.2,8.7,46,10.3,47.6,3-.2,1.5.3,4.1-2.1,2-10.5,2-20.5,3.7-30.4,4.5-25.5,5.3-50.8,8.1-76.3l23.6-206.6,21.6-181c2.2-19.5,4.4-38.8,7.6-58.2,2.1-12.6-5.7-29.6-4.8-42.2.8-10.5,8.3-23.1,6.9-33.9-.6-2.5-3.5-8.9-6.4-10.5-4,.9-6.2,1.2-9.9-.9-17.4-3.2-13.3-16.8-12.5-31.2Z"/>
  <path fill="#95cc06" d="M415.7,29.3c14-15.7,30.4-11.1,48.8-11.2,1.8,0,6.7-4,8.9-4.1,8.4,1.1,18.6,3.1,26.9,4.2,4.8,4.7,5.5,8.4,13.2,9.3,68.2,8.5,136,20.6,204.2,29.6,5.2.7,12.4,1.6,17.4,3-12.9,4.7-48.9-1.7-57.3,1.3l.4.8h5.8c1.6,4.4,2.7,9.9,4.8,15.6l-2,2.1c3.7,4.1,4.6,1.2,7.8,5.9-.9,2.4-.5,1.4-2.9,3.3-4.7,0-10.3-.4-14.7,1.1-23,4.3-158.9-27.3-170.2-21-1.3,5.4,1.1,14.9,2.9,20.3,4.9,16.3,5.2,53.3-18.3,56.2-36.7,4.6-52.6-4.5-47.5-44.2,2-15.3,15.4-49.2-15.7-41.2-17.4-3.2-13.3-16.8-12.5-31.2Z"/>
  <path fill="#99d306" d="M481.5,43.2l2.6,1.4c2,8.1,4.5,10.4,0,17.9-2-1.6-3.6-2-5.9-2.9-2.6-4.4.5-12.6,3.3-16.4Z"/>
  <path fill="#99d306" d="M650.7,67.2c.9-1.1,2.3-1.5,3.6-1.1,1.3.5,2.2,1.7,2.2,3.1,0,1.4-.9,2.6-2.2,3.1-1.4.5-2.9,0-3.7-1.2-.8-1.2-.8-2.8.1-3.9Z"/>
  <path fill="#99ce04" d="M27,949c-5.4-16.5-3.2-39,1.9-55.6,1.2-4,9.2-1.7,12.9-4.6l.5-2.1-2.9-2.8,4.9-3.6c0-5.8-8.6-6.9,2.9-13.4l2.4-4.6h.9c0,0,.7,1.8.7,1.8,2.2-10.9-6.7-16.2,6.5-26.8,8.1-6.5,22.3-18.8,33.3-17.7,5.4,2.5,4.7,4.9,8.9,8.5,4-.2,8.1-3.4,8.6-3.3,6.5.9,11.5,2.5,18.4,2.8,1,2.2.9,1.3.7,3.7l1.4-1,.2-2.2c9,.6,11-.3,16.5,5.6l.5-2.4c2.2-.6,1.4-.5,3.8-.4l-.9-2.2c4.6-1.2,11,6,14.9,4.5,4.2-1.6,6.2-3.5,11.4-4.6l.2-2.4c3.6,3,3,4.6,2.9,9.1,5.8,4,7.5-9,15.8-4.6,15.4,8.1,23.7,4.3,36.3,17.4-1,2.3-1,2.3-2.6,4.1,4.4,1.8,6.7,2.3,11.3,3.3-1.3,1.6-.5.8-2.4,2.2-.5,3.2.3,4.1,1.7,7,4.3-4.2-2.4-2.6,2.4-5.5,3.6,2,9,6.5,11.2,9.9-2.4,3.2-2.9.3-6.9,3.5l.2,1.5c3,0,2-.5,3.9.8-.7,25.1,4.7,39.8,5,61.7l.4-2.6,1.3-.4c2.8,1.7,6.1,5.9,3.9,8.9-4.7,6.5-2.7,8.9-.3,15.8,1.7.5.8.5,2.7-.2l.3,2.1-2.9,2.5c1.6,3.9,3.8,3.1,7.8,3.1,4.2,3.9,8.6,9.9,11.1,15.2-2.7,2.1-3.7,0-6.1-1.8l-1.3.4c-.2,4.1-.9,2.6,1,5.1,5-.4,6.8-1.7,10.7,0,1.1,2.5,1.2,2.3.9,5-5.4,3.6-23.8,0-29.5,4.1-5.1,3.7-14.5-.9-18.8.9,2.6.9,4,.9,5.3,2.7-3.1,2.9-20.5,6.6-24,3.7l1.4-4.3c-2.1-1.9-1.1-1.1-5-1.5-1.7,18.4-13.4,5.2-24.1,10-.6.3-2.6.8-3.2,1l-2.1,5.9c-.7.3-24.1,2.9-26.9,3.1-9.5.8-28.3,11.9-34.7,11.4-.9-3,3.4-5.6-.3-7.8-7.1-4.3-35.4-.9-37.1-2.9-2.7-3.1-5-5.4-9.3-6.1-2.7,2.4-3.7,3.2-7.2,2.8-1-3-.8-1.4.7-5.1-2.4,1.8-1.3,1-5.1,1.1-1.3,1.9-1.2,2-1.8,4.2-4,2.5-4.8,2.6-8.9.9-3.8-4.2-5.3-10.5-7-16-2.4-1.7-2.7-1.7-4.6-3.9-.5-8.2,5.4-15,10.5-21l-.5-.7c-3.1,1.6-3.9,2.2-7.5,2-11.5-2.6-17.9-13.7-17.5-24.8Z"/>
  <path fill="#99d306" d="M27,949c.4-7.6,1.4-8.6,3.3-15.7,3-.5,11-1.2,11.3,2.9.3,3.5,3.8,4.4,3.6,8.2-3.4-1.7-3.5-2.5-6.8-2.3v1.7c-.1,0,3.2,3.7,3.2,3.7-.9,2.8-.2,1.5-3,3.5,2.5,2,5.6,3,6.8,5.7h-2.3c2.4,6.4,6,3.4.8,11.9.1,2.5,0,2.9.6,5.3-11.5-2.6-17.9-13.7-17.5-24.8Z"/>
  <path fill="#95cc06" d="M69.6,1007.3c2.1.7,4.4,1.4,6.4,2.3-2.7,2.4-3.7,3.2-7.2,2.8-1-3-.8-1.4.7-5.1Z"/>
  <path fill="#99ce04" d="M334.7,1603.4c-8.8.6-18.9,3.3-27.7,3.2-22.3-.4-42.8-2.6-65.3-1.8-19,.5-44.8,10.1-61.4-2.8-11.9-9.3-4.6-30.7-2.9-43.8,3.1.7,5.5,1.5,8.3.3-4.2-13.8-23.2-10.6-34.5-11.9-10.8-1.2-21.4-2-32.3-2.2,1,1.6,1.9,3,2.8,4.6l-.6,1.8c-1,.3-1.9.5-2.7,1.2-5.9,5.2-6-1.4-11.3.6l-.3,1c1.6,1.5,1.2.8,2,2.8l-1.3,1.1-3.6-1.2c-6.3,12.9-8.6,6.2-20,3.9-2.5-.5-5.3,3.7-9.9-.4,0-2.2,0-4.3,0-6.5l-2.8,1.5c-2.4-1.2-3.4-2-5.4-3.7-1.5,1.6-.8,6.4-.7,9.3h-.9c-.5-3.7-4.3-12.1-6.1-15.8l-.6-1.1c1.4-3,1.6-6,2.6-9.8,2.9-10.8,6.1-24.7,11-34.6.4-.9,9.4-6.4,10.8-7.3,1.6,1.4.8,1.1,2.4,1.2,1.6-3,1.5-3.2,4.4-5.2,6.8-.7,11.5,6.6,17.7,3.1l-.9-2,1.2-2.4c2.9-1.8,1.5-1.7,4.3-1.1l.6,1.3c-1,2.4-1.5,3.1-1.6,5.7l1.3.2c1.2-2.1,1.9-3.6,3.8-5,3,2.8,2.1,1.4,2.7,6.2l1.6.7,1.1-.7c0,2.3-2.9,4.3-4.9,6.2,1.5,4.2,1-.8,4.6,3.1l-.9,1-3.4-1.2c2.7,3.2,3.5,3.7,3.8,7.9l1.9-1.7h-1c4.8.6,9.8-.7,13.8,2.3,1.1,3.7.9,1.7-.4,6.1-2.6,1.4-3,1.2-4.6,3.4l1.8,2.8c9.5-4.5,32.8-3,44.2-3.5,15.8-.7,7.2-3.2,16.2-12.5,6.5-3.1,38-2.2,46.9-1.8,9.4,2.8,11.2,18.9,16.7,25.7,8,10.6,21.6,14.2,33.4,19.7,9,4.2,19.9,12,29.1,15.5,9.5,3.6,25.5,3.2,35.8,5.4,5.5,1.2,9.1,4.4,12.2,8.9.6,8.9,2.2,16.1-8.9,18.2-8.2,1.8-13.9,6.7-22,4.1Z"/>
  <path fill="#95cc06" d="M334.7,1603.4c-2.3-2.3-8,.9-12-1.7,1.5-1.9,1.2-.8,1-3.2l-3.8-2.4c6.6-4.2,26.7-5.1,34.4-1.5,2.2,1,1.8,2.1,2.4,4.6-8.2,1.8-13.9,6.7-22,4.1Z"/>
  <path fill="#99d306" d="M82.3,1521c4.2-1.2,9.6,1.7,12.8,4.4,1.4,3.7,1.2,1.8.5,5.9-4.6-1.8-7-2.6-11.2-5.2-1.2-2.3-2.2-2.9-2.1-5.2Z"/>
  <path fill="#99d306" d="M67.1,1542.1c2.3.4,2.2.3,4,1.7l-.5,3.9c-2.7-1.2-2.7-1-4.2-3.5l.7-2.1Z"/>
  <path fill="#99d306" d="M286.4,313.9c10.4-2.3,19.1-1.8,24.6,7.7,4,1.9,1.5-1.6,5.5-1.6,8,0,10,2.4,15.8,6.1,2.1-1.1,1-.7,3.4-1.3l.9,1.4-2.5,2.5.2,1.6c4.7,3.8,9.5,2.8,11.8,6.2-2.2,4.4-3.4,5.4-2.8,9.8,2.7,0,6.8-.8,9.6-1.2,5.8,7.1-3.5,10.2,9.2,23.2,6.7,1.9.9-.9,6.3-.9.2,2.4.3,1.2-1.3,3.7-2.5.4-8.3,1-9.8,2.4,6.4.2,6.1,0,11,4.1v1.6c1.3-.6.5-.3,2.3-.6l1.9,1.7c.9,7.4,1.3,11.7-5.7,14.6-4.9,2,.4,8.5-.4,13.2l-3.3,2.3c-1.6,6.3,2.5,19.3,2.9,26.1l-.8.6-2.2-1.6-1.8,2.8-2.5.2-.5.6c1.7,1.7.7,1,3.8,1.3l.9,1.8c-1.7,7.4-5.6,15.8-8.4,23-2.1,5.4-5.3,19.7-10.4,21.8-4.8-3.8.5-3.2-5.7-6.3-1.2,0-.4,0-2.3-.6l.5-2.7-1.6-.9c-4.8,1.3-7.8,8-10.6,8.7-18.5,3.3-11.6-9.1-13.3-19.5-1.5-9.3-5.5-21.1-8.3-30.3l-2.3.2c-.2-.2-.4-.4-.6-.6-.3-.3-.6-.6-.9-.8-.6-.5-1.1-1-1.7-1.5-14.4-9.3-31.4-15.1-48.6-15.6-2.5,0,1.2,1.3-3.5,2-5.3-3.7-1.9-11.5-4.5-17.3-1.9-4.8-2.3-9.8-2.8-14.8-1.7-18.3,2.6-40.9,25.5-40.5,1.9,0,3.2-1.6,4.7-2.8-8.1-2.2-2.6-1.2-5.9-7l-2.1,2.3-.2-.8c2.7-4.5,6.3-4.9,10.6-1.9-.6,1.8-.6,1-.2,2.5,1.3.2.6,0,2.1.7l1.2.5c2.3-1,1.2-.4,3.3-1.9l-.9-2.3c-2.6-2.1-6.3-3.9-5.5-7.4,6.2-4.1,5.9-5.7,8.6-12,2.3-1.6,4.6-1.7,7.4-2.2Z"/>
  <path fill="#99ce04" d="M245.6,374.4c3.5.3,3.9.1,7.2,1.6,1.5,2.7,1.1,1.2.5,4.8-2.1.7-1,.6-3.2.5-1.8-2.4-3-4.3-4.5-6.9Z"/>
  <path fill="#99ce04" d="M346.2,365.3c1.9-.2,3.6-.2,5.4-.3,2.4,1.9,1.5.6,2,4.1-3.1-.2-3.8,0-6.7-1.3l-.8-2.5Z"/>
  <path fill="#fcfdf8" d="M292.2,768c6.3,5.9,8.3,41.9,11.2,53.1,6.8,25.7,20.1,37.9,33.1,59.7-.7-1.2,5.1,39,4.8,39.9-3.5,12.7-9,28.8-8.4,42.8,1.5,23.5-12.2,20.7-29.7,20.4-14.9-1.7-9.9-9-16.4-16-19.6-21.2-22.8-44.8-28.8-72.1-5.9-26.7,11.7-40.8,16.1-63.4,6.1-31.7-2.9-34.9,18-64.3Z"/>
  <path fill="#fafcf0" d="M181.5,1201c5.7,4.3,7.8,25.4,7.9,32.4v2c0,7.5-17.7,42.1-21.4,51.2-18.5,45.9-8.2,77.4,4.7,122.3,8.2,28.3,11.3,72.5,9.4,102.5-.1,2.2-1.2,4-3,5.2-5.1.1-9.2-1.8-14.1-3.5-7.4-4.6-21.6-5.1-29.7-14.6-9.4-11.4-10.8-33.6-9.9-48,3.7-57.5,20.7-113.7,25.2-170.9.7-8.9,25.9-73.9,30.9-78.6Z"/>
  <path fill="#fcfbfc" d="M144.1,1361.4c5.1,0,6.1.4,10.1,4.2,4.7,17.8,8,33.2,9.7,51.6.9,9.7,7.7,22.5,4.1,32.2-2.9,7.9.5,7.2,2.8,14.1.2.5-3.1,5.8-2.5,9.1,10.5,8.4-1.2,6.4,6.2,21.3-.7,8-.9,10.2-8.8,10.1-4.7,1.3-14.3-3.4-17.1-7.7.5-5.9.9.2,2.7-3.7-2.8-.5-16.4-2.5-16.5-6-.4-21.5,2.7-43.5,2.4-65.2,0-2.9,8.8-16.8,10.7-20.4-.7-7.3-2.5-1.8-3.3-9.1-1.1-9.3,2.8-22.2-.6-30.3Z"/>
  <path fill="#fcfdf8" d="M178.6,1230.2l.8,1c1.4,7.9-6.8,28.1-10.7,35.6-2-.4-1.3-.2-3-1.3-2.6-8.6,8.5-26.8,12.9-35.3Z"/>
  <path fill="#99d306" d="M395.7,949.8c10.2.2,20.2.1,24.1,10.5-1.7-1.2-1.8-1.8-3-3.5-3,2.3-5.9,4.1-7.4,7.5l.7,1.6c7.1,2.2,13.4-4.7,19.1-4.4,4,3.4,7,5.8,10.5,9.8-.7,2.8-1.2,4-.8,6.8l1.5.4c.6-2.3.3-1.7,1.4-3.9,8.3,6.9,16.4,9.1,22.9,18.4,0,4.3-3.1,6.3-2.4,10.8,1.9,1.3,2.9,2.1,5,3.1-.4-4.2-1.6-6.3,0-9.2,4-.3,13.3,4,19.3,4.6l.7,1.3-2,2.4c2.1,1.9,4.4,3.3,5,5.9-3.4,1.4-7.5-.9-12.7.7-1.9,10.1-6.3,6.9-13.9,10.2-.9.4-4.8,4.3-5.8,5.3-1.4-1.3-1-4.9-1.1-7.5l-1.1.4c-2.4,3-1.9,1.5-1.3,6.3-2,2.5-.8,1.4-4.4,2.5-3.6-1.4-2.4-.8-4.9-4.6l-.3,3.2-1.3,1c-6.2-4.2-5.1-3.3-11.1.9-2.7-2-4.7-3.3-7.6-5.1-2.2.7-4.3,1.4-6.5,2.1-4.3-3.6,2.1-2.3-5.7-7.8l1.5-3.7c-.7,2.5-1.2,3.6-.6,6.2l-1.4.5c-5.2-1.4-15.3-1.3-17.8-4.8-6.4-9.3-10-4.4-18.1-5.8l.2-.9,7.7-3.4c-2.3-3.6-10.5-8.3-14.3-10.3-.6,1.5-.8,2.2-1,3.8-1.6.4-3,.8-4.6,1.2l.6,2.7c-3.7,1.2-7.3-.9-12.7-.4-1.1,1.8-1,.9-.9,2.5,1.3,1.9,2.8,2.1,5.2,3.3v1.2c-4.7,1.2-28.4.5-31.6-2.5,3.3-.7,3.3.3,6.6-1.5,1.5-3.1,1.2-3.2.8-6.6-4.9-2.6-11.1,1.4-12.6-4.5,6.6-2.3,9.5-2.4,14.5-7.4l1.3-1.3c3.1,0,5.3.5,8-.9.6-1.9.8-2.4,1.7-4.2,4.9-1.3,6.5,4.8,10.2,6.6,10.3,5,23.7,7.3,34.9,8,2.2-1.8,1.2-1.5,3.7-2.1,1.1,2,1.4,2.6,2.8,4.4l1.4-.7c.2-2.3.3-2.2-.5-4.3l-2.7.5c-.9-3.4,1.9-6.8,1.4-9.6-1.5-9.2-6.3-27.5-.8-35.7Z"/>
  <path fill="#fcfdf8" d="M362.4,917.3c13.8,4,27.3,38.7,24.9,52.2-1,5.6-.6,14.9-5.1,18.8l-2.7-.5c-4.5,1.1-9.5.8-14.2.8-17.1-12.5-7.6-12.7-4.2-28.4,2.6-12.1-6-31.3,1.3-42.9Z"/>
  <path fill="#fafcf0" d="M223.8,1240.7c2.7,1.4,3.2,1.2,4.8,4.3,5.1,9.8-9.1,68.2-15.3,70-2.6-2-2.8-2-6.1-2.1-1.3-8.4-2.5-1.2-3.1-8.3-.5-5.6,3.7-12.9,2.2-16.7l-2.5,2.2c1.3-10.4,10-35.4,16.2-44.1l3.8-5.4Z"/>
  <path fill="#faf908" d="M313.3,643.7c15.3,4.5,10.2,10.9,17.8,14.3,2.5-.4,3.5-.8,6-.3,1.5,2.5,1.2,5.9,1.3,9,2.4,1.7,3.7,2.3,4.7,5-8.9,10.9,4.8,7.9,1.5,16.7l-2.7.8c1.4,1.7,1.7,1.4,3.8,2.3l-.3,1.3c-5.3,3.6-5.3,3.4-11.1,5.8l-1.7,1.4-1.3-.5c-.4-2.2-.3-2.5-1.2-4.5l-2,1.5-1-.4c-.4-4.6-2.4-7.3-3.1-11.9-.9-6,6.7-6.1,9-12.9l-1.1-1.8h-1c-3.4-.1-3.1,0-6.4-1.7l-2,.9c-.2,2.3,0,1.6-.8,3.9l-3.8-4.5c-3.2,0-2.3.2-5.2-.6-2.7-4.7-2.5-19.1.4-23.7Z"/>
  <path fill="#f8fde1" d="M231.1,677.1c2.2-.4,1.3-.3,3.7.4,15.3,20.8-1.7,17.1-9.2,34.5l1.9,3.8c-1.7,2-1.5,2.1-3.9,2.8-3.5-.6-6.1-.5-8.6-2.9-.7-3.2-1-3.2.3-6.1,11.8-9.6-2.5-29.4,15.8-32.6Z"/>
  <path fill="#faf908" d="M283.8,621.4c6.1,0,6.1,0,11.3,3.2l1.1.7.3-3.9.9-.4c2.1,5.2,2.5,18.7.8,24.1l-1.2-.2-1-3.7c-3,.1-3.8.7-6.4,2l-.9.4-1.8-1.8c-1.3.7-2.5,1.2-3.8,1.8-3.8-1.2-4.5-1.2-7.4-3.6-1.4-3.3-1.5-1.8-.5-4.8l2,1.7,1.6-.5,1.6-3.5c-1.1-2.2-1.2-2.1-1.5-4.5l2.1-2.4h1.4c0,0,.7,1.6.7,1.6l1.7.3c2.5-1.8,3.3-2,4.8-4.8l-.2-.3c-1.7.1-3.4.3-5.1.4l-.5-1.9Z"/>
  <path fill="#f8fde1" d="M184.4,1400.3c4.6,1.1,5.1.5,6,4.8,1.8-2.2,2.1-2.6,4.2-4.5l.9.7c1.5,12.4-1.5,19.7-2.7,31.5-.7,2.8-.5,2.7-2.2,4.9h-1.7c-.8-.9-1.8-2.2-2.1-3.2-1.8-7.8-5.6-27.4-2.4-34.2Z"/>
  <path fill="#99ce04" d="M291.3,992.2c.7-.2,1.3-.3,2-.4,5.1-1,6.6-.5,10.7,2.3.7,1.4,3.2,1.6,5.1,5.6l-1.7,1.4,1,3.3.3.6c-8.2-.8-13.7-.1-18.8-7.4,0-3.1-.2-2.9,1.5-5.4Z"/>
  <path fill="#effd9b" d="M349,935.1l1.4,1c2.7,5.7,2.9,13.4,1.2,19.5-.9,3.2-2.7,3.2-5.8,4.6-2.5-2.6-4.1-3.2-4.1-6.8,0-6,3.3-13.8,7.2-18.3Z"/>
  <path fill="#f8fde1" d="M318.2,732c2.4,5.8,6.1,23.5,1.8,28.4l-1.6-1c-2.6-7.8-1.2-14.9-5.1-22.1l.8-.9,2.5,1.6c1.6-1.6,1.2-3.1,1.5-6Z"/>
  <path fill="#f8fde1" d="M116.2,774.3l2.5,2.1c1.7,8.7-2.2,13.4-6.9,20.5l-1.9-1.9c-.9-7.2,3.4-11.6,6-19.5l.3-1.1Z"/>
  <path fill="#effd9b" d="M151.4,557c5.9,4.6-1.2,13.1-4.2,17.4-4.7-6.5-1.7-13,4.2-17.4Z"/>
  <path fill="#f8fde1" d="M242.7,644.1c2.6-.8,2.2-.3,5.5,1.2,1.8,3.1,1.6,1.6.8,4.8-2.9,1.9-1.3,1.3-5.1,1.3-3.9-.8-7,.3-9.2-3.5,2.3-1.9,3.6-1.8,6.6-2.2h1.1c0-.1.3-1.5.3-1.5Z"/>
  <path fill="#f8fde1" d="M151.1,797.7c2,1.6,1.4,1,2.7,3.2-1.4,5.1-5,6.8-9.4,9.2-2.6-.8-1.6,0-3.2-2.1,1.5-4,6.2-8.1,9.9-10.2Z"/>
  <path fill="#a7b569" d="M230.5,1019.7c1.4,1.3,3.3,3.7,3.5,5.6.3,2.7-1.2,13.2-2.5,15-1.9-5.3-4.4-9.8-3.1-15.3,1.6-1.6,1.4-2.7,2.2-5.3Z"/>
  <path fill="#fafcf0" d="M226.9,1051c7.8,1.8,7.7-1.3,11.1,6-4,1-5.5,2.9-9.5,2.5-2.1-3.1-1.4-4.1-1.6-8.6Z"/>
  <path fill="#fafcf0" d="M172.1,1078.2c8.5.8,8.1,6.2,9.4,13.3l-3.7-1c-4.2-3.9-4.9-6.7-5.6-12.4Z"/>
  <path fill="#f8fde1" d="M201.5,1058.7c1.8.4,1.3.1,2.7.9,1.4.7,1.6,2,2,3.5.8,3.4-.3,6-1.8,8.9-1.9.9-.9.8-3,.2-2.1-3-.4-9.6.1-13.4Z"/>
  <path fill="#fafcf0" d="M79.7,1414.8c5.3,3.8,6.5,7.7,4.8,13.7-2.3,1-1.1.8-3.7,0-2.8-4.3-2-8.7-1.1-13.6Z"/>
  <path fill="#f8fde1" d="M364.3,841.1c6.7,2.5,8.4,5,6.8,11.7-3.8-.7-4-.8-6.5-3.2-1.3-3.8-1-4.4-.4-8.6Z"/>
  <path fill="#f8fde1" d="M141,594.1c2.5,1.5,1.6.8,3.4,3.2.4,3.9-1.9,7.4-3.9,10.8l-3-2.2c-.5-5,.7-7.7,3.5-11.8Z"/>
  <path fill="#f8fde1" d="M236.8,1214.9c1.8.3.9,0,2.6,1.4,1.2,4.8.5,9.3-1.1,14-4.2-6.7-6.3-8.6-1.5-15.4Z"/>
  <path fill="#f8fde1" d="M230.7,1384.5c8,1.3,5.5,7.6,3,12.9-4.9-3.4-3.8-7.8-3-12.9Z"/>
  <path fill="#effd9b" d="M217.3,573.6l1.7.9.7,2.5c-1.1,3.2-1.8,3.2-4.5,5.3-1.7-1.8-1.6-1.7-2.5-4,1.2-3.2,1.2-2.3,4.6-4.7Z"/>
  <path fill="#effd9b" d="M136.1,651.2l.8.5c1.3,5.1,1.3,6.4-1,10.6-2.2-3.3-2.6-3.6-2.9-7.4,1.2-3.3.1-2.2,3.2-3.6Z"/>
  <path fill="#99ce04" d="M193.8,601.2c3.6,4.5,5.8,8.2.6,12.7.4-1.4.6-2.5.8-4l-2.9-3.6c-.4-3.6-.7-1.9,1.5-5.2Z"/>
  <path fill="#f8fde1" d="M215.9,1026.2l3.5.2c3,2.1,2.2,2,4,5.9-2.3,0-4.1-.1-6.4-.3-1.9-2.4-1.3-1.7-1-5.8Z"/>
  <path fill="#f8fde1" d="M340.2,566.9c4.6.6,5.5,3.5,4.8,7.7-2.2-.5-2.4-.7-4.5-1.5-1.4-2.9-.9-2.3-.3-6.2Z"/>
  <path fill="#fafcf0" d="M258.6,1222.7c6-.9,6.8-2,9.5,3.4l-4.3.9c-3.7-1.2-2.5-.7-5.2-4.3Z"/>
  <path fill="#effd9b" d="M115.2,690c2.2,1.5,1.5,1,3.2,3.3-.7,3.3,0,1.7-3.2,4.5h-1.7c0-.1-.7-1.2-.7-1.2l2.4-6.6Z"/>
  <path fill="#a7b569" d="M954.6,149.4c2-5.5-1.1-8.5,2.8-14.5,3.5-1.9,1.7-1.5,5.6-1.3,7.5,1.1,15.1,2.2,22.7,1.5,4.6,9.6,7,12.9,7.2,23.5.3,19.6,0,39.4,0,59v117.9s.3,279.6.3,279.6c0,4.3.8,48.1.3,48.6-11.7,14.8,5.9,42.8-21.5,36.9-16.3-4.8-1-53.1-15.9-50.2-7.1,8.7-2.6,42.5-8.3,50.4-5.3.9-12.1-1.5-17.1-3.3-2-2.3-4.1-26.4-4-30.3l-2.9-3.2c-.6-7.5.4-26.2.4-34.8v-78.6s-.3-262.9-.3-262.9c0-10.6-1.3-73.8,1.4-77.9,3.5-2.8,7.5-2.5,12.2-3.1,9.7-7.2,10.7-4.3,15.1-17.5,3.7-11.2,8-28.8,2-40.1Z"/>
  <path fill="#fcfdf8" d="M937.4,206.9c4.8-.8,9.3-2.5,13.5-1.4,1.8,1.9,2.3,2.7,2.4,5.8.7,19.3.4,39.3.4,58.6v111.8c-.1,0,0,163,0,163,0,33.1.4,66.3-.8,99.4-.2,4.6-.8,5.1-3.3,8.9-.4,9-.5,36.7-3.3,43.3-3.8,2.9-12.4,3-14.5-2.1-3.7-9,.8-18.5-5-26.9l-2.9-3.2c-.6-7.5.4-26.2.4-34.8v-78.6s-.3-262.9-.3-262.9c0-10.6-1.3-73.8,1.4-77.9,3.5-2.8,7.5-2.5,12.2-3.1Z"/>
  <path fill="#fcfbfc" d="M933.8,222.1c2.5.6,1.6.3,3.9,1.8,1.6,3.1,1.4,3.1.9,6.5-3,.6-1.8,1-3.9-.4-.7-3-.7-4.9-.9-7.9Z"/>
  <path fill="#fcfdf8" d="M932.1,296c2.6,2.2,2,1.2,3.3,4.1l-1.7,3.6c-2.5-2.8-2.3-4.2-1.6-7.7Z"/>
  <path fill="#fafcf0" d="M961.2,137.2c6.3-.6,14-.2,20.5,0,5.6,5.6,10.2,15,10.1,23.1-.2,20.2-1.5,40.2-1.5,60.5v174c0,0,.2,186,.2,186v51.5c0,3.5,1.2,17.8.8,19.6-3,12.4-4,31.7-6.9,43.2-2.2,2.4-4.1,2.3-7.4,2.8-3.1-.4-3.1-.3-6-1.5-6-6.5-4.9-33.4-5.1-43.7-2.3-2.5-5.3-5.2-5.5-8.5-1-15.5-.8-32.2-.8-47.7.2-27.9.1-55.8-.1-83.7v-223.4c0-30.6.2-61.1-.7-91.6.2-11.1,5.6-21.1,4.4-32.5-1.1-10.9-9.5-17.8-2-28.1Z"/>
  <path fill="#fcfdf8" d="M966.2,194.6c2.6-7.8,8.6-26.7,12.3-32.8l1.3-.5c.6,2.2,2.1,6.7,2.5,8.6,4.8,20.9-8,47.2-2.5,68.2,1.7,6.3.3,9.9-3.2,15.3,2.1,5.7,2.5,6,2.4,12.6,0,5.8,2.5,16.8,1.3,22.3-4.3,19.4.5,36.3.6,54.7.9,96.4.3,192.8-1.6,289.3,0,1.9-.7,9.1.2,10-.3.6-.6,1.3-1.1,1.8l-2.8-1.1c-.3-2.2-.6-2.1-1.8-3.7-5.4-6.9-3.5-23.1-2.8-31.3l-.6-1.3c-6-11.8.1-9.9-.5-18.3-.8-10.3,1.8-23.6-1.7-32.7-2.8-5.5,3.9-15.1,1.3-22.7-.9-2.7-2.4-11.9-2-14.3,1.5-1.5,2-2.1,3.1-3.9-2-10.1-3.6-21.9-2.3-32.2,1.4-11.5,4.3-12.3-1.5-21.5l.3-2.1c1.7-.9,1.4-1,3.2-1.3-1.5-4.6-2.7-.3-2.5-2.8.3-5.9.3-41.2,1.4-44.5l2.7-1.6c-1.4-2.1-1.8-2-4-3.4-1.7-6.5-2.1-11,2.8-16.1v-1.9c-2.3-1.1-1.2-.7-3.5-1.4.8-12.8,1.4-25.3,1-38.2-.1-5.9,1.6-12,.1-17.8-.3-1,3.1-4.3,3.9-5.1l3.6,1.6-.6-2.3c-2.8-1.3-3.5-1-4.8-3.2l1.8-7.2c-4.7-5-4.3-3.1-4.7-10.8-.4-8.2,5.1-2.9,1.9-9.7-4-8.5,0-26.3-.8-36-.5-6.7-4.3-11.8-3.7-19.3,1.2-14.2.4-29.3,1.3-43.3Z"/>
  <path fill="#fcfdf8" d="M976.4,648.1c-.8-.3-1.4-1-1.5-1.9,0-.9.3-1.7,1.1-2.1.8-.4,1.7-.4,2.4.1.9.6,1.2,1.8.7,2.8-.5,1-1.7,1.4-2.7,1.1Z"/>
  <path fill="#99d306" d="M735,60.1c7.7.2,24,3.6,32.5,4.7,24.1,3.1,49.1,7.9,73,11.2,1.5,2.6,1.9,3,1.7,6-2.2,2.4-2.7,2.6-5.3,4.4l-.3,1.4c2.6,2.4,13.9,0,17,2.4l-7.2.4-.4.8,6.7,2.9c7.8,3.5,13.4-1.8,21.1-1.2,7,.6,13.7,2.2,21,3,2.3-1.5,2.5-1.7,4.5-3.6,7.3,0,6.1,6,16.5,6.8l.7,1.7c-2.8.7-2.5.4-5.6,0,2,1.6,1.7.6,1.9,2.6l-1.5,2.3c4-.2,6.3.2,9.1-3l-.6-3.8c4.1,0,6,3.1,8.6,6.1l2.5.8c2.6-5.5-.6-4.5,3-6.9,4.6,1.6,3.5,1.8,7,6.1l.8-3.3,2-.9.5,2.7,1,.3.3-2.8,1.9-1.2,1.5.8c.5,2.4.3,2.1,1.8,4l1,1.4c-1.3,1.6-.5,1.1-2.3,1.5l-.6,1.7-5.1.3-.3-2.5.5-.2v1s-.7-.7-.7-.7l.9.4c-2.2,2.1-.9,1.3-4.1,2.1,3.5.4,4.9,1.3,8,2.8,6.1-2.1,7.4-4.9,11.5-6.3l2,2.3c.2-2.2.5-4.1.8-6.2,2.7-1.7,1.2-1.3,4.7-1.3l4.1,4c2.1-.1,1.8-.5,3.4.7l1.3-.8c5.1,1.2,14.3,4.3,16.5,9.6l-1.2,1.1c-7.3-.6-4-1.4-9.6,3.1-9.3,7.4-6.8,10.6-18.6,14.3-3.9-.1-2.1-.5-5.6,1.3-3.9,5.9-.8,9-2.8,14.5-3,.9-1.6,1.1-4.3-.3-2.5-6.3,0-8-3.2-11.9-3.9-1.4-2-1.3-5.8-.4-3.3,4.4,3.2,13.6,3.5,20.3,0,1.8,1.1,8.9,1.3,10.3-1,2.1-1.4,2.3-1.5,4.4-.1,3.4-6.5,9.7-6.1,12.9.2,1.5,0,1.5-.3,2.1-1.2,2.8-1,2.7-3.3,4.5l-1.6-.9c-2.3-1.4-2.8-1.9-4.6-3.8-2.1,1.6-2.6,3.6-3.9,4.4-15.6,2.2-13.6-3.8-18.7-14.1.2.5-2.1-2.7-2.4-3.3.3-1.2,1.4-3.8.6-4.9-5.8-8.9-3.4-9.9,2.5-15.2-2.8-3.7-20.5-10.8-22.5-4.3,2.8.4,3.5.2,6,1.7,1.9,4.9-1.9,4.1,0,12-11.6,13.7-10.9,27.5-13.4,42.8,0-7.1-4.3-20.1-7.5-26.4l-1.4-.8-1.6,6.8c-1.8,7.6,6,51,3.8,63-.7,3.8-3.4,3.3-3.6,4.7-.3,2.5,1.5,7.5-.1,9.6l-3.1-1.9-1.4.9c.6,5.5.4,4.8,5.2,7.5,1.5,4.4-3.5,10.4-1,16.7,2.1,5.2,1.7,15.4,2.9,20.8,3.3,15-3.8,25.2-6.2,39,.1-.6,4.3,7.6,4.8,10-1.6,2.3-2.5,2.6-4.9,4.1-.2,5.3,1.8,10.1,3.4,15.3-1.8,1.7-.9.9-2.9,2.4,2.3,1,1.1.6,3.6,1.3-1.8,9.3-7.2.1.5,16.4,2.1,4.4,1,28-.7,33.1-1.5-1.5-2.8-2.9-4.7-3.8-.7-3.4-.8-8.8-1.2-10.3-4,1.3-6.9,2.6-11.2,2.8l-1-1.6c.3-4.1,3.1-5.3,2.6-7.8l-4.2-2.9c.6-2,.4-1.5.9-2.9l.3-.9c-1.2-.7-2-1.2-3.2-2l2.3-2c-2.5-3.2-5.6-4.5-6.4-8,1.7-4.1,3.3-5.8.8-9.6-3.1-.9-1.7-1.1-4.3.2l-.4-.3c-1.8,2.2-1,2.7-.9,6.5-2.7,2-3.6,2-4.1,5.7-1.2,9.8-.4,19.7,0,29.4.2,3.2-1.1,2.6-.3,5.9l-1.7.6c-1,2.1-3.7,6.9-4.4,8.7-.8-47.3.6-96.6,1-144.2-.3-16,.7-31,.7-46.7,0-26.1,0-49.2,4.6-75,2.4-13.6,15.5-22.1,15.7-31.3.3-12.1,12-10,13.6-19.1-5.9-3.2-60.8-9.7-72.6-11.7l-2.6-1.3c-1.3-4.2-6.2-5.8-9.3-8.5-.6-.5.3-4.7-1.5-6.6-2.1,1.6-3.1,2.3-5.3,3.6-4.9-3.2-9-6-14.3-8.6l-1-.5c-.6-2.5.2-5,.6-7.7l-1.1-1.1c-1.4,1.9-2.6,1.7-5.2,2.7-.8,3.3,1.4,1.9,1.9,6.5-5.6,1.1-8.9-1.3-15.6-.6-19.7,2.2-38.6,5.7-58.6,4.2,4.4-1.5,9.9-1.1,14.7-1.1,2.4-2,2-1,2.9-3.3-3.2-4.7-4.1-1.8-7.8-5.9l2-2.1c-2.1-5.8-3.2-11.3-4.8-15.7h-5.8s-.4-.7-.4-.7c8.5-3,44.4,3.4,57.3-1.3Z"/>
  <path fill="#95cc06" d="M788.9,108c11-1.2,25.9.8,33.5-3.3,2.2-1.2,3.7-1.3,6.2-1.8,1.3-1.8,1.3-1.9,2.1-4h1.9s.6,1,.6,1l-2.3,1.4c2.6,1.2,5,.2,7.9-.5,10.3,3.2,17.6,7.6,28.4,5.6,2.3-.4,4.3.4,6.5,1.2.7,1.5,1.4,2.6,2.4,3.8-7.7,9.4-4.1,14.1-8.6,23.6-.5,1.1-9-.5-12.8,4l3.7.2-.3,1-2.6,1.3.3.7,2.7-.7.5.7-4,4.2,2.9,1.5-.4,2c-2,.9-3.9,1.9-5.8,2.8l.6,1.3,4.7.5c-1.9,4-7.6,3.8-8.1,6.5l3.6.3.9,1.1-1.2,2c-3-.3-4.1-1.2-6.7-2.6l-.6,1.2,4.6,5c-.9,3.8-4.2,6.6-6.9,9.2-5.1,4.9-5.4,19.6-5.5,26.3,0,2.5-.5,9.8,1.2,10.9.6.4,2.9,2.1,3.6,2.6l.5,1.8c-1.2,1.7-5.7,8.2-5.7,9.7,0,14.8,0,32,0,46.6,2.6,3.9,3.6,3.9,3.8,7.9-9.3,11-.7,8.1-3.6,16.9l-.9-.5v-4.7c-1.3,1.3-1.4,1.5-2.4,2.9-3.6-2.8,0-11.4-1.4-16.7-2,3.3-4.6,6.9-5.3,10.6-.3-16,.7-31,.7-46.7,0-26.1,0-49.2,4.6-75,2.4-13.6,15.5-22.1,15.7-31.3.3-12.1,12-10,13.6-19.1-5.9-3.2-60.8-9.7-72.6-11.7Z"/>
  <path fill="#95cc06" d="M836.2,301.8c.2.4,1,1.6,1,2.5.2,8.8,0,17.7.3,26.5-.6.8-1.2,1.6-1.9,2.5-9.3-7.5,0-23.9.6-31.5Z"/>
  <path fill="#99ce04" d="M853.8,328.1c2.1,1.7,1.9,1.5,4.5,2.3l.4,1.1-3.4,2.8-2,.4c-1.8-2.1-1.2-.9-1.8-3.8l2.3-2.9Z"/>
  <path fill="#95cc06" d="M801,86.6c4.9,2.4,4.1,3.2,4.3,8-4.6-4.9-4.3-3-4.3-8Z"/>
  <path fill="#fcfbfc" d="M907.9,666.6c-3.2.1-4.4,0-7.3,1.4-6.6,6.9-3.9,20-8.9,23.6-6.8-2.4-.6-6.5-3.6-12.7-1.3.2-2.1.2-3.4.3-1.5-1.9-2.1-2.8-1.8-5.4,1.9-17.2,0-33.9-.2-50.9-.3-22.3.6-44.5,0-66.8-.2-7.7,2-16.9,1.8-24.7-2.1-14.9,0-27.7.8-42.6l1.2-.6c1,2.5,1.4,3.7,2.7,6.1.9-4.9-.2-11.6-.3-16.7-.3-17.1-2.4-50.3-.1-65.6,1.2-8,.4-14.3.2-22.2-.4-16.7-1.8-34.2-1.1-50.8.3-6.9,3.8-40.7,2.3-44-2.9-6.5-1.1-89.5,1.2-98.6,3.5-.2,5.3,1.5,8.5,3.4,3,1.8,3.5,1.1,7.5,1.2.8,1.4,2,3.7,2,5.3-.3,12.5,1.9,59,0,68.2.8,33.5-.1,67.5.2,101,.8,86.8-1.3,174.5.3,261.3.3,5.6.6,25.4-1.9,29.8Z"/>
  <path fill="#fcfdf8" d="M909.8,636.8c-.8-.6-2.1-1.7-2.9-2.4-6.6-23-7.9-49.4-7.9-73.3,0-8.9.9-18,.4-26.9-.4-7.4-5.6-22.9-2.2-29.2,1.2-2.2,3.2-5.1,3.9-7.6,1.9-7.4-1.2-84.1-3.1-87.2-.3-.5-.7-1.1-1.1-1.6,4.4-18.4,4.9-53.2,6.9-73.4.2-2.3-4.4-17.1-4.1-22.8.6-12.2,7.1-25.7,9.2-36l.4-1.9c.8,33.5-.1,67.5.2,101,.8,86.8-1.3,174.5.3,261.3Z"/>
  <path fill="#99d306" d="M823.2,690.8c-1.7-15.2.5-46.9.6-63.9-.1-29.4,0-58.8.3-88.2.1-7.9-.4-22.5.7-29.4.8,7.1,1.7,14.1,2.6,21.2l.9.2c2.9-2,16.5-.6,19.2,1.2l.9,2.2c-1.3,2.7-1.6,2.5-4.3,4-.5,3.3,2.8,8.4,4.5,11.6l1.1.8c-.3-2.4-.1-2.3-.9-4.6,6.6,2.5,3.1,1.2,9.7,1.4l2,2.8-.4,1.1-1.4.7c.2,13,0,26.6.8,39.5.1,1.9.2.3-.1,2.8l-1.7,1.4v.5c-1.3,2.5-1.9,3.6-2.4,6.4l.6.8-1.2.9c0,2.2-.3,3.6-.8,5.8l1.8-.2c2.6,1.9,2.5,1.7,3.5,4.7-5.5,11.1,5.1,14.2-2,18.8l2.5.9c.7,4.2-5.4,10.8-5.8,15.2-.5,5.4,4.2,12,3.7,17.5l-3.9,3.5c0,2.9,4,7.4,6.1,9.7-2.5,5.7-7.4,7.5-5.4,10.7,3,4.8,6.2,6.1,6.7,12.2-3.1,8.5-.5,13.8-2.5,18.4-3.2,1.6-5.8,3.7-6.2,7.5,2.7.6,2.2.5,5,.6,2.3,2.6,1.6,2.2,2.2,6.2l-2.3,1.4c-2.4,2.1-1.6.9-2.4,4-1.8,2.5-1.3,2.5-1.9,5.5l1.1,1.6c4.9,7.4,1,13,4.3,20.5h1.1c0,.1,1-1.4,1-1.4,1.8,5.9-1,11.2-3.2,17.3h-3.4c-1.5,2.6-1.4,6.3,0,8.9,2,.8,2.2.8,4.3,1.1,1.5,4.4-.6,17.2-1.2,22.1,0,.3,2.7,2.7,3.3,5l-1.1,1c-.6-.6-1.3-1.2-2-1.8-2.9,2.8,1.3,4.8,0,9.9l-2.3-.7c-2.1,7.8,4.6,5.4-4.6,15.1,2.5.5,1.9.5,4.5.5-2.8,5-.6,7.1.8,14.8.4,3.5,1,9.1-1,12.1-6,.8.9-3-6.2-1l-.3-.7c-.6,8.4.9,4.5,1.7,9.1-5.6,3.2-6.7-.3-13.5,5.2-10.6-13.5-3.2-30.5-7-44.5-.9-3.4-1.9-6.3-1.1-9.8,2.3-1.2,2.5-1.1,4.1-3-5.6-7.8-.3-1.9-2.3-9-.6,1.8-.3.8-1.2,3.1l-1.9.2c-3-2.4,4.9-25.9,3.6-35.8l-.2-1.9c1.5-3.7,3.6-5.1,6.6-7.9l2.7,1,1-1.4-.4-1.7-3.3,1c-1.8-1.1-1.7-1.9-2.8-4.3-2.9-1.4-1.3-1.1-4.8-.5l-.8-2.3,1-1.9c2.1.2,2.6.6,4.4,1.7.5-2.5.3-2.2.3-4.8-1-.6-1.8-1-2.9-1.6l-1-.5c3.2-17.8-9.6-27.6,5.5-39.3-3.2-.9-3.1.4-6.8-1.6v-2.1c-1-5.9-5.1-6.4-4.2-14.8.3-2.7-.6-10.1-1.6-12.7Z"/>
  <path fill="#99d306" d="M1108.4,1024.4c1.7,11.7,6.6,157.2,5.4,160.9-3.8,13.2-1.6,28.4-5,41.7-2.3,8.8-.6,7.9-7.3,13.1,1.5,2,6.3,7.7,6.8,9.4,4.3,15.2,5.6,42.1,2.8,57.1l-2.3-4.4h-1.1s0,.8,0,.8c1,13.2-1.4,14.5-5.4,26.7,3,1.3,1.6.4,3.9,3.4-4.4,3.7-4.4-1.5-5.2,3.2,1.7,2.6,2.5,4.8,5.3,6,.2,10.8,8,20.2,1.8,29.7-5,7.7,0,22.2-1.9,30.8-2.3.6-1.4.5-3.8,0-1.5,2.8.8,15.9,2.1,18.9l.7,1.7-1.1.5c-5.5-.3-2.9,1.9-6.7,5.8-3.7-1.7-6.5-3.9-10.3-1.9-1.6,3.8-.5,4.4,0,9.4-2,3.8-6.2,4.3-7.7,8-1.1,2.5-2.3,4.3-3.7,6.6-.1-.6-.4-1.8-.3-2.3,1.6-7.9-.3-19.8-.9-28-.3-3.7-2.3-8.6-2.3-12.1.2-20-.9-44,.8-63.7,1.6-3.1,4.4-4.4,7.4-6.4-.2-5.1-3.5-3.8-3.5-7.7,0-8.7.5-19.5,1-28.3,5.5-4.2,7.1-4.9,5-12.1-2.1-7.1-5.2-10.2-5.1-17.9l2.2-1-2.7-.6c-11.2-22.8,4.8-21.9,4.6-32.9-10.1-2.7-6.4-16.7-3.5-23.5l-3.9-.4-.6-1.2c.3-4.2.2-4-1.2-8,2.1,2.4,3.6,3.8,5.9,6,1-2.6,0-9.1-1.6-11.2,2.6-3.3,3.7-4,7.6-3.4,3.7,2.7,5,6.6,7.7,10.9l3-1.1,1.9,1.2c.1,1.3.1,2.5,0,3.8,6.8,4.8,1.7,8,5.3,12.2,1.7-2.7,2.7-23.6,2.7-27.5-.2-47.1-1.9-94.3,1.1-141.4.7-10.5.6-20.6,2-31.1Z"/>
  <path fill="#fcfdf8" d="M890.4,163c1.9,3.9,2.3,8,3.5,12.3,3.3,12.3,5.7,16.1,13.3,25.7-4,0-4.6.6-7.5-1.2-3.2-1.9-5-3.6-8.5-3.4-2.4,9.1-4.1,92.1-1.2,98.6,1.5,3.3-2.1,37.1-2.3,44-.6,16.6.7,34.1,1.1,50.8.2,7.9,1,14.2-.2,22.2-2.3,15.2-.1,48.5.1,65.6,0,5.1,1.3,11.8.3,16.7-1.3-2.4-1.7-3.6-2.7-6.1l-1.2.6c-.9,14.9-2.9,27.7-.8,42.6.2,7.8-2,17-1.8,24.7.6,22.3-.2,44.5,0,66.8.2,17,2.1,33.7.2,50.9-.3,2.6.3,3.5,1.8,5.4,1.3,0,2.1-.2,3.4-.3,3,6.2-3.2,10.3,3.6,12.7,5-3.5,2.4-16.7,8.9-23.6,2.9-1.4,4.1-1.3,7.3-1.4-5.5,7-3.3,20.6-4.8,31.4-15.9,2.2-18.1,1.5-18.2,18.2-5.4,1-10,1.4-15.5,1.9-.4-20.4,1.6-44.1,1.9-65.1l3.8-320.9c.2-16.8-.3-120.3,2-126.3,2.5-15.4,1.8-29.1,13.4-42.8Z"/>
  <path fill="#fafcf0" d="M883.4,429.6c2.1,1.7,3.2,14.5,3,17.7l-1.3,1.8-1.2-.3c-1.1-4.8-.6-13.9-.6-19.1Z"/>
  <path fill="#95cc06" d="M542.8,1503.3c9.5,3.4,14.9,5.2,25.1,5.4l1.3,1.4-.6,3.7c4.4,0,7.6-4.9,13.2-5.9-1.5,1.1-2.7,2.2-4,3.6.8,5.3,12.2,10.4,17,12.4l.2,2c1.9-.7,1.7-1,3.3-2.6h2c-1.6,2.6-1.2,1.2-1,4.4l1,1.3,2.4-1.7c4.4,2.5-.2,4.6,5.6,3.1,4-1,7.1-7,11.7-8.5,1.1.5,2.2.9,3.4,1.4l.6-.7-1.8-2.5.6-.6c9.2,1.1,6,10.1,23.7,4.8.9-1.7.5-1.1.3-3.6l-2.6-1.2c1.6-.6,3-1,4.7-1.5l1.8,1.2c-.8,2.7-1,2.3-.6,5,10.3,1.4,10.8,2.7,20.1-1.5l.8-1.3c-4.2-2.9-8.7-1.7-12.1-4.3l.6-1.9c2-.5,2.6-.6,4.7-.7,2-2.7,2.2-2.1,6-3.5,4.7.8,2.7,1.1,6.2,3.7,1.5,1.1,5.4-3.1,9-2.9.6,1.5.5.7,0,2.5l1.3,1,1.1-.6c6-.7,14.3,2.9,19.4-2.2,3.3-3.3,5.9-3.2,10.2-3,2.6,3.6,3.6,5.6,7.3,7,3.5-1.3,8-8,8.8-7.9,19.4,1,39.4,2.3,58.8,2.9-8.8,2.6-40.4,6.3-51.1,7.8l-100.6,14.1c-7.2,1-30,3.7-35.1,6.3-4.2,4.2-1.4,10.7-7.3,13.2-7.1,2.4-14.7,3.3-22.8,2.8-14-.7-43,.9-52.4-11.5-4.3-5.8,10.2-10.2,11.2-12.3,4.3-10.3,2.7-18.2,8.8-28.6Z"/>
  <path fill="#99d306" d="M1097.6,1488.4l2.8-.9c.1-5,12.7-13.1,17.2-12.5.5,2.9.6,3.9.8,7,5.4,3.7,3.3-3.9,8.7,5.9,3.5,1.5,5.5.3,9.6-1.3l1.7.8.9,2.8c11.5,3.3,17-3,28.7,9.4,2.1,2.2,4,5.3,5.9,7l-.4,1.4c-4.3,1.9-9.8,2.3-11.9,4.5,2,1.3,3.2,1.8,5.4,2.8l-.4,5.9c2.8,2,3.3,2.7,5.2,5.4-2.8,1-2.2.7-5.2,1l-.6,1c4.1,5.9,22.3-.3,29.8-.8-11.2,13.5-66,14.9-74.6,1-1.1-11.9-13.6-12.7-23.5-15.2l-1.2-.4c-.2-12.3-10.7-17.6-20.2-22.9l.5-1.9c8.9-4.1,11.2-4.9,21,0Z"/>
  <path fill="#99d306" d="M687.7,1514.8l-.8-1.7c.6-3.1,1.9-4,4.1-6.7-2.4-1.2-1.7-.5-3.4-2.4l.9-1.4c9.7-2.6,3.5-4,3.4-6.9l5.6-.2c3.7-9.4,17.3-11.4,26.1-7.8,1.3.5-.1,2.4,2.8,4,.9-.9,1.4-1.6,2.2-2.6,4.2,3,10.3,5.1,15.2,7.2,1.1,2.3,1.4,3.4,3.2,5.1l3.5-1.7,11,3.9-1.7,2.5c2.6,2.9,20.5-1.6,25.7.2.7.3,5.6.5,6.8.6l.6,4.8-.8-.2c-19.4-.6-39.3-1.9-58.8-2.9-.9,0-5.3,6.6-8.8,7.9-3.7-1.4-4.7-3.4-7.3-7-4.3-.3-6.9-.3-10.2,3-5.1,5.1-13.3,1.5-19.4,2.2Z"/>
  <path fill="#95cc06" d="M830.3,427.4l1.7-.6c-.8-3.4.4-2.7.3-5.9-.5-9.8-1.3-19.7,0-29.4.4-3.6,1.3-3.7,4.1-5.7,1.5,4.9,1.2,8.5,1.2,13.6l-.8,1.2c-1.5-4.5,0-5.9-2.3-7.9-1.3,6.2.4,7.9,3.7,13.6l-1,1.5c-2.8,4.4-2.4,9.5-2.1,14.7l1,1,2.5-1.4c.9-3.3.8-1.6-.4-5.3l1.3.4c3.1,5.7,2.6.4,3.9,5.3-1.8,2-4.7,2.2-7.5,2.8-3.1,3.1-1.5,5.6-.3,9.8h-1c-2.8-2.6-2.7-3.7-3.9-7.6Z"/>
  <path fill="#95cc06" d="M938.4,186.9c.2-.6.5-.6.3-2.1-.4-3.1,5.9-9.5,6.1-12.9,0-2.1.5-2.3,1.5-4.4.3,5.6-.2,17.7-3.5,22h-1.8c0,0-2.5-2.5-2.5-2.5Z"/>
  <path fill="#95cc06" d="M925,191.2c1.2-.9,1.8-2.9,3.9-4.4,1.9,1.9,2.4,2.4,4.6,3.8l1.6.9c0,3,.3,1.9-.9,4.6l-2,.6c-5-2.7-4.3-4.1-7.2-5.5Z"/>
  <path fill="#95cc06" d="M1104.6,1421.7c1.3-2.8.6-2.1,2.7-4.1,3.3,1,3.2,1.2,5.4,3.7l.5,2.2c-1.8,2.9-.6,1.9-4,3.1-3.5-.9-2.3,0-4.2-2.3l.3-.8-.7-1.7Z"/>
  <path fill="#fafcf0" d="M1012.6,806.5c4.7-.1,33.8.7,36.8,1.7,1.4,11.2.9,34.4,1.4,46.8l4.2,109.1c5.6,139.2,9.2,278.4,11,417.7.1,11.8,5.7,67.2,2.8,72.1-.6,1.1-1.8,1.2-3,1.3-3.8.2-19.7-2.4-22.1-5-4.6-1.9-8.2-5.8-14.2-6.6-1.7-.2-1.2-.2-2.4-1.8,3.1-5.4,15.3-7,20.8-10.7,1.5-1,1.9-1.6,2.3-3.4,2.6-13.3-2.3-32.1-2.5-46.2-.8-64.7,0-129.6,0-194.3,0-9.4,2.2-82-2.1-86.4-2.7-2.8-8.3-2.7-11.9-2.7-7.1,0-18.8-1.6-25.2-4.6-2.7-4.1.6-25.6.4-31.8-2.7-81.2-1.4-162.7-1.2-243.8,0-5.3,1.5-7.7,5-11.4Z"/>
  <path fill="#fcfdf8" d="M1014.5,811.4c5,0,23.4,1.7,26.4,5.2-4.1,13.1-1,30.6-1.3,45.5-.3,10.6,5.2,31,3.6,43.9-1.1,8.7-1.6,4.3-4.1,11.6,5.5,15.2,1,28.5,3,41.1.8-.3,1.7-.5,2.5-.8,2.8,24,2.7,55.6,1.7,79.9,3.7,5.9,3.9,4.6,1.5,10.7,4.6,12,3.6,18.1,2.4,30l.2.7c-.6,2-2.6,6.9-4.5,7.7-6,2.4-26.2,3.4-31.8,1.4-.9-4.4.5-27.3.4-34.3l-.7-88.8c-.1-19.2-.7-40.8.5-59.8,6.2-6.6-1.5-7.5,2.4-15.6,1.7-.6,3.2-1,4.9-1.5l-.8-1.1-5.4.5-1.1-1c.3-13.5-2.7-68.9.4-75.4Z"/>
  <path fill="#fcfdf8" d="M1054.1,1169.6l1.4.2c0,14.7,2.1,28.9,2.3,43.1.2,19.5,1.5,38.3,2.2,57.7.8,22.2-.2,44.1,1.2,66.5,1.7,26.8-2.1,54.8,1.1,81.7.8,7.8,7.4,23.3,1,29-3.4,1.2-6.5-.4-10-1.6-2.6,0-1.3.3-3.6-1.3l-.3-1.8.8-.9c17.3-21.1.9-46.4,2.2-72.7,3-57.4-1.6-115.1,1.2-172.4.5-9.3.2-18.4.5-27.6Z"/>
  <path fill="#fcfdf8" d="M1013.8,133.2c3-.1,7,.4,8.8,2.8,3.6,4.9,8.9,15.5,9.3,21.5,1.5,24.9,1.8,50.3,2.3,75.1l3.6,130.8,8.1,253.2c1,34.9,2.7,68.6,2.8,103.6-4.5-1.2-9.1-2.3-13.7-3.4-4.3-5.9-1.5-7.2-3-12.9-1.7-6.6-9.3-4.1-15.2-6.6-6.9-6.8-2.6-18.3-5.9-29-5.2-4.8-5.5-6.2-5.3-13.3.6-24.8.6-49.6.5-74.4V243.2c-.1-19.8-.3-39.5-.6-59.3-.2-11.3-.5-23,0-34.2.2-4.6,5-9.2,7.7-14.9l.8-1.6Z"/>
  <path fill="#fafcf0" d="M948.9,1090.7c-6.5-1.5-20-1-23.9-5.6-1-8-.5-24.4-.5-33.3v-58.8c-.2-46.3,0-92.6.9-138.9.1-12.2.2-24.3-.5-36.5-.6-9.6,11.4-10,18-9.9h1.1c1.7,2,2.3,3.2,2.3,6-.2,44.1,1.2,88.1,0,132.1,0,3.3,5.4,9.6,8.8,8.6,11.3-.3,12.5-5.3,12.6-15.5l.9-90.2c0-7.9-1.7-38.1,1.5-42.8,6-2.9,21-3.4,21.5,5.9.3,5.7-.2,11.6-.3,17.3v40.4c-.3,51.1-.3,102.2,0,153.3,0,8.8.5,63.7-.7,66.8-6.5,5.5-23.2,1-32.1.9-3.2.1-6.5,0-9.7,0Z"/>
  <path fill="#fcfdf8" d="M977.2,948.2c6.4,6.4.8,22.7,1.7,29.5,2.8,19.5,2.2,36.3.8,55.7.8,12.3,2,26,2.5,38.1.6,13.8-34.6,9.1-43,7.8-2.2-.3-3-2.8-3.7-4.7.7-4.1-.1-2.3,2.5-5.6l-.2-.4-2.1-1-.5-1.4c.6-1.7,1.6-4.5,1.4-6.2-2-10.5,2.4-26.2.9-36.2-2.4-16-4.1-25.1-1.2-41.1.6-3.2-4.7-16.8-3.3-23.2,3.9-.6,19.7,8,30,3.9,8.9-3.6,9.4-6.4,14.1-15.1Z"/>
  <path fill="#fcfdf8" d="M933.2,870.1l2.5,1.2c4.4,16.5-1.5,72.7,0,76.6,1.6,2.9,2.8,4.2,2.3,7.5-2.4,2-1.1,1.6-3.9,1.7-.2-.3-.5-.6-.7-.9-4.7-7.2-2.5-74.9-.3-86.1Z"/>
  <path fill="#fcfdf8" d="M932.5,841.1c2.3,1,1.5.5,3.2,2.2,2.1,7.1,3.8,16.2.5,23.1l-3-1.3c-3.8-7.1-1.7-15.8-.7-24.1Z"/>
  <path fill="#fcfdf8" d="M934.1,814.3c5.9,2.8,3.1,9.4,2,14.7-5.6-4.2-5.3-9.2-2-14.7Z"/>
  <path fill="#95cc06" d="M993,704.3l.6-.2c2.8.9,3.1,3,5.1,6.3l1.3-.3c.3-2.6,0-2.6,1.7-4.7,4.2-.7,14.1,2.5,15.4,6.3-3.7,4.7-6.7.9-11.7,6.9l.3,2c4.6,3.6,14.6,5.6,20.4,4.3l1.2-.3,1.6,1.8c2.8.9,1.9.3,4.1,2.1-.1,5.8-2.6,1.6-4.8,7.3,2.8,1.8,5,2.4,8.2,3.6,2,6.2-5.4,16.9-7.3,22.6-1.5,4.3,7.9,11.1,6.4,16.2-1.9-.3-.9-.2-3.1-.2-.4,3.9,2.6,10.6,4.6,14-6.9,6.4-9.6,4-17.2.5l-3.6,1.9c-4.1-3.8,1.2-1.4-2.2-6.1-3.1,1.2-3.6,2.4-5.6,5l-.7,1c-4.5,2.4-9.2,2.4-13.7,0-4.8-2.6-5.6-6.5-10.1-3.1-7.2,5.4-12.1,2.6-20.6,3.2-1.3,9-3.8,11.2-13,6.9,2-.6,1.2,0,2.5-1.4l-2.7-2.8c-2.4.5-4.4.9-6.8,1.5l-1.3-.9.7-1.9c2.9-.8,4.2.6,7.4-.5-5.6-2.8-11,3.7-18.9.8-7.1-2.6-8.9,2.7-15.2,4.5-3.7-1.1-4.5-3.5-7.6-6-9.2-7.3-12.6,1.6-20.4,1.9-3.7.1-6.8-.1-9.4-2.6.2-5.5,2.3-7.5,3.1-12.7-1.5-2.8-2.1-3.6-2.6-6.8,1.8-3.5.5-2,4.7-4,.7-3.2.8-1.7-.3-4.9l-3-1c-1.7-2.9-2.4-6.4-2.8-9.7,3.7-1.6,6-2,7.6-5.1-3.2-1.3-4.5-1.7-7.4-3.7-.8-5.7-2.1-12.1-1.1-17.6,3.4-4.4,18.9-3.5,21.7-4.6,4.5-1.8,10.4-14,16.8-17.7,2-.2,13.7,2,15.4,3.1,15.9-11.9,29.4,8.3,37,.8l-.7-2.8.5-.7c6.8,6.3,12.1-1,21.1-.9,1.9,0,1.2.1,3.2-.4l1.6-.5Z"/>
  <path fill="#99d306" d="M988.6,720.3c3.9,1.3,6.7,4.2,6.6,8.4-.9.9-1.1,1.2-2.2,1.9l-.9-.4c-2.4-.7-2.5-.6-4.5-2l.7.5c1-1.7.6-.9,1.2-2.5h-2.9c2.4-3.6,1.8-1.7,2.1-5.8Z"/>
  <path fill="#99d306" d="M1002.4,755.2c3.8,2,2.5.5,4.3,4.2-1,2.8,0,1.8-2.3,3.4-3.1-.6-3.1-.4-5.4-2.4.4-3.3.4-2.3,3.5-5.3Z"/>
  <path fill="#99ce04" d="M914,712.3c3.3.4,3.7.1,6.5,2.1v1.2c0,0-2.1-.6-2.1-.6-3.1.6-5.7,1.5-8.3-.7,1.7-2.1.7-1.2,4-2.1Z"/>
  <path fill="#99d306" d="M963.9,782.4c2.1.7,1.4.4,3.1,1.9-.5,3.2-.5,2.3-3.4,5.1-2.2-2.3-2.6-1.9-3-4.5l3.3-2.5Z"/>
  <path fill="#99d306" d="M992.3,762.9c.7-.8,1.8-1.1,2.8-.8,1,.3,1.8,1,2,2.1.3,1,0,2.1-.8,2.8-1.1,1.1-2.9,1-4,0-1.1-1.1-1.1-2.9,0-4Z"/>
  <path fill="#99d306" d="M924.3,725.8c4.7,1.9,4.7,3,7.6,7.3l-3.5-.3c-3.2-2.5-2.4-2.5-4.2-7.1Z"/>
  <path fill="#99ce04" d="M987.7,714.4c2.7.5,1.8-.2,3.3,1.5-1.3,1.6-2.3,3.3-3.3,5l-1.6-1.1c-.7-2.8-.3-2.1,1.5-5.5Z"/>
  <path fill="#99ce04" d="M900.5,778.5c1.7-.4.9-.6,2.5.3l-1.4,4.8c-.9-1.5-1.6-2.9-2.4-4.4l1.3-.7Z"/>
  <path fill="#fcfdf8" d="M873.5,803.6c6-.1,27.4.3,32.2,3.5,2.6,7.1,1.5,53,1.5,63.3v100.6s0,70.7,0,70.7c0,8.9,1.3,38.1-3.4,43.4-3.9,1.8-5.9,1.4-10.4,1.3-4.3-5-19.8,8-27.2-5.4-1.9-37.2,2.7-75.1,2-112.5-.2-11.5.6-23,.8-34.5l2.4-92.3c.2-8.6-.9-32.2,2.1-38.2Z"/>
  <path fill="#99d306" d="M1051.8,127l-4.1-7.4c2.6-2.6,8.3-3.6,12-3.9l1.6.8c1.4,7.6-.9,18.2,0,22.7l1.1-1.8c1.1,2.7.8,2.4.7,5.6h2.6c2.4,4.6,7.8,32.4.2,34,3.5,5.5-3.1,6.4,2.6,12-1.5,5-1.4,0-3.5,3.8l2.1.6.4,1.3-1.7.7c1.5,2.8,1.9,3.1,1.8,6.5l-1.1,1.3-.9-.3c-1.1-3.1-1.3-5.5-3.4-7.3l.8,2.7c-1.4,2.6-2.7,3-5.2,4.5l.9,2.4,1.9.7c.8-.8,1.6-1.6,2.4-2.4,3.6.6,3.4.5,6.4,2.5l.2.6h1c0-.1.6-1.6.6-1.6h.8c0-.1-.9.2-.9.2l1.8,1.4c.4,5.9-4.1,8.3-2.9,13.6,5.6,4,8.6,7.4,9,14.5.7,11.6,1.7,31.1-.6,42.2-3.2,3.8-7.9,6.6-8.6,9.9,5.7,9.2,11.8,10.3,9.6,23.1-.5,3-.4,9.4-.6,12.8-2.5,1.4-3.5,1.1-6.5,1.4,2.7,5.3,2.9,13.3,2.2,19.1l-2.7,2.3,4.1.4-.4.9,2.3,1.3-2.7-.2c2,.3,1.8.3,3.9.3-2.9,2.5-5.5,4.4-5.2,8.6l.7,4.5,4.3,1.4c.5,3.4-.7,5.5.2,8.5l-3.8,3.3v2c2.1,2.1.8,1.3,4.8,1.2,2.5-1.7,1.6-.6,3-3.4.2,2.5,0,2.1,0,3.7-.3,7.1,1.6,14.9,2,22.1.5,8.5-1.4,16.4-.9,24.5-3.3,1.3-6.5,1.5-9.4,3l1.2,1.5c.1,0,.2,0,.3,0,.7.3,1.4.5,2.1.8-2.2,3.8-2.1,3.6-6.1,5.3-6.5.5-8.2-4.8-16.8-3.2-.8.1-1.1,0-2-.1,0-.1.1-.2.2-.4,6.1-5.8.4-15.6,0-23.2l1.7-.9,1.8,3.8c.7-2.3.7-1.5,0-3.7l-2.6-1c1.9-5.7-1.4-10.5,3.5-14.2l1.7.5.3-.8-3.1-1.5c-3.3,2.8.9,1.3-.5,3.6-.7,1.1-2.7,3.9-3.5,5l-.9-.9c-1.3-6.2-3.1-13.3-.2-18.8l.9,2.6c1.2-2.7-2-5.5.3-9.8-.9-1.8-1-1.8-2.4-3.2,1.5-2,.5-1.4,2.7-1.8l2.6,3.4c3,0,1.6.3,4.1-1.8l-.5-1.7c-3.5-2.4-3.7-2.4-7.9-3.5l-1-.2c-3.1-3.1.4-10.1-.3-14.8-.7-3.8-2.5-7.3-3.9-10.9-1.6-4.2,1.9-10.2,6-11.3,2.6,1.8,2.7,2.1,4,5l.3-2.1c-3.5-2.3-2.4-3.8-6-4.8l-2.7,2.2-1.3-1,.6-3.4c-4.2-5.2-.6-11-2.9-16.9,0,0-2-2.7-2-2.7-3.2-12,0-55.4,1-66.7,2.7-.4,2.8-.2,5.5.2l-1.9-1.4.3-1.5c2.4-.1,2.4,0,4.5-1-2.1-5.8-3.8-8.3-4-14.7-2.8-.6-2.6-.5-4.8-2.2,0-.7-.1-1.4-.2-2.2-.5-10.2,5.7-9.3,6.1-14.8l-4.8-1.5-.9-1.7c.5-2,3.2-11.8,4.4-12.7,2.1-1.7,3.6-2,6.4-5.5-1-2.2-5.9-4.3-8.4-5.8,1.4-4.6-1.2-11.9-5.4-14.9-2.8-6.3,1-14-4.8-18.5-1.9,2.3-1.3,2.9-1.7,6.6-.8-3.7-2.2-10.9-.9-14.4l3.5-.5c0-4-1.1-9.2.6-12.3,4.1,0,12.2,6.8,15.2,9.7Z"/>
  <path fill="#95cc06" d="M1051.8,127l-4.1-7.4c2.6-2.6,8.3-3.6,12-3.9l1.6.8c1.4,7.6-.9,18.2,0,22.7-2,1.8-.9,1.5-3.2,1.9,1.5-7.3,0-10.6-6.2-14Z"/>
  <path fill="#95cc06" d="M1074.5,361.4c-3.4-.5-3.4-1.2-4.7-4l1.1-1.4,2.9.9.7,4.5Z"/>
  <path fill="#95cc06" d="M1055.1,1473.3c-.6,2.8-.8,1.5.4,3.9l-.8,1.6c2.5-2.1,3-2,6.1-2.4,3.1-3,1.9-6.2,1.1-10.2l1-1c4.5,2.3,4.8,3.9,9.4,4l2.4-1.1c-2.9-.9-3.7-1.1-6.2-3.1,8.8-6.5,7.1-14.1,18.5-12.3,3.2-9.2,4.9-4.8,6.8-8,3.7-6-1.2-19.9,16.8-12.4l3.9-1.8c3.3,3.1,2,4.2.3,8.1,2.2,7.8-.2,10.9-4.6,17.3v1.4c.1,0,3.9,1.1,3.9,1.1l.5,1-2.7,1.1c-.2,2.7-.7,1.7.9,3.5l4-.7c3.2,6.7-16.7,16.7-21.1,18-8.5,2.5-21-5.9-22.6,10.9l1.7,3-.3,1c-2.7-1.6-4.6-2.5-6.9-4.8l1.5-2.5-1.2-.5c-5.8,3.1-4.2,4.3-8.8,3.4,2.1-2.1,1.3-1.3,4.5-2.2v-.5s-1.4-.7-1.4-.7c-2-1.1-1.2-.6-3.1-1.9l-2.6,4c-2.2-.3-8-3.8-10.1-5.2l-.9-1.4c1.5-2.8,5.5-6,7.9-8.2l-.9.3.3-1.8,2.3-.9Z"/>
  <path fill="#95cc06" d="M852.1,1291.4c-2.5-1.2.1-42.7-.2-49.2-.3-6.7-2.3-7.6-5.8-12.8l.7-1.1,1.8-.3c6.9-7-1.2-25.2.8-33.3.7-2.8.9-1.2.5-5.1l-1.4-.9-2.3,3.1,1.4,2-.4,1.3c-5.3,2.1-5.1,1.5-7.5,5.7h-1.4c-2-6.8-4.2-3.1-11.3-5.5-1.7-4.2,4.7-2.8,6.6-8.6l-.9-1.5c-2.9-.1-2.8,0-5.3-1.4.5-1.6,1.2-2.3,2.1-3.7-.8-4.5-4.3-5.9-6.6-10-2.2-3.9-2.9-21-1.9-24.3l1.7-.4c2.5,4.9,3.4,8,3.3,13.6,0,7.4-1.5,16,9.3,14.6,7.3-5.6,1.2-9.8,11.7-12.4,3.4,6-1.5,1.9,1.9,5.8,2.4-1.1,1.7-.5,3.3-2.4,1.7,8.2-.5,14.9-.1,22.7,1.1,23.9-.3,47.8.8,71.7.3,7.5-1.4,27.5-.6,32.4Z"/>
  <path fill="#95cc06" d="M1008.4,96.6c5.5,3.1,9,2.6,13.6,7.3,1.8,1.9,2.3,2.2,4.5,3.1l1.5-1.6c4,0,9.3,3.4,12.7,5.7l-.7.9-2.9.2c-1.4,3.6-3.4,8-5.6,11.2-2.5.9-4.2,1.6-6.8,2.2-2.3.2-4,0-6.2,0,1.7-1.1,1.9-1.3,3.5-2.5-1-1.5-14.9-10.6-16.4-10.9-3.1.6-5.7,3.5-8.2,5.8l-1.2-1.4,2.3-1.8c-2.8-5.4.2-1.9,2.3-8.5l2.9-.2c2-3.5,3.2-5.9,4.8-9.6Z"/>
  <path fill="#effd9b" d="M932,1422.2c5.8.4,47.5,8.9,49.8,11,.8,3.9.7,1.9-.9,6.3-7.4.4-43.9-6.3-49.1-11.3-1.1-3.7-.9-1.8.3-6Z"/>
  <path fill="#95cc06" d="M993.3,1383.1c1.7.8,5.7.6,9.3,2,2.8,4.7-2.8,5-4.9,7.6-.3.3-2.3,10.5-2.5,11.4,2.7.3,2.8.3,5.4,1.2l-4.2,2.3c-3.2-2.6-1.6-4.9-4.9-7.1-4.9-1-4.9.2-9.5.9-1.4-2.8-1.1-4-.9-7.1,4.1-3.8,8-7.4,12.3-11.1Z"/>
  <path fill="#95cc06" d="M1054.7,519.5c-.5,3.9.4,5.7-.5,10.5-2.2,1.8-.9,1.4-4,1.2l-1-1.2c-1.6-7.4-1.8-25.9.3-33l1.2-.2,1.3,4.1.3,3.5,1.6-2.7c2.7,5.4-1.6,10.7.8,17.8Z"/>
  <path fill="#99d306" d="M824.7,1352.9c2.7,1.5,2.6,1.3,4.1,3.9-1.1,2.4-.9,1.5-1.2,4.1,4,3.2,5.2-.9,9.3.1-1.9,1.7-1.2.7-2.1,2.8l3.2,3c-.7,1.6-1.5,3.2-2.2,4.8-3.7-.6-7.3-1.2-10.9-1.6h0c-1.4-3.6-1.9-13.3-.2-17.2Z"/>
  <path fill="#99d306" d="M1069.3,551.5c5.6,1.3,13.2-.7,14.3,5.7-1.6,2.6-1.6,2.7-3.8,4.7l-2.7-1.2c-4.8.6-10.4.7-13.1-3.9,1.8-3.6,1.5-2.6,5.3-5.2Z"/>
  <path fill="#95cc06" d="M985.5,1455.9c2.3.8,5.6,4.6,7.5,6.5.6,2.6,1,3.6,1.9,6.1l-.3.3c-3.7-1.4-4.5-2-8.4-1.1l.5,2.1c-1-2.2-.9-2.5-2.8-3.9-1.3,2.3-.4,1.6-2.5,2.7l-1.4-1c-.8-4.2,2.1-9.2,5.5-11.7Z"/>
  <path fill="#99d306" d="M1075.5,1113.3c3.3-.1,7.5-.6,10,1.4,2,4.1.7,9.6-3,12.4-1-1.6-.6-.7-1-3l-4.1.5c-2-1.6-1.7-4.5-1.4-7l-.5-4.3Z"/>
  <path fill="#99d306" d="M1084.5,742c3.7-.6,2.1-1,5,.9l.5,2.6c-2.4,7-6.2,8-12.9,7.6-.6-4.1-1-2.3.9-5.8l-.2,3.3c.9-2.8,1.7-5.6,2.8-8.3l1.8.8,2-1.2Z"/>
  <path fill="#95cc06" d="M1080.5,480.4c3.8-1.2,2.5,0,4.6-2.8,1.1-6.2-1.1-10.5,1.1-12.7,1.1,3,.6,24.5-.1,28.1l-.5.3c-3.1-4.2-3-.4-6.7-6.2,0-3.5,0-3.4,1.6-6.7Z"/>
  <path fill="#99d306" d="M1074.6,533.7h1.3c0,0,.5,1.3.5,1.3l-1.2-.2c1.3,7.5.3,10-7,11.2l-.4,1.9-1.2.6-.8-1.3c.8-1.1,1.3-1.8,2.1-2.8-1.9-3-3-4.4-3.9-7.8l1.4-1c3.8-.3,5.8-.4,9.2-1.9Z"/>
  <path fill="#95cc06" d="M1002.1,1232c.4,2-.1,4.2-.5,6.1,2.2,1.1,2.9,0,4.1,1.7,3.1,4.2,2.4,8.5,1.6,13.3l-1.3.8c-3.1-10.6-10-9.8-4-21.9Z"/>
  <path fill="#95cc06" d="M657.1,1489.5c4.3,1.5,8.8-.5,12.3,2.4l-.8,1.8-3.4,1.1c-4.8,1.6-10,1.6-13.5-2.4,1.7-2.5,1.5-1.8,5.4-2.9Z"/>
  <path fill="#99d306" d="M1027.1,1464c7.2,0,9.3.5,15.7,4.5-1.8.8-1.4.8-3.2,1.1-3.8,2-6.5,2.4-10.3.3-2.6-3.3-1.8-1.5-2.1-5.9Z"/>
  <path fill="#95cc06" d="M1057.3,484.2c-4.8-.4-4.3.4-7.4-2.1-1.4-3.6-1.5-1.9-.2-5.1,3.1-1.4,2.1-.9,6.2.2l2.4.2c2.3,3,1.6,1.3,1.9,5.4l-1.3,2-1.6-.6Z"/>
  <path fill="#95cc06" d="M1031,1485.1c1.1-4.3.2-3.6,3-5.3,4.1,1.9,4.5,5.6,5.3,9.8l2.2.7.4,1.2-1.2.9c-4.7-1.4-6.5-3.8-9.8-7.4Z"/>
  <path fill="#95cc06" d="M1067.6,834.6c3.8,4.1,6.5,4,9.3,7.6-4,3.1-7.6,2-12.9,1.5,3-4.1-.2-4.1,3.6-9Z"/>
  <path fill="#95cc06" d="M876.6,1225.2c-.6-5-.9-3,1.1-7.7l2-1.5c4.1,1.3,5.2,5.5,4.8,9.5l-.9.9c-2.9.4-4-.3-7-1.2Z"/>
  <path fill="#95cc06" d="M946.5,1313.5c3.1,1.9,7.9,4.7,8.5,8.6l-1.8,2.4c-3.4-2.8-6.5-2.7-9.9-6.1v-2.2s3.2-2.7,3.2-2.7Z"/>
  <path fill="#95cc06" d="M997.5,1249.9c3.5.6,5,3.3,7.3,6.1l-.4,1.8-1.8,1.1c-3-.5-6.9-.8-8.8-2.9.4-3.2,1.2-3.1,3.7-6.1Z"/>
  <path fill="#95cc06" d="M996.8,1331.3c2.9,3.1,5.9.6,5.9,7.4l.6.4.2,1.5c-4.6-1.8-7.8-1.1-10.4-4.9,1-3.3.2-1.7,3.6-4.4Z"/>
  <path fill="#95cc06" d="M922.6,1366.3c2.9.1,1.7-.3,4,1.2l.3,2.8c-1.1,2.2-1,2.5-2.8,4.2l-.8-1.3c-3.1-1.8-4.1-1.6-6.8-3.7,3.1-.8,3.6-.9,6-3.1Z"/>
  <path fill="#95cc06" d="M993.5,1293.8c3,.1,4.1,0,6.9,1.3.8,3.1.3,2.7-1.2,6.5-2.7,0-2.7,0-5.4-.8-1.7-2.6-.9-2.8-.4-6.9Z"/>
  <path fill="#99d306" d="M1082.7,702.3c.6,0,1.2.4,1.8.7,1.2,5.5-2.5,6.6-7.1,7.8-.6-3.9-1.2-2.6,0-5.4,3-.8,3.3-.7,5.3-3.1Z"/>
  <path fill="#95cc06" d="M922,1190.5l1.7,1v1.6c-2.5,3.3-2,2.2-7.3,3.4-2.7-.7-1.8-.2-3.7-2.1l.9-1.6c3.3-1.3,3.9-1.2,7.3-.9l1.1-1.4Z"/>
  <path fill="#95cc06" d="M904.8,1274.7c5.9,0,6.8,4.7,12.8,3.9l1,1.7c-4.7.5-6.3,1.3-11-.1-2.9-3.1-2.1-1.4-2.8-5.4Z"/>
  <path fill="#99d306" d="M846.8,1380.1l1.2.5c-.8,3.6-.2,6.8-2,10h-1.6c0-.1-3.1-4-3.1-4l-1.4.2-.4-1.1.7.2v-.9c4.6-.8,5-.6,6.6-4.8Z"/>
  <path fill="#99d306" d="M849.9,1399c-1.6-1.2-2.7-2.2-4.1-3.6,0-3.4,1.2-3.5,4.2-7,1.9,7,.1,4.6-.1,10.6Z"/>
  <path fill="#99d306" d="M1076.2,676.4c2.6,1,3,1.6,5.2,3.4l-.2,1.6-2.9,1.7-.4-1-.9,1h-2.1c-.9-2.9,0-3.1,1.2-6.8Z"/>
  <path fill="#95cc06" d="M975.2,1173.1c1.7,1.7,1.5,1.8,2.5,4-1.9,1.9-2.6,1.3-5.9,1.7l-1.7.9-1.1-1.1c2-3.7,2.7-3.3,6.2-5.5Z"/>
  <path fill="#95cc06" d="M880.9,1297.4l1.5,1c1.5,2.6,1.5,5.8,1.9,8.9l-2.4.3-1.5-1.2c-.9-3.3,0-5.6.6-9Z"/>
  <path fill="#95cc06" d="M881.2,1345c2.9,4.3,2,5,.8,10-.8-.5-1.9-1.7-2.6-2.3-.8-3.1.5-4.7,1.9-7.7Z"/>
  <path fill="#99d306" d="M1068.9,716.6h4.4c2.9,1.8,1.6.6,3.3,4.1-3.6.4-4.8,1.3-7.5-.9l-.2-3.2Z"/>
  <path fill="#95cc06" d="M903.4,1223.5l3.7.9c2.1,2.2,1.5,2.5,1.9,6.3l-2.9-.3c-2.7-2.3-1.9-2.3-2.7-6.9Z"/>
  <path fill="#99d306" d="M835.1,924l1.3.4c.4,3.2.5,3.4.2,6.8-2.4-1.4-3.2-1.4-4.7-3.5l3.2-3.8Z"/>
  <path fill="#99d306" d="M1072.8,448c2.5,1.6,1.9.5,2.6,2.9l-1.7,1.6c-1.2,0-.5,0-2.3-.6l1.3-3.9Z"/>
  <path fill="#95cc06" d="M985,1327.4c.8-.4,1.7-.3,2.4.2.7.5,1,1.4.8,2.3-.2.9-.9,1.5-1.8,1.7-1.1.2-2.2-.4-2.5-1.5-.4-1,0-2.2,1-2.7Z"/>
  <path fill="#95cc06" d="M886.1,1245.4l2-1.5,1.2.7.2,3c-1.2.3-1.7.2-3,.3l-.4-2.6Z"/>
  <path fill="#fcfbfc" d="M1124.7,1546.7c3.5.5,6.8.8,9.3,3.6-5.4-1.5-10.8-1.9-12.7,4.3l-.2.4c-3.4,0-8.4-2.7-8.9-6.3,3.3-1.7,8.6-1.7,12.5-2Z"/>
  <path fill="#fcfbfc" d="M1041.9,1516.1c4.6,1.1,12.9,2.1,15.2,4.9l-.3.5v1l-1.4.7c-4.9,2-13.6.9-16.1-4.1l2.6-3Z"/>
  <path fill="#fcfbfc" d="M1140.3,1549.8c4.8,1.9,10.1.9,16.9,1.7l.5.7c-2.2,1.5-3.9,1-6.6.8-1.1.3-2.2.6-3.3,1l-1.3,3.5-1,.2c-3.3-2.4-6.3-3.4-5.3-7.8Z"/>
  <path fill="#fcfbfc" d="M1103.7,328.1c2.3.9,2.2.8,3.8,2.7.8,5.5-1.6,8.1-4.5,12.9h0s-1.1-1.3-1.1-1.3c.6-5.8-.9-11.1,1.8-14.2Z"/>
  <path fill="#fcfdf8" d="M1117,309.5l2.7,2.5c1.3,3.6,2.2,6.4,2.2,10.3-2.3.4-2.2.5-4.3-.3-2.2-4.1-1.8-8.1-.6-12.5Z"/>
  <path fill="#fcfbfc" d="M1194.4,1504.2c3.1.2,6.7.4,9,2.4-1.5,2.2-1.9,1.8-5,2.9h-.4c.2,2.1.3,1.2-.2,2.7-3.2-1.7-4-4.7-3.4-8Z"/>
  <path fill="#fcfbfc" d="M1197.1,1490.9c2.2.9,1.6.6,3.4,2.1.1,3.3-.3,2.6-2.8,6-2.8-1.7-1.6-.6-3.3-3.7.7-3.4-.1-2,2.6-4.3Z"/>
  <path fill="#fcfbfc" d="M283.5,1520.5c5.4.5,6.4,1.6,7.5,6.6-2.7-.2-2.3-.2-4.9-1-2.7-3.1-1.8-1.4-2.6-5.6Z"/>
  <path fill="#fcfbfc" d="M370.1,1612.3l2,1c1.3,2.9.8,1.8.6,5.4l-1.4,1.1-4.9-1.2c2.9-2.3,2.8-2.9,3.8-6.3Z"/>
  <path fill="#fcfbfc" d="M34.5,1500.9c.3,1.8,3.1,5.3,4.3,7.1l-.5,1-2.7-.6c0,1.2,0,.4-.7,2.3-2.6-3.9-2-5.8-.4-9.7Z"/>
  <path fill="#fcfbfc" d="M31.8,1014.2c.4,4.3,2.7,3,2.4,7l-3.4,1.4v1.5c0,0-.8.2-.8.2-.1-5,.1-5.3,1.9-10.1Z"/>
  <path fill="#fcfbfc" d="M1110.2,594.5c1.4,3,1.9,3.2,1.9,6.3-1.9,1.1-1.3.7-3.6,1h-.1s-.8,2-.8,2c-1-4.3,0-6,2.5-9.3Z"/>
  <path fill="#fcfbfc" d="M166.4,1611.5l3.1,2,.2,1.7-2.8,3c-1.8-.8-1.9-.9-3.6-1.9.3-2.8.7-2.3,3.1-4.8Z"/>
  <path fill="#fcfbfc" d="M521.8,130.3c1.2-.6,2.6-.3,3.4.8.7,1.1.6,2.6-.5,3.4-.7.6-1.8.8-2.7.4-.9-.4-1.5-1.3-1.5-2.2,0-1,.5-1.9,1.3-2.4Z"/>
  <path fill="#fcfbfc" d="M1108.1,530.8c3.4-.2,3.9-.6,6.7.7l-.4,2.2c-3.4.2-4.4.9-7-.4l.7-2.4Z"/>
  <path fill="#fafcf0" d="M1129.8,1156.6c3.7,2,3.7,1.9,6.3,5.1-4.2.3-3.5.9-5.9-1l-.3-4Z"/>
  <path fill="#fcfbfc" d="M690.9,1454.8c1,3.7.6,3.9-1.3,6.5-1.9-2.6-1.5-1.2-1.7-4.1l3-2.5Z"/>
  <path fill="#fcfbfc" d="M1111.2,568.2c1.5,1.2.9.4,1.8,2.4l-1.3,1.7c-1.3.1-.5.1-2.4-.2l2-3.9Z"/>
  <path fill="#fcfbfc" d="M1106.1,348.2l.8-.2.7.6.3,5.9-1.8-1.4c-.9-3.7-1.3-2.2,0-4.9Z"/>
</svg>